<svg width="86" height="19" viewBox="0 0 86 19" fill="none" xmlns="http://www.w3.org/2000/svg">
<path d="M1.13281 18H11.1875V15.1875H4.10938V1.44141H1.13281V18ZM16.5078 18.2344C17.9023 18.2344 19.1445 17.7891 20.1523 16.3242L20.3398 18H22.6953V10.8984C22.6953 8.03906 20.8203 6.04688 17.6328 6.04688C15.3242 6.04688 13.8359 7.07812 12.7109 8.61328L14.9023 10.1953C15.4062 9.33984 16.3086 8.54297 17.6562 8.54297C19.168 8.54297 19.9648 9.52734 19.9648 11.0156H16.918C14.293 11.0156 12.2539 11.8594 12.2539 14.4023C12.2539 16.8516 14.1055 18.2344 16.5078 18.2344ZM16.918 15.8203C15.8047 15.8203 15.1836 15.2695 15.1836 14.4961C15.1836 13.7578 15.7812 13.0781 17.082 13.0781H19.9648C19.918 14.543 18.5469 15.8203 16.918 15.8203ZM25.7539 18H28.5898V11.5898C28.5898 9.55078 29.6211 8.68359 31.2266 8.68359C32.6914 8.68359 33.4648 9.79688 33.4648 11.332V18H36.2891V10.9688C36.2891 8.51953 35.1172 6.04688 32.0469 6.04688C30.8984 6.04688 29.5273 6.50391 28.5898 7.65234V6.29297H25.7539V18ZM46.7656 1.44141V7.46484C45.957 6.45703 44.6562 6.04688 43.4375 6.04688C40.1914 6.04688 38.4102 8.90625 38.4102 12.1406C38.4102 15.4102 40.1914 18.2344 43.4844 18.2344C44.7852 18.2344 46.0742 17.7891 46.8828 16.6875L47.0117 18H49.6719V1.44141H46.7656ZM44.1758 15.6445C42.207 15.6445 41.3164 14.1094 41.3164 12.1406C41.3164 10.1953 42.207 8.63672 44.1758 8.63672C46.1445 8.63672 47.0117 10.1719 47.0117 12.1406C47.0117 14.1328 46.1445 15.6445 44.1758 15.6445ZM53.1289 18H55.9883V14.5664L57.793 12.5742L61.2266 18H64.6016L59.7383 10.8281L64.1211 6.29297H60.4062L55.9883 11.1562V1.44141H53.1289V18ZM66.1367 4.07812H69.1133V1.44141H66.1367V4.07812ZM66.207 18H69.043V6.29297H66.207V18ZM76.6016 18.2344C77.4102 18.2344 78.2773 18.0469 78.7109 17.8828V15.293C78.3242 15.4805 77.6797 15.7148 77.082 15.7148C76.332 15.7148 75.7578 15.3867 75.7578 14.2617V8.68359H78.7109V6.29297H75.7578V1.34766L72.9688 3.38672V6.29297H71.0352V8.68359H72.9219V14.7656C72.9219 16.8984 74.293 18.2344 76.6016 18.2344ZM81.9336 18H84.8047V14.9062H81.9336V18Z" fill="#335EEA"/>
<path d="M1.13281 18H0.832813V18.3H1.13281V18ZM11.1875 18V18.3H11.4875V18H11.1875ZM11.1875 15.1875H11.4875V14.8875H11.1875V15.1875ZM4.10938 15.1875H3.80937V15.4875H4.10938V15.1875ZM4.10938 1.44141H4.40938V1.14141H4.10938V1.44141ZM1.13281 1.44141V1.14141H0.832813V1.44141H1.13281ZM1.13281 18.3H11.1875V17.7H1.13281V18.3ZM11.4875 18V15.1875H10.8875V18H11.4875ZM11.1875 14.8875H4.10938V15.4875H11.1875V14.8875ZM4.40938 15.1875V1.44141H3.80937V15.1875H4.40938ZM4.10938 1.14141H1.13281V1.74141H4.10938V1.14141ZM0.832813 1.44141V18H1.43281V1.44141H0.832813ZM20.1523 16.3242L20.4505 16.2909L20.3611 15.4916L19.9052 16.1542L20.1523 16.3242ZM20.3398 18L20.0417 18.0334L20.0715 18.3H20.3398V18ZM22.6953 18V18.3H22.9953V18H22.6953ZM12.7109 8.61328L12.469 8.43595L12.2904 8.67966L12.5353 8.85652L12.7109 8.61328ZM14.9023 10.1953L14.7267 10.4386L14.9937 10.6313L15.1608 10.3476L14.9023 10.1953ZM19.9648 11.0156V11.3156H20.2648V11.0156H19.9648ZM19.9648 13.0781L20.2647 13.0877L20.2746 12.7781H19.9648V13.0781ZM16.5078 18.5344C17.237 18.5344 17.9435 18.4179 18.6054 18.0989C19.2689 17.779 19.8698 17.2642 20.3995 16.4943L19.9052 16.1542C19.4271 16.8491 18.903 17.2893 18.3448 17.5584C17.785 17.8282 17.1732 17.9344 16.5078 17.9344V18.5344ZM19.8542 16.3576L20.0417 18.0334L20.638 17.9666L20.4505 16.2909L19.8542 16.3576ZM20.3398 18.3H22.6953V17.7H20.3398V18.3ZM22.9953 18V10.8984H22.3953V18H22.9953ZM22.9953 10.8984C22.9953 9.40207 22.5034 8.10754 21.5701 7.18682C20.6367 6.26604 19.2901 5.74687 17.6328 5.74687V6.34688C19.1631 6.34688 20.3477 6.8238 21.1487 7.61396C21.9497 8.40418 22.3953 9.53543 22.3953 10.8984H22.9953ZM17.6328 5.74687C15.2105 5.74687 13.6388 6.8396 12.469 8.43595L12.9529 8.79061C14.0331 7.31665 15.438 6.34688 17.6328 6.34688V5.74687ZM12.5353 8.85652L14.7267 10.4386L15.0779 9.95207L12.8865 8.37004L12.5353 8.85652ZM15.1608 10.3476C15.6284 9.55375 16.4455 8.84297 17.6562 8.84297V8.24297C16.1717 8.24297 15.1841 9.12594 14.6439 10.0431L15.1608 10.3476ZM17.6562 8.84297C18.3439 8.84297 18.8334 9.06446 19.1543 9.42167C19.4794 9.78364 19.6648 10.3223 19.6648 11.0156H20.2648C20.2648 10.2206 20.0518 9.523 19.6006 9.02071C19.1451 8.51366 18.4803 8.24297 17.6562 8.24297V8.84297ZM19.9648 10.7156H16.918V11.3156H19.9648V10.7156ZM16.918 10.7156C15.5827 10.7156 14.3496 10.9285 13.4414 11.5017C12.5107 12.0891 11.9539 13.035 11.9539 14.4023H12.5539C12.5539 13.2268 13.0167 12.4793 13.7617 12.0091C14.5293 11.5246 15.6282 11.3156 16.918 11.3156V10.7156ZM11.9539 14.4023C11.9539 15.7089 12.4509 16.7524 13.2851 17.4649C14.1138 18.1727 15.2514 18.5344 16.5078 18.5344V17.9344C15.3619 17.9344 14.3725 17.6046 13.6748 17.0087C12.9827 16.4175 12.5539 15.545 12.5539 14.4023H11.9539ZM16.918 15.5203C16.4076 15.5203 16.0467 15.3939 15.8201 15.2135C15.6002 15.0385 15.4836 14.7953 15.4836 14.4961H14.8836C14.8836 14.9703 15.0775 15.3893 15.4465 15.683C15.8087 15.9713 16.3151 16.1203 16.918 16.1203V15.5203ZM15.4836 14.4961C15.4836 14.2118 15.5966 13.9428 15.838 13.7399C16.0824 13.5345 16.4822 13.3781 17.082 13.3781V12.7781C16.381 12.7781 15.8316 12.9616 15.452 13.2806C15.0694 13.6021 14.8836 14.0421 14.8836 14.4961H15.4836ZM17.082 13.3781H19.9648V12.7781H17.082V13.3781ZM19.665 13.0685C19.6238 14.3544 18.4026 15.5203 16.918 15.5203V16.1203C18.6912 16.1203 20.2121 14.7315 20.2647 13.0877L19.665 13.0685ZM25.7539 18H25.4539V18.3H25.7539V18ZM28.5898 18V18.3H28.8898V18H28.5898ZM33.4648 18H33.1648V18.3H33.4648V18ZM36.2891 18V18.3H36.5891V18H36.2891ZM28.5898 7.65234H28.2898V8.49424L28.8222 7.84206L28.5898 7.65234ZM28.5898 6.29297H28.8898V5.99297H28.5898V6.29297ZM25.7539 6.29297V5.99297H25.4539V6.29297H25.7539ZM25.7539 18.3H28.5898V17.7H25.7539V18.3ZM28.8898 18V11.5898H28.2898V18H28.8898ZM28.8898 11.5898C28.8898 10.6176 29.1355 9.97808 29.5213 9.58117C29.9058 9.18556 30.4758 8.98359 31.2266 8.98359V8.38359C30.3718 8.38359 29.6235 8.61523 29.091 9.16297C28.5599 9.70942 28.2898 10.5231 28.2898 11.5898H28.8898ZM31.2266 8.98359C31.8751 8.98359 32.3457 9.22596 32.6608 9.61963C32.9828 10.0218 33.1648 10.6109 33.1648 11.332H33.7648C33.7648 10.518 33.5601 9.78286 33.1292 9.24463C32.6915 8.69786 32.0429 8.38359 31.2266 8.38359V8.98359ZM33.1648 11.332V18H33.7648V11.332H33.1648ZM33.4648 18.3H36.2891V17.7H33.4648V18.3ZM36.5891 18V10.9688H35.9891V18H36.5891ZM36.5891 10.9688C36.5891 9.7024 36.287 8.40315 35.5614 7.41213C34.8263 6.40819 33.6746 5.74687 32.0469 5.74687V6.34688C33.4895 6.34688 34.4588 6.92189 35.0773 7.76658C35.7052 8.6242 35.9891 9.78589 35.9891 10.9688H36.5891ZM32.0469 5.74687C30.8265 5.74687 29.3625 6.23146 28.3574 7.46263L28.8222 7.84206C29.6922 6.77635 30.9704 6.34688 32.0469 6.34688V5.74687ZM28.8898 7.65234V6.29297H28.2898V7.65234H28.8898ZM28.5898 5.99297H25.7539V6.59297H28.5898V5.99297ZM25.4539 6.29297V18H26.0539V6.29297H25.4539ZM46.7656 1.44141V1.14141H46.4656V1.44141H46.7656ZM46.7656 7.46484L46.5316 7.65258L47.0656 8.31814V7.46484H46.7656ZM46.8828 16.6875L47.1814 16.6582L47.1048 15.8781L46.641 16.51L46.8828 16.6875ZM47.0117 18L46.7132 18.0293L46.7397 18.3H47.0117V18ZM49.6719 18V18.3H49.9719V18H49.6719ZM49.6719 1.44141H49.9719V1.14141H49.6719V1.44141ZM46.4656 1.44141V7.46484H47.0656V1.44141H46.4656ZM46.9996 7.2771C46.1158 6.17554 44.7133 5.74687 43.4375 5.74687V6.34688C44.5992 6.34688 45.7983 6.73852 46.5316 7.65258L46.9996 7.2771ZM43.4375 5.74687C41.7154 5.74687 40.3722 6.50988 39.4677 7.69926C38.5691 8.88103 38.1102 10.4722 38.1102 12.1406H38.7102C38.7102 10.5746 39.1419 9.11897 39.9453 8.06246C40.743 7.01356 41.9135 6.34688 43.4375 6.34688V5.74687ZM38.1102 12.1406C38.1102 13.826 38.5688 15.4182 39.4746 16.5964C40.3864 17.7825 41.7416 18.5344 43.4844 18.5344V17.9344C41.9342 17.9344 40.7523 17.2741 39.9502 16.2307C39.1421 15.1795 38.7102 13.7247 38.7102 12.1406H38.1102ZM43.4844 18.5344C44.8487 18.5344 46.243 18.0662 47.1247 16.865L46.641 16.51C45.9055 17.512 44.7216 17.9344 43.4844 17.9344V18.5344ZM46.5842 16.7168L46.7132 18.0293L47.3103 17.9707L47.1814 16.6582L46.5842 16.7168ZM47.0117 18.3H49.6719V17.7H47.0117V18.3ZM49.9719 18V1.44141H49.3719V18H49.9719ZM49.6719 1.14141H46.7656V1.74141H49.6719V1.14141ZM44.1758 15.3445C43.2798 15.3445 42.6569 15.0006 42.2485 14.4518C41.8309 13.8906 41.6164 13.0854 41.6164 12.1406H41.0164C41.0164 13.1646 41.2472 14.1113 41.7671 14.81C42.2962 15.5209 43.103 15.9445 44.1758 15.9445V15.3445ZM41.6164 12.1406C41.6164 11.2082 41.8306 10.4024 42.2489 9.83775C42.6581 9.28528 43.2814 8.93672 44.1758 8.93672V8.33672C43.1014 8.33672 42.295 8.76745 41.7667 9.48061C41.2475 10.1816 41.0164 11.1278 41.0164 12.1406H41.6164ZM44.1758 8.93672C45.0714 8.93672 45.6878 9.28033 46.0903 9.82804C46.5024 10.3889 46.7117 11.1943 46.7117 12.1406H47.3117C47.3117 11.1182 47.0874 10.1717 46.5738 9.47274C46.0505 8.76069 45.2489 8.33672 44.1758 8.33672V8.93672ZM46.7117 12.1406C46.7117 13.0993 46.5022 13.9041 46.0907 14.4615C45.689 15.0055 45.073 15.3445 44.1758 15.3445V15.9445C45.2473 15.9445 46.0493 15.5277 46.5734 14.8178C47.0877 14.1213 47.3117 13.1741 47.3117 12.1406H46.7117ZM53.1289 18H52.8289V18.3H53.1289V18ZM55.9883 18V18.3H56.2883V18H55.9883ZM55.9883 14.5664L55.7659 14.365L55.6883 14.4507V14.5664H55.9883ZM57.793 12.5742L58.0465 12.4138L57.8355 12.0804L57.5706 12.3728L57.793 12.5742ZM61.2266 18L60.9731 18.1604L61.0614 18.3H61.2266V18ZM64.6016 18V18.3H65.1675L64.8499 17.8316L64.6016 18ZM59.7383 10.8281L59.5226 10.6196L59.3532 10.7948L59.49 10.9965L59.7383 10.8281ZM64.1211 6.29297L64.3368 6.50145L64.8282 5.99297H64.1211V6.29297ZM60.4062 6.29297V5.99297H60.2735L60.1842 6.09125L60.4062 6.29297ZM55.9883 11.1562H55.6883V11.9326L56.2103 11.358L55.9883 11.1562ZM55.9883 1.44141H56.2883V1.14141H55.9883V1.44141ZM53.1289 1.44141V1.14141H52.8289V1.44141H53.1289ZM53.1289 18.3H55.9883V17.7H53.1289V18.3ZM56.2883 18V14.5664H55.6883V18H56.2883ZM56.2106 14.7678L58.0153 12.7756L57.5706 12.3728L55.7659 14.365L56.2106 14.7678ZM57.5395 12.7346L60.9731 18.1604L61.4801 17.8396L58.0465 12.4138L57.5395 12.7346ZM61.2266 18.3H64.6016V17.7H61.2266V18.3ZM64.8499 17.8316L59.9866 10.6598L59.49 10.9965L64.3533 18.1684L64.8499 17.8316ZM59.954 11.0366L64.3368 6.50145L63.9054 6.08449L59.5226 10.6196L59.954 11.0366ZM64.1211 5.99297H60.4062V6.59297H64.1211V5.99297ZM60.1842 6.09125L55.7662 10.9545L56.2103 11.358L60.6283 6.49469L60.1842 6.09125ZM56.2883 11.1562V1.44141H55.6883V11.1562H56.2883ZM55.9883 1.14141H53.1289V1.74141H55.9883V1.14141ZM52.8289 1.44141V18H53.4289V1.44141H52.8289ZM66.1367 4.07812H65.8367V4.37813H66.1367V4.07812ZM69.1133 4.07812V4.37813H69.4133V4.07812H69.1133ZM69.1133 1.44141H69.4133V1.14141H69.1133V1.44141ZM66.1367 1.44141V1.14141H65.8367V1.44141H66.1367ZM66.207 18H65.907V18.3H66.207V18ZM69.043 18V18.3H69.343V18H69.043ZM69.043 6.29297H69.343V5.99297H69.043V6.29297ZM66.207 6.29297V5.99297H65.907V6.29297H66.207ZM66.1367 4.37813H69.1133V3.77812H66.1367V4.37813ZM69.4133 4.07812V1.44141H68.8133V4.07812H69.4133ZM69.1133 1.14141H66.1367V1.74141H69.1133V1.14141ZM65.8367 1.44141V4.07812H66.4367V1.44141H65.8367ZM66.207 18.3H69.043V17.7H66.207V18.3ZM69.343 18V6.29297H68.743V18H69.343ZM69.043 5.99297H66.207V6.59297H69.043V5.99297ZM65.907 6.29297V18H66.507V6.29297H65.907ZM78.7109 17.8828L78.8171 18.1634L79.0109 18.0901V17.8828H78.7109ZM78.7109 15.293H79.0109V14.8141L78.5801 15.023L78.7109 15.293ZM75.7578 8.68359V8.38359H75.4578V8.68359H75.7578ZM78.7109 8.68359V8.98359H79.0109V8.68359H78.7109ZM78.7109 6.29297H79.0109V5.99297H78.7109V6.29297ZM75.7578 6.29297H75.4578V6.59297H75.7578V6.29297ZM75.7578 1.34766H76.0578V0.756704L75.5808 1.10548L75.7578 1.34766ZM72.9688 3.38672L72.7917 3.14454L72.6687 3.23442V3.38672H72.9688ZM72.9688 6.29297V6.59297H73.2688V6.29297H72.9688ZM71.0352 6.29297V5.99297H70.7352V6.29297H71.0352ZM71.0352 8.68359H70.7352V8.98359H71.0352V8.68359ZM72.9219 8.68359H73.2219V8.38359H72.9219V8.68359ZM76.6016 18.5344C77.4457 18.5344 78.3489 18.3405 78.8171 18.1634L78.6048 17.6022C78.2057 17.7532 77.3746 17.9344 76.6016 17.9344V18.5344ZM79.0109 17.8828V15.293H78.4109V17.8828H79.0109ZM78.5801 15.023C78.2113 15.2018 77.6144 15.4148 77.082 15.4148V16.0148C77.745 16.0148 78.4372 15.7591 78.8418 15.5629L78.5801 15.023ZM77.082 15.4148C76.7443 15.4148 76.5026 15.3402 76.3439 15.1914C76.1888 15.0458 76.0578 14.7767 76.0578 14.2617H75.4578C75.4578 14.8718 75.614 15.3292 75.9334 15.6289C76.2494 15.9254 76.6697 16.0148 77.082 16.0148V15.4148ZM76.0578 14.2617V8.68359H75.4578V14.2617H76.0578ZM75.7578 8.98359H78.7109V8.38359H75.7578V8.98359ZM79.0109 8.68359V6.29297H78.4109V8.68359H79.0109ZM78.7109 5.99297H75.7578V6.59297H78.7109V5.99297ZM76.0578 6.29297V1.34766H75.4578V6.29297H76.0578ZM75.5808 1.10548L72.7917 3.14454L73.1458 3.6289L75.9349 1.58984L75.5808 1.10548ZM72.6687 3.38672V6.29297H73.2688V3.38672H72.6687ZM72.9688 5.99297H71.0352V6.59297H72.9688V5.99297ZM70.7352 6.29297V8.68359H71.3352V6.29297H70.7352ZM71.0352 8.98359H72.9219V8.38359H71.0352V8.98359ZM72.6219 8.68359V14.7656H73.2219V8.68359H72.6219ZM72.6219 14.7656C72.6219 15.898 72.9875 16.8497 73.6892 17.5172C74.3892 18.183 75.3901 18.5344 76.6016 18.5344V17.9344C75.5044 17.9344 74.6655 17.6177 74.1028 17.0824C73.5418 16.5488 73.2219 15.7661 73.2219 14.7656H72.6219ZM81.9336 18H81.6336V18.3H81.9336V18ZM84.8047 18V18.3H85.1047V18H84.8047ZM84.8047 14.9062H85.1047V14.6063H84.8047V14.9062ZM81.9336 14.9062V14.6063H81.6336V14.9062H81.9336ZM81.9336 18.3H84.8047V17.7H81.9336V18.3ZM85.1047 18V14.9062H84.5047V18H85.1047ZM84.8047 14.6063H81.9336V15.2062H84.8047V14.6063ZM81.6336 14.9062V18H82.2336V14.9062H81.6336Z" fill="#335EEA"/>
</svg>
