<?xml version="1.0" encoding="utf-8"?>
<!-- Generator: Adobe Illustrator 23.0.1, SVG Export Plug-In . SVG Version: 6.00 Build 0)  -->
<svg version="1.1" id="Layer_1" xmlns="http://www.w3.org/2000/svg" xmlns:xlink="http://www.w3.org/1999/xlink" x="0px" y="0px"
	 viewBox="0 0 112 112" style="enable-background:new 0 0 112 112;" xml:space="preserve">
<style type="text/css">
	.st0{opacity:0.2;fill:#766DF4;enable-background:new    ;}
	.st1{fill:#766DF4;}
	.st2{fill:#16C995;}
</style>
<g>
	<g id="Product-Landing---Gadget" transform="translate(-1337.000000, -2904.000000)">
		<g id="Features" transform="translate(401.000000, 2806.000000)">
			<g transform="translate(840.000000, 98.000000)">
				<g transform="translate(96.000000, 0.000000)">
					<path id="Path" class="st0" d="M58.3,76.8c0-11.5,8.7-21.1,20-22.2c-0.6-0.1-1.3-0.1-1.9-0.1c-12.1,0-21.8,10-21.8,22.2
						S64.3,99,76.3,99c0.6,0,1.3,0,1.9-0.1C66.9,97.9,58.3,88.3,58.3,76.8L58.3,76.8z"/>
					<path id="Shape" class="st1" d="M77.4,19.5h-3.1v-2.3c0-3.4-2.7-6.2-6-6.2H68c-3.3,0-6,2.8-6,6.2v2.3H35.2v-2.3
						c0-3.4-2.7-6.2-6-6.2h-0.3c-3.3,0-6,2.8-6,6.2v2.3h-3.1c-4.3,0-7.8,3.6-7.8,7.9v53.7c0,4.4,3.5,7.9,7.8,7.9h35.6
						c0.6,0,1.1-0.5,1.1-1.2s-0.5-1.2-1.1-1.2H19.8c-3,0-5.5-2.5-5.5-5.6V41.5h68.6v14h2.3V27.4C85.2,23.1,81.7,19.5,77.4,19.5
						L77.4,19.5z M68,13.3h0.3c2.1,0,3.8,1.7,3.8,3.8v4.5c0,2.1-1.7,3.8-3.8,3.8H68c-2.1,0-3.8-1.7-3.8-3.8v-4.5
						C64.3,15,66,13.3,68,13.3L68,13.3z M28.9,13.3h0.3c2.1,0,3.8,1.7,3.8,3.8v4.5c0,2.1-1.7,3.8-3.8,3.8h-0.3
						c-2.1,0-3.8-1.7-3.8-3.8v-0.9c0,0,0,0,0,0c0,0,0,0,0,0v-3.5C25.1,15.1,26.8,13.3,28.9,13.3L28.9,13.3z M14.3,39.2V27.4
						c0-3.1,2.5-5.6,5.5-5.6h3.1c0.1,3.3,2.8,6,6,6h0.3c3.3,0,5.9-2.6,6-6H62c0.1,3.3,2.8,6,6,6h0.3c3.3,0,5.9-2.6,6-6h3.1
						c3,0,5.5,2.5,5.5,5.6v11.8L14.3,39.2z"/>
					<g id="Group" transform="translate(39.550562, 41.528090)">
						<path class="st2" d="M36.2,11.2c-13.3,0-24.1,11-24.1,24.6s10.8,24.6,24.1,24.6s24.1-11,24.1-24.6
							C60.3,22.2,49.5,11.2,36.2,11.2L36.2,11.2z M36.2,58c-8.8,0-16.8-5.4-20.1-13.7S14.6,26.4,20.8,20s15.6-8.3,23.8-4.8
							S58,26.7,58,35.7C58,48,48.3,58,36.2,58L36.2,58z"/>
						<path class="st2" d="M41.1,21c-1.1,0.3-2.2,0.8-3.2,1.5c-0.5,0.3-1.1,0.7-1.6,0.9c-0.1-0.1-0.2-0.1-0.4-0.2
							c-1.4-0.8-3.5-2-5.3-2.3c-4.1-0.6-7.2,1.3-8.3,5c-1.1,3.5,0.1,7.5,2.7,8.9c1.3,0.7,2.2,1.2,2.4,1.6c0.2,0.3,0.1,0.8,0,2
							c0,0.2,0,0.4-0.1,0.7c-0.1,1.8-0.3,8,2.8,11.3c0.2,0.2,0.5,0.4,0.9,0.5c0.7,0.3,1.5,0.1,2.1-0.4c0.6-0.5,0.9-1.3,0.7-2
							c-0.1-1.4-0.1-2.7,0-4.1c0.2-2,0.7-4.9,2.2-6.7c0.1-0.1,0.2-0.2,0.3-0.2c0.1,0,0.2,0.1,0.3,0.2c2.7,3.5,2.2,10.3,2.1,10.8
							c-0.1,0.8,0.2,1.5,0.7,2c0.6,0.5,1.4,0.6,2.1,0.4c0.3-0.1,0.6-0.3,0.9-0.5c3.1-3.3,2.9-9.5,2.8-11.3c0-0.2,0-0.5-0.1-0.7
							c-0.1-1.1-0.1-1.7,0-2c0.2-0.4,1.1-0.9,2.4-1.6c2.7-1.5,3.9-6,2.4-9.7C48.6,21.3,45.3,19.8,41.1,21L41.1,21z M46.5,32.6
							c-3.7,2-3.9,2.7-3.7,5.8c0,0.2,0,0.4,0.1,0.7c0.2,3.1-0.2,7.1-1.9,9.2c0.1-1.5,0.4-8.3-2.7-12.2c-0.5-0.6-1.3-1-2.1-1
							c-0.8,0-1.6,0.4-2.1,1C31,40,31.3,46.8,31.4,48.4c-1.7-2.1-2.1-6.1-1.9-9.2c0-0.2,0-0.5,0.1-0.7c0.3-3.1,0-3.9-3.7-5.8
							c-1.6-0.9-2.3-3.7-1.6-6.1c0.5-1.5,1.9-3.9,5.9-3.4c1.4,0.2,3.3,1.3,4.5,2c0.4,0.2,0.7,0.4,1,0.6c1.3,0.6,3.2,1.5,5.1,1.1
							c0.6-0.1,1-0.7,0.9-1.4c-0.1-0.6-0.7-1-1.3-0.9c-0.5,0.1-1,0.1-1.4,0l0.1-0.1c0.8-0.5,1.7-1,2.6-1.2c4.1-1.1,5.7,1.1,6.3,2.6
							C48.9,28.4,48.3,31.7,46.5,32.6L46.5,32.6z"/>
					</g>
				</g>
			</g>
		</g>
	</g>
</g>
</svg>
