<?xml version="1.0" encoding="utf-8"?>
<!-- Generator: Adobe Illustrator 23.0.1, SVG Export Plug-In . SVG Version: 6.00 Build 0)  -->
<svg version="1.1" id="Layer_1" xmlns="http://www.w3.org/2000/svg" xmlns:xlink="http://www.w3.org/1999/xlink" x="0px" y="0px"
	 viewBox="0 0 112 112" style="enable-background:new 0 0 112 112;" xml:space="preserve">
<style type="text/css">
	.st0{opacity:0.2;}
	.st1{fill:#766DF4;}
	.st2{fill:#16C995;}
</style>
<g>
	<g id="Product-Landing---Gadget" transform="translate(-913.000000, -2901.000000)">
		<g id="Features" transform="translate(401.000000, 2806.000000)">
			<g transform="translate(420.000000, 95.000000)">
				<g transform="translate(92.000000, 0.000000)">
					<g id="Group" transform="translate(14.845361, 9.000000)" class="st0">
						<path id="Path" class="st1" d="M56.9,18.6c2.2-1.4,4.1-2.6,7.8-3.6c3.1-0.9,6-1.1,8.6-0.8c-3.7-2.3-8.6-2.7-14.2-1.1
							c-3.7,1-5.6,2.2-7.8,3.6c-1.4,0.9-2.8,1.8-4.3,2.5c2.2,1,4.2,1.5,6,1.7C54.3,20.2,55.6,19.4,56.9,18.6L56.9,18.6z"/>
						<path class="st1" d="M61.4,76.3c-0.8-9.3-3.1-16.5-7-21.4c-1.1-1.3-2.6-2.1-4.3-2.1c-0.4,0-0.9,0.1-1.3,0.2c0,0,0,0,0,0
							c3.9,4.9,6.2,12.1,7,21.4c0.4,4.1,0.4,8.3,0,12.4c0,0,0,0.1,0,0.1c-0.1,0.6,0.1,1.2,0.6,1.7c0.5,0.4,1.1,0.5,1.7,0.3
							c0.3-0.1,0.5-0.2,0.7-0.3c1.2-1.3,2.1-2.7,2.9-4.2C61.7,81.6,61.6,79,61.4,76.3L61.4,76.3z"/>
						<path class="st1" d="M33,86.8c0,0,0-0.1,0-0.2c-3.7-6.8-4.5-16.8-3.9-24.8c0.1-0.7,0.1-1.3,0.2-1.9c0.3-3.8,0.5-6.2-0.8-8.3
							c-1.2-2-3.7-3.6-8.5-6.2c-2.6-1.4-4.7-4.3-5.7-8.1c-1-3.8-0.9-7.9,0.2-11.7c1.2-3.7,3.3-6.7,6.2-8.7c3.4-2.3,7.6-3.1,12.7-2.4
							c0.2,0,0.4,0.1,0.5,0.1c-2.1-1-4.2-1.7-6.2-2c-5-0.7-9.3,0.1-12.7,2.4c-2.9,1.9-5,4.9-6.2,8.7c-1.2,3.8-1.2,7.8-0.2,11.7
							c1,3.8,3,6.6,5.7,8.1c4.8,2.6,7.3,4.2,8.5,6.2c1.3,2.1,1.1,4.4,0.8,8.3c0,0.6-0.1,1.2-0.2,1.9c-0.7,9.7,0.6,22.2,6.6,28.6
							c0.2,0.2,0.4,0.3,0.7,0.3c0.8,0.3,1.8-0.1,2.1-0.9C33.1,87.6,33.1,87.3,33,86.8C33.1,86.9,33,86.8,33,86.8L33,86.8z"/>
					</g>
					<path class="st1" d="M28.5,54.2c4.3,2.3,6.6,3.8,7.6,5.3c0.9,1.4,0.7,3.3,0.4,6.8c0,0.6-0.1,1.3-0.2,1.9
						c-0.4,5.6-0.1,11.4,0.8,16.3c1.2,6.1,3.4,10.9,6.4,14.1c1.3,1.3,3.2,1.6,4.8,0.8c1.6-0.8,2.5-2.7,2.2-4.5
						c-0.1-1.1-1.9-21.5,6.6-32.1c0.6-0.7,1.5-1.2,2.5-1.2s1.8,0.4,2.4,1.2c8.3,10.6,6.5,31,6.4,32.1c-0.2,1.2,0.1,2.5,0.9,3.4
						c0.8,0.9,1.9,1.5,3.1,1.5c0.5,0,0.9-0.1,1.4-0.2c0.6-0.2,1.2-0.5,1.6-0.9c3.1-3.2,5.2-8,6.4-14.1c1-4.9,1.3-10.7,0.8-16.3
						c-0.1-0.7-0.1-1.3-0.2-1.9c-0.3-3.5-0.4-5.4,0.4-6.8c0.9-1.5,3.3-3,7.6-5.3c3.5-1.9,6-5.9,7.1-11.1c1-5,0.4-10.3-1.5-14.8
						c-0.2-0.4-0.6-0.7-1-0.8s-0.9,0.2-1.1,0.5c-0.3,0.4-0.3,0.9-0.1,1.3c1.7,3.9,2.2,8.7,1.3,13.2c-0.9,4.4-3,7.8-5.8,9.3
						c-9.7,5.3-9.9,6.5-9.3,14.6c0,0.6,0.1,1.2,0.2,1.9c1.1,14.7-2.7,24.4-6.6,28.5c-0.2,0.1-0.4,0.2-0.7,0.3
						c-0.8,0.3-1.6-0.1-2-0.8c-0.1-0.3-0.2-0.6-0.1-1c0,0,0-0.1,0-0.1c0.3-4.2,0.3-8.3,0-12.5c-0.8-9.3-3.1-16.6-7-21.5
						c-1.1-1.4-2.7-2.1-4.4-2.2c-1.7,0-3.3,0.8-4.4,2.1c-3.9,4.9-6.3,12.2-7.1,21.5c-0.4,4.2-0.4,8.4,0,12.5c0,0,0,0.1,0,0.1
						c0.1,0.3,0,0.7-0.1,1c-0.4,0.8-1.2,1.1-2,0.8c-0.2-0.1-0.4-0.2-0.6-0.3c-3.9-4.1-7.7-13.8-6.6-28.5c0.1-0.7,0.1-1.3,0.2-1.9
						c0.7-8.1,0.4-9.3-9.3-14.6c-2.6-1.4-4.6-4.3-5.6-8c-1-3.8-0.9-7.9,0.2-11.6c1.2-3.9,5.5-12.8,18.6-11c4.3,0.6,9.7,3.8,13.3,5.9
						c1.1,0.6,2,1.2,2.7,1.5c3.3,1.7,8.3,3.8,13.2,2.8c0.4-0.1,0.8-0.4,0.9-0.8c0.1-0.4,0.1-0.9-0.2-1.3C72.5,29.1,72,29,71.6,29
						c-2.6,0.5-5.6,0-9.2-1.5c1.4-0.7,2.8-1.5,4.1-2.4c2.2-1.4,4.1-2.6,7.8-3.6c5.1-1.4,9.5-1.3,13.1,0.6c0.6,0.3,1.4,0,1.7-0.6
						c0.3-0.6,0.1-1.4-0.6-1.7c-4.1-2.1-9.1-2.3-14.8-0.7c-4.1,1.1-6.2,2.5-8.4,3.9c-1.7,1.2-3.6,2.2-5.5,3c-0.1,0-0.1,0.1-0.2,0.1
						c-0.5-0.3-1.2-0.7-2-1.1c-3.7-2.2-9.4-5.6-14.2-6.2c-10.4-1.4-18.4,3.3-21.3,12.8C19.1,40.5,22.1,50.7,28.5,54.2L28.5,54.2z"/>
					<path id="Shape" class="st2" d="M12.3,73c0.4,0,0.7-0.2,1-0.5c1.4-2.1,3.8-3.2,6.3-2.7c0.5,0.1,1.1-0.2,1.3-0.7s0-1.1-0.4-1.4
						c-2.1-1.4-3.1-3.9-2.7-6.3c0.1-0.5-0.2-1.1-0.7-1.3c-0.5-0.2-1.1,0-1.4,0.4c-1.4,2.1-3.8,3.2-6.3,2.7c-0.5-0.1-1.1,0.2-1.3,0.7
						c-0.2,0.5,0,1.1,0.4,1.4c2.1,1.4,3.1,3.9,2.7,6.3c-0.1,0.3,0,0.7,0.2,1C11.6,72.8,12,73,12.3,73L12.3,73z M15.4,64
						c0.2,1.3,0.7,2.5,1.5,3.5c-1.3,0.2-2.4,0.7-3.5,1.5c-0.2-1.3-0.7-2.5-1.5-3.5C13.2,65.3,14.4,64.8,15.4,64L15.4,64z"/>
					<path class="st2" d="M103,22.7c-4.9-1-8.6-4.8-9.6-9.7c-0.1-0.6-0.6-1-1.2-1s-1.1,0.4-1.2,1c-1,4.9-4.8,8.7-9.6,9.7
						c-0.6,0.1-1,0.6-1,1.3s0.4,1.1,1,1.3c4.9,1,8.6,4.8,9.6,9.7c0.1,0.6,0.6,1,1.2,1s1.1-0.4,1.2-1c1-4.9,4.8-8.7,9.6-9.7
						c0.6-0.1,1-0.6,1-1.3S103.6,22.9,103,22.7L103,22.7z M92.1,30.8c-1.4-2.9-3.8-5.3-6.7-6.8c2.9-1.4,5.3-3.8,6.7-6.8
						c1.4,2.9,3.8,5.3,6.7,6.8C95.9,25.4,93.6,27.8,92.1,30.8z"/>
					<path class="st2" d="M32.7,82c0-0.6-0.4-1.1-1-1.2C27.9,80,24.8,76.9,24,73c-0.1-0.6-0.6-1-1.2-1s-1.1,0.4-1.2,1
						c-0.8,3.9-3.8,7-7.7,7.8c-0.6,0.1-1,0.6-1,1.2s0.4,1.1,1,1.2c3.9,0.8,6.9,3.9,7.7,7.8c0.1,0.6,0.6,1,1.2,1s1.1-0.4,1.2-1
						c0.8-3.9,3.8-7,7.7-7.8C32.3,83.1,32.7,82.6,32.7,82L32.7,82z M22.8,87.1c-1.1-2.2-2.9-4-5.1-5.1c2.2-1.2,3.9-2.9,5.1-5.1
						c1.1,2.2,2.9,4,5.1,5.1C25.8,83.2,24,84.9,22.8,87.1L22.8,87.1z"/>
				</g>
			</g>
		</g>
	</g>
</g>
</svg>
