<?xml version="1.0" encoding="utf-8"?>
<!-- Generator: Adobe Illustrator 23.0.1, SVG Export Plug-In . SVG Version: 6.00 Build 0)  -->
<svg version="1.1" id="Layer_1" xmlns="http://www.w3.org/2000/svg" xmlns:xlink="http://www.w3.org/1999/xlink" x="0px" y="0px"
	 viewBox="0 0 112 112" style="enable-background:new 0 0 112 112;" xml:space="preserve">
<style type="text/css">
	.st0{opacity:0.2;fill:#766DF4;enable-background:new    ;}
	.st1{fill:#766DF4;}
	.st2{fill:#16C995;}
</style>
<g>
	<g id="Product-Landing---Gadget" transform="translate(-496.000000, -3196.000000)">
		<g id="Features" transform="translate(401.000000, 2806.000000)">
			<g transform="translate(0.000000, 390.000000)">
				<g transform="translate(95.000000, 0.000000)">
					<path id="Path" class="st0" d="M63.3,20c2.3-1.5,4.3-2.8,8.2-4c3.3-0.9,6.3-1.2,9-0.9c-3.9-2.5-9-2.9-15-1.2
						c-3.9,1.1-5.9,2.4-8.2,4c-1.5,1-3,1.9-4.6,2.7c2.3,1,4.4,1.7,6.3,1.9C60.5,21.7,61.9,20.9,63.3,20L63.3,20z"/>
					<path class="st0" d="M39.4,89.3c0,0,0-0.1,0-0.2c-3.8-6.8-4.7-16.8-4.1-24.8c0.1-0.7,0.1-1.3,0.2-1.9c0.3-3.8,0.5-6.2-0.8-8.3
						c-1.3-2-3.8-3.6-8.8-6.2c-2.7-1.4-4.8-4.3-5.9-8.1c-1-3.8-0.9-7.9,0.3-11.7c1.2-3.7,3.4-6.7,6.4-8.7c3.5-2.3,7.9-3.1,13.1-2.4
						c0.2,0,0.4,0.1,0.6,0.1c-2.2-1-4.4-1.7-6.4-2c-5.2-0.7-9.6,0.1-13.1,2.4c-3,2-5.2,5-6.4,8.7c-1.2,3.8-1.3,7.9-0.3,11.7
						c1.1,3.8,3.1,6.7,5.9,8.1c4.9,2.6,7.5,4.2,8.8,6.2c1.3,2.1,1.1,4.4,0.8,8.3c-0.1,0.6-0.1,1.2-0.2,1.9
						C28.8,72,30.2,84.6,36.4,91c0.2,0.2,0.5,0.3,0.7,0.3c0.6,0.2,1.3,0.1,1.7-0.3C39.4,90.6,39.6,90,39.4,89.3
						C39.5,89.3,39.5,89.3,39.4,89.3L39.4,89.3z"/>
					<path class="st1" d="M82.1,12.8c-4.3-2.1-9.5-2.4-15.5-0.8c-4.2,1.1-6.4,2.5-8.8,3.9c-1.6,1-3.3,2-5.8,3
						c-0.1,0-0.2,0.1-0.3,0.1c-0.6-0.3-1.3-0.7-2.1-1.2c-3.9-2.2-9.8-5.5-14.8-6.2C24.1,10.3,15.8,15,12.8,24.3
						c-2.9,8.9,0.1,19,6.8,22.5c4.5,2.3,7,3.8,7.9,5.4c0.9,1.4,0.8,3.4,0.5,6.8c-0.1,0.6-0.1,1.2-0.2,1.9
						c-0.4,5.6-0.1,11.4,0.9,16.3c1.3,6.1,3.5,10.8,6.7,14c0.4,0.4,0.9,0.7,1.6,0.9c0.4,0.1,0.9,0.2,1.4,0.2c1.2,0,2.4-0.5,3.2-1.4
						c0.8-0.9,1.1-2.1,0.9-3.3c-0.1-1-2-21.5,6.9-32.1c0.7-0.8,1.6-1.2,2.7-1.2s2,0.5,2.7,1.2c0.5,0.6,0.9,1.2,1.3,1.8
						c0.2,0.4,0.6,0.6,1,0.5c0.4,0,0.8-0.3,1-0.6c0.2-0.4,0.2-0.8-0.1-1.2c-0.5-0.7-0.9-1.4-1.5-2c-1.1-1.3-2.7-2.1-4.5-2.1
						s-3.4,0.7-4.5,2c-4.1,4.9-6.6,12.1-7.4,21.4c-0.4,4.1-0.4,8.3,0,12.5c0,0,0,0.1,0,0.1c0.1,0.6-0.1,1.2-0.6,1.6
						c-0.5,0.4-1.2,0.5-1.8,0.3c-0.3-0.1-0.5-0.2-0.7-0.3c-4.1-4.1-8.1-13.8-6.9-28.5c0.1-0.7,0.1-1.3,0.2-1.9
						c0.3-3.8,0.5-6.1-0.8-8.2c-1.3-2-3.9-3.6-8.8-6.2c-2.7-1.4-4.8-4.3-5.9-8.1c-1-3.8-1-7.9,0.3-11.7c1.2-3.7,3.4-6.7,6.4-8.6
						c3.5-2.3,7.9-3.1,13.2-2.4c4.5,0.6,10.2,3.8,13.9,5.9c1.1,0.6,2.1,1.2,2.8,1.5c3.4,1.7,8.6,3.8,13.7,2.8c0.6-0.1,1-0.7,0.9-1.3
						c-0.1-0.6-0.7-1-1.4-0.9c-2.8,0.5-6.1,0-10-1.6c1.6-0.7,3.1-1.6,4.5-2.5c2.3-1.4,4.3-2.6,8.2-3.6c10.1-2.7,17.7,0.5,21,8.7
						c1.6,3.9,1.9,8.6,1,12.9c-1,4.2-3.2,7.5-6,9c-2.7,1.4-4.9,2.6-6.4,3.7c-0.5,0.4-0.6,1.1-0.2,1.6c0.4,0.5,1.1,0.6,1.6,0.2
						c1.4-1,3.4-2.2,6.1-3.5c3.5-1.8,6.1-5.6,7.2-10.5c1.1-4.7,0.7-9.9-1.1-14.2C88.7,17.9,85.8,14.7,82.1,12.8L82.1,12.8z"/>
					<g id="Group" transform="translate(35.904255, 37.340426)">
						<path id="Shape" class="st2" d="M38,11c-14.7,0-26.7,11.8-26.7,26.3s12,26.3,26.7,26.3s26.7-11.8,26.7-26.3S52.7,11,38,11z
							 M38,61.3c-13.5,0-24.4-10.7-24.4-24s10.9-24,24.4-24s24.4,10.7,24.4,24C62.3,50.6,51.4,61.3,38,61.3L38,61.3z"/>
						<path class="st2" d="M36.6,22c0.9,0,1.8-0.3,2.6-1c0.2-0.2,0.4-0.3,0.6-0.5c0.3-0.3,0.8-0.6,1.2-0.8c0.6-0.2,1.4-0.1,2.3,0.2
							c0.6,0.3,1.3,0,1.5-0.6s0-1.3-0.6-1.5c-1.4-0.6-2.8-0.7-4-0.3c-0.7,0.3-1.4,0.7-2,1.2c-0.2,0.1-0.3,0.3-0.5,0.4
							c-0.7,0.5-1.5,0.9-3.3-0.7c-0.3-0.3-0.7-0.4-1.1-0.3c-0.4,0.1-0.7,0.4-0.8,0.9c-0.1,0.4,0,0.8,0.4,1.1
							C34.1,21.5,35.4,22,36.6,22L36.6,22z"/>
						<path class="st2" d="M33.6,33.4c-0.6-0.1-1.3,0.2-1.4,0.9c-0.7,3.1,0.1,5.2,2.5,6.2c0.3,0.1,0.5,0.2,0.7,0.3
							c0.6,0.2,0.9,0.3,1.4,0.7c0.5,0.5,0.9,1.2,1,2.3c0.1,0.6,0.6,1,1.2,1c0,0,0.1,0,0.1,0c0.3,0,0.6-0.2,0.8-0.4
							c0.2-0.2,0.3-0.5,0.3-0.9c-0.2-1.6-0.8-2.9-1.8-3.8c-0.6-0.5-1.4-1-2.2-1.2c-0.2-0.1-0.4-0.1-0.6-0.2c-0.9-0.4-1.7-1-1.1-3.5
							c0.1-0.3,0-0.6-0.1-0.9C34.2,33.7,33.9,33.5,33.6,33.4L33.6,33.4z"/>
						<path class="st2" d="M52.2,38.3c-0.2,0.1-0.3,0.3-0.5,0.4c-0.7,0.6-1.7,1-3.6-0.8c-0.5-0.4-1.2-0.4-1.7,0.1
							c-0.4,0.5-0.4,1.2,0.1,1.6c1.4,1.3,2.7,1.9,4,1.9c0.9,0,1.8-0.3,2.7-1c0.2-0.2,0.4-0.3,0.6-0.5c0.4-0.4,0.7-0.6,1.3-0.8
							c0.7-0.2,1.5-0.1,2.5,0.3c0.6,0.2,1.3,0,1.5-0.6c0.3-0.6,0-1.2-0.6-1.5c-1.5-0.7-2.9-0.8-4.2-0.4
							C53.5,37.3,52.8,37.7,52.2,38.3z"/>
						<path class="st2" d="M50.8,31.8c0.4,0,0.8-0.2,1-0.6c0.2-0.4,0.2-0.8,0-1.1c-0.5-0.8-0.2-1.9,0.6-2.4c1.1-0.7,1.8-1.9,1.8-3.2
							c0.1-1.3-0.4-2.5-1.4-3.4c-0.3-0.3-0.8-0.4-1.2-0.2c-0.4,0.1-0.7,0.5-0.8,0.9s0.1,0.8,0.4,1.1c0.4,0.4,0.7,0.9,0.6,1.5
							c0,0.6-0.3,1.1-0.8,1.4c-1.8,1.2-2.4,3.5-1.3,5.4C50,31.5,50.4,31.8,50.8,31.8L50.8,31.8z"/>
						<path class="st2" d="M40.9,51.1c-0.6-0.1-1.2,0.4-1.3,1.1c-0.1,0.6-0.4,1.2-1,1.6c-0.6,0.3-1.3,0.4-1.9,0.1l-0.5-0.2
							c-1.1-0.5-2.4-0.5-3.5,0c-1.1,0.5-2,1.5-2.4,2.6l-0.1,0.2c-0.1,0.4,0,0.8,0.2,1.1c0.3,0.3,0.7,0.4,1.1,0.4
							c0.4-0.1,0.7-0.4,0.9-0.8l0.1-0.2c0.2-0.5,0.6-1,1.1-1.2c0.5-0.2,1.1-0.2,1.7,0l0.5,0.2c1.3,0.5,2.8,0.4,4-0.3s2-2,2.1-3.4
							c0-0.3-0.1-0.6-0.3-0.8C41.5,51.3,41.2,51.1,40.9,51.1L40.9,51.1z"/>
						<path class="st2" d="M26.1,33.3c0-0.6-0.6-1.1-1.2-1.1s-1.1,0.6-1.1,1.2c0,0.6-0.3,1.3-0.8,1.7c-0.5,0.4-1.2,0.5-1.8,0.4
							l-0.5-0.1c-1.2-0.3-2.5-0.2-3.5,0.5s-1.8,1.7-2,2.9l0,0.2c-0.1,0.3,0,0.6,0.2,0.9s0.4,0.4,0.8,0.5c0.1,0,0.1,0,0.2,0
							c0.6,0,1-0.4,1.2-0.9l0-0.2c0.1-0.6,0.4-1,0.9-1.3s1.1-0.4,1.6-0.2l0.5,0.1c1.4,0.4,2.8,0.1,3.9-0.8
							C25.5,36,26.2,34.7,26.1,33.3L26.1,33.3z"/>
						<path class="st2" d="M26.9,41.5c-0.2,0.2-0.4,0.5-0.4,0.8s0,0.6,0.2,0.9c0.4,0.5,0.5,1.2,0.3,1.8s-0.8,1-1.4,1.2
							c-1.2,0.2-2.3,1-2.9,2c-0.6,1-0.7,2.3-0.3,3.5c0.2,0.6,0.9,0.9,1.5,0.7c0.6-0.2,0.9-0.9,0.7-1.5c-0.2-0.5-0.1-1.1,0.1-1.5
							c0.3-0.5,0.7-0.8,1.3-0.9c1.5-0.3,2.7-1.3,3.2-2.6s0.3-2.9-0.6-4c-0.2-0.2-0.5-0.4-0.8-0.4S27.1,41.3,26.9,41.5L26.9,41.5z"/>
						<path class="st2" d="M21.1,25.3c0.3,0.2,0.6,0.2,0.9,0.1c0.3-0.1,0.6-0.3,0.7-0.5c0.3-0.5,0.9-0.8,1.6-0.7s1.1,0.6,1.2,1.2
							c0.2,1.6,1.4,2.9,3,3.2c0.3,0.1,0.5,0.1,0.8,0.1c1.3,0,2.6-0.7,3.3-1.8c0.3-0.5,0.2-1.3-0.4-1.6c-0.6-0.3-1.3-0.2-1.6,0.4
							c-0.3,0.5-0.9,0.8-1.6,0.7s-1.1-0.6-1.2-1.2c-0.2-1.6-1.5-2.9-3.1-3.2c-1.6-0.3-3.2,0.4-4,1.8c-0.2,0.3-0.2,0.6-0.1,0.9
							C20.6,24.9,20.8,25.2,21.1,25.3L21.1,25.3z"/>
						<path class="st2" d="M50.3,53.5c-0.6,0-1.2-0.3-1.4-0.9c-0.2-0.6-0.1-1.2,0.4-1.6c1.2-1.1,1.6-2.8,0.9-4.3
							c-0.7-1.5-2.2-2.4-3.8-2.3c-0.4,0-0.8,0.3-1,0.7c-0.2,0.4-0.1,0.8,0.1,1.2c0.2,0.3,0.6,0.5,1.1,0.5c0.6-0.1,1.2,0.3,1.5,0.9
							c0.3,0.6,0.1,1.2-0.4,1.7c-1.2,1.1-1.5,2.7-1,4.2c0.6,1.5,2,2.4,3.6,2.4c0.1,0,0.1,0,0.2,0c0.4,0,0.8-0.3,1-0.6
							c0.2-0.4,0.2-0.8-0.1-1.2C51.1,53.6,50.7,53.4,50.3,53.5L50.3,53.5z"/>
						<path class="st2" d="M45.5,33.3c0-0.6-0.6-1.1-1.2-1.1c-0.6,0-1.2-0.3-1.4-0.9c-0.2-0.6-0.1-1.2,0.4-1.6
							c1.2-1.1,1.6-2.8,0.9-4.3s-2.2-2.4-3.8-2.3c-0.6,0.1-1.1,0.6-1.1,1.3c0.1,0.6,0.6,1.1,1.3,1.1c0.6-0.1,1.2,0.3,1.5,0.9
							c0.3,0.6,0.1,1.2-0.4,1.7c-1.2,1.1-1.5,2.7-1,4.2c0.6,1.5,2,2.4,3.6,2.4c0.1,0,0.1,0,0.2,0C45,34.4,45.5,33.9,45.5,33.3
							L45.5,33.3z"/>
					</g>
				</g>
			</g>
		</g>
	</g>
</g>
</svg>
