<?xml version="1.0" encoding="utf-8"?>
<!-- Generator: Adobe Illustrator 23.0.1, SVG Export Plug-In . SVG Version: 6.00 Build 0)  -->
<svg version="1.1" id="Layer_1" xmlns="http://www.w3.org/2000/svg" xmlns:xlink="http://www.w3.org/1999/xlink" x="0px" y="0px"
	 viewBox="0 0 112 112" style="enable-background:new 0 0 112 112;" xml:space="preserve">
<style type="text/css">
	.st0{opacity:0.2;fill:#766DF4;enable-background:new    ;}
	.st1{fill:#766DF4;}
	.st2{fill:#16C995;}
</style>
<g>
	<g id="Product-Landing---Gadget" transform="translate(-1333.000000, -3186.000000)">
		<g id="Features" transform="translate(401.000000, 2806.000000)">
			<g transform="translate(840.000000, 380.000000)">
				<g transform="translate(92.000000, 0.000000)">
					<path id="Path" class="st0" d="M61.8,90.1C61,81.4,58.9,74.6,55.3,70c-1-1.3-2.5-2-4-2c-0.4,0-0.8,0.1-1.2,0.1c0,0,0,0,0,0
						c3.6,4.6,5.8,11.4,6.5,20.1c0.3,3.9,0.3,7.8,0,11.7c0,0,0,0.1,0,0.1c-0.1,0.6,0.1,1.2,0.5,1.6c0.4,0.4,1,0.5,1.6,0.3
						c0.2-0.1,0.5-0.2,0.7-0.3c1.1-1.2,2-2.5,2.7-3.9C62,95.1,62,92.6,61.8,90.1L61.8,90.1z"/>
					<path class="st0" d="M34.2,100c0,0,0-0.1,0-0.2c-3.4-6.3-4.2-15.6-3.6-23c0-0.6,0.1-1.2,0.1-1.8c0.3-3.6,0.5-5.7-0.7-7.7
						c-1.1-1.9-3.4-3.4-7.9-5.8c-2.4-1.3-4.3-4-5.2-7.5c-0.9-3.6-0.8-7.3,0.2-10.9c1.1-3.5,3.1-6.2,5.7-8c3.1-2.1,7.1-2.9,11.7-2.2
						c0.2,0,0.3,0.1,0.5,0.1c-1.9-0.9-3.9-1.6-5.7-1.9c-4.7-0.6-8.6,0.1-11.7,2.2c-2.7,1.8-4.6,4.6-5.7,8c-1.1,3.5-1.2,7.3-0.2,10.9
						c0.9,3.5,2.8,6.2,5.2,7.5c4.4,2.4,6.7,3.9,7.9,5.8c1.2,1.9,1,4.1,0.7,7.7c0,0.6-0.1,1.1-0.1,1.8c-0.7,9,0.6,20.6,6.1,26.5
						c0.2,0.1,0.4,0.2,0.6,0.3c0.5,0.2,1.1,0.1,1.6-0.3S34.3,100.7,34.2,100C34.2,100.1,34.2,100,34.2,100L34.2,100z"/>
					<path id="Shape" class="st1" d="M22.5,75.9c-0.3,4.5-0.9,19.9,6.9,27.9c1.2,1.3,3.1,1.6,4.7,0.8c1.6-0.8,2.4-2.5,2.1-4.2
						c-0.1-1-1.7-19.6,6.2-29.2c0.5-0.6,1.4-1,2.2-1s1.7,0.4,2.2,1c7.8,9.6,6.1,28.1,6,29.1c-0.2,1.1,0.1,2.3,0.9,3.2s1.9,1.4,3,1.4
						c0.5,0,0.9-0.1,1.3-0.2c0.6-0.2,1.1-0.5,1.6-0.9c7.8-8,7.2-23.4,6.9-27.9c0-0.6-0.1-1.2-0.1-1.8c-0.3-3.4-0.4-4.9,0.4-6.1
						c0.9-1.4,3-2.7,7.1-4.8c3.2-1.7,5.6-5.2,6.6-9.8c1-4.4,0.6-9-1-13.1c-1.6-3.9-4.2-6.9-7.6-8.6c-3.9-2-8.7-2.2-14.2-0.7
						c-3.8,1-5.8,2.3-8,3.6c-1.6,1.1-3.4,2-5.2,2.7c0,0-0.1,0-0.1,0.1c-0.5-0.3-1.1-0.6-1.8-1c-3.5-2-8.9-5.1-13.4-5.7
						C19.3,29.4,11.8,33.7,9,42.4C6.3,50.7,9.1,60,15.2,63.2c4,2.1,6.2,3.4,7.1,4.8c0.7,1.2,0.7,2.7,0.4,6.1
						C22.6,74.7,22.6,75.3,22.5,75.9L22.5,75.9z M16.5,60.9c-4.9-2.6-7.2-10.7-5-17.7c1.1-3.5,5.1-11.5,17.4-9.9
						c4,0.5,9.1,3.4,12.4,5.4c1,0.6,1.9,1.1,2.5,1.4c3.1,1.6,7.9,3.5,12.5,2.6c0.5-0.1,0.9-0.4,1-0.9c0.2-0.4,0.1-0.9-0.3-1.3
						c-0.3-0.4-0.8-0.5-1.3-0.4c-2.4,0.5-5.1,0.1-8.3-1.3c1.4-0.7,2.5-1.4,3.6-2c2-1.3,3.8-2.4,7.3-3.3c8.9-2.4,15.7,0.4,18.6,7.8
						c1.4,3.7,1.7,7.7,0.9,11.6c-0.9,3.8-2.8,6.7-5.3,8.1c-4.6,2.4-6.9,3.9-8.1,5.8c-1.2,2-1.1,4.1-0.8,7.7c0,0.5,0.1,1.1,0.1,1.7
						c0.7,8.8-0.6,20.2-6.1,25.9c-0.2,0.1-0.4,0.2-0.6,0.3c-0.6,0.2-1.4,0-1.7-0.7c-0.1-0.2-0.1-0.5-0.1-0.8c0,0,0-0.1,0-0.1
						c0.1-0.8,2-20.4-6.6-31.1c-1-1.3-2.6-2-4.2-2s-3.2,0.7-4.3,2c-8.8,10.7-6.8,30.3-6.7,31.1c0,0,0,0.1,0,0.1
						c0.1,0.3,0,0.5-0.1,0.8c-0.3,0.6-1,0.9-1.7,0.7c-0.2-0.1-0.4-0.1-0.6-0.2c-5.6-5.7-6.8-17.1-6.2-25.9c0-0.6,0.1-1.2,0.1-1.8
						c0.3-3.6,0.5-5.7-0.8-7.7C23.4,64.7,21.1,63.3,16.5,60.9L16.5,60.9z"/>
					<path class="st2" d="M100.5,11.9H42.3l-2-2C38.4,8.1,35.8,7,33.1,7H11.5C9.6,7,8,8.6,8,10.5v10c0,0.7,0.6,1.3,1.3,1.3
						s1.3-0.6,1.3-1.3v-10c0-0.5,0.4-0.9,0.9-0.9h0.5v11.1c0,0.7,0.6,1.3,1.3,1.3s1.3-0.6,1.3-1.3V9.6H16v11.1
						c0,0.7,0.6,1.3,1.3,1.3c0.7,0,1.3-0.6,1.3-1.3V9.6h1.2v11.1c0,0.7,0.6,1.3,1.3,1.3s1.3-0.6,1.3-1.3V9.6h1.2v11.1
						c0,0.7,0.6,1.3,1.3,1.3c0.7,0,1.3-0.6,1.3-1.3V9.6h1.2v11.1c0,0.7,0.6,1.3,1.3,1.3c0.7,0,1.3-0.6,1.3-1.3V9.6h1.2v11.1
						c0,0.7,0.6,1.3,1.3,1.3s1.3-0.6,1.3-1.3v-11c1.7,0.2,3.2,0.9,4.4,2.1l4.2,4.2c1.9,1.9,4.5,2.9,7.2,2.9h50.6
						c2,0,3.5-1.6,3.5-3.5S102.4,11.9,100.5,11.9L100.5,11.9z M100.5,16.3H49.9c-1.8,0-3.5-0.6-4.9-1.8h55.4c0.5,0,0.9,0.4,0.9,0.9
						C101.3,15.9,100.9,16.3,100.5,16.3L100.5,16.3z"/>
				</g>
			</g>
		</g>
	</g>
</g>
</svg>
