<?xml version="1.0" encoding="utf-8"?>
<!-- Generator: Adobe Illustrator 23.0.1, SVG Export Plug-In . SVG Version: 6.00 Build 0)  -->
<svg version="1.1" id="Layer_1" xmlns="http://www.w3.org/2000/svg" xmlns:xlink="http://www.w3.org/1999/xlink" x="0px" y="0px"
	 viewBox="0 0 112 112" style="enable-background:new 0 0 112 112;" xml:space="preserve">
<style type="text/css">
	.st0{opacity:0.2;fill:#766DF4;enable-background:new    ;}
	.st1{fill:#766DF4;}
	.st2{fill:#16C995;}
</style>
<g>
	<g id="Product-Landing---Gadget" transform="translate(-919.000000, -3176.000000)">
		<g id="Features" transform="translate(401.000000, 2806.000000)">
			<g transform="translate(420.000000, 370.000000)">
				<g transform="translate(98.000000, 0.000000)">
					<path id="Path" class="st0" d="M38.6,88c0-10.7,8.4-19.7,19.4-20.9C57.2,67,56.5,67,55.7,67c-8,0-15.4,4.3-19.2,11.2
						c-3.8,6.9-3.3,15.2,1.2,21.6c4.5,6.4,12.3,9.9,20.3,9.1C47,107.7,38.6,98.7,38.6,88z"/>
					<path id="Shape" class="st1" d="M82.6,53.6c1.3-1.4,1.8-3.4,1.2-5.2c-0.6-1.8-2.1-3.2-4-3.6c0.6-1.4,0.6-3.1-0.1-4.5
						c-0.7-1.4-1.9-2.4-3.4-2.8c1-1.6,1.1-3.7,0.2-5.4c-0.9-1.7-2.7-2.7-4.6-2.7c0,0-0.1,0-0.1,0c0-0.2,0-0.3,0-0.5
						c0-2.1-1.3-4.1-3.2-4.9s-4.2-0.4-5.7,1.1l-4.6,4.6c-1.5-0.8-3.2-1.2-4.9-1.2h-6.1c-1.7,0-3.3-0.6-4.7-1.6l7.9-8
						c0.3-0.3,0.5-0.8,0.3-1.3c-0.1-0.5-0.5-0.8-1-1c-0.5-0.1-1,0-1.3,0.4l-8,8.1l-0.9-0.9l8-8.1c0.5-0.5,0.5-1.4,0-1.9
						c-0.5-0.5-1.4-0.5-1.9,0l-8,8.1l-0.9-0.9l8-8.1c0.5-0.5,0.5-1.4,0-1.9c-0.5-0.5-1.4-0.5-1.9,0l-8,8.1l-0.9-0.9l8-8.1
						c0.3-0.3,0.5-0.8,0.3-1.3s-0.5-0.8-1-1c-0.5-0.1-1,0-1.3,0.4l-8,8.1L31.6,16l8-8.1C40,7.6,40.1,7.1,40,6.6
						c-0.1-0.5-0.5-0.8-1-1c-0.5-0.1-1,0-1.3,0.4l-8,8.1l-0.9-0.9l8-8.1c0.3-0.3,0.5-0.8,0.3-1.3c-0.1-0.5-0.5-0.8-1-1
						c-0.5-0.1-1,0-1.3,0.4l-8,8.1l-0.4-0.4c-0.2-0.2-0.3-0.4-0.3-0.6s0.1-0.5,0.3-0.6l7.2-7.3C34.2,2,34.3,1.5,34.2,1
						c-0.1-0.5-0.5-0.8-1-1s-1,0-1.3,0.4l-7.2,7.3c-1.4,1.4-1.4,3.7,0,5.1l15.5,15.5c0.3,0.3,0.7,0.6,1.1,0.9l-7.6,7.7
						c-1.5,1.5-2.4,3.6-2.4,5.7v2.9c0,3.8-1.3,7.4-3.7,10.2L27,55.3c-1.6-1.6-4.2-1.6-5.8,0l-5.9,5.9C14.4,62,14,63.1,14,64.2
						c0,1.1,0.4,2.2,1.2,2.9L33,85l1.9-1.9L17.1,65.2c-0.3-0.3-0.4-0.6-0.4-1c0-0.4,0.2-0.8,0.4-1l5.9-5.9c0.6-0.6,1.5-0.6,2,0
						l15.2,15.3l1.9-1.9L29.4,57.7c2.9-3.4,4.5-7.7,4.5-12.2v-2.9c0-1.4,0.6-2.8,1.6-3.8l8.2-8.2c1.2,0.5,2.5,0.7,3.8,0.7h2.9
						l3.3,3.3l-3,3c-0.1,0.1-0.2,0.2-0.3,0.3c-2.2,2-5.5,2.5-8.3,1.2L41.8,39c-0.7-0.3-1.5,0-1.8,0.6c-0.3,0.7,0,1.5,0.6,1.8
						l0.1,0.1c3.8,1.8,8.2,1.2,11.3-1.6c0.1-0.1,0.2-0.2,0.4-0.4l12.4-12.5c1-1,2.6-1,3.6,0c1,1,1,2.6,0,3.6l-0.2,0.2L59,40.3
						c-0.5,0.5-0.5,1.4,0,1.9c0.5,0.5,1.4,0.5,1.9,0l9.3-9.3c1-1,2.6-1,3.6,0c1,1,1,2.6,0,3.6l-2.4,2.4l-6.9,6.9
						c-0.3,0.3-0.5,0.8-0.3,1.3s0.5,0.8,1,1s1,0,1.3-0.3l6.9-6.9c1-1,2.6-1,3.6,0s1,2.6,0,3.6l-1.8,1.8L70,51.3
						c-0.3,0.3-0.5,0.8-0.3,1.3c0.1,0.5,0.5,0.8,1,1c0.5,0.1,1,0,1.3-0.3l5.1-5.2c1-1,2.6-1,3.6,0c1,1,1,2.6,0,3.6l-4.1,4.1L65,67.5
						l1.9,1.9l10.7-10.7L91.9,73c0.9,0.9,2.2,1.3,3.5,0.9s2.2-1.3,2.5-2.6c0.3-1.2,0-2.6-0.9-3.5L82.6,53.6z M54.1,31.3
						c0.8,0.1,1.5,0.2,2.2,0.5l-0.8,0.8L54.1,31.3z M95.1,71.1c-0.3,0.4-0.9,0.4-1.3,0L79.5,56.8l1.3-1.3L95,69.8
						c0.2,0.2,0.3,0.4,0.3,0.6C95.3,70.7,95.2,70.9,95.1,71.1L95.1,71.1z"/>
					<g id="Group" transform="translate(18.000000, 65.000000)">
						<path class="st2" d="M37.5,46.9c10.8,0,20.3-7.5,22.8-18C62.8,18.4,57.7,7.5,48,2.6C44.7,1,41.1,0.1,37.5,0.2
							c-12.9,0-23.4,10.5-23.4,23.4S24.6,46.9,37.5,46.9L37.5,46.9z M37.5,2.8C43,2.8,48.3,5,52.2,8.9s6.1,9.2,6.1,14.7
							c0,11.5-9.3,20.7-20.7,20.7S16.8,35,16.8,23.5S26,2.8,37.5,2.8z"/>
						<path class="st2" d="M27.1,22.9c0.6,0.3,1.8,1,2.1,1.3c0.1,0.2,0.1,0.8,0,1.5c0,0.2,0,0.4,0,0.6c-0.1,1.6-0.3,7.2,2.6,10.2
							c0.2,0.2,0.6,0.4,0.9,0.5c0.7,0.3,1.6,0.1,2.2-0.4c0.6-0.5,0.9-1.3,0.8-2.1c-0.2-1.8-0.2-6.8,1.9-9.3c0,0,0.1,0,0.1,0
							c2.4,3,1.9,8.8,1.9,9.3c-0.1,0.8,0.2,1.6,0.8,2.1c0.6,0.5,1.4,0.6,2.2,0.4c0.3-0.1,0.6-0.3,0.9-0.5c2.9-3,2.7-8.6,2.6-10.2
							c0-0.2,0-0.4,0-0.6c-0.1-0.8-0.1-1.4,0-1.5c0.2-0.4,1.4-1,2.1-1.3c2.9-1.5,3.5-5.9,2.3-8.9c-0.5-1.5-1.6-2.7-3-3.4
							c-1.5-0.8-3.4-0.9-5.5-0.3c-1,0.3-2,0.7-2.9,1.3c-0.4,0.3-0.8,0.5-1.3,0.7l-0.2-0.1c-1.3-0.7-3.2-1.8-4.9-2.1
							c-2-0.3-3.8,0.1-5.2,1C26,12,25,13.2,24.6,14.7C23.6,18,24.7,21.6,27.1,22.9L27.1,22.9z M27.1,15.5c0.4-1.2,1.6-3.2,5-2.8
							c1.2,0.2,2.9,1.1,3.9,1.7c0.4,0.2,0.7,0.4,0.9,0.5c1.2,0.6,3,1.3,4.8,1c0.7-0.1,1.2-0.8,1-1.6s-0.8-1.2-1.5-1
							c-0.1,0-0.2,0-0.2,0c0.5-0.3,1-0.4,1.5-0.6c3.3-0.9,4.7,0.7,5.3,2.1c0.8,2.1,0.3,4.9-1.1,5.6c-1.7,0.9-2.6,1.5-3.1,2.3
							c-0.6,0.9-0.5,1.9-0.4,3.2c0,0.2,0,0.4,0,0.6c0.2,2.3,0,5.1-1.1,7c0.1-2.3-0.2-7-2.5-9.9c-0.5-0.6-1.3-1-2.1-1
							c-0.8,0-1.6,0.4-2.1,1c-2.4,2.9-2.6,7.6-2.6,9.9c-1-1.9-1.2-4.8-1.1-7c0-0.2,0-0.4,0-0.6c0.1-1.3,0.2-2.2-0.4-3.2
							c-0.5-0.8-1.4-1.4-3.1-2.3C27.1,19.8,26.5,17.5,27.1,15.5L27.1,15.5z"/>
					</g>
				</g>
			</g>
		</g>
	</g>
</g>
</svg>
