<?xml version="1.0" encoding="utf-8"?>
<!-- Generator: Adobe Illustrator 23.0.1, SVG Export Plug-In . SVG Version: 6.00 Build 0)  -->
<svg version="1.1" id="Layer_1" xmlns="http://www.w3.org/2000/svg" xmlns:xlink="http://www.w3.org/1999/xlink" x="0px" y="0px"
	 viewBox="0 0 112 112" style="enable-background:new 0 0 112 112;" xml:space="preserve">
<style type="text/css">
	.st0{fill:#766DF4;}
	.st1{fill:#16C995;}
</style>
<g>
	<g id="Product-Landing---Gadget" transform="translate(-492.000000, -2902.000000)">
		<g id="Features" transform="translate(401.000000, 2806.000000)">
			<g transform="translate(0.000000, 96.000000)">
				<g transform="translate(91.000000, 0.000000)">
					<path id="Shape" class="st0" d="M73.9,38.5c0-0.1,0.1-0.1,0.1-0.2c0,0,0,0,0,0c0-0.1,0-0.1,0-0.2c0,0,0,0,0,0
						c0-0.1,0-0.1,0-0.2c0,0,0,0,0,0c0-0.1,0-0.1,0-0.2c0,0,0,0,0,0l-2.7-13.1l4-10.1c0.3-0.9,0-1.8-0.8-2.3l-5.8-3.5
						C68,8.3,67,8.5,66.4,9.1l-7.2,8.2l-12.8,3.5c0,0,0,0,0,0c-0.1,0-0.1,0-0.2,0.1c0,0,0,0,0,0C46.1,20.9,46,21,46,21l0,0
						c-0.1,0-0.1,0.1-0.1,0.1c0,0,0,0,0,0c0,0-0.1,0.1-0.1,0.1c0,0,0,0,0,0L8.7,73c-0.2,0.3-0.3,0.6-0.2,0.9
						c0.1,0.3,0.3,0.6,0.5,0.8l33.8,20.6c0.3,0.2,0.6,0.2,0.9,0.1c0.3-0.1,0.6-0.3,0.7-0.6L73.9,38.5C73.9,38.6,73.9,38.5,73.9,38.5
						L73.9,38.5z M70,41L45.3,25.9l1.7-2.3l24.3,14.9L70,41z M49.6,22.4l10.3-2.8l9.1,5.6l2.2,10.4L49.6,22.4z M67.9,11l5.1,3.1
						l-3.4,8.5l-7.8-4.8L67.9,11z M43,92.6l-2-1.3l2.4-3.8c0.2-0.4,0.2-0.8,0-1.2c-0.2-0.4-0.6-0.6-1-0.6c-0.4,0-0.8,0.2-1,0.6
						l-2.4,3.8l-1.6-1l2.4-3.8c0.2-0.4,0.2-0.8,0-1.2c-0.2-0.4-0.6-0.6-1-0.6c-0.4,0-0.8,0.2-1,0.6l-2.4,3.8l-1.6-1l2.4-3.8
						c0.2-0.4,0.3-0.8,0-1.2s-0.6-0.6-1-0.6c-0.4,0-0.8,0.2-1.1,0.6l-2.4,3.8l-1.6-1l2.4-3.8c0.2-0.4,0.2-0.8,0-1.2
						c-0.2-0.4-0.6-0.6-1-0.6c-0.4,0-0.8,0.2-1,0.6L28,83.5l-1.6-1l2.4-3.8c0.2-0.4,0.2-0.8,0-1.2c-0.2-0.4-0.6-0.6-1-0.6
						c-0.4,0-0.8,0.2-1.1,0.6l-2.4,3.8l-1.6-1l2.4-3.8c0.2-0.4,0.2-0.8,0-1.2c-0.2-0.4-0.6-0.6-1-0.6s-0.8,0.2-1.1,0.6L20.7,79
						l-1.6-1l2.4-3.8c0.2-0.4,0.2-0.8,0-1.2c-0.2-0.4-0.6-0.6-1-0.6s-0.8,0.2-1,0.6l-2.4,3.8l-1.6-1l2.4-3.8c0.2-0.4,0.2-0.8,0-1.2
						c-0.2-0.4-0.6-0.6-1-0.6c-0.4,0-0.8,0.2-1,0.6l-2.4,3.8l-2-1.3l32.5-45.5l25,15.2L43,92.6z"/>
					<path class="st0" d="M102,33.3l-7.6-4.7c-0.4-0.2-0.8-0.2-1.2,0c-0.4,0.2-0.6,0.6-0.6,1s0.2,0.8,0.6,1.1l7.6,4.7
						c0.4,0.2,0.5,0.7,0.2,1l-0.2,0.4l-8.4-5.1c-0.4-0.2-0.8-0.2-1.2,0c-0.4,0.2-0.6,0.6-0.6,1c0,0.4,0.2,0.8,0.6,1.1l8.4,5.1
						L99,39.7l-8.4-5.1c-0.6-0.3-1.3-0.2-1.7,0.4c-0.3,0.6-0.2,1.3,0.4,1.6l8.4,5.1l-0.5,0.8l-8.4-5.1c-0.4-0.2-0.8-0.2-1.2,0
						c-0.4,0.2-0.6,0.6-0.6,1c0,0.4,0.2,0.8,0.6,1.1l8.4,5.1l-0.5,0.8L87,40.3c-0.4-0.2-0.8-0.2-1.2,0s-0.6,0.6-0.6,1
						c0,0.4,0.2,0.8,0.6,1.1l8.4,5.1l-0.5,0.8l-8.4-5.1c-0.6-0.3-1.3-0.1-1.6,0.4c-0.3,0.6-0.2,1.3,0.4,1.6l8.4,5.1l-0.5,0.8
						l-8.4-5.1c-0.6-0.3-1.3-0.2-1.7,0.4c-0.3,0.6-0.2,1.3,0.4,1.6l8.3,5.1c-0.9,1.1-2.2,1.9-3.6,2.3l-5.1,1.2c-2.3,0.6-4.3,2-5.6,4
						L53,98.7c-0.9,1.5-0.4,3.4,1,4.3c1.5,0.9,3.4,0.4,4.3-1l26.8-43.5l2.4-0.6c2.3-0.6,4.3-2,5.6-4l9.9-16.2
						C103.9,36.2,103.5,34.2,102,33.3L102,33.3z M56.3,100.7c-0.1,0.2-0.4,0.4-0.7,0.4c-0.3,0-0.5-0.2-0.6-0.4
						c-0.1-0.2-0.1-0.5,0-0.7l23.3-37.9c0.8-1.3,2-2.3,3.5-2.8L56.3,100.7z"/>
					<path class="st1" d="M53,49.1c-0.9-0.3-1.8-0.4-2.7-0.3c-0.4,0-0.8,0-1.1,0l-0.1-0.1c-0.6-1.1-1.4-2.7-2.6-3.6
						c-1.9-1.6-4.9-2.4-7.6-0.1c-2.2,1.9-2.9,4.9-1.7,7c0.3,0.4,0.9,1.4,0.9,1.8c0,0.1-0.3,0.6-0.6,1c-0.1,0.1-0.2,0.3-0.3,0.4
						c-0.8,1.1-3.3,5-2.6,8.4c0.1,0.3,0.2,0.6,0.4,0.8c0.4,0.5,1.1,0.8,1.8,0.7c0.7-0.1,1.2-0.5,1.5-1.2c0.6-1.3,2.7-4.7,5.2-5.6
						c0.3,3-2.4,6.8-2.6,7.1c-0.4,0.5-0.6,1.2-0.4,1.9c0.2,0.6,0.8,1.1,1.4,1.3c0.2,0,0.3,0.1,0.5,0.1c0.1,0,0.3,0,0.4,0
						c3.3-0.9,5.6-4.9,6.2-6.1c0.1-0.2,0.2-0.3,0.2-0.4c0.2-0.5,0.5-1,0.6-1c0.3-0.1,1.4-0.1,1.9,0c2.7,0.2,5.1-2.7,5.6-5.4
						c0.3-1.3,0-2.6-0.7-3.8C56,50.5,54.7,49.6,53,49.1L53,49.1z M55,55.1c-0.3,1.7-1.8,3.4-3,3.4c-3.1-0.2-3.7,0.1-4.9,2.4
						c-0.1,0.1-0.1,0.3-0.2,0.4c-0.7,1.4-1.9,3.1-3.2,4.1c1-1.7,2.5-4.8,2.2-7.6c-0.1-0.7-0.5-1.3-1.1-1.7c-0.6-0.4-1.3-0.5-2-0.2
						c-2.7,0.9-4.7,3.7-5.8,5.4c0.3-1.6,1.2-3.4,2.2-4.7c0.1-0.1,0.2-0.3,0.3-0.4c1.5-2.1,1.5-2.8-0.1-5.4c-0.6-1,0-2.8,1.2-3.9
						c0.8-0.7,2.4-1.5,4.5,0.2c0.7,0.6,1.5,2,2,2.8c0.2,0.3,0.3,0.6,0.4,0.8c0.6,0.9,1.5,2.2,3,2.8c0.5,0.2,1.1,0,1.5-0.5
						c0.3-0.5,0.2-1.1-0.2-1.5c0.2,0,0.4,0.1,0.6,0.2C54.9,52.2,55.2,53.8,55,55.1L55,55.1z"/>
				</g>
			</g>
		</g>
	</g>
</g>
</svg>
