<svg xmlns="http://www.w3.org/2000/svg" xmlns:xlink="http://www.w3.org/1999/xlink" width="437" height="220" xmlns:v="https://vecta.io/nano"><style><![CDATA[.B{mask:url(#E)}.C{fill:#fff}.D{fill:#000}.E{fill:#bee9e8}.F{fill:#5a5b75}]]></style><defs><path id="A" d="M.132.122h42.534v42.534H.132z"/><path id="B" d="M112 220h325V1H112z"/><path id="C" d="M195 67.5c0 1.933-1.79 3.5-4 3.5s-4-1.567-4-3.5 1.79-3.5 4-3.5 4 1.567 4 3.5"/></defs><g fill="none" fill-rule="evenodd"><g transform="translate(294)"><mask id="D" class="C"><use xlink:href="#A"/></mask><path d="M42.666 21.388A21.27 21.27 0 0 1 21.4 42.656C9.654 42.656.132 33.134.132 21.388A21.27 21.27 0 0 1 21.4.121a21.27 21.27 0 0 1 21.266 21.267" fill="#6987f3" mask="url(#D)"/></g><mask id="E" class="C"><use xlink:href="#B"/></mask><path fill="#dacc3e" d="M293 183h90V82h-90z" class="B"/><path d="M293 94h90V82h-90z" class="B E"/><path d="M334.686 106.678c-3.776 0-6.952 3.636-7.542 7.187-.746 4.5 1.5 8.914 3.498 11.825 2.762 4.006 6.467 7.28 10.69 9.69 2.893-5.316 3.622-12.235 1.993-19.1-1.02-4.295-3.644-9.065-7.95-9.573-.232-.027-.462-.04-.69-.04M325.548 147a16.07 16.07 0 0 1-1.095-.037c-7.625-.52-14.245-6.976-14.453-14.097l1.684-.05c.185 6.3 6.085 12.01 12.884 12.474 6 .41 12.27-2.965 15.907-8.478-4.435-2.533-8.323-5.968-11.224-10.174-2.182-3.165-4.608-7.997-3.77-13.046.765-4.608 4.993-9.144 10.095-8.538 5.168.6 8.24 6.005 9.39 10.852 1.723 7.253.936 14.6-2.152 20.276 8.75 4.464 19.42 5.37 28.552 1.684l.633 1.553c-9.608 3.878-20.84 2.913-30.04-1.802-3.735 5.74-10.115 9.383-16.412 9.383" class="B C"/><path d="M113 128h90V14h-90z" class="B E"/><path d="M113.675 24.37h88.65v-9.743h-88.65v9.743zM203.163 26h-90.325l-.838-.814V13.814l.838-.814h90.325l.837.814v11.372l-.837.814z" class="B D"/><path d="M123 56h70V41h-70zm0 28h70V69h-70zm0 28h70V97h-70z" fill="#766df4" class="B"/><path fill="#ff8a5b" d="M165 219h150V59H165z" class="B"/><path d="M165 75h150V59H165z" class="B F"/><g class="C B"><path d="M183 67.5c0 1.933-1.79 3.5-4 3.5s-4-1.567-4-3.5 1.792-3.5 4-3.5 4 1.567 4 3.5"/><use xlink:href="#C"/><use xlink:href="#C" x="11"/></g><path d="M338.5 19.645A11.87 11.87 0 0 0 326.645 31.5 11.87 11.87 0 0 0 338.5 43.355 11.87 11.87 0 0 0 350.355 31.5 11.87 11.87 0 0 0 338.5 19.645m0 25.355A13.52 13.52 0 0 1 325 31.5 13.52 13.52 0 0 1 338.5 18 13.52 13.52 0 0 1 352 31.5 13.52 13.52 0 0 1 338.5 45" class="B D"/><path d="M425 57c-.505 8.19-2.016 15.024-5.68 22.364-1.188 2.383-2.81 4.593-4.735 6.478l-5.133-5.126 2.77 7.158c-3.636 2.73-8.015 4.35-12.536 4.1-1.794-7.924-.02-16.588 4.748-23.176S416.89 57.804 425 57" fill="#ff8a5b" class="B"/><path d="M410.952 44.308l-7.37 2.582 7.42.558-.114 2.128c-.484 5.5-2.024 11.017-5.237 15.53-3.208 4.518-9.154 8.344-14.707 8.894-2.877-7.95-2.543-17 .906-24.712S401.836 35.244 409.71 32c.414 3.82 1.057 8.166 1.24 12.308" class="B E"/><path d="M388.75 143c-5.414-23.683-3.196-64.197 9.885-91l1.506.725c-11.866 24.312-14.68 60.058-10.918 83.86 1.957-21.696 6.613-44.2 22.452-64.52l1.323 1.02c-17.075 21.906-20.952 46.49-22.6 69.792l-1.65.126z" class="B D"/><path d="M437 177.5c0 22.92-21.5 41.5-48 41.5s-48-18.58-48-41.5 21.5-41.5 48-41.5 48 18.58 48 41.5" class="B F"/><path d="M267 219c.034-17.7 9.183-25.03 16.27-26.316s14.606 2.492 19.113 9.6c6.765-13.877 15.864-26.86 27.963-32.168s27.517-.616 33.6 13.776c4.437 10.514 3.148 23.297 1.74 35.107" class="B C"/><path d="M379 145h20v-18h-20z" class="B F"/><path d="M348.225 220L347 218.87c.613-.66 15.114-16.103 25.812-13.112 4.107 1.15 7.048 4.83 8.762 10.956 3.086-7.57 13.57-29.106 32.426-27.644l-.13 1.657c-21.41-1.65-31.583 28.768-31.682 29.075l-1.613-.092c-1.43-7.07-4.194-11.227-8.214-12.352-9.712-2.718-23.992 12.487-24.136 12.64" class="B D"/><path fill="#dacc3e" d="M165 99.66L134.5 219l-21.5-5.597 30.5-119.34L159.583 76z" class="B"/><path d="M135.583 212L114 206.575l.417-1.575L136 210.425z" class="B D"/><path d="M165 100l-22-5.44L159.456 77l1.996 8.28z" class="B C"/><path d="M162 86l-8-2.13 5.984-6.87zm83.635-74.923l-18.8 25.598 27.225-8.562-8.436-17.036zM224.936 39L224 37.74 245.094 9l1.435.122L256 28.247l-.498 1.14L224.936 39z" class="D B"/><path d="M181 119h26V93h-26zm0 41h26v-26h-26zm0 41h26v-26h-26z" class="C B"/><path d="M224 144h76v-10h-76z" class="B E"/><path d="M230.62 192l-1.62-.47c1.217-3.877 4.41-7.193 8.337-8.654s8.6-1.074 12.22 1.007c1.068.616 2.036 1.36 2.972 2.082 1.035.798 2.014 1.552 3.108 2.136 3.437 1.836 8.077 1.976 13.788.414 1.522-.416 3.062-.918 4.552-1.403 3.16-1.03 6.43-2.095 9.838-2.457l.185 1.62c-3.226.342-6.405 1.378-9.48 2.38-1.51.492-3.07 1-4.632 1.427-6.16 1.683-11.23 1.496-15.073-.557-1.218-.65-2.3-1.483-3.344-2.29-.932-.718-1.814-1.397-2.784-1.956-3.173-1.83-7.288-2.168-10.74-.885s-6.258 4.198-7.327 7.605" class="B D"/><path d="M224 160h76v-10h-76z" class="B E"/><path d="M231.532 115l-1.532-.666a61.67 61.67 0 0 1 14.061-20.2c3.396-3.226 8.298-5.696 11.873-2.95 1.81 1.392 2.753 3.94 2.652 7.172-.025.8-.1 1.623-.173 2.408-.147 1.59-.286 3.095-.042 4.567.322 1.946 1.715 4.08 3.66 4.2 1.6.097 3.008-1.09 4.495-2.35 1.7-1.44 3.457-2.93 5.764-2.712 2.348.22 3.774 2.033 5.153 3.788.59.752 1.15 1.462 1.77 2.045 1.36 1.277 3.324 1.93 5.388 1.794s3.928-1.043 5.11-2.488l1.287 1.067c-1.475 1.8-3.766 2.93-6.288 3.096-2.528.168-4.94-.65-6.636-2.242-.713-.67-1.337-1.463-1.94-2.23-1.215-1.546-2.363-3.006-4-3.158-1.6-.15-3.035 1.052-4.536 2.325-1.673 1.416-3.397 2.877-5.672 2.74-2.837-.176-4.765-2.95-5.204-5.6-.28-1.687-.124-3.37.027-5 .07-.76.143-1.546.167-2.305.05-1.55-.146-4.363-1.996-5.785-2.748-2.11-6.95.21-9.716 2.836A59.95 59.95 0 0 0 231.532 115" class="B D"/><path d="M9 102.5c18.903 25.667 37.815 37.833 56.736 36.5 28.38-2 39.1-50.5 18.906-86S34.47 37 65.736 82.5 174 191 203 189" stroke="#fff" stroke-width="2"/><circle cx="7" cy="99" r="7" class="C"/></g></svg>