<svg xmlns="http://www.w3.org/2000/svg" xmlns:xlink="http://www.w3.org/1999/xlink" width="600" height="438" xmlns:v="https://vecta.io/nano"><style><![CDATA[.B{fill:#000}.C{opacity:.1}.D{opacity:.05}.E{fill:#766df4}.F{fill:#ffb9b9}.G{fill-rule:nonzero}.H{fill:#dde1ec}.I{fill:#e0a17e}.J{fill:#293158}]]></style><defs><linearGradient x1="50.0005818%" y1="100%" x2="50.0005818%" y2="1.14327069e-15%" id="A"><stop stop-color="gray" stop-opacity=".25" offset="0%"/><stop stop-color="gray" stop-opacity=".12" offset="54%"/><stop stop-color="gray" stop-opacity=".1" offset="100%"/></linearGradient><linearGradient x1="50.0880863%" y1="99.9897113%" x2="50.0880863%" y2="-0.0330662392%" id="B"><stop stop-color="gray" stop-opacity=".25" offset="0%"/><stop stop-color="gray" stop-opacity=".12" offset="54%"/><stop stop-color="gray" stop-opacity=".1" offset="100%"/></linearGradient><linearGradient x1="49.9531835%" y1="100.017068%" x2="49.9531835%" y2="-0.034135518%" id="C"><stop stop-color="gray" stop-opacity=".25" offset="0%"/><stop stop-color="gray" stop-opacity=".12" offset="54%"/><stop stop-color="gray" stop-opacity=".1" offset="100%"/></linearGradient><linearGradient x1="50.0000117%" y1="99.9998312%" x2="50.0000117%" y2="-0.00256358421%" id="D"><stop stop-color="gray" stop-opacity=".25" offset="0%"/><stop stop-color="gray" stop-opacity=".12" offset="54%"/><stop stop-color="gray" stop-opacity=".1" offset="100%"/></linearGradient><path id="E" d="M171 129.808c-1.774 1.903-3.782 3.608-5.983 5.08l-.286.196-1.2.752-.28.164a23.11 23.11 0 0 1-2.251-3.061l.074-.355 1.99-9.672s.103.11.28.265l.354.29.51.36c1.183.752 2.983 1.32 3.897-1.324.168-.49.29-.994.366-1.504l.263.9 2.27 7.908z"/><path id="F" d="M142.18 99.443a2.25 2.25 0 0 1 1.39-.247c.207.086.392.214.545.377.638.597 1.27 1.29 2.13 1.474.532.08 1.074.056 1.597-.07.917-.105 1.807-.372 2.627-.79 1.826-1.076 2.41-3.405 2.524-5.497.038-.705-.11-1.614-.812-1.764-.894-.188-1.548 1.15-2.453 1.006a1.37 1.37 0 0 1-.709-.425c-.616-.608-1.036-1.388-1.635-2-.96-.884-2.2-1.41-3.5-1.485-1.3-.07-2.602.052-3.865.36-.696.113-1.37.34-2 .672s-1.062.927-1.2 1.614c-.06.468.065.952-.027 1.415-.185.632-.627 1.16-1.22 1.458-.545.333-1.188.538-1.722.947-.85.65-1.438 1.577-1.662 2.614a8.74 8.74 0 0 0-.087 3.136 17.19 17.19 0 0 0 1.515 5.228 7.39 7.39 0 0 0 .987 1.614 9.14 9.14 0 0 0 1.99 1.614 1.22 1.22 0 0 0 .997.296.87.87 0 0 0 .278-.161c.698-.576.763-1.614.545-2.5s-.59-1.7-.632-2.603a1.24 1.24 0 0 1 .142-.726 3.25 3.25 0 0 1 .491-.489 2.92 2.92 0 0 0 .545-.909 8.81 8.81 0 0 0 .845-2.614c.08-.75-.087-1.503-.474-2.152.763.708 1.86.94 2.85.602h0z"/><path id="G" d="M109.41 250.553C113.3 264.7 96.717 305 96.717 305s-34.875-26.3-38.764-40.43 4.48-28.75 18.69-32.62 28.88 4.46 32.768 18.605h0z"/><path id="H" d="M453.424 88s-8.554 4.902-5.92 11.79c0 0 8.886 2.616 12.503 9.152S491.6 139 491.6 139l20.4-10.15s-7.096-9.41-29.545-15.978c0 0-13.254-14.087-17.843-16.697S453.424 88 453.424 88z"/><path id="I" d="M508.683 377.635s-2.256 0-10.317 4.307c0 0-5.48-.995-7.736-8.942 0 0-6.768 11.92-11.285 12.583s-13.216 1.323-7.417 9.276 39.973 4.307 39.973 4.307.974-19.213-3.22-21.53z"/><path id="J" d="M496.293 302.95c-1.017 1.74-2.163 4.997-.027 9.065a15.78 15.78 0 0 0 2.314 3.248c7.09 7.82 9.025 25.413 9.025 25.413v28.344l-12.567.98-11.626-48.213s-6.765-35.19-3.542-41.38 6.12-44.96 6.12-44.96l9.025-9.448H513.4c1.47 1.066 2.7 2.445 3.574 4.04 3.082 5.16 5.85 15.894-2.606 35.71-13.2 30.952-17.076 35.84-17.076 35.84a7.5 7.5 0 0 0-1 1.361z"/></defs><g fill="none" fill-rule="evenodd"><g class="G"><path d="M36.915 65.448c5.59 9.73 2.493 22.36-3.578 31.794S18.63 114.164 11.9 123.165c-13.375 17.958-16.833 46.315.033 61.07 3.633 3.18 8.126 5.695 10.34 9.982 3.058 5.915.795 13.04-1.512 19.306l-.192.515c-8.718 23.642 4.126 49.845 28.197 57.262 13.32 4.106 25.342 10.76 34.24 21.52 7.775 9.407 12.268 21.01 17.397 32.084 9.27 20.003 21.238 39.128 37.775 53.693s38.115 24.218 60.142 23.423c50.312-1.814 87.36-54.817 137.622-57.607 3.622-.203 7.48-.066 10.5 1.93 4.274 2.818 5.584 8.35 7.38 13.156 9.518 25.45 38.175 37.182 63.836 46.095l48.22 16.763c26.192 9.1 53.7 18.336 81.096 14.12s54.148-26.723 52.96-54.44c-.975-22.765-19.836-42.8-17.364-65.457 1.7-15.656 13.43-28.806 15.392-44.435 2.044-16.264-6.844-31.88-17.074-44.687-29.436-36.86-71.386-61.154-112.33-84.588-28.838-16.51-57.825-33.087-88.87-44.95C303.162 68.76 219.04 70.015 137.507 62.055c-14.022-1.37-28.68-2.982-41.53-9.182-9.863-4.758-17.573-15.76-28.395-18.1-8.247-1.776-20.444 1.89-27.644 5.898-13.123 7.356-9.507 13.48-3.025 24.766z" class="C E"/><path d="M541.72 0H101.28c-4.073.017-7.97 1.655-10.837 4.552A15.37 15.37 0 0 0 86 15.445v310.1a15.37 15.37 0 0 0 4.442 10.893c2.866 2.897 6.764 4.535 10.837 4.552H541.72c4.073-.017 7.97-1.655 10.837-4.552A15.37 15.37 0 0 0 557 325.555v-310.1a15.37 15.37 0 0 0-4.442-10.893C549.692 1.655 545.793.017 541.72 0z" fill="url(#A)"/><path d="M556 33v288.843c0 8.37-6.784 15.157-15.152 15.157H104.152C95.784 337 89 330.214 89 321.843V33h467z" fill="#f6f7f9"/><path d="M202 182v155h-98.858C94.782 337 88 330.085 88 321.56V182h114zm34-114h190v6H236zm0 38h115v6H236zm140 0h39v6h-39z" class="H"/><path d="M123.104 240.024h38.698v5.85h-38.698z" class="C E"/><path d="M376 156h39v6h-39zm0 50h39v6h-39zm0-84h39v6h-39zm67 0h39v6h-39zm-67 17h39v6h-39zm67 0h39v6h-39zm0 31h39v6h-39zm0 17h39v6h-39zm0 35h39v6h-39zM236 122h115v6H236zm0 17h115v6H236zm0 17h115v6H236zm0 16h115v6H236zm0 18h115v6H236zm0 16h115v6H236zm0 16h115v6H236z" class="H"/><path d="M88 33h114v152H88z" class="E"/><path d="M556 17.436C555.997 8.9 549.214 2 540.848 2H104.152C95.784 2 89 8.913 89 17.44V35h467V17.436z" fill="#e8eaf1"/><circle fill="#ff5252" cx="107" cy="18" r="6"/><circle fill="#ff0" cx="126" cy="18" r="6"/><circle fill="#69f0ae" cx="146" cy="18" r="6"/><path d="M178 108.023c.01 7.56-2.586 14.893-7.35 20.76l-.544.658a.89.89 0 0 0-.098.12 33.17 33.17 0 0 1-5.693 5.216l-.272.2c-.375.267-.756.544-1.142.772l-.266.17-.57.354a2.9 2.9 0 0 1-.261.147c-.07.05-.145.096-.223.136-.837.5-1.702.94-2.588 1.354-.098.054-.207.098-.3.147s-.223.11-.343.152-.353.158-.544.228c-1.9.804-3.87 1.423-5.89 1.85-1.923.412-3.88.65-5.845.713h-1.077c-2.594.01-5.18-.29-7.705-.887l-.473-.114a37.8 37.8 0 0 1-3.262-1.012c-.647-.24-1.29-.5-1.914-.778l-.468-.212-.473-.212-.413-.212-.435-.223-.484-.256-.544-.3-.087-.05a33.13 33.13 0 0 1-6.405-4.737c-.163-.158-.332-.3-.49-.48s-.343-.337-.506-.51a33.02 33.02 0 0 1-4.739-39.783 33 33 0 0 1 37.118-15.054A33.01 33.01 0 0 1 178 108.023h0z" fill="#fff"/><path d="M168.55 121.363c-.07.5-.178.995-.325 1.48-.018.076-.04.15-.072.222 0-.2-.04-.432-.05-.67h0c-.165-2.464-.308-6.358.187-8.66.468-2.165-2.94-1.506-5.214.432h0c-.665.545-1.205 1.226-1.586 2l-.154-.194a5.99 5.99 0 0 0-4.514-2.243c-3.593-.236-6.99-1.733-9.596-4.23a14.37 14.37 0 0 1-.259-1.34c0-.138-.044-.282-.06-.42 1.27-1.144 2.162-2.654 2.55-4.325v-.066a8.41 8.41 0 0 0 .209-1.839c0-.255 0-.498-.028-.742 0-.09 0-.183-.028-.27s0-.2-.044-.3a3.63 3.63 0 0 0 .402-.21 4.63 4.63 0 0 0 1.784-2.032v-.044c.137-.3.255-.606.352-.92.268-.9.422-1.83.457-2.77v-.36c0-.725-.143-1.634-.848-1.783-.93-.2-1.608 1.213-2.55 1.063a1.43 1.43 0 0 1-.738-.449c-.64-.637-1.068-1.456-1.707-2.1a5.82 5.82 0 0 0-3.645-1.556c-1.347-.075-2.697.05-4.008.37-.724.122-1.423.36-2.07.71a2.48 2.48 0 0 0-1.239 1.711c-.015.157-.015.314 0 .47v.714c-.007.102-.02.204-.04.305-.198.663-.658 1.215-1.272 1.528-.584.35-1.233.593-1.79.99-.884.687-1.495 1.67-1.723 2.77-.144.615-.21 1.246-.193 1.877-.008.57.024 1.14.094 1.706a18.39 18.39 0 0 0 1.575 5.494c.218.484.48.948.782 1.385.077.11.154.2.237.305a8.32 8.32 0 0 0 1.778 1.512l.38.26c.26.224.607.314.94.244a1 1 0 0 0 .286-.166 2.22 2.22 0 0 0 .688-1.744v-.09c.003.03.003.063 0 .094.003.042.003.085 0 .127h.055c.015.282.015.565 0 .847.006.114.006.23 0 .343v.194l-.088.078a34.6 34.6 0 0 1-.969.786h0a29.08 29.08 0 0 1-6.188 3.705c-2.453 1.023-4.316 3.105-5.07 5.665a19.93 19.93 0 0 1-2.406 5.245c-.264.388-.99 3.323-1.84 6.335.165.183.34.354.512.52l.495.487a33.56 33.56 0 0 0 6.485 4.824l.088.05.55.316.5.26c0-.415-.055-.797-.083-1.157 0-.216-.033-.42-.055-.62.127-.2.237-.4.34-.554 0 .16.04.338.055.554h0c.06.554.12 1.235.187 2.016a5.75 5.75 0 0 0 .055.775c0-.27-.028-.554-.05-.775l.418.216.48.216c.154.078.308.144.473.216.633.282 1.283.554 1.938.792a33.74 33.74 0 0 0 3.303 1.03l.48.116a33.17 33.17 0 0 0 7.812.925h1.1a33.12 33.12 0 0 0 5.968-.748c2.043-.434 4.04-1.064 5.962-1.883l.55-.233a6.59 6.59 0 0 0 .347-.155c.116-.055.215-.094.314-.15-.55-1.944-.848-3.2-.848-3.2l.815-2.104.22-.58c0 .072.033.144.06.216h0a8.83 8.83 0 0 0 2.588 4.148 2.93 2.93 0 0 0 .264-.15l.578-.36.27-.172a35.33 35.33 0 0 0 1.156-.786l.275-.205c2.12-1.54 4.055-3.32 5.764-5.31l.1-.122.55-.67-2.45-9.182zm-4.8 2.525a.61.61 0 0 1 .05.083l-.044-.04-.006-.044z" fill="url(#B)"/><path d="M163.962 121.84v.044l.038.038c-.01-.033-.027-.055-.038-.082zm-33.405 16.385l-.158-2.043-.11-1.092c-.003-.014-.003-.03 0-.044v-.218a12.56 12.56 0 0 0-1.289 2.567l.087.05.546.31.486.257.437.224a5.64 5.64 0 0 0 .055.765l-.055-.76v-.016zm7.27-31.224h0l.027.05c.002.013.002.026 0 .038-.005-.025-.014-.05-.027-.07V107z" fill="url(#C)"/><path d="M147.56 102s-1.97 8.577 3.442 13.11-12.78 8.08-15.988 4.29 2.226-5.727 2.226-5.727 2.727-2.147 0-8.577L147.56 102z" class="I"/><path d="M152 141.27c-1.933.422-3.9.666-5.876.73h-1.082a32.52 32.52 0 0 1-7.74-.919l-.476-.117-3.28-1.036-.547-8.357 4.16-20.297.4.557.087.123.11.145 4.373 5.934 4.706-5.17 1.23-1.354.465-.507 2.465 19.328L152 141.27z" fill="#f0f1f5"/><path d="M165 136.806l-1.105.796-.258.174-.553.364a2.76 2.76 0 0 1-.253.151c-.07.052-.14.1-.216.14a9.06 9.06 0 0 1-2.521-3.958l-.158-.594c-.003-.032-.003-.064 0-.095l-.3.84-.92 2.427.763 3.072-.526.235c-1.838.83-3.747 1.467-5.7 1.906a29.99 29.99 0 0 1-5.657.734h-.29a59.35 59.35 0 0 1-.279-7.848l1.047-21.228.195-3.924.2.207.38.376c2.35 2.186 5.308 3.488 8.42 3.705 1.742.053 3.362.97 4.38 2.478.95 1.44 1.563 3.104 1.784 4.85l.158 1.542.042.437L165 136.806z" class="B C"/><path d="M165 135.666l-.263.204-1.104.785-.258.17-.552.36c-1.236-1.045-2.177-2.424-2.723-4h0c-.025-.065-.046-.13-.063-.2l-.152-.597-.216.59-.294.8-.673 1.846.857 3.37-.33.155-.526.232a29.95 29.95 0 0 1-5.693 1.879 30.32 30.32 0 0 1-5.651.724 57.79 57.79 0 0 1-.331-8.246L148.264 109a1.08 1.08 0 0 0 .089.094c2.42 2.444 5.586 3.9 8.936 4.14 1.715.052 3.312.93 4.33 2.382.976 1.433 1.604 3.095 1.83 4.84l.28 2.725v.04l.058.553L165 135.666z" class="J"/><path d="M138 111v.333l-.084 1.265-.294 4.33s-.173 1.25-.3 4.062c-.184 3.708-.294 10.13.13 20.01l-.457-.115a35.54 35.54 0 0 1-3.151-1.014c-.625-.24-1.245-.502-1.85-.78l-.452-.213c-.152-2.18-.336-3.517-.336-3.517s-.142.185-.357.545c-.09.147-.2.327-.315.545l-.026.05a14.6 14.6 0 0 0-.326.622c-.13.273-.263.545-.39.89l-.525-.31-.084-.05c-2.24-1.32-4.316-2.914-6.187-4.75.846-3.092 1.576-6.2 1.838-6.598.98-1.562 1.73-3.265 2.232-5.055.708-2.46 2.443-4.463 4.727-5.453 2.356-1.147 4.463-2.78 6.192-4.798h.01z" class="B C"/><path d="M137.93 111.087a29.11 29.11 0 0 1-6.903 4.386c-2.343.986-4.123 2.98-4.85 5.435-.514 1.784-1.285 3.48-2.3 5.038-.264.397-1.02 3.5-1.886 6.587l.485.478c1.92 1.83 4.05 3.42 6.348 4.734l.086.05c.314-.808.712-1.58 1.186-2.304l.027-.043.307-.435.12 1.005.248 2.772.47.212.463.212 1.897.777c1.045.388 2.123.725 3.233 1.01-.442-9.75-.345-16.174-.167-19.962.14-3.054.33-4.408.33-4.408L138 111l-.07.087z" class="J"/><path d="M141.977 110a9.19 9.19 0 0 1-3.773-.802 14.79 14.79 0 0 0-1.203-4.051L148 102c-.4 1.95-.477 3.946-.227 5.918-1.585 1.337-3.652 2.08-5.797 2.082h0z" class="B C"/><circle cx="142" cy="102" r="8" class="I"/><path d="M157.93 139.434l-.9-3.89 1.125-3.35a7.99 7.99 0 0 0 .385 1.371l.025.074-.64 1.91.815 3.486-.315.16c-.1.046-.325.166-.485.24z" class="B C"/><path d="M167.958 124.156s-.74-6.696 0-9.93-8.662.46-6.684 4.847a36.93 36.93 0 0 0 3.96 6.927l2.724-1.844z" class="I"/><path d="M170.91 130.1c-1.758 1.863-3.748 3.532-5.93 4.972l-.283.192-1.19.736a22.01 22.01 0 0 1-2.435-3.178l-.074-.12 2.044-9.815.215.202.35.285h.028c1.06.83 3.296 2.074 4.37-.82a8.12 8.12 0 0 0 .391-1.555l.2.716.125.42L171 129.96l-.09.14z" class="B C"/><use xlink:href="#E" class="J"/><g class="B"><use xlink:href="#E" opacity=".02"/><path d="M130.034 135.255l-.034.043v-.08c.423-1.182.805-1.98 1.148-2.218l.852 6-.577-.2-.584-.2-.31-2.752-.148-.998-.35.426z" class="C"/><use xlink:href="#F" class="C"/></g><use xlink:href="#F" fill="#463e3b"/><ellipse fill="#cd9494" cx="97" cy="305.5" rx="14" ry="5.5"/><ellipse cx="97" cy="304.5" rx="7" ry="2.5" class="B D"/><path d="M83.712 304s15.036 8.642 27.288 1.154c0 0-1.668 29.965-10.026 32.846h-11.13s-9.468-20.192-6.13-34z" fill="#ff7361"/><use xlink:href="#G" class="E"/><use xlink:href="#G" class="B C"/></g><path d="M76 232s21.534 32.606 19.913 73" stroke="#535461"/><path d="M114.084 276.317S94.75 265.657 97.217 305c0 0 16.11-.586 21.827-13.917 2.31-5.366.304-11.637-4.674-14.602l-.286-.164z" class="E G"/><path d="M114 276s-2.467 20.694-17 29" stroke="#535461"/><g class="G"><path d="M109.147 305.966c-.55 6.712-2.92 27.558-10.016 29.9H89l.522 1.124h11.308c8.47-2.8 10.17-32 10.17-32-.6.353-1.22.675-1.853.966h0z" class="B D"/><path d="M236 259h115v66H236z" class="H"/><path d="M538.99 127.666c.015-.216.015-.432 0-.647-.197-2.678-2.735-4.615-5.25-5.646s-5.327-1.536-7.553-3.1c-3.763-2.645-4.922-7.59-5.262-12.1-.104-1.405-.148-2.81-.153-4.22s.088-2.97.22-4.45c.22-2.458.58-5.004.547-7.468a14.39 14.39 0 0 0-1.313-6.832c-2.232-4.423-7.242-6.683-11.88-8.61-1.783-.74-3.6-1.493-5.546-1.575-2.046-.088-4.036.576-5.973 1.235-3.074 1.043-6.19 2.398-9.37 3.106-1.783.395-3.736.1-5.47.73-3.402 1.25-4.13 4.318-4.075 7.682v.637a20.01 20.01 0 0 0-1.045-.894l-.208-.165a12.64 12.64 0 0 0-1.165-.84l-.197-.126c-.836-.543-1.712-1.022-2.62-1.432l-.137-.06a18.89 18.89 0 0 0-1.389-.549l-.088-.033a19.89 19.89 0 0 0-2.986-.79h0a19.85 19.85 0 0 0-17.787 5.608l-3.757 3.84c-17.08-3.84-17.847 11.046-17.847 11.046l.126-.027-.044.104c.39 1.884.88 3.745 1.47 5.575L298.334 242.82 285 284.28l7.488-2.678 34.206-12.258L449.176 143.82c9.167 6.535 18.694 15.293 18.694 15.293s-5.907 3.133-3.72 17.488c2.675 17.56-1.345 42.553-1.345 42.553v16.165l.755-.21-.284 1.728c-1.246 8.122-1.404 16.375-.47 24.54 2.024 17.153 10.107 40.572 10.107 40.572s3.03 8.23 3.708 14.843c.107 1.306.398 2.6.864 3.814 1.52 3.627 2.323 7.517 2.363 11.452 0 7.177.935 17.95 5.196 28.94 3.418 8.823 4.682 13.992 5.06 17-2.423 3.215-5.6 6.722-8.09 7.073-4.715.658-13.816 1.317-7.75 9.235.212.272.448.523.706.752-4.605.746-9.67 2.392-4.747 8.812 6.066 7.918 41.78 4.29 41.78 4.29s.23-4.4 0-9.23l4.053-.335s1.012-19.134-3.37-21.444a9.22 9.22 0 0 0-2.363.582c-.47-2.645-.83-5.932-1.056-8.368l1.734-.132v-28.698s-2.024-17.81-9.435-25.73a15.99 15.99 0 0 1-2.423-3.292c.055-2.288.06-5.487.033-9.18a7.62 7.62 0 0 1 1.045-1.383s4.042-4.938 17.858-36.287c8.15-18.486 6.334-29.16 3.473-34.81-.547-2.008-1.97-7.742-3.83-18.3-2.357-13.526.34-26.723.34-26.723l12.804-31.996c.938-2.224 1.33-4.643 1.138-7.05 1.056-.774 1.564-2.063 2.018-3.292l4.15-11.112c.448-1.202.908-2.453.81-3.73l.005.005zM482.6 107.66c.45.706.954 1.377 1.504 2.008h0l-1.64-1.7c.05-.104.093-.214.137-.318zm-20.412 22.8l11.426-11.7c3.95 3.622 8.177 7.32 11.7 10.365-.337 1.56-.783 3.095-1.335 4.593-1.53.763-3.555 1-6.016-.335-3.9-2.113-11.097-2.738-15.785-2.914z" fill="url(#D)"/><use xlink:href="#H" fill="#febdd5"/><use xlink:href="#H" class="B D"/><path d="M301.926 243.967L449.27 89.865c7.25-7.573 19.272-7.848 26.86-.613h0c7.58 7.244 7.855 19.254.614 26.837l-147.32 154.125L289 285l12.926-41.033z" class="E"/><path d="M468.085 86.357h0c7.58 7.25 7.853 19.27.614 26.86L321.392 267.453l-30.342 11.1L289 285l40.415-14.8 147.33-154.18c7.24-7.59 6.965-19.61-.614-26.86h0A18.92 18.92 0 0 0 465 84c1.106.68 2.14 1.47 3.086 2.357z" fill="#fff" class="C"/><path fill="#efc8c4" d="M301.79 244L329 270.23 289 285l4.55-14.58z"/><path d="M293.644 271c1.01.187 1.976.557 2.843 1.088 1.003.688 1.73 1.88 1.454 3.027a7.17 7.17 0 0 1-1.146 1.981c-1.01 1.623-1.185 3.597-.48 5.36L289 285l4.644-14z" fill="#727a9c"/><path d="M505.42 366.016s.927 13.88 2.47 15.46S494 384 494 384l2.16-18 9.26.016z" class="F"/><path d="M505.42 366.016s.927 13.88 2.47 15.46S494 384 494 384l2.16-18 9.26.016z" class="B D"/><use xlink:href="#I" fill="#cbcdda"/><use xlink:href="#I" class="B D"/><path d="M504 388.833L501.755 395 487 390.778l.84-6.123.205-1.476.538-4.086s12.5-3.27 12.5-1.634a25.45 25.45 0 0 0 .824 3.955l1.615 5.77.468 1.65z" class="F"/><use xlink:href="#J" fill="#4c4c78"/><g class="B"><use xlink:href="#J" class="D"/><path d="M503 380.296L489 382l.542-3.968s12.606-3.175 12.606-1.587a23.94 23.94 0 0 0 .852 3.852z" class="C"/></g><path d="M494.88 261.173l.95 41.863-.027 9.086c.02 1.2-.07 2.4-.263 3.584-.982 2.937.982 9.47.982 9.47 8.174 21.553 5.887 40.493 5.887 40.493v14.37l-15.7 1.962s2.617-1.962-4.575-20.9c-4.13-10.884-5.025-21.543-5.042-28.65-.038-3.89-.816-7.735-2.293-11.333a13.97 13.97 0 0 1-.812-3.781c-.653-6.532-3.593-14.698-3.593-14.698s-7.845-23.187-9.81-40.17a93.43 93.43 0 0 1 .455-24.294 60.57 60.57 0 0 1 1.18-6.078s31.957-20.1 44.026-6.204a15.72 15.72 0 0 1 2.743 4.57 30.15 30.15 0 0 1 1.542 5.086c3.71 18.446-15.647 25.625-15.647 25.625z" fill="#4c4c78"/><g class="F"><circle cx="495" cy="102" r="17"/><path d="M485.056 112.18s6.848 19.306 0 29.448 21.853 6.87 21.853 6.87L518 135.082s-13.05 0-13.686-22.903-19.258 0-19.258 0z"/></g><path d="M518 234.6c-2.38.812-4.828 1.416-7.316 1.807-4.088.618-8.908.646-11.728-1.807-1.653-1.454-5.8-1.627-10.737-1.166-10.417.982-24.52 4.812-27.22 5.566.3-2.024.686-4.032 1.184-6.016 0 0 32.1-19.888 44.208-6.14h7.002c1.497 1.058 2.74 2.426 3.64 4 .6 2.57.964 3.75.964 3.75zm-14 153.843L501.755 395 487 390.5l.84-6.5c2.535 6.036 6.858 6.853 6.858 6.853 4.662-2.607 7.375-3.7 8.828-4.16l.474 1.75z" class="C B"/><path d="M504.68 386.634s-2.256 0-10.316 4.307c0 0-5.48-.995-7.736-8.94 0 0-6.767 11.92-11.284 12.58s-13.216 1.31-7.41 9.275 39.97 4.307 39.97 4.307.968-19.2-3.224-21.528z" fill="#cbcdda"/><path d="M428 105s.727-15.297 17-11.35l-4.175 8.266L428 105z" class="F"/><path d="M505.99 139.066s-15.986-2.613-20.23-5.878c0 0-3.285 6.202-9.137 2.936s-19.572-2.936-19.572-2.936-11.42-6.202-13.687-20.243c0 0-2.283-8.486-1.642-10.77 0 0-8.48-8.815-12.723 2.936 1.642 8.163 2.934 7.51 2.61 14.036l5.217 14.365s.328 4.898 9.79 11.428 20.23 16.65 20.23 16.65-5.7 3.1-3.586 17.3c2.6 17.356-1.303 42.113-1.303 42.113V237s32.624-9.467 38.17-4.57 18.92 0 18.92 0-1.642-5.55-3.914-18.934.328-26.445.328-26.445l12.395-31.666c3.914-9.138-2.934-21.547-9.79-26.116s-9.4-1.824-9.4-1.824 11.984 8.683-2.677 11.62z" fill="#febdd5"/><path d="M476.7 96.953c-.005.686.1 1.367.338 2.012a6.33 6.33 0 0 0 1.523 1.918c2.434 2.4 4.574 5.274 5.43 8.612.58 2.26.546 4.627.513 6.965-.142 9.458-.546 19.668-6.3 27.087-2.118 2.736-4.847 4.91-7.407 7.225a2.26 2.26 0 0 0-.775 1.078c-.07.45.014.91.24 1.305 1.2 2.504 3.695 4.04 6.07 5.434 1.092.636 2.227 1.294 3.482 1.332 2.958.1 4.912-3.068 7.603-4.312 3.92-1.813 8.313.708 12.205 2.587 2.816 1.358 5.77 2.4 8.8 3.112 4.165.973 8.87 1.21 12.374-1.26 2.026-1.446 3.4-3.64 3.854-6.108.284-1.61.24-3.477 1.44-4.566.622-.553 1.468-.796 2.134-1.294 1.043-.774 1.534-2.073 1.976-3.317l4.006-11.095c.516-1.172.782-2.442.78-3.726-.19-2.67-2.625-4.6-5.065-5.638s-5.142-1.53-7.292-3.096c-3.63-2.642-4.754-7.58-5.082-12.095a58.97 58.97 0 0 1 .065-9.315c.398-4.594 1.283-9.49-.737-13.626-2.156-4.422-6.992-6.672-11.462-8.596-1.72-.74-3.488-1.487-5.355-1.57-1.976-.088-3.897.553-5.764 1.233-2.97 1.045-6.004 2.394-9.044 3.1-1.72.398-3.608.1-5.267.73-6.097 2.322-3.297 10.912-3.297 15.882z" class="B C"/><path d="M476.705 96.976c-.005.686.1 1.367.338 2.012a6.33 6.33 0 0 0 1.523 1.918c2.434 2.4 4.574 5.274 5.43 8.612.58 2.26.546 4.627.513 6.965-.142 9.458-.546 19.668-6.3 27.087-2.118 2.736-4.847 4.91-7.407 7.225a2.26 2.26 0 0 0-.781 1.056c-.07.45.014.91.24 1.305 1.2 2.504 3.695 4.04 6.07 5.434 1.092.636 2.227 1.294 3.482 1.332 2.958.1 4.912-3.068 7.603-4.312 3.92-1.813 8.313.708 12.205 2.587 2.816 1.358 5.77 2.4 8.8 3.112 4.165.973 8.87 1.21 12.374-1.26 2.026-1.446 3.4-3.64 3.854-6.108.284-1.61.24-3.477 1.44-4.566.622-.553 1.468-.796 2.134-1.294 1.043-.774 1.534-2.073 1.976-3.317l4.006-11.095c.516-1.172.782-2.442.78-3.726-.19-2.67-2.625-4.6-5.065-5.638s-5.142-1.53-7.292-3.096c-3.63-2.642-4.754-7.58-5.082-12.095a58.97 58.97 0 0 1 .065-9.315c.398-4.594 1.283-9.49-.737-13.626-2.156-4.422-6.992-6.672-11.462-8.596-1.72-.74-3.488-1.487-5.355-1.57-1.976-.088-3.897.553-5.764 1.233-2.97 1.045-6.004 2.394-9.044 3.1-1.72.398-3.608.1-5.267.73-6.09 2.36-3.29 10.934-3.29 15.904z" fill="#b96b6b"/><path d="M463 185.98s2.624-.598 15.792-2.503S515 186 515 186" class="B D"/></g></g></svg>