<svg width="300" height="300" viewBox="0 0 300 300" fill="none" xmlns="http://www.w3.org/2000/svg">
<g clip-path="url(#clip0)">
<path d="M253.611 167.894C256.804 160.476 262.215 154.399 269.846 149.653C262.215 144.916 256.804 138.887 253.611 131.566C250.408 124.254 248.817 114.405 248.817 102.039V57.8199C248.817 52.254 248.248 47.672 247.119 44.0643C245.981 40.4566 244.177 37.5724 241.707 35.4019C239.238 33.2412 235.929 31.746 231.81 30.9164C228.193 30.1929 223.862 29.0161 218.826 28.9196H45.3666C50.8457 47.2765 63.0386 67.5916 90.1737 67.5916H176.305C192.28 67.5916 205.235 80.5466 205.235 96.5209H86.8167C92.2573 114.743 104.325 134.884 131.045 135.174H189.897C205.871 135.174 218.826 148.129 218.826 164.103H128.267C133.746 182.46 145.939 202.775 173.074 202.775V202.785H232.418H248.826V197.267C248.817 185.113 250.408 175.322 253.611 167.894Z" fill="#FFBE36"/>
<path d="M299.305 135.125V164.498C289.823 164.498 282.868 167.441 278.431 173.315C273.994 179.19 271.785 186.048 271.785 193.881V239.643C271.785 249.54 270.859 258.193 269.006 265.621C267.154 273.039 263.749 279.27 258.801 284.325C253.852 289.37 247.051 293.141 238.389 295.611C230.199 297.955 219.656 299.17 206.846 299.296V269.614C217.65 269.392 225.27 267.492 229.727 263.913C234.463 260.093 236.836 252.733 236.836 241.804V197.267C236.836 185.103 238.428 175.312 241.63 167.894C244.823 160.476 250.235 154.399 257.865 149.653C250.235 144.916 244.823 138.887 241.63 131.566C238.428 124.254 236.836 114.405 236.836 102.039V57.8199C236.836 52.254 236.267 47.672 235.138 44.0643C234 40.4566 232.196 37.5723 229.727 35.4019C227.257 33.2412 223.939 31.8232 219.83 30.9164C219.068 30.7524 218.267 30.5884 217.437 30.4341C211.746 29.3923 205.968 28.9196 200.18 28.9196H33.4052C38.8843 47.2765 51.0772 67.5916 78.2122 67.5916H164.344C180.318 67.5916 193.273 80.5466 193.273 96.5209H74.8457C80.2862 114.743 92.3537 134.884 119.074 135.174H177.926C193.9 135.174 206.855 148.129 206.855 164.103H116.296C121.775 182.46 133.968 202.775 161.103 202.775V202.785H220.447V231.714H153.077C152.508 231.714 151.949 231.695 151.389 231.666C104.826 230.508 89.9132 192.299 85.1479 164.113C57.6946 151.244 47.4888 118.939 43.6978 96.5209C-0.212201 75.926 1.94507e-05 0 1.94507e-05 0H206.855C220.042 0 230.865 1.2926 239.325 3.86817C247.775 6.44373 254.373 10.2637 259.119 15.3087C263.855 20.3633 267.154 26.6527 269.016 34.1672C270.868 41.6913 271.794 50.2958 271.794 59.9807V105.434C271.794 113.469 274.003 120.434 278.441 126.309C282.868 132.183 289.823 135.125 299.305 135.125Z" fill="#470857"/>
<path d="M203.084 30.9164C207.193 31.8232 210.502 33.2315 212.981 35.4019C215.45 37.5627 217.254 40.4566 218.392 44.0643C219.521 47.672 220.09 52.254 220.09 57.8199V102.039C220.09 114.405 221.682 124.254 224.884 131.566C228.077 138.887 233.489 144.916 241.119 149.653C233.489 154.399 228.077 160.476 224.884 167.894C221.682 175.312 220.09 185.103 220.09 197.267V202.775H236.846V197.267C236.846 185.103 238.437 175.312 241.64 167.894C244.833 160.476 250.244 154.399 257.875 149.653C250.244 144.916 244.833 138.887 241.64 131.566C238.437 124.254 236.846 114.405 236.846 102.039V57.8199C236.846 52.254 236.277 47.672 235.148 44.0643C234.01 40.4566 232.206 37.5724 229.736 35.4019C227.267 33.2412 223.949 31.8232 219.839 30.9164C219.077 30.7524 218.277 30.5884 217.447 30.4341C211.756 29.3923 205.977 28.9196 200.19 28.9196H183.434C189.222 28.9196 195 29.3923 200.691 30.4341C201.521 30.5884 202.331 30.7524 203.084 30.9164Z" fill="#F77618"/>
</g>
<defs>
<clipPath id="clip0">
<rect width="300" height="300" fill="white"/>
</clipPath>
</defs>
</svg>
