<svg width="969" height="209" viewBox="0 0 969 209" fill="none" xmlns="http://www.w3.org/2000/svg">
<path d="M177.092 117.237C179.322 112.058 183.101 107.814 188.429 104.5C183.101 101.193 179.322 96.9828 177.092 91.8703C174.856 86.7645 173.745 79.8872 173.745 71.2518V40.3747C173.745 36.4881 173.347 33.2886 172.559 30.7694C171.764 28.2502 170.505 26.2362 168.78 24.7206C167.056 23.2118 164.745 22.1677 161.869 21.5884C159.343 21.0832 156.319 20.2615 152.803 20.1941H31.6788C35.5047 33.0124 44.0189 47.1981 62.9668 47.1981H123.111C134.266 47.1981 143.312 56.2444 143.312 67.3989H60.6227C64.4217 80.123 72.8483 94.1874 91.5066 94.3895H132.602C143.757 94.3895 152.803 103.436 152.803 114.59H89.5667C93.3926 127.409 101.907 141.594 120.855 141.594V141.601H162.294H173.751V137.748C173.745 129.261 174.856 122.424 177.092 117.237Z" fill="#FFBE36"/>
<path d="M209 94.3558V114.866C202.379 114.866 197.522 116.921 194.424 121.023C191.325 125.125 189.783 129.914 189.783 135.384V167.339C189.783 174.25 189.136 180.292 187.843 185.478C186.549 190.658 184.172 195.01 180.716 198.539C177.261 202.062 172.512 204.696 166.463 206.42C160.744 208.057 153.382 208.906 144.437 208.993V188.267C151.981 188.112 157.302 186.785 160.414 184.286C163.722 181.619 165.379 176.479 165.379 168.848V137.748C165.379 129.254 166.49 122.417 168.726 117.237C170.956 112.058 174.735 107.814 180.063 104.5C174.735 101.193 170.956 96.9828 168.726 91.8703C166.49 86.7645 165.379 79.8872 165.379 71.2518V40.3747C165.379 36.4881 164.981 33.2886 164.193 30.7694C163.398 28.2502 162.139 26.2361 160.414 24.7206C158.69 23.2117 156.373 22.2216 153.503 21.5884C152.971 21.4739 152.412 21.3594 151.833 21.2516C147.859 20.5241 143.824 20.1941 139.782 20.1941H23.3263C27.1522 33.0124 35.6663 47.1981 54.6143 47.1981H114.759C125.913 47.1981 134.96 56.2444 134.96 67.3989H52.2635C56.0625 80.1229 64.489 94.1874 83.1474 94.3895H124.243C135.397 94.3895 144.444 103.436 144.444 114.59H81.2074C85.0334 127.409 93.5475 141.594 112.495 141.594V141.601H153.934V161.802H106.891C106.494 161.802 106.103 161.788 105.712 161.768C73.1985 160.96 62.7849 134.279 59.4574 114.597C40.2871 105.611 33.1606 83.053 30.5134 67.3989C-0.148177 53.0179 1.35821e-05 0 1.35821e-05 0H144.444C153.651 0 161.209 0.902604 167.116 2.70108C173.017 4.49955 177.624 7.16695 180.938 10.6898C184.246 14.2194 186.549 18.6112 187.849 23.8584C189.143 29.1123 189.789 35.1207 189.789 41.8835V73.6229C189.789 79.2338 191.332 84.0971 194.43 88.1992C197.522 92.3014 202.379 94.3558 209 94.3558Z" fill="#470857"/>
<path d="M141.81 21.5884C144.679 22.2216 146.99 23.205 148.721 24.7206C150.445 26.2294 151.705 28.2502 152.5 30.7694C153.288 33.2886 153.685 36.4881 153.685 40.3747V71.2518C153.685 79.8872 154.797 86.7645 157.033 91.8703C159.263 96.9828 163.041 101.193 168.369 104.5C163.041 107.814 159.263 112.058 157.033 117.237C154.797 122.417 153.685 129.254 153.685 137.748V141.594H165.385V137.748C165.385 129.254 166.497 122.417 168.733 117.237C170.963 112.058 174.741 107.814 180.07 104.5C174.741 101.193 170.963 96.9828 168.733 91.8703C166.497 86.7645 165.385 79.8872 165.385 71.2518V40.3747C165.385 36.4881 164.988 33.2886 164.2 30.7694C163.405 28.2502 162.145 26.2362 160.421 24.7206C158.697 23.2118 156.38 22.2216 153.51 21.5884C152.978 21.4739 152.419 21.3594 151.84 21.2516C147.865 20.5241 143.831 20.1941 139.789 20.1941H128.089C132.13 20.1941 136.165 20.5241 140.139 21.2516C140.719 21.3594 141.285 21.4739 141.81 21.5884Z" fill="#F77618"/>
<path d="M323.3 155.1C318.92 157.6 314.26 159.45 309.32 160.63C304.38 161.82 299.1 162.41 293.47 162.41C286.59 162.41 280.24 161.19 274.43 158.75C268.62 156.31 263.58 152.62 259.33 147.68C255.08 142.74 251.73 136.46 249.29 128.83C246.85 121.2 245.63 112.2 245.63 101.82C245.63 91.94 246.91 83.25 249.48 75.75C252.04 68.25 255.51 61.93 259.89 56.8C264.27 51.67 269.39 47.8 275.27 45.17C281.15 42.54 287.4 41.23 294.03 41.23C298.66 41.23 303.38 41.86 308.19 43.11C313 44.36 317.72 46.42 322.35 49.3L317.85 62.06C309.6 57.31 301.84 54.93 294.59 54.93C289.46 54.93 284.86 56.03 280.8 58.21C276.73 60.4 273.26 63.56 270.39 67.68C267.51 71.81 265.29 76.75 263.73 82.5C262.16 88.25 261.39 94.69 261.39 101.82C261.39 109.82 262.23 116.77 263.92 122.64C265.61 128.52 267.95 133.4 270.95 137.27C273.95 141.15 277.54 144.02 281.74 145.9C285.93 147.78 290.46 148.71 295.34 148.71C298.97 148.71 302.78 148.24 306.78 147.3C310.78 146.36 314.91 144.71 319.16 142.33L323.3 155.1Z" fill="#470857"/>
<path d="M417.09 116.46C417.09 123.34 416.12 129.56 414.18 135.13C412.24 140.7 409.52 145.48 406.02 149.48C402.52 153.48 398.33 156.58 393.45 158.77C388.57 160.96 383.26 162.05 377.5 162.05C371.87 162.05 366.65 160.95 361.84 158.77C357.02 156.58 352.86 153.49 349.37 149.48C345.87 145.48 343.15 140.7 341.21 135.13C339.27 129.57 338.3 123.34 338.3 116.46C338.3 109.58 339.27 103.33 341.21 97.7C343.15 92.07 345.87 87.29 349.37 83.35C352.87 79.41 357.03 76.35 361.84 74.16C366.65 71.97 371.88 70.88 377.5 70.88C383.25 70.88 388.57 71.98 393.45 74.16C398.33 76.35 402.52 79.41 406.02 83.35C409.52 87.29 412.24 92.07 414.18 97.7C416.12 103.33 417.09 109.58 417.09 116.46ZM401.15 116.46C401.15 106.58 399.02 98.8 394.77 93.11C390.52 87.42 384.76 84.57 377.51 84.57C370.38 84.57 364.72 87.42 360.53 93.11C356.34 98.8 354.25 106.59 354.25 116.46C354.25 126.21 356.34 133.94 360.53 139.63C364.72 145.32 370.38 148.17 377.51 148.17C384.76 148.17 390.52 145.33 394.77 139.63C399.02 133.94 401.15 126.21 401.15 116.46Z" fill="#470857"/>
<path d="M489.5 32.61L505.07 29.98V157.54C501.69 158.54 497.38 159.54 492.13 160.54C486.88 161.54 480.75 162.04 473.75 162.04C467.5 162.04 461.81 160.98 456.68 158.85C451.55 156.72 447.17 153.69 443.55 149.75C439.92 145.81 437.11 141.03 435.11 135.4C433.11 129.77 432.11 123.46 432.11 116.45C432.11 109.7 432.95 103.54 434.64 97.97C436.33 92.41 438.8 87.62 442.05 83.62C445.3 79.62 449.21 76.49 453.77 74.24C458.33 71.99 463.55 70.86 469.43 70.86C474.06 70.86 478.12 71.42 481.62 72.55C485.12 73.68 487.75 74.87 489.5 76.11V32.61V32.61ZM489.5 91.32C487.75 89.7 485.19 88.16 481.81 86.72C478.43 85.28 474.93 84.56 471.31 84.56C467.18 84.56 463.65 85.37 460.71 87C457.77 88.63 455.36 90.85 453.49 93.66C451.62 96.47 450.24 99.85 449.36 103.79C448.48 107.73 448.05 111.95 448.05 116.45C448.05 126.58 450.42 134.4 455.18 139.9C459.93 145.4 466.12 148.15 473.75 148.15C477.63 148.15 480.91 147.96 483.6 147.59C486.29 147.21 488.26 146.84 489.51 146.46V91.32H489.5Z" fill="#470857"/>
<path d="M566.97 70.87C578.72 70.87 587.79 74.53 594.17 81.84C600.55 89.16 603.74 100.26 603.74 115.14V120.58H541.46C542.08 129.58 545.05 136.43 550.37 141.12C555.68 145.81 563.16 148.15 572.79 148.15C578.29 148.15 582.98 147.71 586.86 146.84C590.74 145.97 593.67 145.03 595.68 144.03L597.74 157.16C595.86 158.16 592.49 159.22 587.61 160.35C582.73 161.48 577.23 162.04 571.1 162.04C563.6 162.04 557 160.88 551.31 158.57C545.62 156.26 540.9 153.1 537.15 149.1C533.4 145.1 530.58 140.32 528.71 134.75C526.83 129.19 525.9 123.15 525.9 116.65C525.9 108.9 527.09 102.14 529.46 96.39C531.83 90.64 534.96 85.88 538.84 82.13C542.71 78.38 547.09 75.56 551.97 73.69C556.84 71.81 561.84 70.87 566.97 70.87ZM587.98 108.02C587.98 100.64 586.04 94.79 582.16 90.48C578.28 86.17 573.16 84.01 566.78 84.01C563.15 84.01 559.87 84.7 556.93 86.07C553.99 87.45 551.46 89.26 549.33 91.51C547.2 93.76 545.51 96.33 544.27 99.2C543.02 102.08 542.21 105.02 541.83 108.02H587.98Z" fill="#470857"/>
<path d="M624 165.13V43.86H695.1V63H647.08V91.14H689.1V110.27H647.08V159.98L624 165.13Z" fill="#F1A70B"/>
<path d="M782.14 156.98C777.89 158.11 772.73 159.23 766.66 160.36C760.59 161.49 754 162.05 746.87 162.05C739.62 162.05 733.67 161.05 729.05 159.05C724.42 157.05 720.76 154.2 718.08 150.51C715.39 146.82 713.55 142.48 712.55 137.47C711.55 132.47 711.05 126.97 711.05 120.96V71.8101H734.12V117.96C734.12 126.09 735.09 132.12 737.03 136.06C738.97 140 742.75 141.97 748.38 141.97C751.88 141.97 755.38 141.66 758.88 141.03V71.8101H782.14V156.98Z" fill="#F1A70B"/>
<path d="M805.59 74.6301C809.72 73.5001 814.81 72.4401 820.88 71.4401C826.94 70.4401 833.54 69.9401 840.67 69.9401C847.67 69.9401 853.49 70.9101 858.12 72.8501C862.75 74.7901 866.4 77.5401 869.09 81.1001C871.78 84.6601 873.69 88.9201 874.81 93.8601C875.94 98.8001 876.5 104.27 876.5 110.27V159.98L853.43 165.13V113.27C853.43 105.02 852.49 99.0801 850.62 95.4501C848.74 91.8201 844.93 90.0101 839.18 90.0101C837.43 90.0101 835.71 90.0701 834.02 90.2001C832.33 90.3301 830.55 90.5101 828.67 90.7601V159.98L805.6 165.13V74.6301H805.59Z" fill="#F1A70B"/>
<path d="M968.23 157.35C963.98 158.73 958.79 159.85 952.66 160.73C946.53 161.6 940.53 162.04 934.65 162.04C920.89 162.04 910.48 157.98 903.42 149.85C896.35 141.72 892.82 130.59 892.82 116.46C892.82 102.08 895.79 90.73 901.73 82.41C907.67 74.09 916.46 69.94 928.09 69.94C931.21 69.94 934.28 70.29 937.28 70.97C940.28 71.66 942.91 72.63 945.16 73.88V33.73L968.23 29.79V157.35ZM916.27 115.33C916.27 123.21 917.74 129.65 920.68 134.65C923.62 139.65 928.34 142.15 934.84 142.15C936.72 142.15 938.47 142.09 940.09 141.96C941.71 141.84 943.4 141.65 945.16 141.4V93.38C943.41 92.38 941.41 91.54 939.16 90.85C936.91 90.16 934.53 89.82 932.03 89.82C926.53 89.82 922.53 92.01 920.03 96.39C917.51 100.77 916.27 107.08 916.27 115.33Z" fill="#F1A70B"/>
</svg>
