<svg width="300" height="300" viewBox="0 0 300 300" fill="none" xmlns="http://www.w3.org/2000/svg">
<path d="M222.793 177.363C225.044 172.134 228.859 167.849 234.238 164.503C228.859 161.164 225.044 156.914 222.793 151.752C220.535 146.598 219.413 139.654 219.413 130.936V99.7624C219.413 95.8385 219.012 92.6082 218.216 90.0648C217.414 87.5214 216.142 85.4881 214.401 83.9579C212.66 82.4346 210.327 81.3805 207.424 80.7957C204.873 80.2857 201.82 79.456 198.27 79.388H75.9829C79.8456 92.3294 88.4415 106.651 107.571 106.651H168.293C179.555 106.651 188.688 115.784 188.688 127.046H105.205C109.04 139.892 117.548 154.092 136.385 154.296H177.875C189.137 154.296 198.27 163.429 198.27 174.691H134.427C138.289 187.632 146.885 201.954 166.015 201.954V201.961H207.852H219.42V198.071C219.413 189.502 220.535 182.6 222.793 177.363Z" fill="#FFBE36"/>
<path d="M255.007 154.262V174.969C248.322 174.969 243.419 177.044 240.29 181.185C237.162 185.327 235.605 190.162 235.605 195.684V227.946C235.605 234.923 234.952 241.023 233.646 246.259C232.341 251.489 229.94 255.882 226.451 259.446C222.963 263.002 218.168 265.661 212.061 267.402C206.288 269.055 198.855 269.912 189.824 270V249.075C197.44 248.918 202.813 247.579 205.955 245.056C209.294 242.363 210.967 237.174 210.967 229.469V198.071C210.967 189.495 212.089 182.593 214.346 177.363C216.597 172.134 220.413 167.849 225.792 164.503C220.413 161.164 216.597 156.914 214.346 151.752C212.089 146.598 210.967 139.654 210.967 130.936V99.7624C210.967 95.8385 210.565 92.6082 209.77 90.0648C208.967 87.5214 207.696 85.4881 205.955 83.9579C204.214 82.4346 201.874 81.4349 198.977 80.7957C198.44 80.6801 197.876 80.5645 197.291 80.4557C193.278 79.7212 189.205 79.388 185.125 79.388H67.5502C71.4129 92.3294 80.0088 106.651 99.1387 106.651H159.861C171.122 106.651 180.255 115.784 180.255 127.046H96.7653C100.601 139.892 109.108 154.092 127.946 154.296H169.436C180.697 154.296 189.831 163.429 189.831 174.691H125.987C129.85 187.632 138.446 201.954 157.576 201.954V201.961H199.412V222.356H151.918C151.516 222.356 151.122 222.342 150.728 222.322C117.901 221.505 107.388 194.569 104.028 174.697C84.674 165.625 77.479 142.851 74.8064 127.046C43.8504 112.527 44 59 44 59H189.831C199.127 59 206.757 59.9113 212.721 61.727C218.678 63.5428 223.33 66.2358 226.676 69.7924C230.015 73.3559 232.341 77.7899 233.653 83.0875C234.959 88.3919 235.612 94.458 235.612 101.286V133.33C235.612 138.995 237.169 143.905 240.297 148.046C243.419 152.188 248.322 154.262 255.007 154.262Z" fill="#470857"/>
<path d="M187.172 80.7957C190.069 81.4349 192.401 82.4278 194.149 83.9579C195.89 85.4813 197.162 87.5214 197.964 90.0648C198.76 92.6082 199.161 95.8385 199.161 99.7624V130.936C199.161 139.654 200.283 146.598 202.541 151.752C204.792 156.914 208.607 161.164 213.986 164.503C208.607 167.849 204.792 172.134 202.541 177.363C200.283 182.593 199.161 189.495 199.161 198.071V201.954H210.973V198.071C210.973 189.495 212.095 182.593 214.353 177.363C216.604 172.134 220.419 167.849 225.799 164.503C220.419 161.164 216.604 156.914 214.353 151.752C212.095 146.598 210.973 139.654 210.973 130.936V99.7624C210.973 95.8385 210.572 92.6082 209.776 90.0648C208.974 87.5214 207.702 85.4881 205.961 83.9579C204.22 82.4346 201.881 81.4349 198.984 80.7957C198.447 80.6801 197.882 80.5645 197.298 80.4557C193.285 79.7212 189.212 79.388 185.131 79.388H173.319C177.399 79.388 181.473 79.7212 185.485 80.4557C186.07 80.5645 186.641 80.6801 187.172 80.7957Z" fill="#F77618"/>
</svg>
