<svg width="300" height="300" viewBox="0 0 300 300" fill="none" xmlns="http://www.w3.org/2000/svg">
<g clip-path="url(#clip0)">
<path d="M300.305 135.125V164.498C290.823 164.498 283.868 167.441 279.431 173.315C274.994 179.19 272.785 186.048 272.785 193.881V239.643C272.785 249.54 271.859 258.193 270.006 265.621C268.154 273.039 264.749 279.27 259.801 284.325C254.852 289.37 248.051 293.141 239.389 295.611C231.199 297.955 220.656 299.17 207.846 299.296V269.614C218.649 269.392 226.27 267.492 230.727 263.913C235.463 260.093 237.836 252.733 237.836 241.804V197.267C237.836 185.103 239.428 175.312 242.63 167.894C245.823 160.476 251.235 154.399 258.865 149.653C251.235 144.916 245.823 138.887 242.63 131.566C239.428 124.254 237.836 114.405 237.836 102.039V57.8199C237.836 52.254 237.267 47.672 236.138 44.0643C235 40.4566 233.196 37.5723 230.727 35.4019C228.257 33.2412 224.939 31.8232 220.83 30.9164C220.067 30.7524 219.267 30.5884 218.437 30.4341C212.746 29.3923 206.968 28.9196 201.18 28.9196H34.4051C39.8842 47.2765 52.0772 67.5916 79.2122 67.5916H165.344C181.318 67.5916 194.273 80.5466 194.273 96.5209H75.8456C81.2862 114.743 93.3537 134.884 120.074 135.174H178.926C194.9 135.174 207.855 148.129 207.855 164.103H117.296C122.775 182.46 134.968 202.775 162.103 202.775V202.785H221.447V231.714H154.077C153.508 231.714 152.949 231.695 152.389 231.666C105.826 230.508 90.9132 192.299 86.1479 164.113C58.6945 151.244 48.4887 118.939 44.6977 96.5209C0.787768 75.926 0.999989 0 0.999989 0H207.855C221.042 0 231.865 1.2926 240.325 3.86817C248.775 6.44373 255.373 10.2637 260.119 15.3087C264.855 20.3633 268.154 26.6527 270.016 34.1672C271.868 41.6913 272.794 50.2958 272.794 59.9807V105.434C272.794 113.469 275.003 120.434 279.44 126.309C283.868 132.183 290.823 135.125 300.305 135.125Z" fill="#A0AEC0"/>
<path d="M204.084 30.9164C208.193 31.8231 211.502 33.2315 213.981 35.4019C216.45 37.5627 218.254 40.4566 219.392 44.0643C220.521 47.672 221.09 52.254 221.09 57.8199V102.039C221.09 114.405 222.682 124.254 225.884 131.566C229.077 138.887 234.489 144.916 242.119 149.653C234.489 154.399 229.077 160.476 225.884 167.894C222.682 175.312 221.09 185.103 221.09 197.267V202.775H237.846V197.267C237.846 185.103 239.437 175.312 242.64 167.894C245.833 160.476 251.244 154.399 258.875 149.653C251.244 144.916 245.833 138.887 242.64 131.566C239.437 124.254 237.846 114.405 237.846 102.039V57.8199C237.846 52.254 237.277 47.672 236.148 44.0643C235.01 40.4566 233.206 37.5723 230.736 35.4019C228.267 33.2412 224.949 31.8231 220.839 30.9164C220.077 30.7524 219.277 30.5884 218.447 30.4341C212.756 29.3923 206.977 28.9196 201.19 28.9196H184.434C190.222 28.9196 196 29.3923 201.691 30.4341C202.521 30.5884 203.331 30.7524 204.084 30.9164Z" fill="white"/>
</g>
<defs>
<clipPath id="clip0">
<rect width="300" height="300" fill="white"/>
</clipPath>
</defs>
</svg>
