<svg width="300" height="300" viewBox="0 0 300 300" fill="none" xmlns="http://www.w3.org/2000/svg">
<g clip-path="url(#clip0)">
<path d="M299.305 135.125V164.498C289.823 164.498 282.868 167.441 278.431 173.315C273.994 179.19 271.785 186.048 271.785 193.881V239.643C271.785 249.54 270.859 258.193 269.006 265.621C267.154 273.039 263.749 279.27 258.801 284.325C253.852 289.37 247.051 293.141 238.389 295.611C230.199 297.955 219.656 299.17 206.846 299.296V269.614C217.65 269.392 225.27 267.492 229.727 263.913C234.463 260.093 236.836 252.733 236.836 241.804V197.267C236.836 185.103 238.428 175.312 241.63 167.894C244.823 160.476 250.235 154.399 257.865 149.653C250.235 144.916 244.823 138.887 241.63 131.566C238.428 124.254 236.836 114.405 236.836 102.039V57.8199C236.836 52.254 236.267 47.672 235.138 44.0643C234 40.4566 232.196 37.5723 229.727 35.4019C227.257 33.2412 223.939 31.8232 219.83 30.9164C219.068 30.7524 218.267 30.5884 217.437 30.4341C211.746 29.3923 205.968 28.9196 200.18 28.9196H33.4051C38.8842 47.2765 51.0772 67.5916 78.2122 67.5916H164.344C180.318 67.5916 193.273 80.5466 193.273 96.5209H74.8457C80.2862 114.743 92.3537 134.884 119.074 135.174H177.926C193.9 135.174 206.855 148.129 206.855 164.103H116.296C121.775 182.46 133.968 202.775 161.103 202.775V202.785H220.447V231.714H153.077C152.508 231.714 151.949 231.695 151.389 231.666C104.826 230.508 89.9132 192.299 85.1479 164.113C57.6945 151.244 47.4887 118.939 43.6977 96.5209C-0.212217 75.926 4.19195e-06 0 4.19195e-06 0H206.855C220.042 0 230.865 1.2926 239.325 3.86817C247.775 6.44373 254.373 10.2637 259.119 15.3087C263.855 20.3633 267.154 26.6527 269.016 34.1672C270.868 41.6913 271.794 50.2958 271.794 59.9807V105.434C271.794 113.469 274.003 120.434 278.441 126.309C282.868 132.183 289.823 135.125 299.305 135.125Z" fill="white"/>
</g>
<defs>
<clipPath id="clip0">
<rect width="300" height="300" fill="white"/>
</clipPath>
</defs>
</svg>
