<?xml version="1.0" encoding="utf-8"?>
<!-- Generator: Adobe Illustrator 23.0.0, SVG Export Plug-In . SVG Version: 6.00 Build 0)  -->
<svg xmlns="http://www.w3.org/2000/svg" xmlns:xlink="http://www.w3.org/1999/xlink" x="0px" y="0px"
   viewBox="0 0 483.8 706.6" style="enable-background:new 0 0 483.8 706.6;" xml:space="preserve">
<style type="text/css">
  .abstract-shapes-1-0{fill:#00DFFC;}
  .abstract-shapes-1-1{fill:#FFFFFF;}
  .abstract-shapes-1-2{fill:#FFC107;}
  .abstract-shapes-1-3{fill:none;stroke:#FFFFFF;}
  .abstract-shapes-1-4{fill:none;stroke:#377DFF;}
  .abstract-shapes-1-5{fill:none;stroke:#00C9A7;}
</style>
<g>
  <defs>
    <rect id="abstractShapes1ID1" width="483.8" height="706.6"/>
  </defs>
  <clipPath id="abstractShapes1ID2">
    <use xlink:href="#abstractShapes1ID1"  style="overflow:visible;"/>
  </clipPath>
  <path class="abstract-shapes-1-0 fill-info" clip-path="url(#abstractShapes1ID2)" d="M-153.8,381.4c29.5-3.9,58.5-7.9,82.9-27.9c17.7-14.4,29.8-35.1,34.1-57.5c5.6-29.4-3.4-64.4,15.2-90.2
    c10-13.8,25.8-21.8,42.9-21.7c44.3,0.4,61.3,41.3,67.3,79.1c7.1,44.4,5.2,93,45.4,122.6c23.8,17.5,60.1,21.9,77.9,47.6
    c26.1,37.6-18.6,74.7-48.2,91.9c-26.8,15.5-53.5,29.6-82.8,39.9c-15.2,5.4-31.6,8.8-47.5,5.9c-39-7.1-38.9-47.7-58.5-74.4
    c-10.4-14.2-25.3-23.6-42.4-27.7c-31-7.6-63.8-3-95.2-0.6c-30,2.3-70.1-16.7-59.5-53.5c4.8-16.8,20.8-25.3,36.9-28.6
    C-174.9,384.2-164.3,382.8-153.8,381.4z"/>

    <linearGradient id="abstractShapes1ID3" gradientUnits="userSpaceOnUse" x1="166.0509" y1="-593.6631" x2="706.6104" y2="-875.1939" gradientTransform="matrix(0.6089 0.7932 0.7932 -0.6089 422.088 -427.4973)">
    <stop class="stop-color-indigo" offset="0" style="stop-color:#2D1582"/>
    <stop class="stop-color-primary" offset="1" style="stop-color:#377DFF"/>
  </linearGradient>
  <path fill="url(#abstractShapes1ID3)" clip-path="url(#abstractShapes1ID2)" d="M375.8,455.9c-14.7-73.5-31.3-154.9-83.3-212.2C227.2,171.7,130.6,110,38.1,80.5c-47-15-86,2.5-110.9,44.3
    c-16,27-22.7,58.9-40.6,84.6c-15.9,22.8-39.2,42.2-46.9,69.9c-8.5,30.5,9.6,62.6,30.7,83.4c17.8,17.6,39.5,29.4,64.9,30.3
    c8.4,0.3,17.5-0.9,27-2.6c42-7.5,90.3-24.9,102.6,33.2c5,23.8-6.2,42.3-17.3,62.5C33.9,510.8,25.3,542,32.8,570
    c7.5,28.2,36.2,56.4,66.7,40.8c35.1-18,43.6-64.2,82.1-79.3c24.1-9.4,45.7,1.1,63,18.9c11,11.4,19.3,25.2,26.5,39.4
    c16.5,32.6,49.9,60.7,86.9,35.6C411.3,589.4,386,506.5,375.8,455.9z"/>
  <g clip-path="url(#abstractShapes1ID2)">
    <circle class="abstract-shapes-1-0 fill-info" cx="157.6" cy="319.2" r="2.8"/>
    <circle class="abstract-shapes-1-0 fill-info" cx="169.3" cy="334.9" r="3.5"/>
    <circle class="abstract-shapes-1-0 fill-info" cx="146" cy="360.9" r="1.7"/>
    <circle class="abstract-shapes-1-0 fill-info" cx="172.2" cy="299.6" r="1.8"/>
    <circle class="abstract-shapes-1-0 fill-info" cx="148.9" cy="297.9" r="2"/>
    <circle class="abstract-shapes-1-0 fill-info" cx="137.5" cy="279.7" r="4.3"/>
    <circle class="abstract-shapes-1-0 fill-info" cx="184.8" cy="319.2" r="2.1"/>
    <circle class="abstract-shapes-1-0 fill-info" cx="161.8" cy="350.8" r="1.4"/>
    <circle class="abstract-shapes-1-0 fill-info" cx="103.9" cy="319.2" r="4.4"/>
    <circle class="abstract-shapes-1-0 fill-info" cx="133.8" cy="307.6" r="2.3"/>
    <circle class="abstract-shapes-1-0 fill-info" cx="123.2" cy="346.7" r="3.2"/>
    <circle class="abstract-shapes-1-0 fill-info" cx="101.9" cy="275.5" r="5.2"/>
    <circle class="abstract-shapes-1-0 fill-info" cx="125.4" cy="259.7" r="2.2"/>
    <circle class="abstract-shapes-1-0 fill-info" cx="153.2" cy="273.5" r="2"/>
    <circle class="abstract-shapes-1-0 fill-info" cx="179.6" cy="275.5" r="4"/>
    <circle class="abstract-shapes-1-0 fill-info" cx="184.8" cy="297.9" r="2.6"/>
    <circle class="abstract-shapes-1-0 fill-info" cx="103.9" cy="301.5" r="2"/>
    <circle class="abstract-shapes-1-0 fill-info" cx="199.6" cy="328.7" r="3.6"/>
    <circle class="abstract-shapes-1-0 fill-info" cx="141.7" cy="331.8" r="3.1"/>
    <circle class="abstract-shapes-1-0 fill-info" cx="193.7" cy="356.5" r="4.3"/>
  </g>
  <path class="abstract-shapes-1-0 fill-info" clip-path="url(#abstractShapes1ID2)" d="M77.6,96.2c6.4,18,14.6,44.8,7,62.5c-5.8,13.7-16.8,33.9-30.5,31.1c-11.6-14.9-35.1-46-50.3-58.2
    c-12.5-10.1-31.7-20.4-43.9-31.4c-30.2-27.1-41.8-64.1-58.6-101C-68.2,2.3-38,8-8.1,16.3c19.2,5.5,39,12.5,53.7,25.9
    C61.7,56.3,70.9,76.1,77.6,96.2z"/>
  <g clip-path="url(#abstractShapes1ID2)">
    <g>
      <path class="abstract-shapes-1-1 fill-white" d="M-96.9,1c35.5,16.9,68.3,39,96.3,66.2c30.4,30,50.7,65.2,73.5,100.4c0.3,1,2.4,0,1.4-1
        C35.3,93.8-19.5,32.4-96.8,0C-96.9,0-97.6,0.3-96.9,1L-96.9,1z"/>
    </g>
    <g>
      <path class="abstract-shapes-1-1 fill-white" d="M-76.2,47.2c24.5-1.4,45.9-0.3,67.3,13.1c1.4,1,2.8-1.4,1.4-2.4c-19-12.4-46.6-20-69-12.4
        C-77.2,46.2-77.2,47.2-76.2,47.2L-76.2,47.2z"/>
    </g>
    <g>
      <path class="abstract-shapes-1-1 fill-white" d="M-37.9,88c11.7,0,23.1-0.3,34.5,2.4c10.4,2.4,20.4,6.2,30.7,10c1.4,0.3,1.7-1.4,0.3-2.4
        C6.9,90.4-16.6,81.4-38.6,87C-38.2,87.6-38.2,88-37.9,88L-37.9,88z"/>
    </g>
    <g>
      <path class="abstract-shapes-1-1 fill-white" d="M7.7,124.2c7.9,0.3,16.6,1.4,24.5,2.8c9.3,1.7,15.5,6.6,21.7,13.8c1,1,2.8-0.3,1.7-1.7
        c-5.5-6.6-11.4-11.4-20.4-13.8c-9-1.7-18.6-2.4-27.9-1.7C7.3,123.1,7.3,124.2,7.7,124.2L7.7,124.2z"/>
    </g>
    <g>
      <path class="abstract-shapes-1-1 fill-white" d="M-25.8,19c0.3,9,5.2,17.9,8.6,26.2c2.4,5.2,4.1,14.1,11,15.2c0.3,0,1-0.3,0.3-1
        C-17.3,50.1-17.6,31.5-25.2,19C-25.1,18.3-25.8,18.3-25.8,19L-25.8,19z"/>
    </g>
    <g>
      <path class="abstract-shapes-1-1 fill-white" d="M11.1,29.6c2.4,24.5,10,48.6,18.6,71.4c0.3,1,2.4,0.3,1.7-0.3c-9-23.1-13.8-46.9-19.3-71.1
        C11.8,29.3,11.1,29.3,11.1,29.6L11.1,29.6z"/>
    </g>
    <g>
      <path class="abstract-shapes-1-1 fill-white" d="M50.8,81.4c0,20.7,5.2,42.1,8.6,62.4c0.3,1.4,2.8,1,2.4-0.3c-3.8-20.7-6.6-41.1-10-62.1
        C51.8,80.4,50.8,80.4,50.8,81.4L50.8,81.4z"/>
    </g>
  </g>
  <g clip-path="url(#abstractShapes1ID2)">
    <g>
      <path id="abstractShapes1_4" class="abstract-shapes-1-2 fill-warning" d="M483.8,243.1c-21.9-2.8-40.7,0.9-56.3,7.4c-5.7-34.6-20.5-60.2-20.5-60.2
        c-12.4,38-35.7,59.4-59.8,71.4c21.5-24.2,9.9-64.9,9.9-64.9c-14,71.1-90.4,78.8-90.5,78.8c-34.3,3.4-67.8,9.2-96.6,29
        c-14.5,9.9-22.6,26.9-16.9,44.2c5,15.1,15.6,28.9,23.8,42.4c10.1,16.7,26.7,28.5,45.8,32.4c28.3,5.7,73.9,3.2,138.5-34.3
        c54.1-31.4,68.7-75,68.4-113.4C445.3,248.4,483.8,243.1,483.8,243.1z"/>
    </g>
    <g>
      <defs>
        <path id="abstractShapes1ID4" d="M483.8,243.1c-21.9-2.8-40.7,0.9-56.3,7.4c-5.7-34.6-20.5-60.2-20.5-60.2c-12.4,38-35.7,59.4-59.8,71.4
          c21.5-24.2,9.9-64.9,9.9-64.9c-14,71.1-90.4,78.8-90.5,78.8c-34.3,3.4-67.8,9.2-96.6,29c-14.5,9.9-22.6,26.9-16.9,44.2
          c5,15.1,15.6,28.9,23.8,42.4c10.1,16.7,26.7,28.5,45.8,32.4c28.3,5.7,73.9,3.2,138.5-34.3c54.1-31.4,68.7-75,68.4-113.4
          C445.3,248.4,483.8,243.1,483.8,243.1z"/>
      </defs>
      <clipPath id="abstractShapes1ID5">
        <use xlink:href="#abstractShapes1ID4"  style="overflow:visible;"/>
      </clipPath>
      <path class="abstract-shapes-1-3 fill-none stroke-white" opacity=".6" clip-path="url(#abstractShapes1ID5)" stroke-miterlimit="10" d="M107.3,410c0,0,90.5-103.4,106.4-249.6"/>
    </g>
    <g>
      <defs>
        <path id="abstractShapes1ID6" d="M483.8,243.1c-21.9-2.8-40.7,0.9-56.3,7.4c-5.7-34.6-20.5-60.2-20.5-60.2c-12.4,38-35.7,59.4-59.8,71.4
          c21.5-24.2,9.9-64.9,9.9-64.9c-14,71.1-90.4,78.8-90.5,78.8c-34.3,3.4-67.8,9.2-96.6,29c-14.5,9.9-22.6,26.9-16.9,44.2
          c5,15.1,15.6,28.9,23.8,42.4c10.1,16.7,26.7,28.5,45.8,32.4c28.3,5.7,73.9,3.2,138.5-34.3c54.1-31.4,68.7-75,68.4-113.4
          C445.3,248.4,483.8,243.1,483.8,243.1z"/>
      </defs>
      <clipPath id="abstractShapes1ID7">
        <use xlink:href="#abstractShapes1ID6"  style="overflow:visible;"/>
      </clipPath>
      <path class="abstract-shapes-1-3 fill-none stroke-white" opacity=".6" clip-path="url(#abstractShapes1ID7)" stroke-miterlimit="10" d="M151.4,418.8c0,0,90.5-103.4,106.4-249.6"/>
    </g>
    <g>
      <defs>
        <path id="abstractShapes1ID8" d="M483.8,243.1c-21.9-2.8-40.7,0.9-56.3,7.4c-5.7-34.6-20.5-60.2-20.5-60.2c-12.4,38-35.7,59.4-59.8,71.4
          c21.5-24.2,9.9-64.9,9.9-64.9c-14,71.1-90.4,78.8-90.5,78.8c-34.3,3.4-67.8,9.2-96.6,29c-14.5,9.9-22.6,26.9-16.9,44.2
          c5,15.1,15.6,28.9,23.8,42.4c10.1,16.7,26.7,28.5,45.8,32.4c28.3,5.7,73.9,3.2,138.5-34.3c54.1-31.4,68.7-75,68.4-113.4
          C445.3,248.4,483.8,243.1,483.8,243.1z"/>
      </defs>
      <clipPath id="abstractShapes1ID9">
        <use xlink:href="#abstractShapes1ID8"  style="overflow:visible;"/>
      </clipPath>
      <path class="abstract-shapes-1-3 fill-none stroke-white" opacity=".6" clip-path="url(#abstractShapes1ID9)" stroke-miterlimit="10" d="M204.4,429.2c0,0,90.5-103.4,106.4-249.6"/>
    </g>
    <g>
      <defs>
        <path id="abstractShapes1ID10" d="M483.8,243.1c-21.9-2.8-40.7,0.9-56.3,7.4c-5.7-34.6-20.5-60.2-20.5-60.2c-12.4,38-35.7,59.4-59.8,71.4
          c21.5-24.2,9.9-64.9,9.9-64.9c-14,71.1-90.4,78.8-90.5,78.8c-34.3,3.4-67.8,9.2-96.6,29c-14.5,9.9-22.6,26.9-16.9,44.2
          c5,15.1,15.6,28.9,23.8,42.4c10.1,16.7,26.7,28.5,45.8,32.4c28.3,5.7,73.9,3.2,138.5-34.3c54.1-31.4,68.7-75,68.4-113.4
          C445.3,248.4,483.8,243.1,483.8,243.1z"/>
      </defs>
      <clipPath id="abstractShapes1ID11">
        <use xlink:href="#abstractShapes1ID10"  style="overflow:visible;"/>
      </clipPath>
      <path class="abstract-shapes-1-3 fill-none stroke-white" opacity=".6" clip-path="url(#abstractShapes1ID11)" stroke-miterlimit="10" d="M248.5,437.9c0,0,90.5-103.4,106.4-249.6"/>
    </g>
    <g>
      <defs>
        <path id="abstractShapes1ID12" d="M483.8,243.1c-21.9-2.8-40.7,0.9-56.3,7.4c-5.7-34.6-20.5-60.2-20.5-60.2c-12.4,38-35.7,59.4-59.8,71.4
          c21.5-24.2,9.9-64.9,9.9-64.9c-14,71.1-90.4,78.8-90.5,78.8c-34.3,3.4-67.8,9.2-96.6,29c-14.5,9.9-22.6,26.9-16.9,44.2
          c5,15.1,15.6,28.9,23.8,42.4c10.1,16.7,26.7,28.5,45.8,32.4c28.3,5.7,73.9,3.2,138.5-34.3c54.1-31.4,68.7-75,68.4-113.4
          C445.3,248.4,483.8,243.1,483.8,243.1z"/>
      </defs>
      <clipPath id="abstractShapes1ID13">
        <use xlink:href="#abstractShapes1ID12"  style="overflow:visible;"/>
      </clipPath>
      <path class="abstract-shapes-1-3 fill-none stroke-white" opacity=".6" clip-path="url(#abstractShapes1ID10)" stroke-miterlimit="10" d="M292.7,446.6c0,0,90.5-103.4,106.4-249.6"/>
    </g>
    <g>
      <defs>
        <path id="abstractShapes1ID14" d="M483.8,243.1c-21.9-2.8-40.7,0.9-56.3,7.4c-5.7-34.6-20.5-60.2-20.5-60.2c-12.4,38-35.7,59.4-59.8,71.4
          c21.5-24.2,9.9-64.9,9.9-64.9c-14,71.1-90.4,78.8-90.5,78.8c-34.3,3.4-67.8,9.2-96.6,29c-14.5,9.9-22.6,26.9-16.9,44.2
          c5,15.1,15.6,28.9,23.8,42.4c10.1,16.7,26.7,28.5,45.8,32.4c28.3,5.7,73.9,3.2,138.5-34.3c54.1-31.4,68.7-75,68.4-113.4
          C445.3,248.4,483.8,243.1,483.8,243.1z"/>
      </defs>
      <clipPath id="abstractShapes1ID15">
        <use xlink:href="#abstractShapes1ID14"  style="overflow:visible;"/>
      </clipPath>
      <path class="abstract-shapes-1-3 fill-none stroke-white" opacity=".6" clip-path="url(#abstractShapes1ID15)" stroke-miterlimit="10" d="M336.8,455.3c0,0,90.5-103.4,106.4-249.6"/>
    </g>
  </g>
  <circle class="abstract-shapes-1-4 fill-none stroke-primary" clip-path="url(#abstractShapes1ID2)" stroke-width="3" stroke-miterlimit="10" cx="200.5" cy="692.2" r="14.4"/>
  <circle class="abstract-shapes-1-4 fill-none stroke-primary" clip-path="url(#abstractShapes1ID2)" stroke-width="2" stroke-miterlimit="10" cx="209.5" cy="654.4" r="5.4"/>
  <path class="abstract-shapes-1-5 fill-none stroke-info" clip-path="url(#abstractShapes1ID2)" stroke-width="4" stroke-miterlimit="10" d="M192.2,36.1c-0.1-1.9-1-3.6-2.5-4.7c-2.3-1.7-6.1-2.2-11.4,5.5c-8.4,12.2-0.5,11.7,0.6,11.6
    c0.1,0,0.2,0,0.3,0l7.3-0.5c3.5-0.2,6.2-3.3,6-6.8L192.2,36.1z"/>
  <circle class="abstract-shapes-1-5 fill-none stroke-info" clip-path="url(#abstractShapes1ID2)" stroke-width="4" stroke-miterlimit="10" cx="294.2" cy="144.7" r="7"/>
</g>
</svg>
