<?xml version="1.0" encoding="utf-8"?>
<!-- Generator: Adobe Illustrator 23.0.0, SVG Export Plug-In . SVG Version: 6.00 Build 0)  -->
<svg xmlns="http://www.w3.org/2000/svg" xmlns:xlink="http://www.w3.org/1999/xlink" x="0px" y="0px"
	 viewBox="0 0 384.1 283.3" style="enable-background:new 0 0 384.1 283.3;" xml:space="preserve">
<style type="text/css">
	.abstract-shapes-8-0{fill:#00DFFC;}
	.abstract-shapes-8-1{fill:#FFC107;}
	.abstract-shapes-8-2{fill:none;stroke:#00DFFC;}
</style>
<g>
	<defs>
		<rect id="abstractShapesID8_1" width="384.1" height="283.3"/>
	</defs>
	<clipPath id="abstractShapesID8_2">
		<use xlink:href="#abstractShapesID8_1"  style="overflow:visible;"/>
	</clipPath>
	<path class="abstract-shapes-8-0 fill-info" clip-path="url(#abstractShapesID8_2)" d="M-160.5-53c29.5-3.9,58.5-7.9,82.9-27.9c17.7-14.4,29.8-35.1,34.1-57.5c5.6-29.4-3.4-64.4,15.2-90.2
		c10-13.8,25.8-21.8,42.9-21.7c44.3,0.4,61.3,41.3,67.3,79.1c7.1,44.4,5.2,93,45.4,122.6c23.8,17.5,60.1,21.9,77.9,47.6
		c26.1,37.6-18.6,74.7-48.2,91.9c-26.8,15.5-53.5,29.6-82.8,39.9c-15.2,5.4-31.6,8.8-47.5,5.9c-39-7.1-38.9-47.7-58.5-74.4
		c-10.4-14.2-25.3-23.6-42.4-27.7c-31-7.6-63.8-3-95.2-0.6c-30,2.3-70.1-16.7-59.5-53.5c4.8-16.8,20.8-25.3,36.9-28.6
		C-181.6-50.2-171-51.6-160.5-53z"/>
	<path class="abstract-shapes-8-1 fill-warning" clip-path="url(#abstractShapesID8_2)" d="M369.1,21.5c-14.7-73.5-31.3-154.9-83.3-212.2c-65.3-72-161.9-133.7-254.4-163.2c-47-15-86,2.5-110.9,44.3
		c-16,27-22.7,58.9-40.6,84.6c-15.9,22.8-39.2,42.2-46.9,69.9c-8.5,30.5,9.6,62.6,30.7,83.4c17.8,17.6,39.5,29.4,64.9,30.3
		c8.4,0.3,17.5-0.9,27-2.6c42-7.5,90.3-24.9,102.6,33.2c5,23.8-6.2,42.3-17.3,62.5c-13.7,24.7-22.3,55.9-14.8,83.9
		c7.5,28.2,36.2,56.4,66.7,40.8c35.1-18,43.6-64.2,82.1-79.3c24.1-9.4,45.7,1.1,63,18.9c11,11.4,19.3,25.2,26.5,39.4
		c16.5,32.6,49.9,60.7,86.9,35.6C404.6,155,379.3,72.1,369.1,21.5z"/>
	<circle class="abstract-shapes-8-2 fill-none stroke-info" stroke-width="3" stroke-miterlimit="10" clip-path="url(#abstractShapesID8_2)" cx="193.8" cy="257.8" r="14.4"/>
	<circle class="abstract-shapes-8-2 fill-none stroke-info" stroke-width="2" stroke-miterlimit="10" clip-path="url(#abstractShapesID8_2)" cx="202.8" cy="220" r="5.4"/>
</g>
</svg>
