<?xml version="1.0" encoding="utf-8"?>
<!-- Generator: Adobe Illustrator 22.1.0, SVG Export Plug-In . SVG Version: 6.00 Build 0)  -->
<svg xmlns="http://www.w3.org/2000/svg" xmlns:xlink="http://www.w3.org/1999/xlink" x="0px" y="0px"
   viewBox="0 0 362 293.9" style="enable-background:new 0 0 362 293.9;" xml:space="preserve">
  <linearGradient id="testimonialsID1" gradientUnits="userSpaceOnUse" x1="-8.225470e-09" y1="146.9534" x2="362.0205" y2="146.9534">
    <stop class="stop-color-warning" offset="7.500810e-08" style="stop-color:#FFC107"/>
    <stop class="stop-color-danger" offset="1" style="stop-color:#DE4437"/>
  </linearGradient>
  <path fill="url(#testimonialsID1)" opacity=".05" d="M362,114.3c-0.4,0.4-0.8,0.9-1.3,1.3L220.1,256.3c-50.2,50.2-132.3,50.2-182.4,0l0,0
    c-50.2-50.2-50.2-132.3,0-182.4L111.5,0L362,0L362,114.3z"/>
  <linearGradient id="testimonialsID2" gradientUnits="userSpaceOnUse" x1="-5.125912e-09" y1="158.4534" x2="362.0205" y2="158.4534" gradientTransform="matrix(1 0 0 -1 0 293.9069)">
    <stop class="stop-color-warning" offset="1.500162e-07" style="stop-color:#FFC107"/>
    <stop class="stop-color-danger" offset="1" style="stop-color:#DE4437"/>
  </linearGradient>
  <path fill="url(#testimonialsID1)" d="M362,91.3c-0.4,0.4-0.8,0.9-1.3,1.3L220.1,233.3c-50.2,50.2-132.3,50.2-182.4,0l0,0
    c-50.2-50.2-50.2-132.3,0-182.4L88.5,0L362,0V91.3z"/>
</svg>