<?xml version="1.0" encoding="utf-8"?>
<!-- Generator: Adobe Illustrator 22.1.0, SVG Export Plug-In . SVG Version: 6.00 Build 0)  -->
<svg preserveAspectRatio="none" xmlns="http://www.w3.org/2000/svg" xmlns:xlink="http://www.w3.org/1999/xlink" x="0px" y="0px" width="100%" height="300px"
	 viewBox="0 0 1250 323" style="enable-background:new 0 0 1250 323;" xml:space="preserve">
<style type="text/css">
	.wave-3-bottom-0{fill:#377DFF;}
</style>
<path class="wave-3-bottom-0" opacity=".05" d="M1250,322.8c0,0-50.4-39.9-123.7-54.3c-90.3-17.7-210.9-70.1-210.9-70.1S806,129.1,596.6,164
	c-68.1,11.3-140,7.5-200.6-11.9c-42.2-13.5-77.1-32.8-103.7-53.9c-15.2-12.1-31.2-24-50.7-34.4c-20.6-11.1-43.2-21.3-67.5-30.3
	C123.6,14.8,63.9,1.3,0.3,0l0,322.8H1250z"/>
<path class="wave-3-bottom-0" opacity=".05" d="M0,73.2c0,0,154.1-11.9,305.5,59.2s421.4,27.9,421.4,27.9s236.3-54.7,388.7,82.6c0,0,59.4,42.6,87.4,80.1H0
	L0,73.2z"/>
</svg>
