<?xml version="1.0" encoding="utf-8"?>
<!-- Generator: Adobe Illustrator 23.0.1, SVG Export Plug-In . SVG Version: 6.00 Build 0)  -->
<svg version="1.1" id="Layer_1" xmlns="http://www.w3.org/2000/svg" xmlns:xlink="http://www.w3.org/1999/xlink" x="0px" y="0px"
	 viewBox="0 0 105 105" style="enable-background:new 0 0 105 105;" xml:space="preserve">
<style type="text/css">
	.st0{fill:url(#Shape_1_);}
	.st1{fill:url(#Path_1_);}
	.st2{fill:url(#SVGID_1_);}
</style>
<title>icon</title>
<desc>Created with Sketch.</desc>
<g>
	<g transform="translate(-592.000000, -1774.000000)">
		<g id="Features-1" transform="translate(0.000000, 1685.000000)">
			<g transform="translate(574.000000, 89.000000)">
				<g id="icon" transform="translate(18.000000, 0.000000)">
					<g transform="translate(22.000000, 32.000000)">
						
							<linearGradient id="Shape_1_" gradientUnits="userSpaceOnUse" x1="-23.9508" y1="76.4286" x2="-24.9508" y2="76.4286" gradientTransform="matrix(61 0 0 -42 1522 3231)">
							<stop  offset="0" style="stop-color:#6A9BF4"/>
							<stop  offset="0.6793" style="stop-color:#766DF4"/>
							<stop  offset="1" style="stop-color:#766DF4"/>
						</linearGradient>
						<path id="Shape" class="st0" d="M59.6,22.1C59.2,21.2,50.2,6.6,50,6.2c-1.7-2.7-4.6-4.3-7.7-4.3c-0.5,0-0.9,0-1.3,0.1
							c0,0,0,0,0,0c-0.8-1.2-2.1-2-3.6-2c-2.3,0-4.2,1.9-4.2,4.2v7.3h-5.4V4.2c0-2.3-1.9-4.2-4.2-4.2c-1.5,0-2.8,0.7-3.6,2
							c-0.4-0.1-0.9-0.1-1.3-0.1c-3.2,0-6.1,1.6-7.7,4.3c0,0-0.1,0.2-1.8,3c-0.3,0.5-0.1,1.1,0.4,1.4c0.5,0.3,1.1,0.1,1.4-0.4
							c1.4-2.3,1.7-2.9,1.8-2.9c1.3-2.1,3.5-3.3,6-3.3c3.9,0,7,3.1,7,7v0v10c-2.4-4-6.8-6.6-11.9-6.6c-2.3,0-4.4,0.5-6.3,1.5
							c0.5-0.8,1-1.7,1.5-2.5c0.3-0.5,0.1-1.1-0.4-1.4c-0.5-0.3-1.1-0.1-1.4,0.4c-2.2,3.6-5.6,9.1-6,10C0.5,24,0,26,0,28.2
							C0,35.8,6.2,42,13.9,42s13.9-6.2,13.9-13.8v-2.7h5.4v2.7c0,7.6,6.2,13.8,13.9,13.8C54.8,42,61,35.8,61,28.2
							C61,26,60.5,23.9,59.6,22.1z M25.8,5.2c-0.9-1.2-2.2-2.1-3.6-2.6C22.6,2.2,23.1,2,23.6,2c1.2,0,2.1,1,2.1,2.1V5.2z M13.9,40
							C7.4,40,2,34.7,2,28.2s5.3-11.8,11.9-11.8s11.9,5.3,11.9,11.8S20.4,40,13.9,40z M27.8,19.5v-6h5.4v6H27.8L27.8,19.5z
							 M33.2,23.4h-5.4v-1.9h5.4V23.4z M35.2,4.2c0-1.2,1-2.1,2.1-2.1c0.5,0,1,0.2,1.4,0.5c-1.4,0.6-2.6,1.5-3.6,2.6V4.2z
							 M35.2,10.9L35.2,10.9c0-3.9,3.2-7,7-7c2.5,0,4.7,1.2,6,3.3c0.1,0.2,2.7,4.5,5.1,8.6c-1.9-1-4-1.5-6.3-1.5
							c-5,0-9.4,2.7-11.9,6.6L35.2,10.9L35.2,10.9z M47.1,40c-6.5,0-11.9-5.3-11.9-11.8s5.3-11.8,11.9-11.8
							c6.5,0,11.9,5.3,11.9,11.8S53.6,40,47.1,40z"/>
						
							<linearGradient id="Path_1_" gradientUnits="userSpaceOnUse" x1="-23.8421" y1="76.3421" x2="-24.8421" y2="76.3421" gradientTransform="matrix(19 0 0 -19 509 1479)">
							<stop  offset="0" style="stop-color:#6A9BF4"/>
							<stop  offset="0.6793" style="stop-color:#766DF4"/>
							<stop  offset="1" style="stop-color:#766DF4"/>
						</linearGradient>
						<path id="Path" class="st1" d="M55.4,25.3c-0.2-0.5-0.8-0.8-1.3-0.6c-0.5,0.2-0.8,0.8-0.6,1.3c0.3,0.8,0.4,1.7,0.4,2.5
							c0,4.1-3.3,7.5-7.5,7.5c-4.1,0-7.5-3.3-7.5-7.5s3.3-7.5,7.5-7.5c2.1,0,4.1,0.9,5.5,2.4c0.4,0.4,1,0.4,1.4,0.1
							c0.4-0.4,0.4-1,0.1-1.4c-1.8-1.9-4.3-3-7-3c-5.2,0-9.5,4.3-9.5,9.5s4.3,9.5,9.5,9.5s9.5-4.3,9.5-9.5
							C56,27.4,55.8,26.3,55.4,25.3z"/>
						
							<linearGradient id="SVGID_1_" gradientUnits="userSpaceOnUse" x1="-23.8421" y1="76.3421" x2="-24.8421" y2="76.3421" gradientTransform="matrix(19 0 0 -19 477 1479)">
							<stop  offset="0" style="stop-color:#6A9BF4"/>
							<stop  offset="0.6793" style="stop-color:#766DF4"/>
							<stop  offset="1" style="stop-color:#766DF4"/>
						</linearGradient>
						<path class="st2" d="M14.5,19C9.3,19,5,23.3,5,28.5S9.3,38,14.5,38s9.5-4.3,9.5-9.5S19.7,19,14.5,19z M14.5,36
							C10.4,36,7,32.6,7,28.5c0-4.1,3.3-7.5,7.5-7.5s7.5,3.3,7.5,7.5S18.6,36,14.5,36z"/>
					</g>
				</g>
			</g>
		</g>
	</g>
</g>
</svg>
