<?xml version="1.0" encoding="utf-8"?>
<!-- Generator: Adobe Illustrator 23.0.1, SVG Export Plug-In . SVG Version: 6.00 Build 0)  -->
<svg version="1.1" id="Layer_1" xmlns="http://www.w3.org/2000/svg" xmlns:xlink="http://www.w3.org/1999/xlink" x="0px" y="0px"
	 viewBox="0 0 105 105" style="enable-background:new 0 0 105 105;" xml:space="preserve">
<style type="text/css">
	.st0{fill:url(#Path_1_);}
	.st1{fill:url(#Shape_1_);}
	.st2{fill:url(#SVGID_1_);}
	.st3{fill:url(#SVGID_2_);}
	.st4{fill:url(#SVGID_3_);}
	.st5{fill:url(#SVGID_4_);}
	.st6{fill:url(#SVGID_5_);}
	.st7{fill:url(#SVGID_6_);}
	.st8{fill:url(#SVGID_7_);}
	.st9{fill:url(#SVGID_8_);}
	.st10{fill:url(#SVGID_9_);}
	.st11{fill:url(#SVGID_10_);}
</style>
<title>icon</title>
<desc>Created with Sketch.</desc>
<g>
	<g transform="translate(-803.000000, -1774.000000)">
		<g id="Features-1" transform="translate(0.000000, 1685.000000)">
			<g transform="translate(793.000000, 89.000000)">
				<g id="icon" transform="translate(10.000000, 0.000000)">
					<g id="airplane" transform="translate(25.000000, 26.000000)">
						
							<linearGradient id="Path_1_" gradientUnits="userSpaceOnUse" x1="-26.5" y1="82" x2="-27.5" y2="82" gradientTransform="matrix(6 0 0 -6 173 536)">
							<stop  offset="0" style="stop-color:#6A9BF4"/>
							<stop  offset="0.6793" style="stop-color:#766DF4"/>
							<stop  offset="1" style="stop-color:#766DF4"/>
						</linearGradient>
						<path id="Path" class="st0" d="M12.4,41.3l-4.1,4.1C8,45.6,7.9,46,8,46.3c0.1,0.3,0.3,0.6,0.7,0.7c0.3,0.1,0.7,0,0.9-0.2
							l4.1-4.1c0.4-0.4,0.4-1,0-1.3C13.3,40.9,12.7,40.9,12.4,41.3L12.4,41.3z"/>
						
							<linearGradient id="Shape_1_" gradientUnits="userSpaceOnUse" x1="-26.9455" y1="82.4455" x2="-27.9455" y2="82.4455" gradientTransform="matrix(55 0 0 -55 1536.9999 4562)">
							<stop  offset="0" style="stop-color:#6A9BF4"/>
							<stop  offset="0.6793" style="stop-color:#766DF4"/>
							<stop  offset="1" style="stop-color:#766DF4"/>
						</linearGradient>
						<path id="Shape" class="st1" d="M49.7,15.4l4.7-8.5c1-1.8,0.7-4.1-0.8-5.5c-1.5-1.5-3.7-1.8-5.5-0.8l-8.5,4.7
							c-0.7,0.4-1.3,0.8-1.9,1.4L37.5,7L5,3.1C4.7,3,4.4,3.1,4.2,3.3l-2,2C2,5.5,1.9,5.8,2,6.1c0,0.3,0.2,0.5,0.5,0.7l22.6,12.6
							l-0.5,0.5c-0.4,0.4-0.8,0.8-1.2,1.3L10.1,37.8L2.5,36c-0.3-0.1-0.6,0-0.9,0.2l-1.3,1.3C0.1,37.8,0,38,0,38.3
							c0,0.2,0.1,0.5,0.3,0.7l4.9,4.9l-0.7,0.8c-1.3,1.6-1.1,4,0.3,5.4c1.5,1.5,3.8,1.6,5.4,0.3l0.8-0.7l4.9,4.9
							c0.2,0.2,0.4,0.3,0.7,0.3s0.5-0.1,0.7-0.3l1.3-1.3c0.2-0.2,0.3-0.6,0.2-0.9l-1.8-7.6l16.6-13.3c0.5-0.4,0.9-0.7,1.3-1.2
							l0.5-0.5l12.6,22.6c0.1,0.3,0.4,0.4,0.7,0.5c0,0,0.1,0,0.1,0c0.2,0,0.5-0.1,0.7-0.3l2-2c0.2-0.2,0.3-0.5,0.3-0.8L48,17.5
							l0.3-0.3C48.8,16.7,49.3,16.1,49.7,15.4z M5.2,5l30.6,3.7c-2.5,2.5-7.7,7.6-9.4,9.3L4.4,5.8L5.2,5z M49.2,50.6L37,28.5
							c1.7-1.7,6.8-6.8,9.3-9.4L50,49.8L49.2,50.6z M2.2,38.3L2.5,38l6.2,1.4l-2.4,3L2.2,38.3z M17,52.5l-0.3,0.3l-4.1-4.1l3-2.4
							L17,52.5z M47,15.9l-0.6,0.6l0,0l-0.1,0.1L33.8,29.1c-0.4,0.4-0.7,0.7-1.1,1L9.2,49c-0.9,0.7-2.1,0.6-2.9-0.2s-0.9-2-0.2-2.9
							l18.9-23.5c0.3-0.4,0.7-0.8,1-1.1L39.1,8c0.4-0.4,0.9-0.8,1.4-1.1L49,2.2c1.1-0.6,2.4-0.4,3.3,0.5s1.1,2.2,0.5,3.3l-4.7,8.5
							C47.8,15,47.4,15.5,47,15.9L47,15.9z"/>
						
							<linearGradient id="SVGID_1_" gradientUnits="userSpaceOnUse" x1="-26.5" y1="82" x2="-27.5" y2="82" gradientTransform="matrix(6 0 0 -6 195 537.0003)">
							<stop  offset="0" style="stop-color:#6A9BF4"/>
							<stop  offset="0.6793" style="stop-color:#766DF4"/>
							<stop  offset="1" style="stop-color:#766DF4"/>
						</linearGradient>
						<path class="st2" d="M31.7,47.7l4.1-4.1c0.4-0.4,0.4-1,0-1.3c-0.4-0.4-1-0.4-1.3,0l-4.1,4.1c-0.2,0.2-0.4,0.6-0.3,0.9
							c0.1,0.3,0.4,0.6,0.7,0.7C31.1,48.1,31.4,48,31.7,47.7z"/>
						
							<linearGradient id="SVGID_2_" gradientUnits="userSpaceOnUse" x1="-26.5" y1="82" x2="-27.5" y2="82" gradientTransform="matrix(6 0 0 -6 196 543)">
							<stop  offset="0" style="stop-color:#6A9BF4"/>
							<stop  offset="0.6793" style="stop-color:#766DF4"/>
							<stop  offset="1" style="stop-color:#766DF4"/>
						</linearGradient>
						<path class="st3" d="M35.4,48.3l-4.1,4.1c-0.2,0.2-0.3,0.6-0.3,0.9c0.1,0.3,0.3,0.6,0.7,0.7c0.3,0.1,0.7,0,0.9-0.3l4.1-4.1
							c0.4-0.4,0.4-1,0-1.4C36.3,47.9,35.7,47.9,35.4,48.3L35.4,48.3z"/>
						
							<linearGradient id="SVGID_3_" gradientUnits="userSpaceOnUse" x1="-26.5" y1="82" x2="-27.5" y2="82" gradientTransform="matrix(6 0 0 -6 194 530.0003)">
							<stop  offset="0" style="stop-color:#6A9BF4"/>
							<stop  offset="0.6793" style="stop-color:#766DF4"/>
							<stop  offset="1" style="stop-color:#766DF4"/>
						</linearGradient>
						<path class="st4" d="M34.7,36.6c0.4-0.4,0.4-1,0-1.3c-0.4-0.4-1-0.4-1.3,0l-4.1,4.1c-0.2,0.2-0.4,0.6-0.3,0.9
							c0.1,0.3,0.4,0.6,0.7,0.7c0.3,0.1,0.7,0,0.9-0.3L34.7,36.6z"/>
						
							<linearGradient id="SVGID_4_" gradientUnits="userSpaceOnUse" x1="-26" y1="81.5" x2="-27" y2="81.5" gradientTransform="matrix(3 0 0 -3 106.9999 293.0003)">
							<stop  offset="0" style="stop-color:#6A9BF4"/>
							<stop  offset="0.6793" style="stop-color:#766DF4"/>
							<stop  offset="1" style="stop-color:#766DF4"/>
						</linearGradient>
						<path class="st5" d="M27.1,47.3l-0.8,0.8c-0.4,0.4-0.4,1.1,0,1.6c0.4,0.4,1.1,0.4,1.6,0l0.8-0.8c0.4-0.4,0.4-1.1,0-1.6
							C28.2,46.9,27.6,46.9,27.1,47.3z"/>
						
							<linearGradient id="SVGID_5_" gradientUnits="userSpaceOnUse" x1="-26" y1="81.5" x2="-27" y2="81.5" gradientTransform="matrix(3 0 0 -3 106.9999 287)">
							<stop  offset="0" style="stop-color:#6A9BF4"/>
							<stop  offset="0.6793" style="stop-color:#766DF4"/>
							<stop  offset="1" style="stop-color:#766DF4"/>
						</linearGradient>
						<path class="st6" d="M28.7,42.9c0.4-0.4,0.4-1.1,0-1.6c-0.4-0.4-1.1-0.4-1.6,0l-0.8,0.8c-0.4,0.4-0.4,1.1,0,1.6
							c0.4,0.4,1.1,0.4,1.6,0L28.7,42.9z"/>
						
							<linearGradient id="SVGID_6_" gradientUnits="userSpaceOnUse" x1="-26.5" y1="82" x2="-27.5" y2="82" gradientTransform="matrix(6 0 0 -6 172 514)">
							<stop  offset="0" style="stop-color:#6A9BF4"/>
							<stop  offset="0.6793" style="stop-color:#766DF4"/>
							<stop  offset="1" style="stop-color:#766DF4"/>
						</linearGradient>
						<path class="st7" d="M11.4,19.3l-4.1,4.1C7,23.6,6.9,23.9,7,24.3c0.1,0.3,0.4,0.6,0.7,0.7c0.3,0.1,0.7,0,0.9-0.3l4.1-4.1
							c0.4-0.4,0.4-1,0-1.3C12.3,18.9,11.7,18.9,11.4,19.3z"/>
						
							<linearGradient id="SVGID_7_" gradientUnits="userSpaceOnUse" x1="-26.5" y1="82" x2="-27.5" y2="82" gradientTransform="matrix(6 0 0 -6 166 512.9998)">
							<stop  offset="0" style="stop-color:#6A9BF4"/>
							<stop  offset="0.6793" style="stop-color:#766DF4"/>
							<stop  offset="1" style="stop-color:#766DF4"/>
						</linearGradient>
						<path class="st8" d="M2,24c0.3,0,0.5-0.1,0.7-0.3l4.1-4.1c0.4-0.4,0.4-1,0-1.4c-0.4-0.4-1-0.4-1.4,0l-4.1,4.1
							c-0.3,0.3-0.4,0.7-0.2,1S1.6,24,2,24z"/>
						
							<linearGradient id="SVGID_8_" gradientUnits="userSpaceOnUse" x1="-26.5" y1="82" x2="-27.5" y2="82" gradientTransform="matrix(6 0 0 -6 179 515)">
							<stop  offset="0" style="stop-color:#6A9BF4"/>
							<stop  offset="0.6793" style="stop-color:#766DF4"/>
							<stop  offset="1" style="stop-color:#766DF4"/>
						</linearGradient>
						<path class="st9" d="M15.7,25.7l4.1-4.1c0.4-0.4,0.4-1,0-1.3c-0.4-0.4-1-0.4-1.3,0l-4.1,4.1c-0.2,0.2-0.4,0.6-0.3,0.9
							c0.1,0.3,0.4,0.6,0.7,0.7S15.4,26,15.7,25.7z"/>
						
							<linearGradient id="SVGID_9_" gradientUnits="userSpaceOnUse" x1="-26" y1="81.5" x2="-27" y2="81.5" gradientTransform="matrix(3 0 0 -3 86 272)">
							<stop  offset="0" style="stop-color:#6A9BF4"/>
							<stop  offset="0.6793" style="stop-color:#766DF4"/>
							<stop  offset="1" style="stop-color:#766DF4"/>
						</linearGradient>
						<path class="st10" d="M6.1,26.3l-0.8,0.8C5,27.4,4.9,27.8,5,28.2s0.4,0.7,0.8,0.8c0.4,0.1,0.8,0,1.1-0.3l0.8-0.8
							c0.3-0.3,0.4-0.7,0.3-1.1c-0.1-0.4-0.4-0.7-0.8-0.8C6.8,25.9,6.4,26.1,6.1,26.3L6.1,26.3z"/>
						
							<linearGradient id="SVGID_10_" gradientUnits="userSpaceOnUse" x1="-26" y1="81.5" x2="-27" y2="81.5" gradientTransform="matrix(3 0 0 -3 92 271.9998)">
							<stop  offset="0" style="stop-color:#6A9BF4"/>
							<stop  offset="0.6793" style="stop-color:#766DF4"/>
							<stop  offset="1" style="stop-color:#766DF4"/>
						</linearGradient>
						<path class="st11" d="M12.1,26.3l-0.8,0.8c-0.4,0.4-0.4,1.1,0,1.6c0.4,0.4,1.1,0.4,1.6,0l0.8-0.8c0.4-0.4,0.4-1.1,0-1.6
							C13.2,25.9,12.5,25.9,12.1,26.3L12.1,26.3z"/>
					</g>
				</g>
			</g>
		</g>
	</g>
</g>
</svg>
