<?xml version="1.0" encoding="utf-8"?>
<!-- Generator: Adobe Illustrator 23.0.1, SVG Export Plug-In . SVG Version: 6.00 Build 0)  -->
<svg version="1.1" id="Layer_1" xmlns="http://www.w3.org/2000/svg" xmlns:xlink="http://www.w3.org/1999/xlink" x="0px" y="0px"
	 viewBox="0 0 47 47" style="enable-background:new 0 0 47 47;" xml:space="preserve">
<style type="text/css">
	.st0{fill:#9E9FB4;}
</style>
<g>
	<g transform="translate(-1080.000000, -3042.000000)">
		<g id="Features-2" transform="translate(0.000000, 2754.000000)">
			<g id="text" transform="translate(1080.000000, 100.000000)">
				<g transform="translate(0.000000, 188.000000)">
					<g id="hotel">
						<path id="Shape" class="st0" d="M29,29.9v-6.7c0-1.2-1-2.2-2.2-2.2H6.2c-1.2,0-2.2,1-2.2,2.2v6.7C2.3,30.2,1,31.7,1,33.5v4.4
							v7.4C1,45.7,1.3,46,1.7,46h2.9c0.4,0,0.7-0.3,0.7-0.7v-2.2h22.1v2.2c0,0.4,0.3,0.7,0.7,0.7h2.9c0.4,0,0.7-0.3,0.7-0.7v-7.4
							v-4.4C31.9,31.7,30.7,30.2,29,29.9z M5.4,23.2c0-0.4,0.3-0.7,0.7-0.7h20.6c0.4,0,0.7,0.3,0.7,0.7v6.6H26v-2.9
							c0-1.2-1-2.2-2.2-2.2h-4.4c-1.2,0-2.2,1-2.2,2.2v2.9h-1.5v-2.9c0-1.2-1-2.2-2.2-2.2H9.1c-1.2,0-2.2,1-2.2,2.2v2.9H5.4V23.2z
							 M24.6,26.9v2.9h-5.9v-2.9c0-0.4,0.3-0.7,0.7-0.7h4.4C24.2,26.1,24.6,26.5,24.6,26.9z M14.3,26.9v2.9H8.4v-2.9
							c0-0.4,0.3-0.7,0.7-0.7h4.4C13.9,26.1,14.3,26.5,14.3,26.9z M30.5,44.5H29v-2.2c0-0.4-0.3-0.7-0.7-0.7H4.7
							c-0.4,0-0.7,0.3-0.7,0.7v2.2H2.5v-5.9h28V44.5z M30.5,37.2h-28v-3.7c0-1.2,1-2.2,2.2-2.2h2.9H15h2.9h7.4h2.9
							c1.2,0,2.2,1,2.2,2.2V37.2z"/>
						<path class="st0" d="M45.2,29H34.7c-0.4,0-0.7,0.3-0.7,0.8v6V41h1.5v-4.5h9V41h1.5v-5.2v-6C45.9,29.3,45.6,29,45.2,29z
							 M44.4,35h-9v-4.5h9V35z"/>
						<rect id="Rectangle" x="38.9" y="33" class="st0" width="2" height="1"/>
						<path class="st0" d="M42.9,24.1l-1.4-4.6c-0.1-0.3-0.4-0.5-0.7-0.5H38c-0.3,0-0.6,0.2-0.7,0.5L36,24.1c-0.1,0.2,0,0.5,0.1,0.7
							c0.1,0.2,0.3,0.3,0.6,0.3h2.1v2.3h-1.4V29h4.2v-1.5h-1.4v-2.3h2.1c0.2,0,0.4-0.1,0.6-0.3C42.9,24.6,43,24.4,42.9,24.1z
							 M37.6,23.6l0.9-3.1h1.8l0.9,3.1H37.6z"/>
						<path id="Path" class="st0" d="M45.5,11.1l-21.7-10c-0.2-0.1-0.4-0.1-0.6,0l-21.7,10C1.2,11.2,1,11.5,1,11.8V21h1.5v-8.7
							l21-9.7l21,9.7V21h1.5v-9.2C45.9,11.5,45.7,11.2,45.5,11.1z"/>
						<path class="st0" d="M27.9,11.2l-1.4,0.2c0,0.2,0,0.4,0,0.6c0,2-1.6,3.6-3.6,3.6S19.4,14,19.4,12S21,8.4,23,8.4
							c0.4,0,0.8,0.1,1.2,0.2l0.5-1.3C24.1,7.1,23.5,7,23,7c-2.8,0-5,2.2-5,5s2.2,5,5,5s5-2.2,5-5C27.9,11.7,27.9,11.4,27.9,11.2z"
							/>
						<path class="st0" d="M28,8l-4.2,4.3l-0.9-0.9l-0.9,1l1.3,1.4c0.1,0.1,0.3,0.2,0.5,0.2c0.2,0,0.3-0.1,0.5-0.2L28.9,9L28,8z"/>
					</g>
				</g>
			</g>
		</g>
	</g>
</g>
</svg>
