<?xml version="1.0" encoding="utf-8"?>
<!-- Generator: Adobe Illustrator 23.0.1, SVG Export Plug-In . SVG Version: 6.00 Build 0)  -->
<svg version="1.1" id="Layer_1" xmlns="http://www.w3.org/2000/svg" xmlns:xlink="http://www.w3.org/1999/xlink" x="0px" y="0px"
	 viewBox="0 0 47 47" style="enable-background:new 0 0 47 47;" xml:space="preserve">
<style type="text/css">
	.st0{fill:#9E9FB4;}
</style>
<g>
	<g transform="translate(-1080.000000, -3118.000000)">
		<g id="Features-2" transform="translate(0.000000, 2754.000000)">
			<g id="text" transform="translate(1080.000000, 100.000000)">
				<g transform="translate(0.000000, 264.000000)">
					<g id="car-rental">
						<path id="Shape" class="st0" d="M37.4,39c-1.4,0-2.5,1.1-2.5,2.5S36,44,37.4,44c1.4,0,2.5-1.1,2.5-2.5S38.8,39,37.4,39z
							 M37.4,42.3c-0.5,0-0.8-0.4-0.8-0.8s0.4-0.8,0.8-0.8s0.8,0.4,0.8,0.8S37.9,42.3,37.4,42.3z"/>
						<path class="st0" d="M11.5,39C10.1,39,9,40.1,9,41.5s1.1,2.5,2.5,2.5s2.5-1.1,2.5-2.5S12.9,39,11.5,39z M11.5,42.3
							c-0.5,0-0.8-0.4-0.8-0.8s0.4-0.8,0.8-0.8c0.5,0,0.8,0.4,0.8,0.8S11.9,42.3,11.5,42.3z"/>
						<path class="st0" d="M45.4,39.4v-5.5c0-2.4-1.7-4.6-4-5.1l-2.3-0.6l-3-5.6c-1.2-2.3-3.4-3.8-5.8-4.2v-4.7H31
							c1.3,0,2.3-1,2.3-2.3V2.3C33.3,1,32.3,0,31,0H8.3C7.1,0,6.1,1,6.1,2.3v9.1c0,1.3,1,2.3,2.3,2.3h0.8v4.7
							C3.9,19.3,0,23.9,0,29.3v3.6c0,2.4,0.8,4.7,2.2,6.6H1.5c-0.8,0-1.5,0.7-1.5,1.5v1.5C0,43.3,0.7,44,1.5,44h5.1
							c0.9,1.8,2.7,3,4.8,3s3.9-1.2,4.8-3h16.2c0.9,1.8,2.7,3,4.8,3s3.9-1.2,4.8-3h3.5c0.8,0,1.5-0.7,1.5-1.5v-1.5
							C46.9,40.1,46.2,39.4,45.4,39.4z M43.7,32.6c0.1,0.4,0.2,0.8,0.2,1.3v0.2h-4.4c0.3-0.9,1.2-1.5,2.1-1.5H43.7z M28.7,18.2h-1.5
							v-4.5h1.5V18.2z M25.7,13.6v4.5H13.6v-4.5H25.7z M7.6,11.4V2.3c0-0.4,0.3-0.8,0.8-0.8H31c0.4,0,0.8,0.3,0.8,0.8v9.1
							c0,0.4-0.3,0.8-0.8,0.8H8.3C7.9,12.1,7.6,11.8,7.6,11.4z M10.6,13.6h1.5v4.5h-1c-0.2,0-0.3,0-0.5,0V13.6z M1.5,32.9v-1h0.8
							c0.4,0,0.8,0.3,0.8,0.8v1.5c0,0.4-0.3,0.8-0.8,0.8H1.7C1.6,34.2,1.5,33.6,1.5,32.9L1.5,32.9z M2.2,36.4L2.2,36.4
							c1.3,0,2.3-1,2.3-2.3v-1.5c0-1.3-1-2.3-2.3-2.3H1.5v-1c0-5.3,4.3-9.6,9.6-9.6h17.7c2.5,0,4.8,1.4,6,3.6l3.3,6.2l2.9,0.7
							c0.6,0.2,1.2,0.5,1.6,0.9h-1c-2.1,0-3.8,1.7-3.8,3.8v0.8h6.1v3.8h-2c-0.9-1.8-2.7-3-4.8-3c-0.5,0-1,0.1-1.5,0.2v-8l-2.8-5
							c-0.8-1.4-2.3-2.3-4-2.3H11.4c-4.3,0-7.9,3.2-8.4,7.5l0,0.4l3.1,3.1v7.3H4.1C3.3,38.5,2.6,37.5,2.2,36.4L2.2,36.4z M11.3,36.4
							c-1.5,0-2.8,0.6-3.8,1.6v-6.5l-2-2h17.1v9.9h-6.6C15.3,37.6,13.5,36.4,11.3,36.4z M28.8,22.7c1.1,0,2.1,0.6,2.6,1.6l2.1,3.7
							h-9.3v-5.3H28.8z M22.7,28h-18c0.7-3.1,3.5-5.3,6.7-5.3h11.3V28z M24.2,32.6h3v-1.5h-3v-1.5H34v7.8c-0.7,0.5-1.4,1.2-1.8,2.1
							h-8.1V32.6z M1.5,42.5v-1.5h4.6c0,0.2-0.1,0.5-0.1,0.8c0,0.3,0,0.5,0.1,0.8H1.5z M11.3,45.5c-2.1,0-3.8-1.7-3.8-3.8
							c0-2.1,1.7-3.8,3.8-3.8s3.8,1.7,3.8,3.8C15.1,43.8,13.4,45.5,11.3,45.5z M16.6,42.5c0-0.2,0.1-0.5,0.1-0.8
							c0-0.3,0-0.5-0.1-0.8h15.3c0,0.2-0.1,0.5-0.1,0.8c0,0.3,0,0.5,0.1,0.8H16.6z M37.1,45.5c-2.1,0-3.8-1.7-3.8-3.8
							c0-2.1,1.7-3.8,3.8-3.8s3.8,1.7,3.8,3.8C40.9,43.8,39.2,45.5,37.1,45.5z M45.4,42.5h-3.1c0-0.2,0.1-0.5,0.1-0.8
							c0-0.3,0-0.5-0.1-0.8h3.1V42.5z"/>
						<polygon id="Path" class="st0" points="9,32 13,32 13,33 9,33 						"/>
						<path class="st0" d="M11.5,3H9v8h1.7V7.8h0.8c0.5,0,0.8,0.4,0.8,0.8V11H14V8.6C14,8,13.7,7.4,13.3,7C13.7,6.6,14,6,14,5.4
							C14,4.1,12.9,3,11.5,3z M10.6,6.2V4.6h0.8c0.5,0,0.8,0.4,0.8,0.8c0,0.4-0.4,0.8-0.8,0.8H10.6z"/>
						<polygon class="st0" points="15,11 19,11 19,9.4 17,9.4 17,7.8 19,7.8 19,6.2 17,6.2 17,4.6 19,4.6 19,3 15,3 						"/>
						<polygon class="st0" points="22.3,6.9 21.3,3 19,3 19,11 20.6,11 20.6,7.1 21.6,11 24,11 24,3 22.3,3 						"/>
						<polygon class="st0" points="25.9,4.6 27.6,4.6 27.6,11 29.3,11 29.3,4.6 30.9,4.6 30.9,3 25.9,3 						"/>
					</g>
				</g>
			</g>
		</g>
	</g>
</g>
</svg>
