<?xml version="1.0" encoding="utf-8"?>
<!-- Generator: Adobe Illustrator 23.0.1, SVG Export Plug-In . SVG Version: 6.00 Build 0)  -->
<svg version="1.1" id="Layer_1" xmlns="http://www.w3.org/2000/svg" xmlns:xlink="http://www.w3.org/1999/xlink" x="0px" y="0px"
	 viewBox="0 0 47 47" style="enable-background:new 0 0 47 47;" xml:space="preserve">
<style type="text/css">
	.st0{fill:#9E9FB4;}
</style>
<g>
	<g transform="translate(-1080.000000, -3199.000000)">
		<g id="Features-2" transform="translate(0.000000, 2754.000000)">
			<g id="text" transform="translate(1080.000000, 100.000000)">
				<g transform="translate(0.000000, 341.000000)">
					<g id="health" transform="translate(0.000000, 4.000000)">
						<path id="Path" class="st0" d="M38.9,8c-0.6,0-1,0.4-1,1s0.4,1,1,1s1-0.4,1-1C39.9,8.4,39.5,8,38.9,8z"/>
						<path id="Shape" class="st0" d="M43.6,6.9C41.5,4.4,38.4,3,35.1,3c-3.6,0-6.9,1.4-9.6,4.1c-0.9,0.9-1.6,1.9-2.1,2.6
							C23,9,22.3,8.1,21.4,7.1C18.7,4.4,15.4,3,11.8,3C4.8,3,0,8.9,0,15.9c0,9.5,9.9,17.5,22.9,28.9c0.2,0.2,0.4,0.2,0.6,0.2
							c0.2,0,0.4-0.1,0.6-0.2c13-11.4,22.9-19.4,22.9-28.9C46.9,12.5,45.7,9.3,43.6,6.9z M23.5,42.8C11.2,32.1,1.8,24.4,1.8,15.9
							c0-6.3,4.3-11.1,10-11.1c3.2,0,5.9,1.2,8.2,3.5c1.8,1.8,2.6,3.6,2.6,3.6c0.1,0.3,0.5,0.5,0.8,0.5c0,0,0,0,0,0
							c0.4,0,0.7-0.2,0.8-0.5c0,0,0.8-1.8,2.6-3.6C29.2,6,32,4.9,35.1,4.9c5.7,0,10,4.8,10,11.1C45.1,24.6,35.1,32.6,23.5,42.8z"/>
						<path class="st0" d="M42.8,10.5c-0.2-0.5-0.8-0.6-1.2-0.4c-0.4,0.2-0.6,0.8-0.4,1.3c0.6,1.2,0.9,2.6,0.9,4
							c0,2.7-1.3,5.6-4,9.1c-0.3,0.4-0.3,1,0.1,1.3c0.4,0.3,1,0.3,1.3-0.1c3-3.8,4.4-7.1,4.4-10.3C43.9,13.7,43.5,12,42.8,10.5z"/>
						<path class="st0" d="M32,21.2h-5v-5.3c0-0.5-0.4-0.9-0.9-0.9h-5.4c-0.5,0-0.9,0.4-0.9,0.9v5.3h-5c-0.5,0-0.9,0.4-0.9,0.9v5.7
							c0,0.5,0.4,0.9,0.9,0.9h5v5.3c0,0.5,0.4,0.9,0.9,0.9h5.4c0.5,0,0.9-0.4,0.9-0.9v-5.3h5c0.5,0,0.9-0.4,0.9-0.9v-5.7
							C32.9,21.6,32.5,21.2,32,21.2z M31.1,26.9h-5c-0.5,0-0.9,0.4-0.9,0.9v5.3h-3.6v-5.3c0-0.5-0.4-0.9-0.9-0.9h-5v-3.8h5
							c0.5,0,0.9-0.4,0.9-0.9v-5.3h3.6v5.3c0,0.5,0.4,0.9,0.9,0.9h5V26.9z"/>
					</g>
				</g>
			</g>
		</g>
	</g>
</g>
</svg>
