<?xml version="1.0" encoding="UTF-8"?>
<svg width="480px" height="376px" viewBox="0 0 480 376" version="1.1" xmlns="http://www.w3.org/2000/svg" xmlns:xlink="http://www.w3.org/1999/xlink">
    <!-- Generator: Sketch 53 (72520) - https://sketchapp.com -->
    <title>illustration</title>
    <desc>Created with Sketch.</desc>
    <defs>
        <linearGradient x1="0.0418254486%" y1="50.0117741%" x2="100%" y2="50.0117741%" id="linearGradient-1">
            <stop stop-color="#808080" stop-opacity="0.25" offset="0%"></stop>
            <stop stop-color="#808080" stop-opacity="0.12" offset="54%"></stop>
            <stop stop-color="#808080" stop-opacity="0.1" offset="100%"></stop>
        </linearGradient>
    </defs>
    <g id="Specialty-Pages" stroke="none" stroke-width="1" fill="none" fill-rule="evenodd">
        <g id="404-Error---Illustration" transform="translate(-720.000000, -229.000000)" fill-rule="nonzero">
            <g id="Content" transform="translate(720.000000, 229.000000)">
                <g id="illustration">
                    <ellipse id="Oval" fill="#766DF4" opacity="0.1" cx="169" cy="353" rx="84" ry="16"></ellipse>
                    <path d="M278.884373,52.9188939 C248.112452,51.8547834 218.804955,41.9262526 190.819244,31.0666252 C162.833532,20.2069978 135.114079,8.17874902 105.079125,2.42590176 C85.7610913,-1.27473243 63.6663577,-1.80203718 48.1044763,8.535036 C33.1226588,18.5110717 28.2824525,35.6841046 25.6816737,51.6315102 C23.7227689,63.631256 22.5721501,76.2628174 27.935365,87.4977338 C31.6629895,95.2980436 38.2719157,101.853724 42.8458631,109.32625 C58.7595867,135.320949 47.5101484,167.377277 30.269885,192.759162 C22.1870257,204.663898 12.796645,216.036579 6.55382488,228.696643 C0.311004736,241.356707 -2.57505149,255.912218 2.88801046,268.862063 C8.29877156,281.688394 21.1980641,291.303393 35.1719014,298.072845 C63.5522467,311.825523 96.9820019,315.758932 129.603471,317.991663 C201.792914,322.922675 274.362726,320.789704 346.742354,318.647231 C373.529901,317.85865 400.431558,317.055816 426.781679,312.918137 C441.416409,310.618898 456.521847,306.970519 467.14843,298.163105 C480.632541,286.985194 483.975041,268.059229 474.936502,254.045275 C459.778764,230.530333 417.881025,224.691977 407.273461,199.462108 C401.444293,185.571666 407.430363,170.10406 415.907856,157.225473 C434.089535,129.591854 464.561915,105.350087 466.164223,73.7688085 C467.267295,52.0780566 452.618301,30.3540512 429.967277,20.0882354 C406.227444,9.32836837 373.301679,10.6822589 355.795156,28.4918579 C337.751362,46.8097596 306.057044,53.864242 278.884373,52.9188939 Z" id="Path" fill="#766DF4" opacity="0.1"></path>
                    <path d="M255,171.422284 L240.482511,161.594085 L240.482511,161.594085 L247.80524,150.647422 L209.461627,147.577597 L195.68352,158.27677 L178.436003,148.567556 L164.051223,150.304744 L163.880597,146.497209 C163.702543,142.527844 163.305384,138.571451 162.690949,134.646258 C162.752564,133.456403 162.795221,132.09045 162.790481,130.605511 C162.790481,124.346876 161.946827,116.05121 158.240436,110.520766 L159.093569,102.820027 L152.173708,94.6100298 C153.284984,92.387189 154.552073,90.2464108 155.965413,88.2038527 C156.202395,87.8611745 156.439376,87.5280152 156.695316,87.2043748 C165.676917,86.5523345 172.762665,79.1371606 172.762665,70.0704685 C172.762665,69.6516397 172.762665,69.2328109 172.715268,68.8187415 C172.715268,68.6521618 172.682091,68.4808228 172.663133,68.3142431 C173.539964,68.790185 174.426275,69.2661268 175.312586,69.7420686 C175.478473,69.9800396 175.668059,70.2180105 175.876602,70.4988162 L175.876602,70.4988162 L175.919259,70.5511698 L176.184678,70.8795696 L176.269992,70.9795174 C176.364784,71.0937435 176.464316,71.2032101 176.563849,71.3174361 L176.630204,71.3935868 C176.881404,71.6743925 177.146823,71.9599576 177.431201,72.2407633 C177.465056,72.268427 177.496746,72.2986587 177.525994,72.3311923 L177.881466,72.6643515 L177.980998,72.7547805 C178.284335,73.0260673 178.60663,73.2878354 178.928925,73.5353251 L179.033196,73.6114758 L179.440805,73.8922815 L179.573514,73.977951 C179.729922,74.0731394 179.89107,74.1730872 180.047477,74.2635161 L180.104353,74.2968321 C180.289199,74.3967799 180.478784,74.4919682 180.668369,74.5823972 L180.763162,74.6204725 C180.924309,74.6902773 181.082297,74.7569092 181.237125,74.8203681 L181.384053,74.8727217 C181.54994,74.9298347 181.711088,74.9821883 181.881715,75.0297825 L181.985986,75.058339 C182.19453,75.1106926 182.403074,75.1535274 182.616357,75.1868433 L182.640056,75.1868433 C182.840887,75.2194666 183.043466,75.2401268 183.246728,75.2487157 L183.384178,75.2487157 C183.565739,75.2582591 183.747674,75.2582591 183.929235,75.2487157 L184.047726,75.2487157 C184.275073,75.2355683 184.501413,75.2085484 184.725493,75.1678056 C185.785958,75.0277907 186.804182,74.6609984 187.711461,74.0921771 C187.942454,73.9370639 188.147263,73.7458602 188.318133,73.5258063 C189.266059,72.2788387 188.223341,70.9128856 188.223341,70.9128856 L188.223341,70.9128856 C187.853649,70.0276337 185.455396,69.4041499 185.455396,69.4041499 C185.455396,69.4041499 177.871987,66.2248584 177.871987,63.6928478 C177.871987,61.1608372 175.976135,48.0248424 156.406199,45.0216494 C156.406199,45.0216494 143.67555,44.3029772 140.097129,51.1470209 L140.021295,51.9466032 C138.969097,52.6081624 138.097005,53.9360401 137.059025,54.3263124 C136.61058,54.4230321 136.178107,54.5832828 135.774585,54.8022543 L135.774585,54.7118253 L135.774585,54.7118253 C135.65476,54.8170643 135.55655,54.9447852 135.485468,55.0878194 C135.262507,55.5333066 135.128848,56.0184295 135.092079,56.5156449 C134.9853,57.1230251 134.775274,57.7074355 134.471187,58.2433138 C134.386407,58.3955852 134.291395,58.5418794 134.186809,58.6811803 L134.186809,58.6811803 L134.106235,58.8096846 C134.656497,58.8527457 135.209032,58.7629917 135.71771,58.5479165 C135.637552,59.1995262 135.478384,59.8388553 135.243747,60.4516839 C135.859048,60.4716577 136.42944,60.1294816 136.703553,59.5759509 L136.703553,59.5378756 L136.765168,59.452206 C136.884355,59.231881 136.982736,59.0008342 137.059025,58.7620904 L137.006889,58.8192034 C137.101682,58.5098412 137.186995,58.1957196 137.291267,57.8911168 C137.33904,57.7195408 137.417757,57.5582227 137.523509,57.415175 C137.780055,57.1554698 138.144201,57.033581 138.504613,57.0867751 L138.310288,61.2131909 L138.395601,61.2131909 C138.28144,61.5133505 138.141901,61.8031464 137.978514,62.079405 C137.305486,63.1740712 136.082661,63.9212999 135.632397,65.1206734 C135.438257,65.6991438 135.36406,66.3113907 135.414374,66.9197335 C135.414374,67.2766899 135.45703,67.6384057 135.485468,67.9953621 L135.485468,67.9668056 C135.551823,68.9186893 135.570781,69.8229788 135.058901,70.5892451 C134.708169,71.1127811 134.144152,71.5078129 133.949828,72.1027402 C133.896073,72.2685156 133.872002,72.4425461 133.878733,72.6167574 C133.91676,73.138323 134.025183,73.6522819 134.201028,74.1445307 C134.203083,74.1351237 134.203083,74.1253811 134.201028,74.1159742 C134.319238,74.4780754 134.346909,74.863821 134.281602,75.2391969 C134.068318,76.1910806 132.916588,76.9859035 132.973464,77.8949524 C132.970212,78.0145088 132.987858,78.1337121 133.0256,78.2471493 C133.247196,78.6911686 133.630916,79.0321612 134.096756,79.199033 C134.8275,79.6163076 135.666755,79.8021126 136.504489,79.7320879 C136.818474,79.6751223 137.12208,79.5708233 137.405018,79.4227257 C137.073244,80.1889921 136.731991,80.9457396 136.385998,81.6644118 C136.333862,81.7786378 136.276986,81.8928638 136.220111,82.0070899 C136.220111,82.0070899 133.291019,80.0414501 131.627408,84.0488804 C131.141763,84.881666 130.794385,85.7882976 130.598909,86.7331924 C130.515563,87.111167 130.398169,87.4807498 130.248176,87.8373774 C129.509616,89.0929352 128.404257,90.0899178 127.082102,90.6930285 C123.688527,92.2541177 109.981514,109.42134 109.739793,113.866637 C109.621167,115.601894 109.328998,117.320766 108.867701,118.99729 C107.788695,122.945421 107.511459,127.071144 108.052485,131.129047 C108.221846,132.440492 108.502505,133.735004 108.891399,134.998454 C110.346466,139.438992 111.31809,147.725139 111.31809,147.725139 L112.891648,162.108102 C112.833233,164.093217 112.918772,166.07997 113.147588,168.052615 C111.540853,169.89451 105.090215,177.571452 107.554823,179.660837 C109.450676,181.307596 112.768417,181.036309 114.631092,180.69839 C113.062274,184.596354 110.592927,191.373766 110.265892,196.028477 C109.791929,202.915355 111.076369,212.03916 113.109671,215.542092 C115.142972,219.045024 121.920644,228.030806 121.920644,228.030806 C121.920644,228.030806 121.603089,240.3577 124.025041,244.836313 C126.446992,249.314925 127.423356,258.60531 127.423356,258.60531 C127.423356,258.60531 129.68416,266.448832 128.551388,269.333039 C127.418616,272.217247 130.651045,274.615994 127.257469,276.534039 C123.863893,278.452085 119.522391,321.681882 119.522391,321.681882 C119.522391,321.681882 117.773467,350.0147 119.522391,351.456804 C119.615978,351.525123 119.715985,351.584102 119.820988,351.632902 L119.820988,361.151739 C119.820988,361.151739 118.607642,363.150695 123.541598,363.555245 C126.920955,363.826532 136.499749,364.440497 142.182566,364.797454 L146.585683,365.0735 C146.585683,365.0735 157.012871,367.158125 161.619793,365.0735 C166.226714,362.988875 174.393098,363.036469 173.179752,357.529822 C173.018863,356.780439 172.803421,356.043924 172.535162,355.326211 C171.203326,351.908949 168.942522,351.518676 164.776387,350.566793 C164.534666,350.514439 164.302424,350.466845 164.08914,350.428769 C159.700242,349.662503 158.259394,351.713812 155.799526,349.043779 C153.661952,346.735461 146.855842,344.151097 144.538163,343.332477 C144.595039,343.161138 144.666133,342.994558 144.723009,342.818459 C144.066712,342.706651 143.456302,342.407606 142.964606,341.957005 L149.244616,342.356796 L152.984185,342.590007 C152.984185,342.590007 161.847295,344.36527 165.781189,342.590007 C169.715082,340.814744 176.634943,340.862338 175.601704,336.18383 C175.465602,335.546299 175.283434,334.91957 175.056646,334.308619 C173.923874,331.405374 171.999584,331.086493 168.45908,330.282151 C168.255276,330.239317 168.065691,330.196482 167.876105,330.163166 C164.146016,329.511126 162.923191,331.253073 160.833014,328.987589 C159.041433,327.055266 153.387054,324.88973 151.353752,324.15202 C151.353752,323.095429 149.931863,321.591453 149.036073,320.082718 C147.983875,318.321733 149.927123,312.158286 149.927123,312.158286 L151.036197,286.585931 C151.458548,286.397024 151.905309,286.268845 152.363294,286.205177 C152.363294,286.205177 157.377823,281.398165 156.245051,276.277031 C156.014246,274.728124 155.89387,273.164646 155.884839,271.598522 C157.534231,270.06123 159.804514,267.790988 160.449104,266.391719 C161.501302,264.111957 160.449104,253.065347 160.449104,253.065347 L160.449104,210.825509 L168.83825,211.677444 L176.450098,212.462749 L178.767777,212.700719 L186.379624,213.471745 L203.873602,215.247008 L219.637614,212.248575 L226.457943,210.954013 L240.482511,208.288739 L240.482511,173.830549 L255,171.422284 Z M139.537852,57.2390765 L138.561488,57.1343693 C138.883783,57.1486475 139.225037,57.21052 139.537852,57.2390765 Z" id="Shape" fill="url(#linearGradient-1)"></path>
                    <path d="M220.584873,194.920158 C215.738964,201.603224 198.31792,198.063207 198.31792,198.063207 L184.817216,185.887979 L183,184.239396 L186.048077,178 C186.048077,178 187.017259,178.256861 188.679406,178.714542 C197.406889,181.15706 224.674821,189.3019 220.584873,194.920158 Z" id="Path" fill="#EFB7B9"></path>
                    <path d="M189,178.724689 C188.474359,180.751924 187.034188,183.78804 185.602564,186 L184,184.328005 L186.688034,178 C186.688034,178 187.551282,178.260509 189,178.724689 Z" id="Path" fill="#000000" opacity="0.1"></path>
                    <path d="M143.772493,106.200869 C143.772493,106.200869 131.415292,111.646134 132.021604,125.01787 C132.457866,133.632576 133.402641,142.21442 134.851056,150.71914 C134.851056,150.71914 132.324759,170.841284 142.843778,176.028389 C153.362797,181.215494 163.09746,185.479916 163.09746,185.479916 C163.09746,185.479916 179.554479,187.239229 181.599577,187.965902 C183.644674,188.692575 190.035002,177.58213 188.856063,175.851502 C187.677125,174.120873 172.572276,170.49229 170.647479,167.604721 C168.722681,164.717153 164.271587,162.933936 164.271587,162.933936 C164.271587,162.933936 159.676133,160.170667 159.363353,157.67512 C159.050573,155.179572 160.263196,153.319864 160.571163,152.225074 C160.879131,151.130284 161.658674,140.560063 161.658674,140.560063 C161.658674,140.560063 166.846003,102.935622 143.772493,106.200869 Z" id="Path" fill="#DCE6F2"></path>
                    <path d="M153,150 C153,150 135.413845,152.589139 137.116053,158 C137.116053,158 143.500581,152.159078 153,150 Z" id="Path" fill="#000000" opacity="0.1"></path>
                    <path d="M152,152 C152,152 143.563359,159.597591 145.214101,159.986842 C146.864843,160.376092 152,152 152,152 Z" id="Path" fill="#000000" opacity="0.1"></path>
                    <path d="M156.933231,155 C156.933231,155 155.338255,160.344399 156.318597,159.982408 C157.298938,159.620416 156.933231,155 156.933231,155 Z" id="Path" fill="#000000" opacity="0.1"></path>
                    <path d="M190.20246,178.459002 L189.182555,178.170499 C189.473275,177.224587 189.554296,176.458399 189.316,176.103682 C188.148352,174.391582 173.19769,170.806576 171.296092,167.945193 C169.394494,165.08381 164.981261,163.324414 164.981261,163.324414 C164.981261,163.324414 160.429816,160.59073 160.120032,158.1219 C159.810247,155.65307 161.011257,153.813272 161.316275,152.730203 C161.621294,151.647134 162.393371,141.185351 162.393371,141.185351 C162.393371,141.185351 167.516725,103.968454 144.664183,107.198742 C144.664183,107.198742 132.425325,112.590439 133.021064,125.819015 C133.453313,134.341695 134.39064,142.831743 135.828185,151.245122 C135.828185,151.245122 133.326082,171.151834 143.744363,176.283405 C154.162643,181.414976 163.804081,185.633742 163.804081,185.633742 C163.804081,185.633742 180.098729,187.36949 182.129007,188.093113 C182.896319,188.367427 184.283199,186.953289 185.641483,185.009441 L186.413561,185.723604 L199.691388,198.048834 C199.691388,198.048834 216.824837,201.638569 221.590747,194.87057 C225.617942,189.176182 198.804928,180.927832 190.20246,178.459002 Z" id="Path" fill="#000000" opacity="0.1"></path>
                    <path d="M136.649771,56.4813744 C136.218869,56.5639402 135.806156,56.7202061 135.430524,56.9430196 C134.990363,57.3011183 134.990363,57.913769 134.880322,58.4487598 C134.751057,59.1929708 134.449947,59.8983712 134,60.511063 C134.500867,60.5470803 135.003287,60.4657414 135.465737,60.2737687 C135.390397,60.8642926 135.242607,61.4437429 135.025576,61.9995454 C135.585762,62.0135127 136.102377,61.7046187 136.346059,61.2100026 C136.578959,60.7238285 136.763222,60.2166663 136.896261,59.6956335 C136.937605,59.5397959 137.009352,59.393283 137.107538,59.2641893 C137.512487,58.7939152 138.265162,59.0053228 138.890191,59.065725 C139.949456,59.1532704 140.973878,58.6710215 141.566372,57.805908 C142.231015,56.8179008 142.27063,54.2896379 140.686049,54.0221425 C139.031043,53.7546471 138.001066,55.989528 136.649771,56.4813744 Z" id="Path" fill="#965D7B"></path>
                    <g id="Group" opacity="0.1" transform="translate(134.000000, 57.000000)" fill="#000000">
                        <path d="M1.54894737,0.7125 C1.59157895,0.508333333 1.62,0.295833333 1.67210526,0.0916666667 L1.67210526,0.0916666667 C1.22210526,0.4375 1.19842105,1.025 1.08,1.54583333 C1.02033544,1.84633967 0.92671328,2.1408557 0.800526316,2.425 C1.17349815,1.90208772 1.42766253,1.32052136 1.54894737,0.7125 L1.54894737,0.7125 Z" id="Path"></path>
                        <path d="M1.70052632,4.15416667 C1.93640711,3.6180462 2.09552449,3.05818876 2.17421053,2.4875 C1.69992938,2.66310045 1.18644068,2.74146762 0.672631579,2.71666667 C0.523068906,3.00971476 0.340582992,3.28888001 0.127894737,3.55 C0.665010825,3.58655862 1.20426833,3.50940582 1.70052632,3.325 C1.62184028,3.89568876 1.4627229,4.4555462 1.22684211,4.99166667 C1.82937018,5.00409575 2.3847296,4.70610429 2.64789474,4.22916667 C2.76590644,4.03978002 2.86115781,3.84009024 2.93210526,3.63333333 C2.64964723,3.98057216 2.18523498,4.17697158 1.70052632,4.15416667 L1.70052632,4.15416667 Z" id="Path"></path>
                        <path d="M5.85947368,1.32083333 C5.18684211,1.2625 4.37210526,1.05833333 3.93631579,1.5125 C3.83257459,1.63818809 3.75554424,1.77935097 3.70894737,1.92916667 C3.66631579,2.0375 3.62842105,2.15 3.59526316,2.2625 C4.04526316,1.95 4.77473684,2.11666667 5.38578947,2.17083333 C6.52516031,2.25267349 7.62612473,1.78756699 8.26578947,0.954166667 C8.40936369,0.751842794 8.51642372,0.531168345 8.58315789,0.3 C7.92442804,1.01715306 6.90378495,1.39968877 5.85947368,1.32083333 Z" id="Path"></path>
                    </g>
                    <polygon id="Path" fill="#DCE6F2" points="151.278648 96 158 104.95848 157.122919 114 149 99.9077341"></polygon>
                    <polygon id="Path" fill="#000000" opacity="0.1" points="158 104.95848 157.175404 113.462687 157.122489 114 149.789319 101.280326 149 99.9077341 149.229299 99.512076 151.275355 96 151.729544 96.6056988"></polygon>
                    <path d="M162.718641,83.8056156 C160.20943,84.5088553 157.812063,86.9226782 155.725916,89.8544276 C154.315894,91.8772423 153.054866,93.9954714 151.952374,96.1930886 C151.266717,97.5330454 150.663728,98.8207343 150.162859,99.9421166 L149.812736,100.740389 C148.966607,102.693305 148.494914,104 148.494914,104 C148.494914,104 129.286803,89.887689 132.326061,88.937365 C133.347252,88.6190065 134.689388,86.4807775 136.016936,83.7866091 L136.182272,83.4444924 C137.023539,81.7149028 137.850217,79.7857451 138.584501,77.9706263 C140.087111,74.2406048 141.200695,71 141.200695,71 C141.200695,71 170.377571,81.6673866 162.718641,83.8056156 Z" id="Path" fill="#EFB7B9"></path>
                    <path d="M174,71 C174,71 178.312492,78.9870868 184.10504,77.8979386 C189.897587,76.8087904 187.514368,73.609115 187.514368,73.609115 L174,71 Z" id="Path" fill="#444053"></path>
                    <path d="M165.193601,341.232134 C161.322579,342.959832 152.56966,341.232134 152.56966,341.232134 L148.880691,341.007393 C144.089822,340.707738 136.069907,340.20207 133.233712,339.977329 C129.094401,339.644899 130.110065,337.987432 130.110065,337.987432 L130.110065,327.9724 L150.193389,323 C150.193389,323 158.13186,325.654756 160.306914,327.9724 C162.371779,330.182356 163.579078,328.48275 167.263257,329.119517 C167.44531,329.152292 167.636944,329.189749 167.838161,329.23657 C171.335496,330.018482 173.23268,330.327501 174.353743,333.160177 C174.57902,333.755297 174.759948,334.365564 174.895111,334.9862 C175.929939,339.546575 169.059833,339.5138 165.193601,341.232134 Z" id="Path" fill="#A36468"></path>
                    <path d="M175,334.418669 C174.286093,334.899243 173.535654,335.313751 172.756745,335.657739 C170.142782,336.942891 167.657141,338.509649 165.014662,339.723119 C162.372183,340.936589 159.52534,341.801891 156.664239,341.571485 C155.167151,341.453722 153.636795,341.059472 152.206244,341.520284 C151.321538,341.888291 150.488278,342.38624 149.730108,343 C144.977448,342.672312 137.021496,342.119338 134.207922,341.873572 C130.101624,341.510043 131.109187,339.697519 131.109187,339.697519 L131.109187,338.417487 C131.25652,338.417487 131.422863,338.371406 131.612969,338.356046 C132.596517,338.339111 133.575956,338.496521 134.512092,338.821977 C136.574746,339.426152 138.627895,340.020087 140.690549,340.614021 C141.033412,339.22019 141.892531,338.039195 143.066879,337.347381 C144.244178,336.674095 145.565528,336.347358 146.897523,336.400158 C150.096063,336.446239 153.123507,338.079559 156.317295,338.243403 C157.2102,338.331849 158.109143,338.169559 158.926505,337.772351 C159.363749,337.536826 159.748715,337.193777 160.176454,336.932651 C160.861004,336.5759 161.584262,336.312734 162.329409,336.149271 C164.4238,335.587616 166.480147,334.872549 168.484104,334.009059 C169.054423,333.768413 169.719795,333.333202 169.643752,332.677826 C169.543947,331.807404 168.274986,331.705002 167.9423,330.906262 C167.823301,330.614276 167.837357,330.279231 167.980322,330 C168.160923,330.035841 168.351029,330.076802 168.550641,330.128003 C172.005824,330.983064 173.887878,331.320993 175,334.418669 Z" id="Path" fill="#000000" opacity="0.1"></path>
                    <path d="M161.444313,364.071075 C156.888495,366.161157 146.577961,364.071075 146.577961,364.071075 L142.237946,363.815834 C136.617506,363.454645 127.150997,362.852663 123.808465,362.568527 C118.931343,362.163995 120.130242,360.160598 120.130242,360.160598 L120.130242,348.019822 L143.786923,342 C143.786923,342 153.138338,345.212177 155.699187,348.019822 C158.130555,350.692623 159.535665,348.636252 163.894863,349.406789 C164.110665,349.445316 164.336058,349.493474 164.571042,349.546449 C168.69046,350.50962 170.925208,350.870809 172.243998,354.2997 C172.510999,355.019588 172.724194,355.758461 172.881812,356.510178 C174.07112,362.029151 166.00013,361.985808 161.444313,364.071075 Z" id="Path" fill="#A36468"></path>
                    <path d="M171,355.077 C170.172643,355.631207 169.303372,356.109955 168.401342,356.508202 C165.371915,357.989622 162.487638,359.797456 159.425435,361.198527 C156.363232,362.599598 153.062233,363.593907 149.742506,363.332775 C148.010067,363.197188 146.235488,362.730164 144.592012,363.272514 C143.562231,363.702641 142.593115,364.284019 141.712417,365 C136.2248,364.623368 126.982004,363.995648 123.718463,363.699364 C118.956597,363.277536 120.127164,361.188483 120.127164,361.188483 L120.127164,359.712086 C120.321035,359.678132 120.516377,359.654667 120.712448,359.641781 C121.853116,359.619436 122.989287,359.801031 124.074316,360.179109 L131.233503,362.248075 C131.636555,360.635189 132.640714,359.271274 134.010087,358.476733 C135.374803,357.696475 136.908167,357.318699 138.453559,357.381989 C142.161915,357.437228 145.668933,359.320388 149.372607,359.511215 C150.404056,359.612126 151.44238,359.4271 152.387987,358.973887 C152.898354,358.69769 153.32444,358.300971 153.83949,358.004687 C154.631379,357.58878 155.470277,357.284933 156.335138,357.10077 C158.749801,356.447266 161.121163,355.621868 163.433456,354.630064 C164.093656,354.348845 164.86623,353.846669 164.777267,353.093405 C164.66021,352.089053 163.189978,351.96853 162.80135,351.044526 C162.66866,350.706713 162.685878,350.322603 162.848172,350 C163.058874,350.040174 163.278941,350.090392 163.508372,350.145631 C167.53044,351.109809 169.712376,351.501507 171,355.077 Z" id="Path" fill="#000000" opacity="0.1"></path>
                    <path d="M150.862706,282 L149.570261,311.805715 C149.570261,311.805715 147.634014,317.892096 148.684428,319.633095 C149.734842,321.374094 151.506508,323.110349 150.862706,324.139768 C150.218904,325.169187 142.473915,336.298299 139.971315,332.028819 C137.468715,327.759338 135,309.258258 135,309.258258 L137.308975,286.407052 L150.862706,282 Z" id="Path" fill="#444053"></path>
                    <path d="M155.697425,207 L159.505084,211.737482 L159.505084,252.942113 C159.505084,252.942113 160.618645,263.926194 159.505084,266.194645 C158.391523,268.463097 152.746745,273 152.746745,273 L148,250.315485 L149.026323,226.317656 L155.697425,207 Z" id="Path" fill="#444053"></path>
                    <path d="M150.862706,282 L149.570261,311.805715 C149.570261,311.805715 147.634014,317.892096 148.684428,319.633095 C149.734842,321.374094 151.506508,323.110349 150.862706,324.139768 C150.218904,325.169187 142.473915,336.298299 139.971315,332.028819 C137.468715,327.759338 135,309.258258 135,309.258258 L137.308975,286.407052 L150.862706,282 Z" id="Path" fill="#37384E" opacity="0.1"></path>
                    <path d="M155.697425,207 L159.505084,211.737482 L159.505084,252.942113 C159.505084,252.942113 160.618645,263.926194 159.505084,266.194645 C158.391523,268.463097 152.746745,273 152.746745,273 L148,250.315485 L149.026323,226.317656 L155.697425,207 Z" id="Path" fill="#37384E" opacity="0.1"></path>
                    <path d="M160,190.380477 L160,212.510763 L156.058221,229.73796 C156.058221,229.73796 154.794769,271.309893 155.897332,276.364722 C156.999894,281.41955 152.11171,286.166158 152.11171,286.166158 C152.11171,286.166158 149.272493,286.483863 149.272493,288.693572 C149.272493,290.903281 144.540465,297.22893 144.540465,297.22893 L144.696622,309.55778 C144.696622,309.55778 146.750322,332.636438 143.59406,337.060599 C140.437797,341.484759 144.696622,342.120169 144.696622,342.120169 C140.754843,355.079687 121.826732,352.078087 120.11847,350.655527 C118.410208,349.232967 120.11847,321.255962 120.11847,321.255962 C120.11847,321.255962 124.348903,278.579173 127.661322,276.682427 C130.973742,274.785681 127.822211,272.414748 128.924774,269.569629 C130.027336,266.72451 127.822211,258.981043 127.822211,258.981043 C127.822211,258.981043 126.875806,249.810276 124.509792,245.386115 C122.143778,240.961955 122.456092,228.789587 122.456092,228.789587 C122.456092,228.789587 115.831253,219.936524 113.86273,216.460737 C111.894206,212.984949 110.626023,203.975405 111.099225,197.17557 C111.421003,192.580702 113.829605,185.88993 115.35805,182.039536 C116.091515,180.19495 116.621502,179 116.621502,179 L117.071044,179.118547 L142.91738,185.899414 L160,190.380477 Z" id="Path" fill="#4A4B65"></path>
                    <path d="M162.739999,83.9152172 C160.272264,84.6226384 157.914524,87.050814 155.86286,89.9999957 L155.327228,89.9999957 C149.205991,90.0043219 143.550306,86.7348974 140.501684,81.4296832 C139.875776,80.3497087 139.372113,79.2034455 139,78.0120739 C140.477772,74.2598735 141.572949,71 141.572949,71 C141.572949,71 170.272332,81.7642743 162.739999,83.9152172 Z" id="Path" fill="#000000" opacity="0.1"></path>
                    <path d="M171.999978,71.9922439 C172.011526,79.1138724 167.572303,85.4859525 160.88255,87.9502472 C154.192797,90.4145418 146.674225,88.4473377 142.053314,83.0236534 C137.432404,77.5999691 136.691193,69.8724494 140.197054,63.671137 C140.712397,62.7516759 141.314275,61.8833455 141.994528,61.0779153 C143.115892,59.7435806 144.433889,58.5873198 145.90332,57.6487834 C150.952282,54.4441723 157.316029,54.1259669 162.660195,56.8108921 C168.004361,59.4958173 171.542295,64.7886572 171.976201,70.7478775 C171.985712,71.1658326 171.999978,71.5790383 171.999978,71.9922439 Z" id="Path" fill="#EFB7B9"></path>
                    <path d="M158,112.48911 L157.9438,113 L150.155378,100.924407 C149.340474,102.83328 148.886188,104.110506 148.886188,104.110506 C148.886188,104.110506 130.386931,90.297886 133.314028,89.3689942 C134.297533,89.0578155 135.59014,86.9678091 136.868696,84.334401 L137.02793,84 C138.386103,88.0128123 146.277559,96.0337924 149.560592,99.2477578 C149.939944,99.6193145 150.253729,99.9258488 150.497263,100.148783 L150.998382,100.613229 L151.26065,100.873318 C152.454906,102.094811 157.494198,107.482383 158,112.48911 Z" id="Path" fill="#000000" opacity="0.1"></path>
                    <path d="M163,154.210498 L162.134682,182.043558 L161.982538,187 C161.982538,187 151.731847,186.04958 142.165804,185.004117 C134.463523,184.162995 127.203409,183.255344 126.086103,182.723108 C124.659754,182.053062 121.602614,181.535083 119.192085,181.207188 C117.328324,180.955327 115.863939,180.822268 115.863939,180.822268 C115.863939,180.822268 115.317172,180.983839 114.475627,181.135907 C112.640392,181.468554 109.416844,181.739423 107.538819,180.109453 C105.137799,178.02328 111.447014,170.443678 113.020751,168.623623 L113.367829,168.229198 L112.773518,162.740521 L111.228307,148.507976 C111.228307,148.507976 110.277408,140.310601 108.851059,135.914907 C108.469727,134.665151 108.194576,133.385465 108.028532,132.089465 C107.498573,128.074751 107.770056,123.994862 108.827287,120.085656 C109.278987,118.42457 109.565645,116.722999 109.683096,115.00566 C109.920821,110.609966 123.352268,93.6212022 126.680415,92.0767691 C128.177565,91.3789549 129.382282,90.1782077 130.084633,88.6837685 C130.316505,88.2138788 130.490521,87.7176233 130.602873,87.2058649 C132.029221,81.0281328 135.637883,83.4802172 135.637883,83.4802172 C136.507955,88.3131046 149.977439,101.105762 149.977439,101.105762 L150.243691,101.37188 C151.579704,102.740485 157.532331,109.165327 157.109181,114.649252 C157.024626,116.690325 157.329588,118.728828 158.007781,120.655909 C160.747569,129.278466 162.322559,138.22822 162.690958,147.267678 L163,154.210498 Z" id="Path" fill="#DCE6F2"></path>
                    <path d="M143.902315,122 C143.902315,122 140.75616,130.683462 138.396544,132.088139 C136.036928,133.492817 145.025941,135.050732 143.902315,122 Z" id="Path" fill="#000000" opacity="0.1"></path>
                    <path d="M146,137 C146,137 139,138.057617 139,139.644043 C139,141.230469 146,137 146,137 Z" id="Path" fill="#000000" opacity="0.1"></path>
                    <path d="M155,146 C155,146 143.57689,169.27972 140.383332,169.985166 C137.189774,170.690612 155,146 155,146 Z" id="Path" fill="#000000" opacity="0.1"></path>
                    <path d="M151,102.088518 L141.937795,106 L131,89.5961038 C131.229826,89.1334615 131.402306,88.6448601 131.513666,88.1409949 C132.927427,82.0585462 136.504241,84.4728105 136.504241,84.4728105 C137.366635,89.2311569 150.717248,101.826504 150.717248,101.826504 L151,102.088518 Z" id="Path" fill="#000000" opacity="0.1"></path>
                    <path d="M151,101.088518 L141.937795,105 L131,88.5961038 C131.229826,88.1334615 131.402306,87.6448601 131.513666,87.1409949 C132.927427,81.0585462 136.504241,83.4728105 136.504241,83.4728105 C137.366635,88.2311569 150.717248,100.826504 150.717248,100.826504 L151,101.088518 Z" id="Path" fill="#DCE6F2"></path>
                    <path d="M162.848445,187.412017 C162.848445,187.412017 152.637455,186.465104 143.10846,185.423499 L160.205712,189.897663 L160.205712,195.105685 C159.457412,195.782728 158.808568,196.133086 158.387057,195.953173 C156.416848,195.124624 140.337853,192.520613 140.337853,192.520613 C140.337853,192.520613 130.998302,187.786047 120.919922,182.104569 C120.67529,181.969089 120.438142,181.820524 120.20951,181.65952 C119.034369,180.861905 118.021784,179.848037 117.225779,178.672009 C115.364499,175.978041 114.455171,172.517074 114.062077,169.122391 C113.841085,167.176901 113.758786,165.218162 113.815801,163.260999 C113.864619,161.041767 114.067177,158.828583 114.422019,156.637342 C113.447325,148.150349 112.972898,139.613385 113.001195,131.070689 C113.119597,117.813906 125.551809,113.07934 125.551809,113.07934 C148.403399,111.06715 141.318222,147.99676 141.318222,147.99676 C141.318222,147.99676 139.996855,158.412804 139.636913,159.478081 C139.276971,160.543358 137.984021,162.31882 138.159256,164.804467 C138.334491,167.290114 142.701158,170.263421 142.701158,170.263421 C142.701158,170.263421 146.96363,172.261407 148.720716,175.220511 C149.999458,177.403145 158.306544,180.362249 163,182.473865 L162.848445,187.412017 Z" id="Path" fill="#000000" opacity="0.1"></path>
                    <path d="M170.999657,61.6065646 C171.008596,62.3841829 170.842933,63.1543303 170.514232,63.8632502 C170.265379,64.4417372 169.976706,65.0032478 169.650176,65.5439617 C169.13928,66.5385957 168.414119,67.4145486 167.524016,68.1122399 C166.402685,68.8912213 164.985245,69.1083919 163.640619,69.4247056 C162.295992,69.7410192 160.897969,70.2461769 160.130998,71.3603564 C159.715332,72.0766034 159.437335,72.8605195 159.31063,73.6736952 C159.182038,74.4861707 158.848486,75.2550066 158.339781,75.9114964 C157.794961,76.5707606 156.860657,76.7882218 156.067994,76.4402596 C155.66202,76.1740754 155.354165,75.788646 155.189375,75.3402434 C154.635991,74.1269208 154.495218,72.7814074 154.271922,71.4736628 C154.048627,70.1659182 153.733101,68.8204048 152.907879,67.7675996 C152.082657,66.7147944 150.621529,66.0207927 149.325445,66.4315284 C148.448892,66.7597243 147.747732,67.4211942 147.383746,68.263315 C147.025039,69.0976715 146.778669,69.9736038 146.650755,70.869362 C146.048828,74.073415 145.33849,77.2585835 144.519741,80.4248677 C144.494762,80.5546615 144.440006,80.6773052 144.359551,80.7836712 C144.230499,80.9087718 144.056322,80.9799195 143.874126,80.9819574 C142.786775,81.1235904 141.743112,80.3823778 140.646052,80.4626364 C140.533007,80.4699593 140.420891,80.4873427 140.311109,80.5145685 C136.677718,74.3731542 137.37779,66.6780098 142.063492,61.2524821 L142.150868,61.2288766 C142.880641,60.9769206 143.54382,60.5705777 144.092567,60.0391595 C144.793305,59.3571679 145.442241,58.626627 146.034266,57.8532904 L146.422605,57.3811804 C147.538383,56.0738739 148.809327,54.899595 150.208918,53.8828456 C150.590962,53.5784384 151.029204,53.3477021 151.500147,53.2030073 C151.903177,53.1266448 152.31622,53.113892 152.723418,53.1652385 C154.399825,53.3609643 156.089922,53.4225453 157.776688,53.3493614 C158.95202,53.1696733 160.13663,53.0530431 161.325143,53 C164.397881,53.0849798 167.019174,55.1953113 168.960873,57.5086501 C170.004536,58.6936461 170.936551,60.0580439 170.999657,61.6065646 Z" id="Path" fill="#000000" opacity="0.1"></path>
                    <path d="M137.935747,64.71031 C137.270804,65.7856022 136.070081,66.5166123 135.620407,67.6956608 C134.960248,69.4076393 136.074864,71.539359 135.05114,73.0674059 C134.711492,73.5814711 134.151792,73.9634828 133.960442,74.553007 C133.635146,75.548124 134.524926,76.6092677 134.295305,77.6326818 C134.065685,78.6560959 132.697529,79.5191594 133.061095,80.5189926 C133.275945,80.9550386 133.652815,81.2928088 134.113522,81.4622314 C134.838383,81.8721736 135.672684,82.0547725 136.505403,81.9857289 C137.811369,81.7735002 138.782473,80.5095602 140.107575,80.4152363 C141.183921,80.3397772 142.212429,81.0755035 143.283992,80.9387339 C143.463582,80.9325734 143.634291,80.8602052 143.762368,80.7359375 C143.843661,80.6308308 143.897836,80.5078264 143.920232,80.3775068 C144.723904,77.2176567 145.425522,74.0357978 146.025087,70.8319299 C146.147254,69.9368451 146.388519,69.0615321 146.742651,68.2285908 C147.104127,67.3892175 147.794144,66.7293542 148.656155,66.3987074 C149.933419,65.9931147 151.368547,66.6816791 152.18657,67.7333904 C153.004593,68.7851017 153.315538,70.129217 153.535591,71.4356027 C153.755644,72.7419885 153.894373,74.0861038 154.434938,75.2981657 C154.599191,75.7476967 154.904073,76.134151 155.305582,76.4017551 C156.023147,76.812064 156.989466,76.4866466 157.539599,75.8735414 C158.043579,75.2174733 158.372539,74.4472276 158.496351,73.6333492 C158.621153,72.8224915 158.895134,72.0409266 159.304806,71.3271303 C160.060641,70.2141085 161.443147,69.7094757 162.763465,69.3934907 C164.083783,69.0775057 165.475858,68.8558446 166.590474,68.0776725 C167.466479,67.3814421 168.180954,66.5082001 168.685761,65.5167791 C169.393758,64.3000011 170.053917,62.9794667 169.996512,61.5787571 C169.934323,60.0507102 169.015841,58.6877301 168.03517,57.4992492 C166.121665,55.1883141 163.533651,53.0801753 160.50553,53 C159.33393,53.0482986 158.166251,53.1648346 157.008601,53.3489984 C155.346203,53.4226993 153.680466,53.359598 152.028706,53.1603506 C151.62706,53.112986 151.220394,53.1273046 150.823199,53.2027963 C150.358553,53.3426945 149.927363,53.5736922 149.555502,53.8819283 C148.174886,54.895931 146.920799,56.0674001 145.819385,57.3719119 C145.109217,58.3002479 144.339026,59.182437 143.513612,60.0129806 C142.972613,60.5446904 142.319235,60.952115 141.600108,61.2061777 C141.121732,61.3382312 140.643356,61.2439073 140.188899,61.3901093 C138.777689,61.8287154 138.591122,63.6444501 137.935747,64.71031 Z" id="Path" fill="#965D7B"></path>
                    <path d="M184.106993,77.8970586 C180.323374,78.6090442 177.187699,75.4753386 175.451964,73.1892349 C174.918867,72.4949451 174.433702,71.7634254 174,71 L186.987274,73.5089019 L187.512251,73.6106142 C187.512251,73.6106142 189.900661,76.812128 184.106993,77.8970586 Z" id="Path" fill="#37384E" opacity="0.1"></path>
                    <g id="Group" opacity="0.1" transform="translate(133.000000, 60.000000)" fill="#000000">
                        <path d="M1.67873418,15.8495652 C1.73256462,15.2240865 1.63697113,14.5948123 1.39974684,14.0130435 C1.39974684,14.0608696 1.3564557,14.1086957 1.34202532,14.1565217 C1.13518987,14.7973913 1.41417722,15.4621739 1.5921519,16.1269565 C1.63037515,16.0376427 1.6593845,15.9447029 1.67873418,15.8495652 L1.67873418,15.8495652 Z" id="Path"></path>
                        <path d="M2.8235443,8.02043478 C2.77405751,8.68177356 2.78694071,9.34626625 2.86202532,10.0052174 C2.91134349,9.34387401 2.8984606,8.67939698 2.8235443,8.02043478 L2.8235443,8.02043478 Z" id="Path"></path>
                        <path d="M36.2298734,3.54869565 C35.723621,4.55628828 35.0050506,5.44365363 34.123038,6.15043478 C33.0118987,6.93956522 31.6121519,7.15956522 30.2749367,7.48 C28.9377215,7.80043478 27.5572152,8.31217391 26.7972152,9.44086957 C26.3860114,10.1667546 26.1105863,10.9607562 25.9843038,11.7843478 C25.8590168,12.6094659 25.528323,13.3903707 25.0222785,14.056087 C24.4691139,14.6778261 23.4974684,15.0126087 22.7759494,14.5917391 C22.3722266,14.3203665 22.0656645,13.9284701 21.9005063,13.4726087 C21.356962,12.2434783 21.2126582,10.8852174 20.9962025,9.55565217 C20.7797468,8.22608696 20.4574684,6.86782609 19.6397468,5.80130435 C18.8220253,4.73478261 17.3741772,4.03173913 16.0898734,4.44782609 C15.2222036,4.78172074 14.5279032,5.45133928 14.1658228,6.30347826 C13.809739,7.14814926 13.5671448,8.03578868 13.4443038,8.94347826 C12.8446414,12.1924638 12.1391561,15.4191304 11.3278481,18.6234783 C11.3053291,18.7556331 11.2508555,18.8803697 11.1691139,18.9869565 C11.0403314,19.1129742 10.8686814,19.1863615 10.6881013,19.1926087 C9.61063291,19.3313043 8.5764557,18.5852174 7.49417722,18.6617391 C6.16177215,18.7573913 5.18531646,20.0391304 3.8721519,20.2495652 C3.03453329,20.3242573 2.19423522,20.1387783 1.46708861,19.7186957 C1.13275206,19.5756737 0.832731312,19.3637635 0.586835443,19.0969565 C0.358799329,19.4216229 0.293197882,19.8323714 0.408860759,20.2113043 C0.620734276,20.656571 1.00115364,21.0004283 1.46708861,21.1678261 C2.19423522,21.5879088 3.03453329,21.7733878 3.8721519,21.6986957 C5.18531646,21.4882609 6.16177215,20.2065217 7.49417722,20.1108696 C8.5764557,20.0343478 9.61063291,20.7804348 10.6881013,20.6417391 C10.8686814,20.6354919 11.0403314,20.5621047 11.1691139,20.436087 C11.2508555,20.3295001 11.3053291,20.2047635 11.3278481,20.0726087 C12.1359494,16.8842029 12.8414346,13.6575362 13.4443038,10.3926087 C13.5671448,9.48491911 13.809739,8.59727969 14.1658228,7.7526087 C14.5279032,6.90046971 15.2222036,6.23085117 16.0898734,5.89695652 C17.3741772,5.48086957 18.8172152,6.18391304 19.6397468,7.25043478 C20.4622785,8.31695652 20.7749367,9.68 20.9962025,11.0047826 C21.2174684,12.3295652 21.356962,13.6926087 21.9005063,14.9217391 C22.0656645,15.3776005 22.3722266,15.769497 22.7759494,16.0408696 C23.4974684,16.4569565 24.4691139,16.1269565 25.0222785,15.5052174 C25.528323,14.8395011 25.8590168,14.0585963 25.9843038,13.2334783 C26.1105863,12.4098866 26.3860114,11.6158851 26.7972152,10.89 C27.5572152,9.76130435 28.9473418,9.25434783 30.2749367,8.92913043 C31.6025316,8.60391304 33.0022785,8.38869565 34.123038,7.59956522 C35.0050506,6.89278406 35.723621,6.00541871 36.2298734,4.99782609 C36.9417722,3.76869565 37.6055696,2.42956522 37.5478481,1.00913043 C37.5383827,0.826499244 37.5191148,0.644500955 37.4901266,0.463913043 C37.2580506,1.55855805 36.8312695,2.60321081 36.2298734,3.54869565 L36.2298734,3.54869565 Z" id="Path"></path>
                    </g>
                    <path d="M169.868583,62.8366567 C171.096871,65.036072 171.824867,67.4827459 172,70 C167.732375,67.5880999 163.718605,64.9398336 161.692561,64.0184877 C158.162551,62.4121622 144.962131,62.6533522 140,62.8028901 C140.51908,61.8690432 141.125322,60.987127 141.810507,60.1690951 C142.944367,58.8127572 144.276829,57.6383497 145.762012,56.6863114 C149.73707,54.1456039 154.5751,53.3642723 159.139647,54.5258513 C163.704195,55.6874303 167.592981,58.6895488 169.892531,62.8270091 L169.868583,62.8366567 Z" id="Path" fill="#000000" opacity="0.1"></path>
                    <path d="M185.654453,74.8097754 C183.305985,75.5216222 179.473247,74.1460264 175.498918,72.1740185 C174.948581,71.4845544 174.447727,70.7581192 174,70 L187.407259,72.4914637 C188.295868,73.0878758 188.520462,73.9392061 185.654453,74.8097754 Z" id="Path" fill="#000000" opacity="0.1"></path>
                    <path d="M155.719247,47.0211414 C155.719247,47.0211414 143.222465,46.3221548 139.709084,52.962527 L139.142563,58.8479937 L138.190427,58.7454756 L138,62.7483386 C138,62.7483386 157.099844,61.9328543 161.446344,63.8527373 C165.792844,65.7726203 179.29889,75.4465941 184.711782,73.8156255 C190.124674,72.1846569 184.235714,70.6701861 184.235714,70.6701861 C184.235714,70.6701861 176.785251,67.5806655 176.785251,65.1575122 C176.785251,62.7343588 174.938108,49.9335853 155.719247,47.0211414 Z" id="Path" fill="#4A4B65"></path>
                    <path d="M132,270 C132,270 140.375,277.548817 144,276.968138 C144,276.968138 133.75,276.155189 132,270 Z" id="Path" fill="#000000" opacity="0.1"></path>
                    <path d="M131,274 C131,274 131.694125,277.301474 133.545123,276.977645 C135.396122,276.653816 131,274 131,274 Z" id="Path" fill="#000000" opacity="0.1"></path>
                    <path d="M142,341 C142,341 131.418358,349.7588 133.20273,349.995524 C134.987103,350.232249 142,341 142,341 Z" id="Path" fill="#000000" opacity="0.1"></path>
                    <polygon id="Path" fill="#766DF4" points="158 165.015775 195 159 195 194 159.845195 192.16118"></polygon>
                    <polygon id="Path" fill="#000000" opacity="0.05" points="158 165.015775 195 159 195 194 159.845195 192.16118"></polygon>
                    <polygon id="Path" fill="#766DF4" points="195 159 239 162.317558 236.565086 192.77572 195 194"></polygon>
                    <polygon id="Path" fill="#000000" opacity="0.1" points="195 159 239 162.317558 236.565086 192.77572 195 194"></polygon>
                    <polygon id="Path" fill="#766DF4" points="208.47752 149 195 159.682442 238.836359 163 246 152.067901"></polygon>
                    <polygon id="Path" fill="#766DF4" points="145 153.124618 178.047292 149 195 158.876604 158.291381 165"></polygon>
                    <polygon id="Path" fill="#766DF4" points="203 168.016876 203 215 185.710375 213.255869 178.189604 212.50165 175.898381 212.265956 168.382403 211.507024 158 210.460545 158 165 194.904026 167.470067"></polygon>
                    <polygon id="Path" fill="#766DF4" points="239 163 239 209.994359 225.207792 212.677679 218.500133 213.983078 203 217 203 168.811442"></polygon>
                    <polygon id="Path" fill="#000000" opacity="0.05" points="239 163 239 209.994359 225.207792 212.677679 218.500133 213.983078 203 217 203 168.811442"></polygon>
                    <polygon id="Path" fill="#766DF4" points="144 175.896226 157.280552 166 202 169.018868 195.416886 180"></polygon>
                    <polygon id="Path" fill="#FFFFFF" opacity="0.1" points="144 175.896226 157.280552 166 202 169.018868 195.416886 180"></polygon>
                    <polygon id="Path" fill="#766DF4" points="237.800361 163 202 168.653145 213.651959 179 252 172.622575"></polygon>
                    <polygon id="Path" fill="#FFFFFF" opacity="0.1" points="237.800361 163 202 168.653145 213.651959 179 252 172.622575"></polygon>
                    <polygon id="Path" fill="#FFFFFF" opacity="0.1" points="224 211.655044 218 213 218 202.653798 223.620199 201"></polygon>
                    <polygon id="Path" fill="#FFFFFF" opacity="0.1" points="185 208 185 214 178 213.30131 178 208"></polygon>
                    <polygon id="Path" fill="#FFFFFF" opacity="0.1" points="176 210 176 213 169 212.339261 169 210"></polygon>
                    <path d="M198.52347,204.389859 C193.371557,211.055123 176.358262,206.450032 176.358262,206.450032 L163.715707,193.109809 L162,191.301704 L165.354734,185 C165.354734,185 166.31323,185.319933 167.913917,185.882239 C176.387017,188.877972 202.860662,198.781342 198.52347,204.389859 Z" id="Path" fill="#000000" opacity="0.1"></path>
                    <path d="M197.52347,203.389859 C192.371557,210.055123 175.358262,205.450032 175.358262,205.450032 L162.715707,192.109809 L161,190.301704 L164.354734,184 C164.354734,184 165.31323,184.319933 166.913917,184.882239 C175.387017,187.877972 201.860662,197.781342 197.52347,203.389859 Z" id="Path" fill="#EFB7B9"></path>
                    <path d="M167,184.870293 C166.290113,186.878661 164.486224,189.852959 162.740681,192 L161,190.216378 L164.403566,184 C164.403566,184 165.380875,184.315601 167,184.870293 Z" id="Path" fill="#000000" opacity="0.1"></path>
                    <path d="M125.719141,111.081152 C125.719141,111.081152 113.121191,115.816752 113.001211,129.07643 C112.972536,137.620992 113.453289,146.15982 114.440976,154.648666 C114.440976,154.648666 110.841562,174.419793 121.039903,180.102512 C131.238244,185.785232 140.716701,190.520831 140.716701,190.520831 C140.716701,190.520831 157.010051,193.12541 159.011325,193.95414 C161.012599,194.78287 167.966668,184.127772 166.886844,182.351922 C165.807019,180.576072 150.972633,176.195643 149.211319,173.235893 C147.450006,170.276144 143.111512,168.282456 143.111512,168.282456 C143.111512,168.282456 138.686632,165.303764 138.509061,162.817575 C138.33149,160.331385 139.636877,158.555535 140.006417,157.490026 C140.375957,156.424516 141.714939,146.006197 141.714939,146.006197 C141.714939,146.006197 148.875374,109.044845 125.719141,111.081152 Z" id="Path" fill="#DCE6F2"></path>
                    <path d="M132,156 C132,156 114.73656,157.69697 116.073869,163 C116.073869,163 122.633976,157.650303 132,156 Z" id="Path" fill="#000000" opacity="0.1"></path>
                    <path d="M132,158 C132,158 122.463583,164.537682 124.214687,164.980915 C125.965791,165.424148 132,158 132,158 Z" id="Path" fill="#000000" opacity="0.1"></path>
                    <path d="M135.9581,161 C135.9581,161 132.736859,165.211625 134.55756,164.991675 C136.378262,164.771726 135.9581,161 135.9581,161 Z" id="Path" fill="#000000" opacity="0.1"></path>
                    <path d="M312.626726,53.0236112 C312.626726,53.0236112 294.000551,51.9250869 296.176872,64.714021 C296.176872,64.714021 295.740628,66.9734314 297.833622,68 C297.833622,68 297.867933,67.0405901 299.745255,67.3715865 C300.413806,67.4817015 301.093333,67.5139063 301.769626,67.4675275 C302.686136,67.4077054 303.557348,67.0555342 304.249849,66.4649441 L304.249849,66.4649441 C304.249849,66.4649441 309.489686,64.3494453 311.528762,55.9642026 C311.528762,55.9642026 313.038462,54.1317297 312.999249,53.6616188 L309.852406,54.9808075 C309.852406,54.9808075 310.925862,57.2018414 310.077881,59.0487055 C310.077881,59.0487055 309.979848,55.0623573 309.372047,55.1535012 C309.249506,55.1535012 307.739806,55.9258262 307.739806,55.9258262 C307.739806,55.9258262 309.587718,59.7922482 308.190755,62.6081163 C308.190755,62.6081163 308.720131,57.839849 307.161414,56.2040551 L304.945879,57.4704762 C304.945879,57.4704762 307.107496,61.4664185 305.64191,64.7284122 C305.64191,64.7284122 306.019335,59.7250895 304.480225,57.7774874 L302.470559,59.3077462 C302.470559,59.3077462 304.504733,63.2509209 303.264622,65.9564569 C303.264622,65.9564569 303.102868,60.1328387 302.034314,59.6915101 C302.034314,59.6915101 300.279533,61.2073778 300.014845,61.8309942 C300.014845,61.8309942 301.402005,64.709224 300.539319,66.2011064 C300.539319,66.2011064 300.009943,62.3202933 299.558994,62.3011051 C299.558994,62.3011051 297.809114,64.8723237 297.627753,66.6184497 C297.712502,64.9905763 298.231306,63.4127922 299.132552,62.0420644 C298.12403,62.2288025 297.193568,62.7007857 296.456265,63.3996295 C296.456265,63.3996295 296.725854,61.5815477 299.563895,61.423245 C299.563895,61.423245 301.034383,59.4708459 301.397103,59.3509196 C301.397103,59.3509196 298.573767,59.1206612 296.8631,59.8642039 C296.8631,59.8642039 298.367899,58.1516572 301.916675,58.904794 L303.877325,57.3217676 C303.877325,57.3217676 300.161894,56.8420627 298.58357,57.3745352 C298.58357,57.3745352 300.397172,55.8586675 304.411602,56.9619889 L306.568317,55.7003649 C306.568317,55.7003649 303.401868,55.028778 301.514742,55.2734275 C301.514742,55.2734275 303.504802,54.2228736 307.200627,55.3597744 L308.744639,54.6833904 C308.744639,54.6833904 306.421269,54.2372648 305.744844,54.165309 C305.06842,54.0933533 305.029207,53.9110654 305.029207,53.9110654 C306.499052,53.6716497 308.007987,53.8377625 309.386752,54.3907704 C309.386752,54.3907704 312.695348,53.2250873 312.626726,53.0236112 Z" id="Path" fill="#766DF4"></path>
                    <path d="M366.66907,116.023611 C366.66907,116.023611 347.995459,114.925087 350.177323,127.714021 C350.177323,127.714021 349.739967,129.973431 351.838292,131 C351.838292,131 351.87269,130.04059 353.759708,130.371587 C354.429961,130.481701 355.111218,130.513906 355.789234,130.467527 C356.697285,130.40326 357.559465,130.053136 358.246289,129.469741 L358.246289,129.469741 C358.246289,129.469741 363.504384,127.349445 365.548653,118.964203 C365.548653,118.964203 367.057285,117.136527 366.998315,116.666416 L363.843458,117.980807 C363.843458,117.980807 364.919647,120.201841 364.074421,122.048705 C364.074421,122.048705 363.971225,118.062357 363.366789,118.153501 C363.243937,118.153501 361.725477,118.925826 361.725477,118.925826 C361.725477,118.925826 363.58301,122.797045 362.182489,125.608116 C362.182489,125.608116 362.713213,120.839849 361.145612,119.204055 L358.949006,120.456085 C358.949006,120.456085 361.116128,124.452027 359.646809,127.714021 C359.646809,127.714021 360.025196,122.710698 358.482166,120.763096 L356.472296,122.298152 C356.472296,122.298152 358.506736,126.23653 357.268381,128.942066 C357.268381,128.942066 357.106215,123.118448 356.03494,122.677119 C356.03494,122.677119 354.275689,124.192987 354.005413,124.816603 C354.005413,124.816603 355.40102,127.694833 354.536137,129.186715 C354.536137,129.186715 354.005413,125.305902 353.553315,125.286714 C353.553315,125.286714 351.798979,127.857933 351.617157,129.604059 C351.704953,127.975986 352.226674,126.398501 353.130702,125.027673 C352.118335,125.214867 351.184053,125.68672 350.442685,126.385238 C350.442685,126.385238 350.717875,124.567157 353.563143,124.408854 C353.563143,124.408854 355.012805,122.456455 355.40102,122.336528 C355.40102,122.336528 352.570494,122.10627 350.85547,122.849813 C350.85547,122.849813 352.364101,121.137266 355.917001,121.914388 L357.882645,120.331362 C357.882645,120.331362 354.152836,119.851657 352.575408,120.384129 C352.575408,120.384129 354.393628,118.868262 358.418282,119.971583 L360.58049,118.709959 C360.58049,118.709959 357.401062,118.043169 355.50913,118.283022 C355.50913,118.283022 357.509172,117.232468 361.21441,118.369368 L362.762354,117.692984 C362.762354,117.692984 360.433067,117.246859 359.750006,117.174903 C359.066945,117.102947 359.032546,116.920659 359.032546,116.920659 C360.507748,116.6811 362.022143,116.847204 363.406102,117.400364 C363.406102,117.400364 366.728039,116.225087 366.66907,116.023611 Z" id="Path" fill="#766DF4" opacity="0.1"></path>
                    <path d="M256.356468,105.791721 C256.356468,105.791721 260.525111,88.2347244 247.642811,88.1731874 C247.642811,88.1731874 245.503701,87.3779392 244.155443,89.1956493 C244.155443,89.1956493 245.074926,89.3897277 244.450821,91.1222326 C244.234971,91.7348655 244.091092,92.3702286 244.022046,93.0156806 C243.929762,93.8955719 244.128804,94.7813628 244.588982,95.5387 L244.588982,95.5387 C244.588982,95.5387 245.794315,100.88769 253.640894,104.239093 C253.640894,104.239093 255.184483,105.981066 255.651371,106 L254.889105,102.785872 C254.889105,102.785872 252.535608,103.434378 250.86815,102.31251 C250.86815,102.31251 254.789057,102.885278 254.793822,102.31251 C254.793822,102.19417 254.317405,100.627341 254.317405,100.627341 C254.317405,100.627341 250.224988,101.735008 247.699981,99.9314993 C247.699981,99.9314993 252.278343,101.237978 254.141131,100.030905 L253.283582,97.7019643 C253.283582,97.7019643 248.995834,99.0889149 246.061108,97.1433971 C246.061108,97.1433971 250.896735,98.3457366 253.059666,97.2096678 L251.892446,95.0416699 C251.892446,95.0416699 247.699981,96.31028 245.255965,94.6771811 C245.255965,94.6771811 250.972962,95.500831 251.592303,94.5635743 C251.592303,94.5635743 250.401262,92.636991 249.834327,92.2772358 C249.834327,92.2772358 246.804318,93.1198202 245.470352,92.0452885 C245.470352,92.0452885 249.353146,92.1920307 249.443665,91.7849394 C249.443665,91.7849394 247.2188,89.6879457 245.522758,89.2145838 C247.103308,89.5721457 248.562951,90.3323629 249.7581,91.4204506 C249.740629,90.4283802 249.43271,89.4628451 248.871965,88.6418157 C248.871965,88.6418157 250.606121,89.2098501 250.301215,91.9553497 C250.301215,91.9553497 251.968672,93.6594529 252.021078,94.0476097 C252.021078,94.0476097 252.711882,91.4015162 252.268815,89.6453432 C252.268815,89.6453432 253.698064,91.3683808 252.349805,94.6109105 L253.569431,96.7647075 C253.569431,96.7647075 254.674718,93.309165 254.393632,91.7186687 C254.393632,91.7186687 255.579909,93.6973218 253.83146,97.3327419 L254.712831,99.6001459 C254.712831,99.6001459 255.889579,96.6937032 255.965806,94.8665259 C255.965806,94.8665259 256.666138,96.9398515 254.936747,100.267586 L255.346465,101.848615 C255.346465,101.848615 256.165901,99.7137527 256.346939,99.0794477 C256.527977,98.4451426 256.71378,98.440409 256.71378,98.440409 C256.706519,99.8805081 256.295748,101.290142 255.527503,102.511322 C255.527503,102.511322 256.151608,105.815389 256.356468,105.791721 Z" id="Path" fill="#766DF4" opacity="0.1"></path>
                    <path d="M217,111.856339 C217,111.856339 202.175355,100.314922 196.875982,112.81686 C196.875982,112.81686 195.258483,114.560964 196.419391,116.648833 C196.419391,116.648833 196.973129,115.834918 198.362333,117.184703 C198.854392,117.66114 199.398976,118.075199 199.984689,118.418214 C200.778023,118.877967 201.693923,119.055479 202.593088,118.923751 L202.593088,118.923751 C202.593088,118.923751 208.111042,120.030878 214.464461,113.807713 C214.464461,113.807713 216.732846,113.049407 216.946569,112.604535 L213.599852,111.992834 C213.599852,111.992834 213.250123,114.555909 211.525762,115.703478 C211.525762,115.703478 213.65814,112.134385 213.104402,111.876561 C212.992683,111.820952 211.321753,111.623792 211.321753,111.623792 C211.321753,111.623792 210.700012,116.082631 207.979894,117.766071 C207.979894,117.766071 211.074028,113.868378 210.690297,111.542906 L208.149901,111.401356 C208.149901,111.401356 207.717596,116.148351 204.686608,118.190722 C204.686608,118.190722 207.780742,113.999818 207.60102,111.411466 L205.084911,111.623792 C205.084911,111.623792 204.574888,116.239348 202.044207,117.917732 C202.044207,117.917732 205.148056,112.700587 204.511743,111.709734 C204.511743,111.709734 202.214214,112.048444 201.645904,112.442763 C201.645904,112.442763 201.203885,115.748977 199.649531,116.588169 C199.649531,116.588169 201.373892,112.872469 201.024163,112.614645 C201.024163,112.614645 198.143752,113.883544 197.011988,115.329381 C197.991013,113.945032 199.300338,112.850687 200.810439,112.154606 C199.870857,111.748172 198.837785,111.635734 197.837738,111.831062 C197.837738,111.831062 199.071506,110.385226 201.509898,111.856339 C201.509898,111.856339 203.792854,110.961538 204.181443,111.072756 C204.181443,111.072756 201.971347,109.267988 200.140124,108.954555 C200.140124,108.954555 202.345363,108.297357 204.8469,110.976704 L207.367867,110.70877 C207.367867,110.70877 204.565174,108.181083 202.957389,107.756432 C202.957389,107.756432 205.303491,107.448054 208.009038,110.693603 L210.496003,110.809877 C210.496003,110.809877 208.247048,108.423741 206.551831,107.564327 C206.551831,107.564327 208.781357,107.766542 211.210034,110.865486 L212.866392,111.143532 C212.866392,111.143532 211.190605,109.434816 210.66601,108.989943 C210.141416,108.54507 210.214276,108.358021 210.214276,108.358021 C211.565586,108.980809 212.724196,109.981887 213.560993,111.249695 C213.560993,111.249695 216.936854,112.06361 217,111.856339 Z" id="Path" fill="#766DF4" opacity="0.1"></path>
                    <path d="M265,10.8597577 C265,10.8597577 250.175355,-0.689510493 244.875982,11.8205112 C244.875982,11.8205112 243.258483,13.5650372 244.419391,15.6534119 C244.419391,15.6534119 244.973129,14.8392997 246.362333,16.1894112 C246.85697,16.6635027 247.403069,17.0758767 247.989546,17.4181643 C248.782758,17.8783817 249.698772,18.0559586 250.597945,17.9238241 L250.597945,17.9238241 C250.597945,17.9238241 256.115899,19.0312189 262.469319,12.801491 C262.469319,12.801491 264.737703,12.048058 264.946569,11.5980209 L261.599852,10.9962858 C261.599852,10.9962858 261.25498,13.5599806 259.525762,14.7078282 C259.525762,14.7078282 261.662998,11.1378705 261.109259,10.8799841 C260.99754,10.8243615 259.32661,10.6271542 259.32661,10.6271542 C259.32661,10.6271542 258.68544,15.0971862 255.965321,16.7709199 C255.965321,16.7709199 259.054599,12.8722834 258.675725,10.5462486 L256.135329,10.4046639 C256.135329,10.4046639 255.698167,15.1528088 252.672035,17.1906175 C252.672035,17.1906175 255.76617,12.9986983 255.586448,10.4097205 L253.075196,10.6220976 C253.075196,10.6220976 252.560316,15.2438275 250.029635,16.9226178 C250.029635,16.9226178 253.138341,11.7042094 252.502028,10.7131164 C252.502028,10.7131164 250.2045,11.0519084 249.636189,11.446323 C249.636189,11.446323 249.19417,14.7533376 247.639817,15.5927327 C247.639817,15.5927327 249.364177,11.8761337 249.014448,11.6131907 C249.014448,11.6131907 246.134037,12.8874532 245.002273,14.33364 C245.979818,12.9474796 247.289558,11.8525237 248.800724,11.1580969 C247.860177,10.7485405 246.824693,10.6359967 245.823166,10.8344747 C245.823166,10.8344747 247.061792,9.38828787 249.500183,10.8597577 C249.500183,10.8597577 251.78314,9.95968337 252.171728,10.0759851 C252.171728,10.0759851 249.961632,8.27077988 248.130409,7.95221425 C248.130409,7.95221425 250.330791,7.2999132 252.832328,9.97485316 L255.353295,9.7068535 C255.353295,9.7068535 252.555459,7.17855486 250.942817,6.7487441 C250.942817,6.7487441 253.288919,6.44534826 255.999323,9.69168371 L258.486288,9.80292885 C258.486288,9.80292885 256.237333,7.41621494 254.537259,6.56165 C254.537259,6.56165 256.771642,6.76391389 259.200319,9.86360802 L260.85182,10.1417209 C260.85182,10.1417209 259.171175,8.45281738 258.646581,8.01795001 C258.121987,7.58308265 258.194847,7.39093195 258.194847,7.39093195 C259.546564,8.01318704 260.705338,9.01464831 261.541564,10.2833056 C261.541564,10.2833056 264.917425,11.0519084 265,10.8597577 Z" id="Path" fill="#766DF4" opacity="0.1"></path>
                    <path d="M321,24.3801825 C321,24.3801825 315.245283,6.65706612 304.391509,13.6216472 C304.391509,13.6216472 302.174528,14.1124563 302,16.4241671 C302,16.4241671 302.872642,16.0904169 303.259434,17.9554915 C303.403137,18.6189278 303.619982,19.2628802 303.90566,19.8745551 C304.295513,20.6977475 304.930951,21.3675401 305.716981,21.7838024 L305.716981,21.7838024 C305.716981,21.7838024 309.54717,25.8329775 317.924528,24.4930686 C317.924528,24.4930686 320.136792,25.1900176 320.542453,24.9495211 L318.183962,22.5396484 C318.183962,22.5396484 316.551887,24.3899987 314.561321,24.3163774 C314.561321,24.3163774 318.160377,22.6868912 317.863208,22.1617254 C317.801887,22.0586555 316.570755,20.9445189 316.570755,20.9445189 C316.570755,20.9445189 313.712264,24.1495023 310.646226,23.9384544 C310.646226,23.9384544 315.179245,22.5936374 316.103774,20.5027907 L314.150943,18.9371097 C314.150943,18.9371097 311.292453,22.4807513 307.787736,22.3727733 C307.787736,22.3727733 312.504717,20.7972762 313.698113,18.6180838 L311.575472,17.3468882 C311.575472,17.3468882 308.745283,20.7481952 305.811321,20.6402172 C305.811321,20.6402172 311.056604,18.2499769 311.070755,17.0916675 C311.070755,17.0916675 309.056604,16.0462441 308.391509,16.0364279 C308.391509,16.0364279 306.287736,18.4266682 304.617925,18.2107122 C304.617925,18.2107122 307.957547,16.2229354 307.816038,15.8155638 C307.816038,15.8155638 304.84434,15.1824201 303.169811,15.6928616 C304.684368,15.1441662 306.310523,15.0172632 307.886792,15.3247547 C307.348529,14.4604316 306.579731,13.7781748 305.674528,13.3615184 C305.674528,13.3615184 307.429245,12.9148821 308.603774,15.4867217 C308.603774,15.4867217 310.90566,16.0806007 311.150943,16.3898105 C311.150943,16.3898105 310.339623,13.6854524 309.042453,12.3799002 C309.042453,12.3799002 311.150943,13.1210219 311.726415,16.7088364 L313.886792,17.9358591 C313.886792,17.9358591 312.995283,14.2989637 311.919811,13.0277682 C311.919811,13.0277682 313.962264,14.1271805 314.40566,18.2745174 L316.339623,19.7911175 C316.339623,19.7911175 315.801887,16.5910422 314.896226,14.9321075 C314.896226,14.9321075 316.575472,16.3750862 316.877358,20.24757 L318.051887,21.4156956 C318.051887,21.4156956 317.617925,19.0892605 317.438679,18.4315763 C317.259434,17.7738921 317.40566,17.7297193 317.40566,17.7297193 C318.155522,19.0029465 318.55223,20.4672137 318.551887,21.9604937 C318.551887,21.9604937 320.834906,24.5077929 321,24.3801825 Z" id="Path" fill="#766DF4" opacity="0.1"></path>
                    <path d="M282.67039,25.1207738 C282.67039,25.1207738 264.594839,23.0044835 266.087622,36.4895658 C266.087622,36.4895658 265.548694,38.826512 267.518404,40 C267.518404,40 267.599482,38.9970188 269.426114,39.4483603 C270.071652,39.5944127 270.730804,39.6633863 271.391055,39.6539715 C272.282903,39.6370354 273.145191,39.3148494 273.847232,38.7362437 L273.847232,38.7362437 C273.847232,38.7362437 279.05051,36.7954751 281.478071,28.1447622 C281.478071,28.1447622 283.032855,26.3143215 282.99947,25.8178458 L279.875595,27.031453 C279.875595,27.031453 280.82945,29.4035036 279.875595,31.2891082 C279.875595,31.2891082 279.97575,27.1217213 279.398667,27.1869151 C279.279436,27.1869151 277.772345,27.9090616 277.772345,27.9090616 C277.772345,27.9090616 279.374821,32.0463591 277.877269,34.92993 C277.877269,34.92993 278.630814,29.9752029 277.195263,28.1898963 L274.97755,29.3934738 C274.97755,29.3934738 276.88526,33.6812184 275.287553,37.011116 C275.287553,37.011116 275.907558,31.8056436 274.510161,29.6943681 L272.483219,31.1988399 C272.483219,31.1988399 274.257389,35.4163759 272.917223,38.1795891 C272.917223,38.1795891 273.055532,32.0914932 272.039677,31.5749579 C272.039677,31.5749579 270.255968,33.0794297 269.965042,33.701278 C269.965042,33.701278 271.171669,36.7603707 270.260737,38.289917 C270.260737,38.289917 269.941196,34.2127985 269.521499,34.1726792 C269.521499,34.1726792 267.690098,36.7653856 267.423019,38.5958263 C267.588454,36.8987956 268.173843,35.276955 269.12088,33.8918445 C268.131212,34.0356516 267.202986,34.4800947 266.450086,35.1706455 C266.450086,35.1706455 266.803013,33.2900557 269.569192,33.2699961 C269.569192,33.2699961 271.071514,31.3091679 271.476902,31.2038548 C271.476902,31.2038548 268.744108,30.8177071 267.041477,31.5047492 C267.041477,31.5047492 268.591491,29.7896513 271.996753,30.7876176 L274.004618,29.2380117 C274.004618,29.2380117 270.3752,28.4657162 268.839493,28.9672068 C268.839493,28.9672068 270.680433,27.4627349 274.524469,28.8418341 L276.68495,27.6332418 C276.68495,27.6332418 273.637384,26.7706779 271.791674,26.92614 C271.791674,26.92614 273.780462,25.9231588 277.314494,27.3122878 L278.850201,26.6854245 C278.850201,26.6854245 276.613411,26.0986805 275.955251,25.9883526 C275.297091,25.8780246 275.273245,25.6874582 275.273245,25.6874582 C276.715062,25.5135092 278.174508,25.7634912 279.489284,26.4096047 C279.489284,26.4096047 282.703775,25.3313999 282.67039,25.1207738 Z" id="Path" fill="#766DF4" opacity="0.1"></path>
                    <path d="M440.684256,165.121099 C440.684256,165.121099 422.592912,163.002713 424.087788,176.48609 C424.087788,176.48609 423.548105,178.82535 425.520577,180 C425.520577,180 425.601768,178.996026 427.430962,179.442794 C428.076657,179.593945 428.737285,179.663044 429.398658,179.648609 C430.2922,179.634233 431.156456,179.311444 431.858278,178.729972 L431.858278,178.729972 C431.858278,178.729972 437.068853,176.787282 439.475937,168.133022 C439.475937,168.133022 441.032901,166.295749 440.999469,165.803802 L437.871214,167.013591 C437.871214,167.013591 438.826407,169.39301 437.871214,171.280482 C437.871214,171.280482 437.971509,167.103948 437.393618,167.174227 C437.274219,167.174227 435.765015,167.892068 435.765015,167.892068 C435.765015,167.892068 437.369738,172.033463 435.870086,174.919889 C435.870086,174.919889 436.624688,169.965276 435.187124,168.173181 L432.966301,169.38297 C432.966301,169.38297 434.876686,173.674961 433.281515,177.008156 C433.281515,177.008156 433.897614,171.797529 432.498257,169.679143 L430.468473,171.185105 C430.468473,171.185105 432.245131,175.406817 430.903086,178.167747 C430.903086,178.167747 431.041589,172.073622 430.024309,171.561595 C430.024309,171.561595 428.242875,173.067557 427.946766,173.690021 C427.946766,173.690021 429.15986,176.752143 428.242875,178.283204 C428.242875,178.283204 427.922886,174.202048 427.502601,174.161889 C427.502601,174.161889 425.668632,176.757163 425.401178,178.589416 C425.566845,176.890705 426.153055,175.267258 427.10142,173.880776 C426.109656,174.022154 425.179456,174.467359 424.426882,175.160843 C424.426882,175.160843 424.780303,173.273371 427.550361,173.253292 C427.550361,173.253292 429.059565,171.290522 429.460745,171.190124 C429.460745,171.190124 426.724119,170.798574 425.019101,171.486297 C425.019101,171.486297 426.571289,169.77452 429.986101,170.773475 L431.992005,169.222335 C431.992005,169.222335 428.400482,168.509513 426.838742,169.00146 C426.838742,169.00146 428.682264,167.495499 432.531689,168.870943 L434.6952,167.666174 C434.6952,167.666174 431.64336,166.802756 429.795063,166.958372 C429.795063,166.958372 431.786639,165.954398 435.325627,167.344902 L436.863486,166.712398 C436.863486,166.712398 434.62356,166.125073 433.964477,166.019656 C433.305395,165.914239 433.281515,165.718464 433.281515,165.718464 C434.724944,165.541183 436.18683,165.789742 437.503465,166.436306 C437.503465,166.436306 440.732015,165.336954 440.684256,165.121099 Z" id="Path" fill="#766DF4" opacity="0.1"></path>
                    <path d="M468.702869,182.12045 C468.702869,182.12045 450.591342,180.006992 452.087886,193.485936 C452.087886,193.485936 451.552382,195.825299 453.522273,197 C453.522273,197 453.603555,195.995982 455.434789,196.44779 C456.080086,196.595225 456.739636,196.662621 457.3999,196.648594 C458.289903,196.629471 459.150215,196.309009 459.852701,195.734937 L459.852701,195.734937 C459.852701,195.734937 465.064308,193.792162 467.474078,185.132505 C467.474078,185.132505 469.03756,183.300171 468.999309,182.803182 L465.867564,184.013024 C465.867564,184.013024 466.823822,186.392548 465.867564,188.280102 C465.867564,188.280102 465.967971,184.108406 465.389435,184.173667 C465.269903,184.173667 463.759015,184.89154 463.759015,184.89154 C463.759015,184.89154 465.365529,189.033115 463.864204,191.919668 C463.864204,191.919668 464.619648,186.964838 463.180479,185.177686 L460.957179,186.382507 C460.957179,186.382507 462.869696,190.674685 461.272745,194.008026 C461.272745,194.008026 461.889531,188.797171 460.488613,186.683713 L458.456565,188.18974 C458.456565,188.18974 460.235205,192.411637 458.896443,195.177707 C458.896443,195.177707 459.03032,189.078296 458.011905,188.566247 C458.011905,188.566247 456.228484,190.072274 455.932044,190.694766 C455.932044,190.694766 457.146491,193.757021 456.228484,195.288149 C456.228484,195.288149 455.908137,191.206815 455.487384,191.166654 C455.487384,191.166654 453.651368,193.762041 453.388397,195.594374 C453.553922,193.896335 454.139021,192.273142 455.085755,190.885529 C454.093593,191.029485 453.163029,191.474387 452.408233,192.165652 C452.408233,192.165652 452.766829,190.278098 455.539978,190.263038 C455.539978,190.263038 457.046084,188.300182 457.452494,188.19476 C457.452494,188.19476 454.712815,187.808213 453.005894,188.495966 C453.005894,188.495966 454.559813,186.779095 457.978436,187.778093 L459.986578,186.226885 C459.986578,186.226885 456.391047,185.514032 454.827566,186.006001 C454.827566,186.006001 456.673144,184.499973 460.526863,185.880498 L462.692788,184.670656 C462.692788,184.670656 459.637543,183.807201 457.787184,183.962823 C457.787184,183.962823 459.780982,182.958805 463.323918,184.34937 L464.863493,183.721859 C464.863493,183.721859 462.621068,183.134508 461.966032,183.024066 C461.310995,182.913624 461.277526,182.722861 461.277526,182.722861 C462.722975,182.548732 464.186099,182.798973 465.504186,183.445754 C465.504186,183.445754 468.750682,182.336314 468.702869,182.12045 Z" id="Path" fill="#766DF4" opacity="0.1"></path>
                    <path d="M407,39.8563393 C407,39.8563393 392.175355,28.3149221 386.875982,40.8168603 C386.875982,40.8168603 385.258483,42.5609641 386.419391,44.6488332 C386.419391,44.6488332 386.973129,43.8349181 388.362333,45.1847028 C388.854392,45.6611404 389.398976,46.075199 389.984689,46.4182139 C390.778145,46.8776148 391.693931,47.0551045 392.593088,46.9237512 L392.593088,46.9237512 C392.593088,46.9237512 398.111042,48.030878 404.469319,41.8077134 C404.469319,41.8077134 406.732846,41.0494074 406.946569,40.6045346 L403.609567,39.9776683 C403.609567,39.9776683 403.259837,42.5407426 401.535477,43.6883123 C401.535477,43.6883123 403.667855,40.1192188 403.114117,39.8613947 C403.002398,39.8057856 401.336325,39.6086261 401.336325,39.6086261 C401.336325,39.6086261 400.709727,44.0674653 397.989608,45.7509046 C397.989608,45.7509046 401.083743,41.8532118 400.700012,39.5277401 L398.159616,39.3861896 C398.159616,39.3861896 397.727311,44.1331852 394.696322,46.175556 C394.696322,46.175556 397.795314,41.9846515 397.610735,39.3963004 L395.094625,39.6086261 C395.094625,39.6086261 394.60889,44.2241819 392.053922,45.9025658 C392.053922,45.9025658 395.162628,40.6854206 394.521457,39.6945674 C394.521457,39.6945674 392.223929,40.0332774 391.655619,40.4275965 C391.655619,40.4275965 391.218457,43.7338107 389.664103,44.5730026 C389.664103,44.5730026 391.383607,40.8573033 391.033877,40.5994792 C391.033877,40.5994792 388.153466,41.8683779 387.021703,43.3142147 C388.000727,41.9298654 389.310053,40.8355212 390.820154,40.1394402 C389.880572,39.7330057 388.8475,39.6205678 387.847453,39.8158964 C387.847453,39.8158964 389.086078,38.3700596 391.52447,39.8411732 C391.52447,39.8411732 393.802569,38.9463721 394.191157,39.0575904 C394.191157,39.0575904 391.981061,37.2528221 390.149839,36.9393889 C390.149839,36.9393889 392.355078,36.2821904 394.856615,38.9615383 L397.377582,38.6936035 C397.377582,38.6936035 394.579746,36.1659168 392.967104,35.7412655 C392.967104,35.7412655 395.313206,35.4328877 398.018752,38.6784374 L400.510575,38.7947109 C400.510575,38.7947109 398.256763,36.4085748 396.561546,35.5491613 C396.561546,35.5491613 398.795929,35.7513762 401.219749,38.8503201 L402.876106,39.1283656 C402.876106,39.1283656 401.200319,37.4196494 400.675725,36.9747766 C400.151131,36.5299037 400.228848,36.3832979 400.228848,36.3832979 C401.578244,37.007102 402.735041,38.008066 403.570708,39.2749714 C403.570708,39.2749714 406.936854,40.0636096 407,39.8563393 Z" id="Path" fill="#766DF4" opacity="0.1"></path>
                    <path d="M419,118.412699 C419,118.412699 413.941028,101.143969 402.563149,107.343363 C402.563149,107.343363 400.283726,107.687512 400,109.922122 C400,109.922122 400.904075,109.643974 401.216654,111.449577 C401.332562,112.098251 401.526262,112.731223 401.793723,113.335325 C402.150417,114.147695 402.768586,114.823253 403.553784,115.258787 L403.553784,115.258787 C403.553784,115.258787 407.27588,119.313143 415.864591,118.407985 C415.864591,118.407985 418.086307,119.171712 418.509491,118.96428 L416.234877,116.541095 C416.234877,116.541095 414.489243,118.247696 412.469501,118.087408 C412.469501,118.087408 416.201215,116.673097 415.91268,116.16866 C415.854973,116.064944 414.652746,114.93821 414.652746,114.93821 C414.652746,114.93821 411.603898,117.889404 408.487725,117.545255 C408.487725,117.545255 413.166793,116.460951 414.1959,114.509202 L412.272336,112.915746 C412.272336,112.915746 409.204252,116.187517 405.64085,115.932941 C405.64085,115.932941 410.488231,114.627062 411.825108,112.595169 L409.718805,111.27986 C409.718805,111.27986 406.665148,114.414915 403.70286,114.179197 C403.70286,114.179197 409.151354,112.119018 409.218679,111.011141 C409.218679,111.011141 407.208555,109.917408 406.530499,109.879693 C406.530499,109.879693 404.284738,112.076588 402.577575,111.793726 C402.577575,111.793726 406.068843,110.035267 405.943812,109.63926 C405.943812,109.63926 402.943052,108.899104 401.216654,109.309254 C402.780257,108.854708 404.437718,108.807587 406.025563,109.172538 C405.516963,108.3195 404.764665,107.63116 403.861554,107.192503 C403.861554,107.192503 405.669704,106.838925 406.7469,109.361112 C406.7469,109.361112 409.059985,110.030553 409.30043,110.341701 C409.30043,110.341701 408.593521,107.706369 407.328778,106.400489 C407.328778,106.400489 409.444698,107.201932 409.87269,110.671707 L412.017464,111.9493 C412.017464,111.9493 411.267274,108.413524 410.22855,107.168931 C410.22855,107.168931 412.257909,108.314523 412.532017,112.312307 L414.455581,113.853905 C414.455581,113.853905 414.046824,110.76128 413.200456,109.139537 C413.200456,109.139537 414.849911,110.600991 414.984561,114.325342 L416.129081,115.503934 C416.129081,115.503934 415.792458,113.250466 415.64819,112.609312 C415.503923,111.968158 415.64819,111.878585 415.64819,111.878585 C416.359806,113.132569 416.701165,114.556048 416.634017,115.989514 C416.634017,115.989514 418.826879,118.525844 419,118.412699 Z" id="Path" fill="#766DF4" opacity="0.1"></path>
                    <path d="M307,158.486896 C307,158.486896 297.038616,142.472432 287.789108,152.057223 C287.789108,152.057223 285.672984,153.052529 286.04355,155.416379 C286.04355,155.416379 286.848067,154.868961 287.676963,156.610745 C287.974807,157.228015 288.344817,157.806186 288.778908,158.332624 C289.360277,159.051149 290.156912,159.554735 291.046183,159.765863 L291.046183,159.765863 C291.046183,159.765863 295.848906,162.791592 303.942835,159.367741 C303.942835,159.367741 306.327131,159.497131 306.678193,159.163704 L303.752677,157.372154 C303.752677,157.372154 302.548339,159.611591 300.534608,160.034596 C300.534608,160.034596 303.762428,157.546332 303.328477,157.088492 C303.245587,156.998915 301.743822,156.212623 301.743822,156.212623 C301.743822,156.212623 299.632574,160.084361 296.502271,160.646709 C296.502271,160.646709 300.739395,158.183328 301.178222,155.904079 L298.842685,154.854031 C298.842685,154.854031 296.809451,159.059197 293.269576,159.830558 C293.269576,159.830558 297.609092,157.098445 298.316092,154.649994 L295.878161,153.933374 C295.878161,153.933374 293.820548,157.999196 290.870652,158.621262 C290.870652,158.621262 295.570982,154.948585 295.312561,153.803984 C295.312561,153.803984 293.04041,153.281449 292.387045,153.440698 C292.387045,153.440698 290.841397,156.322107 289.095839,156.531121 C289.095839,156.531121 291.982348,153.734313 291.743431,153.36605 C291.743431,153.36605 288.608252,153.490463 287.047977,154.411121 C288.439771,153.490833 290.043578,152.95892 291.699548,152.868397 C290.95814,152.152193 290.02764,151.673013 289.022701,151.489899 C289.022701,151.489899 290.675617,150.609054 292.435803,152.848491 C292.435803,152.848491 294.873734,152.848491 295.210168,153.097317 C295.210168,153.097317 293.74741,150.609054 292.143252,149.678443 C292.143252,149.678443 294.434906,149.877504 295.858658,153.266519 L298.320967,153.933374 C298.320967,153.933374 296.560782,150.574218 295.190665,149.613749 C295.190665,149.613749 297.496947,150.181073 298.925574,154.157318 L301.226981,155.152623 C301.226981,155.152623 299.930002,152.141824 298.628147,150.733467 C298.628147,150.733467 300.656505,151.728772 301.870594,155.466144 L303.333353,156.327083 C303.333353,156.327083 302.35818,154.142388 302.011994,153.540228 C301.665808,152.938069 301.802332,152.798726 301.802332,152.798726 C302.857441,153.862446 303.601928,155.20469 303.952587,156.67544 C303.952587,156.67544 306.868352,158.656098 307,158.486896 Z" id="Path" fill="#766DF4" opacity="0.1"></path>
                    <path d="M370,79.8345827 C370,79.8345827 360.92901,63.6071496 351.792661,72.8417913 C351.792661,72.8417913 349.738499,73.7820817 350.027949,76.1278588 C350.027949,76.1278588 350.807597,75.6032758 351.554565,77.3601342 C351.821675,77.9846504 352.158675,78.5728441 352.558303,79.1120437 C353.094411,79.8418449 353.842721,80.3637175 354.687161,80.5967128 L354.687161,80.5967128 C354.687161,80.5967128 359.19231,83.754109 367.04014,80.5967128 C367.04014,80.5967128 369.318392,80.7996176 369.663865,80.4779393 L366.923427,78.6072562 C366.923427,78.6072562 365.709604,80.7897198 363.767488,81.1509892 C363.767488,81.1509892 366.928095,78.760672 366.531268,78.3103224 C366.447235,78.2162934 365.037333,77.3848787 365.037333,77.3848787 C365.037333,77.3848787 362.903806,81.1707848 359.90193,81.6310322 C359.90193,81.6310322 364.028926,79.3149485 364.509787,77.0681493 L362.306232,75.9694941 C362.306232,75.9694941 360.238065,80.0919253 356.825356,80.7501286 C356.825356,80.7501286 361.05973,78.1717533 361.806697,75.7616405 L359.500434,74.969817 C359.500434,74.969817 357.408925,78.9289345 354.570447,79.4733132 C354.570447,79.4733132 359.173636,75.9694941 358.958883,74.826299 C358.958883,74.826299 356.802013,74.2324313 356.157754,74.3710004 C356.157754,74.3710004 354.59379,77.1869228 352.917781,77.3403386 C352.917781,77.3403386 355.760927,74.6580365 355.546174,74.2819203 C355.546174,74.2819203 352.539628,74.3066648 351.02235,75.1727217 C352.381537,74.303656 353.931289,73.825994 355.518162,73.7870306 C354.828104,73.0513625 353.950192,72.5456222 352.992478,72.3320549 C352.992478,72.3320549 354.603127,71.5055891 356.260462,73.7870306 C356.260462,73.7870306 358.594736,73.8711618 358.907529,74.1235556 C358.907529,74.1235556 357.586329,71.6491071 356.07372,70.6296343 C356.07372,70.6296343 358.2586,70.8968748 359.523777,74.3116137 L361.858051,75.0539482 C361.858051,75.0539482 360.275413,71.6590049 358.986894,70.6593277 C358.986894,70.6593277 361.181112,71.2977354 362.432283,75.2914953 L364.603158,76.3654059 C364.603158,76.3654059 363.450026,73.3317321 362.268884,71.9113987 C362.268884,71.9113987 364.17832,72.9655137 365.23808,76.7167776 L366.605965,77.6174768 C366.605965,77.6174768 365.728278,75.4152177 365.420154,74.8065034 C365.11203,74.197789 365.242749,74.0641688 365.242749,74.0641688 C366.221361,75.1545135 366.8953,76.5113772 367.189534,77.9836952 C367.189534,77.9836952 369.864612,79.9978963 370,79.8345827 Z" id="Path" fill="#766DF4"></path>
                    <path d="M312.997549,112.630365 C312.997549,112.630365 313.494213,94.7193539 300.347516,97.2438193 C300.347516,97.2438193 297.993328,96.9006424 297,98.9408994 C297,98.9408994 297.993328,98.9408994 297.715196,100.750805 C297.624211,101.396168 297.614208,102.049453 297.685396,102.697041 C297.775181,103.57542 298.167879,104.401419 298.80289,105.047567 L298.80289,105.047567 C298.80289,105.047567 301.171978,110.002477 309.918232,111.685454 C309.918232,111.685454 311.860188,113.072264 312.346919,112.997047 L310.856927,110.025982 C310.856927,110.025982 308.597106,111.126028 306.655149,110.378561 C306.655149,110.378561 310.777461,110.148209 310.663228,109.574681 C310.663228,109.457155 309.808966,108.028034 309.808966,108.028034 C309.808966,108.028034 305.865453,109.931961 302.910302,108.681481 C302.910302,108.681481 307.876943,109.03406 309.501034,107.487413 L308.115341,105.404847 C308.115341,105.404847 304.052629,107.60494 300.625648,106.307449 C300.625648,106.307449 305.815787,106.504893 307.782576,104.967649 L306.128685,103.087228 C306.128685,103.087228 302.120606,105.165093 299.279688,104.065047 C299.279688,104.065047 305.299256,103.72187 305.736321,102.682937 C305.736321,102.682937 304.107263,101.051672 303.451666,100.802516 C303.451666,100.802516 300.541215,102.212832 298.95189,101.451262 C298.95189,101.451262 302.925202,100.82132 302.950035,100.402927 C302.950035,100.402927 300.233283,98.8092699 298.400593,98.6917436 C300.09054,98.7203415 301.743053,99.1677034 303.193401,99.9892341 C302.96712,99.0283398 302.449252,98.1509259 301.703409,97.4647688 C301.703409,97.4647688 303.595699,97.666914 303.853964,100.379422 C303.853964,100.379422 305.925053,101.705118 306.059152,102.071801 C306.059152,102.071801 306.203185,99.3592931 305.373756,97.7421309 C305.373756,97.7421309 307.20148,99.1289415 306.516083,102.551308 L308.219641,104.403523 C308.219641,104.403523 308.607039,100.82132 307.986209,99.3310868 C307.986209,99.3310868 309.615267,101.018765 308.612005,104.901834 L309.987765,106.927988 C309.987765,106.927988 310.573828,103.867603 310.26093,102.067099 C310.26093,102.067099 311.413191,103.947521 310.360263,107.525022 L311.115192,108.982348 C311.115192,108.982348 311.497624,106.739946 311.54729,106.0865 C311.596956,105.433053 311.785689,105.390744 311.785689,105.390744 C312.084666,106.793112 311.966019,108.246534 311.442991,109.588784 C311.442991,109.588784 312.779017,112.691479 312.997549,112.630365 Z" id="Path" fill="#766DF4"></path>
                    <ellipse id="Oval" fill="#766DF4" opacity="0.1" cx="333.5" cy="341" rx="12.5" ry="2"></ellipse>
                    <ellipse id="Oval" fill="#766DF4" opacity="0.1" cx="286.5" cy="374" rx="12.5" ry="2"></ellipse>
                    <ellipse id="Oval" fill="#766DF4" opacity="0.1" cx="44.5" cy="357" rx="12.5" ry="2"></ellipse>
                    <ellipse id="Oval" fill="#766DF4" opacity="0.1" cx="383.5" cy="372" rx="12.5" ry="2"></ellipse>
                    <ellipse id="Oval" fill="#766DF4" cx="396" cy="344" rx="19" ry="3"></ellipse>
                    <path d="M405.076444,338.983032 C405.968536,338.259562 406.617951,337.281412 406.937783,336.179483 C407.180778,335.063884 406.704508,333.730016 405.640191,333.32258 C404.444658,332.866639 403.166506,333.691213 402.194527,334.525487 C401.222548,335.359761 400.119353,336.315295 398.85092,336.14068 C400.17538,334.93983 400.772854,333.134332 400.425526,331.382408 C400.37046,331.025474 400.219281,330.690174 399.988135,330.412322 C399.32233,329.704159 398.121936,330.009736 397.324914,330.567535 C394.797769,332.342793 394.093085,335.767197 394.078505,338.852071 C393.825791,337.741322 394.039626,336.582069 394.034766,335.456769 C394.029906,334.331469 393.714013,333.031554 392.746894,332.439802 C392.153266,332.109446 391.482492,331.942079 390.802937,331.954758 C389.665722,331.915955 388.39729,332.027515 387.624567,332.856939 C386.652588,333.88523 386.910162,335.616833 387.746064,336.737283 C388.581966,337.857732 389.860118,338.580447 391.036212,339.366216 C391.977494,339.927229 392.781167,340.69122 393.3884,341.602265 C393.457599,341.729164 393.514554,341.862342 393.558496,342 L400.6831,342 C402.278087,341.198234 403.756138,340.183236 405.076444,338.983032 Z" id="Path" fill="#766DF4"></path>
                    <path d="M36,347.003003 C36,347.003003 43.2497332,346.776292 45.4459064,345.184488 C47.6420797,343.592684 56.6062449,341.696991 57.1493845,344.2487 C57.6925241,346.80041 68.0499605,356.93007 59.8603596,356.997601 C51.6707588,357.065133 40.8315811,355.695217 38.6495768,354.334948 C36.4675724,352.974679 36,347.003003 36,347.003003 Z" id="Path" fill="#A8A8A8"></path>
                    <path d="M60.0075321,355.207496 C51.8144479,355.268293 40.9706601,354.034997 38.7877276,352.810386 C37.124541,351.881072 36.4630463,348.54162 36.2409731,347 L36,347 C36,347 36.4724962,352.38047 38.6412538,353.600738 C40.8100113,354.821006 51.6679741,356.058644 59.8610583,355.997848 C62.2235393,355.997848 63.0409577,355.207496 62.9984331,354.061052 C62.6676857,354.760209 61.765218,355.194469 60.0075321,355.207496 Z" id="Path" fill="#000000" opacity="0.2"></path>
                </g>
            </g>
        </g>
    </g>
</svg>