<?xml version="1.0" encoding="utf-8"?>
<!-- Generator: Adobe Illustrator 22.1.0, SVG Export Plug-In . SVG Version: 6.00 Build 0)  -->
<svg xmlns="http://www.w3.org/2000/svg" xmlns:xlink="http://www.w3.org/1999/xlink" x="0px" y="0px" viewBox="0 0 905 685"
	 style="enable-background:new 0 0 905 685;" xml:space="preserve">
<style type="text/css">
	.in-the-office-0{fill:#E7EAF3;}
	.in-the-office-1{fill:#377DFF;}
	.in-the-office-2{fill:#F8FAFD;}
	.in-the-office-3{fill:#FFFFFF;}
	.in-the-office-4{fill:#DE4437;}
	.in-the-office-5{fill:#FFC107;}
	.in-the-office-6{fill:#00C9A7;}
	.in-the-office-7{fill:none;stroke:#1E2022;stroke-width:2;stroke-miterlimit:10;}
	.in-the-office-11{fill:#535461;}
	.in-the-office-12{fill:url(#inTheOffice_1_);}
	.in-the-office-13{fill:#FE5858;}
	.in-the-office-14{opacity:0.1;}
	.in-the-office-15{fill:#F2B08D;}
	.in-the-office-16{fill:#F1C413;}
	.in-the-office-17{fill:#39447A;}
	.in-the-office-18{fill:#EC5245;}
	.in-the-office-19{fill:#EDEDF4;}
	.in-the-office-20{opacity:5.000000e-02;}
	.in-the-office-21{fill:#F4F4F8;}
	.in-the-office-22{fill:#E26E69;}
	.in-the-office-23{opacity:0.3;fill:none;stroke:#FFFFFF;stroke-miterlimit:10;}
	.in-the-office-24{fill:#1E2022;}
	.in-the-office-25{fill:none;stroke:#1E2022;stroke-linecap:round;stroke-miterlimit:10;}
	.in-the-office-26{fill:none;stroke:#1E2022;stroke-width:2;stroke-linecap:round;stroke-miterlimit:10;}
	.in-the-office-27{fill:url(#inTheOffice_2_);}
	.in-the-office-28{fill:url(#inTheOffice_3_);}
	.in-the-office-29{fill:#1A2246;}
	.in-the-office-30{fill:#3B477B;}
	.in-the-office-31{opacity:0.1;}
	.in-the-office-32{fill:#E0A17E;}
	.in-the-office-33{fill:#F0F1F5;}
	.in-the-office-34{fill:#293158;}
	.in-the-office-35{opacity:2.000000e-02;}
	.in-the-office-36{fill:#463E3B;}
</style>
<title>in_the_office</title>
<polygon class="in-the-office-0" points="261.4,0 261.4,9.7 261.4,175.8 464.5,175.8 464.5,9.7 464.5,0 "/>
<rect x="262.7" class="in-the-office-1 fill-primary" width="200.5" height="5.7"/>
<rect x="262.7" y="5.5" class="in-the-office-2" width="200.5" height="168.1"/>
<rect x="272" y="31.7" class="in-the-office-3" width="182.3" height="113.8"/>
<circle class="in-the-office-4" cx="266.4" cy="2.8" r="1"/>
<circle class="in-the-office-5" cx="269.3" cy="2.8" r="1"/>
<circle class="in-the-office-6" cx="272.2" cy="2.8" r="1"/>
<polyline class="in-the-office-7" points="290.8,41.4 290.8,130.6 438.2,130.6 "/>
<rect x="303.8" y="103.6" class="in-the-office-1 fill-primary" opacity=".5" width="15.2" height="23.5"/>
<rect x="329.9" y="82.8" class="in-the-office-1 fill-primary" opacity=".7" width="15.2" height="44.4"/>
<rect x="356" y="95.4" class="in-the-office-8" opacity=".5" width="15.2" height="31.8"/>
<rect x="382.1" y="75.8" class="in-the-office-1 fill-primary" opacity=".8" width="15.2" height="51.3"/>
<rect x="408.2" y="57.5" class="in-the-office-1 fill-primary" width="15.2" height="69.6"/>
<polyline class="in-the-office-7" points="311.2,89.3 337.8,65.3 363.9,88 389.5,60.6 415.6,49.7 "/>
<circle class="in-the-office-1 fill-primary" cx="311.2" cy="89.3" r="3"/>
<circle class="in-the-office-1 fill-primary" cx="363.4" cy="87.5" r="3"/>
<circle class="in-the-office-1 fill-primary" cx="390" cy="60.6" r="3"/>
<circle class="in-the-office-1 fill-primary" cx="337.8" cy="64.9" r="3"/>
<circle class="in-the-office-1 fill-primary" cx="415.6" cy="49.7" r="3"/>
<ellipse class="in-the-office-2" cx="450.3" cy="556.4" rx="450.3" ry="128.6"/>
<path class="in-the-office-11" d="M546.4,308.6c0,0,12.4-61.1,60-55.4c0,0,32.8,2.3,39.6,23.8v47.5L546.4,308.6z"/>
<linearGradient id="inTheOffice_1_" gradientUnits="userSpaceOnUse" x1="679.6489" y1="-133.2" x2="679.6489" y2="-337.0979" gradientTransform="matrix(1 0 0 1 -147.48 458.5)">
	<stop  offset="0" style="stop-color:#808080;stop-opacity:0.25"/>
	<stop  offset="0.54" style="stop-color:#808080;stop-opacity:0.12"/>
	<stop  offset="1" style="stop-color:#808080;stop-opacity:0.1"/>
</linearGradient>
<path class="in-the-office-12" d="M657.8,208c-5.6-0.6-10.9-3-16.1-5.3c-8.7-4-17.7-8.1-24.5-15.5c-10.2-11-13.8-27.2-21-40.9
	c-2.6-5.3-6.2-10.2-10.5-14.3c-3.5-3.2-7.6-5.8-12.1-7.5c-8.8-3.5-18.5-3.8-27.5-1l5-0.8l-21.4,6.8c-2.7,0.9-5.6,1.9-6.9,4.6
	s-0.5,6.5,1.4,9s4.6,3.9,7.2,5.3l2.3,1.2c-3.7,8.7-2.6,18.7,2.8,26.4v21.9c-5.3,1.9-10.9,2.6-16.5,2.1c-1.5,0.5-3,1.3-4.2,2.4
	c-2.6,2-5.9,6-7.3,13.4c-2.3,12.5-28,54.9-30.7,59.3l-42,11l0.3,0.2l-0.8,0.2c0,0,0.3,0.3,0.8,0.9c-4.7,0.3-13.1,0.3-19.7-2.8
	c-6.8-3.2-17.7,0.1-23.8,2.4c-1.3,0.5-2,2-1.5,3.3c0.2,0.6,0.6,1,1.1,1.3c8.2,4.6,17.4,7.3,26.8,7.6c10.3,0.5,18.7,0.6,24.4,0.5
	c0.3,1.8-0.2,3.5-1.3,4.9l50.2-7.2c1.5-0.8,2.9-1.8,4.2-2.9c3.1-2.5,5.7-5.4,7.9-8.7l10.8-14.1c0.7,2.4,7.7,28.3,5.4,36.9l-2.5,9.5
	l14.8,1.5v-0.3l44.7,6v-1h0.1l0.2-8.4l51.8-1.7c0,0,9-7.3,5.1-19s-2.5-45.6-2.5-45.6c-1.4-9.4-3.4-18.7-6.2-27.8
	c11.5-1.6,22.6-4.8,33.3-9.4c5.2-2.2,10.4-4.9,14-9.6C669.4,207.3,663.4,208.6,657.8,208z"/>
<rect x="536.5" y="150.5" class="in-the-office-13" width="42" height="65"/>
<rect x="536.5" y="150.5" class="in-the-office-14" width="42" height="65"/>
<path class="in-the-office-15" d="M545.2,174.4c5.3,7,6.3,16.3,2.5,24.2c-6.4,13.8-2.5,33.7,2.7,36.7s25.7,7.2,32.1-1.7s6-34.3,3.9-38
	s-17.8-6.8-17.1-27.7L545.2,174.4z"/>
<path class="in-the-office-14" d="M542.5,200.1c0,0,8.2,55.2,36.1,17.2l-2.3,104l-50.5-6.7L542.5,200.1z"/>
<path class="in-the-office-16" d="M542.5,201c0,0,8.2,55.2,36.1,17.2l-2.3,104l-50.5-6.7L542.5,201z"/>
<path class="in-the-office-15" d="M573.3,298.5c0,0-15.2,1.9-25.7-2.7c0,0-20,5.4-18,10.1s47.9,5,47.9,5L573.3,298.5z"/>
<path class="in-the-office-15" d="M442.9,285c0,0-13.2,2.1-22.7-2.4c-6.6-3.1-17.2,0.1-23.1,2.3c-1.3,0.5-1.9,2-1.4,3.2c0.2,0.5,0.6,1,1.1,1.3
	c7.9,4.5,16.8,7,25.9,7.4c19.4,1,31.9,0.3,31.9,0.3L442.9,285z"/>
<path class="in-the-office-14" d="M569.8,225.8l-7.7,74l7.1-1.3c0,0,11,9.1,1.5,14.6l55.1-1.7c0,0,8.7-7.1,4.9-18.5s-2.4-44.2-2.4-44.2
	s-5.7-41.5-16.9-43.7c0,0-22.8-4.5-36.1-19.3L569.8,225.8z"/>
<path class="in-the-office-17" d="M570.8,225.9l-7.7,74l7.1-1.3c0,0,11,9.1,1.5,14.6l55.1-1.8c0,0,8.7-7.1,4.9-18.5s-2.4-44.2-2.4-44.2
	s-5.7-41.5-16.9-43.7c0,0-22.8-4.5-36.1-19.3L570.8,225.9z"/>
<path class="in-the-office-14" d="M549.1,192c0,0-12.9,10.9-29.2,9.2c0,0-8.2,2.1-10.5,14.9s-29.9,57.8-29.9,57.8l-41,10.7
	c0,0,11.8,11.2,6.7,17.7l48.6-6.9c4.5-2.7,8.3-6.4,11.1-10.8l11-14.3c0,0,7.7,27.2,5.3,36l-2.5,9.2L533,317c0,0,0.7-36.2,4.1-50.3
	c1.5-6.1,2.7-12.2,3.6-18.4c2.3-15.8,6-39.8,7.4-43L549.1,192z"/>
<path class="in-the-office-17" d="M549.7,191.6c0,0-12.9,10.9-29.2,9.2c0,0-8.2,2.1-10.5,14.9s-29.9,57.8-29.9,57.8l-41,10.7
	c0,0,11.8,11.2,6.7,17.7l48.6-6.9c4.5-2.7,8.3-6.4,11.1-10.8l11-14.3c0,0,7.7,27.2,5.3,36l-2.5,9.2l14.3,1.4c0,0,0.7-36.2,4.1-50.3
	c1.5-6.1,2.7-12.2,3.6-18.4c2.3-15.8,6-39.8,7.4-43L549.7,191.6z"/>
<path class="in-the-office-14" d="M573.3,181.8c-2.3-3.7-4.4-5.3-4.1-12.4l-24.1,6.5c2.9,3.7,4.5,8.2,4.8,12.9c1.7,0.5,3.5,0.9,5.3,1.1
	C561.7,190.6,568.3,185.3,573.3,181.8z"/>
<circle class="in-the-office-15" cx="557.9" cy="162.2" r="26.3"/>
<path class="in-the-office-14" d="M520.4,237.9c0,0,4.8,7,1.8,11.2s-3.6,10.6-2.5,14.7"/>
<path class="in-the-office-14" d="M597.4,236.9c0,0,8.8,40.3,6.4,44.1"/>
<path class="in-the-office-14" d="M577.5,292.4c0,0,24.9,1.9,23.5-3.7"/>
<path class="in-the-office-18" d="M545.8,126.5c8.7-2.7,18.1-2.4,26.6,1c4.3,1.7,8.3,4.2,11.8,7.3c4.1,4,7.6,8.7,10.1,13.9
	c6.9,13.2,10.5,29,20.3,39.6c6.5,7.1,15.2,11.1,23.7,15c5,2.3,10.2,4.5,15.6,5.2s11.2-0.6,15.3-4.7c-3.5,4.5-8.5,7.1-13.5,9.3
	c-19.7,8.5-41.2,11.8-62.5,9.6c-6-0.6-12-1.7-17.6-4.4c-4-1.9-7.9-4.9-9.5-9.4c-3.6-10.4,6.6-21.4,4.7-32.4c-1-5.6-5.1-10-9.7-12.7
	s-9.7-4-14.5-5.8c-5.1-2.1-10.1-4.5-14.9-7.1c-2.5-1.3-5.2-2.8-7-5.1s-2.8-6-1.4-8.7s4.1-3.7,6.7-4.5l20.7-6.7"/>
<polygon class="in-the-office-19" points="806.6,331.2 383.5,296.2 329.2,307.5 332.6,383.3 336.3,383.7 340.5,497.5 755.7,572.2 799.8,534.9
	799.8,411.5 805.5,408.2 "/>
<polygon class="in-the-office-20" points="807.2,331.2 806,408.2 760.2,429.6 759.7,349.3 "/>
<polygon class="in-the-office-20" points="799.8,411.5 800.4,532.6 756.3,569.9 759.1,429.6 "/>
<polygon class="in-the-office-20" points="336.9,388.2 759.4,439.8 759.7,430 336.6,384.4 "/>
<polygon class="in-the-office-20" points="799.8,416 799.8,411.5 758,430 758,439.8 "/>
<polygon class="in-the-office-21" points="328.6,307.5 382.9,296.2 806,331.2 758.5,349.3 "/>
<ellipse class="in-the-office-22" cx="849.7" cy="475.5" rx="32.6" ry="12"/>
<ellipse class="in-the-office-20" cx="849.7" cy="474.2" rx="16.6" ry="6.1"/>
<path class="in-the-office-4" d="M817.2,472.9c0,0,35.9,19.9,65.1,2.7c0,0-4,69.1-23.9,75.8h-26.6C831.8,551.3,809.2,504.8,817.2,472.9z"/>
<path class="in-the-office-1 fill-primary" d="M877.9,346.2C887,379.6,848,474.7,848,474.7s-82-62-91.1-95.4c-8.8-33.5,11.2-67.8,44.7-76.6
	C834.6,294.1,868.5,313.4,877.9,346.2L877.9,346.2z"/>
<path class="in-the-office-14" d="M877.9,346.2C887,379.6,848,474.7,848,474.7s-82-62-91.1-95.4c-8.8-33.5,11.2-67.8,44.7-76.6
	C834.6,294.1,868.5,313.4,877.9,346.2L877.9,346.2z"/>
<path class="in-the-office-23" d="M801.2,302.5c0,0,51,77,47.2,172.4"/>
<path class="in-the-office-1 fill-primary" d="M890.9,407.3c0,0-46.3-25.2-40.4,67.7c0,0,38.6-1.4,52.3-32.9c5.5-12.7,0.7-27.5-11.2-34.5L890.9,407.3z"/>
<path class="in-the-office-23" d="M891.6,407.4c0,0-6,48.2-41.2,67.6"/>
<path class="in-the-office-20" d="M878,477.8c-1.3,15.9-6.9,65.3-23.6,70.8h-23.9c0.8,1.7,1.2,2.7,1.2,2.7h26.6c19.9-6.7,23.9-75.8,23.9-75.8
	C880.9,476.4,879.4,477.1,878,477.8z"/>
<circle class="in-the-office-1 fill-primary" cx="691.2" cy="146.8" r="37.3"/>
<circle class="in-the-office-19" cx="691.2" cy="146.8" r="31.7"/>
<circle class="in-the-office-24" cx="691.2" cy="146.8" r="2.3"/>
<line class="in-the-office-25" x1="704.8" y1="123.1" x2="691.2" y2="146.8"/>
<line class="in-the-office-26" x1="691.9" y1="147.1" x2="705.4" y2="154.2"/>
<linearGradient id="inTheOffice_2_" gradientUnits="userSpaceOnUse" x1="271.2713" y1="135.4032" x2="271.2713" y2="-384.8858" gradientTransform="matrix(1 0 0 1 -147.48 458.5)">
	<stop  offset="0" style="stop-color:#808080;stop-opacity:0.25"/>
	<stop  offset="0.54" style="stop-color:#808080;stop-opacity:0.12"/>
	<stop  offset="1" style="stop-color:#808080;stop-opacity:0.1"/>
</linearGradient>
<path class="in-the-office-27" d="M203.4,561.1c-3.9-2.4-5.9-8.4-7-13.5l2.5-0.8c0,0-8.1-84.2-9.9-88.7s-3.6-20.6-3.6-20.6l-2.9-87.8
	c13.5-4.9,19.2-14.4,21.1-18.5c0.7-1.2,1.3-2.5,1.7-3.8c-19-23.3-34.3-86-34.3-86l2.6-6.6l0,0l1.1-2.9c3.8,15.9,20.7,23,20.7,23
	l-0.3-2.3c0.7,0.3,1.1,0.5,1.1,0.5c3.5,2.6,7.3,4,10.9,2.7c11.1-4.2,10.9-23.6,10.8-25.8c0-1.3,0-2,0-2L207,187.7
	c-0.3,2-0.7,4-1.4,6c-0.6-8.4-1.4-24,0.5-32.9c2.1-9.9-18.7-3.1-24.1,8.6c-3.9-5.2-10-8.4-16.5-8.6c-18.9-0.8-31.8-12.7-34-14.9
	c-0.5-2-0.9-4.1-1.1-6.2c7.5-6.7,11-16.7,9.4-26.6c0.5-0.2,1-0.5,1.4-0.7c6.7-4,8.9-12.6,9.3-20.3c0-0.4,0-0.8,0-1.3
	c0.1-2.6-0.5-5.8-3-6.3c-3.3-0.7-5.7,4.3-9,3.7c-1-0.2-1.9-0.8-2.6-1.6c-2.3-2.3-3.8-5.1-6-7.4c-3.4-3.4-8.1-5.1-12.9-5.5
	c-4.8-0.3-9.6,0.2-14.2,1.3c-2.6,0.4-5,1.3-7.3,2.5s-3.9,3.4-4.4,6C91,84,91,84.5,91,85.1c0,0.8,0,1.7,0.1,2.5
	c0,0.4-0.1,0.7-0.1,1.1c-0.5,2.4-2.4,4.1-4.5,5.4s-4.4,2.1-6.3,3.5c-3.1,2.4-5.3,5.8-6.1,9.7c-0.5,2.2-0.7,4.4-0.7,6.6
	c0,2,0.1,4,0.4,6c0.8,6.7,2.7,13.2,5.6,19.3c0.9,2.1,2.2,4.2,3.6,6c2.1,2.3,4.6,4.4,7.3,6c1.1,0.7,2.4,1.5,3.7,1.1
	c0.4-0.1,0.7-0.3,1-0.6c1.9-1.5,2.5-4,2.4-6.5c0,0.3,0.1,0.5,0.1,0.8l0.2,0.1c0.1,1.6,0.1,3.2,0,4.9c-1.7,1.4-13,10.9-25.7,16.1
	c-8.7,3.6-15.3,10.9-18,19.9c-1.9,6.5-4.8,12.7-8.5,18.4c-1.8,2.7-9.9,39.4-15.4,46.6c-4.5,6,13.7,39,26.6,51.7l0.6,0.5
	c3,3.1,5.8,5.3,8,6c-0.3-2-0.5-4.1-0.5-6.1c1.5,2,2.9,4,4.2,5.9c-0.5,2.8-1.1,5.6-1.9,8.3c-9,34-3.6,34.9-3.6,34.9s0.3,0.1,0.7,0.3
	c0.5,1.4,1.1,1.5,1.1,1.5s0.3,0.1,0.8,0.3c0.2,39.2,6.4,82.1,6.4,82.1s-5.4,53.8-2.7,63.6s0,52,0,52l1.9,0.5c-1,5.3-3,11.8-7.3,15.6
	c-8.1,7.2-16.3,19.7-5.4,23.3s25.3,0.9,27.1-9.9l0.9-8.1l12.6-4.5l-2.2-15c3.6-5.7-0.6-34.3-0.6-34.3s2.7-9.9,6.3-68.1
	c0.1-1.6,0.2-3.2,0.3-4.8c0-0.5,0.1-0.9,0.1-1.4c0.1-1.2,0.2-2.4,0.3-3.5c0-0.4,0.1-0.8,0.1-1.2c0.1-1.5,0.3-3,0.5-4.4
	c0-0.2,0.1-0.4,0.1-0.7c0.2-1.2,0.3-2.4,0.5-3.6l0.2-1.2c0.2-1.1,0.3-2.2,0.5-3.2c0-0.3,0.1-0.6,0.1-0.9c0.2-1.3,0.4-2.6,0.7-3.9
	l0.2-0.8c0.2-1,0.4-2,0.6-2.9l0.2-1.1c0.2-1,0.4-2,0.6-3l0.1-0.6c0.3-1.2,0.5-2.3,0.8-3.4l0.2-0.9c0.2-0.8,0.4-1.7,0.6-2.5l0.2-0.9
	c0.3-1,0.5-2,0.8-3v-0.1c0.3-1,0.6-1.9,0.9-2.9l0.3-0.8c0.2-0.7,0.4-1.4,0.7-2.1l0.2-0.7c0.3-0.9,0.6-1.7,0.9-2.5l0.1-0.4
	c0.3-0.7,0.5-1.4,0.8-2.1l0.3-0.7c0.2-0.6,0.5-1.2,0.7-1.8l0.2-0.5c0.3-0.7,0.6-1.4,0.9-2.1l0.2-0.4c0.2-0.5,0.5-1,0.7-1.5l0.3-0.6
	c0.2-0.5,0.5-1,0.7-1.5l0.1-0.3c0.3-0.6,0.5-1.1,0.8-1.6l0.2-0.4l0.6-1.1l0.2-0.4l0.7-1.3v-0.1l0.7-1.2l0.2-0.3
	c1.1-1.9,2.3-3.7,3.6-5.4c0,0,31.7,77.1,30.9,90.5s5.4,43,5.4,43s2.7,9.9,3.6,16.1c0.8,5.3,5.5,26.2,6.8,32.3l0,0l0.2,1v0.1l0.1,0.3
	v0.2v0.1l-0.9,10.9l11.7,7.2c6.3,17.9,19.9,17,30.7,12.5S210.7,565.5,203.4,561.1z M190.2,196.6l-0.1-0.1v-0.2L190.2,196.6z
	 M71.9,276.9c-0.6-0.5-1.3-1.1-2-1.8c-0.8-0.8-1.5-1.6-2.2-2.5l0.5,0.5c0.7,0.7,1.4,1.3,2.1,1.8c0.1-10.3-0.3-20.5-1.2-30.8
	c0.4-0.7,0.8-1.4,1.2-1.9C71.5,253.7,72.1,265.3,71.9,276.9z"/>
<linearGradient id="inTheOffice_3_" gradientUnits="userSpaceOnUse" x1="1919.6865" y1="-184.5" x2="1919.6865" y2="-318.8" gradientTransform="matrix(-1 0 0 1 2046.52 458.5)">
	<stop  offset="0" style="stop-color:#808080;stop-opacity:0.25"/>
	<stop  offset="0.54" style="stop-color:#808080;stop-opacity:0.12"/>
	<stop  offset="1" style="stop-color:#808080;stop-opacity:0.1"/>
</linearGradient>
<path class="in-the-office-28" d="M97.1,139.8v0.2l-0.2-0.3L97.1,139.8z M69.8,272.3c-3.6-3.9-6.9-8.9-6.5-14.4c0.7-8.5,4.6-15.6,6.8-18.9
	c1.2,11.6,1.8,23.3,1.7,35C71.1,273.6,70.4,273,69.8,272.3z M190.3,192.7l0.1,0.3l-0.1-0.1V192.7z"/>
<path class="in-the-office-29" d="M193.4,533.5c0,0,0.9,16.7,7.9,21.1s21.1,20.2,10.5,24.6s-23.7,5.3-29.9-12.3l-11.4-7l1.8-22L193.4,533.5z"/>
<path class="in-the-office-29" d="M73.9,538.8c0,0,0,16.7-7.9,23.7s-15.8,19.3-5.3,22.8s24.6,0.9,26.4-9.7l0.9-7.9l12.3-4.4l-3.5-24.6H73.9
	V538.8z"/>
<path class="in-the-office-30" d="M180.2,327.1l3.5,106.3c0,0,1.8,15.8,3.5,20.2s9.7,86.9,9.7,86.9l-25.5,8.8c0,0-6.1-27.2-7-33.4
	s-3.5-15.8-3.5-15.8s-6.1-29-5.3-42.2s-29.9-88.7-29.9-88.7s-18.4,22-22,79S97.6,515,97.6,515s4.4,30.7,0,34.3s-26.4-2.6-26.4-2.6
	s2.6-41.3,0-50.9s2.6-62.3,2.6-62.3s-16.6-115.8,4.4-138.7l91.3-6.1L180.2,327.1z"/>
<g class="in-the-office-31">
	<path d="M191.6,540.5c0,0-7.9-82.5-9.7-86.9s-3.5-20.2-3.5-20.2l-3.5-106.3l-10.4-38.3l5.2-0.4l10.5,38.6l3.5,106.3
		c0,0,1.8,15.8,3.5,20.2s9.6,86.9,9.6,86.9l-25.5,8.8l-0.4-1.7L191.6,540.5z"/>
	<path d="M92.4,549.3c4.4-3.5,0-34.3,0-34.3s2.6-9.7,6.1-66.7s22-79,22-79s0.7,1.8,2,4.9c-5.5,9.3-16.1,32.2-18.7,74.1
		c-3.5,57.1-6.1,66.7-6.1,66.7s4.4,30.7,0,34.3c-1.4,1.1-4.5,1.3-8.1,1C90.6,550.2,91.6,549.8,92.4,549.3z"/>
</g>
<path class="in-the-office-32" d="M131,119.9c0,0-7,31.6,12.3,48.3S97.6,198,86.2,184s7.9-21.1,7.9-21.1s9.7-7.9,0-31.6L131,119.9z"/>
<path class="in-the-office-33" d="M136.3,155l-22.8,24.6L95.8,156L81,227l5.3,82.5c0,0,42.2,11.4,65.9-10.5l-7-76.4L136.3,155z"/>
<path class="in-the-office-14" d="M138,306l3.5,11.5c0,0-41.3,7-55.3,3.5l3.5-12.3C89.7,308.7,128.4,318.3,138,306z"/>
<path class="in-the-office-29" d="M138,304.3l3.5,11.4c0,0-41.3,7-55.3,3.5l3.5-12.3C89.7,306.9,128.4,316.6,138,304.3z"/>
<path class="in-the-office-14" d="M130.1,148.8c0,0,13.2,14,33.4,14.9s22.8,25.5,22.8,25.5l7,65c0,0-16.7-7-20.2-22.8l-4.4,11.4
	c0,0,14.9,61.5,33.4,84.3c0,0-7.9,26.4-46.5,22.8c0,0-21.1-9.7-20.2-34.3l-6.8-38.5c-2.4-13.5-3.4-27.3-3-41L130.1,148.8z"/>
<path class="in-the-office-34" d="M131,147.1c0,0,13.2,14.1,33.4,14.9s22.8,25.5,22.8,25.5l7,65c0,0-16.7-7-20.2-22.8l-4.4,11.4
	c0,0,15,61.4,33.4,84.3c0,0-7.9,26.4-46.5,22.8c0,0-21.1-9.7-20.2-34.3l-6.9-38.4c-2.4-13.5-3.4-27.3-3-41L131,147.1z"/>
<path class="in-the-office-14" d="M98.3,153.1c0,0-9.8,11.4-23.2,17c-8.5,3.6-14.9,10.7-17.5,19.5c-1.9,6.4-4.6,12.5-8.3,18.1
	c-1.8,2.6-9.7,38.6-14.9,45.7s21.1,51.8,32.5,55.3c0,0-4.4-24.6,13.2-27.2c0,0-15.8-9.7-14.9-21.1s7.9-20.2,7.9-20.2
	s6.1,44.8-2.6,78.2S67,352.7,67,352.7s36,17.6,30.7-65s-0.9-113.3-0.9-113.3L98.3,153.1z"/>
<path class="in-the-office-34" d="M65.1,306.9c0,0-3.5-19.4,8.1-25.6c-0.4,11.6-1.6,24.1-4.6,35.3c-8.8,33.4-3.5,34.3-3.5,34.3
	c0.9,0.4,1.9,0.8,2.9,1c8.4,2.1,32.2,2.2,27.9-66C90.6,203.3,95,172.5,95,172.5l3.5-20.2c0,0-11.8,10.4-25.2,16
	c-8.5,3.6-14.9,10.7-17.5,19.5c-1.9,6.4-4.6,12.5-8.3,18.1c-1.8,2.6-9.7,38.6-14.9,45.7c-4.4,5.9,13.3,38.2,25.9,50.6
	C61,304.7,63.3,306.3,65.1,306.9z M64.6,265.3c-1-2.1-1.4-4.4-1.3-6.7c0.6-8.4,4.6-15.4,6.7-18.5c0.7-1.1,1.2-1.7,1.2-1.7
	c1.5,12.5,2.2,25,2.1,37.6C70.3,273.5,66.6,269.7,64.6,265.3L64.6,265.3z"/>
<path class="in-the-office-14" d="M110.8,150.6c-4.4,0-8.7-1-12.6-2.9c-0.7-5-2-10-4-14.7l36.9-11.4c-1.3,7.1-1.6,14.3-0.8,21.5
	C125,147.9,118,150.6,110.8,150.6z"/>
<circle class="in-the-office-32" cx="110.8" cy="119.9" r="29"/>
<g class="in-the-office-31">
	<path d="M199.5,325.4c-18.4-22.8-33.4-84.3-33.4-84.3l4.4-11.4c0.4,1.7,0.9,3.3,1.6,4.9l-2.5,6.5c0,0,14.9,61.5,33.4,84.3
		c0,0-7.2,24-41.4,23.1C192.8,347.6,199.5,325.4,199.5,325.4z"/>
</g>
<path class="in-the-office-32" d="M203.9,199.8c0,0-2.6-25.5,0-37.8s-30.7,1.8-23.7,18.4s14,26.4,14,26.4L203.9,199.8z"/>
<path class="in-the-office-14" d="M204.8,188.4l10.5,39.5c0,0,0.9,21.1-10.5,25.5s-25.5-21.1-25.5-21.1l7-36.9
	C186.3,195.4,201.3,212.1,204.8,188.4z"/>
<path class="in-the-office-34" d="M204.8,190.1l10.5,39.5c0,0,0.9,21.1-10.5,25.5S179.3,234,179.3,234l7-36.9
	C186.3,197.1,201.3,213.8,204.8,190.1z"/>
<path class="in-the-office-35" d="M204.8,190.1l10.5,39.5c0,0,0.9,21.1-10.5,25.5S179.3,234,179.3,234l7-36.9
	C186.3,197.1,201.3,213.8,204.8,190.1z"/>
<path class="in-the-office-14" d="M68.7,316.6c-8.8,33.4-3.5,34.3-3.5,34.3c0.9,0.4,1.9,0.8,2.9,1c8.9-17.8,10.4-46.9,9.6-72c0-0.2,0-0.4,0-0.6
	c-0.5-15.9-1.9-31.7-4.1-47.4c-1,0.9-2.2,3.9-3.4,8.3c0.7-1.1,1.2-1.7,1.2-1.7c1.5,12.5,2.2,25,2.1,37.6c0.1,1.8,0.1,3.5-0.1,5.3
	C72.9,293,71.6,305.4,68.7,316.6z"/>
<path class="in-the-office-32" d="M64.7,300.3l1,1.3l0,0c3.4,4.3,6.3,8.8,8.8,13.7c5.3,11.4,23.6-19.8,7.9-29c-2.6-1.5-5-2.8-7.3-4l0,0l-1.8-0.9
	C66.1,285.2,64.7,294.1,64.7,300.3z"/>
<path class="in-the-office-14" d="M64.7,300.3l1,1.3l0,0c0,0,0.4-16.4,9.4-19.4l0,0l-1.8-0.9C66.1,285.2,64.7,294.1,64.7,300.3z"/>
<path class="in-the-office-14" d="M111.2,111.9c1.6-0.6,3.3-1.4,5-0.9c0.8,0.3,1.4,0.8,2,1.4c2.3,2.2,4.5,4.7,7.6,5.3c1.9,0.3,3.8,0.2,5.7-0.3
	c3.2-0.6,6.6-1.2,9.4-2.9c6.5-3.9,8.6-12.3,9-19.9c0.1-2.6-0.4-5.9-2.9-6.4c-3.2-0.7-5.5,4.2-8.8,3.6c-1-0.2-1.9-0.8-2.5-1.5
	c-2.2-2.2-3.7-5-5.9-7.3c-3.4-3.2-7.9-5.1-12.5-5.4s-9.3,0.2-13.8,1.3c-2.5,0.4-4.9,1.2-7.1,2.4c-2.2,1.2-3.8,3.4-4.3,5.9
	c-0.2,1.7,0.2,3.4-0.1,5.1c-0.5,2.3-2.4,4.1-4.4,5.3s-4.3,2-6.2,3.4c-3,2.4-5.1,5.7-5.9,9.5c-0.8,3.7-0.9,7.6-0.3,11.4
	c0.8,6.6,2.6,12.9,5.4,18.9c0.9,2.1,2.1,4.1,3.5,5.9c2.1,2.3,4.5,4.3,7.1,5.9c1.1,0.7,2.4,1.5,3.6,1.1c0.4-0.1,0.7-0.3,1-0.6
	c2.5-2.1,2.7-5.9,2-9s-2.1-6.2-2.3-9.4c-0.1-0.9,0.1-1.8,0.5-2.6c0.5-0.7,1.1-1.2,1.8-1.8c0.9-1,1.5-2.1,2-3.3c1.3-3,2.7-6.1,3-9.5
	c0.3-2.7-0.3-5.4-1.7-7.8C103.8,112.3,107.7,113.1,111.2,111.9z"/>
<path class="in-the-office-36" d="M111.2,110.9c1.6-0.6,3.3-1.4,5-0.9c0.8,0.3,1.4,0.8,2,1.4c2.3,2.2,4.5,4.7,7.6,5.3c1.9,0.3,3.8,0.2,5.7-0.3
	c3.2-0.6,6.6-1.2,9.4-2.9c6.5-3.9,8.6-12.3,9-19.9c0.1-2.6-0.4-5.9-2.9-6.4c-3.2-0.7-5.5,4.2-8.8,3.6c-1-0.2-1.9-0.8-2.5-1.5
	c-2.2-2.2-3.7-5-5.9-7.3c-3.4-3.2-7.9-5.1-12.5-5.4s-9.3,0.2-13.8,1.3c-2.5,0.4-4.9,1.2-7.1,2.4c-2.2,1.2-3.8,3.4-4.3,5.9
	c-0.2,1.7,0.2,3.4-0.1,5.1c-0.5,2.3-2.4,4.1-4.4,5.3s-4.3,2-6.2,3.4c-3,2.4-5.1,5.7-5.9,9.5c-0.8,3.7-0.9,7.6-0.3,11.4
	c0.8,6.6,2.6,12.9,5.4,18.9c0.9,2.1,2.1,4.1,3.5,5.9c2.1,2.3,4.5,4.3,7.1,5.9c1.1,0.7,2.4,1.5,3.6,1.1c0.4-0.1,0.7-0.3,1-0.6
	c2.5-2.1,2.7-5.9,2-9s-2.1-6.2-2.3-9.4c-0.1-0.9,0.1-1.8,0.5-2.6c0.5-0.7,1.1-1.2,1.8-1.8c0.9-1,1.5-2.1,2-3.3c1.3-3,2.7-6.1,3-9.5
	c0.3-2.7-0.3-5.4-1.7-7.8C103.8,111.3,107.7,112.1,111.2,110.9z"/>
</svg>
