<?xml version="1.0" encoding="utf-8"?>
<!-- Generator: Adobe Illustrator 23.0.0, SVG Export Plug-In . SVG Version: 6.00 Build 0)  -->
<svg xmlns="http://www.w3.org/2000/svg" xmlns:xlink="http://www.w3.org/1999/xlink" x="0px" y="0px"
	 viewBox="0 0 582.3 585.8" style="enable-background:new 0 0 582.3 585.8;" xml:space="preserve">
<style type="text/css">
	.knowledgebase-community-0{fill:#FFFFFF;stroke:#BDC5D1;stroke-width:1.8843;stroke-linecap:round;stroke-linejoin:round;stroke-miterlimit:10;}
	.knowledgebase-community-1{fill:#FFFFFF;stroke:#BDC5D1;stroke-width:2.3383;stroke-linecap:round;stroke-linejoin:round;stroke-miterlimit:10;}
	.knowledgebase-community-2{fill:#1E2022;}
	.knowledgebase-community-3{fill:#DFE2EC;}
	.knowledgebase-community-4{fill:#8E4626;}
	.knowledgebase-community-5{fill:#19A0FF;}
	.knowledgebase-community-6{opacity:0.1;fill:#1E2022;}
	.knowledgebase-community-7{fill:#377DFF;}
	.knowledgebase-community-8{fill:#FFC107;}
	.knowledgebase-community-9{fill:none;stroke:#1E2022;stroke-width:3.1093;stroke-linecap:round;stroke-linejoin:round;stroke-miterlimit:10;}
	.knowledgebase-community-10{fill:none;stroke:#1E2022;stroke-width:2.1749;stroke-linecap:round;stroke-linejoin:round;stroke-miterlimit:10;}
	.knowledgebase-community-11{fill:#292D30;}
	.knowledgebase-community-12{fill:#E7EAF3;}
	.knowledgebase-community-13{fill:#FFFFFF;fill-opacity:0.3;stroke:#FFC107;stroke-width:1.5547;stroke-linecap:round;stroke-linejoin:round;stroke-miterlimit:10;}
	.knowledgebase-community-14{fill:#FFFFFF;stroke:#FFC107;stroke-width:1.5547;stroke-linecap:round;stroke-linejoin:round;stroke-miterlimit:10;}
	.knowledgebase-community-15{fill:none;stroke:#FFC107;stroke-width:1.5547;stroke-linecap:round;stroke-linejoin:round;stroke-miterlimit:10;}
	.knowledgebase-community-16{fill:none;stroke:#377DFF;stroke-width:1.7303;stroke-linecap:round;stroke-linejoin:round;stroke-miterlimit:10;}
	.knowledgebase-community-17{opacity:0.5;fill:none;stroke:#BDC5D1;stroke-width:1.7303;stroke-linecap:round;stroke-linejoin:round;stroke-miterlimit:10;}
	.knowledgebase-community-18{opacity:0.5;fill:#BDC5D1;}
	.knowledgebase-community-19{opacity:0.5;fill:none;stroke:#FFFFFF;stroke-width:1.7303;stroke-linecap:round;stroke-linejoin:round;stroke-miterlimit:10;}
	.knowledgebase-community-20{fill:none;stroke:#FFFFFF;stroke-width:1.7303;stroke-linecap:round;stroke-linejoin:round;stroke-miterlimit:10;}
	.knowledgebase-community-21{fill:#F4B20C;}
	.knowledgebase-community-22{fill:#FFFFFF;}
	.knowledgebase-community-23{fill:none;stroke:#BDC5D1;stroke-width:1.7291;stroke-linecap:round;stroke-miterlimit:10;}
	.knowledgebase-community-24{fill:none;stroke:#BDC5D1;stroke-width:1.7291;stroke-linecap:round;stroke-miterlimit:10;stroke-dasharray:9.8489,13.7885;}
	.knowledgebase-community-25{fill:none;stroke:#BDC5D1;stroke-width:1.7291;stroke-linecap:round;stroke-miterlimit:10;stroke-dasharray:14.7734,13.7885,9.8489,13.7885;}
	.knowledgebase-community-26{fill:none;stroke:#BDC5D1;stroke-width:1.7291;stroke-linecap:round;stroke-miterlimit:10;stroke-dasharray:9.6291,13.4807;}
	.knowledgebase-community-27{fill:none;stroke:#BDC5D1;stroke-width:1.7291;stroke-linecap:round;stroke-miterlimit:10;stroke-dasharray:14.4436,13.4807,9.6291,13.4807;}
</style>
<g>
	<rect x="120.3" y="499.7" class="knowledgebase-community-0" width="121.1" height="18"/>
	<line class="knowledgebase-community-0" x1="139.1" y1="505" x2="139.1" y2="512.7"/>
	<line class="knowledgebase-community-0" x1="229" y1="505" x2="229" y2="511.9"/>
	<line class="knowledgebase-community-0" x1="234.7" y1="505" x2="234.7" y2="511.9"/>
	<line class="knowledgebase-community-0" x1="189.1" y1="508.9" x2="219.6" y2="508.9"/>
</g>
<g>
	<rect x="112.5" y="476" class="knowledgebase-community-0" width="121.1" height="23.1"/>
	<line class="knowledgebase-community-0" x1="131.2" y1="482.9" x2="131.2" y2="492.7"/>
	<line class="knowledgebase-community-0" x1="221.1" y1="482.9" x2="221.1" y2="491.7"/>
	<line class="knowledgebase-community-0" x1="226.9" y1="482.9" x2="226.9" y2="491.7"/>
	<line class="knowledgebase-community-0" x1="181.3" y1="487.8" x2="211.7" y2="487.8"/>
</g>
<g>
	<rect x="118.8" y="557.1" class="knowledgebase-community-1" width="121.1" height="27.7"/>
	<line class="knowledgebase-community-1" x1="137.5" y1="565.4" x2="137.5" y2="577.2"/>
	<line class="knowledgebase-community-1" x1="227.4" y1="565.4" x2="227.4" y2="576"/>
	<line class="knowledgebase-community-1" x1="233.2" y1="565.4" x2="233.2" y2="576"/>
	<line class="knowledgebase-community-1" x1="187.6" y1="571.3" x2="218" y2="571.3"/>
</g>
<g>
	<rect x="137.5" y="538" class="knowledgebase-community-0" width="121.1" height="18"/>
	<line class="knowledgebase-community-0" x1="156.3" y1="543.3" x2="156.3" y2="551"/>
	<line class="knowledgebase-community-0" x1="246.2" y1="543.3" x2="246.2" y2="550.2"/>
	<line class="knowledgebase-community-0" x1="252" y1="543.3" x2="252" y2="550.2"/>
	<line class="knowledgebase-community-0" x1="206.3" y1="547.2" x2="236.8" y2="547.2"/>
</g>
<g>
	<rect x="112.1" y="518.8" class="knowledgebase-community-0" width="121.1" height="18"/>
	<line class="knowledgebase-community-0" x1="130.9" y1="524.2" x2="130.9" y2="531.9"/>
	<line class="knowledgebase-community-0" x1="220.7" y1="524.2" x2="220.7" y2="531.1"/>
	<line class="knowledgebase-community-0" x1="226.5" y1="524.2" x2="226.5" y2="531.1"/>
	<line class="knowledgebase-community-0" x1="180.9" y1="528" x2="211.4" y2="528"/>
</g>
<path class="knowledgebase-community-2" d="M444.4,248.9c0,0-3.5,21.7,17.1,19.6c20.5-2.1,34.7-1.9,34.7-1.9l-5.2-41.8L444.4,248.9z"/>
<path class="knowledgebase-community-3" d="M200.9,472L200.9,472c-1.5,0.7-3,0.7-3.7-0.7l-78.5-140.6c-0.7-1.5,0-2.2,0.7-3l0,0c1.5-0.7,2.2,0,3,0.7
	L200.9,469C202.4,469.8,201.6,471.3,200.9,472z"/>
<path class="knowledgebase-community-3" d="M366.2,475.1H199.1c-2.3,0-4.2-1.9-4.2-4.2l0,0c0-2.3,1.9-4.2,4.2-4.2h167.1c2.3,0,4.2,1.9,4.2,4.2l0,0
	C370.4,473.3,368.5,475.1,366.2,475.1z"/>
<path class="knowledgebase-community-4" d="M279.8,466.2c0,0,9.5-24.8,52.9-15.6c43.4,9.2,25.3,24.5,25.3,24.5l-64-5.2L279.8,466.2z"/>
<path class="knowledgebase-community-5 fill-primary-lighter" d="M436.2,420.5l-102.5,30.3c0,0-10.3,18.6,28.5,16.9s82.5-19.1,82.5-19.1L436.2,420.5z"/>
<path class="knowledgebase-community-6" d="M436.2,420.5l-102.5,30.3c0,0-10.3,18.6,28.5,16.9s82.5-19.1,82.5-19.1L436.2,420.5z"/>
<path class="knowledgebase-community-7 fill-primary" d="M479.8,267.1c0,0-21.2,5.3-26.2,28.1c-5,22.8-15.7,52.9-26.3,121.3s26.2,79.2,26.2,79.2s52.1,17.3,78.8,15
	c26.6-2.3,48.5,0,48.5,0s6.1-111.9-6.5-163.3s-24.2-77.1-51.9-89.5L479.8,267.1z"/>
<path class="knowledgebase-community-8" d="M479.8,267.1c0,0-29.1,23.5,4.2,18.7s47-24,47-24l-8.7-4L479.8,267.1z"/>
<path class="knowledgebase-community-4" d="M420.6,195.3c0,0,4,1,1.9,9c-2.1,8.1-7.9,21.5,7.7,21.9c0,0,9,29.7,22,27.4c13-2.3,29.7-15.1,29.7-15.1v33.9
	c0,0,11.5,4,40.4-14.6c0,0-14.4-37.7-25.1-44.9l12.8-14.7L486.3,168h-75.4C410.9,168,406.8,181.2,420.6,195.3z"/>
<path class="knowledgebase-community-2" d="M414.5,175.4c0,0,13.3,16.1,36.5,13c23.3-3.1,26.8,2.3,26.8,2.3s2.4-7.7,12.9-4.5c10.5,3.3,11.3,19.7,6.8,22.9
	s18.8,41.2,18.8,41.2s64.9-23.1,41.9-58.2c-20.2-30.8-38.8-51.3-65.4-66.7c-8-4.6-17.3-6.5-26.5-5.5c-11.4,1.2-26.3,4.7-33.4,14.4
	c-8.9,12.1-21.4,18.8-27.8,21.6c-4.8,2.1-8.6,6.2-9.7,11.3c-1.5,7.2,1.9,17.4,24,27.5C419.5,194.7,413.5,183.5,414.5,175.4z"/>
<path class="knowledgebase-community-9" d="M429.4,196c0,0,2.2-4.3,10.2-2.4"/>
<path class="knowledgebase-community-10" d="M444.2,233.9c0,0-3.4,3.7-7.2,4.3"/>
<ellipse transform="matrix(0.9342 -0.3568 0.3568 0.9342 -43.6803 168.7482)" class="knowledgebase-community-2" cx="435.5" cy="202.8" rx="3" ry="5.1"/>
<polygon class="knowledgebase-community-7 fill-primary" points="364.4,463.1 360.8,485.1 359.8,491.5 465.3,499.2 469.2,448.6 "/>
<path class="knowledgebase-community-11" d="M268,486.4c0,0-31.9,13.7-23.5,42c0.9,3.2,3.1,5.9,5.9,7.6l38.1,22.9l20.3-31L268,486.4z"/>
<polygon class="knowledgebase-community-8" points="353.9,484.4 358,463.5 364.4,463.1 360.8,485.1 "/>
<path class="knowledgebase-community-2" d="M580.8,510.6c0,0,1.2,66.7-59.8,69.8c0,0-77.4,12.3-179,0c0,0-108.5,14.6-72.8-12.3s39.5-21.9-5-76.3
	c0,0-0.4-9.2,19.9-20.3C304.5,460.4,580.8,510.6,580.8,510.6z"/>
<path class="knowledgebase-community-5 fill-primary-lighter" d="M364.4,463.1c0,0,65.2,38.6,105.7-67.2c10-26.1,20.3-52.7,34.4-77c3.9-6.8,7.5-16,15.6-18.6
	c8.4-2.7,17.3,2.3,20.8,10.2c3.3,7.4,3,15.9,3.6,23.8c0.9,13.5,2.8,27,0.4,40.4c-2.2,12.3-7.1,24.1-14.4,34.3
	c-1.2,1.7-2.4,3.3-3.7,4.9c-30.7,37.6-48.1,77.9-108.5,69.5s-56-7.9-56-7.9L364.4,463.1z"/>
<path class="knowledgebase-community-6" d="M364.4,463.1c0,0,65.2,38.6,105.7-67.2c10-26.1,20.3-52.7,34.4-77c3.9-6.8,7.5-16,15.6-18.6
	c8.4-2.7,17.3,2.3,20.8,10.2c3.3,7.4,3,15.9,3.6,23.8c0.9,13.5,2.8,27,0.4,40.4c-2.2,12.3-7.1,24.1-14.4,34.3
	c-1.2,1.7-2.4,3.3-3.7,4.9c-30.7,37.6-48.1,77.9-108.5,69.5s-56-7.9-56-7.9L364.4,463.1z"/>
<polygon class="knowledgebase-community-12" points="531,261.7 531.2,262.5 530.7,262.2 "/>
<path class="knowledgebase-community-9" d="M486.7,193.8c0,0,4.7,1.4,5,7"/>
<ellipse transform="matrix(0.9651 -0.2618 0.2618 0.9651 -38.2992 120.3454)" class="knowledgebase-community-13" cx="432.5" cy="203.9" rx="4.6" ry="13.4"/>
<line class="knowledgebase-community-14" x1="436.9" y1="201.6" x2="479.2" y2="186"/>
<path class="knowledgebase-community-15" d="M427.1,200c0,0-2.1-1.2-3.5-0.4"/>
<path class="knowledgebase-community-16" d="M247.4,176.7c0,0.9-0.7,1.6-1.6,1.6c-0.9,0-1.6-0.7-1.6-1.6c0-0.9,0.7-1.6,1.6-1.6
	C246.7,175,247.4,175.7,247.4,176.7z"/>
<path class="knowledgebase-community-17" d="M255,176.7c0,0.9-0.7,1.6-1.6,1.6c-0.9,0-1.6-0.7-1.6-1.6c0-0.9,0.7-1.6,1.6-1.6S255,175.7,255,176.7z"/>
<path class="knowledgebase-community-17" d="M262.6,176.7c0,0.9-0.7,1.6-1.6,1.6s-1.6-0.7-1.6-1.6c0-0.9,0.7-1.6,1.6-1.6
	C261.9,175,262.6,175.7,262.6,176.7z"/>
<path class="knowledgebase-community-17" d="M292.4,190.8c0.5,0.8,0.8,1.7,1.1,2.6"/>
<path class="knowledgebase-community-17" d="M275.6,182.9c5.6-1,11.1,1,14.6,5"/>
<path class="knowledgebase-community-17" d="M273,179c1.4-10.3-5.5-20.1-15.9-22c-10.7-2.1-21.1,5-23.1,15.7c-1,5.5,0.3,11,3.3,15.2l-2.9,8.7l9.3-3
	c1.8,1,3.9,1.8,6,2.2c3.2,0.6,6.3,0.4,9.2-0.5"/>
<path class="knowledgebase-community-18" d="M274.2,184.4c10.7-2,21.1,5,23.1,15.7c1,5.5-0.3,11-3.3,15.2l2.9,8.7l-9.3-3c-1.8,1-3.9,1.8-6,2.2
	c-10.7,2-21.1-5-23.1-15.7C256.4,196.8,263.5,186.5,274.2,184.4z"/>
<path class="knowledgebase-community-7" d="M274.8,178.6c10.7-2,21.1,5,23.1,15.7c1,5.5-0.3,11-3.3,15.2l2.9,8.7l-9.3-3c-1.8,1-3.9,1.8-6,2.2
	c-10.7,2-21.1-5-23.1-15.7C257,191,264.1,180.6,274.8,178.6z"/>
<circle class="knowledgebase-community-19" cx="286.1" cy="198.2" r="1.6"/>
<circle class="knowledgebase-community-19" cx="278.5" cy="198.2" r="1.6"/>
<circle class="knowledgebase-community-20" cx="270.9" cy="198.2" r="1.6"/>
<path class="knowledgebase-community-18" d="M108.9,173.6c0-14.9-12-26.9-26.9-26.9c-14.9,0-26.9,12-26.9,26.9c0,4.6,1.1,8.9,3.2,12.7
	c6.7,14.9,24.4,26.2,24.4,26.2V202v-1.5C97.2,200.1,108.9,188.2,108.9,173.6z"/>
<path class="knowledgebase-community-21" d="M79.4,202v10.5c0,0-25.8-16.4-26.9-35.8h26.9V202z"/>
<circle class="knowledgebase-community-8" cx="78.7" cy="173.6" r="26.9"/>
<path class="knowledgebase-community-22" d="M78.7,160.3L78.7,160.3c-2,0-3.5,1.7-3.3,3.7l2.1,16.8c0.2,1.4,2.2,1.4,2.4,0L82,164
	C82.2,162.1,80.7,160.3,78.7,160.3L78.7,160.3z"/>
<circle class="knowledgebase-community-22" cx="78.7" cy="185.3" r="1.4"/>
<g>
	<g>
		<line class="knowledgebase-community-23" x1="177.4" y1="316.8" x2="181.1" y2="311.6"/>
		<line class="knowledgebase-community-24" x1="189.1" y1="300.3" x2="198.8" y2="286.7"/>
		<line class="knowledgebase-community-25" x1="202.8" y1="281" x2="229.1" y2="244.1"/>
		<line class="knowledgebase-community-23" x1="233.1" y1="238.5" x2="236.8" y2="233.2"/>
	</g>
</g>
<g>
	<g>
		<line class="knowledgebase-community-23" x1="156.3" y1="317.1" x2="152.7" y2="311.7"/>
		<line class="knowledgebase-community-26" x1="145.3" y1="300.5" x2="136.3" y2="286.8"/>
		<line class="knowledgebase-community-27" x1="132.6" y1="281.2" x2="108.1" y2="244.2"/>
		<line class="knowledgebase-community-23" x1="104.4" y1="238.6" x2="100.9" y2="233.2"/>
	</g>
</g>
</svg>
