<?xml version="1.0" encoding="utf-8"?>
<!-- Generator: Adobe Illustrator 22.1.0, SVG Export Plug-In . SVG Version: 6.00 Build 0)  -->
<svg xmlns="http://www.w3.org/2000/svg" xmlns:xlink="http://www.w3.org/1999/xlink" x="0px" y="0px"
	 viewBox="0 0 168.6 78.8" style="enable-background:new 0 0 168.6 78.8;" xml:space="preserve">
<style type="text/css">
	.portfolio-0{fill:#F6F9FC;}
	.portfolio-1{fill:#FFC107;}
	.portfolio-2{fill:none;stroke:#FFFFFF;}
	.portfolio-3{fill:#00C9A7;}
	.portfolio-4{fill:#377DFF;}
	.portfolio-5{fill:#FFFFFF;}
	.portfolio-6{fill:none;stroke:#377DFF;}
	.portfolio-7{fill:none;stroke:#DE4437;}
</style>
<ellipse class="portfolio-0 fill-gray-200" cx="84.3" cy="71.9" rx="84.3" ry="6.9"/>
<g>
	<g id="portfolio_459_">
		<g id="portfolio_501_">
			<path id="portfolio_509_" class="portfolio-1 fill-warning" d="M131,28.9l8,8v27.9c0,1.3-1,2.3-2.3,2.3h-23.8c-1.3,0-2.3-1-2.3-2.3V31.2
				c0-1.3,1-2.3,2.3-2.3H131z"/>
			<polygon id="portfolio_508_" class="portfolio-1 fill-warning" points="131,36.9 131,28.9 139,36.9 			"/>
			<path id="portfolio_507_" class="portfolio-2 fill-none stroke-white" stroke-width="1.5" stroke-miterlimit="10" d="M139,36.9h-7.2c-0.4,0-0.8-0.4-0.8-0.8v-7.2"/>
			<line id="portfolio_506_" class="portfolio-2 fill-none stroke-white" stroke-width="1.5" stroke-miterlimit="10" x1="135.1" y1="40.8" x2="114.8" y2="40.8"/>
			<line id="portfolio_505_" class="portfolio-2 fill-none stroke-white" stroke-width="1.5" stroke-miterlimit="10" x1="135.1" y1="45.3" x2="114.8" y2="45.3"/>
			<line id="portfolio_504_" class="portfolio-2 fill-none stroke-white" stroke-width="1.5" stroke-miterlimit="10" x1="135.1" y1="49.8" x2="114.8" y2="49.8"/>
			<line id="portfolio_503_" class="portfolio-2 fill-none stroke-white" stroke-width="1.5" stroke-miterlimit="10" x1="135.1" y1="54.4" x2="114.8" y2="54.4"/>
			<path id="portfolio_251_" class="portfolio-2 fill-none stroke-white" stroke-width="1.5" stroke-miterlimit="10" d="M115.4,28.9H131l8,8v27.9c0,1.3-1,2.3-2.3,2.3h-1.1"/>
		</g>
		<g id="portfolio_470_">
			<path id="portfolio_500_" class="portfolio-3 fill-success" d="M137.6,33.4l8,8v27.9c0,1.3-1,2.3-2.3,2.3h-23.8c-1.3,0-2.3-1-2.3-2.3V35.7
				c0-1.3,1-2.3,2.3-2.3H137.6z"/>
			<polygon id="portfolio_499_" class="portfolio-3 fill-success" points="137.6,41.4 137.6,33.4 145.6,41.4 			"/>
			<path id="portfolio_498_" class="portfolio-2 fill-none stroke-white" stroke-width="1.5" stroke-miterlimit="10" d="M145.6,41.4h-7.2c-0.4,0-0.8-0.4-0.8-0.8v-7.2"/>
			<line id="portfolio_497_" class="portfolio-2 fill-none stroke-white" stroke-width="1.5" stroke-miterlimit="10" x1="141.8" y1="45.3" x2="121.5" y2="45.3"/>
			<line id="portfolio_496_" class="portfolio-2 fill-none stroke-white" stroke-width="1.5" stroke-miterlimit="10" x1="141.8" y1="49.8" x2="121.5" y2="49.8"/>
			<line id="portfolio_493_" class="portfolio-2 fill-none stroke-white" stroke-width="1.5" stroke-miterlimit="10" x1="135.1" y1="54.3" x2="121.5" y2="54.3"/>
			<line id="portfolio_492_" class="portfolio-2 fill-none stroke-white" stroke-width="1.5" stroke-miterlimit="10" x1="135.1" y1="58.8" x2="121.5" y2="58.8"/>
			<path id="portfolio_250_" class="portfolio-2 fill-none stroke-white" stroke-width="1.5" stroke-miterlimit="10" d="M117.2,65.8V35.7c0-1.3,1-2.3,2.3-2.3h18.1l8,8v5.9"/>
		</g>
	</g>
	<path id="portfolio_2_" class="portfolio-4 fill-primary" opacity=".1" d="M15.1,68.5V0h-4.3C9.9,0,9.2,0.8,9.2,1.7v69.8h0.2h0.2h5.1C14.9,71.5,15.1,70.2,15.1,68.5z"/>
	<g id="portfolio_139_">
		<path id="portfolio_193_" class="portfolio-5 fill-white" d="M61.9,71.5H11.8V17.8h52v51.9C63.8,70.7,62.9,71.5,61.9,71.5z"/>
		<path id="portfolio_183_" class="portfolio-4 fill-primary" d="M63.8,17.8h-52V1.9c0-1,0.9-1.9,1.9-1.9h49.1c0.6,0,1,0.5,1,1V17.8z"/>
		<path id="portfolio_182_" class="portfolio-1 fill-warning" d="M24.2,8.8c0,1.7-1.3,3-3,3c-1.7,0-3-1.3-3-3c0-1.7,1.3-3,3-3C22.8,5.7,24.2,7.1,24.2,8.8z"/>
		<path id="portfolio_179_" class="portfolio-1 fill-warning" d="M20.9,67.1h-0.5v-2.8h0.5V67.1z M20.9,61.5h-0.5v-2.8h0.5V61.5z M20.9,55.9h-0.5v-2.8h0.5
			V55.9z M20.9,50.3h-0.5v-2.8h0.5V50.3z M20.9,44.7h-0.5v-2.8h0.5V44.7z M20.9,39.1h-0.5v-2.8h0.5V39.1z M20.9,33.5h-0.5v-2.8h0.5
			V33.5z M20.9,27.9h-0.5v-2.8h0.5V27.9z"/>
		<path id="portfolio_177_" class="portfolio-1 fill-warning" d="M22.4,59.9c0,1-0.8,1.7-1.7,1.7c-1,0-1.7-0.8-1.7-1.7c0-1,0.8-1.7,1.7-1.7
			C21.6,58.2,22.4,58.9,22.4,59.9z"/>
		<path id="portfolio_151_" class="portfolio-1 fill-warning" d="M22.4,43.2c0,1-0.8,1.7-1.7,1.7c-1,0-1.7-0.8-1.7-1.7c0-1,0.8-1.7,1.7-1.7
			C21.6,41.5,22.4,42.3,22.4,43.2z"/>
		<path id="portfolio_150_" class="portfolio-1 fill-warning" d="M22.4,26.5c0,1-0.8,1.7-1.7,1.7c-1,0-1.7-0.8-1.7-1.7c0-1,0.8-1.7,1.7-1.7
			C21.6,24.8,22.4,25.6,22.4,26.5z"/>
		<line id="portfolio_142_" class="portfolio-7 fill-none stroke-danger" stroke-width="1.5" stroke-miterlimit="10" x1="25.7" y1="26.5" x2="58.2" y2="26.5"/>
		<line id="portfolio_157_" class="portfolio-7 fill-none stroke-danger" stroke-width="1.5" stroke-miterlimit="10" x1="25.7" y1="41.9" x2="58.2" y2="41.9"/>
		<line id="portfolio_161_" class="portfolio-7 fill-none stroke-danger" stroke-width="1.5" stroke-miterlimit="10" x1="25.7" y1="44.9" x2="58.2" y2="44.9"/>
		<line id="portfolio_162_" class="portfolio-7 fill-none stroke-danger" stroke-width="1.5" stroke-miterlimit="10" x1="25.7" y1="47.9" x2="58.2" y2="47.9"/>
		<line id="portfolio_164_" class="portfolio-7 fill-none stroke-danger" stroke-width="1.5" stroke-miterlimit="10" x1="25.8" y1="58.2" x2="58.2" y2="58.2"/>
		<line id="portfolio_176_" class="portfolio-7 fill-none stroke-danger" stroke-width="1.5" stroke-miterlimit="10" x1="25.7" y1="61" x2="58.2" y2="61"/>
		<line id="portfolio_181_" class="portfolio-7 fill-none stroke-danger" stroke-width="1.5" stroke-miterlimit="10" x1="25.7" y1="63.8" x2="48.1" y2="63.8"/>
		<line id="portfolio_163_" class="portfolio-7 fill-none stroke-danger" stroke-width="1.5" stroke-miterlimit="10" x1="25.7" y1="50.9" x2="37.8" y2="50.9"/>
		<line id="portfolio_141_" class="portfolio-7 fill-none stroke-danger" stroke-width="1.5" stroke-miterlimit="10" x1="25.7" y1="29.6" x2="58.2" y2="29.6"/>
		<line id="portfolio_144_" class="portfolio-7 fill-none stroke-danger" stroke-width="1.5" stroke-miterlimit="10" x1="25.7" y1="32.6" x2="58.2" y2="32.6"/>
		<line id="portfolio_148_" class="portfolio-7 fill-none stroke-danger" stroke-width="1.5" stroke-miterlimit="10" x1="25.7" y1="35.6" x2="37.8" y2="35.6"/>
	</g>
	<g id="portfolio_101_">
		<path id="portfolio_254_" class="portfolio-4 fill-primary" opacity=".3" d="M63.8,69.7V27.9H40.2v43.7h0.8h0.7h20.2C62.9,71.5,63.8,70.7,63.8,69.7z"/>
		<rect id="portfolio_98_" x="42.9" y="27.9" class="portfolio-5 fill-white" width="68.7" height="43.7"/>
		<rect id="portfolio_97_" x="42.9" y="28.8" class="portfolio-4 fill-primary" width="68.7" height="17"/>
		<rect id="portfolio_96_" x="42.9" y="27.9" class="portfolio-4 fill-primary" width="68.7" height="17"/>
		<rect id="portfolio_95_" x="74.5" y="40.9" class="portfolio-4 fill-primary" width="5.4" height="8.8"/>
		<path id="portfolio_64_" class="portfolio-6 fill-none stroke-primary" stroke-width="1.5" stroke-miterlimit="10" d="M67.1,28.1V24c0-1.9,1.5-3.4,3.4-3.4H84c1.9,0,3.4,1.5,3.4,3.4v4.1"/>
	</g>
	<g id="portfolio_140_">
		<rect id="portfolio_138_" x="75.4" y="68.2" class="portfolio-4 fill-primary" width="3.9" height="2.4"/>
		<rect id="portfolio_137_" x="75.4" y="68.2" class="portfolio-6 fill-none stroke-primary" stroke-width="1.5" stroke-miterlimit="10" width="3.9" height="2.4"/>
		<line id="portfolio_136_" class="portfolio-6 fill-none stroke-primary" stroke-width="1.5" stroke-miterlimit="10" x1="122.1" y1="69.4" x2="125.2" y2="69.4"/>
		<polyline id="portfolio_133_" class="portfolio-6 fill-none stroke-primary" stroke-width="1.5" stroke-miterlimit="10" points="97.4,65.3 79.5,65.3 79.5,67.6 		"/>
		<path id="portfolio_116_" class="portfolio-4 fill-primary" d="M118.7,71.5H79.3v-4.2h39.4l5.2,2c0.1,0,0.1,0.2,0,0.2L118.7,71.5z"/>
		<rect id="portfolio_115_" x="79.3" y="67.3" class="portfolio-5 fill-white" width="39.4" height="4.2"/>
		<rect id="portfolio_112_" x="100.5" y="67.3" class="portfolio-4 fill-primary" width="13.3" height="4.2"/>
		<rect id="portfolio_109_" x="100.5" y="67.3" class="portfolio-4 fill-primary" width="13.3" height="2.1"/>
		<path id="portfolio_106_" class="portfolio-6 fill-none stroke-primary" stroke-width="1.5" stroke-miterlimit="10" d="M118.7,71.5H79.3v-4.2h39.4l5.2,2c0.1,0,0.1,0.2,0,0.2L118.7,71.5z"/>
		<line id="portfolio_104_" class="portfolio-6 fill-none stroke-primary" stroke-width="1.5" stroke-miterlimit="10" x1="100.5" y1="67.6" x2="100.5" y2="71.3"/>
		<line id="portfolio_103_" class="portfolio-6 fill-none stroke-primary" stroke-width="1.5" stroke-miterlimit="10" x1="113.1" y1="67.6" x2="113.1" y2="71.3"/>
		<line id="portfolio_102_" class="portfolio-6 fill-none stroke-primary" stroke-width="1.5" stroke-miterlimit="10" x1="118.7" y1="67.6" x2="118.7" y2="71.3"/>
	</g>
	<g id="portfolio_474_">
		<path id="portfolio_491_" class="portfolio-5 fill-white" d="M161.2,49.2h-21.5v6.5c0,4.6,1.7,9.1,4.9,12.5l0,0v3.3h11.7v-3.3l0,0
			c3.1-3.4,4.9-7.9,4.9-12.5V49.2z"/>
		<path id="portfolio_490_" class="portfolio-4 fill-primary" d="M156.6,49.2v6.5c0,4.6-1.7,9.1-4.9,12.5v0v3.3h2.5v-3.3v0c3.1-3.4,4.9-7.9,4.9-12.5v-6.5
			H156.6z"/>
		<path id="portfolio_489_" class="portfolio-6 fill-none stroke-primary" stroke-width="1.5" stroke-miterlimit="10" d="M160.6,59.7c0.3-1.3,0.4-2.6,0.4-4v-1.8v-4.7h-21.5v6.5c0,4.6,1.7,9.1,4.9,12.5l0,0v3.3h11.7
			v-3.3l0,0c0.6-0.7,1.2-1.4,1.7-2.1"/>
		<path id="portfolio_488_" class="portfolio-6 fill-none stroke-primary" stroke-width="1.5" stroke-miterlimit="10" d="M158.6,64.9c0.6-1.1,1.1-2.2,1.5-3.4"/>
		<path id="portfolio_487_" class="portfolio-6 fill-none stroke-primary" stroke-width="1.5" stroke-miterlimit="10" d="M140.6,61.5h-3.5c-2.5,0-4.6-2.1-4.6-4.6l0,0c0-2.5,2.1-4.6,4.6-4.6h2.3"/>
		<path id="portfolio_486_" class="portfolio-6 fill-none stroke-primary" opacity=".3" stroke-width="1.5" stroke-miterlimit="10" d="M147.5,46.8v-1.3c0-1.9,1.5-3.4,3.4-3.4h3.2c0.7,0,1.2-0.6,1.2-1.2l0,0
			c0-0.7-0.6-1.2-1.2-1.2h-10c-0.6,0-1.1-0.5-1.1-1.1l0,0c0-0.6,0.5-1.1,1.1-1.1h4.2"/>
		<path id="portfolio_475_" class="portfolio-6 fill-none stroke-primary" opacity=".3" stroke-width="1.5" stroke-miterlimit="10" d="M150.1,37.6h3.6c0.7,0,1.3-0.6,1.3-1.3l0,0c0-0.7-0.6-1.3-1.3-1.3h-9.3
			c-0.8,0-1.4-0.6-1.4-1.4l0,0c0-0.8,0.6-1.4,1.4-1.4h13.5"/>
	</g>
</g>
</svg>
