<?xml version="1.0" encoding="UTF-8"?> <svg xmlns="http://www.w3.org/2000/svg" height="26" viewBox="0 0 108 26" width="108"><g fill-rule="evenodd"><path d="m30.7863258 1.26565248c1.023823-1.02382295 2.6841975-1.02339342 3.7080205.00042953l1.8542249 1.85422498-21.6330542 21.63305421c-1.0238229 1.023823-2.6841974 1.0233934-3.7080204-.0004295l-1.85422497-1.854225zm-9.2715544 6.79925443-3.7084499 3.70844999-4.945459-4.94545904-6.18160898 6.18160894 4.94545898 4.945459-2.47144087 4.9437409-8.03540442-8.0354044c-1.02382295-1.023823-1.02382295-2.6837679 0-3.7075909l9.88962939-9.88962939c1.023823-1.02382295 2.6841975-1.02425248 3.7080204-.00042953z"></path><path d="m38.8207465 13.0191999-4.945459-4.94545905 2.4714409-4.94374085 8.0354044 8.0354044c1.0238229 1.023823 1.0238229 2.6837679 0 3.7075909l-9.8900589 9.8900589c-1.023823 1.023823-2.683768 1.023823-3.7075909 0-1.023823-1.0238229-1.023823-2.6837679 0-3.7075909z" opacity=".56"></path><path d="m56.9960403 8.5v9h4.9539597l1.05 3h-6.0039597c-1.6546674 0-2.9960403-1.3431459-2.9960403-3v-9c0-1.65685425 1.3413729-3 2.9960403-3h4.9539597v3h1.05v-6c0-.82842712.6715729-1.5 1.5-1.5h1.5v18c0 .828427-.6715729 1.5-1.5 1.5h-1.5v-12zm15.0000143 12.0000269c-1.6546665 0-2.9960546-1.343154-2.9960546-3.0000073v-3.0000196c0-1.6568542 1.3413729-3 2.9960403-3h4.9539597v3h1.05v-6h-8.2509899l.0000022-1.5c0-.82842625.6706851-1.5 1.4980179-1.5h6.7529698c1.6568542 0 3.0000135 1.34314575 3.0000135 3v10.5000269c0 .8284272-.6715729 1.5-1.5 1.5h-1.5000135v-6.0000269h-6.0039597v3h4.9539597l1.05 3.0000269c-3.6983906 0-5.6997058 0-6.0039454 0zm12.0039454-.0000269v-13.5c0-.82842712.6706865-1.5 1.4980202-1.5h1.4980201v13.5c0 .8284271-.6706865 1.5-1.4980201 1.5zm2.9960403-17.99019608c0 .41830275-.1435996.7712404-.4308032 1.05882353-.2872035.28758314-.6396753.43137255-1.057426.43137255-.4177506 0-.773486-.14378941-1.0672169-.43137255-.2937309-.28758313-.4405942-.64052078-.4405942-1.05882353 0-.4313747.1468633-.79084823.4405942-1.07843137s.6494663-.43137255 1.0672169-.43137255c.4177507 0 .7702225.14378941 1.057426.43137255.2872036.28758314.4308032.64705667.4308032 1.07843137zm3.0039597 17.99019608v-18c0-.82842712.6706865-1.5 1.4980202-1.5h1.4980201v18c0 .8284271-.6706865 1.5-1.4980201 1.5zm10.109765.0060224-4.044832-12.69445015c-.2418889-.7922288.2138169-1.63080604 1.005-1.87301469l1.425-.43855756 3.3 10.7811169 2.97-9.71927663c.241889-.7922288 1.068817-1.23810823 1.86-.99589958l1.375067.43855756-5.095067 16.87207255c-.385086 1.2612254-1.547888 2.1227074-2.865 2.1228849l-2.4767782.0005443c-.8273337 0-1.4981104-.671371-1.4982218-1.4997981l.0002016-1.5002019h2.4897984c.8249859 0 1.55152-.6679081 1.554832-1.4939776z"></path></g></svg> 