<svg xmlns="http://www.w3.org/2000/svg" xmlns:xlink="http://www.w3.org/1999/xlink" viewBox="0 0 199 44"><mask id="a" fill="#fff"><path d="m42.6981454 17.294701h-42.6981454v-17.03480795h42.6981454z" fill="#fff" fill-rule="evenodd"></path></mask><mask id="b" fill="#fff"><path d="m42.6981454 17.294701h-42.6981454v-17.03480795h42.6981454z" fill="#fff" fill-rule="evenodd"></path></mask><g fill="none" fill-rule="nonzero"><path d="m73.6001813 19.4628147-3.6375401-.7982148c-1.8201595-.3991074-2.8222198-1.5345962-2.8222198-3.1984806 0-2.1147072 1.8562848-3.7100126 4.3183631-3.7100126 3.406894 0 4.4128447 2.5351753 4.640712 3.3131537.0722506.2585766.2500983.4778046.489081.5986611.2334251.1208565.4946388.1388444.7447371.0505911l1.9174199-.6841039c.4778395-.1716457.740888-.6899576.6002358-1.182707-.4946388-1.7594454-2.3120194-5.8517017-8.4755519-5.8517017-4.5629036 0-8.4144167 3.5301332-8.4144167 7.7095186 0 3.5919668 2.33036 6.2451879 6.2357831 7.1052363l3.4680291.7644874c2.0874867.4440773 3.3346433 1.7313392 3.3346433 3.4401935 0 2.1810377-1.7729187 3.5357545-4.6295965 3.5357545-3.3568743 0-4.9741763-2.2260076-5.3687758-4.3114844-.0504787-.2719993-.2139064-.5090244-.4488176-.6509363-.2349113-.1419119-.5187293-.1750718-.7794427-.0910662l-2.106383.680169c-.4583884.1412423-.7384586.6085164-.6502555 1.0848976.6558132 3.4570572 3.4641387 7.1445849 9.3925788 7.1445849 5.0097458 0 8.7878967-3.2996627 8.7878967-7.6729806 0-3.6931489-2.4098356-6.3463701-6.6137093-7.2851157m21.5373498 3.3727387c.0111155.073076-.0222309.1292884-.0444619.1517733-.0372706.0466469-.0935425.073552-.1528378.0730822h-7.7252571c-.0623149 0-.1211594-.029024-.1595071-.0787034-.0356918-.0416695-.0500832-.0978133-.0389041-.1517733.3529164-1.6290328 1.7340145-3.2715566 4.0238029-3.2715566 2.249217 0 3.7792625 1.2198072 4.0932747 3.2676217zm-4.1271769-6.9253568c-4.0682648 0-8.2754732 3.4401935-8.2754732 9.2019555 0 2.7768882.9003537 5.1490478 2.6065796 6.8522808 1.5806209 1.579566 3.7403582 2.4508569 6.0801663 2.4508569 3.4847023 0 6.3080337-1.8415154 7.5529672-4.9241986.1000393-.2529554.0944815-.534017-.0133386-.7813511-.1074747-.2425914-.3097917-.4290984-.5585528-.5149048l-1.7006681-.5958505c-.4720074-.1639735-.9893013.0669019-1.1876888.5300821-.7336215 1.7482029-2.1119407 2.6307362-4.0960535 2.6307362-2.4009432 0-4.2294393-1.6357783-4.5462305-4.0714578-.0080912-.0552408.0093212-.1111827.0472408-.1517732.022231-.0281062.0722506-.073076.150059-.073076h11.2733176c.5057542 0 .9281424-.3991074.9559311-.908391.0111154-.1630157.0166732-.3428951.0166732-.520526 0-5.6324737-3.1845844-9.1305659-8.3088197-9.1305659zm19.1964298 13.6708343c-2.706618 0-4.390613-1.8999761-4.390613-4.9579259 0-3.01298 1.722899-4.9601745 4.390613-4.9601745 2.584349 0 4.320587 1.9899159 4.320587 4.957926 0 2.9646373-1.73735 4.9579259-4.321142 4.9579259zm7.213946-13.153681h-2.039691c-.527985 0-.95871.4345211-.95871.9949579-.00037.0810134-.048475.1539959-.12227.1855006-.038904.0168637-.116712.0393486-.18674-.0281061-1.050413-.9713488-2.528771-1.4643308-4.390614-1.4643308-4.61459 0-7.96424 3.5807243-7.96424 8.5105441 0 4.9084591 3.34965 8.4711954 7.96424 8.4711954 1.706226 0 3.251278-.5666201 4.35171-1.5953054.072251-.0674548.150059-.0505911.188963-.0337274.027789.0112425.12227.0618336.12227.1855007v.7082751c0 3.428951-1.483916 5.0281913-4.662943 5.0281913-2.017459 0-3.601414-1.264777-4.02936-3.2198412-.055578-.2529554-.205637-.4665622-.422389-.6031581-.216751-.136596-.477965-.1798794-.728063-.1236671l-2.003009.4665622c-.511746.1231606-.831637.6382325-.719172 1.1579736.716948 3.5526181 3.893752 5.9416414 7.897547 5.9416414 2.984506 0 5.257621-.9190713 6.758211-2.7319184 1.239375-1.4986202 1.895189-3.5790379 1.895189-6.0164037v-14.8496066c0-.5340169-.427946-.9668517-.955931-.9668517zm24.248414-.4856744c-2.256442 0-4.092163.8611726-5.309863 2.4958266-.041857.0615409-.112456.0964976-.186185.0921882-.054683.0006622-.105549-.0282767-.133385-.0758866-1.020957-1.5964297-2.783316-2.5126903-4.835233-2.5126903-1.632308 0-3.201258.580111-4.306136 1.593619-.054653.0577877-.13977.0736462-.211194.0393486-.069824-.0290094-.114246-.0990991-.111155-.1753824 0-.534017-.430169-.9668518-.958154-.9668518h-1.937428c-.527985 0-.955931.4328348-.955931.9668518v15.5314619c0 .5340169.430169.967976.958154.967976h2.03969c.527985 0 .955931-.4362076.955931-.9702245v-9.4678398c0-2.3007699 1.389435-3.8471706 3.462472-3.8471706 2.712176 0 3.117891 2.1512452 3.117891 3.4328859v9.8989882c0 .5340169.427946.9668517.955931.9668517h2.074704c.527985 0 .955931-.4350833.955931-.9691002v-9.5161824c0-2.246244 1.411666-3.8145675 3.429125-3.8145675 2.713844 0 3.117892 2.1529316 3.117892 3.4345723v9.8989882c0 .534017.427946.9668518.955931.9668518h2.03969c.527985 0 .955931-.4350833.955931-.9691003v-10.2475045c0-4.6543795-3.051199-6.7359214-6.074609-6.7359214m13.788751 7.1142302c-.062014-.0002086-.120623-.0287119-.159508-.0775729-.034222-.0415297-.047739-.0966317-.036681-.1495248.353473-1.630157 1.734015-3.2715566 4.026026-3.2715566 2.248662 0 3.779263 1.2198072 4.092719 3.2659354.011116.073076-.023898.1292883-.044462.1517732-.039977.042252-.095023.0665463-.152837.0674548h-7.725257zm3.795935-7.1502061c-4.068265 0-8.275473 3.442442-8.275473 9.2019555 0 2.780261.900354 5.1507342 2.604356 6.8556536 1.578398 1.579566 3.734801 2.4452356 6.080167 2.4452356 3.479144 0 6.302476-1.8437638 7.552967-4.9298198.100039-.2529554.094482-.5340169-.016673-.7813511s-.311234-.4272136-.561332-.5171533l-1.700668-.5947262c-.472408-.1647021-.994835.0674547-1.188245.5295199-.733621 1.743706-2.11194 2.6307363-4.096053 2.6307363-2.400943 0-4.229439-1.6391511-4.546231-4.0753927-.008576-.0558198.007701-.1126178.044462-.155146.022231-.0281061.072251-.0702654.150059-.0702654h11.276653c.505754 0 .926475-.3991074.955931-.908953.009448-.1630157.016673-.3428951.016673-.5227745 0-5.6324737-3.184585-9.1345008-8.30882-9.1345008zm20.435806.0354138c-1.725678 0-3.238494.5947263-4.37394 1.7200967-.053296.0542852-.134074.0699111-.203414.0393487-.071487-.0315522-.117428-.1032425-.116712-.1821279v-.1236671c0-.534017-.430169-.9668518-.958154-.9668518h-2.000786c-.527985 0-.958154.4328348-.958154.9668518v15.5286512c0 .534017.427945.9685382.955931.9685382h2.073036c.527985 0 .95871-.4356455.95871-.9696624v-9.0653596c0-2.0281402.908691-4.195687 3.462472-4.195687 2.295346 0 3.460248 1.2833271 3.460248 3.8140054v9.4436684c0 .534017.427946.9668518.955931.9668518h2.073036c.527986 0 .957043-.438456.957043-.972473v-9.993987c0-4.3058631-2.410947-6.9815691-6.285803-6.9815691m15.945153 4.2091779h2.417617c.527985 0 .955931-.4356454.955931-.9691003v-1.7841788c0-.5340169-.427946-.9668517-.955931-.9668517h-2.417617c-.107431 0-.194521-.0880849-.194521-.1967431v-4.1113685c0-.534017-.43128-.9679761-.958709-.9679761h-1.800708c-.527985 0-.955931.4339591-.955931.9679761v2.1248254c0 .9949579-.376815 2.182724-2.160849 2.182724h-.307343c-.527985 0-.955931.4328348-.955931.9668518v1.7819303c0 .534017.429613.9668518.955931.9668518h2.006344c.108376 0 .194521.0843185.194521.1967431v8.58362c0 3.1703745 1.909083 5.1378054 4.979734 5.1378054.855892 0 1.521709-.1236671 1.84239-.1967431.433504-.1011822.738068-.4890471.738068-.9443669v-1.6520798c-.000357-.2748536-.116023-.5366415-.318234-.7202602-.202211-.1836186-.471967-.2718154-.742183-.2426567-.216751.0224849-.426834.0354137-.591343.0354137-1.394992 0-1.91742-.5171532-1.91742-1.9055973v-8.094573c0-.1079276.088924-.1956188.194521-.1956188" fill="#43af79"></path><path d="m28.1356298 4.46123481h-25.96826626c-1.19746836 0-2.16736354-.93981527-2.16736354-2.10014585 0-1.16033057.96989518-2.10014584 2.16736354-2.10014584h25.96826626c1.1974683 0 2.1673635.93981527 2.1673635 2.10014584 0 1.16033058-.9698952 2.10014585-2.1673635 2.10014585" fill="#93c8a2" mask="url(#a)" transform="translate(0 26)"></path><path d="m22.5676728 17.3262032c-2.1153468 0-4.2046852-.3045211-6.2094965-.906738-1.143206-.3432728-1.7828721-1.5194647-1.4288344-2.6272824.3543639-1.1130773 1.5713386-1.7326203 2.7119136-1.3860963 1.5886775.4777832 3.2456269.7193 4.9264173.7193 7.3544064 0 13.7400012-4.57306759 15.8905676-11.38279049.1680851-.532545.5478275-.97846026 1.0555218-1.23945416s1.1016608-.31563986 1.6509735-.15189246c1.1443679.33602334 1.7880749 1.51210501 1.4380457 2.61993194-2.7113718 8.58487117-10.7631274 14.35502187-20.0351086 14.35502187" fill="#43af79" mask="url(#b)" transform="translate(0 26)"></path><path d="m46.6396538 18h-28.2793076c-1.3040913 0-2.3603462-1.3425-2.3603462-3s1.0562549-3 2.3603462-3h28.2793076c1.3040913 0 2.3603462 1.3425 2.3603462 3s-1.0562549 3-2.3603462 3" fill="#93c8a2"></path><path d="m4.2559582 17.9916972c-.71541801.0000966-1.38846446-.3329499-1.813862-.8975613-.42539754-.5646113-.5527012-1.2938341-.34308372-1.9652574 2.82235643-9.05009379 11.20202002-15.1288785 20.85047532-15.1288785 2.2031861 0 4.3776129.32104308 6.4623785.95648698.5714802.17378502 1.0492139.56330717 1.32809 1.08286372.2788762.51955655.336047 1.12658134.1589338 1.68751667-.176515.561287-.5732929 1.03057012-1.102787 1.30430494-.5294942.27373482-1.1481876.32942416-1.7195695.15478052-1.6522486-.4981703-3.3778052-.75279068-5.1270458-.75279068-7.6522231 0-14.29899941 4.82118146-16.53714779 12.00036905-.29039367.9300535-1.16481409 1.5654283-2.1558179 1.5664688" fill="#43af79"></path><path d="m39 10.1083416c0 1.1644048-1.0651241 2.1083415-2.3790214 2.1083415-1.3138972 0-2.3790213-.9439367-2.3790213-2.1083415 0-1.16440493 1.0651241-2.1083416 2.3790213-2.1083416 1.3138973 0 2.3790214.94393667 2.3790214 2.1083416m-28.2419573 26.7833168c0 1.1644049-1.06512413 2.1083416-2.37902134 2.1083416-1.31389722 0-2.37902136-.9439367-2.37902136-2.1083416 0-1.1644048 1.06512414-2.1083415 2.37902136-2.1083415 1.31389721 0 2.37902134.9439367 2.37902134 2.1083415" fill="#93c8a2"></path></g></svg>