<svg xmlns="http://www.w3.org/2000/svg" viewBox="0 0 197 31"><g fill="currentColor" fill-rule="evenodd"><path d="m22 22h-14.97749364c-1.05109946 0-2.05917912-.4173859-2.80225939-1.1607847l-3.0594623-3.0594622c-.74330904-.7431403-1.16078467-1.751181-1.16078467-2.8022594v-7.95498713c0-1.05096766.41711184-2.05858652 1.16078467-2.80129603l3.05849899-3.06042554c.74331623-.74363502 1.75178946-1.16123303 2.8032227-1.160785h14.97749364v4.4003856h-13.63849723c-2.18744445.00053177-3.96058566 1.77367295-3.96111744 3.96111736v5.27603104c-.00000006 2.1878206 1.77329687 3.9615488 3.96111744 3.9620807h13.63849723z"></path><path d="m9 9.28705235h15.0646864c1.0560491 0 2.0694687.41166942 2.8174228 1.14563895l3.0770753 3.0204936c.7473508.733211 1.1674672 1.7277106 1.1674672 2.7647453v7.8521426c0 1.0363041-.4195131 2.0307758-1.1674672 2.7647453l-3.0770753 3.0204936c-.7472794.7331174-1.7607471 1.1446883-2.8174228 1.1446883h-15.0646864v-4.3420191h13.7170126c2.200794 0 3.9848901-1.7507387 3.9848901-3.9103842v-5.2071904c0-2.1596455-1.7840961-3.9103841-3.9848901-3.9103841h-13.7170126zm41.3167117 14.60047885c-3.5750655 0-6.3169178-2.9624987-6.3169178-8.2837776 0-5.291806 2.8038589-8.133561 6.3469522-8.133561 2.8968688 0 5.0845375 1.57252016 5.7617654 4.5350188h3.7591474c-.893282-4.8982006-4.4373441-7.67910837-9.3978685-7.67910837-6.4699965 0-10.5062357 4.38385153-10.5062357 11.27765057 0 6.8633755 3.7901506 11.4288179 10.3221537 11.4288179 5.1446064 0 8.7196718-2.7818585 9.643957-7.6800591h-3.7591474c-.6781967 2.993873-2.8348622 4.5350188-5.8538063 4.5350188m20.3042402-13.8779182c-2.310713 0-4.0672424.9374274-5.0225309 2.6306912v-7.9215465h-3.6671065v21.9202084h3.6671065v-8.6469594c0-2.9330258 1.0473294-5.0484172 3.8511884-5.0484172 2.8038589 0 3.1429572 2.145815 3.1429572 4.353428v9.3419486h3.6661376v-10.2194795c0-3.8695025-1.6325163-6.4098736-5.6387211-6.4098736m15.5839913 14.0899327c-2.6798459 0-4.1902868-2.1467657-4.1902868-5.5931899 0-3.4473749 1.5104409-5.563717 4.1902868-5.563717 2.402754 0 4.2823277 1.8140075 4.2823277 5.563717 0 3.7487588-1.8795737 5.5931899-4.2823277 5.5931899zm4.129249-11.5495616c-.9862918-1.6029437-2.7118179-2.5403711-4.93049-2.5403711-4.1592835 0-7.2092309 3.265784-7.2092309 8.4967428 0 5.2300081 3.0499474 8.5262157 7.2092309 8.5262157 2.2186721 0 3.9441982-.9374274 4.93049-2.5403711v2.1467657h3.6661376v-16.267122h-3.6661376v2.1771893zm6.7403063 14.088982h3.6671063v-16.2661713h-3.6671063zm15.2303603-16.6293531c-2.311682 0-4.067243.9374274-5.022531 2.6306912v-2.2675094h-3.667107v16.267122h3.667107v-8.6488608c0-2.9330258 1.047329-5.0484172 3.851188-5.0484172s3.142958 2.145815 3.142958 4.3534279v9.3419487h3.666137v-10.2185288c0-3.8695025-1.632516-6.4098736-5.638721-6.4098736m15.959906 6.9242227-2.341716-.4535019c-1.417431-.271911-2.218672-.8461566-2.218672-1.9347512 0-1.0885947 1.479437-1.7845347 3.08095-1.7845347 1.84954 0 3.235967.5751963 3.636103 2.0564456h3.451053c-.678197-3.265784-3.635134-4.8078805-6.871102-4.8078805-3.604131 0-6.747088 1.8444311-6.747088 4.7175605 0 2.9624986 2.187669 4.2022606 4.990559 4.7460826l2.496733.4848762c1.632516.3013838 2.864896.906053 2.864896 2.2370858 0 1.330082-1.417431 2.1163421-3.327039 2.1163421-2.157634 0-3.390015-.967851-3.729113-2.6306912h-3.573128c.400136 3.0841931 3.111954 5.3517025 7.179197 5.3517025 3.759147 0 7.02418-1.8748547 7.02418-5.2613824 0-3.1745132-2.557771-4.2022606-5.915813-4.8373534m13.002-10.85457235h-3.667107v4.29353145h-2.46476v2.6002676h2.46476v9.4027959c0 3.3266312.7092 4.2640585 4.252293 4.2640585h2.711818v-2.7523856h-1.32539c-1.571478 0-1.971614-.3926547-1.971614-2.0554949v-8.8589739h3.327039v-2.6002676h-3.327039zm13.001999 18.02028235c-2.680815 0-4.190287-2.1467657-4.190287-5.5931899 0-3.4473749 1.509472-5.563717 4.190287-5.563717 2.402754 0 4.282328 1.8140075 4.282328 5.563717 0 3.7487588-1.879574 5.5931899-4.282328 5.5931899zm4.12828-11.5495616c-.985323-1.6029437-2.710849-2.5403711-4.929521-2.5403711-4.159283 0-7.2102 3.265784-7.2102 8.4967428 0 5.2300081 3.050917 8.5262157 7.2102 8.5262157 2.218672 0 3.943229-.9374274 4.929521-2.5403711v2.1467657h3.667107v-16.267122h-3.667107v2.1771893zm13.957288 11.4887144c-2.157634 0-4.252293-1.6628402-4.252293-5.5332934 0-3.8390788 2.063656-5.5019191 4.344334-5.5019191 2.002618 0 3.543094 1.2093384 3.851189 2.9320751h3.575065c-.617159-3.6280151-3.821154-5.9259481-7.426254-5.9259481-4.929521 0-8.134485 3.6888623-8.134485 8.5271664 0 4.8373534 3.173961 8.4957921 7.980438 8.4957921 3.543093 0 6.963142-2.1467657 7.702377-5.9563717h-3.573128c-.463112 2.1771894-2.280679 2.9624987-4.067243 2.9624987m23.939375-13.6659037h-4.406341l-6.130898 6.531568v-12.1856051h-3.667107v21.9202084h3.667107v-5.2005352l1.75556-1.8444311 5.207582 7.0449663h4.282328l-7.055183-9.583436zm-97.3125066-6.37184406c-.8714904-.01715806-1.6843687.42926683-2.1252397 1.16716102-.4408709.73789419-.4408709 1.6519994 0 2.38989359.440871.73789419 1.2537493 1.18431907 2.1252397 1.16716102 1.3296796 0 2.4075986-1.05776452 2.4075986-2.36258319 0-1.30481866-1.077919-2.36258318-2.4075986-2.36258318"></path></g></svg>