<svg xmlns="http://www.w3.org/2000/svg" viewBox="0 0 147 32"><g fill="none" fill-rule="evenodd"><g fill="#3588c9" fill-rule="nonzero"><path d="m32.140569 19.51215h6.413701v6.48785h-6.413701z"></path><path d="m32.1405694.04049844v6.49595016h-6.4217082v12.9757009h6.4217082v-6.4878504h6.4137011v-6.4878505h6.413701v-6.49595016z"></path><path d="m19.30516 19.51215h6.413701v6.48785h-6.413701z"></path><path d="m19.3051601 6.5364486h-6.413701v-6.49595016h-12.83540928v6.49595016h6.42170819v6.4878505h6.41370109v6.4878504h6.413701z"></path><path d="m6.477758 19.51215h6.413701v6.48785h-6.413701z"></path></g><path d="m58 0h4.716831l2.744777 13.2790756 2.8735643-13.2790756h4.5799946v25.7623713h-2.6562359v-23.21426781l-3.4611558 14.54910831h-2.8494167l-3.4048114-14.54910831v23.21426781h-2.5435471zm19.1651443 7.39512685h3.147237l4.354617 15.37704095 3.7428778-15.37704095h3.0104006c-3.3726146 12.72444105-5.3124717 20.00703345-5.8195713 21.84777695-.5070995 1.8407435-1.8432667 2.7570962-4.0165506 2.7570962h-1.8513159v-2.7570962h1.8513159c1.0302976 0 1.6822828-1.1574981 1.9479063-3.4805325h-.6600343zm21.1935425-4.38884702h2.8896622v4.38884702h5.087095v2.65259985h-5.087095v11.3177594c0 1.1173072.539297 1.6558653 1.61789 1.6156744h3.469205v2.7812108c-.61174 0-2.036448 0-4.266076 0-2.2376777 0-3.4692052-1.3423763-3.7106812-4.0351671v-11.6794775h-3.2357782v-2.65259985h3.2357782zm12.8384732-3.00627983h2.889663v8.45616679c0-.49836724.692231-.85204722 2.084743-1.06907812h2.656235c2.881614 0 4.539749 1.57548355 4.974406 4.73448883v13.6407938h-2.889663c0-7.3951269 0-11.8563175 0-13.3996484 0-1.5433308-.772723-2.306958-2.31012-2.306958.080492 0-.651985 0-2.197432 0-1.545446 0-2.31012.7716654-2.31012 2.306958v13.3996484h-2.889663v-25.7623713zm16.685991.12057272h3.614091l5.747128 10.12007038 5.892014-10.12007038h3.42091l-7.606494 12.49133388 8.0492 13.1504647h-3.71873l-6.077146-10.6747049-6.342769 10.6747049h-3.380664l7.94456-13.1424266z" fill="#2b2b2b"></path></g></svg>