<svg xmlns="http://www.w3.org/2000/svg" xmlns:xlink="http://www.w3.org/1999/xlink" viewBox="0 0 198 44"><mask id="a" fill="#fff"><path d="m.01974684.15790698h25.87888606v27.67637212h-25.87888606z" fill="#fff" fill-rule="evenodd"></path></mask><mask id="b" fill="#fff"><path d="m.31878846.01323761h120.66392554v43.00898459h-120.66392554z" fill="#fff" fill-rule="evenodd"></path></mask><g fill="#454954" fill-rule="evenodd"><path d="m16.5863544 16.8823721-3.157519-9.6075814h-.9590379l-3.15751902 9.6075814zm9.3122785 10.951907h-5.7552152l-1.9585569-6.0493024h-10.47108865l-1.95855696 6.0493024h-5.75521519l9.43240506-27.67637212h7.03415194z" mask="url(#a)" transform="translate(0 8)"></path><path d="m48 30.7600875v5.2399125h-20v-28h5.8214066v22.7600875z"></path><path d="m72 30.7600875v5.2399125h-20v-28h5.8210642v22.7600875z"></path><g transform="translate(77)"><path d="m102.574426 28.5885976h.968665l3.189214-9.7657135h-7.3470935z" mask="url(#b)"></path><path d="m106.610973 35.8222879h-7.1047615l-9.5270879-28.13190021h5.8133187l1.978217 6.14886841h10.5761977l1.978217-6.14886841h5.812986zm-23.8968356 0-6.0150962-10.3283118h-3.3504368v10.3283118h-5.1268764v-28.13190021h9.9711978c4.6422116 0 8.7598682 3.09429061 8.7598682 8.64051691 0 3.8581005-2.1799945 6.7918851-5.0866539 8.1983809l6.8222061 11.2930024zm-18.5279588-23.0281409h-13.2003022v6.2699925h10.7783077v4.9429224h-10.7783077v11.815226h-5.4090989v-28.13190021h18.6094011zm-24.1783929 23.0281409h-5.2880989l-11.182195-18.165306h-.5248874v18.165306h-5.2880989v-28.13190021h5.3286538l11.1821951 17.68279521h.4843324v-17.68279521h5.2880989zm-33.46381317 0h5.61087637v-28.13190021h-5.61087637zm-6.22518407 7.1999343h120.66425854v-43.0222222h-120.66425854z" mask="url(#b)"></path></g><path d="m155.29244 13h-4.29244v8h4.29244c2.224793 0 3.70756-1.8143385 3.70756-4.205951 0-2.3919521-1.521973-3.794049-3.70756-3.794049"></path></g></svg>