<svg xmlns="http://www.w3.org/2000/svg" viewBox="0 0 192 50"><g fill="none"><path d="m22.5933229 19.7993761c-2.7003558-11.56390073-8.3325266-14.64507166-9.7598576-16.81330305-.5979359-.96999825-1.1187188-1.95901608-1.5623487-2.98607305-.0771531 1.02705697-.2121709 1.67372248-1.1187189 2.45352499-1.81309607 1.55960504-9.47053378 7.62684901-10.12633449 20.76937441-.59793594 12.2486054 9.27765123 19.7993761 10.58925269 20.5791786 1.0029893.4754893 2.2181494 0 2.8160854-.4374502 4.7641992-3.1762688 11.2643416-11.6209595 9.1619216-23.5652517" fill="#10aa50"></path><path d="m11.1103896 37c-.2532467 3.16-.4480519 5-1.1103896 6.8 0 0 .4480519 3.02.7402597 6.2h1.0909091c.2532468-2.24.6428572-4.48 1.1688312-6.68-1.3831169-.66-1.8311688-3.54-1.8896104-6.32z" fill="#b8c4c2"></path><path d="m13.9748823 44c-1.2735222-.6189011-1.6426591-3.5006593-1.6980296-6.189011.3137663-4.4483516.4060505-8.8967033.2768526-13.3643956-.0738274-2.3208791.0369137-21.62285714-.5537053-24.4465934.4060506.94769231.8674717 1.87604396 1.3658064 2.78505495 1.3658065 2.22417582 6.6998343 5.35736263 9.2468787 17.17450545 1.9933391 12.1652748-4.134333 20.7718682-8.6378028 24.0404396z" fill="#12924f"></path><g fill="#21313c"><path d="m188.999569 40c-1.655606 0-2.980091-1.3332852-2.999569-2.9998917 0-1.6469993 1.324485-2.9802845 2.980092-2.9998917 1.636128-.0196071 2.999569 1.294071 3.019047 2.9606775.019477.8038925-.292166 1.5685708-.85702 2.1567848-.564854.5686069-1.343963.8823211-2.14255.8823211zm0-5.7252835c-1.11023-.0196071-2.103594.6470355-2.532104 1.6666065-.42851 1.0195711-.194777 2.1959992.584332 2.9802846s1.947772 1.019571 2.960614.6078212c1.032319-.431357 1.694562-1.4117138 1.694562-2.5293205.019478-.725464-.253211-1.4313208-.779109-1.9411064-.506421-.5097855-1.207619-.8038925-1.928295-.7842854zm.720676 4.6076768-.759631-1.6666065h-.623287v1.6666065h-.467466v-3.7841771h1.129708c.818065 0 1.168664.3529284 1.168664 1.0587853 0 .5489998-.253211.9019282-.740154 1.019571l.798587 1.7058208zm-1.382918-2.0587492h.662242c.525899 0 .740154-.1764642.740154-.6666426 0-.4705712-.194777-.6470354-.798587-.6470354h-.603809z"></path><path d="m146.143546 37.3659751c.787064.6107884 2.361191.8780083 3.743352.8780083 1.785291 0 3.532188-.3435685 5.240692-1.8705394 1.746898-1.5842324 2.956288-3.9892116 2.956288-7.8448133 0-3.6838174-1.420554-6.6995851-4.319252-8.4556017-1.650914-1.0116182-3.781745-1.4124481-6.200526-1.4124481-.69108 0-1.420554.0190871-1.823684.2099585-.17277.13361-.28795.3244813-.326343.5153527-.076787.6680498-.076787 5.6879668-.076787 8.646473 0 3.0348548 0 7.2721992.076787 7.7875519.038393.4580913.249557 1.2215768.729473 1.5460581m-7.429113-20.3659751c.63349 0 3.033075.1145228 4.165679.1145228 2.092437 0 3.532188-.1145228 7.44831-.1145228 3.282631 0 6.027756.8780083 8.005013 2.5576763 2.399584 2.0614108 3.666565 4.9244814 3.666565 8.3983403 0 4.9435685-2.265208 7.7875519-4.549612 9.4099585-2.265208 1.6796681-5.221496 2.6340249-9.425567 2.6340249-2.226815 0-6.06615-.0763485-9.271994-.1145228h-.05759c-.153574-.2863071.268753-1.4315353.51831-1.4697096.883047-.0954356 1.113407-.1336099 1.516537-.286307.671884-.2863071.825457-.6298755.902244-1.8323652.11518-2.2713693.076787-4.9817427.076787-8.0547717 0-2.1950208.038393-6.4705395-.038394-7.8257262-.11518-1.1452282-.595097-1.4315353-1.574127-1.6605809-.69108-.13361-1.382161-.2481328-2.092438-.3244813-.05759-.2099585.499114-1.2024897.691081-1.4315353"></path><path d="m170.473601 18.7941909c-.137437.0381742-.333776.4008298-.333776.5917012-.039267 1.3170125-.078535 4.7526971-.078535 7.1195021.019634.0954357.098169.1717842.196339.1908714.490846.0381742 1.708145.0763485 2.729105.0763485 1.433272 0 2.257894-.1908714 2.729106-.4008299 1.197665-.5917012 1.767047-1.8705394 1.767047-3.2639004 0-3.1875518-2.277527-4.3900415-5.65455-4.3900415-.451579 0-.903157.0190872-1.354736.0763486m8.599628 14.6207469c0-3.206639-2.434598-5.0390042-6.852215-5.0390042-.196339 0-1.609976-.0381743-1.943752.0381743-.098169.0381743-.215972.0954357-.215972.1717842 0 2.3095436-.039268 5.993361.078535 7.4630706.078536.6107883.530114 1.4887966 1.099496 1.7560166.589016.3244813 1.963386.4008298 2.905811.4008298 2.611302 0 4.928097-1.4315352 4.928097-4.7908713m-15.432209-16.4149378c.333775 0 1.354736.1145228 3.92677.1145228 2.414965 0 4.37835-.0763485 6.734413-.0763485 2.90581 0 6.93075 1.0307054 6.93075 5.2680498 0 2.0804979-1.511807 3.7601659-3.494826 4.5618257-.098169.0381743-.098169.1145228 0 .1526971 2.807641.6871369 5.261873 2.366805 5.261873 5.5925311 0 3.1493776-2.002653 5.1153527-4.908464 6.3560166-1.78668.7634855-3.985672 1.0307054-6.204298 1.0307054-1.708145 0-6.282833-.1717842-8.8156-.1526971-.25524-.1145228.235606-1.2788382.471212-1.4697095.589016 0 1.158398-.0954357 1.708146-.2481328.922791-.2290457 1.02096-.5153527 1.138763-1.8323652.078536-1.126141.078536-5.1917012.078536-8.0738589 0-3.9510373.039267-6.6041494 0-7.9211618-.039268-1.0307054-.412311-1.3551867-1.138764-1.5460581-.569382-.1145228-1.511807-.2099585-2.277527-.3244813-.176705-.1908714.392677-1.2788382.589016-1.4315353"></path><path d="m30.3460988 39c-.0957733-.2428394-.1340826-.4856787-.1149279-.7285181 0-.1681195.0383093-.3362391.1149279-.4856787.4788661-.0747198.9577323-.1681195 1.4365984-.2801992.6704127-.1681196.9194231-.5230386.9577324-1.3449564.0957732-1.9427148.1149278-5.5666252.0766185-8.1257784v-.0747198c0-.2801992 0-.6537982-.3639382-.9153175-.6129487-.373599-1.2833613-.6724782-1.9729286-.8592777-.3064743-.0933998-.4980208-.2428394-.4788662-.4296389 0-.1867995.2107011-.4109589.6129487-.4856787 1.0918149-.1120797 3.9267025-.7658779 5.037672-1.2702366.1149279.1494396.1723918.3175592.1532372.5043587 0 .1120797-.0191547.2428393-.0383093.354919-.0383093.3549191-.057464.765878-.057464 1.1768369 0 .1120797.0766186.1867995.1723919.2241594.0957732.0373599.2107011 0 .2873197-.0560399 2.1261657-1.6251556 4.0224757-2.2042341 4.9993626-2.2042341 1.6089903 0 2.8540423.747198 3.8117747 2.2789539.0574639.0747198.1340825.1307597.2298557.1307597.0766186 0 .1532372-.0373599.1915465-.1120797 1.9537739-1.4383562 3.8883932-2.2976339 5.1909091-2.2976339 3.0455888 0 4.8844348 2.2229141 4.8844348 5.9589041 0 1.0647572-.0191546 2.4283935-.0191546 3.6986301-.0191546 1.1207971-.0191546 2.1668743-.0191546 2.8767124 0 .1867995.2298557.6724782.593794.7658779.4597115.2054795 1.0918148.3175592 1.9154646.4669988h.0383093c.057464.2054794-.0766186 1.0460772-.1915465 1.2141967-.2107011 0-.4980208-.0186799-.8428044-.0373599-.6321033-.0373599-1.513217-.0747198-2.5092587-.0747198-2.0495471 0-3.1030527.0373599-4.1182489.0933998-.0766186-.2428394-.0957732-1.0273973 0-1.1955168.4022476-.0747198.8236498-.1681196 1.245052-.2801993.6321033-.2054794.8236498-.4856787.8619591-1.3262764.0191546-.5977584.1340825-5.8281445-.0766186-7.0610212-.1915465-1.2889166-1.1875881-2.8019925-3.3712178-2.8019925-.8044951 0-2.1070111.3175591-3.3520631 1.2515566-.0766186.0747198-.1340825.1867995-.1340825.2988792v.01868c.1532372.6724782.1532372 1.4570361.1532372 2.6525529v2.0921544c-.0191547 1.4383562-.0191547 2.8019926 0 3.8480698 0 .6911581.4405568.8592777.7853405.9900373.1915464.0560399.3447836.0747198.4980208.1120797.2873197.0747198.593794.1494396 1.0535055.2241594.057464.2988792.057464.5977584-.0191546.8966376-.0191547.1120797-.0766186.2241594-.1340825.3175592-1.1301242-.0373599-2.2985576-.0747198-3.9650118-.0747198-.4980208 0-1.3408253.0186799-2.0687018.0373599-.5937941.0186799-1.1492788.0373599-1.4749078.0373599-.0766186-.2054795-.1149279-.4109589-.1149279-.6351183 0-.2054795.0383093-.4109589.1340825-.5790785l.4405569-.0747198c.4022476-.0747198.7278766-.1307596 1.0535056-.2054794.5554847-.1867995.7661858-.4669988.8044951-1.1581569.0957732-1.6064757.1915465-6.2204234-.0383093-7.3599004-.4022476-1.867995-1.4940624-2.8019925-3.2371352-2.8019925-1.0151963 0-2.2985576.4856787-3.3520631 1.2515566-.2107011.1867995-.325629.4669988-.3064744.7285181v1.9053549c0 2.3163138-.0191546 5.2117061.0383093 6.4632628.0383093.373599.1723918.8405977.9194231.9900373.1532371.0560399.4405568.0933998.7661858.1494396.1915465.0373599.3830929.0747198.593794.1120797.0766186.392279.0383093.8219178-.0957732 1.2141968-.325629 0-.7278765-.01868-1.1875881-.0373599-.6895672-.0373599-1.570681-.0747198-2.5667226-.0747198-1.1684334 0-1.9729285.0373599-2.6241865.0747198-.4405569.0186799-.8236498.0373599-1.2067427.0373599"></path><path d="m68.1881188 25.494396c-.6336634-.0186799-1.2673267.1494396-1.8217822.4856787-1.3267326.747198-2 2.241594-2 4.4645081 0 4.128269 2.2178218 7.0236613 5.4059406 7.0236613.8514852.0186799 1.6831683-.2615193 2.3366337-.7845579.970297-.7285181 1.5049505-2.260274 1.5049505-4.3711084 0-4.0722291-2.1782178-6.8181818-5.4257426-6.8181818m.6138614 13.505604c-5.7425743 0-7.8019802-3.9414695-7.8019802-7.6027397 0-2.5778332 1.1287129-4.5765878 3.3465347-5.9775841 1.5643564-.8966376 3.3465346-1.3823163 5.1881188-1.4196762 4.3960396 0 7.4653465 2.9327522 7.4653465 7.135741 0 2.8767123-1.2277228 5.1183063-3.5445545 6.5379825-1.1089108.6351183-3.0495049 1.3262765-4.6534653 1.3262765"></path><path d="m125.188119 25.494396c-.653466-.0186799-1.287129.1494396-1.821782.4856787-1.346535.747198-2.019802 2.241594-2.019802 4.4645081 0 4.128269 2.217821 7.0236613 5.40594 7.0236613.871287.0186799 1.702971-.2615193 2.356436-.7845579.970297-.7285181 1.485148-2.260274 1.485148-4.3711084 0-4.0722291-2.158415-6.8181818-5.40594-6.8181818m.613861 13.505604c-5.762376 0-7.80198-3.9414695-7.80198-7.6027397 0-2.5778332 1.128713-4.5765878 3.346535-5.9775841 1.564356-.8966376 3.346534-1.3823163 5.188118-1.4196762 4.39604 0 7.465347 2.9327522 7.465347 7.135741 0 2.8767123-1.227723 5.1183063-3.544554 6.5379825-1.128713.6351183-3.049505 1.3262765-4.653466 1.3262765"></path><path d="m106.536911 25.3882726c-1.740597 0-2.881656 1.3502377-2.881656 3.4041204 0 2.0538828.966999 4.5071316 3.713275 4.5071316.4835 0 1.334458-.1901744 1.759938-.6465927.638219-.570523 1.063698-1.7305864 1.063698-2.9667195 0-2.681458-1.353798-4.2979398-3.635915-4.2979398m-.232079 14.244057c-.50284 0-.986339.1141046-1.411819.3423138-1.392478.8557845-2.050037 1.711569-2.050037 2.7004755 0 .9128367.3868 1.6545166 1.179739 2.3201267.986338.7987322 2.301457 1.1790809 4.022714 1.1790809 3.423176 0 4.931694-1.7686213 4.931694-3.4992076 0-1.2171157-.618879-2.0348653-1.933998-2.4912837-1.005678-.3613312-2.688256-.5515056-4.738293-.5515056m.232079 8.3676704c-2.050037 0-3.519875-.4183835-4.776973-1.3502377-1.218419-.9128368-1.779278-2.2630745-1.779278-3.1949287.01934-.5895404.25142-1.1790808.676899-1.6164818.34812-.3803486 1.179739-1.1220285 3.094396-2.3771791.05802-.0190174.0967-.0760697.0967-.1521394 0-.0570523-.05802-.133122-.11604-.1521395-1.585878-.570523-2.050037-1.5213946-2.204757-2.0348653 0-.0190174 0-.0570523 0-.0760697-.05802-.2091918-.0967-.3993661.1934-.5895404.212739-.1521395.560859-.3613312.947658-.570523.52218-.2852615 1.044359-.6085578 1.527858-.9508716.03868-.0570523.07736-.1331221.05802-.2091918s-.05802-.133122-.13538-.1711569c-2.320796-.7416799-3.481195-2.4152139-3.481195-4.9445325-.01934-1.5974643.773599-3.1188589 2.146737-4.0507131.928319-.703645 3.268456-1.5594295 4.796314-1.5594295h.0967c1.547198.0380349 2.436837.3423138 3.655255.7797147.696239.2472267 1.431158.3613313 2.166077.3232964 1.295778 0 1.856638-.3803487 2.359477-.836767.07736.1901743.11604.4183835.11604.6275752.03868.5324881-.11604 1.0459588-.42548 1.4833598-.251419.3613312-.889639.6085578-1.450498.6085578-.05802 0-.11604 0-.17406 0-.309439-.0190174-.599539-.0760697-.889638-.1521394l-.15472.0570523c-.03868.0570523-.01934.133122.01934.2282092.01934.0190174.01934.0380348.01934.0570523.11604.4564183.1934.9128367.21274 1.3882725 0 2.6434232-1.083039 3.8034866-2.262777 4.659271-1.121719.8177496-2.475517 1.3312203-3.906675 1.4453249-.01934 0-.17406.0190174-.44482.0380349-.174059.0190174-.406139.0380348-.444819.0380348h-.03868c-.25142.0760698-.908979.3803487-.908979.9508717 0 .4564184.2901 1.0459588 1.740598 1.1600634l.928319.0570523c1.895317.133122 4.274134.2852615 5.395852.6465927 1.527858.5134707 2.533537 1.9207607 2.494857 3.4611727 0 2.3771791-1.759938 4.6212362-4.699614 5.9904913-1.392478.6275753-2.920336.9698891-4.448194.9508716"></path><path d="m96.9221115 37.5803238c-.8046968-.1120797-1.384827-.2241594-2.0585266-.5417186-.1497111-.1307596-.2245666-.2988792-.2619943-.5043586-.0748555-1.0834371-.0748555-4.2777086-.0748555-6.369863 0-1.6998755-.2807082-3.1942715-1.0105495-4.2590287-.8608384-1.1955168-2.0959543-1.9053549-3.686634-1.9053549-1.4035408 0-3.2749287.9526775-4.8281806 2.260274-.0374277.0373599-.2807081.2615193-.2807081-.0933998.0187138-.3362391.0748555-1.0460772.0935694-1.494396.0374277-.2428393-.0561417-.5043586-.2245666-.6724782-1.0105494.5043587-3.8550589 1.1768369-4.9217499 1.2889166-.7672691.1494396-.9544078.8779576-.1309972 1.1394769.6549857.1681196 1.2912576.4483188 1.8713878.8032379.318136.2428393.2807082.5977584.2807082.8779576.0374278 2.3910337.0374278 6.033624-.0748555 8.0136987-.0374278.7845579-.2432804 1.0647571-.8234107 1.2141967l.0561417-.0186799c-.4491331.1120797-.8982662.1867995-1.3473993.2428393-.1684249.1867995-.1684249 1.2141968 0 1.4196762.3742776 0 2.2082377-.0933997 3.7240618-.0933997 2.0959544 0 3.1813593.0933997 3.7240618.0933997.2058526-.2428393.2807081-1.1955168.1309971-1.4196762-.4865608-.0186799-.9918355-.0933997-1.4783964-.2054794-.5801302-.1494396-.7111273-.4296389-.7485551-1.0647572-.0748555-1.6625155-.0748555-5.2117061-.0748555-7.6214197 0-.6724782.1684249-.9900373.3929914-1.1768368.7298413-.6351183 1.9088156-1.0647572 2.9567928-1.0647572 1.0105494 0 1.7029629.3175592 2.2082376.747198.5801303.5043587.9544078 1.2328767 1.0292633 1.9987547.1497111 1.3449564.1122833 4.0535492.1122833 6.388543 0 1.2702366-.1122833 1.5877957-.5801302 1.7372353-.2245666.0933998-.8046968.2054795-1.4783964.2801993-.2245665.2054794-.149711 1.1955168 0 1.4196762.9356939 0 2.0210988-.1120797 3.6117785-.1120797 1.9836711 0 3.2375009.1120797 3.7427756.1120797.2245666-.2615193.2994221-1.1768369.1497111-1.4196762"></path></g></g></svg>