<svg xmlns="http://www.w3.org/2000/svg" viewBox="0 0 200 41"><g><path d="m13.7356608 1.4563591c7.4314215 0 11.6359103 4.35910225 11.6359103 10.2842893 0 3.9351621-2.3690773 7.1122194-5.5511222 8.1895262 3.7206982.9177057 6.7381546 4.3092269 6.7381546 9.0473815 0 6.1945137-4.6334165 10.6683292-11.8004988 10.6683292h-14.7581047v-38.1895262zm-1.1321695 15.7805486c3.3965087 0 5.4413965-1.8852868 5.4413965-4.7930174 0-2.9077307-1.8852868-4.74314217-5.4862843-4.74314217h-5.23192021v9.53615957zm.7531172 16.2144639c3.6109725 0 5.765586-1.8852868 5.765586-4.957606s-1.9401496-5.117207-5.6558603-5.117207h-6.13965091v10.074813z"></path><path d="m47.1321696 36.7880299c-1.4563591 2.4937656-4.5236908 3.5561098-7.3266833 3.5561098-6.4089776 0-10.074813-4.6832918-10.074813-10.4738155v-16.7281796h7.1770574v15.2867831c0 2.9625935 1.4962593 5.3366583 4.8478803 5.3366583 3.1770573 0 4.9875311-2.1546134 4.9875311-5.2269326v-15.3965088h7.1670823v21.7107232c.0007272 1.6014335.090642 3.2015837.2693267 4.7930175h-6.8329177c-.1449654-.9456755-.2166666-1.9011359-.2144638-2.8578554z"></path><path d="m63.2369077-.00000359c2.4313635.00030714 4.4057372 1.96471716 4.4184022 4.39604795.0125438 2.43133079-1.9413568 4.41610559-4.3725864 4.44161757s-4.4263495-1.91782397-4.4647684-4.34888388c-.0200789-1.18442991.4367699-2.32722133 1.2678171-3.17140019.8310472-.84417886 1.9665364-1.31888657 3.1511355-1.31738145zm-3.5561097 39.64588889v-26.5037407h7.1521197v26.5037407z"></path><path d="m72.6084788 39.6458853v-38.99750625h7.19202v38.99750625z"></path><path d="m110.299252 34.8528678c0 1.7755611.109726 3.7157108.219451 4.7930175h-6.842893c-.177118-1.0145661-.267221-2.0424111-.269326-3.0723192-1.187033 2.1047381-3.8802995 3.7206982-7.4314217 3.7206982-7.5411471 0-12.9276808-5.925187-12.9276808-13.9650872 0-7.755611 5.2219452-13.840399 12.7082295-13.840399 4.578554 0 6.733167 1.8852867 7.481297 3.2817955v-15.12219455h7.052369zm-13.4663343-.9725685c3.6658353 0 6.5187033-2.798005 6.5187033-7.5910225 0-4.7930174-2.852868-7.3815461-6.5187033-7.3815461-3.6658354 0-6.5586035 2.6932668-6.5586035 7.4314214s2.7880299 7.5411472 6.5586035 7.5411472z"></path><path d="m130.753117 24.2942643 10.82793 15.351621h-8.778054l-6.982544-10.1296758-2.962594 3.127182v6.9825437h-7.187032v-38.97755615h7.167082v22.35411475l9.157107-9.8603492h9.371572z"></path><path d="m147.950125-.00000227c2.43201-.00243901 4.408872 1.96074989 4.42339 4.39271876.014358 2.43196888-1.939055 4.41849097-4.370923 4.44492548s-4.428002-1.91715584-4.466432-4.34886392c-.020064-1.18356452.436105-2.3255895 1.266069-3.16962028.829964-.84403077 1.964161-1.31932781 3.147896-1.31916004zm-3.551123 39.64588757v-26.5037407h7.162095v26.5037407z"></path><path d="m155.610973 13.1421446c2.798005 0 4.094763-1.8304239 4.094763-4.19950121v-3.71571072h6.48379v7.91521193h5.331671v6.3591023h-5.361596v11.0922693c0 2.319202 1.077307 3.0723192 3.122195 3.0723192.742067.008323 1.482861-.0635825 2.209476-.2144638v5.9501247c-1.29193.475738-2.663983.695944-4.0399.648379-5.17207 0-8.40399-3.0723192-8.40399-8.1895262v-12.3591022h-3.436409"></path><path d="m199.177057 32.0498753c-1.346633 4.5785536-5.546134 8.40399-12.064838 8.40399-7.27182 0-13.680798-5.2269326-13.680798-14.1645885 0-8.478803 6.244389-13.9650873 13.032419-13.9650873 8.189527 0 13.09227 5.2269327 13.09227 13.7356609 0 .9975062-.109726 2.1047381-.109726 2.2094763h-18.952618c.164588 3.4912718 3.127182 6.0349127 6.683291 6.0349127 3.336659 0 5.167083-1.6708229 6.029926-4.0399002zm-6.658354-8.6733167c-.109725-2.638404-1.830424-5.2219451-5.925187-5.2219451-3.058281-.1264035-5.676024 2.1729059-5.945137 5.2219451z"></path></g></svg>