<svg xmlns="http://www.w3.org/2000/svg" xmlns:xlink="http://www.w3.org/1999/xlink" viewBox="0 0 148 81"><linearGradient id="a" x1="15.000019%" x2="96.132987%" y1="62.04435%" y2="34.827589%"><stop offset="0" stop-color="#00adee"></stop><stop offset="1" stop-color="#9f76a6"></stop></linearGradient><linearGradient id="b" x1="7.525126%" x2="89.818237%" y1="51.586942%" y2="47.935291%"><stop offset="0" stop-color="#ec037c"></stop><stop offset="1" stop-color="#9f76a6"></stop></linearGradient><linearGradient id="c" x1="32.17443%" x2="63.510508%" y1="7.192062%" y2="84.994659%"><stop offset="0" stop-color="#ec037c"></stop><stop offset="1" stop-color="#5c2d90"></stop></linearGradient><linearGradient id="d" x1="4.717681%" x2="89.102629%" y1="28.050119%" y2="67.112177%"><stop offset="0" stop-color="#44c7f4"></stop><stop offset="1" stop-color="#5c2d90"></stop></linearGradient><g fill="none"><path d="m147 5.43090794c0-1.96681957-1.067513-3.77993116-2.790719-4.73996957-1.723207-.96003841-3.832806-.91695874-5.51507.11262205v-.00033669l-127.1627561 75.17022597c-.8692576.4021858-1.4522397 1.2411838-1.5240042 2.193269-.07176438.9520851.3789092 1.8683996 1.1781295 2.3953857.7992204.526986 1.8220299.5822499 2.6737803.1444682.0337981-.0174702.0672959-.0356138.1004932-.0544308l129.8566963-70.2830696c.223808-.1022063.440389-.2194368.648249-.3508823l.018701-.0101006-.000788-.0012906c1.568682-.99678927 2.517288-2.72237714 2.517288-4.57589076z" fill="url(#a)"></path><path d="m148 5.3992957c0-1.43198226-.578465-2.80531424-1.608139-3.8178786s-2.426211-1.5814171-3.88239-1.5814171c-.103893 0-.207068.00291958-.309524.00875875-.094551.00531848-.18863.01294287-.282236.02287317l-98.5214123 13.76741738c-2.8637927.5127544-5.1981442 2.5525119-6.0527279 5.2888766-.8545838 2.7363647-.0868785 5.7129856 1.990579 7.7180648 2.0774576 2.0050792 5.118204 2.7042242 7.8843357 1.8128093l96.0277495-17.8699717c.197755-.0258772.393922-.0623801.587619-.1093449l.011346-.0021758v-.0004463c2.442051-.6029197 4.1548-2.76156395 4.1548-5.2375656z" fill="url(#b)"></path><path d="m81.9971112 69.0735189c-.0432083-1.8878696-.6447175-3.7216404-1.7299253-5.2738782l-28.7038739-45.7996606c-1.9082388-3.4583344-6.1471449-4.9257655-9.8134421-3.3972325-3.6662972 1.5285329-5.5715738 5.5575636-4.4108835 9.3275618.149017.4841935.3463003.952486.5889324 1.3979521 0 0 25.5411434 48.3273777 25.7382071 48.6787122.1162807.2074025.2398831.4099742.3708071.6077153 2.3923113 3.6225711 6.9191181 5.2333703 11.0904971 3.9463942s6.9753759-5.159514 6.8696811-9.4875643z" fill="url(#c)"></path><path d="m81.9971121 69.0219322c-.0745684-3.1556333-1.6879997-6.0793347-4.3279334-7.842655-.4842037-.3242234-.9966274-.6049308-1.5311696-.8387797l-71.08758243-38.9430384c-1.58300561-.8318801-3.54480644-.3194679-4.50924104 1.1777903-.96443461 1.4972582-.60852083 3.4779415.8180754 4.5526429l64.88854107 49.8981394c3.0073699 2.2571123 7.0522314 2.6075225 10.4086759.9017134 3.3564446-1.7058091 5.4318406-5.1666507 5.3406341-8.9058129z" fill="url(#d)"></path><path d="m39 29h40v39h-40z" fill="#000"></path><g fill="#fff"><path d="m42.450286 60.687277h14.999886v2.4375h-14.999886z"></path><g transform="translate(41.857143 33.457143)"><path d="m.42451429 5.81183571 1.16405714-1.07155285c.22601602.34418687.60626218.56325205 1.02451428.59023714.2268767-.00249222.440746-.10368634.58313811-.27591688.1423921-.17223054.19841318-.39748264.15274761-.61417455v-4.02257143h1.79748571v4.03182c.0513958.65762376-.18161047 1.30623937-.64262857 1.78887429-.48272773.44086103-1.12739866.67329731-1.78817143.64472571-.90052504.04416095-1.76278231-.35906932-2.29114285-1.07144143z"></path><path d="m5.56537143.41785714h5.24348567v1.48924286h-3.4552571v.97165714h3.1292571v1.38934715h-3.1292571v1.00803857h3.5018286v1.49832428h-5.29005717z"></path><path d="m13.1708571 1.96158857h-1.9465142v-1.54373143h5.7092v1.54373143h-1.9558286v4.81276714h-1.8068572z"></path><path d="m.59217143 8.26003286h3.34348571c.64602023-.04989303 1.28588326.15266413 1.77862857.56304857.27730155.27574747.42847154.64909716.41914286 1.03517143v.01816285c.01300881.63419079-.39233416 1.20511119-1.00571428 1.41653569.76405185.1374494 1.3126596.7954935 1.29457142 1.5528129v.0181628c0 1.08966-.91274285 1.7525486-2.46805714 1.7525486h-3.36205714zm3.76262857 1.96147714c0-.35417571-.28868571-.54483-.8196-.54483h-1.18285714v1.1169043h1.13622857c.54948571 0 .86617143-.1816286.86617143-.5539114v-.0181629zm-.624 1.8072043h-1.37845714v1.1713928h1.39702857c.5588 0 .86617144-.2088728.86617144-.5811557v-.01833c.00005713-.3450385-.27937144-.5719071-.88474287-.5719071z"></path><path d="m6.69234286 8.26003286h3.0828c.77291864-.06028887 1.53821254.18515874 2.12348574.68105143.3946653.39395194.603709.93007303.5771428 1.48016141v.0181629c.0331348.8672497-.507289 1.6576532-1.3410857 1.9614214l1.5553143 2.2157014h-2.0766857l-1.31320001-1.9250957h-.80097143v1.9250957h-1.8068zm3.00822857 3.05113714c.2338823.0426062.47520627-.0160781.66117347-.1607816.1859673-.1447036.2981863-.361116.3074551-.5929213v-.0181628c0-.50856-.3818286-.7627843-.97794286-.7627843h-1.19211428v1.53465z"></path><path d="m14.5899429 8.21468143h1.7414857l2.7754857 6.40184997h-1.9371429l-.4657143-1.1441485h-2.5238857l-.4658857 1.1441485h-1.8904571zm1.5832571 3.88651717-.7264-1.7979557-.7357714 1.7979h1.4622285z"></path><path d="m19.3209714 8.26003286h1.8068v6.35649854h-1.8068z"></path><path d="m21.5747429 8.26003286h1.6857142l2.6822858 3.35990574v-3.35990574h1.7882285v6.35649854h-1.574l-2.7942857-3.48699v3.48699h-1.7881714v-6.35649854z"></path><path d="m27.8442286 13.6722857 1.0057143-1.1713928c.5943612.4828508 1.3407224.7521203 2.1142857.7627842.4936 0 .7542857-.1634657.7542857-.4359085v-.0182743c0-.2724429-.2142286-.4086643-1.1082857-.6175372-1.3877143-.3087128-2.4588-.6901328-2.4588-1.9886657v-.0181071c0-1.1804743.9593143-2.03407287 2.524-2.03407287.968324-.03613435 1.9185183.26303415 2.6822857.84451714l-.9033714 1.24404433c-.5275937-.38753166-1.1652523-.60639572-1.8254858-.6265629-.4377142 0-.6519428.17271429-.6519428.4086086v.0179957c0 .2906057.2235428.4178571 1.1362286.6174814 1.4901142.3175714 2.4215428.7900286 2.4215428 1.9795843v.0181629c0 1.2985328-1.0524571 2.0703985-2.6357714 2.0703985-1.115948.0244078-2.2024871-.3501597-3.0546857-1.0530557z"></path></g></g></g></svg>