<svg xmlns="http://www.w3.org/2000/svg" viewBox="0 0 203 36"><g fill="none" fill-rule="evenodd"><g fill="#3a4757" fill-rule="nonzero" transform="translate(53)"><path d="m22.5973631 2.56271186c2.0912779 1.71050848 3.1369168 4.16135594 3.1369168 7.35254238.0542809 1.96736286-.5522024 3.89596646-1.7221095 5.47627116-1.1683728 1.5271666-2.8104667 2.6209289-4.6673428 3.1088136v.0976271c1.1632044.4016943 2.1873518 1.1290111 2.9513184 2.0959322.7221096.9376271 1.4929007 2.5077966 2.3123733 4.7105085l3.4929006 9.72h-7.8681542l-2.8052738-8.3379661c-.6572008-1.9077966-1.4198783-3.2298305-2.2880325-3.9661017-.8681541-.7362712-2.1551724-1.1064407-3.8610547-1.1105085h-3.98275866v13.4237288h-7.23529411v-35.1335593h12.89452337c4.3286004 0 7.5425963.85423729 9.6419878 2.56271186zm-15.30121706 13.37186444h5.11764706c4.0344828 0 6.0517241-1.7288136 6.0517241-5.1864407 0-3.25423729-2.148073-4.88135594-6.444219-4.88135594h-4.72515216z"></path><path d="m48.0091278 10.900678c1.9062059 1.0733005 3.4545241 2.6863052 4.4513184 4.6372881 1.0466532 2.0074576 1.5699798 4.359661 1.5699798 7.0566102 0 2.6969491-.5243408 5.0481356-1.5730223 7.0535593-.9966459 1.9510891-2.545001 3.5641323-4.4513185 4.6372881-1.9188641 1.0861017-4.173428 1.6291526-6.7636917 1.6291526s-4.8458418-.5430509-6.7667343-1.6291526c-1.9064291-1.073011-3.4548211-2.6860926-4.4513184-4.6372881-1.05071-2.0054237-1.5750507-4.3566102-1.5730282-7.0535593.0020343-2.6969492.526375-5.0481356 1.5730282-7.0535594.9966458-1.9510891 2.5450009-3.5641323 4.4513184-4.6372881 1.9188641-1.08610168 4.1744422-1.62915253 6.7667343-1.62915253s4.8478702.5420339 6.7667343 1.62610173zm-10.8255578 5.8728813c-1 1.4481356-1.5 3.3884746-1.5 5.821017 0 2.4325423.5 4.3728813 1.5 5.8210169.9072661 1.3570897 2.4294445 2.1714459 4.0588235 2.1714459s3.1515574-.8143562 4.0588235-2.1714459c1-1.4461017 1.5-3.3864407 1.5-5.8210169 0-2.4345763-.5-4.3749153-1.5-5.821017-.9072661-1.3570897-2.4294445-2.1714459-4.0588235-2.1714459s-3.1515574.8143562-4.0588235 2.1714459z"></path><path d="m57.4807302 35.1244068v-35.1244068h6.8945233v35.1244068z"></path><path d="m69.1399594 35.1244068v-35.1244068h6.8884382v35.1244068z"></path><path d="m87.7363083 13.0728814c.7533508-1.1494599 1.7982456-2.0771471 3.0273834-2.6877967 1.2573687-.63971514 2.6488821-.96918696 4.0588235-.9610169 1.9374531-.03871957 3.8385027.53090186 5.4371198 1.6291525 1.614883 1.1587788 2.861601 2.7606 3.590264 4.6128814.875822 2.2032333 1.302077 4.5602177 1.253549 6.9315254.049042 2.3736433-.385804 4.7323301-1.27789 6.9315254-.749451 1.8576171-2.017108 3.4591975-3.651116 4.6128814-1.6129359 1.0993079-3.5268111 1.6686306-5.4766732 1.6291525-1.442324.0078359-2.8633601-.3489111-4.1318459-1.0372881-1.2591167-.6749167-2.3110006-1.6811353-3.0425963-2.9105085h-.0973631v3.3040678h-6.693712v-35.1274576h6.8884382v13.0728814zm.979716 3.7250847c-.9513184 1.399322-1.4269776 3.3315254-1.4269776 5.7966102 0 2.4650847.4756592 4.3972881 1.4269776 5.7966101.9513185 1.3972882 2.213996 2.0959322 3.7880325 2.0959322 1.6389452 0 2.9513185-.7118644 3.9371197-2.1355932s1.4776876-3.339661 1.4756654-5.7477966c0-2.4-.4918926-4.3159322-1.4756654-5.7477966s-2.2961461-2.1437288-3.9371197-2.1355932c-1.5699797-.0142373-2.8326572.6783051-3.7880325 2.0776271z"></path><path d="m127.296146 11.7640678c1.803245 1.6616949 2.704868 4.1369491 2.704868 7.4257627v9.0732203c0 2.8291526.229209 5.1152543.687627 6.8583051h-6.197769c-.245397-1.1012635-.360794-2.227642-.343813-3.3559322h-.097363c-1.837728 2.6318644-4.543611 3.9477966-8.117647 3.9477966-2.592292 0-4.65923-.7118644-6.200812-2.1355932-1.525974-1.392795-2.370359-3.3835941-2.312373-5.4518644 0-2.1376271.74645-3.8664407 2.239351-5.1864407s3.977688-2.2576271 7.454361-2.8128813c2.099392-.3274576 4.182556-.5572882 6.249493-.6894915v-.8877967c0-1.5132203-.361055-2.6318644-1.083164-3.3559322-.72211-.7240678-1.72211-1.0861017-3-1.0861017-1.279919 0-2.271806.3366102-2.97566 1.0098306-.734809.7417355-1.149965 1.7430034-1.156186 2.7884745h-6.693712c.065728-2.3970307 1.137463-4.6548856 2.951318-6.2176271 1.837729-1.6108474 4.461461-2.41627118 7.871197-2.41627118 3.541582.0020339 6.21501.83288138 8.020284 2.49254238zm-8.954361 12.4077966c-1.444219.2623729-2.477688.6569492-3.100406 1.1837288-.622718.5267797-.934077 1.2833899-.934077 2.2698305-.035918.8694699.315218 1.7100098.958418 2.2942373.638945.5755932 1.551724.863411 2.738337.863411.745775.00187 1.486479-.122947 2.190669-.3691737.655018-.2162895 1.252282-.5793759 1.74645-1.0616949.536635-.5233467.926914-1.1787318 1.131846-1.900678.226339-.9446417.328625-1.9148866.30426-2.8861017v-.9366101c-1.979716.1322033-3.658215.3132203-5.035497.5430508z"></path><path d="m149.975659 9.9579661v5.9766102c-.713511-.1457514-1.4384-.2284415-2.166328-.2471187-2.099392 0-3.706897.6498305-4.822516 1.9494916-1.115618 1.299661-1.673428 3.1830508-1.673428 5.6501694v11.840339h-6.885395v-25.0657627h6.346856v3.5572882h.097363c.69899-1.2313897 1.702932-2.2611724 2.914807-2.9898306 1.198066-.65776655 2.547167-.98911892 3.912779-.96101691.768406-.01060259 1.534495.08695867 2.275862.28983051z"></path></g><g transform="translate(0 1)"><path d="m43.7127778 34.990708v-31.12212393c-.0794445-1.98539823-.1466667-5.00530973-4.51-3.19955752-7.3058334 2.71017699-14.6513889 5.31814159-21.8869445 8.20176991-5.4847222 2.18362834-11.49194441 4.58097344-14.58416663 16.27964604-.80972223 3.0663717-1.92194445 6.7769911-2.73166667 9.8433628h7.10111111c.65388889-2.4778761 1.47277778-5.6030973 2.13888889-8.0809734 2.2152778-8.3628319 6.5633333-10.1097346 10.5325-11.6924779 5.6955556-2.270354 11.4705556-4.3362832 17.2180556-6.47345135v26.25000005z" fill="#3a4757" fill-rule="nonzero"></path><path d="m17.1233333 18.2774336c-.7254875.4006603-1.4049158.881622-2.0258333 1.4340708-2.1388889 1.9358407-3.3061111 4.6986726-4.0363889 7.4553098l-2.02277777 7.5761062h8.08499997z" fill="#f7941d"></path><path d="m25.9172222 14.6566372c-1.8333333.6896755-3.6544444 1.3948377-5.4633333 2.1154867-.4858333.1920354-.9655556.3840708-1.4330556.5853982v17.3853983h6.8963889z" fill="#bfd730"></path><path d="m35.0808333 34.7429204v-23.4871682c-2.4230555.8920354-4.8491666 1.7840708-7.2691666 2.6884956v20.7986726z" fill="#00bad9"></path></g></g></svg>