<svg xmlns="http://www.w3.org/2000/svg" viewBox="0 0 142 40"><g fill="none" fill-rule="evenodd"><g fill="#335061"><path d="m77 0h-4.3889879v8.75416779c-3.1095178-1.75485643-6.9615094-1.35073297-9.6555237 1.01298572-2.6940263 2.36367419-3.660837 6.18762489-2.4234427 9.58502249 1.2373911 3.3975089 4.4175292 5.6506043 7.9714391 5.647824h3.1903864v-4.4759161h-3.1903864c-1.6613407 0-3.1590877-1.0205217-3.7948548-2.5858113-.6357671-1.5651783-.2843484-3.3668977.8903909-4.564853 1.1747502-1.1979552 2.9414622-1.5563845 4.4763378-.9079837 1.534919.6482895 2.5356534 2.1757325 2.5356534 3.8699231h4.3889879c0-.0215948 0-.0401841 0-.0617789z" fill-rule="nonzero"></path><path d="m2.69357883 10.251068c-1.7467658 1.6379232-2.72189798 3.9137108-2.69255466 6.2839174-.03614459 2.2809737.88577091 4.4761061 2.54936185 6.0701617 1.49413533 1.4290013 3.56724922 2.390808 6.29715655 2.390808 1.44664253.045255 2.87928513-.2899184 4.14933143-.9709457v-4.6412265c-.926522.7986244-2.1159623 1.2421455-3.34935633 1.2488622-1.19088052.0184984-2.33659044-.4467143-3.16569309-1.2854185-.72257327-.7798617-1.11350102-1.8013808-1.0925792-2.8549857-.0222727-1.1165106.41015261-2.195661 1.20153122-2.9984475.8005668-.755043 1.87484778-1.1660047 2.98515583-1.1419788 1.25317707-.0056927 2.46729047.4273901 3.42406757 1.2213678v-4.68088787c-1.283555-.60379547-2.6917479-.90891027-4.11511297-.89159681-2.22251402 0-4.37033914.57098871-6.1913082 2.25037028z" fill-rule="nonzero"></path><path d="m15 0h5v25h-5z" fill-rule="nonzero"></path><path d="m24.1733392 10.5712256c1.298278-1.42912671 3.5033929-2.5712256 6.3257424-2.5712256 2.8229006 0 5.0369721 1.14209889 6.3257857 2.574287 1.4612461 1.6062328 2.1750476 3.8903865 2.1750476 5.9272106.0094208 2.1780421-.763392 4.2850898-2.1750476 5.9273098-1.2983212 1.4290276-3.5028851 2.5711926-6.3257857 2.5711926-2.8223495 0-5.0274644-1.142165-6.3257424-2.5711926-2.8977856-3.4066733-2.8977856-8.4509085 0-11.8575818zm6.3568689 10.0711045c.9880832.0190508 1.9355433-.3976434 2.5965452-1.1420548 1.4269973-1.738553 1.4269973-4.2619535 0-6.0005286-.6826315-.7331131-1.6332572-1.148618-2.6282011-1.148618-.9944144 0-1.9455695.4155049-2.6282118 1.148618-1.4269973 1.7385751-1.4269973 4.2619756 0 6.0005286.6794768.7561943 1.6512027 1.173439 2.6598677 1.1420548z"></path><path d="m53.6549279 16.9446116c0 .799016-.1111067 1.8902803-.8918585 2.6177338-.630701.5223404-1.4377724.7951145-2.2630694.7648436-.8136171.0355403-1.6097486-.238467-2.2218028-.7648436-.8538136-.7647651-.9268184-1.8902243-.9268184-2.6177338v-8.9446116h-5.3513788v9.7871504c0 1.7814734.2983566 3.4199115 1.8187111 4.8717914 1.9043975 1.8188299 4.6403987 2.3410582 6.6812889 2.3410582 1.9678854 0 4.7609654-.5253675 6.6431757-2.3410582 1.6695595-1.601104 1.8568243-3.3452658 1.8568243-5.1982346v-9.4607072h-5.3450721z" fill-rule="nonzero"></path></g><path d="m81.5000217 40c-4.6923527-.005169-8.4950147-3.918248-8.5000217-8.746922v-14.253078h4.3908259v14.2499316c-.0012273 1.7106166.9991669 3.2534639 2.5345723 3.9089212 1.5354054.6555697 3.3033502.2945232 4.4791454-.9145837 1.175893-1.2091069 1.5279984-3.028161.8922103-4.6086525-.6358967-1.5804803-2.1344407-2.6110754-3.7967322-2.6110754h-3.1977294v-4.518374h3.1977294c4.6944815 0 8.4999783 3.9161354 8.4999783 8.7469108 0 4.830809-3.8054968 8.746922-8.4999783 8.746922z" fill="#1997b5" fill-rule="nonzero"></path><path d="m97.1547909 32.2535084h11.8084711l.036738-.5134104c0-1.938886-.355498-4.406277-2.234042-6.3783906-1.951367-2.0596935-4.489386-2.3617074-6.276849-2.3617074-1.7869281 0-4.1636489.3533636-6.0788552 2.2559803-1.5958363 1.6187859-2.4102538 3.9442381-2.4102538 6.2002293 0 2.609308.9938026 4.6871487 2.3767208 6.061231 1.8449462 1.8332352 3.9363533 2.4825594 6.3130632 2.4825594 1.763512.0024855 3.494047-.4781221 5.000415-1.3892398 1.462762-.9039299 2.543862-2.3075261 3.039444-3.9472331l-4.823691-.4922606c-.235799.5290712-.61746.9813629-1.100276 1.3047084-.640888.3212763-1.353104.4740731-2.070117.4439058-.7782133 0-1.8417517-.1419061-2.6231704-.9875706-.6158687-.7590833-.9533461-1.7037663-.9575977-2.6788017zm6.0644761-4.853254c.500379.5094135.854895 1.1422189 1.027357 1.8331916h-6.91512c.1341428-.634036.4407472-1.2191509.8873485-1.691231 1.3866367-1.3072024 3.5408585-1.3683538 5.0004145-.1419606z" fill="#1997b5"></path><path d="m116.167033 32.2686244h11.811709l.021258-.5285164c0-1.9388882-.355498-4.406282-2.234042-6.3783979-1.951367-2.0596959-4.489386-2.3617101-6.276849-2.3617101-1.786928 0-4.163649.353364-6.078855 2.2559829-1.595836 1.6187878-2.410254 3.9442426-2.410254 6.2002363 0 2.609311.993803 4.6871541 2.376721 6.0613469 1.844946 1.8331283 3.936353 2.4824339 6.313063 2.4824339 1.772026 0 3.480202-.2566946 5.000415-1.1626948 1.462762-1.0054325 2.535904-2.4784043 3.039444-4.1737648l-4.823691-.4922612c-.235799.5290719-.61746.981364-1.100276 1.3047099-.635568.324435-1.344056.4824595-2.057874.4590445-.778214 0-1.842286-.1420152-2.623171-.9875718-.615869-.7590841-.95388-1.7038008-.957598-2.6788374zm6.067715-4.8533031c.500269.5094032.854785 1.1422202 1.027247 1.8331937h-6.915044c.134132-.6340476.440737-1.2191632.887338-1.6912438 1.386637-1.3072039 3.540858-1.3683554 5.000459-.1419499z" fill="#1997b5"></path><path d="m139.398363 27.5791331c-.826417-.5353701-1.772952-.8433725-2.748644-.8944264-.514181-.026985-1.020439.1384266-1.425014.4655935-.185778.1905519-.297139.4444628-.313017.7136942.018413.3128847.20618.5886664.485933.7137053.480618.2232035.979391.402577 1.490589.5360329l1.320658.4288329c.947817.26214 1.826744.7382823 2.572745 1.3937097.894409.8576658 1.216354 1.8378522 1.216354 3.0385799.040737 1.5586463-.532155 3.0682822-1.58898 4.1872265-1.52935 1.5713821-3.407492 1.8379184-5.04416 1.8379184-2.086834 0-4.346562-.4655824-6.364827-2.2881472l2.1226-3.4674017c.520607.4614955 1.093093.8573786 1.705237 1.1792546.648637.3300499 1.362988.5010396 2.086824.4992723.313027 0 1.111987 0 1.565126-.3583273.316684-.2468747.508311-.6271832.521708-1.0353272-.006715-.3884825-.220977-.7416955-.557485-.9189703-.48482-.2550375-.998509-.4474341-1.529349-.5727934l-1.252088-.3920834c-.93504-.2792611-1.792935-.780853-2.504197-1.4641491-.742215-.7667695-1.144399-1.8137059-1.111981-2.8946304-.027316-1.3858893.513598-2.7197636 1.490595-3.6757043 1.39221-1.3232549 3.279291-1.6081224 4.695356-1.6081224 1.805135-.0443172 3.587068.4253187 5.148462 1.3569509z" fill="#1997b5" fill-rule="nonzero"></path></g></svg>