<svg xmlns="http://www.w3.org/2000/svg" viewBox="0 0 155 38"><g fill-rule="evenodd"><path d="m31.6661197 0h-25.33222632c-3.48269432 0-6.33389338 2.85024547-6.33389338 6.33425221v25.33372709c0 3.4823266 2.85119906 6.3320207 6.33389338 6.3320207h25.33222632c3.4826996 0 6.3338803-2.8496941 6.3338803-6.3320207v-25.33372709c0-3.48400674-2.8511807-6.33425221-6.3338803-6.33425221zm-.575707 29.0787994c0 1.1068507-.9065089 2.0106299-2.0144234 2.0106299h-20.15364557c-1.10734484 0-2.013859-.9037792-2.013859-2.0106299v-20.15426461c0-1.10740198.90651416-2.01399039 2.013859-2.01399039h20.15364557c1.1079145 0 2.0144234.90658841 2.0144234 2.01399039zm-6.9073822-6.0486133c0 .6354415-.5182413 1.152033-1.1502852 1.152033h-8.0598989c-.633724 0-1.1502984-.5165915-1.1502984-1.152033v-8.0598209c0-.6332099.5165744-1.1509304 1.1502984-1.1509304h8.0598989c.6320439 0 1.1502852.5177205 1.1502852 1.1509304z"></path><path d="m54.9933749 31c-2.2342756 0-4.3816834-.8640984-5.8946204-2.3812685-1.3502908-1.3522427-2.0987545-3.1098655-2.0987545-4.9480312h2.2630407c0 1.2311931.5078266 2.4184823 1.4338265 3.3436803 1.0903122 1.0895506 2.6579938 1.7170901 4.2981738 1.7170901h.0187949c3.1575162 0 5.7225768-2.2168899 5.7225768-4.9413673-.00164-2.0441747-1.127902-3.6662963-6.6065356-4.9396947-2.2298503-.5181193-3.7328171-1.2111751-4.7346214-2.1802248-1.0648531-1.0368135-1.5865025-2.4168098-1.5865025-4.2177617 0-3.55690218 3.1763111-6.4524222 7.0811717-6.4524222 1.8719403 0 3.6354585.64640777 4.9691671 1.82094387 1.3751771 1.21229876 2.135251 2.84829713 2.135251 4.60537113h-2.2630407c0-2.292964-2.1701074-4.15611316-4.8413774-4.15611316-2.6137398 0-4.8203438 1.91591236-4.8203438 4.18222036 0 2.0719544.7086092 3.2892447 4.5719753 4.1872118 4.1255574.9568455 8.3479528 2.5573025 8.3584436 7.1487969 0 1.9542238-.8441303 3.7807079-2.3764348 5.1435085-1.5013008 1.3350209-3.4932732 2.0680606-5.6080633 2.0680606z"></path><path d="m81.8230495 38v-9.7272298h-.063264c-1.459941 2.2078463-3.9758707 3.3432663-6.6205554 3.3432663-5.0956931 0-9.1392301-3.7778817-9.1392301-8.8389782 0-5.033409 4.1387308-8.7770583 9.1392301-8.7770583 2.6446847 0 5.1606144 1.1359569 6.6205554 3.3763993h.063264v-2.9472294h2.1769505v23.5708301zm-6.6838194-22.0659614c-4.0418797 0-6.9595346 2.9754794-6.9595346 6.9348258 0 3.9294602 2.9814886 6.8136703 6.9595346 6.8136703 3.8569819 0 6.8092857-3.1015178 6.8092857-6.8462665 0-3.743138-2.9523038-6.9022296-6.8092857-6.9022296z"></path><path d="m122.826419 30.594183v-3.0094571h-.063277c-1.493821 2.2550094-3.979463 3.4152741-6.623079 3.4152741-5.095665 0-9.140063-3.8560456-9.140063-9.0294422 0-5.1428572 4.134121-8.9705578 9.140063-8.9705578 2.675552 0 5.162283 1.1313711 6.623079 3.4507772h.063277v-3.009457h2.173581v17.1528628zm-6.686356-15.6162233c-4.038881 0-6.961561 3.040519-6.961561 7.0869857 0 4.0131318 2.984325 6.9626072 6.961561 6.9626072 3.855627 0 6.808016-3.1698611 6.808016-6.9959159 0-3.8249576-2.952389-7.053677-6.808016-7.053677z"></path><path d="m131.170661 20.7327109v10.2672891h-2.170661v-17.5508004h2.170661v2.5346048h.05759c.932093-2.2455168 2.572577-2.8236661 4.771749-2.9838044v2.3767115c-2.972816.2555478-4.829339 2.211442-4.829339 5.3559994"></path><path d="m154.962607 22.8182697h-15.696573c.158473 3.3863805 3.31287 6.209309 6.685978 6.209309 2.646604 0 5.232366-1.5066748 6.178184-4.0464667h2.329082c-1.257169 3.5734837-4.660974 6.018888-8.477147 6.018888-4.979021 0-8.982131-4.0436714-8.982131-8.9683633 0-4.8902599 4.00311-9.0316367 8.952012-9.0316367 5.044878 0 9.047988 4.2351896 9.047988 9.1915183 0 .2165193-.037393.4052684-.037393.6267514m-8.980476-7.8414072c-3.437836 0-6.178735 2.5087037-6.716097 5.8645447h13.460658c-.56748-3.355841-3.27658-5.8645447-6.744561-5.8645447"></path><path d="m100.933139 31.5815069v-2.7342099h-.061797c-1.0031037 2.1559736-3.2261183 3.152703-5.481693 3.152703-2.2241311 0-4.4780441-.8030334-5.8888752-2.634537-1.2193917-1.5760584-1.5007738-3.6980792-1.5007738-5.6569989v-9.7084641h2.1910258v9.6744846c0 3.6324124 1.282824 6.3020481 5.1986232 6.3020481 1.4389772 0 2.5667645-.3884846 3.6327553-1.4169281 1.5046427-1.4752661 1.7838177-3.2150386 1.7838177-5.2696603v-9.2899443h2.193778v17.5815069z"></path></g></svg>