<svg xmlns="http://www.w3.org/2000/svg" viewBox="0 0 200 38"><g fill="none"><path d="m55 31.6986943h4.3813391v-9.6501506h7.939433v-3.9030242h-7.939433v-6.1237585h10.0296388v-3.90023438h-14.4109779zm23.0704017-16.3486218c-4.5515695 0-8.3189631 3.2501953-8.3189631 8.2803259s3.7673936 8.3500725 8.3189631 8.3500725 8.318963-3.3199419 8.318963-8.3500725-3.8008815-8.2803259-8.318963-8.2803259zm0 12.5544024c-2.2939241 0-4.1859928-1.6739203-4.1859928-4.2768664 0-2.5331994 1.8809061-4.1848008 4.1859928-4.1848008s4.1859928 1.6404419 4.1859928 4.1848008c-.0111627 2.6029461-1.8920688 4.2796563-4.1859928 4.2796563zm30.6442583-18.30431867h-4.141343v6.09028007h-2.907869v3.3534204h2.907869v12.6297288h4.141343v-12.6297288h3.390654v-3.3534204h-3.390654zm25.124328 5.74991627c-1.26696 0-3.524606.3766321-5.023191 3.0102667-.890221-1.952907-2.567409-2.8400848-5.10133-2.9767883-1.504167 0-3.694836.7197858-4.585057 2.669903v-2.3630176h-4.185993v15.9831492h4.185993v-8.5230443c0-2.7368597 1.640909-3.7300524 3.348794-3.7300524 1.640909 0 2.90787 1.2331213 2.944148 3.4566454v8.7964513h4.185993v-8.5230443c0-2.4299743 1.370215-3.7300524 3.251121-3.7300524 1.713467 0 3.013915 1.2665997 3.013915 3.5598705v8.6932262h4.141342v-9.1368151c-.013953-4.6897667-2.307877-7.1866979-6.175735-7.1866979zm22.110414 2.3267493c-1.163706-1.7799353-3.524606-2.3267493-4.961796-2.3267493-4.211109 0-8.148733 3.1804486-8.148733 8.3138043s3.937624 8.3165941 8.148733 8.3165941c1.573933 0 3.934833-.7197857 4.961796-2.3602276v2.0533422h4.185993v-15.9831492h-4.185993zm-4.381339 10.3001897c-2.293924 0-4.414827-1.7464569-4.414827-4.3131347s2.120903-4.3103448 4.414827-4.3103448c2.19067 0 4.381339 1.5400067 4.381339 4.3103448s-2.120903 4.3131347-4.381339 4.3131347zm18.756039-18.37685527h-4.141343v6.09028007h-2.907869v3.3534204h2.907869v12.6297288h4.141343v-12.6297288h3.390654v-3.3534204h-3.390654zm8.625936-2.60015623c-1.470679 0-2.704152 1.09362794-2.704152 2.49693115 0 1.40330315 1.233473 2.53319945 2.704152 2.53319945 1.387116 0 2.511595-1.1241595 2.511595-2.51088052 0-1.386721-1.124479-2.51088048-2.511595-2.51088048zm2.053927 8.6904363h-4.141343v15.9803594h4.141343zm15.641659 10.7130901c-.791608 1.0291409-2.022402 1.6247168-3.320887 1.6069635-2.327412 0-4.481803-1.7799353-4.481803-4.3800915s2.154391-4.243388 4.481803-4.243388c1.293576-.0300279 2.525111.5534912 3.320887 1.5734851l3.320888-2.5108805c-1.506957-1.9863854-3.971112-3.1134918-6.641775-3.1134918-4.585058 0-8.625936 3.2501953-8.625936 8.2803259 0 5.0301305 4.040878 8.3835509 8.625936 8.3835509 2.704151 0 5.171096-1.1633746 6.675263-3.1469702zm-107.3037391-10.7130901v15.9831492h4.1859928v-12.3200535h3.7813469c1.0716141 0 1.93951-.945765 1.93951-2.1147194v-1.5483763z" fill="#120533"></path><g fill="#617bff"><path d="m28.5 0h-28.5v38h9.5v-28.48613543h28.5v-9.51386457z"></path><path d="m28.5 0h-28.5v38h9.5v-28.48613543h28.5v-9.51386457z"></path><path d="m19 28.4722303h9.475v9.5277697h.3333333c5.0775065-.0026064 9.1921275-4.1185108 9.1916667-9.1945338v-9.8054662h-19z"></path></g></g></svg>