<?xml version="1.0" encoding="UTF-8"?> <svg xmlns="http://www.w3.org/2000/svg" xmlns:xlink="http://www.w3.org/1999/xlink" height="52" viewBox="0 0 240 52" width="240"><mask id="a" fill="#fff"><path d="m51.6349665 21.1379679h-51.6349665v-20.82032084h51.6349665z" fill="#fff" fill-rule="evenodd"></path></mask><mask id="b" fill="#fff"><path d="m51.6349665 21.1379679h-51.6349665v-20.82032084h51.6349665z" fill="#fff" fill-rule="evenodd"></path></mask><g fill="none" fill-rule="nonzero"><path d="m89.2402352 23.3060856-4.3731698-.9675332c-2.1882552-.4837665-3.392965-1.8601165-3.392965-3.8769461 0-2.5632814 2.2316864-4.496985 5.1916775-4.496985 4.0958794 0 5.3052662 3.0729397 5.5792158 4.0159439.086862.3134262.3006763.5791571.5879892.7256498.2806312.1464927.5946709.1682963.8953472.0613225l2.3051849-.8292167c.5744743-.2080555.8907199-.8363123.7216232-1.4335843-.5946709-2.1326611-2.7795854-7.09297179-10.1895857-7.09297179-5.4856721 0-10.1160871 4.27894929-10.1160871 9.34487109 0 4.353899 2.8016349 7.5699247 7.4968624 8.6124075l4.169378.9266515c2.5096449.5382755 4.0090173 2.098593 4.0090173 4.1699315 0 2.6436821-2.1314608 4.285763-5.5658523 4.285763-4.0357442 0-5.9801176-2.698191-6.4545179-5.2260417-.0606872-.3296962-.2571654-.6169993-.5395833-.7890137-.282418-.1720144-.6236333-.2122082-.9370715-.1103833l-2.5323626.8244473c-.5510895.1712028-.8877991.7375957-.7817584 1.3150274.7884401 4.1903724 4.1647009 8.6601029 11.2920655 8.6601029 6.0228804 0 10.565097-3.9995912 10.565097-9.3005826 0-4.4765441-2.8971832-7.6925697-7.9512177-8.8304432m25.8929071 4.0881682c.013363.088577-.026727.1567131-.053454.1839675-.044808.0565417-.11246.089154-.183747.0885845h-9.287556c-.074918 0-.145662-.0351805-.191765-.0953981-.04291-.0505084-.060212-.1185615-.046772-.1839675.424288-1.9745853 2.084689-3.9655232 4.837548-3.9655232 2.704082 0 4.543553 1.4785542 4.921068 3.9607536zm-4.961828-8.394372c-4.891001 0-9.949044 4.1699315-9.949044 11.1538855 0 3.3659251 1.082434 6.24127 3.133715 8.305795 1.900274 1.9146254 4.496781 2.9707355 7.309775 2.9707355 4.189423 0 7.583724-2.2321398 9.080424-5.9687255.120271-.3066126.113589-.6472933-.016036-.9470923-.12921-.2940501-.372442-.5201192-.67151-.624127l-2.044599-.7222431c-.567463-.1987557-1.189371.0810933-1.427879.6425238-.881983 2.1190338-2.539044 3.1887712-4.924409 3.1887712-2.886493 0-5.08477-1.9827616-5.465627-4.9351004-.009728-.0669586.011206-.134767.056794-.1839675.026727-.0340681.086862-.088577.180406-.088577h13.553151c.608035 0 1.115843-.4837666 1.149252-1.10108.013363-.1975948.020045-.4156304.020045-.6309406 0-6.8272408-3.828611-11.0673526-9.989135-11.0673526zm23.078577 16.5707083c-3.253986 0-5.27854-2.3030014-5.27854-6.0096072 0-3.6520969 2.071326-6.0123326 5.27854-6.0123326 3.106988 0 5.19435 2.4120192 5.19435 6.0096072 0 3.5934998-2.088698 6.0096072-5.195018 6.0096072zm8.672841-15.9438558h-2.452183c-.634761 0-1.152592.5266923-1.152592 1.2060096-.000445.0981981-.058279.1866617-.146997.2248492-.046772.0204409-.140316.0476953-.224505-.034068-1.262841-1.1773925-3.040172-1.7749464-5.27854-1.7749464-5.547812 0-9.57487 4.3402719-9.57487 10.315811 0 5.9496474 4.027058 10.2681157 9.57487 10.2681157 2.051281 0 3.908792-.6868122 5.231768-1.9337035.086862-.0817634.180406-.0613226.227177-.0408817.033409.0136272.146998.0749497.146998.2248492v.8585153c0 4.1563043-1.784013 6.0947774-5.605943 6.0947774-2.425455 0-4.329739-1.5330631-4.844229-3.9028379-.066817-.3066126-.247223-.5655299-.507809-.7311007s-.574626-.2180356-.875302-.1498995l-2.408083.5655299c-.615237.1492857-.99982.7736152-.864612 1.4036044.861939 4.3062038 4.681196 7.2019896 9.49469 7.2019896 3.58807 0 6.320884-1.1140258 8.124942-3.3114162 1.490018-1.8165094 2.278458-4.3382278 2.278458-7.2926106v-17.9995231c0-.6472933-.514491-1.1719415-1.149252-1.1719415zm29.152237-.5886962c-2.712768 0-4.919732 1.0438456-6.383692 3.0252444-.05032.074595-.135197.1169668-.223836.1117433-.065742.0008026-.126895-.0342748-.160361-.0919838-1.227428-1.9350663-3.346193-3.0456853-5.813075-3.0456853-1.962414 0-3.848657.7031649-5.176978 1.9316595-.065706.0700457-.168035.0892681-.253904.0476952-.083945-.0351629-.13735-.1201201-.133634-.2125847 0-.6472933-.517164-1.1719415-1.151925-1.1719415h-2.329239c-.634761 0-1.149251.5246482-1.149251 1.1719415v18.8260144c0 .6472933.517163 1.1733042 1.151924 1.1733042h2.452182c.634761 0 1.149252-.5287364 1.149252-1.1760297v-11.4761694c0-2.788812 1.670424-4.6632371 4.162696-4.6632371 3.260668 0 3.748431 2.6075699 3.748431 4.1610738v11.9987736c0 .6472933.514491 1.1719415 1.149252 1.1719415h2.494277c.634761 0 1.149252-.5273737 1.149252-1.174667v-11.5347664c0-2.72272 1.69715-4.6237182 4.122606-4.6237182 3.262672 0 3.748431 2.609614 3.748431 4.1631179v11.9987735c0 .6472933.514491 1.1719416 1.149252 1.1719416h2.452182c.634761 0 1.149252-.5273737 1.149252-1.174667v-12.4212176c0-5.6416721-3.668251-8.1647532-7.303094-8.1647532m16.577287 8.6233094c-.074555-.0002529-.145017-.0348023-.191765-.0940279-.041143-.0503389-.057394-.1171292-.044099-.1812421.424956-1.9759479 2.084689-3.9655231 4.84022-3.9655231 2.703414 0 4.543553 1.4785541 4.920401 3.9587095.013363.088577-.028731.1567131-.053454.1839676-.048062.0512144-.11424.0806621-.183746.0817633h-9.287557zm4.563598-8.6669165c-4.891001 0-9.949045 4.172657-9.949045 11.1538855 0 3.3700132 1.082435 6.2433141 3.131043 8.3098831 1.897601 1.9146254 4.490099 2.9639219 7.309775 2.9639219 4.182741 0 7.577043-2.2348652 9.080424-5.9755391.120271-.3066126.113589-.6472933-.020045-.9470923s-.374175-.5178346-.674851-.6268524l-2.044599-.7208804c-.567944-.1996388-1.196024.0817634-1.428547.6418424-.881983 2.113583-2.539044 3.1887712-4.924409 3.1887712-2.886493 0-5.084771-1.9868497-5.465627-4.9398699-.010312-.0676604.009257-.1365065.053453-.1880557.026727-.0340681.086862-.0851702.180406-.0851702h13.55716c.608035 0 1.113839-.4837665 1.149252-1.1017613.011359-.1975948.020045-.4156304.020045-.6336661 0-6.8272408-3.828611-11.0721221-9.989135-11.0721221zm24.568595.0429258c-2.074667 0-3.893424.7208803-5.258495 2.0849657-.064073.0658002-.161187.0847407-.24455.0476953-.085945-.0382451-.141176-.1251423-.140315-.2207611v-.1498995c0-.6472933-.517164-1.1719415-1.151925-1.1719415h-2.40541c-.634761 0-1.151925.5246482-1.151925 1.1719415v18.8226076c0 .6472933.514491 1.1739856 1.149252 1.1739856h2.492273c.634761 0 1.152592-.528055 1.152592-1.1753483v-10.9883147c0-2.4583518 1.092457-5.0856812 4.162696-5.0856812 2.759541 0 4.160024 1.555548 4.160024 4.6230369v11.4468708c0 .6472933.514491 1.1719416 1.149252 1.1719416h2.492272c.634761 0 1.150588-.5314619 1.150588-1.1787552v-12.1139236c0-5.219228-2.898519-8.4625081-7.556998-8.4625081m19.169785 5.1020339h2.906537c.634762 0 1.149252-.5280551 1.149252-1.174667v-2.162641c0-.6472933-.51449-1.1719415-1.149252-1.1719415h-2.906537c-.129157 0-.233859-.1067696-.233859-.2384765v-4.983477c0-.6472933-.5185-1.1733043-1.152593-1.1733043h-2.164869c-.634761 0-1.149252.526011-1.149252 1.1733043v2.575546c0 1.2060096-.453019 2.6457261-2.597843 2.6457261h-.369498c-.634761 0-1.149252.5246483-1.149252 1.1719416v2.1599155c0 .6472933.516496 1.1719415 1.149252 1.1719415h2.412092c.130293 0 .23386.1022042.23386.2384765v10.4043879c0 3.8428781 2.295162 6.2276429 5.986799 6.2276429 1.028981 0 1.829448-.1498995 2.214982-.2384765.521172-.122645.887329-.5927844.887329-1.1446871v-2.002521c-.000429-.3331559-.139487-.6504746-.382591-.8730426-.243105-.2225681-.567414-.3294732-.892277-.2941294-.260586.0272544-.513154.0429257-.710932.0429257-1.677105 0-2.305185-.6268524-2.305185-2.309815v-9.8116036c0-.1308213.106907-.2371137.233859-.2371137" fill="#43af79"></path><path d="m34.0244825 5.45262032h-31.40348473c-1.44810127 0-2.62099777-1.1486631-2.62099777-2.56684492s1.1728965-2.56684492 2.62099777-2.56684492h31.40348473c1.4481013 0 2.6209978 1.1486631 2.6209978 2.56684492s-1.1728965 2.56684492-2.6209978 2.56684492" fill="#93c8a2" mask="url(#a)" transform="translate(0 30.588235)"></path><path d="m27.2911392 21.1764706c-2.5580938 0-5.0847356-.3721925-7.5091586-1.1082353-1.3824816-.4195557-2.1560313-1.8571235-1.7278927-3.211123.4285331-1.3604278 1.9002233-2.1176471 3.2795234-1.6941176 1.9211914.5839572 3.9249442.8791443 5.9575279.8791443 8.8937007 0 16.6158154-5.5893048 19.2165004-13.91229943.2032657-.65088834.662489-1.19589587 1.2764449-1.51488842s1.332241-.38578206 1.9965261-.18564634c1.3838868.41069519 2.1623231 1.84812835 1.739032 3.20213904-3.2788682 10.49262035-13.0158749 17.54502675-24.2285034 17.54502675" fill="#43af79" mask="url(#b)" transform="translate(0 30.588235)"></path><path d="m55.9625037 21.1764706h-34.2779486c-1.5807167 0-2.8610257-1.5794118-2.8610257-3.5294118s1.280309-3.5294117 2.8610257-3.5294117h34.2779486c1.5807167 0 2.8610257 1.5794117 2.8610257 3.5294117s-1.280309 3.5294118-2.8610257 3.5294118" fill="#93c8a2"></path><path d="m5.09852925 21.1667025c-.8706913.0001137-1.68981476-.3917057-2.20753996-1.0559544-.5177252-.6642486-.67265867-1.5221578-.4175461-2.3120675 3.43491654-10.64716918 13.63329011-17.7986806 25.37583201-17.7986806 2.6813624 0 5.3277237.37769774 7.8649637 1.1252788.6955135.20445296 1.2769338.66271432 1.6163368 1.27395732.339403.61124299.408982 1.3253898.1934284 1.98531373-.2148255.66033765-.6977195 1.21243543-1.3421343 1.53447639-.6444148.32204097-1.3973885.38755784-2.0927822.18209473-2.0108503-.5860827-4.1109191-.88563609-6.2398124-.88563609-9.3130505 0-17.4024333 5.67197822-20.12634618 14.11808122-.35342029 1.0941806-1.41762364 1.8416804-2.62371347 1.8429045" fill="#43af79"></path><path d="m47.0588235 11.9721795c0 1.414078-1.2910595 2.5604148-2.8836622 2.5604148s-2.8836623-1.1463368-2.8836623-2.5604148 1.2910596-2.56041479 2.8836623-2.56041479 2.8836622 1.14633679 2.8836622 2.56041479m-34.2326755 32.5262292c0 1.4140781-1.2910595 2.5604148-2.88366222 2.5604148-1.59260268 0-2.88366225-1.1463367-2.88366225-2.5604148 0-1.414078 1.29105957-2.5604147 2.88366225-2.5604147 1.59260272 0 2.88366222 1.1463367 2.88366222 2.5604147" fill="#93c8a2"></path></g></svg> 