<svg xmlns="http://www.w3.org/2000/svg" xmlns:xlink="http://www.w3.org/1999/xlink" viewBox="0 0 44 48">
    <defs>
        <style>.cls-1{fill-rule:evenodd;fill:url(#linear-gradient);}.cls-2{fill:url(#linear-gradient-2);}.cls-3{fill:url(#linear-gradient-3);}.cls-4{fill:url(#linear-gradient-4);}</style>
        <linearGradient id="linear-gradient" x1="22" y1="66" x2="22" y2="18" gradientTransform="matrix(1, 0, 0, -1, 0, 66)" gradientUnits="userSpaceOnUse">
            <stop offset="0" stop-color="#282878" />
            <stop offset="1" stop-color="#3131a0" />
        </linearGradient>
        <linearGradient id="linear-gradient-2" x1="28.7" y1="28.43" x2="14.86" y2="43.15" gradientTransform="matrix(1, 0, 0, -1, 0, 66)" gradientUnits="userSpaceOnUse">
            <stop offset="0" stop-color="#fde75b" />
            <stop offset="1" stop-color="#fc57b3" />
        </linearGradient>
        <linearGradient id="linear-gradient-3" x1="29.1" y1="34.35" x2="14.79" y2="49.24" gradientTransform="matrix(1, 0, 0, -1, 0, 66)" gradientUnits="userSpaceOnUse">
            <stop offset="0" stop-color="#f67afe" />
            <stop offset="1" stop-color="#662dff" />
        </linearGradient>
        <linearGradient id="linear-gradient-4" x1="28.63" y1="40.42" x2="9.15" y2="62.43" gradientTransform="matrix(1, 0, 0, -1, 0, 66)" gradientUnits="userSpaceOnUse">
            <stop offset="0" stop-color="#4af2ff" />
            <stop offset="1" stop-color="#3d44ff" />
        </linearGradient>
    </defs>
    <title>back_your_stack.svg</title>
    <g id="Layer_2" data-name="Layer 2">
        <g id="Layer_1-2" data-name="Layer 1">
            <path class="cls-1" d="M26.77,1.31,40.63,9.54A6.84,6.84,0,0,1,44,15.42V33a6.85,6.85,0,0,1-3.5,6L26.59,46.8a9.38,9.38,0,0,1-9.18,0L3.5,39A6.85,6.85,0,0,1,0,33V15.42A6.84,6.84,0,0,1,3.37,9.54L17.23,1.31A9.32,9.32,0,0,1,26.77,1.31Z" />
            <path class="cls-2" d="M26.68,22.51l10,5.9a2.27,2.27,0,0,1,0,3.93L25.26,39a7.38,7.38,0,0,1-2.4,1.07,4.11,4.11,0,0,1-1.78,0A7.46,7.46,0,0,1,18.69,39L7,32.12a2.26,2.26,0,0,1,0-3.93l9.83-5.71a11.28,11.28,0,0,1,3.6-1.61,6.17,6.17,0,0,1,2.67,0A11.23,11.23,0,0,1,26.68,22.51Z" />
            <path class="cls-3" d="M26.68,16.32l10,5.91a2.26,2.26,0,0,1,.8,3.13,2.3,2.3,0,0,1-.81.8L25.26,32.83a7.62,7.62,0,0,1-2.4,1.07,4.11,4.11,0,0,1-1.78,0,7.7,7.7,0,0,1-2.39-1.08L7,25.94a2.27,2.27,0,0,1-.81-3.13A2.36,2.36,0,0,1,7,22l9.83-5.71a11.42,11.42,0,0,1,3.6-1.6,6.32,6.32,0,0,1,2.67,0A11.47,11.47,0,0,1,26.68,16.32Z" />
            <path class="cls-4" d="M26.68,10.14l10,5.91a2.26,2.26,0,0,1,.8,3.13,2.38,2.38,0,0,1-.81.8L25.26,26.64a7.48,7.48,0,0,1-2.4,1.08,4.11,4.11,0,0,1-1.78,0,7.7,7.7,0,0,1-2.39-1.08L7,19.76a2.28,2.28,0,0,1-.81-3.14,2.33,2.33,0,0,1,.82-.8l9.83-5.71a11.28,11.28,0,0,1,3.6-1.61,6.32,6.32,0,0,1,2.67,0A11.47,11.47,0,0,1,26.68,10.14Z" />
        </g>
    </g>
</svg>
