<svg xmlns="http://www.w3.org/2000/svg" viewBox="0 0 56 60" xmlns:v="https://vecta.io/nano"><g fill="#766df4"><path d="M22.3 36.2c.1-.2.2-.4.2-.7-.2-.9.1-1.8.8-2.4a3.04 3.04 0 0 1 .7-.5c-.9-.4-1.8-.2-2.5.5-.6.6-.9 1.5-.8 2.4 0 .2 0 .5-.2.7-.1.2-.3.3-.6.3h1.8c.3 0 .5-.1.6-.3h0zm-6.2 16.4V38.5c0-1.1.8-1.9 1.9-2h-2.1c-1.1 0-1.9.9-1.9 2v14.1c0 1.1.8 1.9 1.9 2H18c-1.1-.1-1.9-1-1.9-2h0zM37 54.4v-5.2c0-.3-.1-.5-.3-.7s-.5-.2-.8-.2h-.6c-1.2 0-2.3-.6-2.8-1.6s-.4-2.2.3-3c.7-.9 1.9-1.3 3.1-1.1.3.1.6 0 .8-.2s.3-.4.4-.7v-5.2h-2.3v5.2c0 .3-.1.5-.4.7-.2.2-.5.2-.8.2-1.2-.2-2.3.2-3.1 1.1s-.8 2-.3 3 1.6 1.6 2.8 1.6h.6c.3 0 .6 0 .8.2s.3.4.3.7v5.2l17.2.1-14.9-.1zm0-37.9c-1 0-1.8.9-1.9 1.9v2h-.7c-1.5 0-2.8 1.3-2.8 2.9s1.2 2.9 2.8 2.9h.7v6.9h2v-6.9h-.7c-1.5 0-2.8-1.3-2.8-2.9s1.2-2.9 2.8-2.9h.7v-2c0-1.1.8-1.9 1.9-1.9h-2z" opacity=".2" enable-background="new"/><path d="M51.8 15.5H37.3c-1.8 0-3.3 1.5-3.4 3.4v1.5h-.1c-2.4 0-4.4 2-4.4 4.4s1.9 4.4 4.4 4.4h.1v6.5h-5.7c0-.4 0-.7-.1-1.1-.3-1.9-1.9-3.4-3.9-3.6-1.2-.1-2.4.3-3.4 1.1-.9.8-1.4 2-1.4 3.3v.3h-3a3.37 3.37 0 0 0-3.4 3.4v14.8a3.37 3.37 0 0 0 3.4 3.4h17.4l17.8.1c.9 0 1.7-.3 2.4-1 .6-.6 1-1.5 1-2.4l.1-16.9V18.9c0-1.8-1.5-3.4-3.3-3.4h0zm-21.1 9.3c0-1.7 1.4-3.1 3-3.1h.8v-2.1c0-1.1.9-2 2-2H51c1.1 0 2 .9 2 2v16.8h-4c-.3 0-.5.1-.7.3s-.3.5-.2.8c.2 1-.2 2.1-1 2.8-.6.6-1.5.9-2.3.8-1.4-.1-2.5-1.2-2.7-2.5-.1-.4-.1-.7 0-1.1.1-.3 0-.6-.2-.8s-.4-.3-.7-.3h-6.1v-7.2h-.7c-2.3-1.4-3.7-2.7-3.7-4.4h0zM14.4 53.9V39.1c0-1.1.9-2 2-2h3.4c.3 0 .5-.1.7-.3s.3-.5.2-.8c-.2-1 .2-2.1 1-2.8.6-.6 1.5-.9 2.3-.8 1.4.1 2.5 1.2 2.7 2.5.1.4.1.7 0 1.1-.1.3 0 .6.2.8s.4.3.7.3h6.1v5c-2.4-.2-4.5 1.6-4.7 3.9-.1 1.2.3 2.5 1.1 3.4s2 1.4 3.2 1.5h.3v5H16.4c-1.1 0-2-.9-2-2zm39.3.1c0 .5-.2 1.1-.6 1.5s-.9.6-1.4.6h0L35 55.9v-5.5c0-.3-.1-.5-.3-.7s-.5-.3-.8-.2h-.5c-1.2 0-2.2-.7-2.7-1.7s-.4-2.3.3-3.2 1.9-1.4 3-1.2c.3.1.6 0 .8-.2s.3-.4.3-.7V37h5.6c0 .4 0 .7.1 1.1.3 1.9 1.9 3.4 3.9 3.6h.4c1.1 0 2.1-.4 2.9-1.1.9-.8 1.4-2 1.4-3.3V37h4.3v17zm-3.3-21.1a.68.68 0 0 0 .7-.7v-1.4a.7.7 0 1 0-1.4 0v1.4c.1.4.4.7.7.7z"/><path d="M50.4 28.1a.68.68 0 0 0 .7-.7v-7.2a.7.7 0 1 0-1.4 0v7.3c.1.3.4.6.7.6h0zm.3 25.9a.68.68 0 0 0 .7-.7v-1.4a.7.7 0 1 0-1.4 0v1.4a.68.68 0 0 0 .7.7h0z"/><path d="M50.7 49.2a.68.68 0 0 0 .7-.7v-7.3a.68.68 0 0 0-.7-.7c-.4 0-.7.4-.7.8v7.3c0 .3.3.6.7.6z"/></g><path d="M26.4 11.5l-3.2-1.9c1.4-2 1-4.7-.9-6.1-1-.8-2.3-1.1-3.5-.8-1.2.2-2.3 1-3 2.1-.1.1-.1.2-.2.3L13 3.4c-.8-.5-1.7-.6-2.6-.4s-1.6.7-2.1 1.5L.5 17.3C-.5 18.9 0 21 1.6 22l2.2 1.4c.2.1.5.2.7.1s.5-.2.6-.5c.5-.9 1.4-1.5 2.5-1.5s2 .6 2.5 1.5a2.58 2.58 0 0 1-.3 2.9c-.2.2-.2.5-.2.7s.2.5.4.6l4.8 2.9c.5.3 1.2.5 1.8.5 1.2 0 2.3-.6 2.9-1.6l1.6-2.6c.1-.2.2-.5.1-.8s-.3-.5-.5-.6c-1.6-.7-2.2-2.6-1.5-4.1.7-1.6 2.6-2.2 4.2-1.5.2.1.4.2.6.4s.5.2.8.2.5-.2.7-.4l2-3.2c1-1.8.5-3.9-1.1-4.9h0zm-.1 4l-1.8 2.8c-.2-.1-.3-.2-.5-.3-1.9-.9-4.2-.3-5.4 1.3-.8 1-1.1 2.3-.9 3.5s1 2.3 2.1 3l-1.4 2.3c-.6 1-1.9 1.3-2.8.7l-4.4-2.7c1.1-1.9.5-4.4-1.4-5.6s-4.4-.6-5.6 1.3l-1.8-1.1c-1-.6-1.3-1.9-.7-2.8L9.5 5.2c.3-.5.7-.8 1.3-.9s1.1 0 1.6.2l3 1.8c.2.1.5.2.8.1a.9.9 0 0 0 .6-.6c.4-1 1.3-1.7 2.3-1.9.9-.2 1.8 0 2.5.6.7.5 1.1 1.3 1.2 2.2s-.2 1.7-.8 2.4c-.2.2-.3.5-.2.8 0 .3.2.5.4.7l3.5 2.2c.9.4 1.2 1.7.6 2.7h0z" fill="#16c995"/></svg>