<svg xmlns="http://www.w3.org/2000/svg" viewBox="0 0 56 60.3" xmlns:v="https://vecta.io/nano"><path d="M3.2 50.6c0-2 1.2-3.8 2.8-4.3-1.6-.5-3.3.2-4.3 1.7s-1 3.6 0 5.2 2.7 2.3 4.3 1.7c-1.7-.5-2.8-2.3-2.8-4.3h0zM51.9 7.1c0-.9.4-1.7 1.1-1.9-.6-.3-1.3 0-1.7.7s-.4 1.6 0 2.3 1.1 1 1.7.7c-.6-.1-1.1-.9-1.1-1.8h0z" fill="#d4e1f4"/><path d="M50.4 13.7c-.2-.4-.7-.7-1.1-.5h-.1l-3.7 2.1c-.3.2-.4.6-.2.9s.6.4.9.3l2.4-1.4c-1.9 6.7-5 12.6-9.2 17.5a44.21 44.21 0 0 1-13 10.4c-7.4 3.9-14.1 5-15.9 5.2-1.2-2.5-4.1-3.8-6.8-2.9S-.5 49 .1 51.7s3.2 4.6 6 4.3 4.9-2.7 4.9-5.5c0-.3 0-.7-.1-1 2.2-.3 8.8-1.4 16.1-5.3 5.2-2.8 9.7-6.4 13.4-10.7 4.2-5 7.4-11 9.4-17.8l.9 2.1c.1.2.3.4.5.4s.5-.1.6-.3.2-.5.1-.7l-1.5-3.5zM5.5 54.8c-1.7 0-3.2-1-3.9-2.6s-.3-3.3.9-4.5 3-1.5 4.5-.9c1.6.6 2.6 2.2 2.6 3.8.1 2.3-1.8 4.2-4.1 4.2h0zM53 4.1c-1.2 0-2.3.7-2.8 1.8s-.2 2.4.6 3.3c.9.9 2.1 1.1 3.3.7S56 8.3 56 7.1a3.01 3.01 0 0 0-3-3h0zm0 4.8c-.7 0-1.4-.4-1.6-1.1s-.1-1.4.4-1.9 1.3-.7 1.9-.4 1.1.9 1.1 1.6A1.79 1.79 0 0 1 53 8.9h0z" fill="#766df4"/><path d="M25.9 17.4c-.2-.3-.7-.3-.9 0l-2.9 2.7-2.9-2.7c-.2-.2-.5-.2-.7-.2-.2.1-.4.3-.5.5s0 .5.2.7l2.9 2.6-2.8 2.6c-.2.1-.3.4-.3.6s.2.4.5.5c.2.1.5 0 .7-.1l2.9-2.7 2.9 2.7c.3.3.7.2.9-.1a.91.91 0 0 0 0-1L23.1 21l2.8-2.6c.1-.1.2-.3.2-.5s-.1-.3-.2-.5h0zm23.8 30.3c-.1-.1-.3-.2-.5-.2s-.4.1-.5.2l-2.9 2.7-2.8-2.8c-.3-.3-.7-.2-.9.1a.91.91 0 0 0 0 1l2.8 2.6-2.8 2.6c-.2.2-.3.4-.2.7 0 .2.2.4.5.5.2.1.5 0 .7-.1l2.9-2.7 2.9 2.7c.2.2.4.2.7.1.2-.1.4-.3.5-.5 0-.2 0-.5-.2-.7l-2.8-2.6 2.8-2.6c.1-.1.2-.3.2-.5-.2-.2-.3-.4-.4-.5h0z" fill="#16c995"/></svg>