<svg xmlns="http://www.w3.org/2000/svg" width="67" height="60" fill-rule="nonzero" xmlns:v="https://vecta.io/nano"><g fill="#766df4"><path d="M53 42.054L52.983 42h-2.1C47.08 42.007 44 44.644 44 47.894V53h3.033v-5.106c.001-2.947 2.55-5.44 5.967-5.84h0zm-.267-8.554c.001-1.973 1.325-3.716 3.267-4.3-1.903-.568-3.967.107-5.13 1.676a4.39 4.39 0 0 0 0 5.251c1.162 1.57 3.226 2.243 5.13 1.676-1.942-.585-3.266-2.328-3.267-4.3zm-44-24C8.734 7.527 10.058 5.784 12 5.2c-1.903-.568-3.967.107-5.13 1.676a4.39 4.39 0 0 0 0 5.251c1.162 1.57 3.226 2.243 5.13 1.676-1.942-.585-3.266-2.328-3.267-4.3h0zM10 18.054L9.983 18h-2.1C4.08 18.007 1 20.644 1 23.894V29h3.033v-5.106c.002-2.947 2.55-5.44 5.967-5.84h0z" opacity=".2"/><path d="M.817 30.796h21.95c.45 0 .817-.363.817-.8v-6.133c-.001-4.267-3.473-7.735-7.776-7.765H7.815C3.497 16.097.001 19.57 0 23.853v6.133c0 .448.366.8.817.8h0zm11.045-9.942l.908 4.82-.994 1.07-.955-1.056 1.04-4.836zm.33-3.146l-.3 1.12h-.2l-.3-1.12h.8zM1.634 23.853c0-3.388 2.765-6.137 6.18-6.144H9.7l.5 1.906c.033.13.1.254.168.365l-1.244 5.778c-.055.254.017.518.2.7l1.834 2.026a.82.82 0 0 0 .603.269h.005a.82.82 0 0 0 .601-.262l1.88-2.026c.174-.188.25-.446.202-.698l-1.13-6.007a1.06 1.06 0 0 0 .048-.143l.515-1.918h1.885c3.416.008 6.18 2.756 6.18 6.144v5.322H1.634v-5.323zm17.88-2.283h-2.817c-.45 0-.817.363-.817.8s.366.8.817.8h2.817c.45 0 .817-.363.817-.8s-.366-.8-.817-.8zm-7.722-6.086c2.54.004 4.835-1.5 5.8-3.838a6.19 6.19 0 0 0-1.354-6.792A6.32 6.32 0 0 0 9.402 3.5c-2.348.964-3.88 3.236-3.88 5.756.001 3.436 2.806 6.222 6.27 6.23zm0-10.837c1.88-.004 3.578 1.116 4.3 2.837a4.58 4.58 0 0 1-1 5.026c-1.328 1.32-3.327 1.716-5.065 1.004s-2.87-2.394-2.87-4.258c0-2.54 2.074-4.602 4.635-4.608h0zm47.432 35.556h-7.992c-4.318.01-7.814 3.482-7.815 7.765V54.1c0 .448.366.8.817.8h21.95c.45 0 .817-.363.817-.8v-6.133c-.001-4.267-3.473-7.735-7.776-7.765h0zM55.28 44.97l.908 4.82-.994 1.07-.956-1.055 1.042-4.836zm.33-3.147l-.3 1.12h-.2l-.3-1.12h.8zM65.366 53.3H45.05v-5.323c0-3.388 2.765-6.137 6.18-6.144h1.885l.5 1.906a1.1 1.1 0 0 0 .168.365l-1.244 5.778c-.055.254.016.518.2.7l1.834 2.026a.82.82 0 0 0 .603.269h.005a.82.82 0 0 0 .601-.262l1.88-2.026a.8.8 0 0 0 .202-.697l-1.132-6.007a1.06 1.06 0 0 0 .048-.144l.515-1.918h1.885c3.416.007 6.18 2.756 6.182 6.144V53.3zm-2.436-7.616h-2.817c-.45 0-.817.363-.817.8s.366.8.817.8h2.817c.45 0 .817-.363.817-.8s-.366-.8-.817-.8zM55.208 39.6c2.54.004 4.835-1.5 5.8-3.838a6.19 6.19 0 0 0-1.354-6.792 6.32 6.32 0 0 0-6.846-1.355c-2.348.964-3.88 3.236-3.88 5.756.001 3.435 2.805 6.222 6.27 6.23h0zm0-10.837c1.88-.004 3.578 1.116 4.3 2.837a4.58 4.58 0 0 1-1 5.026c-1.328 1.32-3.327 1.716-5.065 1.004s-2.87-2.394-2.87-4.258c0-2.54 2.073-4.602 4.635-4.608h0z"/></g><path d="M36.52 59.93a29.91 29.91 0 0 0 10.006-2.435c.406-.186.584-.655.4-1.055a.83.83 0 0 0-1.072-.41c-9.495 4.14-20.56 2.767-28.693-3.56-5.39-4.186-9.02-10.17-10.203-16.8l2.242 1.4a.84.84 0 0 0 .821.033.8.8 0 0 0 .44-.678c.012-.287-.133-.558-.38-.7l-4.182-2.6a.84.84 0 0 0-.622-.105.82.82 0 0 0-.515.357l-2.63 4.1c-.16.243-.174.552-.036.808s.406.42.702.43.574-.138.728-.385L5.34 35.5c-.034.115-.04.236-.02.354 1.23 7.055 5.083 13.42 10.818 17.872C21.35 57.788 27.818 60 34.485 60c.677 0 1.355-.023 2.036-.07h0zM5.717 34.913l.103.064c-.087.035-.167.084-.237.145l.134-.2zM18.2 5.082c4.024-2.24 8.53-3.414 13.106-3.414h.06c6.414.02 12.62 2.34 17.548 6.558 4.828 4.144 8.15 9.842 9.43 16.17L55.847 22.5c-.36-.268-.864-.187-1.128.18a.85.85 0 0 0 .164 1.161l3.936 2.985c.174.132.392.187.605.153a.81.81 0 0 0 .533-.333l2.887-4.07c.17-.24.204-.557.086-.83a.81.81 0 0 0-.656-.49c-.288-.03-.57.097-.742.338l-1.64 2.3c-1.374-6.64-4.878-12.616-9.95-16.97C44.726 2.48 38.153.022 31.36 0h-.064c-4.848.001-9.62 1.244-13.882 3.617-.386.224-.527.724-.315 1.125a.8.8 0 0 0 1.09.34h0z" fill="#1ae5be"/></svg>