<?xml version="1.0" encoding="utf-8"?>
<!-- Generator: Adobe Illustrator 23.0.1, SVG Export Plug-In . SVG Version: 6.00 Build 0)  -->
<svg version="1.1" id="Layer_1" xmlns="http://www.w3.org/2000/svg" xmlns:xlink="http://www.w3.org/1999/xlink" x="0px" y="0px"
	 viewBox="0 0 29 32" style="enable-background:new 0 0 29 32;" xml:space="preserve">
<style type="text/css">
	.st0{opacity:0.2;fill:#766DF4;enable-background:new    ;}
	.st1{fill:#766DF4;}
</style>
<title>icon/pencil</title>
<desc>Created with Sketch.</desc>
<g>
	<g id="Product-Landing---Software" transform="translate(-1186.000000, -2107.000000)">
		<g transform="translate(346.000000, 1863.000000)">
			<g id="text" transform="translate(840.000000, 44.000000)">
				<g transform="translate(0.000000, 200.000000)">
					<g>
						<polygon id="Path" class="st0" points="17.2,4.8 18,5.4 18,5.4 16.4,4 3,20.3 3.9,21 						"/>
						<path id="Shape" class="st1" d="M1.5,30c0.1,0,0.1,0,0.1,0l8.9-2.9c0.2-0.1,0.4-0.2,0.6-0.4L26.5,8c0.7-0.9,0.6-2.2-0.3-3
							L21,0.5c-0.9-0.8-2.2-0.6-3,0.3L2.6,19.3c-0.2,0.2-0.3,0.4-0.3,0.7L1,29.4c0,0.1,0,0.3,0.1,0.4C1.2,29.9,1.3,30,1.5,30L1.5,30
							z M2.5,25.5l2.6,2.2l-3.1,1L2.5,25.5z M5.8,21.7L18.6,6.2l2.5,2.1L8.3,23.8L5.8,21.7z M5.1,21.1l-1.6-1.3L16.4,4.3l1.5,1.3
							L5.1,21.1z M9.7,26.3l-3.4,1.1l-3.6-3l0.5-3.6L9.7,26.3z M10.6,25.8L9,24.4L21.8,9l1.5,1.3L10.6,25.8z M18.7,1.4
							c0.4-0.5,1.1-0.5,1.6-0.1l5.3,4.5c0.5,0.4,0.5,1.1,0.1,1.6L24,9.5l-7-6L18.7,1.4z"/>
						<path class="st1" d="M29,31.5c0-0.3-0.2-0.5-0.5-0.5h-28C0.2,31,0,31.2,0,31.5S0.2,32,0.5,32h28C28.8,32,29,31.8,29,31.5
							L29,31.5z"/>
					</g>
				</g>
			</g>
		</g>
	</g>
</g>
</svg>
