<?xml version="1.0" encoding="utf-8"?>
<!-- Generator: Adobe Illustrator 23.0.1, SVG Export Plug-In . SVG Version: 6.00 Build 0)  -->
<svg version="1.1" id="Layer_1" xmlns="http://www.w3.org/2000/svg" xmlns:xlink="http://www.w3.org/1999/xlink" x="0px" y="0px"
	 viewBox="0 0 28 32" style="enable-background:new 0 0 28 32;" xml:space="preserve">
<style type="text/css">
	.st0{opacity:0.2;fill:#766DF4;enable-background:new    ;}
	.st1{fill:#766DF4;}
</style>
<title>icon/file</title>
<desc>Created with Sketch.</desc>
<g>
	<g id="Product-Landing---Software" transform="translate(-1396.000000, -2107.000000)">
		<g transform="translate(346.000000, 1863.000000)">
			<g id="text" transform="translate(840.000000, 44.000000)">
				<g transform="translate(210.000000, 200.000000)">
					<g>
						<path id="Path" class="st0" d="M12.9,24.6l-8.2,0c-1.3,0-2.3-1-2.3-2.3L2.4,1.8c0-0.3,0-0.5,0.1-0.8C1.6,1.3,1,2.2,1,3.2
							l0.1,20.5c0,1.3,1,2.3,2.3,2.3l9.6-0.1c0-0.3-0.1-0.7-0.1-1C12.9,24.8,12.9,24.7,12.9,24.6z"/>
						<g id="Group">
							<path id="Shape" class="st1" d="M1.1,26.1C1.7,26.7,2.5,27,3.4,27h0l10.1-0.1l0-0.8L3.4,26.2h0C2,26.2,1,25.1,1,23.8L0.9,3.3
								c0-1.3,1.1-2.4,2.4-2.4l9.7,0l0,3.9c0,1.8,1.5,3.2,3.2,3.2h0l3.9,0l0.1,9.7l0.8,0l-0.1-10l0-0.1c0-0.1,0-0.2-0.1-0.3l-7.2-7
								C13.6,0.1,13.5,0,13.4,0l-0.1,0c0,0,0,0,0,0L3.2,0C1.5,0.1,0,1.5,0,3.3l0.1,20.6C0.1,24.7,0.5,25.5,1.1,26.1L1.1,26.1z
								 M16.2,7c-1.3,0-2.4-1.1-2.4-2.4l0-3.3L19.5,7L16.2,7z"/>
							<path class="st1" d="M10.1,15.2c-0.2,0-0.4,0.2-0.4,0.4c0,0.2,0.2,0.4,0.4,0.4h1.4c0.2,0,0.4-0.2,0.4-0.4
								c0-0.2-0.2-0.4-0.4-0.4H10.1z"/>
							<path class="st1" d="M16.8,12.1c0-0.2-0.2-0.4-0.4-0.4H4.6c-0.2,0-0.4,0.2-0.4,0.4c0,0.2,0.2,0.4,0.4,0.4h11.7
								C16.6,12.5,16.8,12.3,16.8,12.1z"/>
							<path class="st1" d="M4.6,15.2c-0.2,0-0.4,0.2-0.4,0.4c0,0.2,0.2,0.4,0.4,0.4h3.7c0.2,0,0.4-0.2,0.4-0.4
								c0-0.2-0.2-0.4-0.4-0.4H4.6z"/>
						</g>
						<path class="st1" d="M18.3,24.8h1.9v1.9c0,0.2,0.1,0.3,0.3,0.3s0.3-0.1,0.3-0.3v-1.9h1.9c0.2,0,0.3-0.1,0.3-0.3
							c0-0.2-0.1-0.3-0.3-0.3h-1.9v-1.9c0-0.2-0.1-0.3-0.3-0.3s-0.3,0.1-0.3,0.3v1.9h-1.9c-0.2,0-0.3,0.1-0.3,0.3
							C18,24.7,18.1,24.8,18.3,24.8z"/>
						<path class="st1" d="M20.5,32c3.2,0,6.1-2,7.1-5.1c1-3,0-6.4-2.5-8.4c-2.5-2-6-2.1-8.7-0.3c-2.7,1.8-3.9,5.1-3.1,8.2
							C14.1,29.7,17.1,32,20.5,32L20.5,32z M20.5,17.8c3.7,0,6.7,3,6.7,6.7s-3,6.7-6.7,6.7c-3.7,0-6.7-3-6.7-6.7
							C13.8,20.8,16.8,17.8,20.5,17.8L20.5,17.8z"/>
					</g>
				</g>
			</g>
		</g>
	</g>
</g>
</svg>
