<?xml version="1.0" encoding="utf-8"?>
<!-- Generator: Adobe Illustrator 23.0.1, SVG Export Plug-In . SVG Version: 6.00 Build 0)  -->
<svg version="1.1" id="Layer_1" xmlns="http://www.w3.org/2000/svg" xmlns:xlink="http://www.w3.org/1999/xlink" x="0px" y="0px"
	 viewBox="0 0 25.6 32.2" style="enable-background:new 0 0 25.6 32.2;" xml:space="preserve">
<style type="text/css">
	.st0{opacity:0.2;}
	.st1{fill:#766DF4;}
</style>
<title>icon/business</title>
<desc>Created with Sketch.</desc>
<g>
	<g id="Product-Landing---Software" transform="translate(-1186.000000, -2261.000000)">
		<g transform="translate(346.000000, 1863.000000)">
			<g id="text" transform="translate(840.000000, 44.000000)">
				<g transform="translate(0.000000, 354.000000)">
					<g>
						<g id="Group" transform="translate(0.000000, 7.000000)" class="st0">
							<polygon id="Path" class="st1" points="0.2,6.5 1.4,6.5 1.4,24.3 0.2,24.3 							"/>
							<polygon class="st1" points="8.9,-0.2 10.2,-0.2 10.2,24.3 8.9,24.3 							"/>
							<polygon class="st1" points="16.8,13.1 18,13.1 18,24.3 16.8,24.3 							"/>
						</g>
						<path id="Shape" class="st1" d="M25,19.7h-7.6V7.3c0-0.3-0.2-0.5-0.5-0.5H8.9C8.6,6.8,8.3,7,8.3,7.3v6H0.7
							c-0.3,0-0.6,0.3-0.6,0.6v17.8c0,0.3,0.3,0.6,0.6,0.6H25c0.3,0,0.6-0.3,0.6-0.6V20.3C25.6,20,25.3,19.7,25,19.7z M0.9,31.4
							V14.1h7.4v17.3H0.9z M9.1,7.6h7.4v23.9H9.1V7.6z M24.8,31.4h-7.4V20.5h7.4V31.4z"/>
						<path class="st1" d="M6.7,8C6.7,7.8,6.5,7.6,6.3,7.6L5,7.4L4.4,6.1C4.3,6,4.1,5.8,3.9,5.8C3.7,5.8,3.5,6,3.4,6.1L2.9,7.4
							L1.5,7.6C1.3,7.6,1.2,7.8,1.1,8c-0.1,0.2,0,0.4,0.1,0.6l0.9,1L2,10.8c0,0.2,0,0.4,0.2,0.5c0.2,0.1,0.4,0.1,0.6,0l1.2-0.6
							l1.2,0.6c0.2,0.1,0.4,0.1,0.6,0c0.2-0.1,0.2-0.3,0.2-0.5L5.6,9.5l0.9-1C6.7,8.4,6.8,8.2,6.7,8L6.7,8z M5,9
							C4.9,9.1,4.8,9.3,4.8,9.5L5,10.4L4.2,10C4,9.9,3.8,9.9,3.7,10l-0.8,0.4L3,9.5C3,9.3,3,9.1,2.9,9L2.2,8.3l0.9-0.1
							c0.2,0,0.3-0.1,0.4-0.3L3.9,7l0.4,0.9C4.4,8,4.6,8.2,4.7,8.2l0.9,0.1L5,9z"/>
						<path class="st1" d="M15.2,2.3C15.1,2.1,15,2,14.8,1.9l-1.3-0.2l-0.6-1.2c-0.1-0.2-0.3-0.3-0.5-0.3S12,0.3,11.9,0.5l-0.6,1.2
							L10,1.9C9.8,2,9.7,2.1,9.6,2.3c-0.1,0.2,0,0.4,0.1,0.6l0.9,1l-0.2,1.4c0,0.2,0,0.4,0.2,0.5c0.2,0.1,0.4,0.1,0.6,0l1.2-0.6
							l1.2,0.6c0.2,0.1,0.4,0.1,0.6,0c0.2-0.1,0.2-0.3,0.2-0.5l-0.2-1.4l0.9-1C15.2,2.7,15.2,2.5,15.2,2.3L15.2,2.3z M13.4,3.3
							c-0.1,0.1-0.2,0.3-0.2,0.5l0.2,0.9l-0.8-0.4c-0.2-0.1-0.3-0.1-0.5,0l-0.8,0.4l0.2-0.9c0-0.2,0-0.4-0.2-0.5l-0.7-0.7l0.9-0.1
							c0.2,0,0.3-0.1,0.4-0.3l0.4-0.9l0.4,0.9c0.1,0.2,0.2,0.3,0.4,0.3l0.9,0.1L13.4,3.3z"/>
						<path class="st1" d="M24.2,14.2L22.9,14l-0.6-1.2c-0.1-0.2-0.3-0.3-0.5-0.3c-0.2,0-0.4,0.1-0.5,0.3L20.7,14l-1.3,0.2
							c-0.2,0-0.4,0.2-0.4,0.4c-0.1,0.2,0,0.4,0.1,0.6l0.9,1l-0.2,1.4c0,0.2,0,0.4,0.2,0.5c0.2,0.1,0.4,0.1,0.6,0l1.2-0.6L23,18
							c0.2,0.1,0.4,0.1,0.6,0s0.2-0.3,0.2-0.5l-0.2-1.4l0.9-1c0.1-0.1,0.2-0.4,0.1-0.6C24.5,14.3,24.4,14.2,24.2,14.2L24.2,14.2z
							 M22.9,15.6c-0.1,0.1-0.2,0.3-0.2,0.5l0.2,0.9L22,16.6c-0.2-0.1-0.3-0.1-0.5,0L20.7,17l0.2-0.9c0-0.2,0-0.4-0.2-0.5l-0.7-0.7
							l0.9-0.1c0.2,0,0.3-0.1,0.4-0.3l0.4-0.9l0.4,0.9c0.1,0.2,0.2,0.3,0.4,0.3l0.9,0.1L22.9,15.6z"/>
					</g>
				</g>
			</g>
		</g>
	</g>
</g>
</svg>
