<?xml version="1.0" encoding="utf-8"?>
<!-- Generator: Adobe Illustrator 23.0.1, SVG Export Plug-In . SVG Version: 6.00 Build 0)  -->
<svg version="1.1" id="Layer_1" xmlns="http://www.w3.org/2000/svg" xmlns:xlink="http://www.w3.org/1999/xlink" x="0px" y="0px"
	 viewBox="0 0 36 32" style="enable-background:new 0 0 36 32;" xml:space="preserve">
<style type="text/css">
	.st0{opacity:0.2;fill:#766DF4;enable-background:new    ;}
	.st1{fill:#766DF4;}
</style>
<title>icon/process</title>
<desc>Created with Sketch.</desc>
<g>
	<g id="Product-Landing---Software" transform="translate(-1396.000000, -2263.000000)">
		<g transform="translate(346.000000, 1863.000000)">
			<g id="text" transform="translate(840.000000, 44.000000)">
				<g transform="translate(210.000000, 356.000000)">
					<g>
						<path id="Path" class="st0" d="M14.6,6c0-2.5,1.9-4.6,4.4-4.9c-2-0.3-4,0.6-5.2,2.2s-1.1,3.8,0,5.4s3.1,2.5,5.2,2.2
							C16.5,10.6,14.6,8.5,14.6,6L14.6,6z"/>
						<path id="Shape" class="st1" d="M30,19H18.5v-7.8c3.1-0.2,5.4-2.8,5.3-5.8S21.1,0,18,0s-5.6,2.4-5.8,5.4
							c-0.1,3,2.2,5.6,5.3,5.8V19H6c-1.1,0-2,0.9-2,2v1.7h0.9v-1.7c0-0.6,0.5-1.1,1.1-1.1h11.5V23h0.9v-3.2H30
							c0.6,0,1.1,0.5,1.1,1.1v1.7H32v-1.7C32,19.8,31.1,19,30,19z M13.1,5.6c0-2.6,2.2-4.7,4.9-4.7s4.9,2.1,4.9,4.7
							s-2.2,4.7-4.9,4.7C15.3,10.3,13.1,8.2,13.1,5.6L13.1,5.6z"/>
						<g id="Group" transform="translate(0.000000, 23.000000)">
							<path class="st1" d="M20.5,0.1h-5.1c-1.1,0-2,0.9-2,2V7c0,1.1,0.9,2,2,2h5.1c1.1,0,2-0.9,2-2V2C22.5,1,21.6,0.1,20.5,0.1
								L20.5,0.1z M21.6,7c0,0.6-0.5,1.1-1.1,1.1h-5.1c-0.6,0-1.1-0.5-1.1-1.1V2c0-0.6,0.5-1.1,1.1-1.1h5.1c0.6,0,1.1,0.5,1.1,1.1V7
								z"/>
							<path class="st1" d="M34,0.1H29c-1.1,0-2,0.9-2,2V7c0,1.1,0.9,2,2,2H34c1.1,0,2-0.9,2-2V2C36,1,35.1,0.1,34,0.1L34,0.1z
								 M35.1,7C35.1,7.5,34.6,8,34,8H29c-0.6,0-1.1-0.5-1.1-1.1V2C27.9,1.5,28.4,1,29,1H34c0.6,0,1.1,0.5,1.1,1.1V7z"/>
							<path class="st1" d="M9,7V2c0-1.1-0.9-2-2-2H2C0.9,0.1,0,1,0,2V7c0,1.1,0.9,2,2,2H7C8.1,8.9,9,8,9,7L9,7z M0.9,7V2
								C0.9,1.5,1.4,1,2,1H7C7.6,1,8.1,1.5,8.1,2V7C8.1,7.5,7.6,8,7,8H2C1.4,8,0.9,7.5,0.9,7L0.9,7z"/>
							<path class="st1" d="M6.2,2.9L3.9,5.2L2.8,4C2.6,3.9,2.3,3.9,2.1,4S2,4.5,2.1,4.7l1.5,1.4c0.2,0.2,0.5,0.2,0.6,0l2.6-2.6
								C7,3.4,7,3.3,7,3.1c0-0.2-0.2-0.3-0.3-0.3C6.5,2.7,6.3,2.8,6.2,2.9L6.2,2.9z"/>
							<path class="st1" d="M33.2,2.9l-2.3,2.3L29.8,4c-0.1-0.1-0.3-0.2-0.4-0.1c-0.2,0-0.3,0.2-0.3,0.3s0,0.3,0.1,0.4l1.5,1.4
								c0.2,0.2,0.5,0.2,0.6,0l2.6-2.6c0.2-0.2,0.2-0.5,0-0.6C33.7,2.7,33.4,2.7,33.2,2.9L33.2,2.9z"/>
							<path class="st1" d="M19.6,2.9c-0.2-0.2-0.5-0.2-0.6,0l-1,1l-1-1c-0.1-0.1-0.3-0.2-0.4-0.1c-0.2,0-0.3,0.2-0.3,0.3
								c0,0.2,0,0.3,0.1,0.4l1,1l-1,1c-0.1,0.1-0.2,0.3-0.1,0.4c0,0.2,0.2,0.3,0.3,0.3c0.2,0,0.3,0,0.4-0.1l1-1l1,1
								c0.2,0.2,0.5,0.2,0.6,0s0.2-0.5,0-0.6l-1-1l1-1C19.8,3.4,19.8,3.1,19.6,2.9L19.6,2.9z"/>
						</g>
					</g>
				</g>
			</g>
		</g>
	</g>
</g>
</svg>
