<?xml version="1.0" encoding="utf-8"?>
<!-- Generator: Adobe Illustrator 23.0.1, SVG Export Plug-In . SVG Version: 6.00 Build 0)  -->
<svg version="1.1" xmlns="http://www.w3.org/2000/svg" xmlns:xlink="http://www.w3.org/1999/xlink" x="0px" y="0px"
	 viewBox="0 0 705 540" style="enable-background:new 0 0 705 540;" xml:space="preserve">
<style type="text/css">
	.st0{fill:#F2A774;}
	.st1{enable-background:new    ;}
	.st2{fill:url(#SVGID_1_);}
	.st3{fill:url(#SVGID_2_);}
</style>
<symbol  id="New_Symbol_1" viewBox="-165.8 -21.3 671.3 42.5">
	<rect x="-165.8" y="-21.3" class="st0" width="6.5" height="42.5"/>
	<rect x="-153.2" y="-21.3" class="st0" width="6.5" height="42.5"/>
	<rect x="-140.8" y="-21.3" class="st0" width="6.5" height="42.5"/>
	<rect x="-128.2" y="-21.3" class="st0" width="6.5" height="42.5"/>
	<rect x="-115.8" y="-21.3" class="st0" width="6.5" height="42.5"/>
	<rect x="-103.2" y="-21.3" class="st0" width="6.5" height="42.5"/>
	<rect x="-90.8" y="-21.3" class="st0" width="6.5" height="42.5"/>
	<rect x="-78.2" y="-21.3" class="st0" width="6.5" height="42.5"/>
	<rect x="-65.8" y="-21.3" class="st0" width="6.5" height="42.5"/>
	<rect x="-53.2" y="-21.3" class="st0" width="6.5" height="42.5"/>
	<rect x="-40.8" y="-21.3" class="st0" width="6.5" height="42.5"/>
	<rect x="-28.2" y="-21.3" class="st0" width="6.5" height="42.5"/>
	<rect x="-15.8" y="-21.3" class="st0" width="6.5" height="42.5"/>
	<rect x="-3.2" y="-21.3" class="st0" width="6.5" height="42.5"/>
	<rect x="9.2" y="-21.3" class="st0" width="6.5" height="42.5"/>
	<rect x="21.8" y="-21.3" class="st0" width="6.5" height="42.5"/>
	<rect x="34.2" y="-21.3" class="st0" width="6.5" height="42.5"/>
	<rect x="46.8" y="-21.3" class="st0" width="6.5" height="42.5"/>
	<rect x="59.2" y="-21.3" class="st0" width="6.5" height="42.5"/>
	<rect x="71.8" y="-21.3" class="st0" width="6.5" height="42.5"/>
	<rect x="84.2" y="-21.3" class="st0" width="6.5" height="42.5"/>
	<rect x="96.8" y="-21.3" class="st0" width="6.5" height="42.5"/>
	<rect x="109.2" y="-21.3" class="st0" width="6.5" height="42.5"/>
	<rect x="121.8" y="-21.3" class="st0" width="6.5" height="42.5"/>
	<rect x="134.2" y="-21.3" class="st0" width="6.5" height="42.5"/>
	<rect x="146.8" y="-21.3" class="st0" width="6.5" height="42.5"/>
	<rect x="159.2" y="-21.3" class="st0" width="6.5" height="42.5"/>
	<rect x="174.1" y="-21.3" class="st0" width="6.5" height="42.5"/>
	<rect x="186.6" y="-21.3" class="st0" width="6.5" height="42.5"/>
	<rect x="199.1" y="-21.3" class="st0" width="6.5" height="42.5"/>
	<rect x="211.6" y="-21.3" class="st0" width="6.5" height="42.5"/>
	<rect x="224.1" y="-21.3" class="st0" width="6.5" height="42.5"/>
	<rect x="236.6" y="-21.3" class="st0" width="6.5" height="42.5"/>
	<rect x="249.1" y="-21.3" class="st0" width="6.5" height="42.5"/>
	<rect x="261.6" y="-21.3" class="st0" width="6.5" height="42.5"/>
	<rect x="274.1" y="-21.3" class="st0" width="6.5" height="42.5"/>
	<rect x="286.6" y="-21.3" class="st0" width="6.5" height="42.5"/>
	<rect x="299.1" y="-21.3" class="st0" width="6.5" height="42.5"/>
	<rect x="311.6" y="-21.3" class="st0" width="6.5" height="42.5"/>
	<rect x="324.1" y="-21.3" class="st0" width="6.5" height="42.5"/>
	<rect x="336.6" y="-21.3" class="st0" width="6.5" height="42.5"/>
	<rect x="349.1" y="-21.3" class="st0" width="6.5" height="42.5"/>
	<rect x="361.6" y="-21.3" class="st0" width="6.5" height="42.5"/>
	<rect x="374.1" y="-21.3" class="st0" width="6.5" height="42.5"/>
	<rect x="386.6" y="-21.3" class="st0" width="6.5" height="42.5"/>
	<rect x="399.1" y="-21.3" class="st0" width="6.5" height="42.5"/>
	<rect x="411.6" y="-21.3" class="st0" width="6.5" height="42.5"/>
	<rect x="424.1" y="-21.3" class="st0" width="6.5" height="42.5"/>
	<rect x="436.6" y="-21.3" class="st0" width="6.5" height="42.5"/>
	<rect x="449.1" y="-21.3" class="st0" width="6.5" height="42.5"/>
	<rect x="461.6" y="-21.3" class="st0" width="6.5" height="42.5"/>
	<rect x="474.1" y="-21.3" class="st0" width="6.5" height="42.5"/>
	<rect x="486.6" y="-21.3" class="st0" width="6.5" height="42.5"/>
	<rect x="499.1" y="-21.3" class="st0" width="6.5" height="42.5"/>
</symbol>
<g id="BACKGROUND_2">
</g>
<g id="OBJECTS">
	<g>
		<g>
			<g class="st1">
				<linearGradient id="SVGID_1_" gradientUnits="userSpaceOnUse" x1="387.0359" y1="268.8939" x2="414.1304" y2="294.599">
					<stop  offset="0" style="stop-color:#F48D67"/>
					<stop  offset="1.657451e-02" style="stop-color:#F5926C"/>
					<stop  offset="0.1031" style="stop-color:#F9A683"/>
					<stop  offset="0.1853" style="stop-color:#FCB390"/>
					<stop  offset="0.2581" style="stop-color:#FDB795"/>
					<stop  offset="0.2856" style="stop-color:#FEB492"/>
					<stop  offset="0.3978" style="stop-color:#FFAB89"/>
					<stop  offset="0.4419" style="stop-color:#FDA482"/>
					<stop  offset="0.6803" style="stop-color:#F4845E"/>
					<stop  offset="0.8748" style="stop-color:#EF7048"/>
					<stop  offset="1" style="stop-color:#ED6940"/>
				</linearGradient>
				<path class="st2" d="M611.9,87.3c-0.1,0.1-0.2,0.1-0.4,0.2c0,0-0.1,0-0.1,0c-0.2,0-0.3,0-0.6-0.1c-0.1,0-0.3-0.1-0.5-0.1
					c-0.1,0-0.2-0.1-0.3-0.1c-0.2-0.1-0.3-0.1-0.5-0.2c0,0-0.1,0-0.1-0.1c-0.2-0.1-0.5-0.3-0.8-0.4c-0.1,0-0.1-0.1-0.2-0.1
					c-0.2-0.1-0.4-0.3-0.7-0.4c-0.1,0-0.2-0.1-0.2-0.1c-0.3-0.2-0.6-0.4-0.9-0.6c0,0,0,0-0.1,0c-0.3-0.2-0.6-0.4-0.9-0.6
					c-0.1-0.1-0.2-0.1-0.3-0.2c-0.2-0.2-0.5-0.4-0.7-0.5c-0.1-0.1-0.2-0.2-0.3-0.3c-0.3-0.2-0.5-0.4-0.8-0.6
					c-0.1-0.1-0.2-0.2-0.4-0.3c-0.3-0.2-0.5-0.4-0.8-0.6c-0.1-0.1-0.3-0.2-0.4-0.4c-0.2-0.1-0.3-0.3-0.5-0.4
					c-0.3-0.2-0.5-0.4-0.8-0.7c-0.1-0.1-0.2-0.2-0.3-0.3c-0.4-0.4-0.8-0.7-1.2-1.1c-0.2-0.1-0.3-0.3-0.5-0.5c-0.4-0.3-0.7-0.6-1.1-1
					c-0.2-0.2-0.3-0.3-0.5-0.5c-0.5-0.4-0.9-0.9-1.4-1.3c0,0-0.1-0.1-0.1-0.1c-0.5-0.5-1-1-1.4-1.4c-0.4-0.4-0.8-0.8-1.2-1.2
					c-0.2-0.2-0.4-0.4-0.5-0.6c-0.2-0.2-0.4-0.4-0.5-0.6c-0.2-0.2-0.4-0.5-0.6-0.7c-0.1-0.1-0.2-0.2-0.3-0.3c-0.3-0.3-0.6-0.7-0.9-1
					c-0.1-0.1-0.1-0.1-0.2-0.2c-0.2-0.2-0.4-0.5-0.6-0.7c-0.1-0.1-0.2-0.2-0.2-0.3c-0.2-0.2-0.3-0.4-0.5-0.6
					c-0.1-0.1-0.2-0.2-0.3-0.3c-0.1-0.2-0.3-0.3-0.4-0.5c-0.1-0.1-0.2-0.2-0.2-0.3c-0.1-0.2-0.2-0.3-0.3-0.5
					c-0.1-0.1-0.2-0.2-0.2-0.3c-0.1-0.1-0.2-0.3-0.3-0.4c-0.1-0.1-0.1-0.2-0.2-0.3c-0.1-0.1-0.2-0.2-0.2-0.4
					c-0.1-0.1-0.2-0.2-0.2-0.4c-0.1-0.1-0.1-0.2-0.2-0.3c-0.1-0.2-0.2-0.3-0.2-0.4c0-0.1-0.1-0.1-0.1-0.2c-0.1-0.2-0.2-0.4-0.3-0.6
					c0,0,0-0.1,0-0.1c0-0.1-0.1-0.2-0.1-0.3c0-0.1,0-0.1-0.1-0.2c0-0.1,0-0.2,0-0.2c0,0,0-0.1,0-0.2c0-0.1,0-0.1,0-0.2
					c0,0,0-0.1,0-0.1c0-0.1,0.1-0.2,0.1-0.2l0,0l0,0L189.9,472.7c-0.1,0.1-0.1,0.1-0.1,0.2c0,0,0,0.1,0,0.1c0,0.1,0,0.1,0,0.2
					c0,0,0,0.1,0,0.2c0,0.1,0,0.2,0,0.2c0,0.1,0,0.1,0.1,0.2c0,0.1,0,0.2,0.1,0.3c0,0,0,0,0,0c0,0,0,0.1,0,0.1
					c0.1,0.2,0.2,0.4,0.3,0.6c0,0,0,0.1,0,0.1c0,0,0,0.1,0.1,0.1c0.1,0.1,0.2,0.3,0.2,0.4c0,0.1,0.1,0.1,0.1,0.2c0,0,0,0.1,0.1,0.1
					c0.1,0.1,0.2,0.2,0.2,0.4c0.1,0.1,0.1,0.2,0.2,0.3c0,0,0,0.1,0.1,0.1c0.1,0.1,0.1,0.2,0.2,0.3c0.1,0.1,0.1,0.2,0.2,0.3
					c0,0,0.1,0.1,0.1,0.1c0.1,0.1,0.1,0.2,0.2,0.3c0.1,0.1,0.1,0.2,0.2,0.3c0,0.1,0.1,0.1,0.2,0.2c0.1,0.1,0.2,0.2,0.2,0.3
					c0.1,0.1,0.1,0.1,0.2,0.2c0.1,0.1,0.2,0.2,0.2,0.3c0.1,0.1,0.2,0.2,0.2,0.3c0,0.1,0.1,0.1,0.1,0.2c0.1,0.1,0.2,0.3,0.3,0.4
					c0.1,0.1,0.2,0.2,0.2,0.3c0,0,0,0.1,0.1,0.1c0.2,0.2,0.4,0.4,0.5,0.6c0.1,0.1,0.1,0.1,0.2,0.2c0,0,0,0,0,0
					c0.3,0.3,0.5,0.6,0.8,0.9c0,0,0,0,0,0c0.1,0.1,0.2,0.2,0.3,0.3c0.2,0.2,0.4,0.4,0.6,0.6c0,0,0,0,0,0c0.2,0.2,0.3,0.4,0.5,0.6
					c0.1,0.2,0.3,0.3,0.4,0.5c0,0,0.1,0.1,0.1,0.1c0.3,0.4,0.7,0.7,1.1,1.1c0,0,0.1,0.1,0.1,0.1c0.5,0.5,1,1,1.4,1.4c0,0,0,0,0,0
					c0,0,0.1,0.1,0.1,0.1c0.5,0.5,0.9,0.9,1.4,1.3c0.2,0.2,0.3,0.3,0.5,0.4c0.4,0.3,0.7,0.7,1.1,1c0.1,0.1,0.2,0.2,0.3,0.3
					c0.1,0.1,0.1,0.1,0.2,0.2c0.4,0.4,0.8,0.7,1.2,1.1c0.1,0.1,0.2,0.2,0.3,0.2c0,0,0,0,0.1,0.1c0.3,0.2,0.5,0.4,0.8,0.7
					c0.2,0.1,0.3,0.3,0.5,0.4c0,0,0,0,0,0c0.1,0.1,0.3,0.2,0.4,0.3c0.2,0.2,0.5,0.4,0.7,0.6c0,0,0.1,0,0.1,0.1
					c0.1,0.1,0.2,0.2,0.4,0.3c0.2,0.2,0.4,0.3,0.6,0.5c0.1,0,0.1,0.1,0.2,0.1c0.1,0.1,0.2,0.2,0.4,0.3c0.1,0.1,0.3,0.2,0.4,0.3
					c0.1,0.1,0.2,0.2,0.3,0.2c0.1,0.1,0.2,0.2,0.3,0.2c0.1,0,0.1,0.1,0.2,0.1c0.2,0.2,0.5,0.3,0.7,0.5c0,0,0,0,0.1,0c0,0,0,0,0,0
					c0.2,0.2,0.5,0.3,0.7,0.5c0.1,0,0.1,0.1,0.2,0.1c0.1,0,0.2,0.1,0.2,0.1c0.1,0.1,0.2,0.1,0.3,0.2c0.1,0.1,0.2,0.1,0.4,0.2
					c0.1,0,0.1,0.1,0.2,0.1c0,0,0.1,0,0.1,0.1c0.2,0.1,0.4,0.2,0.6,0.3c0,0,0,0,0,0c0.1,0,0.1,0,0.1,0.1c0.1,0.1,0.3,0.1,0.4,0.2
					c0,0,0.1,0,0.1,0c0.1,0,0.2,0.1,0.3,0.1c0.1,0,0.2,0.1,0.3,0.1c0.1,0,0.1,0,0.2,0.1c0.1,0,0.3,0.1,0.4,0.1c0.1,0,0.1,0,0.2,0
					c0,0,0.1,0,0.1,0c0.2,0,0.3-0.1,0.4-0.2L611.9,87.3z"/>
				<linearGradient id="SVGID_2_" gradientUnits="userSpaceOnUse" x1="585.2204" y1="74.5754" x2="612.0633" y2="74.5754">
					<stop  offset="0" style="stop-color:#FFAB89"/>
					<stop  offset="0.2511" style="stop-color:#FEAF8D"/>
					<stop  offset="1" style="stop-color:#FDB795"/>
				</linearGradient>
				<path class="st3" d="M604.3,75.9c-6.7-7.1-14.7-13.5-17.8-14.2c-3.1-0.7-0.2,4.5,6.5,11.6c6.7,7.1,14.7,13.5,17.8,14.2
					C613.9,88.2,611,83,604.3,75.9z"/>
			</g>
		</g>
	</g>
</g>
</svg>
