<?xml version="1.0" encoding="utf-8"?>
<!-- Generator: Adobe Illustrator 23.0.1, SVG Export Plug-In . SVG Version: 6.00 Build 0)  -->
<svg version="1.1" xmlns="http://www.w3.org/2000/svg" xmlns:xlink="http://www.w3.org/1999/xlink" x="0px" y="0px"
	 viewBox="0 0 705 540" style="enable-background:new 0 0 705 540;" xml:space="preserve">
<style type="text/css">
	.st0{fill:#F2A774;}
	.st1{enable-background:new    ;}
	.st2{fill:#A68791;}
	.st3{fill:#644E5A;}
	.st4{fill:#C4A7DB;}
</style>
<symbol  id="New_Symbol_1" viewBox="-165.8 -21.3 671.3 42.5">
	<rect x="-165.8" y="-21.3" class="st0" width="6.5" height="42.5"/>
	<rect x="-153.2" y="-21.3" class="st0" width="6.5" height="42.5"/>
	<rect x="-140.8" y="-21.3" class="st0" width="6.5" height="42.5"/>
	<rect x="-128.2" y="-21.3" class="st0" width="6.5" height="42.5"/>
	<rect x="-115.8" y="-21.3" class="st0" width="6.5" height="42.5"/>
	<rect x="-103.2" y="-21.3" class="st0" width="6.5" height="42.5"/>
	<rect x="-90.8" y="-21.3" class="st0" width="6.5" height="42.5"/>
	<rect x="-78.2" y="-21.3" class="st0" width="6.5" height="42.5"/>
	<rect x="-65.8" y="-21.3" class="st0" width="6.5" height="42.5"/>
	<rect x="-53.2" y="-21.3" class="st0" width="6.5" height="42.5"/>
	<rect x="-40.8" y="-21.3" class="st0" width="6.5" height="42.5"/>
	<rect x="-28.2" y="-21.3" class="st0" width="6.5" height="42.5"/>
	<rect x="-15.8" y="-21.3" class="st0" width="6.5" height="42.5"/>
	<rect x="-3.2" y="-21.3" class="st0" width="6.5" height="42.5"/>
	<rect x="9.2" y="-21.3" class="st0" width="6.5" height="42.5"/>
	<rect x="21.8" y="-21.3" class="st0" width="6.5" height="42.5"/>
	<rect x="34.2" y="-21.3" class="st0" width="6.5" height="42.5"/>
	<rect x="46.8" y="-21.3" class="st0" width="6.5" height="42.5"/>
	<rect x="59.2" y="-21.3" class="st0" width="6.5" height="42.5"/>
	<rect x="71.8" y="-21.3" class="st0" width="6.5" height="42.5"/>
	<rect x="84.2" y="-21.3" class="st0" width="6.5" height="42.5"/>
	<rect x="96.8" y="-21.3" class="st0" width="6.5" height="42.5"/>
	<rect x="109.2" y="-21.3" class="st0" width="6.5" height="42.5"/>
	<rect x="121.8" y="-21.3" class="st0" width="6.5" height="42.5"/>
	<rect x="134.2" y="-21.3" class="st0" width="6.5" height="42.5"/>
	<rect x="146.8" y="-21.3" class="st0" width="6.5" height="42.5"/>
	<rect x="159.2" y="-21.3" class="st0" width="6.5" height="42.5"/>
	<rect x="174.1" y="-21.3" class="st0" width="6.5" height="42.5"/>
	<rect x="186.6" y="-21.3" class="st0" width="6.5" height="42.5"/>
	<rect x="199.1" y="-21.3" class="st0" width="6.5" height="42.5"/>
	<rect x="211.6" y="-21.3" class="st0" width="6.5" height="42.5"/>
	<rect x="224.1" y="-21.3" class="st0" width="6.5" height="42.5"/>
	<rect x="236.6" y="-21.3" class="st0" width="6.5" height="42.5"/>
	<rect x="249.1" y="-21.3" class="st0" width="6.5" height="42.5"/>
	<rect x="261.6" y="-21.3" class="st0" width="6.5" height="42.5"/>
	<rect x="274.1" y="-21.3" class="st0" width="6.5" height="42.5"/>
	<rect x="286.6" y="-21.3" class="st0" width="6.5" height="42.5"/>
	<rect x="299.1" y="-21.3" class="st0" width="6.5" height="42.5"/>
	<rect x="311.6" y="-21.3" class="st0" width="6.5" height="42.5"/>
	<rect x="324.1" y="-21.3" class="st0" width="6.5" height="42.5"/>
	<rect x="336.6" y="-21.3" class="st0" width="6.5" height="42.5"/>
	<rect x="349.1" y="-21.3" class="st0" width="6.5" height="42.5"/>
	<rect x="361.6" y="-21.3" class="st0" width="6.5" height="42.5"/>
	<rect x="374.1" y="-21.3" class="st0" width="6.5" height="42.5"/>
	<rect x="386.6" y="-21.3" class="st0" width="6.5" height="42.5"/>
	<rect x="399.1" y="-21.3" class="st0" width="6.5" height="42.5"/>
	<rect x="411.6" y="-21.3" class="st0" width="6.5" height="42.5"/>
	<rect x="424.1" y="-21.3" class="st0" width="6.5" height="42.5"/>
	<rect x="436.6" y="-21.3" class="st0" width="6.5" height="42.5"/>
	<rect x="449.1" y="-21.3" class="st0" width="6.5" height="42.5"/>
	<rect x="461.6" y="-21.3" class="st0" width="6.5" height="42.5"/>
	<rect x="474.1" y="-21.3" class="st0" width="6.5" height="42.5"/>
	<rect x="486.6" y="-21.3" class="st0" width="6.5" height="42.5"/>
	<rect x="499.1" y="-21.3" class="st0" width="6.5" height="42.5"/>
</symbol>
<g id="BACKGROUND_2">
</g>
<g id="OBJECTS">
	<g>
		<g>
			<g>
				<g class="st1">
					<g>
						<polygon class="st2" points="648.9,132.3 627.4,150.2 634.2,186.4 655.7,168.6 						"/>
					</g>
					<g>
						<polygon class="st3" points="655.7,168.6 634.2,186.4 668.1,189.4 689.6,171.5 						"/>
					</g>
					<g>
						<polygon class="st4" points="682.8,135.3 648.9,132.3 655.7,168.6 689.6,171.5 						"/>
					</g>
				</g>
			</g>
		</g>
	</g>
</g>
</svg>
