<?xml version="1.0" encoding="utf-8"?>
<!-- Generator: Adobe Illustrator 23.0.1, SVG Export Plug-In . SVG Version: 6.00 Build 0)  -->
<svg version="1.1" xmlns="http://www.w3.org/2000/svg" xmlns:xlink="http://www.w3.org/1999/xlink" x="0px" y="0px"
	 viewBox="0 0 705 540" style="enable-background:new 0 0 705 540;" xml:space="preserve">
<style type="text/css">
	.st0{fill:#F2A774;}
	.st1{enable-background:new    ;}
	.st2{fill:url(#SVGID_1_);}
	.st3{fill:url(#SVGID_2_);}
</style>
<symbol  id="New_Symbol_1" viewBox="-165.8 -21.3 671.3 42.5">
	<rect x="-165.8" y="-21.3" class="st0" width="6.5" height="42.5"/>
	<rect x="-153.2" y="-21.3" class="st0" width="6.5" height="42.5"/>
	<rect x="-140.8" y="-21.3" class="st0" width="6.5" height="42.5"/>
	<rect x="-128.2" y="-21.3" class="st0" width="6.5" height="42.5"/>
	<rect x="-115.8" y="-21.3" class="st0" width="6.5" height="42.5"/>
	<rect x="-103.2" y="-21.3" class="st0" width="6.5" height="42.5"/>
	<rect x="-90.8" y="-21.3" class="st0" width="6.5" height="42.5"/>
	<rect x="-78.2" y="-21.3" class="st0" width="6.5" height="42.5"/>
	<rect x="-65.8" y="-21.3" class="st0" width="6.5" height="42.5"/>
	<rect x="-53.2" y="-21.3" class="st0" width="6.5" height="42.5"/>
	<rect x="-40.8" y="-21.3" class="st0" width="6.5" height="42.5"/>
	<rect x="-28.2" y="-21.3" class="st0" width="6.5" height="42.5"/>
	<rect x="-15.8" y="-21.3" class="st0" width="6.5" height="42.5"/>
	<rect x="-3.2" y="-21.3" class="st0" width="6.5" height="42.5"/>
	<rect x="9.2" y="-21.3" class="st0" width="6.5" height="42.5"/>
	<rect x="21.8" y="-21.3" class="st0" width="6.5" height="42.5"/>
	<rect x="34.2" y="-21.3" class="st0" width="6.5" height="42.5"/>
	<rect x="46.8" y="-21.3" class="st0" width="6.5" height="42.5"/>
	<rect x="59.2" y="-21.3" class="st0" width="6.5" height="42.5"/>
	<rect x="71.8" y="-21.3" class="st0" width="6.5" height="42.5"/>
	<rect x="84.2" y="-21.3" class="st0" width="6.5" height="42.5"/>
	<rect x="96.8" y="-21.3" class="st0" width="6.5" height="42.5"/>
	<rect x="109.2" y="-21.3" class="st0" width="6.5" height="42.5"/>
	<rect x="121.8" y="-21.3" class="st0" width="6.5" height="42.5"/>
	<rect x="134.2" y="-21.3" class="st0" width="6.5" height="42.5"/>
	<rect x="146.8" y="-21.3" class="st0" width="6.5" height="42.5"/>
	<rect x="159.2" y="-21.3" class="st0" width="6.5" height="42.5"/>
	<rect x="174.1" y="-21.3" class="st0" width="6.5" height="42.5"/>
	<rect x="186.6" y="-21.3" class="st0" width="6.5" height="42.5"/>
	<rect x="199.1" y="-21.3" class="st0" width="6.5" height="42.5"/>
	<rect x="211.6" y="-21.3" class="st0" width="6.5" height="42.5"/>
	<rect x="224.1" y="-21.3" class="st0" width="6.5" height="42.5"/>
	<rect x="236.6" y="-21.3" class="st0" width="6.5" height="42.5"/>
	<rect x="249.1" y="-21.3" class="st0" width="6.5" height="42.5"/>
	<rect x="261.6" y="-21.3" class="st0" width="6.5" height="42.5"/>
	<rect x="274.1" y="-21.3" class="st0" width="6.5" height="42.5"/>
	<rect x="286.6" y="-21.3" class="st0" width="6.5" height="42.5"/>
	<rect x="299.1" y="-21.3" class="st0" width="6.5" height="42.5"/>
	<rect x="311.6" y="-21.3" class="st0" width="6.5" height="42.5"/>
	<rect x="324.1" y="-21.3" class="st0" width="6.5" height="42.5"/>
	<rect x="336.6" y="-21.3" class="st0" width="6.5" height="42.5"/>
	<rect x="349.1" y="-21.3" class="st0" width="6.5" height="42.5"/>
	<rect x="361.6" y="-21.3" class="st0" width="6.5" height="42.5"/>
	<rect x="374.1" y="-21.3" class="st0" width="6.5" height="42.5"/>
	<rect x="386.6" y="-21.3" class="st0" width="6.5" height="42.5"/>
	<rect x="399.1" y="-21.3" class="st0" width="6.5" height="42.5"/>
	<rect x="411.6" y="-21.3" class="st0" width="6.5" height="42.5"/>
	<rect x="424.1" y="-21.3" class="st0" width="6.5" height="42.5"/>
	<rect x="436.6" y="-21.3" class="st0" width="6.5" height="42.5"/>
	<rect x="449.1" y="-21.3" class="st0" width="6.5" height="42.5"/>
	<rect x="461.6" y="-21.3" class="st0" width="6.5" height="42.5"/>
	<rect x="474.1" y="-21.3" class="st0" width="6.5" height="42.5"/>
	<rect x="486.6" y="-21.3" class="st0" width="6.5" height="42.5"/>
	<rect x="499.1" y="-21.3" class="st0" width="6.5" height="42.5"/>
</symbol>
<g id="BACKGROUND_2">
</g>
<g id="OBJECTS">
	<g>
		<g>
			<g>
				<g class="st1">
					<linearGradient id="SVGID_1_" gradientUnits="userSpaceOnUse" x1="549.4101" y1="211.2992" x2="549.4101" y2="389.1851">
						<stop  offset="0" style="stop-color:#F48D67"/>
						<stop  offset="1.657451e-02" style="stop-color:#F5926C"/>
						<stop  offset="0.1031" style="stop-color:#F9A683"/>
						<stop  offset="0.1853" style="stop-color:#FCB390"/>
						<stop  offset="0.2581" style="stop-color:#FDB795"/>
						<stop  offset="0.2856" style="stop-color:#FEB492"/>
						<stop  offset="0.3978" style="stop-color:#FFAB89"/>
						<stop  offset="0.4419" style="stop-color:#FDA482"/>
						<stop  offset="0.6803" style="stop-color:#F4845E"/>
						<stop  offset="0.8748" style="stop-color:#EF7048"/>
						<stop  offset="1" style="stop-color:#ED6940"/>
					</linearGradient>
					<path class="st2" d="M553.5,397.9c0.4,0.1,0.8,0.2,1.3,0.3c0.2,0.1,0.5,0.1,0.7,0.1c0.5,0.1,0.9,0.1,1.4,0.2
						c0.2,0,0.4,0.1,0.6,0.1c0.7,0.1,1.3,0.1,2,0.1l21.6-0.2c-0.7,0-1.3,0-2-0.1c-0.2,0-0.4,0-0.6-0.1c-0.5,0-0.9-0.1-1.4-0.2
						c-0.2,0-0.5-0.1-0.7-0.1c-0.4-0.1-0.9-0.2-1.3-0.3c-0.2-0.1-0.5-0.1-0.7-0.2c-0.4-0.1-0.9-0.3-1.3-0.5
						c-0.2-0.1-0.4-0.2-0.6-0.2c-0.7-0.3-1.3-0.6-2-0.9c-0.1,0-0.1-0.1-0.2-0.1c-0.6-0.3-1.2-0.6-1.8-1c-0.2-0.1-0.4-0.3-0.6-0.4
						c-0.4-0.3-0.9-0.6-1.3-0.9c-0.2-0.2-0.4-0.3-0.7-0.5c-0.5-0.3-0.9-0.7-1.3-1.1c-0.2-0.2-0.4-0.3-0.6-0.5
						c-0.6-0.5-1.2-1.1-1.8-1.7c-0.1-0.1-0.1-0.1-0.2-0.2c-0.5-0.5-1.1-1.1-1.6-1.7c-0.2-0.2-0.4-0.4-0.6-0.7
						c-0.4-0.5-0.8-0.9-1.2-1.4c-0.2-0.2-0.4-0.5-0.6-0.7c-0.4-0.5-0.8-1.1-1.2-1.6c-0.2-0.2-0.3-0.5-0.5-0.7
						c-0.2-0.3-0.4-0.6-0.7-1c-0.3-0.4-0.5-0.7-0.8-1.1c-0.2-0.3-0.4-0.7-0.6-1c-0.2-0.4-0.5-0.8-0.7-1.2c-0.2-0.4-0.4-0.7-0.6-1.1
						c-0.2-0.4-0.5-0.8-0.7-1.2c-0.2-0.4-0.4-0.8-0.6-1.1c-0.2-0.4-0.4-0.8-0.6-1.2c-0.4-0.7-0.7-1.4-1.1-2.2
						c-0.1-0.2-0.2-0.5-0.4-0.7c-0.5-1-0.9-2-1.3-3c-0.1-0.2-0.2-0.5-0.3-0.7c-0.3-0.8-0.7-1.6-1-2.5c-0.1-0.4-0.3-0.8-0.4-1.2
						c-0.3-0.7-0.5-1.5-0.8-2.2c-0.1-0.4-0.3-0.8-0.4-1.2c-0.3-0.8-0.5-1.6-0.8-2.4c-0.1-0.4-0.2-0.8-0.4-1.2
						c-0.3-1-0.6-2.1-0.9-3.1c0-0.2-0.1-0.3-0.1-0.5c-0.3-1.2-0.7-2.5-1-3.8c-0.1-0.4-0.2-0.8-0.3-1.1c-0.2-0.9-0.4-1.8-0.6-2.8
						c-0.1-0.6-0.3-1.2-0.4-1.8c-0.1-0.5-0.2-0.9-0.3-1.4c-0.1-0.7-0.3-1.4-0.4-2.1c-0.1-0.5-0.2-0.9-0.2-1.4
						c-0.1-0.8-0.3-1.6-0.4-2.4c-0.1-0.4-0.1-0.8-0.2-1.2c-0.2-1.2-0.4-2.4-0.5-3.6c-0.2-1.4-0.3-2.8-0.5-4.2c0-0.4-0.1-0.7-0.1-1.1
						c-0.1-0.9-0.2-1.8-0.2-2.7c-0.1-0.8-0.1-1.6-0.2-2.3c-0.1-0.8-0.1-1.6-0.2-2.4c0-0.8-0.1-1.6-0.1-2.3c0-0.8-0.1-1.6-0.1-2.4
						c0-0.8-0.1-1.6-0.1-2.3c0-0.8,0-1.6,0-2.4c0-0.8,0-1.6,0-2.3c0-0.7,0-1.4,0-2.1c0-1,0-2,0-2.9c0-0.7,0-1.4,0.1-2.1
						c0-1,0.1-1.9,0.1-2.9c0-0.7,0.1-1.4,0.1-2c0.1-1,0.1-2,0.2-3c0-0.6,0.1-1.3,0.1-1.9c0.1-1,0.2-2.1,0.3-3.1
						c0.1-0.6,0.1-1.2,0.2-1.8c0-0.3,0.1-0.6,0.1-0.9c0.1-1.1,0.3-2.2,0.4-3.2c0-0.3,0.1-0.7,0.1-1c0.2-1.3,0.4-2.6,0.6-3.9
						c0-0.2,0.1-0.4,0.1-0.6c0.2-1.1,0.4-2.2,0.6-3.3c0.1-0.3,0.1-0.7,0.2-1c0.2-1.3,0.5-2.5,0.8-3.8c0,0,0,0,0-0.1
						c0.3-1.2,0.5-2.4,0.8-3.7c0.1-0.3,0.2-0.7,0.2-1c0.3-1.1,0.5-2.1,0.8-3.2c0-0.2,0.1-0.3,0.1-0.5c0.3-1.2,0.6-2.4,1-3.5
						c0.1-0.3,0.2-0.6,0.3-0.9c0.3-0.9,0.6-1.9,0.9-2.8c0.1-0.2,0.2-0.5,0.2-0.7c0.4-1.1,0.7-2.2,1.1-3.3c0.1-0.2,0.2-0.5,0.3-0.7
						c0.3-0.9,0.7-1.8,1-2.6c0.1-0.3,0.2-0.5,0.3-0.8c0.4-1,0.8-2.1,1.3-3.1c0.1-0.2,0.1-0.3,0.2-0.5c0.4-0.9,0.8-1.7,1.2-2.6
						c0.1-0.3,0.2-0.5,0.4-0.8c0.5-1,0.9-1.9,1.4-2.8c0,0,0,0,0,0c0.5-0.9,1-1.8,1.5-2.7c0.1-0.2,0.3-0.5,0.4-0.7
						c0.4-0.8,0.9-1.5,1.4-2.2c0.1-0.1,0.2-0.2,0.2-0.4c0.5-0.8,1.1-1.6,1.6-2.4c0.1-0.2,0.3-0.4,0.4-0.6c0.5-0.6,0.9-1.2,1.4-1.8
						c0.1-0.2,0.2-0.3,0.4-0.5c0.6-0.7,1.2-1.4,1.7-2.1c0.1-0.1,0.3-0.3,0.4-0.4c0.5-0.5,1-1.1,1.5-1.6c0.2-0.2,0.3-0.3,0.5-0.5
						c0.6-0.6,1.2-1.2,1.9-1.7c0.1-0.1,0.2-0.2,0.3-0.2c0.5-0.5,1.1-0.9,1.7-1.4c0.2-0.1,0.3-0.3,0.5-0.4c0.7-0.5,1.3-1,2-1.4
						c3.2-2.1,6.5-3.3,9.7-3.9c1.1-0.2,2.1-0.3,3.2-0.3h0h0l-21.6,0.2c-4.2,0.1-8.6,1.4-12.9,4.2c-0.7,0.4-1.3,0.9-2,1.4
						c-0.2,0.1-0.3,0.3-0.5,0.4c-0.6,0.4-1.1,0.9-1.7,1.4c-0.1,0.1-0.2,0.2-0.3,0.2c-0.6,0.6-1.2,1.1-1.9,1.7
						c-0.2,0.2-0.3,0.3-0.5,0.5c-0.5,0.5-1,1-1.5,1.6c-0.1,0.1-0.3,0.3-0.4,0.4c-0.6,0.7-1.2,1.4-1.7,2.1c-0.1,0.2-0.2,0.3-0.4,0.5
						c-0.5,0.6-0.9,1.2-1.4,1.8c-0.1,0.2-0.3,0.4-0.4,0.6c-0.5,0.8-1.1,1.6-1.6,2.4c-0.1,0.1-0.2,0.3-0.2,0.4
						c-0.5,0.7-0.9,1.5-1.4,2.2c-0.1,0.2-0.3,0.5-0.4,0.7c-0.5,0.9-1,1.8-1.5,2.7c0,0,0,0,0,0c-0.5,0.9-1,1.9-1.4,2.8
						c-0.1,0.3-0.2,0.5-0.4,0.8c-0.4,0.8-0.8,1.7-1.2,2.6c-0.1,0.2-0.1,0.3-0.2,0.5c-0.4,1-0.9,2-1.3,3.1c-0.1,0.3-0.2,0.5-0.3,0.8
						c-0.3,0.9-0.7,1.7-1,2.6c-0.1,0.2-0.2,0.5-0.3,0.7c-0.4,1.1-0.8,2.2-1.1,3.3c-0.1,0.2-0.2,0.5-0.2,0.7
						c-0.3,0.9-0.6,1.9-0.9,2.8c-0.1,0.3-0.2,0.6-0.3,0.9c-0.3,1.2-0.7,2.3-1,3.5c0,0.2-0.1,0.3-0.1,0.5c-0.3,1-0.5,2.1-0.8,3.1
						c-0.1,0.3-0.2,0.7-0.2,1c-0.3,1.2-0.6,2.4-0.8,3.6c0,0,0,0,0,0.1c-0.3,1.2-0.5,2.5-0.8,3.8c-0.1,0.3-0.1,0.7-0.2,1
						c-0.2,1.1-0.4,2.2-0.6,3.3c0,0.2-0.1,0.4-0.1,0.6c-0.2,1.3-0.4,2.6-0.6,3.9c0,0.3-0.1,0.7-0.1,1c-0.1,1.1-0.3,2.2-0.4,3.2
						c0,0.3-0.1,0.6-0.1,0.9c0,0.1,0,0.3-0.1,0.4c0,0.5-0.1,0.9-0.1,1.4c-0.1,1-0.2,2.1-0.3,3.1c-0.1,0.6-0.1,1.3-0.1,1.9
						c-0.1,1-0.1,2-0.2,3c0,0.7-0.1,1.4-0.1,2c0,1-0.1,1.9-0.1,2.9c0,0.7,0,1.4-0.1,2.1c0,1,0,2,0,2.9c0,0.4,0,0.9,0,1.3
						c0,0.3,0,0.6,0,0.8c0,0.8,0,1.6,0,2.3c0,0.8,0,1.6,0,2.4c0,0.8,0,1.6,0.1,2.3c0,0.8,0.1,1.6,0.1,2.4c0,0.8,0.1,1.6,0.1,2.3
						c0,0.8,0.1,1.6,0.2,2.4c0.1,0.8,0.1,1.6,0.2,2.3c0,0.5,0.1,1,0.1,1.5c0,0.4,0.1,0.8,0.1,1.1c0,0.4,0.1,0.7,0.1,1.1
						c0.1,1.4,0.3,2.8,0.5,4.2c0.2,1.2,0.3,2.4,0.5,3.6c0.1,0.4,0.1,0.8,0.2,1.2c0.1,0.8,0.3,1.6,0.4,2.4c0.1,0.5,0.2,0.9,0.2,1.4
						c0.1,0.7,0.3,1.4,0.4,2.1c0.1,0.5,0.2,1,0.3,1.4c0.1,0.4,0.2,0.8,0.3,1.2c0,0.2,0.1,0.4,0.1,0.6c0.2,0.9,0.4,1.9,0.6,2.8
						c0.1,0.4,0.2,0.8,0.3,1.1c0.3,1.3,0.6,2.5,1,3.8c0,0.2,0.1,0.3,0.1,0.5c0.3,1.1,0.6,2.1,0.9,3.1c0.1,0.4,0.2,0.8,0.4,1.2
						c0.3,0.8,0.5,1.6,0.8,2.4c0.1,0.4,0.3,0.8,0.4,1.2c0.3,0.7,0.5,1.5,0.8,2.2c0.1,0.4,0.3,0.8,0.4,1.2c0.3,0.8,0.7,1.6,1,2.5
						c0.1,0.2,0.2,0.5,0.3,0.7c0.4,1,0.9,2,1.3,3c0.1,0.2,0.2,0.5,0.4,0.7c0.4,0.7,0.7,1.5,1.1,2.2c0.1,0.1,0.1,0.2,0.2,0.4
						c0.2,0.3,0.3,0.6,0.5,0.9c0.2,0.4,0.4,0.8,0.6,1.1c0.2,0.4,0.5,0.8,0.7,1.2c0.2,0.4,0.4,0.7,0.6,1.1c0.2,0.4,0.5,0.8,0.7,1.2
						c0.2,0.3,0.4,0.7,0.6,1c0.2,0.4,0.5,0.8,0.8,1.1c0.2,0.3,0.4,0.6,0.7,1c0.1,0.1,0.1,0.1,0.2,0.2c0.1,0.2,0.2,0.3,0.4,0.5
						c0.4,0.6,0.8,1.1,1.2,1.6c0.2,0.3,0.4,0.5,0.6,0.7c0.4,0.5,0.8,1,1.2,1.4c0.2,0.2,0.4,0.4,0.6,0.6c0.5,0.6,1.1,1.1,1.6,1.7
						c0.1,0.1,0.1,0.1,0.2,0.2c0.6,0.6,1.2,1.2,1.8,1.7c0.2,0.2,0.4,0.3,0.6,0.5c0.4,0.4,0.9,0.7,1.3,1.1c0.2,0.2,0.4,0.3,0.7,0.5
						c0.4,0.3,0.9,0.6,1.3,0.9c0.2,0.1,0.4,0.3,0.6,0.4c0.6,0.4,1.2,0.7,1.8,1c0.1,0,0.1,0.1,0.2,0.1c0.7,0.3,1.3,0.6,2,0.9
						c0.1,0,0.1,0.1,0.2,0.1c0.2,0.1,0.3,0.1,0.5,0.2c0.4,0.2,0.9,0.3,1.3,0.5C553,397.8,553.3,397.8,553.5,397.9z"/>
					<linearGradient id="SVGID_2_" gradientUnits="userSpaceOnUse" x1="680.9112" y1="170.8223" x2="536.6567" y2="365.0108">
						<stop  offset="0" style="stop-color:#FDB795"/>
						<stop  offset="0.2282" style="stop-color:#FDAC88"/>
						<stop  offset="0.6973" style="stop-color:#FE9B72"/>
						<stop  offset="1" style="stop-color:#FE946A"/>
					</linearGradient>
					<path class="st3" d="M625.8,275.9c-6.5-50.1-31.3-78.4-55.4-63c-24,15.3-38.2,68.3-31.7,118.5c6.5,50.1,31.3,78.3,55.4,63
						C618.1,379.1,632.3,326,625.8,275.9z"/>
				</g>
			</g>
		</g>
	</g>
</g>
</svg>
