<?xml version="1.0" encoding="utf-8"?>
<!-- Generator: Adobe Illustrator 23.0.1, SVG Export Plug-In . SVG Version: 6.00 Build 0)  -->
<svg version="1.1" xmlns="http://www.w3.org/2000/svg" xmlns:xlink="http://www.w3.org/1999/xlink" x="0px" y="0px"
	 viewBox="0 0 705 540" style="enable-background:new 0 0 705 540;" xml:space="preserve">
<style type="text/css">
	.st0{fill:#F2A774;}
	.st1{fill:#DCBCDA;}
	.st2{fill:#FFDCD8;}
	.st3{fill:#A39CAE;}
	.st4{fill:#FE946A;}
	.st5{fill:#C4A7DB;}
</style>
<symbol  id="New_Symbol_1" viewBox="-165.8 -21.3 671.3 42.5">
	<rect x="-165.8" y="-21.3" class="st0" width="6.5" height="42.5"/>
	<rect x="-153.2" y="-21.3" class="st0" width="6.5" height="42.5"/>
	<rect x="-140.8" y="-21.3" class="st0" width="6.5" height="42.5"/>
	<rect x="-128.2" y="-21.3" class="st0" width="6.5" height="42.5"/>
	<rect x="-115.8" y="-21.3" class="st0" width="6.5" height="42.5"/>
	<rect x="-103.2" y="-21.3" class="st0" width="6.5" height="42.5"/>
	<rect x="-90.8" y="-21.3" class="st0" width="6.5" height="42.5"/>
	<rect x="-78.2" y="-21.3" class="st0" width="6.5" height="42.5"/>
	<rect x="-65.8" y="-21.3" class="st0" width="6.5" height="42.5"/>
	<rect x="-53.2" y="-21.3" class="st0" width="6.5" height="42.5"/>
	<rect x="-40.8" y="-21.3" class="st0" width="6.5" height="42.5"/>
	<rect x="-28.2" y="-21.3" class="st0" width="6.5" height="42.5"/>
	<rect x="-15.8" y="-21.3" class="st0" width="6.5" height="42.5"/>
	<rect x="-3.2" y="-21.3" class="st0" width="6.5" height="42.5"/>
	<rect x="9.2" y="-21.3" class="st0" width="6.5" height="42.5"/>
	<rect x="21.8" y="-21.3" class="st0" width="6.5" height="42.5"/>
	<rect x="34.2" y="-21.3" class="st0" width="6.5" height="42.5"/>
	<rect x="46.8" y="-21.3" class="st0" width="6.5" height="42.5"/>
	<rect x="59.2" y="-21.3" class="st0" width="6.5" height="42.5"/>
	<rect x="71.8" y="-21.3" class="st0" width="6.5" height="42.5"/>
	<rect x="84.2" y="-21.3" class="st0" width="6.5" height="42.5"/>
	<rect x="96.8" y="-21.3" class="st0" width="6.5" height="42.5"/>
	<rect x="109.2" y="-21.3" class="st0" width="6.5" height="42.5"/>
	<rect x="121.8" y="-21.3" class="st0" width="6.5" height="42.5"/>
	<rect x="134.2" y="-21.3" class="st0" width="6.5" height="42.5"/>
	<rect x="146.8" y="-21.3" class="st0" width="6.5" height="42.5"/>
	<rect x="159.2" y="-21.3" class="st0" width="6.5" height="42.5"/>
	<rect x="174.1" y="-21.3" class="st0" width="6.5" height="42.5"/>
	<rect x="186.6" y="-21.3" class="st0" width="6.5" height="42.5"/>
	<rect x="199.1" y="-21.3" class="st0" width="6.5" height="42.5"/>
	<rect x="211.6" y="-21.3" class="st0" width="6.5" height="42.5"/>
	<rect x="224.1" y="-21.3" class="st0" width="6.5" height="42.5"/>
	<rect x="236.6" y="-21.3" class="st0" width="6.5" height="42.5"/>
	<rect x="249.1" y="-21.3" class="st0" width="6.5" height="42.5"/>
	<rect x="261.6" y="-21.3" class="st0" width="6.5" height="42.5"/>
	<rect x="274.1" y="-21.3" class="st0" width="6.5" height="42.5"/>
	<rect x="286.6" y="-21.3" class="st0" width="6.5" height="42.5"/>
	<rect x="299.1" y="-21.3" class="st0" width="6.5" height="42.5"/>
	<rect x="311.6" y="-21.3" class="st0" width="6.5" height="42.5"/>
	<rect x="324.1" y="-21.3" class="st0" width="6.5" height="42.5"/>
	<rect x="336.6" y="-21.3" class="st0" width="6.5" height="42.5"/>
	<rect x="349.1" y="-21.3" class="st0" width="6.5" height="42.5"/>
	<rect x="361.6" y="-21.3" class="st0" width="6.5" height="42.5"/>
	<rect x="374.1" y="-21.3" class="st0" width="6.5" height="42.5"/>
	<rect x="386.6" y="-21.3" class="st0" width="6.5" height="42.5"/>
	<rect x="399.1" y="-21.3" class="st0" width="6.5" height="42.5"/>
	<rect x="411.6" y="-21.3" class="st0" width="6.5" height="42.5"/>
	<rect x="424.1" y="-21.3" class="st0" width="6.5" height="42.5"/>
	<rect x="436.6" y="-21.3" class="st0" width="6.5" height="42.5"/>
	<rect x="449.1" y="-21.3" class="st0" width="6.5" height="42.5"/>
	<rect x="461.6" y="-21.3" class="st0" width="6.5" height="42.5"/>
	<rect x="474.1" y="-21.3" class="st0" width="6.5" height="42.5"/>
	<rect x="486.6" y="-21.3" class="st0" width="6.5" height="42.5"/>
	<rect x="499.1" y="-21.3" class="st0" width="6.5" height="42.5"/>
</symbol>
<g id="BACKGROUND_2">
</g>
<g id="OBJECTS">
	<g>
		<g>
			<g>
				<ellipse class="st1" cx="188.9" cy="408.6" rx="131.4" ry="131.4"/>
				<ellipse class="st1" cx="17.9" cy="380.8" rx="17.9" ry="17.9"/>
			</g>
			<path class="st2" d="M664.3,81.7c0,4.8-3.9,8.6-8.7,8.6c-4.8,0-8.7-3.9-8.7-8.6c0-4.8,3.9-8.6,8.7-8.6
				C660.5,73.1,664.3,76.9,664.3,81.7z"/>
		</g>
		<g>
			<path class="st3" d="M249.8,45.3c-1.3,0-2.6-0.8-3.1-2c-0.2-0.4-2.1-4.3-7.1-4.3c-2.7,0-4.1,1.1-6.1,2.6c-2.2,1.7-5,3.8-9.7,3.8
				c-9.4,0-12.5-8.2-12.6-8.5c-0.6-1.7,0.3-3.7,2-4.3c1.7-0.6,3.7,0.2,4.3,2c0.2,0.4,1.8,4.1,6.3,4.1c2.4,0,3.7-1,5.6-2.4
				c2.3-1.7,5.2-3.9,10.1-3.9c9.6,0,13.2,8,13.3,8.4c0.7,1.7-0.1,3.7-1.8,4.4C250.7,45.2,250.2,45.3,249.8,45.3z"/>
			<path class="st4" d="M83.5,275.2c-1.1,0-2.1-0.6-2.6-1.7c-0.2-0.3-1.7-3.5-5.8-3.5c-2.2,0-3.4,0.9-5,2.1c-1.8,1.4-4.1,3.1-8,3.1
				c-7.7,0-10.3-6.7-10.4-7c-0.5-1.4,0.2-3,1.6-3.6c1.4-0.5,3,0.2,3.6,1.6c0.1,0.4,1.5,3.4,5.2,3.4c2,0,3.1-0.8,4.6-2
				c1.9-1.4,4.3-3.2,8.3-3.2c7.9,0,10.8,6.6,10.9,6.9c0.6,1.4,0,3-1.5,3.6C84.3,275.1,83.9,275.2,83.5,275.2z"/>
			<path class="st5" d="M689.7,357.4c-0.9,0-1.8-0.6-2.2-1.5c-0.1-0.3-1.5-3.1-5.1-3.1c-1.9,0-2.9,0.8-4.4,1.8
				c-1.6,1.2-3.6,2.7-6.9,2.7c-6.7,0-9-5.9-9-6.1c-0.5-1.3,0.2-2.6,1.4-3.1c1.2-0.5,2.6,0.2,3.1,1.4c0.1,0.3,1.3,3,4.5,3
				c1.7,0,2.7-0.7,4-1.7c1.7-1.2,3.7-2.8,7.3-2.8c6.9,0,9.4,5.8,9.6,6c0.5,1.2,0,2.7-1.3,3.2C690.4,357.3,690.1,357.4,689.7,357.4z"
				/>
		</g>
	</g>
</g>
</svg>
