<?xml version="1.0" encoding="utf-8"?>
<!-- Generator: Adobe Illustrator 23.0.1, SVG Export Plug-In . SVG Version: 6.00 Build 0)  -->
<svg version="1.1" xmlns="http://www.w3.org/2000/svg" xmlns:xlink="http://www.w3.org/1999/xlink" x="0px" y="0px"
	 viewBox="0 0 1410 1080.3" style="enable-background:new 0 0 1410 1080.3;" xml:space="preserve">
<style type="text/css">
	.st0{fill:#F2A774;}
	.st1{enable-background:new    ;}
	.st2{fill:url(#SVGID_1_);}
	.st3{fill:url(#SVGID_2_);}
	.st4{fill:#FBD2CE;}
</style>
<symbol  id="New_Symbol_1" viewBox="-165.8 -21.3 671.3 42.5">
	<rect x="-165.8" y="-21.3" class="st0" width="6.5" height="42.5"/>
	<rect x="-153.2" y="-21.3" class="st0" width="6.5" height="42.5"/>
	<rect x="-140.8" y="-21.3" class="st0" width="6.5" height="42.5"/>
	<rect x="-128.2" y="-21.3" class="st0" width="6.5" height="42.5"/>
	<rect x="-115.8" y="-21.3" class="st0" width="6.5" height="42.5"/>
	<rect x="-103.2" y="-21.3" class="st0" width="6.5" height="42.5"/>
	<rect x="-90.8" y="-21.3" class="st0" width="6.5" height="42.5"/>
	<rect x="-78.2" y="-21.3" class="st0" width="6.5" height="42.5"/>
	<rect x="-65.8" y="-21.3" class="st0" width="6.5" height="42.5"/>
	<rect x="-53.2" y="-21.3" class="st0" width="6.5" height="42.5"/>
	<rect x="-40.8" y="-21.3" class="st0" width="6.5" height="42.5"/>
	<rect x="-28.2" y="-21.3" class="st0" width="6.5" height="42.5"/>
	<rect x="-15.8" y="-21.3" class="st0" width="6.5" height="42.5"/>
	<rect x="-3.2" y="-21.3" class="st0" width="6.5" height="42.5"/>
	<rect x="9.2" y="-21.3" class="st0" width="6.5" height="42.5"/>
	<rect x="21.8" y="-21.3" class="st0" width="6.5" height="42.5"/>
	<rect x="34.2" y="-21.3" class="st0" width="6.5" height="42.5"/>
	<rect x="46.8" y="-21.3" class="st0" width="6.5" height="42.5"/>
	<rect x="59.2" y="-21.3" class="st0" width="6.5" height="42.5"/>
	<rect x="71.8" y="-21.3" class="st0" width="6.5" height="42.5"/>
	<rect x="84.2" y="-21.3" class="st0" width="6.5" height="42.5"/>
	<rect x="96.8" y="-21.3" class="st0" width="6.5" height="42.5"/>
	<rect x="109.2" y="-21.3" class="st0" width="6.5" height="42.5"/>
	<rect x="121.8" y="-21.3" class="st0" width="6.5" height="42.5"/>
	<rect x="134.2" y="-21.3" class="st0" width="6.5" height="42.5"/>
	<rect x="146.8" y="-21.3" class="st0" width="6.5" height="42.5"/>
	<rect x="159.2" y="-21.3" class="st0" width="6.5" height="42.5"/>
	<rect x="174.1" y="-21.3" class="st0" width="6.5" height="42.5"/>
	<rect x="186.6" y="-21.3" class="st0" width="6.5" height="42.5"/>
	<rect x="199.1" y="-21.3" class="st0" width="6.5" height="42.5"/>
	<rect x="211.6" y="-21.3" class="st0" width="6.5" height="42.5"/>
	<rect x="224.1" y="-21.3" class="st0" width="6.5" height="42.5"/>
	<rect x="236.6" y="-21.3" class="st0" width="6.5" height="42.5"/>
	<rect x="249.1" y="-21.3" class="st0" width="6.5" height="42.5"/>
	<rect x="261.6" y="-21.3" class="st0" width="6.5" height="42.5"/>
	<rect x="274.1" y="-21.3" class="st0" width="6.5" height="42.5"/>
	<rect x="286.6" y="-21.3" class="st0" width="6.5" height="42.5"/>
	<rect x="299.1" y="-21.3" class="st0" width="6.5" height="42.5"/>
	<rect x="311.6" y="-21.3" class="st0" width="6.5" height="42.5"/>
	<rect x="324.1" y="-21.3" class="st0" width="6.5" height="42.5"/>
	<rect x="336.6" y="-21.3" class="st0" width="6.5" height="42.5"/>
	<rect x="349.1" y="-21.3" class="st0" width="6.5" height="42.5"/>
	<rect x="361.6" y="-21.3" class="st0" width="6.5" height="42.5"/>
	<rect x="374.1" y="-21.3" class="st0" width="6.5" height="42.5"/>
	<rect x="386.6" y="-21.3" class="st0" width="6.5" height="42.5"/>
	<rect x="399.1" y="-21.3" class="st0" width="6.5" height="42.5"/>
	<rect x="411.6" y="-21.3" class="st0" width="6.5" height="42.5"/>
	<rect x="424.1" y="-21.3" class="st0" width="6.5" height="42.5"/>
	<rect x="436.6" y="-21.3" class="st0" width="6.5" height="42.5"/>
	<rect x="449.1" y="-21.3" class="st0" width="6.5" height="42.5"/>
	<rect x="461.6" y="-21.3" class="st0" width="6.5" height="42.5"/>
	<rect x="474.1" y="-21.3" class="st0" width="6.5" height="42.5"/>
	<rect x="486.6" y="-21.3" class="st0" width="6.5" height="42.5"/>
	<rect x="499.1" y="-21.3" class="st0" width="6.5" height="42.5"/>
</symbol>
<g id="BACKGROUND_2">
</g>
<g id="OBJECTS">
	<g>
		<g>
			<g>
				<g class="st1">
					<linearGradient id="SVGID_1_" gradientUnits="userSpaceOnUse" x1="1264.0605" y1="813.082" x2="1423.6373" y2="813.082">
						<stop  offset="0" style="stop-color:#DAA498"/>
						<stop  offset="0.2048" style="stop-color:#DEABA0"/>
						<stop  offset="0.4861" style="stop-color:#E7BCB3"/>
						<stop  offset="0.6416" style="stop-color:#EEC3BC"/>
						<stop  offset="0.8377" style="stop-color:#FBD2CE"/>
						<stop  offset="0.8991" style="stop-color:#F8CEC9"/>
						<stop  offset="0.9684" style="stop-color:#EDC3BC"/>
						<stop  offset="1" style="stop-color:#E7BCB3"/>
					</linearGradient>
					<path class="st2" d="M1360.2,814.5c0.1,0,0.2,0,0.3,0c0.9,0.1,1.9,0.2,2.8,0.4c0.2,0,0.5,0.1,0.7,0.1c0.7,0.1,1.4,0.3,2.1,0.4
						c0.2,0.1,0.5,0.1,0.7,0.1c0.4,0.1,0.8,0.2,1.3,0.3c0.6,0.1,1.2,0.3,1.7,0.4c0.3,0.1,0.6,0.2,0.9,0.3c0.8,0.3,1.7,0.5,2.4,0.8
						c0.3,0.1,0.6,0.2,0.9,0.4c0.8,0.3,1.6,0.7,2.4,1.1c0.1,0.1,0.3,0.1,0.4,0.2c0.9,0.5,1.7,1,2.5,1.5c0.2,0.1,0.4,0.3,0.6,0.4
						c0.6,0.4,1.1,0.8,1.6,1.2c0.2,0.2,0.4,0.3,0.6,0.5c0.6,0.5,1.1,1.1,1.5,1.6c0.1,0.1,0.1,0.1,0.2,0.2c0.5,0.6,0.9,1.3,1.3,1.9
						c0.1,0.2,0.2,0.4,0.3,0.6c0.2,0.5,0.5,1,0.6,1.6c0.1,0.2,0.1,0.4,0.2,0.6c0.2,0.7,0.3,1.4,0.4,2.2c0,0,0,0,0,0l0,0l0,0
						l-1.9-30.9c0-0.7-0.2-1.5-0.4-2.2c-0.1-0.2-0.1-0.4-0.2-0.6c-0.2-0.5-0.4-1.1-0.6-1.6c-0.1-0.2-0.2-0.4-0.3-0.6
						c-0.4-0.7-0.8-1.3-1.3-1.9c0-0.1-0.1-0.1-0.2-0.2c-0.5-0.6-1-1.1-1.5-1.6c-0.2-0.2-0.4-0.3-0.6-0.5c-0.5-0.4-1-0.8-1.6-1.2
						c-0.2-0.1-0.4-0.3-0.6-0.4c-0.8-0.5-1.6-1-2.5-1.5c-0.1-0.1-0.3-0.1-0.4-0.2c-0.8-0.4-1.6-0.7-2.4-1.1
						c-0.3-0.1-0.6-0.2-0.9-0.4c-0.8-0.3-1.6-0.6-2.4-0.8c-0.2-0.1-0.4-0.1-0.6-0.2c-0.1,0-0.2,0-0.3-0.1c-0.6-0.2-1.1-0.3-1.7-0.4
						c-0.3-0.1-0.7-0.2-1-0.3c-0.1,0-0.2,0-0.3-0.1c-0.2-0.1-0.5-0.1-0.7-0.1c-0.5-0.1-0.9-0.2-1.4-0.3c-0.2,0-0.5-0.1-0.8-0.1
						c-0.2,0-0.5-0.1-0.7-0.1c-0.2,0-0.4-0.1-0.7-0.1c-0.6-0.1-1.3-0.2-1.9-0.2c-0.1,0-0.1,0-0.2,0c-0.1,0-0.2,0-0.3,0
						c-0.4,0-0.8-0.1-1.3-0.1c-0.6,0-1.2-0.1-1.8-0.1c0,0,0,0-0.1,0c0,0-0.1,0-0.1,0c-0.5,0-1,0-1.6-0.1c-0.6,0-1.2,0-1.8,0
						c0,0-0.1,0-0.1,0c-0.6,0-1.1,0-1.7,0c-0.6,0-1.2,0-1.8,0.1c-0.2,0-0.4,0-0.6,0c-0.1,0-0.3,0-0.4,0c-0.3,0-0.6,0-1,0.1
						c-0.7,0-1.4,0.1-2.1,0.2c-0.2,0-0.5,0.1-0.7,0.1c-0.2,0-0.4,0-0.6,0.1c-0.3,0-0.6,0.1-1,0.1c-1,0.1-1.9,0.3-2.9,0.4
						c0,0,0,0,0,0c0,0,0,0,0,0c0,0,0,0-0.1,0c-1.7,0.3-3.3,0.6-4.9,1c-0.2,0-0.4,0.1-0.6,0.1c-0.2,0.1-0.5,0.1-0.7,0.2
						c-1.8,0.4-3.7,0.9-5.4,1.5c-0.1,0-0.2,0-0.2,0.1c0,0-0.1,0-0.1,0c-0.7,0.2-1.4,0.5-2.1,0.7c-0.5,0.2-1.1,0.4-1.6,0.6
						c-0.7,0.3-1.4,0.6-2.1,0.9c-0.5,0.2-1,0.4-1.4,0.6c0,0,0,0,0,0c-1.3,0.6-2.6,1.2-3.8,1.9c-0.1,0.1-0.2,0.1-0.3,0.2
						c-0.3,0.2-0.6,0.4-1,0.6c-0.6,0.4-1.3,0.7-1.9,1.1c-0.2,0.1-0.3,0.2-0.5,0.3c-0.3,0.2-0.6,0.4-0.9,0.6c-0.5,0.3-0.9,0.6-1.4,1
						c-0.2,0.1-0.3,0.2-0.5,0.3c-0.3,0.2-0.6,0.5-0.9,0.7c-0.4,0.3-0.8,0.6-1.1,0.9c-0.1,0.1-0.3,0.2-0.4,0.3
						c-0.3,0.3-0.6,0.6-0.9,0.9c-0.3,0.3-0.6,0.6-0.9,0.9c-0.1,0.1-0.2,0.2-0.3,0.3c-0.3,0.3-0.6,0.7-0.9,1.1
						c-0.2,0.3-0.5,0.5-0.7,0.8c0,0.1-0.1,0.1-0.1,0.2c-0.4,0.5-0.7,1-1,1.5c-0.1,0.2-0.2,0.3-0.4,0.5c0,0,0,0,0,0.1
						c-0.4,0.7-0.8,1.4-1.1,2.1c0,0,0,0.1,0,0.1c-0.3,0.6-0.5,1.2-0.6,1.9c0,0.1-0.1,0.1-0.1,0.2c0,0.1,0,0.2,0,0.3
						c-0.1,0.6-0.2,1.1-0.3,1.7c0,0.1,0,0.1,0,0.2c0,0,0,0.1,0,0.1c0,0.5,0,1,0,1.5l1.9,30.9c0-0.5,0-1,0-1.5c0-0.1,0-0.2,0-0.3
						c0.1-0.6,0.1-1.1,0.3-1.7c0-0.2,0.1-0.3,0.1-0.5c0.2-0.6,0.4-1.2,0.6-1.9c0.3-0.8,0.7-1.5,1.2-2.3c0.1-0.2,0.2-0.4,0.4-0.5
						c0.4-0.6,0.7-1.1,1.1-1.7c0.2-0.3,0.5-0.5,0.7-0.8c0.4-0.4,0.7-0.9,1.2-1.3c0.3-0.3,0.6-0.6,0.9-0.9c0.4-0.4,0.8-0.8,1.3-1.2
						c0.4-0.3,0.7-0.6,1.1-0.9c0.4-0.4,0.9-0.7,1.3-1c0.4-0.3,0.9-0.7,1.4-1c0.5-0.3,0.9-0.6,1.4-0.9c0.6-0.4,1.3-0.8,1.9-1.1
						c0.4-0.2,0.9-0.5,1.3-0.7c1.2-0.7,2.5-1.3,3.8-1.9c0.5-0.2,1-0.4,1.5-0.6c0.7-0.3,1.4-0.6,2.1-0.9c0.5-0.2,1.1-0.4,1.6-0.6
						c0.7-0.2,1.4-0.5,2.1-0.7c0.1,0,0.2-0.1,0.3-0.1c1.8-0.6,3.6-1,5.4-1.5c0.4-0.1,0.8-0.2,1.3-0.3c1.6-0.4,3.3-0.7,4.9-1
						c0,0,0,0,0.1,0c0,0,0,0,0,0c1.3-0.2,2.6-0.4,3.9-0.5c0.2,0,0.4,0,0.6-0.1c1.2-0.1,2.5-0.2,3.7-0.3c0.1,0,0.3,0,0.4,0
						c1.4-0.1,2.7-0.1,4.1-0.1c1.2,0,2.3,0,3.4,0.1c0,0,0.1,0,0.1,0C1358.1,814.3,1359.1,814.4,1360.2,814.5z"/>
					<linearGradient id="SVGID_2_" gradientUnits="userSpaceOnUse" x1="1278.0542" y1="834.6653" x2="1408" y2="834.6653">
						<stop  offset="0" style="stop-color:#E7BCB3"/>
						<stop  offset="5.022633e-02" style="stop-color:#EDC3BC"/>
						<stop  offset="0.1604" style="stop-color:#F8CEC9"/>
						<stop  offset="0.2581" style="stop-color:#FBD2CE"/>
						<stop  offset="0.336" style="stop-color:#EEC3BC"/>
						<stop  offset="0.3978" style="stop-color:#E7BCB3"/>
						<stop  offset="0.7464" style="stop-color:#DEABA0"/>
						<stop  offset="1" style="stop-color:#DAA498"/>
					</linearGradient>
					<path class="st3" d="M1408,830.9c0,0,0-0.1,0-0.1c0.1-0.8,0.1-1.5,0-2.3l-1.9-30.9c0,0.8,0,1.5,0,2.3c0,0.1,0,0.3-0.1,0.4
						c-0.1,0.8-0.2,1.7-0.4,2.6c-0.1,0.2-0.1,0.5-0.2,0.7c-0.2,0.9-0.5,1.9-0.9,2.8c-0.5,1.2-1.1,2.3-1.7,3.5
						c-0.2,0.3-0.4,0.5-0.5,0.8c-0.5,0.8-1.1,1.7-1.7,2.5c-0.3,0.4-0.7,0.8-1,1.2c-0.6,0.7-1.1,1.3-1.7,2c-0.4,0.4-0.9,0.9-1.3,1.3
						c-0.6,0.6-1.2,1.2-1.9,1.8c-0.5,0.5-1.1,0.9-1.7,1.4c-0.7,0.5-1.3,1.1-2,1.6c-0.7,0.5-1.4,1-2.1,1.5c-0.7,0.5-1.4,0.9-2.1,1.4
						c-0.9,0.6-1.9,1.1-2.9,1.7c-0.6,0.4-1.3,0.7-2,1.1c-1.8,1-3.8,1.9-5.7,2.8c-0.7,0.3-1.5,0.6-2.2,0.9c-1,0.4-2.1,0.9-3.1,1.3
						c-0.8,0.3-1.6,0.6-2.4,0.9c-1.1,0.4-2.1,0.8-3.2,1.1c-1.7,0.6-3.5,1.1-5.3,1.6c-0.5,0.1-1.1,0.3-1.6,0.4
						c-1.2,0.3-2.4,0.6-3.6,0.8c-2.4,0.5-4.9,1-7.4,1.4c0,0-0.1,0-0.1,0c0,0-0.1,0-0.1,0c-1.9,0.3-3.8,0.5-5.8,0.8
						c-0.3,0-0.6,0.1-0.9,0.1c-1.9,0.2-3.7,0.3-5.6,0.4c-0.2,0-0.4,0-0.6,0c-2.1,0.1-4.1,0.2-6.2,0.2c-1.8,0-3.5-0.1-5.2-0.1
						c-0.1,0-0.1,0-0.2,0c-1.6-0.1-3.2-0.2-4.7-0.4c-0.2,0-0.3,0-0.5,0c-1.4-0.1-2.8-0.3-4.2-0.5c-0.4-0.1-0.7-0.1-1.1-0.2
						c-1.1-0.2-2.1-0.4-3.2-0.6c-0.4-0.1-0.8-0.1-1.1-0.2c-0.7-0.1-1.3-0.3-1.9-0.5c-0.9-0.2-1.8-0.4-2.6-0.7
						c-1.2-0.3-2.3-0.7-3.4-1.1c-0.2-0.1-0.4-0.1-0.6-0.2c-1-0.3-1.9-0.7-2.8-1.1c-0.3-0.1-0.5-0.2-0.8-0.3c-1-0.5-2.1-0.9-3-1.4
						c-0.2-0.1-0.3-0.2-0.4-0.2c-0.8-0.4-1.6-0.9-2.4-1.4c-0.2-0.1-0.4-0.3-0.7-0.4c-0.8-0.6-1.7-1.1-2.4-1.7
						c-0.1-0.1-0.2-0.2-0.3-0.2c-0.7-0.5-1.3-1.1-1.9-1.7c-0.2-0.2-0.3-0.3-0.5-0.5c-0.6-0.7-1.2-1.3-1.8-2
						c-0.1-0.1-0.1-0.1-0.1-0.2c-0.5-0.6-0.9-1.3-1.3-1.9c-0.1-0.2-0.2-0.4-0.3-0.6c-0.4-0.7-0.8-1.5-1.1-2.2c0,0,0-0.1,0-0.1
						c-0.3-0.7-0.5-1.5-0.7-2.2c-0.1-0.2-0.1-0.4-0.1-0.6c-0.2-0.8-0.3-1.6-0.4-2.4l1.9,30.9c0.1,0.8,0.2,1.6,0.4,2.4
						c0,0.2,0.1,0.4,0.1,0.6c0.2,0.8,0.4,1.5,0.7,2.2c0,0,0,0.1,0,0.1c0.3,0.8,0.7,1.5,1.1,2.2c0.1,0.2,0.2,0.4,0.3,0.6
						c0.4,0.7,0.8,1.3,1.3,2c0.1,0.1,0.1,0.1,0.1,0.2c0.5,0.7,1.1,1.4,1.8,2c0.2,0.2,0.3,0.3,0.5,0.5c0.6,0.6,1.2,1.1,1.9,1.7
						c0.1,0.1,0.2,0.2,0.3,0.2c0.8,0.6,1.6,1.2,2.4,1.7c0.2,0.1,0.4,0.3,0.6,0.4c0.8,0.5,1.6,0.9,2.4,1.4c0.1,0.1,0.3,0.2,0.4,0.2
						c1,0.5,2,1,3,1.4c0.3,0.1,0.5,0.2,0.8,0.3c0.9,0.4,1.9,0.8,2.8,1.1c0.2,0.1,0.4,0.1,0.6,0.2c1,0.3,2,0.7,3,1
						c0.1,0,0.3,0.1,0.4,0.1c0.8,0.2,1.7,0.5,2.6,0.7c0.5,0.1,1,0.3,1.5,0.4c0.1,0,0.3,0.1,0.4,0.1c0.4,0.1,0.8,0.1,1.1,0.2
						c0.7,0.1,1.4,0.3,2,0.4c0.4,0.1,0.8,0.1,1.1,0.2c0.4,0.1,0.7,0.1,1.1,0.2c0.3,0,0.6,0.1,1,0.2c0.9,0.1,1.9,0.2,2.9,0.4
						c0.1,0,0.2,0,0.3,0c0.2,0,0.3,0,0.5,0c0.6,0.1,1.3,0.1,1.9,0.2c0.9,0.1,1.8,0.1,2.7,0.2c0,0,0.1,0,0.1,0c0.1,0,0.1,0,0.2,0
						c0.8,0,1.6,0.1,2.4,0.1c0.9,0,1.8,0,2.7,0c0.1,0,0.1,0,0.2,0c0.9,0,1.7,0,2.6,0c0.9,0,1.8,0,2.8-0.1c0.3,0,0.6,0,0.8,0
						c0.2,0,0.4,0,0.6,0c0.5,0,1,0,1.5-0.1c1-0.1,2.1-0.2,3.1-0.2c0.4,0,0.7-0.1,1.1-0.1c0.3,0,0.6-0.1,0.9-0.1
						c0.5-0.1,1-0.1,1.4-0.2c1.4-0.2,2.9-0.4,4.3-0.6c0,0,0.1,0,0.1,0c0,0,0,0,0,0c0,0,0.1,0,0.1,0c2.5-0.4,5-0.9,7.4-1.4
						c0.3-0.1,0.6-0.1,0.9-0.2c0.9-0.2,1.8-0.5,2.7-0.7c0.5-0.1,1.1-0.3,1.6-0.4c1.8-0.5,3.5-1,5.2-1.5c0,0,0.1,0,0.1,0
						c1.1-0.3,2.1-0.7,3.2-1.1c0.8-0.3,1.7-0.6,2.5-0.9c1.1-0.4,2.1-0.9,3.1-1.3c0.7-0.3,1.5-0.6,2.2-0.9c0,0,0,0,0,0
						c2-0.9,3.9-1.8,5.7-2.8c0.2-0.1,0.3-0.2,0.5-0.3c0.5-0.3,1-0.6,1.4-0.9c1-0.6,1.9-1.1,2.9-1.7c0.2-0.1,0.5-0.3,0.7-0.4
						c0.5-0.3,0.9-0.6,1.4-1c0.7-0.5,1.4-1,2.1-1.5c0.2-0.2,0.5-0.3,0.7-0.5c0.5-0.4,0.9-0.7,1.3-1.1c0.6-0.5,1.1-0.9,1.7-1.4
						c0.2-0.2,0.4-0.3,0.6-0.5c0.5-0.4,0.9-0.9,1.3-1.3c0.5-0.4,0.9-0.9,1.3-1.3c0.1-0.1,0.3-0.3,0.4-0.4c0.5-0.5,0.9-1.1,1.4-1.6
						c0.3-0.4,0.7-0.8,1-1.2c0.1-0.1,0.1-0.2,0.2-0.2c0.6-0.7,1-1.5,1.5-2.3c0.2-0.3,0.4-0.5,0.5-0.8c0,0,0-0.1,0.1-0.1
						c0.6-1.1,1.2-2.1,1.6-3.2c0-0.1,0-0.1,0.1-0.2c0.4-0.9,0.7-1.9,0.9-2.8c0-0.1,0.1-0.2,0.1-0.3c0-0.1,0-0.3,0.1-0.4
						c0.2-0.9,0.3-1.7,0.4-2.6C1407.9,831.1,1407.9,831,1408,830.9z"/>
					<g>
						<path class="st4" d="M1356.3,771.7c34.5,0.1,56,15.6,48.2,34.7c-7.9,19.1-42.2,34.5-76.6,34.4c-34.5-0.1-56-15.6-48.2-34.7
							C1287.5,787,1321.8,771.6,1356.3,771.7z M1332.6,829.3c22.9,0.1,45.8-10.2,51-22.9c5.2-12.7-9.1-23.1-32.1-23.1
							c-22.9-0.1-45.8,10.2-51,22.9C1295.3,818.9,1309.6,829.2,1332.6,829.3"/>
					</g>
				</g>
			</g>
		</g>
	</g>
</g>
</svg>
