<?xml version="1.0" encoding="utf-8"?>
<!-- Generator: Adobe Illustrator 23.0.1, SVG Export Plug-In . SVG Version: 6.00 Build 0)  -->
<svg version="1.1" xmlns="http://www.w3.org/2000/svg" xmlns:xlink="http://www.w3.org/1999/xlink" x="0px" y="0px"
	 viewBox="0 0 1410 1080.3" style="enable-background:new 0 0 1410 1080.3;" xml:space="preserve">
<style type="text/css">
	.st0{fill:#F2A774;}
	.st1{enable-background:new    ;}
	.st2{fill:url(#SVGID_1_);}
	.st3{fill:url(#SVGID_2_);}
	.st4{fill:#C4A7DB;}
</style>
<symbol  id="New_Symbol_1" viewBox="-165.8 -21.3 671.3 42.5">
	<rect x="-165.8" y="-21.3" class="st0" width="6.5" height="42.5"/>
	<rect x="-153.2" y="-21.3" class="st0" width="6.5" height="42.5"/>
	<rect x="-140.8" y="-21.3" class="st0" width="6.5" height="42.5"/>
	<rect x="-128.2" y="-21.3" class="st0" width="6.5" height="42.5"/>
	<rect x="-115.8" y="-21.3" class="st0" width="6.5" height="42.5"/>
	<rect x="-103.2" y="-21.3" class="st0" width="6.5" height="42.5"/>
	<rect x="-90.8" y="-21.3" class="st0" width="6.5" height="42.5"/>
	<rect x="-78.2" y="-21.3" class="st0" width="6.5" height="42.5"/>
	<rect x="-65.8" y="-21.3" class="st0" width="6.5" height="42.5"/>
	<rect x="-53.2" y="-21.3" class="st0" width="6.5" height="42.5"/>
	<rect x="-40.8" y="-21.3" class="st0" width="6.5" height="42.5"/>
	<rect x="-28.2" y="-21.3" class="st0" width="6.5" height="42.5"/>
	<rect x="-15.8" y="-21.3" class="st0" width="6.5" height="42.5"/>
	<rect x="-3.2" y="-21.3" class="st0" width="6.5" height="42.5"/>
	<rect x="9.2" y="-21.3" class="st0" width="6.5" height="42.5"/>
	<rect x="21.8" y="-21.3" class="st0" width="6.5" height="42.5"/>
	<rect x="34.2" y="-21.3" class="st0" width="6.5" height="42.5"/>
	<rect x="46.8" y="-21.3" class="st0" width="6.5" height="42.5"/>
	<rect x="59.2" y="-21.3" class="st0" width="6.5" height="42.5"/>
	<rect x="71.8" y="-21.3" class="st0" width="6.5" height="42.5"/>
	<rect x="84.2" y="-21.3" class="st0" width="6.5" height="42.5"/>
	<rect x="96.8" y="-21.3" class="st0" width="6.5" height="42.5"/>
	<rect x="109.2" y="-21.3" class="st0" width="6.5" height="42.5"/>
	<rect x="121.8" y="-21.3" class="st0" width="6.5" height="42.5"/>
	<rect x="134.2" y="-21.3" class="st0" width="6.5" height="42.5"/>
	<rect x="146.8" y="-21.3" class="st0" width="6.5" height="42.5"/>
	<rect x="159.2" y="-21.3" class="st0" width="6.5" height="42.5"/>
	<rect x="174.1" y="-21.3" class="st0" width="6.5" height="42.5"/>
	<rect x="186.6" y="-21.3" class="st0" width="6.5" height="42.5"/>
	<rect x="199.1" y="-21.3" class="st0" width="6.5" height="42.5"/>
	<rect x="211.6" y="-21.3" class="st0" width="6.5" height="42.5"/>
	<rect x="224.1" y="-21.3" class="st0" width="6.5" height="42.5"/>
	<rect x="236.6" y="-21.3" class="st0" width="6.5" height="42.5"/>
	<rect x="249.1" y="-21.3" class="st0" width="6.5" height="42.5"/>
	<rect x="261.6" y="-21.3" class="st0" width="6.5" height="42.5"/>
	<rect x="274.1" y="-21.3" class="st0" width="6.5" height="42.5"/>
	<rect x="286.6" y="-21.3" class="st0" width="6.5" height="42.5"/>
	<rect x="299.1" y="-21.3" class="st0" width="6.5" height="42.5"/>
	<rect x="311.6" y="-21.3" class="st0" width="6.5" height="42.5"/>
	<rect x="324.1" y="-21.3" class="st0" width="6.5" height="42.5"/>
	<rect x="336.6" y="-21.3" class="st0" width="6.5" height="42.5"/>
	<rect x="349.1" y="-21.3" class="st0" width="6.5" height="42.5"/>
	<rect x="361.6" y="-21.3" class="st0" width="6.5" height="42.5"/>
	<rect x="374.1" y="-21.3" class="st0" width="6.5" height="42.5"/>
	<rect x="386.6" y="-21.3" class="st0" width="6.5" height="42.5"/>
	<rect x="399.1" y="-21.3" class="st0" width="6.5" height="42.5"/>
	<rect x="411.6" y="-21.3" class="st0" width="6.5" height="42.5"/>
	<rect x="424.1" y="-21.3" class="st0" width="6.5" height="42.5"/>
	<rect x="436.6" y="-21.3" class="st0" width="6.5" height="42.5"/>
	<rect x="449.1" y="-21.3" class="st0" width="6.5" height="42.5"/>
	<rect x="461.6" y="-21.3" class="st0" width="6.5" height="42.5"/>
	<rect x="474.1" y="-21.3" class="st0" width="6.5" height="42.5"/>
	<rect x="486.6" y="-21.3" class="st0" width="6.5" height="42.5"/>
	<rect x="499.1" y="-21.3" class="st0" width="6.5" height="42.5"/>
</symbol>
<g id="BACKGROUND_2">
</g>
<g id="OBJECTS">
	<g>
		<g>
			<g>
				<g class="st1">
					<linearGradient id="SVGID_1_" gradientUnits="userSpaceOnUse" x1="713.8027" y1="141.5263" x2="872.876" y2="141.5263">
						<stop  offset="0" style="stop-color:#A68791"/>
						<stop  offset="0.5552" style="stop-color:#7F6570"/>
						<stop  offset="1" style="stop-color:#644E5A"/>
					</linearGradient>
					<path class="st2" d="M872.9,244l-3.1-41.6c-4-53.5-33.9-102.1-81.3-133.1c-21.6-14.1-46.7-24.6-74.7-30.2v0l0,0l3.1,41.6
						c55.9,11.2,100.6,41.8,127.7,82.2c4.1,6.1,7.7,12.3,11,18.8c3.2,6.5,6.1,13.1,8.5,19.9C868.8,215.2,871.8,229.4,872.9,244
						L872.9,244L872.9,244z"/>
					<linearGradient id="SVGID_2_" gradientUnits="userSpaceOnUse" x1="415.5089" y1="619.3849" x2="1440.3008" y2="-65.0436">
						<stop  offset="5.913980e-02" style="stop-color:#C4A7DB"/>
						<stop  offset="0.3763" style="stop-color:#A68791"/>
						<stop  offset="0.7226" style="stop-color:#7F6570"/>
						<stop  offset="1" style="stop-color:#644E5A"/>
					</linearGradient>
					<path class="st3" d="M918.3,257.8c0-2.7,0-5.3-0.1-8c0-0.7,0-1.3-0.1-2c-0.1-2.7-0.2-5.3-0.4-8l-3.1-41.6
						c0.2,2.6,0.3,5.3,0.4,8c0,0.7,0,1.3,0.1,2c0.1,2.7,0.1,5.3,0,8c0,0.1,0,0.1,0,0.2c0,2.6-0.2,5.3-0.3,7.9c0,0.7-0.1,1.3-0.1,2
						c-0.2,2.7-0.4,5.4-0.7,8.1c0,0.1,0,0.1,0,0.2c-0.3,2.6-0.6,5.3-1,8c-0.1,0.7-0.2,1.4-0.3,2.1c-0.4,2.7-0.9,5.4-1.4,8.2
						c0,0,0,0.1,0,0.1c-0.5,2.7-1.2,5.4-1.8,8.1c-0.2,0.7-0.3,1.4-0.5,2.1c-0.7,2.7-1.4,5.5-2.2,8.2c-0.7,2.4-1.5,4.9-2.3,7.3
						c-0.2,0.7-0.4,1.4-0.7,2.1c-0.9,2.8-1.9,5.5-3,8.2c-0.3,0.6-0.5,1.3-0.8,1.9c-0.8,2.1-1.7,4.1-2.6,6.1
						c-0.4,0.9-0.8,1.9-1.3,2.8c-0.8,1.7-1.6,3.4-2.4,5.1c-0.5,1-1,2-1.5,2.9c-0.8,1.7-1.7,3.3-2.6,5c-0.5,0.9-1,1.9-1.5,2.8
						c-1,1.8-2,3.6-3,5.3c-0.4,0.7-0.8,1.5-1.3,2.2c-1.5,2.5-3,4.9-4.6,7.3c-0.2,0.4-0.5,0.7-0.7,1.1c-1.4,2-2.7,4.1-4.2,6.1
						c-0.6,0.8-1.2,1.6-1.7,2.4c-1.1,1.6-2.3,3.1-3.4,4.6c-0.7,0.9-1.3,1.7-2,2.6c-1.1,1.5-2.3,2.9-3.5,4.3
						c-0.7,0.8-1.4,1.7-2.1,2.5c-1.3,1.5-2.6,3-3.9,4.4c-0.6,0.7-1.2,1.4-1.9,2.1c-1.8,2-3.7,4-5.6,6c-0.1,0.1-0.2,0.2-0.3,0.3
						c-2,2.1-4.1,4.1-6.2,6.1c-0.7,0.6-1.4,1.3-2,1.9c-1.3,1.2-2.7,2.5-4,3.7c-3.1,2.8-6.2,5.5-9.5,8.1c-0.6,0.5-1.2,1-1.9,1.5
						c-2.8,2.2-5.7,4.4-8.6,6.6c-0.8,0.6-1.5,1.1-2.3,1.7c-3.4,2.4-6.8,4.8-10.3,7.1c-0.7,0.4-1.4,0.9-2.1,1.3
						c-3,1.9-6.1,3.8-9.3,5.6c-0.9,0.5-1.8,1-2.7,1.5c-1.9,1.1-3.9,2.2-5.9,3.2c-1,0.6-2.1,1.1-3.1,1.7c-2.6,1.3-5.2,2.7-7.9,3.9
						c-0.5,0.2-0.9,0.5-1.3,0.7c-3.1,1.5-6.2,2.9-9.4,4.2c-0.9,0.4-1.9,0.8-2.9,1.2c-2.2,0.9-4.5,1.9-6.7,2.7
						c-1.4,0.6-2.9,1.1-4.3,1.6c-1.6,0.6-3.2,1.2-4.9,1.8c-1.5,0.5-3,1-4.4,1.5c-1.6,0.5-3.3,1.1-4.9,1.6c-1.5,0.5-3,0.9-4.5,1.3
						c-1.7,0.5-3.3,1-5,1.4c-1.5,0.4-3.1,0.8-4.6,1.2c-1.7,0.4-3.3,0.9-5,1.3c-1.7,0.4-3.5,0.8-5.2,1.2c-1.3,0.3-2.6,0.6-3.9,0.8
						c-1.9,0.4-3.8,0.7-5.6,1.1c-1.2,0.2-2.4,0.5-3.7,0.7c-2.1,0.4-4.2,0.7-6.3,1c-1,0.2-2.1,0.3-3.1,0.5c-3.1,0.4-6.3,0.8-9.5,1.1
						c-2.3,0.2-4.7,0.4-7,0.6c-2.2,0.2-4.3,0.3-6.5,0.4c-1.5,0.1-3.1,0.2-4.7,0.2c-2.2,0.1-4.4,0.1-6.6,0.2c-1.5,0-3,0-4.6,0
						c-2.3,0-4.6-0.1-6.9-0.1c-1.4,0-2.9-0.1-4.3-0.1c-2.6-0.1-5.3-0.3-7.9-0.5c-1.2-0.1-2.3-0.1-3.5-0.2c-0.7-0.1-1.3-0.1-2-0.2
						c-2.5-0.2-5.1-0.5-7.6-0.8c-1-0.1-2.1-0.3-3.1-0.4c-2.3-0.3-4.6-0.6-6.9-1c-1-0.1-1.9-0.3-2.9-0.5c-3.2-0.5-6.4-1.1-9.6-1.7
						L598,485c3.2,0.6,6.4,1.2,9.6,1.7c1,0.2,1.9,0.3,2.9,0.5c2.3,0.4,4.6,0.7,6.9,1c1,0.1,2.1,0.3,3.1,0.4c2.5,0.3,5.1,0.6,7.6,0.8
						c0.7,0.1,1.3,0.1,2,0.2c0.2,0,0.4,0,0.5,0.1c1,0.1,1.9,0.1,2.9,0.2c2.6,0.2,5.3,0.4,7.9,0.5c1.4,0.1,2.9,0.1,4.3,0.1
						c2.3,0.1,4.6,0.1,6.9,0.1c1.5,0,3,0,4.6,0c2.2,0,4.4-0.1,6.6-0.2c1.5-0.1,3.1-0.1,4.6-0.2c2.2-0.1,4.4-0.3,6.5-0.4
						c0.9-0.1,1.7-0.1,2.6-0.2c1.5-0.1,2.9-0.3,4.4-0.4c3.2-0.3,6.3-0.7,9.5-1.1c1-0.1,2.1-0.3,3.1-0.5c2.1-0.3,4.2-0.6,6.3-1
						c1.2-0.2,2.5-0.4,3.7-0.7c1.9-0.3,3.8-0.7,5.6-1.1c1.3-0.3,2.6-0.6,3.9-0.8c1.2-0.3,2.5-0.5,3.7-0.8c0.5-0.1,1-0.3,1.5-0.4
						c1.7-0.4,3.4-0.8,5-1.3c1.5-0.4,3.1-0.8,4.6-1.2c1.7-0.5,3.3-0.9,5-1.4c1.5-0.4,3-0.9,4.5-1.3c1.7-0.5,3.3-1.1,4.9-1.6
						c1.5-0.5,3-1,4.4-1.5c1.6-0.6,3.3-1.2,4.9-1.8c1.1-0.4,2.2-0.8,3.3-1.2c0.3-0.1,0.6-0.3,1-0.4c2.3-0.9,4.5-1.8,6.7-2.7
						c1-0.4,1.9-0.8,2.9-1.2c3.2-1.4,6.3-2.8,9.4-4.2c0.5-0.2,0.9-0.5,1.4-0.7c2.6-1.3,5.2-2.5,7.8-3.9c1.1-0.6,2.1-1.1,3.2-1.7
						c2-1.1,3.9-2.1,5.9-3.2c0.4-0.2,0.7-0.4,1.1-0.6c0.5-0.3,1-0.6,1.5-0.9c3.1-1.8,6.2-3.7,9.3-5.7c0.7-0.4,1.4-0.9,2.1-1.3
						c3.5-2.3,7-4.6,10.3-7.1c0.8-0.6,1.5-1.1,2.3-1.7c2.9-2.1,5.8-4.3,8.6-6.6c0.6-0.5,1.2-1,1.9-1.5c3.2-2.6,6.4-5.3,9.5-8.1
						c0.3-0.2,0.6-0.5,0.8-0.7c1.1-1,2.1-2,3.2-3c0.7-0.6,1.3-1.2,2-1.9c2.1-2,4.2-4,6.2-6.1c0.1-0.1,0.2-0.2,0.3-0.3
						c1.9-2,3.8-4,5.7-6c0.6-0.7,1.3-1.4,1.9-2.1c1.3-1.5,2.6-2.9,3.9-4.4c0.7-0.8,1.4-1.7,2.1-2.5c1.2-1.4,2.3-2.9,3.5-4.3
						c0.7-0.9,1.3-1.7,2-2.6c1.2-1.5,2.3-3.1,3.5-4.6c0.6-0.8,1.2-1.6,1.7-2.4c1.4-2,2.8-4.1,4.2-6.1c0.2-0.4,0.5-0.7,0.7-1
						c1.6-2.4,3.1-4.9,4.6-7.3c0.4-0.7,0.9-1.5,1.3-2.2c1-1.8,2.1-3.5,3-5.3c0.5-0.9,1-1.9,1.5-2.8c0.9-1.6,1.7-3.3,2.6-5
						c0.5-1,1-2,1.5-3c0.8-1.7,1.6-3.4,2.4-5.1c0.4-0.9,0.9-1.9,1.3-2.8c0.9-2,1.7-4.1,2.6-6.1c0.3-0.6,0.5-1.3,0.8-1.9
						c1.1-2.7,2.1-5.4,3-8.2c0.2-0.7,0.4-1.4,0.7-2c0.6-1.7,1.1-3.4,1.7-5.1c0.2-0.7,0.4-1.5,0.7-2.2c0.8-2.7,1.5-5.5,2.2-8.2
						c0.2-0.7,0.3-1.4,0.5-2.1c0.7-2.7,1.3-5.4,1.8-8.1c0,0,0-0.1,0-0.1c0.5-2.7,1-5.4,1.4-8.2c0.1-0.7,0.2-1.4,0.3-2.1
						c0.4-2.6,0.7-5.3,1-7.9c0-0.1,0-0.1,0-0.2c0.3-2.7,0.5-5.4,0.7-8.1c0-0.7,0.1-1.4,0.1-2c0-0.7,0.1-1.4,0.1-2.1
						c0.1-1.9,0.1-3.8,0.2-5.8C918.3,257.9,918.3,257.8,918.3,257.8z"/>
					<path class="st4" d="M725.3,0l-11.5,39.1c112,22.5,179,122.7,149.4,223.4c-23.5,79.8-100.8,136.3-187.6,145.1
						c-22.7,2.3-46,1.3-69.2-3.3l-11.5,39.1c28.2,5.7,56.5,6.8,84.1,4c105.4-10.7,199.2-79.3,227.7-176.2
						C942.7,149,861.3,27.3,725.3,0z"/>
				</g>
			</g>
		</g>
	</g>
</g>
</svg>
