<?xml version="1.0" standalone="no"?>
<!DOCTYPE svg PUBLIC "-//W3C//DTD SVG 20010904//EN"
 "http://www.w3.org/TR/2001/REC-SVG-20010904/DTD/svg10.dtd">
<svg version="1.0" xmlns="http://www.w3.org/2000/svg"
 width="900.000000pt" height="900.000000pt" viewBox="0 0 900.000000 900.000000"
 preserveAspectRatio="xMidYMid meet">
<metadata>
Created by potrace 1.11, written by Peter Selinger 2001-2013
</metadata>
<g transform="translate(0.000000,900.000000) scale(0.100000,-0.100000)"
fill="#000000" stroke="none">
<path d="M5 8833 c65 -485 207 -1021 378 -1434 257 -616 604 -1055 1025 -1294
94 -53 102 -59 108 -93 117 -676 381 -1250 738 -1607 113 -113 208 -187 341
-265 50 -29 99 -58 110 -65 16 -10 25 -35 39 -111 24 -131 77 -335 119 -459
229 -674 623 -1111 1174 -1305 l108 -38 6 -73 c15 -175 83 -449 160 -642 208
-522 536 -888 989 -1106 202 -97 407 -156 670 -193 124 -17 688 -17 860 0 578
59 966 276 1170 654 73 136 119 290 154 513 8 55 18 116 22 135 3 19 9 456 13
970 7 907 8 937 29 1015 46 175 128 328 229 427 114 112 245 168 442 189 l111
12 0 429 0 428 -49 0 c-77 0 -216 28 -299 60 -237 92 -412 355 -452 680 -6 52
-10 394 -10 886 0 819 -3 912 -41 1139 -66 396 -195 649 -425 833 -234 187
-491 280 -944 339 -113 15 -432 17 -3453 20 l-3328 3 6 -47z m6320 -813 c166
-15 342 -45 433 -76 202 -67 319 -198 373 -420 21 -87 22 -110 29 -984 5 -569
12 -931 19 -995 25 -213 83 -440 143 -560 79 -156 242 -343 385 -439 l72 -49
-72 -50 c-40 -28 -110 -89 -157 -136 -153 -154 -252 -332 -310 -555 -63 -246
-62 -236 -70 -1236 -6 -783 -10 -927 -24 -997 -65 -332 -211 -461 -586 -518
-146 -23 -424 -20 -555 6 -478 92 -782 406 -901 929 -13 58 -24 115 -24 128
l0 22 496 0 497 0 -7 79 c-11 140 -59 292 -127 409 -19 31 -70 93 -115 138
-69 71 -95 89 -185 132 -166 80 -187 83 -564 92 -250 6 -348 12 -405 25 -419
94 -715 354 -921 808 -34 75 -109 276 -109 293 0 2 532 4 1181 4 l1182 0 -6
88 c-18 279 -212 577 -452 696 -135 67 -108 66 -1059 66 -729 0 -874 2 -964
16 -498 74 -859 416 -1066 1013 l-35 101 1736 0 1736 0 -6 83 c-22 301 -193
567 -442 687 -168 80 -30 74 -1695 80 -1473 6 -1486 6 -1572 27 -421 104 -674
382 -863 949 -25 73 -45 138 -45 144 0 14 4887 14 5055 0z"/>
</g>
</svg>
