<svg height="26" viewBox="0 0 156 26" width="156" xmlns="http://www.w3.org/2000/svg"><g fill="none" fill-rule="evenodd" transform="translate(.404145 .303109)"><path d="m22.6304098 12.7581574c-.607288-.3628077-1.08648-.9035751-1.371668-1.5479252-.2709045-.6266628-.4057851-1.4695924-.4046421-2.52878878v-3.78552016c.010291-.39712137-.0382358-.79358909-.1440251-1.17669566-.0805177-.2847761-.2389903-.54178982-.4577942-.74245919-.2419558-.19671807-.5306009-.32862419-.8384321-.38314982-.0651542-.01532599-.132023-.02894909-.202321-.04086931-.4813287-.0874327-.9698053-.13018924-1.4591118-.1277166l-2.0917937-.0001014c.4899325-.00191528.9789885.04141183 1.4608264.12952089.070298.01192021.1371668.02554332.202321.04086931.3074359.05414299.5956198.18610818.8367175.38314982.2198549.20011026.3790127.45727235.4595088.74245919.1049471.38327072.1534588.77961532.1440251 1.17669565v3.82809237c0 1.04216749.0188604 1.97194439.2897649 2.60712159.2615254.608834.7144642 1.117229 1.2910825 1.4491578-.5776336.3392307-1.0302373.8538162-1.2910825 1.4678895-.2709045.6351772-.2897649 1.5462223-.2897649 2.586687v3.8263894c.0094068.3976397-.0391031.7945423-.1440251 1.1783986-.0808704.2845368-.2399943.5410543-.4595088.7407563-.2413683.1969396-.5293708.3294078-.8367175.3848527l-.202321.0408693c-.4819524.0872725-.9709303.1305927-1.4608264.1294427l2.0917937-.0000232c.4898961.0011732.978874-.042147 1.4608264-.1294195l.202321-.0408693c.3077443-.0558168.5962118-.1882276.8384321-.3848527.2183968-.2003156.3768232-.4566651.4577942-.7407563.1057854-.3836883.1543106-.7807169.1440251-1.1783986v-3.7855201c0-1.0574935.1337376-1.902126.4046421-2.5270859.285848-.6443739.7648396-1.1855098 1.371668-1.5496282l-.0325772-.0204346z" fill="#0fce7c"/><path d="m24.3895781 10.7301263c-.3814351-.5117625-.5808646-1.13564396-.5667628-1.77302118v-3.86253181c.0097732-.73739534-.0699009-1.47326548-.2372893-2.19160395-.1355578-.59863282-.4263474-1.15132826-.8433157-1.60286562-.4664605-.46551186-1.0475315-.8005784-1.6849243-.9715884-.4267705-.12352169-.8638603-.2083769-1.3059444-.25353182-.4853304-.05191014-.9731795-.07690481-1.461292-.07486846l-18.2900496-.00011506s.64699728 6.44901178 4.38729024 8.19650965c.32264508 1.90404105 1.19498177 4.64865065 3.5320247 5.74104945.34142337 2.0588826 1.34008671 4.7456393 4.13463696 5.5215488-.0027179.0334091-.0027179.0669827 0 .1003918 0 0 .3414234 5.8006039 6.3163322 5.8006039.5121351 0 .9747637-.0187171 1.3861789-.0510466.4143532-.027372.8249458-.0957712 1.2257099-.2041868.6514475-.1618635 1.24927-.4902986 1.7344307-.9528712.4290199-.4413002.7294028-.9906986.8689224-1.5892532.1694427-.724913.2491328-1.4677891.2372893-2.2120226v-3.8829505c-.0116582-.6286425.1878321-1.2431315.5667628-1.7457963.3778418-.5002574.9707804-.749819 1.7788157-.7486846v-2.4944809c-.8091734 0-1.402112-.2495615-1.7788157-.7486846zm-3.1359737 3.5307284c-.2720006.6307101-.4080009 1.4627709-.4080009 2.4961825v3.7808571c0 .9267808-.2020088 1.5506846-.6060264 1.8717115-.1471779.113518-.3121385.2020536-.4882355.2620396-.3277353.110878-.6686583.1783828-1.0140273.2007836-.3414234 0-3.4688614.4015671-3.9792894-3.195522h2.9020986c-.1160839-2.3141159-1.9648914-2.4485388-2.2004735-2.4570466h-1.0652409c-2.3131433 0-3.3510704-1.7253777-3.8188204-3.2840028h6.8848022c0-1.3612447-1.0891406-2.5148996-2.1321889-2.4570467h-4.5170312c-2.2772938-.0238218-3.30497813-1.73558697-3.7693139-3.28230125h10.0907675c0-1.36124469-.9372071-2.45704667-2.2994863-2.45704667h-7.67007591c-2.3131433 0-3.01988966-1.72537764-3.48593255-3.2840681l14.03932876.00006529c.4928876-.00198513.9849102.04130396 1.4698276.12931824.0699918.0119109.1382764.02552334.2031469.04083735.1208936.02605884.2396024.06132791.3550803.10549646.1780577.06106794.3434929.15389419.4882354.27395049.2196392.19719269.3793368.45187652.4609215.73507213.1066458.38025085.1555565.77427721.145105 1.16896888v3.7587369c0 1.05156152.1360003 1.88759268.4080009 2.50809338.2923998.6403036.7758794 1.1750931 1.3844717 1.5314002-.6101549.3624037-1.0917272.905456-1.3776433 1.5535205z" fill="#15003e"/><g fill-rule="nonzero"><path d="m45.2642487 6.99462286v2.52156223c-1.228756-1.02951021-2.4999805-1.54426532-3.8136735-1.54426532-1.3871542-.0260488-2.7192875.54333274-3.6607869 1.56469662-.9878511 1.01513071-1.5266111 2.38595981-1.4948921 3.80362591-.031021 1.4004441.5087987 2.7530652 1.4948921 3.7457373.9554079 1.0026961 2.2861812 1.5584472 3.6692806 1.5323471.6543223.0182654 1.3047521-.106655 1.9059874-.3660607.3172687-.1365924.6214672-.3018604.9088264-.4937563.3441467-.2311371.6748097-.4818305.990366-.7508501v2.5709379c-1.1648072.6739666-2.4856919 1.0297441-3.8306609 1.0317804-1.9343762.0328928-3.7977015-.7301328-5.155679-2.1112338-1.3867031-1.345527-2.1564756-3.2059368-2.1268237-5.1401731-.0117828-1.7672614.6213734-3.47788928 1.7802806-4.80986717 1.4597847-1.72417422 3.3482185-2.58682886 5.6653012-2.58796393 1.2930708.00722626 2.5601997.36428881 3.6675818 1.03348296z" fill="#15003e"/><path d="m49.1036269 13.2273578c0-1.9885352.7282468-3.69656307 2.1847402-5.12408372 1.3775068-1.39793373 3.2658419-2.1714986 5.2270419-2.14128098 4.0433428.02326246 7.3153816 3.2990978 7.3386172 7.3471319.0313375 1.9537656-.7604634 3.8304457-2.1813372 5.1700778-1.3969865 1.3968362-3.3006048 2.1659296-5.2746842 2.1310601-1.8217512 0-3.4580376-.6308574-4.9088594-1.8925721-1.5903456-1.396858-2.3855185-3.226969-2.3855185-5.490333zm2.147307.0272557c0 1.5615282.5240654 2.8453882 1.5721962 3.8515802s2.2516663 1.5098558 3.6106064 1.5109914c1.4060076.0300283 2.7614771-.5251253 3.7433243-1.5331367 2.0274076-2.1143375 2.0356516-5.4510459.0187166-7.57539898-2.054225-2.04856965-5.3762736-2.04856965-7.4304987 0-.9996502.98722678-1.547633 2.34397898-1.5143448 3.74937108z" fill="#15003e"/><path d="m68.4015544 20.4093264v-14.1450777h2.96562c1.4181921 0 2.538802.14043307 3.3618295.4212992.8947465.28151841 1.7152106.76061313 2.4010639 1.40205642 1.4556025 1.33269272 2.1834037 3.08270478 2.1834037 5.25003608s-.7578429 3.9258717-2.2735286 5.275621c-.6909096.6310392-1.5067578 1.1087919-2.394262 1.4020565-.7788154.2626723-1.8835541.3940085-3.3142164.3940085zm2.1272882-2.0058617h.9590652c.8041621.0198011 1.6067125-.0819741 2.3806582-.3019027.6373019-.2174299 1.2222895-.5660088 1.7174749-1.0233988 1.0474896-.9585836 1.5712344-2.2094044 1.5712344-3.7524625 0-1.543058-.5175097-2.80127-1.5525292-3.77463603-.9318577-.86079214-2.3052708-1.29175677-4.1202393-1.29289388h-.9590652z" fill="#15003e"/><path d="m91.7409326 8.27011044h-5.6529307v3.39938986h5.4880182v2.0058617h-5.4880182v4.7281027h5.6529307v2.0058617h-7.7797927v-14.1450777h7.7797927z" fill="#15003e"/><path d="m97.1968912 20.8134715h2.8296388v-6.7453129h4.77373v-2.6926579h-4.77373v-2.72170296h4.950154v-2.69265784h-7.7797928z" fill="#0fce7c"/><path d="m117.420696 14.8083165c0 1.1518343-.169835 1.9787051-.528186 2.4584943-.526488.7247879-1.255079 1.0769736-2.224836 1.0769736s-1.698348-.3521857-2.207852-1.0718695c-.353257-.5002057-.531583-1.3287779-.531583-2.4635984v-8.8471766h-2.809068v9.4239445c0 1.5703738.497616 2.8923462 1.480959 3.9131742 1.072857 1.0982698 2.542112 1.7172854 4.076036 1.7172854s3.003178-.6190156 4.076035-1.7172854c.981645-1.020828 1.48096-2.3393976 1.48096-3.9131742v-9.4154376h-2.812465z" fill="#0fce7c"/><path d="m135.702732 15.2448896-10.316722-10.79929375v16.31073975h2.817994v-9.4030834l10.316721 10.7736908v-16.20832826h-2.817993z" fill="#0fce7c"/><path d="m152.99895 7.87641238c-.724149-.67312063-1.588659-1.17674768-2.531027-1.47446936-.853347-.29216021-2.029259-.44080312-3.483362-.44080312h-3.310986v14.8523316h3.275145c1.46605 0 2.621482-.1383917 3.428748-.4100494.935706-.3092479 1.796205-.8115541 2.525907-1.4744694 1.590638-1.4061278 2.389371-3.2718526 2.389371-5.5407927s-.766305-4.11587106-2.293796-5.51174762zm-.534195 5.51174762c0 1.4539669-.479581 2.5986882-1.46605 3.4990883-.460797.4226064-1.004168.744909-1.595759.9465308-.744944.2092185-1.516909.3059624-2.290383.2870346h-.621237v-9.46701596h.621237c1.723761 0 3.037915.4049238 3.901502 1.19597746.976229.9140685 1.45069 2.069041 1.45069 3.5383848z" fill="#0fce7c"/></g></g></svg>