<?xml version="1.0" encoding="UTF-8"?>
<svg width="1544px" height="256px" viewBox="0 0 1544 256" version="1.1" xmlns="http://www.w3.org/2000/svg" xmlns:xlink="http://www.w3.org/1999/xlink">
    <!-- Generator: Sketch 59.1 (86144) - https://sketch.com -->
    <g id="codefund-wg-full-256" stroke="none" stroke-width="1" fill="none" fill-rule="evenodd">
        <g id="Group-2">
            <g id="Group">
                <path d="M226.246358,128.18649 C220.241555,124.574443 215.503354,119.190662 212.683444,112.775629 C210.004768,106.536689 208.671082,98.1446358 208.682384,87.5994702 L208.682384,49.9115232 C208.784141,45.9578554 208.304312,42.0106953 207.258278,38.1965563 C206.462127,35.3613774 204.895167,32.8025958 202.731656,30.8047682 C200.339221,28.846279 197.485128,27.5330459 194.441325,26.9901987 C193.797086,26.8376159 193.135894,26.7019868 192.440795,26.5833113 C187.681466,25.7128473 182.851459,25.287171 178.013245,25.3101732 L157.329801,25.3101732 C162.174204,25.2917104 167.00994,25.7230672 171.774305,26.6002649 C172.469404,26.7189404 173.130596,26.8545695 173.774834,27.0071523 C176.81473,27.54619 179.664262,28.8600113 182.048212,30.8217219 C184.222115,32.8139831 185.795852,35.3742419 186.591788,38.2135099 C187.629494,42.0292832 188.109174,45.9752175 188.015894,49.9284768 L188.015894,88.0402649 C188.015894,98.415894 188.202384,107.672583 190.88106,113.996291 C193.466996,120.057731 197.945609,125.119218 203.647152,128.423841 C197.93557,131.80116 193.460271,136.924279 190.88106,143.037881 C188.202384,149.361589 188.015894,158.431788 188.015894,168.790464 L188.015894,206.885298 C188.108908,210.844126 187.629247,214.795615 186.591788,218.617219 C185.79215,221.450015 184.218749,224.003856 182.048212,225.992053 C179.661586,227.952747 176.813848,229.271577 173.774834,229.823576 L171.774305,230.230464 C167.008808,231.099333 162.173844,231.530621 157.329801,231.519393 L178.013245,231.519393 C182.857288,231.530621 187.692252,231.099333 192.457748,230.230464 L194.458278,229.823576 C197.501223,229.267874 200.35356,227.949616 202.748609,225.992053 C204.908095,223.997748 206.474599,221.445578 207.275232,218.617219 C208.321227,214.797288 208.80104,210.844544 208.699338,206.885298 L208.699338,169.197351 C208.699338,158.669139 210.021722,150.260132 212.700397,144.038146 C215.526834,137.622877 220.263054,132.235427 226.263311,128.610331 L225.941192,128.406887 L226.246358,128.18649 Z" id="Shape" fill="#0FCE7C"></path>
                <path d="M242.589669,108.588079 C238.801578,103.489076 236.821012,97.2729634 236.96106,90.9223841 L236.96106,52.4376159 C237.058119,45.0904949 236.266863,37.7585703 234.604503,30.6013245 C233.258258,24.6367793 230.370381,19.1299364 226.229404,14.6309934 C221.596912,9.99281381 215.826206,6.65434084 209.496159,4.95046358 C205.257834,3.71974136 200.917028,2.87427702 196.526623,2.42437086 C191.70673,1.90715839 186.861826,1.65812123 182.014305,1.67726418 L0.372980132,1.67726418 C0.372980132,1.67726418 6.7984106,65.9327152 43.9438411,83.344106 C47.1480795,102.315232 55.8113907,129.661457 79.0209272,140.545695 C82.4116556,161.059603 92.3295364,187.829404 120.082649,195.560265 C120.055657,195.89314 120.055657,196.227654 120.082649,196.56053 C120.082649,196.56053 123.473377,254.355497 182.811126,254.355497 C187.897219,254.355497 192.491656,254.169007 196.577483,253.846887 C200.69249,253.574164 204.770148,252.892661 208.750199,251.81245 C215.219825,250.199704 221.156893,246.927305 225.975099,242.318411 C230.235763,237.921467 233.218912,232.447475 234.604503,226.483709 C236.287264,219.260957 237.07868,211.859228 236.96106,204.443974 L236.96106,165.755762 C236.84528,159.492212 238.82645,153.369682 242.589669,148.361325 C246.342075,143.376954 252.23064,140.890419 260.255364,140.901722 L260.255364,116.047682 C252.219338,116.047682 246.330773,113.561148 242.589669,108.588079 Z M211.445828,143.766887 C208.744547,150.06234 207.393907,158.352671 207.393907,168.637881 L207.393907,206.308874 C207.393907,215.55426 205.387726,221.770596 201.375364,224.957881 C199.913719,226.088931 198.275469,226.971065 196.526623,227.568742 C193.271832,228.673487 189.886072,229.346079 186.456159,229.569272 C183.06543,229.569272 152.006358,233.570331 146.937219,197.730331 L175.758411,197.730331 C174.605563,174.673377 156.244768,173.33404 153.905166,173.249272 L143.326093,173.249272 C120.353907,173.249272 110.046093,156.058278 105.400795,140.528742 L173.774834,140.528742 C173.774834,126.965828 162.958411,115.471258 152.599735,116.047682 L107.740397,116.047682 C85.1242384,115.810331 74.9181457,98.7549669 70.306755,83.344106 L170.519735,83.344106 C170.519735,69.7811921 161.212185,58.8630464 147.683179,58.8630464 L71.5104636,58.8630464 C48.5382781,58.8630464 41.5194702,41.672053 36.8911258,26.1418661 L176.317881,26.1418661 C181.212824,26.1227375 186.099177,26.5540532 190.914967,27.4309934 C191.610066,27.5496689 192.288212,27.685298 192.93245,27.8378808 C194.133064,28.097521 195.311979,28.4489283 196.458808,28.8890066 C198.227127,29.4974639 199.87009,30.4223487 201.30755,31.618543 C203.48882,33.5832944 205.074802,36.1208653 205.885033,38.9425166 C206.944148,42.7311885 207.429889,46.6571142 207.326093,50.5896689 L207.326093,88.0402649 C207.326093,98.5176159 208.676733,106.847506 211.378013,113.029934 C214.281881,119.409671 219.083392,124.738105 225.127417,128.288212 C219.067874,131.899061 214.285305,137.309824 211.445828,143.766887 L211.445828,143.766887 Z" id="Shape" fill="#FFFFFF"></path>
            </g>
            <path d="M450.966887,71.4087417 L450.966887,96.5170861 C438.703753,86.2657837 426.016777,81.1401325 412.90596,81.1401325 C399.061992,80.8807526 385.76714,86.5503441 376.370861,96.7205298 C366.511986,106.828649 361.135095,120.478619 361.451656,134.594967 C361.142062,148.539827 366.529528,162.008491 376.370861,171.89298 C385.905948,181.877282 399.187228,187.411149 412.990728,187.151258 C419.520945,187.333136 426.012314,186.089246 432.012715,183.506225 C435.179096,182.146112 438.215034,180.500464 441.082914,178.589669 C444.51754,176.288132 447.817597,173.791863 450.966887,171.113113 L450.966887,196.713113 C439.34197,203.424105 426.159379,206.966743 412.736424,206.98702 C393.431113,207.314549 374.8349,199.716755 361.282119,185.964503 C347.442652,172.566477 339.760229,154.041529 340.056159,134.781457 C339.938565,117.18403 346.257542,100.150528 357.823576,86.8874172 C372.392406,69.7077263 391.239205,61.1178808 414.363974,61.1178808 C427.268978,61.189836 439.915079,64.7452705 450.966887,71.4087417 L450.966887,71.4087417 Z" id="Shape" fill="#FFFFFF" fill-rule="nonzero"></path>
            <path d="M488.485298,133.509934 C488.485298,113.719382 495.741457,96.7205298 510.253775,82.5133775 C523.979079,68.600684 542.794213,60.9019134 562.335364,61.202649 C602.622724,61.4341647 635.224908,94.0363491 635.456424,134.323709 C635.768667,153.768223 627.879263,172.445556 613.721854,185.778013 C599.802456,199.679784 580.835043,207.334053 561.165563,206.98702 C543.013863,206.98702 526.71011,200.708521 512.254305,188.151523 C496.4083,174.249536 488.485298,156.035673 488.485298,133.509934 Z M509.880795,133.781192 C509.880795,149.322031 515.102517,162.099426 525.54596,172.113377 C535.989404,182.127329 547.98128,187.139956 561.521589,187.151258 C575.530873,187.450109 589.036601,181.925039 598.819603,171.89298 C619.020437,150.850402 619.10258,117.642389 599.006093,96.5001325 C578.538052,76.1120974 545.437577,76.1120974 524.969536,96.5001325 C515.009147,106.325336 509.549116,119.828178 509.880795,133.815099 L509.880795,133.781192 Z" id="Shape" fill="#FFFFFF" fill-rule="nonzero"></path>
            <path d="M680.790464,204.443974 L680.790464,63.8474172 L710.357616,63.8474172 C724.496954,63.8474172 735.669404,65.2432671 743.874967,68.0349669 C752.795565,70.8331501 760.975571,75.5951648 767.81351,81.9708609 C782.325828,95.2173068 789.581987,112.611744 789.581987,134.154172 C789.581987,155.6966 782.026313,173.175806 766.914967,186.591788 C760.026616,192.864071 751.892632,197.612747 743.044238,200.527682 C735.27947,203.138543 724.265254,204.443974 710.001589,204.443974 L680.790464,204.443974 Z M701.99947,184.50649 L711.561325,184.50649 C719.578799,184.703306 727.580205,183.691699 735.296424,181.505695 C741.650306,179.344527 747.482617,175.879788 752.419603,171.33351 C762.863046,161.805563 768.084768,149.372892 768.084768,134.035497 C768.084768,118.698102 762.92521,106.191965 752.606093,96.5170861 C743.315497,87.9498455 729.622605,83.6662252 711.527417,83.6662252 L701.965563,83.6662252 L701.99947,184.50649 Z" id="Shape" fill="#FFFFFF" fill-rule="nonzero"></path>
            <polygon id="Shape" fill="#FFFFFF" fill-rule="nonzero" points="912.428079 83.7849007 856.057219 83.7849007 856.057219 117.57351 910.783576 117.57351 910.783576 137.510993 856.057219 137.510993 856.057219 184.50649 912.428079 184.50649 912.428079 204.443974 834.848212 204.443974 834.848212 63.8474172 912.428079 63.8474172"></polygon>
            <polygon id="Shape" fill="#0FCE7C" fill-rule="nonzero" points="967.408742 207.834702 995.416159 207.834702 995.416159 140.901722 1042.66596 140.901722 1042.66596 114.182781 995.416159 114.182781 995.416159 87.1756291 1044.41219 87.1756291 1044.41219 60.4566887 967.408742 60.4566887"></polygon>
            <path d="M1168.81801,148.530861 C1168.81801,160.008477 1167.12265,168.247947 1163.54543,173.028874 C1158.2898,180.251126 1151.01669,183.76053 1141.33616,183.76053 C1131.65563,183.76053 1124.38252,180.251126 1119.29642,173.079735 C1115.77007,168.095364 1113.98993,159.83894 1113.98993,148.530861 L1113.98993,60.4566887 L1085.94861,60.4566887 L1085.94861,154.362914 C1085.94861,170.011126 1090.91603,183.184106 1100.73219,193.356291 C1111.4419,204.300155 1126.10864,210.468424 1141.42093,210.468424 C1156.73322,210.468424 1171.39995,204.300155 1182.10967,193.356291 C1191.90887,183.184106 1196.89325,170.045033 1196.89325,154.362914 L1196.89325,60.4566887 L1168.81801,60.4566887 L1168.81801,148.530861 Z" id="Shape" fill="#0FCE7C" fill-rule="nonzero"></path>
            <polygon id="Shape" fill="#0FCE7C" fill-rule="nonzero" points="1349.98464 153.091391 1247.44901 45.8256954 1247.44901 207.834702 1275.45642 207.834702 1275.45642 114.437086 1377.99205 221.448477 1377.99205 60.4566887 1349.98464 60.4566887"></polygon>
            <path d="M1521.26728,79.4617219 C1514.07387,72.7824216 1505.48616,67.7849871 1496.12503,64.8307285 C1487.64821,61.9316556 1475.96715,60.4566887 1461.52265,60.4566887 L1428.63258,60.4566887 L1428.63258,207.834702 L1461.16662,207.834702 C1475.7298,207.834702 1487.20742,206.461457 1495.22649,203.765828 C1504.52143,200.697196 1513.0693,195.712868 1520.31788,189.134834 C1536.11868,175.181987 1544.05298,156.668609 1544.05298,134.154172 C1544.05298,111.639735 1536.44079,93.3128477 1521.26728,79.4617219 Z M1515.96079,134.154172 C1515.96079,148.581722 1511.19682,159.940662 1501.39762,168.875232 C1496.82024,173.068707 1491.4226,176.266879 1485.54596,178.26755 C1478.14597,180.343602 1470.47757,181.303581 1462.79417,181.115762 L1456.62305,181.115762 L1456.62305,87.1756291 L1462.79417,87.1756291 C1479.91735,87.1756291 1492.97166,91.1936424 1501.5502,99.0431788 C1511.24768,108.113377 1515.96079,119.57404 1515.96079,134.154172 L1515.96079,134.154172 Z" id="Shape" fill="#0FCE7C" fill-rule="nonzero"></path>
        </g>
    </g>
</svg>