<svg height="512" viewBox="0 0 512 512" width="512" xmlns="http://www.w3.org/2000/svg"><g fill="none" fill-rule="evenodd" transform="translate(0 8)"><path d="m443.677922 248.378701c-11.775651-7.083365-21.067448-17.64117-26.597403-30.221298-5.252987-12.234806-7.868398-28.691948-7.846233-49.371429v-73.9075324c.199548-7.7532966-.741414-15.4938314-2.792728-22.9735065-1.561283-5.5598963-4.634153-10.5777667-8.876883-14.4955845-4.691657-3.8406735-10.288645-6.4159749-16.257662-7.4805194-1.263377-.2992208-2.56-.5651948-3.923117-.7979221-9.333229-1.7070138-18.805061-2.5417816-28.292987-2.4935065l-40.561039-.0019796c9.500063-.0373935 18.98313.8085139 28.326234 2.5287328 1.363117.2327273 2.65974.4987013 3.923117.7979221 5.961353 1.0570739 11.549397 3.6335287 16.224415 7.4805195 4.263108 3.906902 7.349268 8.9276692 8.91013 14.4955844 2.034983 7.4828801 2.975653 15.221011 2.792728 22.9735065v74.7387017c0 20.347013.365714 38.49974 5.618701 50.900779 5.071122 11.88672 13.853857 21.812493 25.034805 28.292987-11.200635 6.623055-19.976872 16.66969-25.034805 28.658701-5.252987 12.401039-5.618701 30.188052-5.618701 50.501818v74.705455c.182403 7.763416-.75823 15.51244-2.792728 23.006753-1.568121 5.555225-4.653622 10.563407-8.91013 14.462338-4.680265 3.844998-10.264792 6.431275-16.224415 7.513766l-3.923117.797922c-9.345324 1.703887-18.826877 2.549659-28.326234 2.527206l40.561039-.000453c9.499357.022906 18.98091-.822866 28.326234-2.526753l3.923117-.797922c5.967333-1.089753 11.560877-3.674908 16.257662-7.513766 4.234836-3.910911 7.306811-8.915814 8.876883-14.462338 2.051238-7.491032 2.99217-15.242517 2.792727-23.006753v-73.907533c0-20.646233 2.593247-37.136623 7.846234-49.338181 5.542753-12.580592 14.830664-23.145591 26.597403-30.254546l-.631688-.398961z" fill="#0fce7c"/><path d="m475.727792 209.945455c-7.428594-9.999345-11.31256-22.189384-11.037922-34.643117v-75.4701302c.190338-14.4079906-1.361346-28.7861803-4.621299-42.8218182-2.640039-11.6967055-8.303279-22.495839-16.423896-31.3184415-9.084498-9.0956509-20.401076-15.6425265-32.814545-18.98389615-8.31152-2.41349421-16.824011-4.07148273-25.433766-4.95376624-9.451997-1.01427381-18.953044-1.50264538-28.459221-1.46285714l-356.20571443-.00224817s12.60051953 126.0074426 85.44415583 160.1518586c6.2836364 37.203117 23.2727276 90.83013 68.7875326 112.174545 6.649351 40.228572 26.098701 92.725195 80.523636 107.885715-.052932.652781-.052932 1.308777 0 1.961558 0 0 6.649351 113.338182 123.012987 113.338182 9.974026 0 18.983896-.365714 26.996364-.997403 8.069688-.534821 16.066135-1.871275 23.871169-3.98961 12.687189-3.162658 24.330011-9.579961 33.778701-18.618182 8.355327-8.622578 14.2054-19.35729 16.922597-31.052467 3.29996-14.164098 4.851957-28.679178 4.621299-43.22078v-75.869091c-.227047-12.283064 3.658103-24.289585 11.037922-34.111168 7.358615-9.774546 18.906321-14.650736 34.643117-14.628572v-48.73974c-15.758961 0-27.306667-4.876191-34.643117-14.628571zm-61.074286 68.987013c-5.297316 12.345627-7.945974 28.60329-7.945974 48.772987v73.874285c0 18.130563-3.934199 30.321039-11.802597 36.571429-2.866344 2.218033-6.079015 3.947932-9.508571 5.12-6.382771 2.166449-13.022378 3.485428-19.748572 3.923117-6.64935 0-67.557402 7.846233-77.498182-62.437403h56.519481c-2.260779-45.215584-38.267013-47.842078-42.855065-48.008312h-20.745974c-45.049351 0-65.263377-33.712207-74.372987-64.166233h134.084156c0-26.597403-21.211429-49.138702-41.525195-48.008312h-87.970909c-44.351169-.465455-64.365714-33.911688-73.408831-64.132987h196.521558c0-26.597403-18.252467-48.008312-44.783376-48.008312h-149.377663c-45.0493505 0-58.8135063-33.7122075-67.8898699-64.1675091l273.4212989.0012756c9.599174-.0387875 19.181502.8070394 28.625454 2.5267533 1.363117.2327272 2.692987.4987013 3.956364.797922 2.35445.5091646 4.666348 1.198288 6.915325 2.0612987 3.467742 1.1932084 6.689656 3.0069435 9.508571 5.3527273 4.277557 3.852954 7.387729 8.8292295 8.976623 14.3625974 2.076967 7.4297332 3.029523 15.1286266 2.825974 22.8405195v73.4420783c0 20.546493 2.648658 36.881731 7.945974 49.005714 5.694598 12.510913 15.110549 22.960181 26.963117 29.922078-11.883 7.081016-21.261804 17.691733-26.83013 30.354286z" fill="#fff"/></g></svg>