<svg height="26" viewBox="0 0 156 26" width="156" xmlns="http://www.w3.org/2000/svg"><g fill="none" fill-rule="evenodd"><path d="m22.8590879 12.9514847c-.6067028-.3649477-1.085433-.9089049-1.3703462-1.5570558-.2706434-.6303593-.4053941-1.47826104-.4042521-2.54370523v-3.80784957c.0102811-.39946384-.038199-.79827017-.1438864-1.18363655-.0804401-.2864559-.2387599-.54498564-.457353-.74683869-.2417227-.19787844-.5300896-.33056262-.8376241-.38540987-.0650915-.0154164-.1318959-.02911986-.2021261-.04111039-.4808648-.08794844-.9688707-.13095718-1.4577058-.12846996l-2.089778-.00010199c.4894604-.00192658.9780451.04165609 1.4594187.13028488.0702303.01199053.1370346.02569399.2021261.04111039.3071397.05446235.5950458.18720596.8359112.38540987.219643.20129065.3786475.45996964.459066.7468387.104846.38553149.153311.78421398.1438863 1.18363655v3.85067289c0 1.04831486.0188423 1.98357617.2894857 2.62250007.2612734.6124253.7137757 1.1238191 1.2898384 1.4577058-.577077.3412318-1.0292446.8588525-1.2898384 1.4765481-.2706434.6389239-.2894857 1.5553429-.2894857 2.6019449v3.8489599c.0093978.3999852-.0390653.799229-.1438863 1.1853495-.0807925.2862152-.239763.5442458-.459066.7451258-.2411358.1981012-.5288606.3313509-.8359112.3871228l-.2021261.0411103c-.4814879.0877874-.9699947.1313631-1.4594187.1302063l2.089778-.0000234c.489424.0011802.9779308-.0423955 1.4594187-.1301829l.2021261-.0411103c.3074478-.0561461.5956373-.1893379.8376241-.3871228.2181864-.2014972.3764601-.4593589.4573531-.7451258.1056834-.3859515.1541619-.785322.1438863-1.1853495v-3.8078496c0-1.0637312.1336088-1.9133459.4042522-2.5419922.2855726-.6481748.7641026-1.1925026 1.3703462-1.5587688l-.0325457-.0205552z" fill="#0fce7c"/><path d="m24.5103551 10.9713345c-.3827345-.5151844-.5828435-1.14323716-.5686936-1.784876v-3.88835741c.0098065-.7423257-.070139-1.48311601-.2380977-2.20625742-.1360196-.6026354-.4278-1.15902626-.8461888-1.61358268-.4680497-.46862436-1.0511003-.80593122-1.6906646-.97808462-.4282245-.12434758-.8668035-.20977014-1.3103936-.25522698-.486984-.05225722-.9764951-.07741901-1.4662705-.07536904l-18.35236178-.00011583s.64920153 6.49213106 4.40223725 8.25131303c.32374429 1.91677175 1.19905294 4.67973235 3.54405792 5.77943515.34258655 2.0726487 1.34465223 4.7773696 4.14872321 5.5584669-.0027272.0336325-.0027272.0674306 0 .101063 0 0 .3425865 5.8393879 6.3378513 5.8393879.5138798 0 .9780846-.0188423 1.3909014-.051388.4157649-.0275549.8277563-.0964115 1.2298857-.2055519.6536669-.1629459 1.2535261-.4935769 1.7403397-.9592424.4304816-.4442508.7318879-.9973225.8718828-1.5998792.1700199-.7297599.2499816-1.477603.2380977-2.2268126v-3.9089126c-.0116979-.6328457.1884721-1.2514433.5686936-1.757469.3791292-.5036023.9740878-.7548324 1.784876-.7536905v-2.5111594c-.8119301 0-1.4068888-.2512302-1.784876-.7536904zm-3.1466575 3.5543355c-.2729273.636069-.4093909 1.4736931-.4093909 2.5128724v3.8061366c0 .9341193-.2026971 1.5621947-.6080911 1.8842261-.1476793.114277-.3132019.2034046-.4898988.2637916-.3288519.1116194-.6709364.1795756-1.0174821.2021261-.3425865 0-3.4806794.4042521-3.9928463-3.2168878h2.9119857c-.1164794-2.3295886-1.9715856-2.4649103-2.2079703-2.4734749h-1.0688701c-2.3210239 0-3.362487-1.7369139-3.8318306-3.3059603h6.9082579c0-1.3703462-1.0928511-2.5317146-2.139453-2.4734749h-4.5324202c-2.28505231-.0239811-3.31623785-1.74719146-3.78215556-3.30424735h10.12514566c0-1.37034623-.9404001-2.47347494-2.3073205-2.47347494h-7.69620694c-2.32102391 0-3.03017808-1.73691384-3.49780873-3.30602599l14.08715917.00006573c.4945668-.00199841.9882657.04158012 1.4748351.13018289.0702303.01199053.1387476.02569399.203839.04111038.1213056.02623308.2404187.06173796.3562901.10620184.1786643.06147625.3446631.15492316.4898987.27578217.2203875.19851115.3806292.45489785.4624919.73998697.107009.38279327.1560864.77945416.1455993 1.17678481v3.78386852c0 1.05859245.1364636 1.90021347.4093909 2.52486287.2933959.6445849.7785228 1.18295 1.3891885 1.5416395-.6122337.3648268-1.0954466.9115101-1.3823368 1.5639077z" fill="#fff"/><g fill-rule="nonzero"><path d="m45.5640119 7.21487287v2.53685345c-1.2390213-1.03575336-2.520866-1.55363004-3.845534-1.55363004-1.3987429-.02620677-2.7420053.54662761-3.6913702 1.57418523-.9961039 1.02128659-1.5393649 2.40042879-1.5073808 3.82669179-.0312802 1.4089366.5130492 2.7697602 1.5073808 3.7684522.9633896 1.0087766 2.3052806 1.5678978 3.6999348 1.5416395.6597887.0183762 1.3156525-.1073018 1.9219106-.3682806.3199193-.1374207.6266591-.3036909.916419-.4967505.3470219-.2325387.6804473-.4847525.9986398-.7554034v2.5865285c-1.1745383.6780536-2.5064581 1.0359886-3.8626634 1.0380373-1.9505365.0330923-3.8294286-.7345604-5.198751-2.1240366-1.3982881-1.3536866-2.1744914-3.2253783-2.1445918-5.1713441-.0118813-1.7779784.6265646-3.4989799 1.7951535-4.8390351 1.4719803-1.73577189 3.3761906-2.60365783 5.7126309-2.60365783 1.3038735.00727009 2.5815883.36649793 3.6982218 1.0397502z" fill="#fff"/><path d="m49.3547322 13.4893456c0-1.9995635.7331352-3.71706409 2.1994057-5.15250176 1.3867535-1.40568665 3.2877645-2.18354171 5.2621295-2.15315651 4.0704845.02339148 7.3644876 3.31739457 7.3878791 7.38787907.0315478 1.9646012-.7655681 3.8516893-2.1959799 5.198751-1.4063641 1.404583-3.3227607 2.1779418-5.3100916 2.1428789-1.83398 0-3.4812504-.6343561-4.9418111-1.9030683-1.6010211-1.4046049-2.4015317-3.2448657-2.4015317-5.5207824zm2.1617212.027407c0 1.5701883.5275832 2.8611687 1.5827498 3.872941s2.2667811 1.5182294 3.6348434 1.5193714c1.4154457.0301948 2.7800141-.5280378 3.7684521-1.5416395 2.041017-2.1260637 2.0493164-5.4812774.0188423-7.61741212-2.0680145-2.059931-5.412363-2.059931-7.4803775 0-1.0063606.99270192-1.5580218 2.35697872-1.5245101 3.77016502z" fill="#fff"/><path d="m68.7845287 20.6562564v-14.20535155h2.9873548c1.4285859 0 2.5574086.14103146 3.3864681.4230944.901304.28271799 1.7277812.76385419 2.4186611 1.40803074 1.4662704 1.33837148 2.1994057 3.09584051 2.1994057 5.27240711s-.7633971 3.9426003-2.2901912 5.2981011c-.6959732.6337281-1.5178007 1.1135166-2.4118093 1.4080307-.7845232.2637917-1.8973586.3956875-3.338506.3956875zm2.1428789-2.014409h.9660941c.8100558.0198856 1.618488-.0823234 2.3981059-.3031891.6419726-.2183563 1.2312475-.5684206 1.7300621-1.0277596 1.0551666-.9626683 1.5827499-2.218819 1.5827499-3.7684521 0-1.5496332-.5213026-2.8132066-1.5639076-3.79072028-.9386872-.86560204-2.3221659-1.29840305-4.1504362-1.29840305h-.9660941z" fill="#fff"/><path d="m92.1883293 8.4653138h-5.6955015v3.413875h5.529347v2.014409h-5.529347v4.7482496h5.6955015v2.014409h-7.8383804v-14.20535155h7.8383804z" fill="#fff"/><path d="m97.7433703 20.9988429h2.8297647v-6.7626586h4.773944v-2.699582h-4.773944v-2.72870195h4.950376v-2.69958206h-7.7801407z" fill="#0fce7c"/><path d="m118.093012 15.0070041c0 1.1596555-.171294 1.9921408-.532722 2.4751879-.53101.7297093-1.265858 1.0842864-2.243942 1.0842864-.978085 0-1.712933-.3545771-2.226813-1.0791477-.35629-.5036022-.536148-1.3378005-.536148-2.4803266v-8.89868581h-2.833191v9.48793471c0 1.5810369.50189 2.9119857 1.493678 3.9397454 1.08207 1.1057271 2.563942 1.728946 4.111038 1.728946 1.547097 0 3.028969-.6232189 4.111039-1.728946.990075-1.0277597 1.493677-2.3552826 1.493677-3.9397454v-9.48793471h-2.836616z" fill="#0fce7c"/><path d="m136.397411 15.467783-10.359817-10.8377257v16.3687856h2.829765v-9.4365466l10.359817 10.8120317v-16.26600971h-2.829765z" fill="#0fce7c"/><path d="m153.703171 8.02851594c-.726796-.67485158-1.594466-1.17977372-2.540279-1.47826099-.856466-.29291151-2.036677-.44193666-3.496096-.44193666h-3.323089v14.89052461h3.287118c1.471409 0 2.631064-.1387475 3.441282-.4111038.939126-.3100431 1.80277-.813641 2.53514-1.478261 1.596453-1.4097437 2.398106-3.2802663 2.398106-5.555041s-.769107-4.12645508-2.302182-5.52592116zm-.536148 5.52592116c0 1.4577058-.481334 2.6053707-1.471409 3.5080863-.462481.4236932-1.007838.7468245-1.601592.9489648-.747667.2097565-1.522454.3067492-2.298756.2877727h-.623507v-9.49136055h.623507c1.730062 0 3.04902.40596507 3.915764 1.19905295.979798.916419 1.455993 2.0743616 1.455993 3.5474838z" fill="#0fce7c"/></g></g></svg>