<?xml version="1.0" encoding="UTF-8"?>
<svg width="512px" height="512px" viewBox="0 0 512 512" version="1.1" xmlns="http://www.w3.org/2000/svg" xmlns:xlink="http://www.w3.org/1999/xlink">
    <!-- Generator: Sketch 51.3 (57544) - http://www.bohemiancoding.com/sketch -->
    <title>codefund-512</title>
    <desc>Created with Sketch.</desc>
    <defs></defs>
    <g id="codefund-512" stroke="none" stroke-width="1" fill="none" fill-rule="evenodd">
        <g id="Group" transform="translate(3.000000, 10.000000)">
            <path d="M438.966798,248.053841 C427.20694,240.994723 417.927604,230.473061 412.405066,217.935997 C407.159124,205.743075 404.547221,189.34227 404.569356,168.73358 L404.569356,95.0790531 C404.768636,87.3522982 403.828936,79.6382613 401.780374,72.1841911 C400.221185,66.6433278 397.152436,61.6426349 392.915396,57.7382289 C388.230031,53.910703 382.640549,51.3442175 376.679538,50.2833172 C375.417855,49.9851208 374.122971,49.7200572 372.761682,49.4881266 C363.44097,47.7869564 353.981841,46.9550462 344.50664,47.0031561 L304,47.0011833 C313.487322,46.9639178 322.95767,47.8069294 332.288244,49.5212596 C333.649533,49.7531902 334.944417,50.0182537 336.206099,50.3164502 C342.159457,51.3699054 347.740007,53.9375403 352.408756,57.7713618 C356.666146,61.6648894 359.748167,66.6684692 361.306936,72.217324 C363.339189,79.6745882 364.278597,87.3862294 364.095917,95.1121861 L364.095917,169.595037 C364.095917,189.872397 364.461141,207.962982 369.707083,220.321569 C374.771404,232.167598 383.54236,242.059393 394.708313,248.517702 C383.522699,255.118084 374.758233,265.130327 369.707083,277.078297 C364.461141,289.436884 364.095917,307.163007 364.095917,327.407234 L364.095917,401.856952 C364.278076,409.593792 363.338704,417.316289 361.306936,424.784947 C359.740918,430.321154 356.659555,435.312192 352.408756,439.197776 C347.734767,443.029612 342.15773,445.607035 336.206099,446.68582 L332.288244,447.481011 C322.955454,449.179065 313.486617,450.021942 304,449.999566 L344.50664,449.999115 C353.993257,450.021942 363.462094,449.179065 372.794884,447.481011 L376.71274,446.68582 C382.67207,445.599798 388.258112,443.023493 392.948598,439.197776 C397.177754,435.300253 400.245609,430.312483 401.813576,424.784947 C403.862063,417.319558 404.801733,409.594609 404.602558,401.856952 L404.602558,328.202424 C404.602558,307.626868 407.192327,291.192929 412.438269,279.03314 C417.973587,266.495616 427.249042,255.966783 439,248.882164 L438.369159,248.484569 L438.966798,248.053841 Z" id="Shape" fill="#0FCE7C"></path>
            <path d="M472.536304,208.59348 C465.146184,198.644824 461.282333,186.51658 461.555548,174.125977 L461.555548,99.0384219 C461.7449,84.7034686 460.201253,70.398165 456.958184,56.4336769 C454.331817,44.7962646 448.697908,34.0518743 440.619349,25.2739954 C431.581901,16.2244524 420.323932,9.71076443 407.974754,6.38633287 C399.706281,3.9850732 391.237876,2.33548939 382.672712,1.45767837 C373.269668,0.448546133 363.817828,-0.0373497741 354.360885,0.0022367712 L0,0 C0,0 12.53526,125.368684 85.0016309,159.340014 C91.2527236,196.35454 108.153826,249.709706 153.432905,270.945922 C160.047818,310.970566 179.396438,363.201072 233.5395,378.284739 C233.486842,378.934212 233.486842,379.586882 233.5395,380.236354 C233.5395,380.236354 240.154413,493 355.915389,493 C365.837758,493 374.800965,492.63614 382.771936,492.007653 C390.799829,491.475543 398.754863,490.145864 406.519473,488.038267 C419.140954,484.891642 430.723476,478.506869 440.12323,469.514465 C448.435284,460.935596 454.255059,450.255302 456.958184,438.619409 C460.241053,424.527113 461.785012,410.085613 461.555548,395.617726 L461.555548,320.133232 C461.329677,307.912433 465.194706,295.966776 472.536304,286.19498 C479.856807,276.469984 491.344706,271.618512 507,271.640564 L507,223.147896 C491.322656,223.147896 479.834758,218.296424 472.536304,208.59348 Z M411.778329,277.230783 C406.508448,289.491776 403.873508,305.667025 403.873508,325.756529 L403.873508,399.25633 C403.873508,417.272933 399.959684,429.401613 392.132037,435.64237 C389.280538,437.849159 386.084506,439.570289 382.672712,440.736415 C376.322999,442.891882 369.717779,444.204175 363.026421,444.639645 C356.411508,444.639645 295.818905,452.446105 285.929611,382.518751 L342.15637,382.518751 C339.9073,337.532375 304.087546,334.919195 299.523257,334.753804 L278.884728,334.753804 C234.068693,334.753804 213.959358,301.212491 204.896927,270.912843 L338.286646,270.912843 C338.286646,244.450269 317.185074,222.023237 296.976515,223.147896 L209.461217,223.147896 C165.339748,222.684801 145.42886,189.408114 136.432579,159.340014 L331.93633,159.340014 C331.93633,132.877439 313.778394,111.575067 287.384891,111.575067 L138.780873,111.575067 C93.9648379,111.575067 80.2719682,78.0337534 71.242612,47.7328364 L343.247831,47.7341056 C352.79729,47.6955147 362.32999,48.5370539 371.725031,50.2480501 C373.081088,50.4795977 374.404071,50.7442234 375.660904,51.0419274 C378.00316,51.5485108 380.303085,52.2341409 382.540414,53.0927769 C385.990196,54.2799366 389.195424,56.0844775 391.999739,58.41837 C396.255142,62.2517925 399.349206,67.2028422 400.929871,72.7081603 C402.996081,80.1002305 403.943703,87.7600965 403.741209,95.4328961 L403.741209,168.50268 C403.741209,188.945019 406.37615,205.19745 411.64603,217.259974 C417.311135,229.707466 426.67832,240.103764 438.469502,247.03037 C426.648045,254.075491 417.317815,264.632419 411.778329,277.230783 Z" id="Shape" fill="#15003E"></path>
        </g>
    </g>
</svg>