<svg height="292" viewBox="0 0 300 292" width="300" xmlns="http://www.w3.org/2000/svg"><g fill="none" fill-rule="evenodd"><path d="m21.0059172 21.5976331 153.2544378 244.9704139 43.491124 12.426036 41.124261-33.431953 15.384615-95.266272-26.035503-128.6982249z" fill="#fff" fill-rule="nonzero"/><path d="m259.743667 146.77742c-6.958496-4.176992-12.449227-10.402828-15.717-17.821208-3.104108-7.214747-4.649613-16.919366-4.636516-29.1138567v-43.5825605c.117918-4.5720444-.438118-9.1365633-1.650285-13.5472557-.922597-3.2786173-2.738425-6.2376072-5.245549-8.5479066-2.772405-2.2648083-6.079791-3.7834387-9.607017-4.4111904-.746557-.1764476-1.512761-.3332899-2.318257-.4705269-5.515214-1.0066096-11.112332-1.4988642-16.71896-1.4703968l-23.968426-.0011673c5.6138-.0220506 11.217556.4767728 16.738606 1.4911694.805496.137237 1.5717.2940793 2.318257.4705269 3.522697.6233463 6.824798 2.1426569 9.587371 4.4111904 2.519166 2.3038624 4.342847 5.2645605 5.265195 8.5479066 1.202517 4.4125823 1.75838 8.9756837 1.650285 13.5472556v44.072693c0 11.998438.216109 22.702926 3.320217 30.015699 2.996639 7.009485 8.186554 12.862618 14.793627 16.684103-6.618706 3.905551-11.804781 9.829955-14.793627 16.89976-3.104108 7.312773-3.320217 17.801604-3.320217 29.780436v44.053087c.107786 4.578012-.448055 9.147537-1.650285 13.566861-.926638 3.275863-2.749929 6.22914-5.265195 8.528302-2.765674 2.267358-6.065696 3.792461-9.587371 4.430795l-2.318257.470527c-5.522361 1.004766-11.125223 1.50351-16.738606 1.49027l23.968426-.000268c5.613383.013508 11.216245-.485236 16.738606-1.490002l2.318258-.470527c3.52623-.642616 6.831581-2.167058 9.607016-4.430795 2.50246-2.306227 4.317758-5.25757 5.245549-8.528302 1.212123-4.417389 1.76814-8.988365 1.650286-13.566861v-43.58256c0-12.174885 1.532407-21.899109 4.636515-29.094251 3.275336-7.418653 8.763771-13.648732 15.717001-17.840814l-.373279-.235264z" fill="#0fce7c"/><path d="m279.60728 123.428095c-4.372852-5.886779-6.659154-13.063255-6.497488-20.394972v-44.4305065c.112042-8.4822209-.801358-16.9468975-2.720334-25.2099083-1.554063-6.8860428-4.887737-13.2436702-9.66795-18.4376813-5.347602-5.35475918-12.009122-9.20901245-19.316328-11.17613171-4.892588-1.42086371-9.903478-2.39694881-14.971623-2.91636361-5.563931-.59711967-11.156735-.88463204-16.75256-.86120805l-209.680997-.00132353s7.41731359 74.182653 50.296823 94.2840317c3.6988714 21.9020863 13.6995238 53.4731903 40.4918782 66.0389993 3.9141496 23.683221 15.3630378 54.588846 47.4003518 63.514093-.031158.384303-.031158.770498 0 1.154802 0 0 3.91415 66.72405 72.411769 66.72405 5.871224 0 11.174897-.215302 15.891448-.587187 4.750233-.314858 9.457353-1.10165 14.051797-2.348749 7.468332-1.861909 14.321895-5.639881 19.88388-10.96083 4.918375-5.076254 8.362029-11.395955 9.961511-18.281098 1.942526-8.338637 2.856111-16.883903 2.720334-25.444783v-44.665381c-.133652-7.231242 2.153348-14.299678 6.497488-20.081806 4.331659-5.754435 11.129232-8.625129 20.39272-8.61208v-28.693887c-9.276535 0-16.074108-2.870693-20.39272-8.61208zm-35.951464 40.613788c-3.118273 7.255026-4.677409 16.826179-4.677409 28.71346v43.491006c0 10.660712-2.315872 17.837445-6.947616 21.530201-1.687277 1.305793-3.57842 2.324213-5.597234 3.014228-3.757226 1.275425-7.665641 2.051929-11.625024 2.309604-3.91415 0-39.767761 4.619206-45.619414-36.757926h33.270272c-1.330811-26.619157-22.525932-28.165417-25.226695-28.263282h-12.212147c-26.518364 0-38.417379-19.846931-43.779764-37.775716h78.928828c0-15.658328-12.486137-28.928762-24.443864-28.263283h-51.7842c-26.1073785-.27402-37.8889689-19.964368-43.2122124-37.7561433h115.6826924c0-15.6583281-10.74434-28.2632822-26.361797-28.2632822h-87.9313723c-26.5183639 0-34.6206537-19.8469309-39.963468-37.7764676l160.9498333.000751c5.650568-.0228349 11.291219.4751173 16.850415 1.4875411.8024.1370104 1.58523.2935937 2.328919.4697499 1.38595.2997535 2.746852.7054518 4.070715 1.2135204 2.041292.7024614 3.937876 1.7702371 5.597234 3.1512385 2.51799 2.2682974 4.348797 5.1979126 5.284102 8.4554972 1.222609 4.3740061 1.783333 8.9064712 1.663514 13.4465893v43.2365585c0 12.0960582 1.559136 21.7128812 4.677409 28.8504692 3.352133 7.36538 8.894846 13.517036 15.871877 17.615619-6.994945 4.168711-12.515792 10.415414-15.793594 17.870067z" fill="#15003e"/></g></svg>