<svg height="228" viewBox="0 0 440 228" width="440" xmlns="http://www.w3.org/2000/svg"><g fill="none"><g fill="#377dff" opacity=".15"><circle cx="426.6" cy="146.7" opacity=".5" r="10.4"/><path d="m287.7 17.2c0 7.5-6.1 13.5-13.5 13.5-7.5 0-13.5-6.1-13.5-13.5 0-7.5 6.1-13.5 13.5-13.5 7.4-.1 13.5 6 13.5 13.5z" opacity=".5"/><path d="m101.8 34.4c0 3.8-3.1 6.9-6.9 6.9s-6.9-3.1-6.9-6.9 3.1-6.9 6.9-6.9 6.9 3.1 6.9 6.9z" opacity=".5"/><path d="m344.1 47.5c0 3.8-3.1 6.9-6.9 6.9s-6.9-3.1-6.9-6.9 3.1-6.9 6.9-6.9 6.9 3.1 6.9 6.9z" opacity=".5"/><circle cx="179.8" cy="6.9" opacity=".5" r="6.9"/><path d="m439.8 176.9c0 1.6-1.3 2.8-2.8 2.8-1.6 0-2.8-1.3-2.8-2.8 0-1.6 1.3-2.8 2.8-2.8 1.6-.1 2.8 1.2 2.8 2.8z" opacity=".5"/><path d="m329.9 22.7c0 1.2-1 2.1-2.1 2.1-1.2 0-2.1-1-2.1-2.1 0-1.2 1-2.1 2.1-2.1s2.1.9 2.1 2.1z" opacity=".5"/><circle cx="122.1" cy="6.9" opacity=".5" r="2.8"/><path d="m25.9 67c0 2-1.6 3.7-3.7 3.7-2 0-3.7-1.6-3.7-3.7 0-2 1.6-3.7 3.7-3.7 2 .1 3.7 1.7 3.7 3.7z" opacity=".5"/><path d="m433.9 101.9c0 2-1.6 3.7-3.7 3.7-2 0-3.7-1.6-3.7-3.7 0-2 1.6-3.7 3.7-3.7s3.7 1.7 3.7 3.7z" opacity=".5"/><circle cx="58.8" cy="55.5" opacity=".5" r="15.6"/><path d="m12 183.3c0 2-1.6 3.7-3.7 3.7-2 0-3.7-1.6-3.7-3.7s1.6-3.7 3.7-3.7c2 0 3.7 1.7 3.7 3.7z" opacity=".5"/><circle cx="406.7" cy="47.5" opacity=".5" r="15.1"/><circle cx="12" cy="115.2" opacity=".5" r="12"/><path d="m424.6 227.4c0-28.2-6-55.1-16.8-79.3 3.9-8.1 6.1-17.1 6.1-26.7 0-34-27.5-61.5-61.5-61.5-6.4 0-12.5 1-18.3 2.8-30.2-19.2-66.1-30.4-104.6-30.4-4.8 0-9.6.2-14.3.5-8.4-6.3-18.9-10.1-30.2-10.1-21.4 0-39.7 13.4-46.9 32.3-14.8 7.9-28.5 17.6-40.7 28.8-4-.9-8.1-1.4-12.4-1.4-30.8 0-55.7 24.9-55.7 55.7 0 13.4 4.7 25.7 12.6 35.3-4.9 17.1-7.6 35.2-7.6 53.9z" opacity=".47"/><path d="m370.1 227c0-78.3-63.4-141.7-141.7-141.7s-141.7 63.4-141.7 141.7z" opacity=".47"/></g><g transform="translate(49 34)"><path d="m321 193.6h-321v-188.3c0-2.8 3.99081081-5.1 8.84918919-5.1h303.12810781c4.858379 0 8.849189 2.3 8.849189 5.1v188.3z" fill="#b7d2f9"/><path d="m13 30.4h294v163.2h-294z" fill="#f3f4f9"/><path d="m51 13h240v7.6h-240z" fill="#fff"/><g fill="#377dff" transform="translate(297 12)"><path d="m8.2 2.2h-7c-.5 0-.9-.4-.9-.9s.4-.9.9-.9h7c.5 0 .9.4.9.9s-.4.9-.9.9z"/><path d="m8.2 5.7h-7c-.5 0-.9-.4-.9-.9s.4-.9.9-.9h7c.5 0 .9.4.9.9s-.4.9-.9.9z"/><path d="m8.2 9.1h-7c-.5 0-.9-.4-.9-.9s.4-.9.9-.9h7c.5 0 .9.4.9.9s-.4.9-.9.9z"/></g><circle cx="16.7" cy="16.7" fill="#de4437" r="3.7"/><circle cx="27.7" cy="16.7" fill="#ffc107" r="3.7"/><circle cx="38.7" cy="16.7" fill="#00c9a7" r="3.7"/><g fill="#dfe2ec"><path d="m55 113h141.5v6.7h-141.5z"/><path d="m55 129h141.5v6.7h-141.5z"/><path d="m55 145h141.5v6.7h-141.5z"/><path d="m55 160h141.5v6.7h-141.5z"/></g><path d="m55 42h141.6v54.4h-141.6z" fill="#377dff"/><path d="m217 91h48v5h-48z" fill="#dfe2ec"/><path d="m217 100h48v5h-48z" fill="#dfe2ec"/><path d="m217 109h48v5h-48z" fill="#dfe2ec"/><path d="m217 42h48v43h-48z" fill="#00c9a7"/></g></g></svg>