<svg viewBox="0 0 2761 991" version="1.1" xmlns="http://www.w3.org/2000/svg" xmlns:xlink="http://www.w3.org/1999/xlink">
  <g id="airbnb" stroke="none" stroke-width="1" fill="none" fill-rule="evenodd">
    <g transform="translate(130.000000, 105.000000)" fill="currentColor" fill-rule="nonzero" id="Shape">
      <path d="M1317.62854,196.830214 C1317.62854,224.94903 1294.97121,247.590764 1266.85239,247.590764 C1238.73357,247.590764 1216.09184,224.94903 1216.09184,196.830214 C1216.09184,168.711397 1237.96116,146.069664 1266.85239,146.069664 C1295.76702,146.849875 1317.62854,169.49941 1317.62854,196.830214 Z M1108.31345,299.147129 L1108.31345,311.646115 C1108.31345,311.646115 1084.11129,280.390848 1032.56273,280.390848 C947.441668,280.390848 881.045683,345.218609 881.045683,435.028737 C881.045683,524.066455 946.661457,589.666625 1032.56273,589.666625 C1084.8915,589.666625 1108.31345,557.646752 1108.31345,557.646752 L1108.31345,570.918146 C1108.31345,577.167639 1113.01032,581.841105 1119.25201,581.841105 L1182.50374,581.841105 L1182.50374,288.177358 L1119.25201,288.177358 C1113.01032,288.200764 1108.31345,293.677848 1108.31345,299.147129 Z M1108.31345,487.357512 C1096.61028,504.545567 1073.17273,519.385187 1045.06171,519.385187 C995.081373,519.385187 956.804204,488.145525 956.804204,435.028737 C956.804204,381.919751 995.081373,350.680088 1045.06171,350.680088 C1072.40032,350.680088 1097.39049,366.299919 1108.31345,382.699962 L1108.31345,487.357512 Z M1229.37104,288.200764 L1304.34155,288.200764 L1304.34155,581.864512 L1229.37104,581.864512 L1229.37104,288.200764 Z M2349.32541,280.383046 C2297.77685,280.383046 2273.55909,311.638313 2273.55909,311.638313 L2273.55909,146.849875 L2198.58858,146.849875 L2198.58858,581.864512 L2261.85592,581.864512 C2268.10541,581.864512 2272.77888,576.39523 2272.77888,570.925949 L2272.77888,557.654554 C2272.77888,557.654554 2296.99664,589.674427 2348.52959,589.674427 C2433.66626,589.674427 2500.04664,524.089862 2500.04664,435.052143 C2500.04664,346.014425 2433.66626,280.383046 2349.32541,280.383046 Z M2336.82642,518.597174 C2307.91959,518.597174 2285.27786,503.773158 2273.55909,486.5773 L2273.55909,381.919751 C2285.27786,366.299919 2310.26803,349.899877 2336.82642,349.899877 C2386.80676,349.899877 2425.07613,381.139539 2425.07613,434.248525 C2425.07613,487.357512 2386.81457,518.597174 2336.82642,518.597174 Z M2159.5468,407.705735 L2159.5468,582.644723 L2084.56069,582.644723 L2084.56069,416.28806 C2084.56069,367.875946 2068.94086,348.339454 2026.79384,348.339454 C2004.15211,348.339454 1980.71456,360.058229 1965.85154,377.246285 L1965.85154,581.872314 L1890.89663,581.872314 L1890.89663,288.208566 L1950.2317,288.208566 C1956.4812,288.208566 1961.17027,293.677848 1961.17027,299.147129 L1961.17027,311.646115 C1983.03959,288.988777 2011.93082,280.390848 2040.82204,280.390848 C2073.62993,280.390848 2100.96854,289.776791 2122.83786,308.517467 C2149.38065,330.386791 2159.5468,358.497806 2159.5468,407.705735 Z M1708.89673,280.383046 C1657.36377,280.383046 1633.14601,311.638313 1633.14601,311.638313 L1633.14601,146.849875 L1558.1755,146.849875 L1558.1755,581.864512 L1621.42724,581.864512 C1627.67673,581.864512 1632.3658,576.39523 1632.3658,570.925949 L1632.3658,557.654554 C1632.3658,557.654554 1656.58356,589.674427 1708.11652,589.674427 C1793.25318,589.674427 1859.63356,524.089862 1859.63356,435.052143 C1860.41377,346.006622 1794.03339,280.383046 1708.89673,280.383046 Z M1696.39775,518.597174 C1667.50652,518.597174 1644.86479,503.773158 1633.14601,486.5773 L1633.14601,381.919751 C1644.86479,366.299919 1669.85496,349.899877 1696.39775,349.899877 C1746.39369,349.899877 1784.65525,381.139539 1784.65525,434.248525 C1784.65525,487.357512 1746.39369,518.597174 1696.39775,518.597174 Z M1493.34774,280.383046 C1515.98948,280.383046 1527.70825,284.299707 1527.70825,284.299707 L1527.70825,353.800934 C1527.70825,353.800934 1465.22893,332.711821 1426.18715,377.238483 L1426.18715,582.636921 L1351.20104,582.636921 L1351.20104,288.200764 L1414.46838,288.200764 C1420.71787,288.200764 1425.39134,293.670046 1425.39134,299.139327 L1425.39134,311.638313 C1439.46635,295.230468 1469.9258,280.383046 1493.34774,280.383046 Z M714.704624,555.306117 C710.803568,545.935779 706.894709,535.78523 702.993652,527.187301 C696.736357,513.135694 690.486864,499.848695 685.033187,487.357512 L684.252976,486.5773 C630.355976,369.420765 572.573524,250.719411 511.64682,133.57848 L509.306186,128.881608 C502.898081,116.729582 496.653228,104.492167 490.573312,92.1726639 C482.755594,78.1054534 474.953481,63.2814378 462.454495,49.2142273 C437.464326,17.9745651 401.535593,0.78650921 363.274029,0.78650921 C324.216649,0.78650921 289.07593,17.9745651 263.313352,47.6460025 C251.594577,61.6976088 242.996648,76.5372286 235.194535,90.6044391 C229.099222,102.916209 222.854469,115.153428 216.46166,127.313383 L214.113224,132.010255 C153.974534,249.151186 95.4040683,367.860342 41.5148708,485.009075 L40.7268574,486.561696 C35.265378,499.076286 29.008083,512.347681 22.7585901,526.391485 C18.8575334,534.989414 14.9564767,544.359752 11.05542,554.510302 C0.897068278,583.401528 -2.23157921,610.740133 1.68508173,638.866752 C10.2752086,697.44502 49.3169843,746.629543 103.213984,768.514471 C123.522885,777.1124 144.611998,781.013457 166.47352,781.013457 C172.723012,781.013457 180.525126,780.233246 186.782421,779.445232 C212.560604,776.324387 239.111196,767.742062 264.889379,752.902442 C296.909252,734.934175 327.368703,709.171597 361.72921,671.682441 C396.089718,709.171597 427.32938,734.934175 458.569042,752.902442 C484.355027,767.742062 510.897817,776.324387 536.668198,779.445232 C542.917691,780.241048 550.735408,781.013457 556.984901,781.013457 C578.854225,781.013457 600.715747,777.1124 620.236635,768.514471 C674.913846,746.629543 713.17541,696.664809 721.773339,638.866752 C727.976019,611.535949 724.855174,584.212948 714.704624,555.306117 Z M362.486015,595.916118 C320.30779,542.807132 292.969185,492.826793 283.606649,450.664172 C279.705592,432.695905 278.917578,417.076074 281.266015,403.016665 C282.818635,390.51768 287.515507,379.579117 293.765,370.208778 C308.60462,349.13527 333.594789,335.848271 362.493818,335.848271 C391.400648,335.848271 417.171029,348.347256 431.230437,370.208778 C437.47993,379.579117 442.161198,390.525482 443.737225,403.016665 C446.070057,417.083876 445.289845,433.476116 441.388789,450.664172 C431.987242,492.046582 404.648637,542.034723 362.486015,595.916118 Z M674.086822,632.625062 C668.625343,673.235062 641.286737,708.391385 603.025173,724.011216 C584.284496,731.81333 563.967793,734.161766 543.674496,731.81333 C524.153608,729.464894 504.617116,723.215401 484.323819,711.512231 C456.205002,695.876795 428.093987,671.682441 395.2861,635.745907 C446.826862,572.494173 478.066524,514.688315 489.785298,463.155356 C495.25458,438.937596 496.042593,417.076074 493.686355,396.75937 C490.573312,377.238483 483.535805,359.270215 472.605045,343.650384 C448.379482,308.494061 407.76168,288.200764 362.478213,288.200764 C317.194747,288.200764 276.576944,309.289877 252.366986,343.650384 C241.436226,359.270215 234.398719,377.238483 231.277874,396.75937 C228.157028,417.076074 228.929438,439.717807 235.178931,463.155356 C246.889903,514.688315 278.909776,573.266583 329.670326,636.526118 C297.650453,672.454851 268.751425,696.672611 240.632608,712.292442 C220.323707,724.011216 200.810621,730.260709 181.289733,732.593541 C160.208423,734.941977 139.891719,731.81333 121.931254,724.791428 C83.6696897,709.171597 56.3310842,674.015273 50.8696048,633.405273 C48.5289708,613.884385 50.0815914,594.363497 57.899309,572.494173 C60.232141,564.676456 64.1488019,556.874342 68.0498586,547.504004 C73.5191401,535.005018 79.7530288,521.718019 86.0103238,508.446624 L86.7983372,506.894004 C140.679733,390.51768 198.469987,271.808524 258.608677,156.228015 L260.949311,151.531143 C267.206606,139.827973 273.456099,127.328987 279.69779,115.610213 C285.947283,103.111227 292.969185,91.3924525 301.567114,81.2341009 C317.967156,62.5090286 339.828678,52.3428748 364.046438,52.3428748 C388.264198,52.3428748 410.12572,62.5090286 426.525763,81.2341009 C435.123692,91.4158589 442.145594,103.134633 448.395087,115.610213 C454.652382,127.328987 460.901874,139.827973 467.135763,151.531143 L469.484199,156.228015 C528.705845,272.288756 585.728672,389.458413 640.52213,507.674215 L640.52213,508.454426 C646.779425,520.969016 652.240904,535.01282 658.490397,547.52741 C662.391454,556.882144 666.300313,564.684258 668.640947,572.501975 C674.874835,592.78747 677.215469,612.323962 674.086822,632.625062 Z"></path>
    </g>
  </g>
</svg>