<svg viewBox="0 0 2761 991" version="1.1" xmlns="http://www.w3.org/2000/svg" xmlns:xlink="http://www.w3.org/1999/xlink">
  <g id="coinbase" stroke="none" stroke-width="1" fill="none" fill-rule="evenodd">
    <g transform="translate(170.000000, 233.000000)" fill="currentColor" fill-rule="nonzero" id="Shape">
      <path d="M156.558139,526 C77.4418605,526 0,469.044585 0,340.476114 C0,211.488853 77.4418605,155.37102 156.558139,155.37102 C195.488373,155.37102 226.046511,165.421975 247.813954,179.660828 L223.953489,232.009555 C209.302326,221.539809 187.534884,214.839171 165.767442,214.839171 C118.046512,214.839171 74.511628,252.530255 74.511628,339.638535 C74.511628,426.746816 119.302326,465.275477 165.767442,465.275477 C187.534884,465.275477 209.302326,458.57484 223.953489,448.105095 L247.813954,501.710191 C225.209303,516.786624 195.488373,526 156.558139,526 Z M429.069768,526 C328.186047,526 272.511629,446.011146 272.511629,340.476114 C272.511629,234.941083 327.767442,155.37102 429.069768,155.37102 C529.953489,155.37102 585.627908,234.522293 585.627908,340.476114 C585.627908,446.011146 529.953489,526 429.069768,526 Z M429.069768,212.745223 C372.976745,212.745223 345.348837,263 345.348837,339.638535 C345.348837,416.27707 372.976745,466.950637 429.069768,466.950637 C485.162792,466.950637 512.790698,416.27707 512.790698,339.638535 C512.790698,263 485.162792,212.745223 429.069768,212.745223 Z M682.744187,97.996815 C658.883721,97.996815 639.627908,79.5700636 639.627908,56.955414 C639.627908,34.3407643 658.883721,15.9140127 682.744187,15.9140127 C706.604652,15.9140127 725.860466,34.3407643 725.860466,56.955414 C725.860466,79.5700636 706.186047,97.996815 682.744187,97.996815 Z M646.325582,162.490446 L719.162791,162.490446 L719.162791,518.461783 L646.325582,518.461783 L646.325582,162.490446 Z M1004.65117,518.461783 L1004.65117,281.007961 C1004.65117,239.54777 979.534885,213.582803 930.139536,213.582803 C903.767443,213.582803 879.488373,218.18949 864.83721,224.052548 L864.83721,518.880573 L792.837211,518.880573 L792.837211,180.498407 C828.418606,165.840765 874.046513,155.37102 929.720931,155.37102 C1029.34884,155.37102 1077.48837,198.925159 1077.48837,274.307324 L1077.48837,518.880573 L1004.65117,518.880573 L1004.65117,518.461783 Z M1268.7907,526 C1222.74419,526 1177.11628,514.692675 1149.06977,500.872611 L1149.06977,0 L1221.06977,0 L1221.06977,171.703822 C1238.23256,163.746815 1265.86047,157.046178 1290.55814,157.046178 C1382.23256,157.046178 1444.60465,223.214968 1444.60465,332.100319 C1444.60465,466.531847 1375.11628,526 1268.7907,526 Z M1278,213.582803 C1258.32559,213.582803 1234.88373,218.18949 1221.06977,225.308917 L1221.06977,458.99363 C1231.53489,463.600318 1252.04651,468.207007 1272.55814,468.207007 C1329.90697,468.207007 1372.18605,428.421974 1372.18605,337.544586 C1372.60465,259.649682 1335.76744,213.582803 1278,213.582803 Z M1640.51163,526 C1538.37209,526 1486.46511,484.539809 1486.46511,414.183121 C1486.46511,314.929937 1591.95349,297.340765 1699.53489,291.477707 L1699.53489,268.863057 C1699.53489,224.052548 1669.81395,208.138535 1624.18605,208.138535 C1590.69768,208.138535 1549.67442,218.60828 1525.81395,229.915605 L1507.39535,180.498407 C1535.86047,167.934713 1584,155.37102 1631.72093,155.37102 C1716.69767,155.37102 1768.60465,188.455414 1768.60465,276.401274 L1768.60465,500.872611 C1743.06977,514.692675 1690.74419,526 1640.51163,526 Z M1699.95349,339.638535 C1627.11628,343.407643 1554.69768,349.689491 1554.69768,412.926752 C1554.69768,450.617835 1583.58139,473.651274 1638.4186,473.651274 C1661.44187,473.651274 1688.65117,469.882165 1699.95349,464.437898 L1699.95349,339.638535 Z M1931.02326,526 C1889.5814,526 1846.04651,514.692675 1820.09303,500.872611 L1844.3721,445.592356 C1862.7907,456.899682 1901.72093,468.625796 1928.93023,468.625796 C1967.86047,468.625796 1993.81396,449.361465 1993.81396,419.627389 C1993.81396,387.380573 1966.60466,374.816878 1930.60466,361.415605 C1882.88372,343.407643 1829.72094,321.630573 1829.72094,255.042994 C1829.72094,196.412421 1875.34884,155.37102 1954.46512,155.37102 C1997.5814,155.37102 2033.16279,165.840765 2058.27907,180.498407 L2035.67442,230.753185 C2019.76744,220.702229 1987.95349,209.813694 1962.41861,209.813694 C1924.74419,209.813694 1903.81396,229.496815 1903.81396,255.461784 C1903.81396,287.708599 1930.18605,299.015923 1965.34884,312.417197 C2014.74419,330.843949 2069.5814,351.364649 2069.5814,420.883758 C2069.16279,484.121019 2020.18605,526 1931.02326,526 Z M2420.37209,338.800956 L2183.86047,371.88535 C2190.97675,435.960191 2232.83721,468.207007 2292.69768,468.207007 C2328.27907,468.207007 2366.7907,459.41242 2391.06977,446.429936 L2412.00001,500.453821 C2384.3721,515.111465 2336.65117,525.58121 2287.67442,525.58121 C2175.48837,525.58121 2112.69768,453.549363 2112.69768,340.057324 C2112.69768,231.171975 2173.39535,154.95223 2273.02326,154.95223 C2365.53488,154.95223 2420.37209,215.676751 2420.37209,311.579618 C2421.2093,320.374204 2421.2093,329.587579 2420.37209,338.800956 Z M2272.60465,208.138535 C2217.34884,208.138535 2180.93024,250.436305 2179.67442,324.562102 L2352.13954,300.691083 C2351.30233,238.710191 2319.90698,208.138535 2272.60465,208.138535 Z"></path>
    </g>
  </g>
</svg>