<svg viewBox="0 0 2761 991" version="1.1" xmlns="http://www.w3.org/2000/svg" xmlns:xlink="http://www.w3.org/1999/xlink">
  <g id="digital-ocean" stroke="none" stroke-width="1" fill="none" fill-rule="evenodd">
    <g id="digitalocean-2" transform="translate(84.000000, 276.500000)" fill="currentColor" fill-rule="nonzero">
      <path d="M217.690418,437.5 L217.690418,352.47951 C307.86019,352.47951 377.414555,263.606205 342.650305,169.561338 C329.844095,134.223429 302.004691,106.393112 266.655243,93.5910824 C225.522151,78.1291839 179.424838,83.7546611 143.220492,108.65442 C107.016145,133.554178 85.2817773,174.58035 85.0223865,218.510179 L0,218.510179 C0,76.8093615 137.841283,-35.2584015 288.538096,11.1305156 C354.267917,31.7699817 405.745507,83.2404244 426.379379,148.952661 C472.757578,299.677855 360.679087,437.5 217.690418,437.5 Z" id="Path"></path>
      <path d="M218.678855,353.363962 L133.566677,353.363962 L133.566677,269.695786 L218.678855,269.695786 L218.678855,353.363962 Z M133.566677,419.022034 L69.0916767,419.022034 L69.0916767,353.363962 L133.566677,353.363962 L133.566677,419.022034 L133.566677,419.022034 Z M69.0916767,353.363962 L15,353.363962 L15,299.307809 L69.0916767,299.307809 L69.0916767,353.363962 Z M777.047892,128.095536 C752.55257,111.351565 720.31507,102.256075 684.193534,102.256075 L605.554749,102.256075 L605.554749,353.260604 L684.219428,353.260604 C720.332333,353.260604 751.283785,344.251246 777.073785,326.232528 C791.159933,316.006296 802.282466,302.241395 809.311285,286.336399 C817.079357,269.592428 820.911606,248.998377 820.911606,227.112353 C820.911606,205.226329 817.053464,184.632278 809.311285,169.18028 C801.543213,149.98156 791.23757,137.113508 777.047892,128.095536 L777.047892,128.095536 Z M651.981928,144.839507 L676.477249,144.839507 C703.561928,144.839507 726.76257,150.0074 744.810392,161.583479 C764.152892,173.159557 773.293323,195.174779 773.293323,227.24155 C773.293323,259.308322 762.935894,282.589677 744.810392,295.457729 C728.057249,305.793514 706.125392,312.2017 677.746034,312.2017 L651.981928,312.2017 L651.981928,144.839507 L651.981928,144.839507 Z M876.349749,98.5093529 C869.106039,98.3161974 862.104968,101.121997 857.007249,106.261191 C851.045095,110.858974 847.678534,118.049706 847.970392,125.563269 C847.970392,140.490464 860.096615,152.591346 875.05507,152.591346 C890.013525,152.591346 902.139749,140.490464 902.139749,125.563269 C902.330199,118.335254 899.519002,111.350001 894.371677,106.261191 C890.513534,101.093299 884.014247,98.5093529 876.246175,98.5093529 L876.349749,98.5093529 Z M852.941958,175.743503 L898.074458,175.743503 L898.074458,352.097829 L853.123213,352.097829 L853.123213,175.743503 L852.941958,175.743503 Z M1059.44321,191.24718 C1046.49643,179.671102 1030.96028,171.945103 1014.31071,171.945103 C991.317946,171.439691 969.224473,180.857591 953.693855,197.784564 C937.587193,214.809898 928.795356,237.448403 929.198534,260.85869 C929.198534,285.32866 936.966606,307.188844 952.502751,323.932816 C968.038896,340.676787 988.598394,348.402786 1013.11961,348.402786 C1028.89923,348.649767 1044.3158,343.67007 1056.95743,334.242761 L1056.95743,338.092841 C1056.95743,352.252865 1053.09929,363.932302 1045.35711,371.684141 C1037.61493,379.435979 1027.23161,383.260219 1013.11961,383.260219 C992.404749,383.260219 979.58743,375.508381 964.128966,353.648196 L933.056677,383.260219 L934.351355,384.552192 C940.798855,393.570165 951.104498,402.639816 963.999498,411.580269 C976.894498,420.520723 993.647641,424.5 1012.99014,424.5 C1040.07482,424.5 1060.712,416.748162 1076.17046,400.03003 C1091.62893,383.311898 1100.66578,362.692008 1100.66578,335.663931 L1100.66578,175.743503 L1056.87975,175.743503 L1056.87975,191.24718 L1059.46911,191.24718 L1059.44321,191.24718 Z M1047.86879,295.509408 C1040.10071,304.52738 1029.74328,308.429139 1016.7965,308.429139 C1003.84971,308.429139 993.492279,304.579059 985.724207,295.509408 C977.956135,286.439757 974.123886,274.837839 974.123886,260.755332 C974.123886,246.672825 978.240964,234.94171 986.009036,225.923738 C993.777108,216.905766 1004.13454,213.004007 1017.08133,213.004007 C1030.02811,213.004007 1040.38554,216.854087 1048.15361,225.923738 C1055.92169,234.993389 1059.75394,246.595307 1059.75394,260.677814 C1059.75394,274.76032 1055.89579,286.517275 1048.15361,295.431889 L1047.86879,295.509408 Z M1142.27676,175.717664 L1187.40926,175.717664 L1187.40926,352.071989 L1141.99193,352.071989 L1141.99193,175.743503 L1142.27676,175.717664 Z M1163.92379,98.5093529 C1156.68695,98.3302485 1149.69308,101.120288 1144.5743,106.228378 C1139.45551,111.336468 1136.65963,118.31572 1136.83911,125.53743 C1136.83911,140.464624 1148.96533,152.565506 1163.92379,152.565506 C1178.88224,152.565506 1191.00846,140.464624 1191.00846,125.53743 C1191.18824,118.31112 1188.38885,111.327718 1183.26436,106.218814 C1178.13986,101.109909 1171.13916,98.32305 1163.89789,98.5093529 L1163.92379,98.5093529 Z M1283.78514,128.095536 L1239.99911,128.095536 L1239.99911,175.743503 L1214.10553,175.743503 L1214.10553,215.639632 L1239.99911,215.639632 L1239.99911,289.023703 C1239.99911,312.279218 1245.17782,328.919832 1254.18879,337.937804 C1263.19975,346.955776 1280.08236,352.097829 1301.91064,352.097829 C1309.24509,352.310023 1316.58401,351.877698 1323.8425,350.805856 L1326.43186,350.805856 L1326.43186,310.883887 L1310.89571,312.175861 C1300.53828,312.175861 1292.77021,310.883887 1290.18085,307.007968 C1286.32271,303.157888 1285.00214,295.431889 1285.00214,283.752453 L1285.00214,216.931605 L1326.2765,216.931605 L1326.2765,177.009637 L1285.13161,177.009637 L1283.78514,128.095536 L1283.78514,128.095536 Z M1533.94296,102.256075 L1579.07546,102.256075 L1579.07546,353.260604 L1533.99475,353.260604 L1533.99475,102.411112 L1533.94296,102.256075 Z M2029.18346,290.341516 C2022.58971,297.95208 2015.24172,304.877827 2007.25161,311.013085 C2000.22727,315.26252 1992.16158,317.489366 1983.94739,317.447111 C1971.72048,317.340838 1960.08877,312.164312 1951.83936,303.157888 C1942.8025,292.822104 1938.89257,281.271865 1938.89257,265.819867 C1938.89257,250.367868 1942.75071,238.79179 1951.83936,228.481845 C1959.77862,218.995663 1971.70443,213.757359 1984.07686,214.32182 C1998.26654,214.32182 2013.725,223.339792 2026.62,238.79179 L2056.26814,210.368382 C2036.92564,185.898412 2012.43032,174.322333 1982.75629,174.322333 C1958.26096,174.322333 1937.62379,183.340305 1919.57596,201.35041 C1902.68656,219.024086 1893.39347,242.588478 1893.68239,267.008482 C1893.68239,292.847943 1902.71925,315.922582 1919.57596,332.666554 C1935.79894,350.27031 1958.7937,360.1073 1982.75629,359.69463 C2014.99379,359.69463 2040.78379,345.534605 2058.83161,319.798502 L2029.18346,290.186479 L2029.18346,290.341516 Z M2211.00814,201.376249 C2204.22178,192.455912 2195.32525,185.353558 2185.11457,180.70468 C2173.41109,175.295574 2160.61829,172.643344 2147.72425,172.952842 C2123.22893,172.952842 2102.59175,181.970814 2087.10739,199.980918 C2072.45289,218.701521 2064.70782,241.888184 2065.17553,265.63899 C2065.17553,292.667067 2072.9436,314.553091 2089.67085,331.297062 C2106.3981,348.041033 2127.06117,357.136524 2154.14585,357.136524 C2183.794,357.136524 2208.31521,345.560445 2227.65771,321.090475 L2228.95239,319.798502 L2199.30425,291.375094 C2196.71489,295.225174 2192.85675,297.80912 2188.94682,301.710879 C2185.28686,305.559771 2180.88242,308.627643 2176.00003,310.728851 C2169.29107,314.395904 2161.71227,316.181726 2154.06817,315.896743 C2142.83721,316.058901 2131.88316,312.41518 2122.99588,305.560958 C2115.22781,299.126932 2111.39556,290.057281 2110.0491,278.532882 L2228.69345,278.532882 L2228.69345,261.788911 C2228.98253,250.373595 2227.22882,238.998342 2223.51474,228.19761 C2221.6288,218.217734 2217.16624,208.901562 2210.56795,201.169534 L2211.00814,201.376249 Z M2114.29564,242.667709 C2116.26891,234.877268 2120.27087,227.745831 2125.89596,221.99614 C2132.05658,215.867369 2140.5096,212.596325 2149.20018,212.978168 C2159.55761,212.978168 2168.54268,215.562114 2173.6955,221.99614 C2178.87422,227.164032 2181.46357,234.91587 2182.73236,242.667709 L2114.29564,242.667709 L2114.29564,242.667709 Z M2382.52718,189.877689 C2369.58039,178.30161 2350.28968,173.133718 2327.08904,173.133718 C2312.90056,173.534915 2298.91524,176.603153 2285.86647,182.177529 C2274.26614,188.611555 2262.56225,197.681206 2256.21832,210.600937 L2284.70126,237.629014 C2296.30158,218.326936 2309.19658,211.789552 2327.2444,211.789552 C2335.68307,211.566351 2343.93188,214.310207 2350.54861,219.541391 C2356.51077,224.139173 2359.87733,231.329905 2359.58547,238.843469 L2359.58547,247.861441 C2349.20152,244.365346 2338.30675,242.618838 2327.34797,242.693548 C2305.42475,242.693548 2287.36829,247.861441 2273.17861,258.197225 C2258.98894,268.53301 2252.46376,284.036687 2252.46376,301.969273 C2252.46376,318.713244 2257.64247,331.581296 2269.2169,341.865402 C2280.79133,352.149508 2295.11047,356.025427 2311.76004,356.025427 C2328.40961,356.025427 2343.99754,349.591401 2359.4819,337.937804 L2359.4819,352.097829 L2403.31972,352.097829 L2403.31972,238.817629 C2403.31972,218.14606 2396.87222,201.479607 2382.60486,189.903528 L2382.52718,189.877689 Z M2303.94018,285.147784 C2309.1189,281.297704 2315.5405,279.979891 2324.65504,279.979891 C2336.10043,280.364997 2347.41483,282.535961 2358.18722,286.413917 L2358.18722,303.157888 C2347.51453,312.529526 2333.71605,317.580237 2319.50222,317.317913 C2311.73415,317.317913 2305.31254,316.02594 2301.37672,312.150021 C2297.44089,308.274102 2294.92922,304.398183 2294.92922,299.23029 C2295.85047,293.466617 2299.12179,288.340732 2303.96607,285.070265 L2303.94018,285.147784 Z M2574.6575,192.461635 C2561.71071,178.30161 2545.00936,171.790066 2523.0775,171.790066 C2505.02105,171.790066 2490.84,176.957958 2480.53436,187.293743 L2480.53436,176.957958 L2436.67064,176.957958 L2436.67064,353.312283 L2481.80314,353.312283 L2481.80314,255.535761 C2481.80314,242.61603 2484.3925,231.065791 2490.84,223.365631 C2497.23575,215.748833 2506.78021,211.481849 2516.73357,211.789552 C2525.70434,211.353358 2534.3509,215.188243 2540.03779,222.125337 C2546.09448,230.353295 2549.27004,240.341319 2549.07465,250.548745 L2549.07465,353.518999 L2594,353.518999 L2594,250.393708 C2592.70532,225.932351 2586.25782,206.62166 2574.6575,192.461635 L2574.6575,192.461635 Z M1478.55661,189.877689 C1465.60982,178.30161 1446.31911,173.133718 1423.11846,173.133718 C1408.91416,173.520258 1394.91073,176.579846 1381.84411,182.15169 C1370.24379,188.585716 1358.53989,197.655367 1352.19596,210.575098 L1380.6789,237.603174 C1392.27922,218.301097 1405.17422,211.763713 1423.22204,211.763713 C1431.66071,211.540511 1439.90952,214.284368 1446.52626,219.515551 C1452.48841,224.113334 1455.85497,231.304066 1455.56311,238.817629 L1455.56311,247.835601 C1445.17916,244.339506 1434.28439,242.592999 1423.32561,242.667709 C1401.40239,242.667709 1383.34593,247.835601 1369.15626,258.171386 C1354.96658,268.507171 1348.4414,284.010847 1348.4414,301.943434 C1348.4414,318.687405 1353.62011,331.555457 1365.19454,341.839562 C1376.76897,352.123668 1391.08811,355.999587 1407.73768,355.999587 C1424.38725,355.999587 1439.97518,349.565561 1455.45954,337.911964 L1455.45954,352.071989 L1499.29736,352.071989 L1499.29736,238.817629 C1499.29736,218.14606 1491.52929,201.479607 1478.5825,189.903528 L1478.55661,189.877689 Z M1398.62314,285.147784 C1403.80186,281.297704 1410.22346,279.979891 1419.338,279.979891 C1430.78339,280.364997 1442.09779,282.535961 1452.87018,286.413917 L1452.87018,303.157888 C1442.19749,312.529526 1428.39902,317.580237 1414.18518,317.317913 C1406.41711,317.317913 1399.9955,316.02594 1396.05968,312.150021 C1392.12386,308.274102 1389.61218,304.398183 1389.61218,299.23029 C1391.5394,293.902132 1394.62564,289.066245 1398.64904,285.070265 L1398.62314,285.147784 Z M1740.44422,357.162363 C1688.26316,357.183267 1641.20853,325.831931 1621.22519,277.729664 C1601.24185,229.627397 1612.2659,174.24891 1649.15608,137.421043 C1686.04626,100.593176 1741.53629,89.5699205 1789.74731,109.492187 C1837.95833,129.414453 1869.39421,176.35815 1869.39422,228.430166 C1869.13875,299.400982 1811.56355,356.878936 1740.44422,357.162363 L1740.44422,357.162363 Z M1740.44422,143.495855 C1706.52571,143.443596 1675.91694,163.789932 1662.89575,195.044065 C1649.87457,226.298197 1657.00637,262.302474 1680.96445,286.262254 C1704.92254,310.222034 1740.9867,317.41679 1772.33438,304.49044 C1803.68205,291.56409 1824.13715,261.063367 1824.15814,227.215711 C1824.20638,205.015289 1815.39195,183.709902 1799.6634,168.009372 C1783.93485,152.308842 1762.58757,143.506256 1740.34064,143.547534 L1740.44422,143.495855 Z" id="Shape"></path>
    </g>
  </g>
</svg>