<svg viewBox="0 0 2761 991" version="1.1" xmlns="http://www.w3.org/2000/svg" xmlns:xlink="http://www.w3.org/1999/xlink">
  <g id="discord" stroke="none" stroke-width="1" fill="none" fill-rule="evenodd">
    <g id="discord-logo-color-wordmark-1" transform="translate(166.411797, 163.000000)" fill="currentColor" fill-rule="nonzero">
      <path d="M354.349187,278.457552 C335.215619,278.457552 320.110171,294.939371 320.110171,315.457552 C320.110171,335.975734 335.551296,352.457552 354.349187,352.457552 C373.482755,352.457552 388.588203,335.975734 388.588203,315.457552 C388.588203,294.939371 373.147078,278.457552 354.349187,278.457552 Z M231.827219,278.457552 C212.693651,278.457552 197.588203,294.939371 197.588203,315.457552 C197.588203,335.975734 213.029328,352.457552 231.827219,352.457552 C250.960786,352.457552 266.066235,335.975734 266.066235,315.457552 C266.401911,294.939371 250.960786,278.457552 231.827219,278.457552 Z" id="Shape"></path>
      <path d="M517.788451,0.45755237 L69.2134785,0.45755237 C31.3858875,0.45755237 0.588202867,31.2634021 0.588202867,69.1010219 L0.588202867,517.79492 C0.588202867,555.63254 31.3858875,586.438389 69.2134785,586.438389 L448.828418,586.438389 L431.086273,525.161536 L473.935226,564.673387 L514.440877,601.841314 L586.748484,664.457552 L586.748484,69.1010219 C586.413727,31.2634021 555.616042,0.45755237 517.788451,0.45755237 Z M388.572078,434.083372 C388.572078,434.083372 376.52081,419.684986 366.478087,407.295676 C410.331312,394.906367 427.069184,367.783826 427.069184,367.783826 C413.344129,376.824673 400.288589,383.186751 388.572078,387.539751 C371.834206,394.571521 355.765849,398.924522 340.032249,401.938137 C307.895535,407.965369 278.43688,406.291138 253.330072,401.603291 C234.248897,397.919983 217.845783,392.89729 204.120728,387.204905 C196.421307,384.191289 188.05237,380.507981 179.683434,375.820134 C178.679162,375.150442 177.67489,374.815596 176.670617,374.145903 C176.001103,373.811057 175.666345,373.476211 175.331588,373.476211 C169.305954,370.127749 165.958379,367.783826 165.958379,367.783826 C165.958379,367.783826 182.026736,394.236675 224.540932,406.96083 C214.498208,419.684986 202.112183,434.418218 202.112183,434.418218 C128.130788,432.074295 100.011163,383.856443 100.011163,383.856443 C100.011163,277.040507 148.216235,190.315344 148.216235,190.315344 C196.421307,154.486801 241.948319,155.49134 241.948319,155.49134 L245.295893,159.509494 C185.039553,176.58665 157.589443,203.039499 157.589443,203.039499 C157.589443,203.039499 164.954107,199.021345 177.340132,193.663806 C213.159179,177.926034 241.613561,173.90788 253.330072,172.568495 C255.338616,172.233649 257.012404,171.898803 259.020948,171.898803 C279.441152,169.220033 302.539416,168.550341 326.641951,171.229111 C358.443908,174.912419 392.589168,184.288112 427.403942,203.039499 C427.403942,203.039499 400.958104,177.926034 344.049338,160.848879 L348.735943,155.49134 C348.735943,155.49134 394.597712,154.486801 442.468026,190.315344 C442.468026,190.315344 490.673098,277.040507 490.673098,383.856443 C490.673098,383.521597 462.553473,431.739448 388.572078,434.083372 L388.572078,434.083372 Z M894.055816,172.771723 L782.916345,172.771723 L782.916345,297.669353 L856.89774,364.303745 L856.89774,243.089423 L896.399118,243.089423 C921.505926,243.089423 933.891951,255.143886 933.891951,274.564965 L933.891951,367.317361 C933.891951,386.73844 922.175441,399.797441 896.399118,399.797441 L782.581588,399.797441 L782.581588,470.452777 L893.721058,470.449988 C953.307883,470.784834 1009.21238,440.983523 1009.21238,372.6749 L1009.21238,272.890734 C1009.54713,203.242726 953.642641,172.771723 894.055816,172.771723 L894.055816,172.771723 Z M1476.53377,372.6749 L1476.53377,270.211965 C1476.53377,233.378884 1542.81574,225.007729 1562.90119,261.84081 L1624.1618,237.062192 C1600.05926,184.156493 1556.20604,168.753569 1519.71748,168.753569 C1460.13065,168.753569 1401.21334,203.242726 1401.21334,270.211965 L1401.21334,372.6749 C1401.21334,440.313831 1460.13065,474.133296 1518.37845,474.133296 C1555.87128,474.133296 1600.72878,455.716756 1625.50083,407.498904 L1559.88837,377.362747 C1543.82001,418.548828 1476.53377,408.503442 1476.53377,372.6749 Z M1274.00551,284.275505 C1250.90725,279.252812 1235.50841,270.881657 1234.50413,256.483271 C1235.84316,221.994113 1289.0696,220.654728 1320.20204,253.804501 L1369.41138,215.966882 C1338.6137,178.464108 1303.79893,168.418722 1267.97988,168.418722 C1213.41442,168.418722 1160.52274,199.224572 1160.52274,257.48781 C1160.52274,314.076816 1204.04121,344.54782 1251.91152,351.914436 C1276.34881,355.262898 1303.46417,364.973437 1302.79465,381.715747 C1300.78611,413.526135 1235.17365,411.851904 1205.38024,375.688516 L1157.84468,420.223059 C1185.62955,456.051602 1223.45714,474.133296 1258.94143,474.133296 C1313.50689,474.133296 1374.09799,442.657754 1376.44129,385.064209 C1379.78886,312.402585 1326.89719,293.986045 1274.00551,284.275505 Z M1049.71803,470.115142 L1124.70369,470.115142 L1124.70369,172.771723 L1049.71803,172.771723 L1049.71803,470.115142 Z M2314.09689,172.771723 L2202.95741,172.771723 L2202.95741,297.669353 L2276.93881,364.303745 L2276.93881,243.089423 L2316.44019,243.089423 C2341.547,243.089423 2353.93302,255.143886 2353.93302,274.564965 L2353.93302,367.317361 C2353.93302,386.73844 2342.21651,399.797441 2316.44019,399.797441 L2202.62266,399.797441 L2202.62266,470.452777 L2314.09689,470.449988 C2373.68371,470.784834 2429.5882,440.983523 2429.5882,372.6749 L2429.5882,272.890734 C2429.5882,203.242726 2373.68371,172.771723 2314.09689,172.771723 L2314.09689,172.771723 Z M1768.77701,168.753569 C1707.18164,168.753569 1645.92103,202.238188 1645.92103,270.881657 L1645.92103,372.340054 C1645.92103,440.313831 1707.5164,474.468142 1769.44653,474.468142 C1831.0419,474.468142 1892.30251,440.313831 1892.30251,372.340054 L1892.30251,270.881657 C1892.30251,202.573034 1830.37238,168.753569 1768.77701,168.753569 Z M1816.98208,372.340054 C1816.98208,393.77021 1792.87955,404.820134 1769.11177,404.820134 C1745.00923,404.820134 1720.9067,394.439902 1720.9067,372.340054 L1720.9067,270.881657 C1720.9067,249.116655 1744.33972,237.397038 1767.77274,237.397038 C1792.21003,237.397038 1816.98208,247.77727 1816.98208,270.881657 L1816.98208,372.340054 Z M2161.44749,270.881657 C2159.7737,201.233649 2112.23815,173.106569 2050.97754,173.106569 L1932.13864,173.106569 L1932.13864,470.449988 L2008.12858,470.449988 L2008.12858,376.023362 L2021.51888,376.023362 L2090.47891,470.449988 L2184.211,470.449988 L2103.1997,368.321899 C2139.01874,356.937129 2161.44749,325.796433 2161.44749,270.881657 Z M2052.31657,311.0632 L2008.12858,311.0632 L2008.12858,243.089423 L2052.31657,243.089423 C2099.51736,243.089423 2099.51736,311.0632 2052.31657,311.0632 Z" id="Shape"></path>
    </g>
  </g>
</svg>