<svg viewBox="0 0 2761 991" version="1.1" xmlns="http://www.w3.org/2000/svg" xmlns:xlink="http://www.w3.org/1999/xlink">
  <g id="dribbble" stroke="none" stroke-width="1" fill="none" fill-rule="evenodd">
    <g transform="translate(275.000000, 226.000000)" fill="currentColor" fill-rule="nonzero" id="Shape">
      <path d="M676.211313,216.865556 C701.505429,216.865556 722.00834,196.386203 722.00834,171.127473 C722.00834,145.864434 701.505429,125.389391 676.211313,125.389391 C650.917196,125.389391 630.414286,145.864434 630.414286,171.127473 C630.414286,196.386203 650.917196,216.865556 676.211313,216.865556 Z M2187.64269,373.136978 C2180.67601,368.24555 2175.29778,367.43534 2170.83462,376.93376 C2093.91633,543.268163 1964.29477,460.264727 1977.1706,467.569547 C2005.92216,454.43811 2081.54121,393.887837 2070.11137,310.281053 C2063.1706,259.186103 2019.24689,236.521769 1972.62543,244.636799 C1891.24398,258.802546 1861.30542,346.443142 1876.54663,424.033685 C1879.21417,437.359054 1883.97948,448.348606 1888.74047,459.114057 C1796.77521,533.782672 1760.25413,392.271726 1756.11038,375.360746 C1755.94636,374.455724 1827.11951,315.224196 1846.91453,174.079569 C1867.66348,26.1515864 1820.39888,-0.78358876 1772.06812,0.0567887056 C1682.63227,1.61256442 1658.46473,188.180671 1690.93271,343.672051 C1688.21338,344.37883 1675.55769,351.377666 1655.22311,352.162018 C1640.59051,306.191216 1578.06743,265.896194 1561.70395,281.423783 C1520.74992,320.266461 1571.63599,396.206416 1607.44054,402.162322 C1585.93191,534.429116 1451.41987,501.671634 1476.45932,335.962126 C1520.26217,254.747186 1553.57616,133.987099 1547.63248,61.0854312 C1545.52607,35.275069 1526.41304,0.694613654 1483.18859,2.40984561 C1400.05037,5.69378217 1391.01182,192.313605 1400.75826,324.765713 C1400.27482,321.503324 1395.64764,340.857864 1361.57828,350.481263 C1353.51955,305.820588 1281.49607,260.991837 1264.54124,282.544287 C1232.80274,322.882405 1287.80665,394.805787 1313.86045,399.822194 C1292.35182,532.084679 1157.8441,499.327196 1182.88355,333.617689 C1226.68639,252.407058 1259.99607,131.646971 1254.05238,58.7453032 C1251.94598,32.9306313 1232.83727,-1.64982399 1189.6085,0.0610983336 C1106.47028,3.34934452 1097.43173,189.969167 1107.17817,322.421275 C1106.69041,319.107171 1101.95532,339.099535 1066.49608,348.563479 C1065.30907,290.62053 993.022281,264.051673 975.657395,282.539977 C944.708792,315.495703 982.744927,383.113766 1017.93224,399.822194 C996.423606,532.084679 861.915882,499.327196 886.955331,333.617689 C930.75818,252.407058 964.072172,131.646971 958.124169,58.7453032 C956.022082,32.9306313 936.909053,-1.64982399 893.680286,0.0610983336 C810.54638,3.34934452 803.855957,199.351227 813.602393,331.799026 C786.219138,448.939025 694.387682,595.225039 706.318218,302.183262 C707.496596,281.626336 708.782883,273.8216 698.518479,266.124604 C690.826651,260.14284 673.336589,263.021672 663.775758,263.258701 C652.156004,263.724141 649.242432,270.511805 646.674173,280.77303 C640.69164,307.268623 639.616856,332.954006 638.762208,367.999901 C638.201076,384.393726 636.884573,392.043316 630.561044,414.397356 C624.246148,436.747087 588.217139,477.598051 568.491181,470.767291 C541.125192,461.372302 550.103308,384.238579 555.231194,331.243084 C559.504432,289.362118 545.821437,270.554902 510.763619,263.715522 C490.239127,259.444681 477.769041,260.099744 456.394218,253.372415 C436.180506,247.011404 431.609437,208.836719 388.497212,221.558741 C364.916707,228.523099 380.075911,278.407044 374.408475,315.379343 C346.5461,497.249955 288.572502,502.244814 261.677001,413.897439 C382.808194,117.692395 296.717553,0.918714311 246.323558,0.918714311 C193.836108,0.918714311 133.838119,37.0161587 159.244462,267.977744 C146.890919,264.379205 143.092485,262.439872 129.569197,262.439872 C53.0868673,262.439872 0.979260689,324.170984 0.979260689,400.322111 C0.979260689,476.473238 53.0911837,538.20866 129.573513,538.20866 C174.72308,538.20866 206.422737,517.707759 230.430566,485.993207 C246.094789,508.390344 265.16897,538.55343 300.049816,537.195897 C404.018994,533.153466 434.255391,320.219055 437.825056,308.34172 C448.939791,310.052642 459.454547,313.289173 469.718951,315.000095 C486.820536,317.564324 488.06366,324.321821 487.675184,341.495689 C483.142962,486.316429 509.908971,537.023512 570.623484,537.023512 C604.451127,537.023512 634.601196,503.839376 655.371723,480.110565 C670.884873,512.079385 695.604908,536.045227 728.767825,537.019203 C809.126284,539.01456 839.893598,411.134968 837.087937,427.964065 C834.886572,441.168766 863.159006,536.299495 945.887169,536.644265 C1048.36287,537.075228 1067.41116,424.559459 1069.68158,405.713456 C1069.96647,401.964079 1070.09164,402.351946 1069.68158,405.713456 L1069.60389,406.855507 C1102.13661,400.813409 1118.9231,383.398202 1118.9231,383.398202 C1118.9231,383.398202 1145.04596,538.393974 1241.81107,536.648575 C1342.29691,534.829912 1361.24591,433.12269 1363.73216,413.289782 C1364.06021,408.583668 1364.25445,409.135301 1363.73216,413.289782 C1363.71857,413.483672 1363.70562,413.677606 1363.69331,413.871582 C1402.33806,399.835123 1412.50319,385.746949 1412.50319,385.746949 C1412.50319,385.746949 1433.26508,537.661337 1535.39116,538.988703 C1626.39818,540.17816 1660.12655,447.128981 1660.3251,408.182873 C1675.67423,408.346639 1704.06752,399.089558 1703.4028,398.563783 C1703.4028,398.563783 1736.73837,531.386519 1829.83021,538.20866 C1873.5381,541.410714 1906.32549,513.652399 1925.01551,500.990712 C1968.93922,536.506357 2115.20051,581.869502 2207.55425,425.537745 C2220.58978,403.101821 2192.56338,376.597609 2187.64269,373.136978 Z M125.882989,486.639651 C81.2600241,486.639651 52.6465943,445.443917 52.6465943,401.024581 C52.6465943,356.609554 78.9119013,315.41382 123.534867,315.41382 C143.614769,315.41382 154.785618,317.620349 170.423943,331.199987 C173.259819,342.357614 181.29696,368.094713 185.20762,379.782424 C190.447733,395.422064 196.680617,408.734505 202.965299,423.223475 C193.987182,460.385397 164.553636,486.639651 125.882989,486.639651 Z M234.621792,332.505805 C232.765739,329.553709 233.154215,331.368063 231.078026,328.579733 C222.898444,306.363601 207.134943,256.777021 205.309105,200.454492 C203.245865,136.740951 213.88148,62.0594072 245.235825,62.0594072 C266.481156,62.0594072 289.060256,213.413544 234.617476,332.505805 L234.621792,332.505805 Z M862.921604,266.120294 C857.888679,228.311928 857.625378,59.7623754 898.152078,64.4038448 C920.528307,73.4540637 883.964064,232.500886 862.921604,266.120294 Z M1158.84982,266.120294 C1153.81689,228.311928 1153.55359,59.7623754 1194.08029,64.4038448 C1216.45652,73.4540637 1179.89228,232.500886 1158.84982,266.120294 Z M1452.42991,268.469042 C1447.39267,230.656365 1447.13368,62.1068131 1487.65607,66.7482825 C1510.0323,75.7985013 1473.46805,234.849633 1452.42991,268.469042 Z M1776.53991,54.5391063 C1813.59191,50.7035373 1812.0639,212.254254 1737.69229,314.245911 C1728.10125,277.381352 1713.39527,67.1964838 1776.53991,54.5347966 L1776.53991,54.5391063 Z M1932.2757,402.162322 C1920.37538,342.142133 1951.12543,302.721965 1982.82509,298.399408 C1993.90529,296.632461 2009.96231,303.799372 2013.16508,317.198006 C2018.43109,342.448116 2012.40108,379.903094 1941.45237,427.425362 C1941.55597,427.830467 1934.93029,415.530788 1932.28002,402.162322 L1932.2757,402.162322 Z"></path>
    </g>
  </g>
</svg>