<svg viewBox="0 0 2761 991" version="1.1" xmlns="http://www.w3.org/2000/svg" xmlns:xlink="http://www.w3.org/1999/xlink">
  <g id="facebook" stroke="none" stroke-width="1" fill="none" fill-rule="evenodd">
    <g transform="translate(170.000000, 261.000000)" fill="currentColor" fill-rule="nonzero">
      <path d="M189.679012,74.082367 C161.283951,74.082367 152.765432,86.5571517 152.765432,114.3419 L152.765432,160.271789 L228.864198,160.271789 L221.481481,235.120497 L152.765432,235.120497 L152.765432,461.36773 L61.3333333,461.36773 L61.3333333,235.120497 L0,235.120497 L0,160.838825 L61.3333333,160.838825 L61.3333333,116.043007 C61.3333333,40.0602268 92,0.367729831 176.617284,0.367729831 C194.222222,0.367729831 212.395062,1.50180117 230,3.76994385 L230,74.082367" id="_Path_"></path>
      <path d="M234.56654,301.732351 C234.56654,217.847874 274.224335,154.36773 358.072243,154.36773 C403.395437,154.36773 431.155894,177.605997 444.752852,207.078921 L444.752852,161.169174 L532,161.169174 L532,462.133073 L444.186312,462.133073 L444.186312,416.790113 C431.722433,445.69625 402.828897,468.36773 357.505703,468.36773 C274.224335,468.36773 234,405.454372 234,321.003109 L234.56654,301.732351 Z M325.779468,322.136683 C325.779468,366.912856 342.209125,396.952567 384.69962,396.952567 C422.091255,396.952567 440.787072,369.746791 440.787072,326.670979 L440.787072,296.064481 C440.787072,252.988668 421.524715,225.782892 384.69962,225.782892 C342.209125,225.782892 325.779468,255.255816 325.779468,300.598777 L325.779468,322.136683 L325.779468,322.136683 Z" id="_Compound_Path_"></path>
      <path d="M721.565421,154.36773 C756.766355,154.36773 790.831776,161.735961 809,174.772062 L788.560748,239.38578 C769.824766,230.317188 748.817757,225.782892 727.810748,225.782892 C678.415888,225.782892 656.841121,254.122242 656.841121,302.865925 L656.841121,320.436322 C656.841121,369.180004 678.415888,397.519354 727.810748,397.519354 C748.817757,397.519354 769.824766,392.418271 788.560748,383.349679 L809,447.963398 C790.831776,460.432712 757.334112,468.36773 721.565421,468.36773 C614.259346,468.36773 566,411.122242 566,318.735961 L566,304.566286 C566,212.180004 614.259346,154.36773 721.565421,154.36773" id="_Path_2"></path>
      <path d="M821,321.935297 L821,295.259622 C821,209.556919 869.773547,153.36773 969.022044,153.36773 C1062.5992,153.36773 1104,210.124487 1104,294.124487 L1104,342.36773 L912.308617,342.36773 C914.01002,383.800162 932.725451,401.962324 983.200401,401.962324 C1016.09419,401.962324 1048.98798,395.719081 1080.18036,383.800162 L1096.62725,446.232595 C1072.80762,458.719081 1023.46693,468.36773 979.797595,468.36773 C864.102204,467.800162 821,410.475838 821,321.935297 M912.308617,282.205568 L1022.33267,282.205568 L1022.33267,274.827189 C1022.33267,241.90827 1009.28858,215.800162 969.022044,215.800162 C928.188377,215.800162 912.308617,241.90827 912.308617,282.205568" id="_Compound_Path_2"></path>
      <path d="M1441.43396,320.834315 C1441.43396,404.814874 1401.24528,468.36773 1317.4717,468.36773 C1272.18868,468.36773 1240.49057,445.670281 1228.03774,416.731035 L1228.03774,462.125932 L1142,462.125932 L1142,9.31183676 L1233.13208,1.36772983 L1233.13208,202.807584 C1246.15094,176.138082 1275.58491,154.575506 1318.03774,154.575506 C1401.24528,154.575506 1442,217.560925 1442,302.108921 L1441.43396,320.834315 Z M1350.30189,299.839176 C1350.30189,257.28146 1333.88679,225.505032 1290.30189,225.505032 C1252.9434,225.505032 1233.13208,252.174534 1233.13208,295.299686 L1233.13208,327.076114 C1233.13208,370.201266 1253.50943,396.870767 1290.30189,396.870767 C1333.88679,396.870767 1350.30189,365.09434 1350.30189,322.536624 L1350.30189,299.839176 Z" id="_Compound_Path_3"></path>
      <path d="M1472,318.033191 L1472,302.702269 C1472,215.827043 1521.26705,153.36773 1621.5,153.36773 C1721.73295,153.36773 1771,215.827043 1771,302.702269 L1771,318.033191 C1771,404.908417 1721.73295,467.36773 1621.5,467.36773 C1521.26705,467.36773 1472,405.476229 1472,318.033191 L1472,318.033191 Z M1680.39394,296.456337 C1680.39394,256.709502 1663.97159,224.912034 1621.5,224.912034 C1579.02841,224.912034 1562.60606,256.709502 1562.60606,296.456337 L1562.60606,324.846934 C1562.60606,364.59377 1579.02841,396.391238 1621.5,396.391238 C1663.97159,396.391238 1680.39394,364.59377 1680.39394,324.846934 L1680.39394,296.456337 L1680.39394,296.456337 Z" id="_Compound_Path_4"></path>
      <path d="M1803,318.033191 L1803,302.702269 C1803,215.827043 1852.26705,153.36773 1952.5,153.36773 C2052.73295,153.36773 2102,215.827043 2102,302.702269 L2102,318.033191 C2102,404.908417 2052.73295,467.36773 1952.5,467.36773 C1852.26705,467.36773 1803,405.476229 1803,318.033191 L1803,318.033191 Z M2011.39394,296.456337 C2011.39394,256.709502 1994.97159,224.912034 1952.5,224.912034 C1910.02841,224.912034 1893.60606,256.709502 1893.60606,296.456337 L1893.60606,324.846934 C1893.60606,364.59377 1910.02841,396.391238 1952.5,396.391238 C1994.97159,396.391238 2011.39394,364.59377 2011.39394,324.846934 L2011.39394,296.456337 L2011.39394,296.456337 Z" id="_Compound_Path_5"></path>
      <polyline id="_Path_3" points="2226.64516 303.731813 2316.72379 159.704753 2413.03427 159.704753 2318.98992 308.835135 2417 461.36773 2320.12298 461.36773 2226.64516 313.938456 2226.64516 461.36773 2136 461.36773 2136 8.87326489 2226.64516 0.367729831"></polyline>
    </g>
  </g>
</svg>