<svg viewBox="0 0 2761 991" version="1.1" xmlns="http://www.w3.org/2000/svg" xmlns:xlink="http://www.w3.org/1999/xlink">
  <g id="intercom" stroke="none" stroke-width="1" fill="none" fill-rule="evenodd">
    <g id="intercom-1" transform="translate(170.000000, 184.000000)" fill="currentColor" fill-rule="nonzero">
      <path d="M822.911244,400.893406 L822.911244,221.493406 C822.911244,210.453406 831.878425,201.483406 842.914954,201.483406 C853.951484,201.483406 862.918664,210.453406 862.918664,221.493406 L862.918664,400.893406 C862.918664,411.933406 853.951484,420.903406 842.914954,420.903406 C832.568208,420.903406 822.911244,411.933406 822.911244,400.893406 Z M1051.91924,408.483406 L965.006564,269.793406 L965.006564,400.893406 C965.006564,411.933406 956.039384,420.903406 945.002854,420.903406 C933.966324,420.903406 924.999144,411.933406 924.999144,400.893406 L924.999144,227.013406 C924.999144,212.523406 936.725457,200.103406 951.900685,200.103406 L953.280251,200.103406 C962.247432,200.103406 971.214612,204.933406 976.043094,212.523406 L1062.26598,349.143406 L1062.26598,220.113406 C1062.26598,209.073406 1071.23316,200.103406 1082.26969,200.103406 C1093.30622,200.103406 1102.2734,209.073406 1102.2734,220.113406 L1102.2734,393.993406 C1102.2734,408.483406 1090.54709,420.903406 1075.37186,420.903406 C1065.7149,420.903406 1056.74772,416.763406 1051.91924,408.483406 Z M1241.60959,238.743406 L1241.60959,402.963406 C1241.60959,413.313406 1233.33219,421.593406 1222.98545,421.593406 L1220.22631,421.593406 C1209.87957,421.593406 1201.60217,413.313406 1201.60217,402.963406 L1201.60217,238.743406 L1155.3867,238.743406 C1145.03995,238.743406 1136.76256,230.463406 1136.76256,220.113406 C1136.76256,209.763406 1145.03995,201.483406 1155.3867,201.483406 L1288.51484,201.483406 C1298.86159,201.483406 1307.13898,209.763406 1307.13898,220.113406 C1307.13898,230.463406 1298.86159,238.743406 1288.51484,238.743406 L1241.60959,238.743406 Z M1338.86901,402.963406 L1338.86901,218.733406 C1338.86901,209.073406 1347.1464,200.793406 1356.80337,200.793406 L1477.51541,200.793406 C1487.17237,200.793406 1495.44977,209.073406 1495.44977,218.733406 C1495.44977,228.393406 1487.17237,236.673406 1477.51541,236.673406 L1378.87643,236.673406 L1378.87643,287.733406 L1463.71975,287.733406 C1473.37671,287.733406 1481.65411,296.013406 1481.65411,305.673406 C1481.65411,315.333406 1473.37671,323.613406 1463.71975,323.613406 L1378.87643,323.613406 L1378.87643,383.643406 L1477.51541,383.643406 C1487.17237,383.643406 1495.44977,391.923406 1495.44977,401.583406 C1495.44977,411.243406 1487.17237,419.523406 1477.51541,419.523406 L1356.80337,419.523406 C1347.1464,420.903406 1338.86901,413.313406 1338.86901,402.963406 L1338.86901,402.963406 Z M1664.44663,409.173406 L1632.71661,338.103406 L1583.74201,338.103406 L1583.74201,401.583406 C1583.74201,412.623406 1574.77483,421.593406 1563.7383,421.593406 L1563.04852,421.593406 C1552.01199,421.593406 1543.04481,412.623406 1543.04481,401.583406 L1543.04481,221.493406 C1543.04481,210.453406 1552.01199,201.483406 1563.04852,201.483406 L1636.16553,201.483406 C1688.58904,201.483406 1712.73145,234.603406 1712.73145,269.793406 C1712.73145,299.463406 1696.86644,322.233406 1672.72403,331.203406 L1700.31535,393.303406 C1705.83362,406.413406 1696.86644,420.903406 1682.38099,420.903406 C1674.79338,420.903406 1667.20576,416.763406 1664.44663,409.173406 L1664.44663,409.173406 Z M1636.85531,235.983406 L1584.43179,235.983406 L1584.43179,301.533406 L1637.54509,301.533406 C1660.30793,301.533406 1673.41381,289.803406 1673.41381,269.103406 C1672.72403,251.853406 1659.61815,235.983406 1636.85531,235.983406 L1636.85531,235.983406 Z M1903.11159,398.823406 C1886.55679,415.383406 1863.79395,425.043406 1840.34132,425.043406 C1816.8887,425.043406 1794.81564,417.453406 1778.26084,400.203406 C1754.11844,376.053406 1750.66952,347.073406 1750.66952,311.193406 C1750.66952,275.313406 1754.11844,245.643406 1778.26084,222.183406 C1794.81564,205.623406 1816.8887,197.343406 1840.34132,197.343406 C1863.79395,197.343406 1886.55679,206.313406 1903.11159,222.873406 C1908.62985,229.083406 1913.45833,235.293406 1916.90725,242.883406 C1923.1153,255.993406 1913.45833,270.483406 1898.97289,270.483406 C1890.69549,270.483406 1883.79766,265.653406 1880.34874,258.063406 C1878.96918,253.923406 1876.21005,250.473406 1873.45091,247.023406 C1866.55308,238.053406 1854.13699,233.223406 1840.34132,233.223406 C1827.92523,233.223406 1815.50913,238.743406 1806.54195,247.713406 C1791.36672,263.583406 1791.36672,290.493406 1791.36672,311.193406 C1791.36672,331.203406 1791.36672,358.803406 1806.54195,374.673406 C1815.50913,383.643406 1827.92523,389.163406 1840.34132,389.163406 C1854.13699,389.163406 1866.55308,384.333406 1873.45091,375.363406 C1876.21005,371.913406 1878.96918,367.773406 1880.34874,363.633406 C1883.10788,356.043406 1890.69549,351.213406 1898.97289,351.213406 C1913.45833,351.213406 1923.1153,365.703406 1916.90725,378.813406 C1913.45833,386.403406 1908.62985,393.303406 1903.11159,398.823406 Z M2117.63413,400.203406 C2101.07934,416.763406 2077.62671,425.043406 2054.17409,425.043406 C2030.72146,425.043406 2007.95862,416.763406 1990.71404,400.203406 C1966.57163,376.053406 1963.12272,347.073406 1963.12272,311.193406 C1963.12272,275.313406 1967.26142,245.643406 1990.71404,222.183406 C2007.26884,205.623406 2030.72146,197.343406 2054.17409,197.343406 C2077.62671,197.343406 2100.38955,205.623406 2117.63413,222.183406 C2141.77654,246.333406 2145.22546,275.313406 2145.22546,311.193406 C2145.91524,347.073406 2141.77654,376.743406 2117.63413,400.203406 Z M2089.35303,248.403406 C2080.38584,239.433406 2067.27997,233.913406 2054.86387,233.913406 C2042.44777,233.913406 2028.65211,239.433406 2020.37471,248.403406 C2005.19949,264.273406 2004.5097,291.183406 2004.5097,311.883406 C2004.5097,331.893406 2005.19949,358.803406 2020.37471,374.673406 C2029.34189,383.643406 2042.44777,389.163406 2054.86387,389.163406 C2067.27997,389.163406 2081.07563,383.643406 2089.35303,374.673406 C2104.52825,358.803406 2105.21804,331.893406 2105.21804,311.883406 C2105.21804,291.183406 2104.52825,263.583406 2089.35303,248.403406 L2089.35303,248.403406 Z M2377.68236,401.583406 L2377.68236,264.273406 L2325.94863,404.343406 C2323.1895,412.623406 2314.9121,418.143406 2305.94492,418.143406 C2296.97774,418.143406 2289.39013,412.623406 2285.94121,404.343406 L2234.20748,262.203406 L2234.20748,401.583406 C2234.20748,412.623406 2225.2403,420.903406 2214.89355,420.903406 C2203.85702,420.903406 2195.57962,411.933406 2195.57962,401.583406 L2195.57962,231.153406 C2195.57962,214.593406 2209.37529,200.793406 2225.93008,200.793406 L2228.68921,200.793406 C2241.10531,200.793406 2252.83162,208.383406 2256.97032,220.803406 L2307.32449,357.423406 L2358.36844,220.803406 C2362.50713,209.073406 2374.23345,200.793406 2386.64954,200.793406 C2403.20434,200.793406 2417,214.593406 2417,231.153406 L2417,401.583406 C2417,412.623406 2408.03282,420.903406 2397.68607,420.903406 C2385.95976,420.903406 2377.68236,412.623406 2377.68236,401.583406 L2377.68236,401.583406 Z M543.549087,0.693405652 L77.9454909,0.693405652 C34.4891553,0.693405652 0,35.1934057 0,77.9734057 L0,543.723406 C0,587.193406 34.4891553,621.693406 77.9454909,621.693406 L543.549087,621.693406 C586.315639,621.693406 620.804795,587.193406 620.804795,544.413406 L620.804795,78.6634057 C620.804795,35.1934057 586.315639,0.693405652 543.549087,0.693405652 Z M393.17637,114.543406 C393.17637,102.813406 402.14355,93.8434057 413.869863,93.8434057 C425.596176,93.8434057 434.563356,102.813406 434.563356,114.543406 L434.563356,391.233406 C434.563356,402.963406 425.596176,411.933406 413.869863,411.933406 C402.14355,411.933406 393.17637,402.963406 393.17637,391.233406 L393.17637,114.543406 Z M289.708904,104.193406 C289.708904,92.4634057 298.676084,83.4934057 310.402397,83.4934057 C322.12871,83.4934057 331.09589,92.4634057 331.09589,104.193406 L331.09589,404.343406 C331.09589,416.073406 322.12871,425.043406 310.402397,425.043406 C298.676084,425.043406 289.708904,416.073406 289.708904,404.343406 L289.708904,104.193406 Z M186.241438,114.543406 C186.241438,102.813406 195.208619,93.8434057 206.934932,93.8434057 C218.661244,93.8434057 227.628425,102.813406 227.628425,114.543406 L227.628425,391.233406 C227.628425,402.963406 218.661244,411.933406 206.934932,411.933406 C195.208619,411.933406 186.241438,402.963406 186.241438,391.233406 L186.241438,114.543406 Z M82.7739726,155.943406 C82.7739726,144.213406 91.741153,135.243406 103.467466,135.243406 C115.193779,135.243406 124.160959,144.213406 124.160959,155.943406 L124.160959,342.243406 C124.160959,353.973406 115.193779,362.943406 103.467466,362.943406 C91.741153,362.943406 82.7739726,353.973406 82.7739726,342.243406 L82.7739726,155.943406 Z M531.132991,471.963406 C527.684075,474.723406 451.118151,538.893406 310.402397,538.893406 C169.686644,538.893406 93.1207192,474.723406 89.6718037,471.963406 C80.7046233,464.373406 80.0148402,451.263406 87.6024543,442.983406 C95.1900685,434.013406 108.295947,433.323406 116.573345,440.913406 C117.952911,440.913406 186.241438,497.493406 310.402397,497.493406 C435.942922,497.493406 503.541667,440.913406 503.541667,440.223406 C512.508847,432.633406 525.614726,434.013406 532.512557,442.293406 C540.789954,451.263406 539.410388,464.373406 531.132991,471.963406 Z M538.030822,342.243406 C538.030822,353.973406 529.063642,362.943406 517.337329,362.943406 C505.611016,362.943406 496.643836,353.973406 496.643836,342.243406 L496.643836,155.943406 C496.643836,144.213406 505.611016,135.243406 517.337329,135.243406 C529.063642,135.243406 538.030822,144.213406 538.030822,155.943406 L538.030822,342.243406 Z" id="Shape"></path>
    </g>
  </g>
</svg>