<?xml version="1.0" encoding="UTF-8"?>
<svg width="2761px" height="991px" viewBox="0 0 2761 991" version="1.1" xmlns="http://www.w3.org/2000/svg" xmlns:xlink="http://www.w3.org/1999/xlink">
    <!-- Generator: Sketch 53.2 (72643) - https://sketchapp.com -->
    <title>linkedin</title>
    <desc>Created with Sketch.</desc>
    <g id="linkedin" stroke="none" stroke-width="1" fill="none" fill-rule="evenodd">
        <g transform="translate(220.000000, 188.000000)" fill-rule="nonzero">
            <path d="M1710.07147,44.2832523 C1710.07147,20.0044516 1730.29621,0.299567506 1755.23038,0.299567506 L2275.91257,0.299567506 C2300.8548,0.299567506 2321.07147,20.0044516 2321.07147,44.2832523 L2321.07147,570.323935 C2321.07147,594.610789 2300.8548,614.299568 2275.91257,614.299568 L1755.23038,614.299568 C1730.29621,614.299568 1710.07147,594.610789 1710.07147,570.331988 L1710.07147,44.2751997 L1710.07147,44.2832523 Z" id="Path" fill="#006699"></path>
            <path d="M0.0714744759,514.299568 L254.894825,514.299568 L254.894825,430.677132 L92.3059224,430.677132 L92.3059224,111.676309 L0.0714744759,111.676309 L0.0714744759,514.299568 Z M383.910227,514.299568 L383.910227,236.981089 L291.683838,236.981089 L291.683838,514.299568 L383.910227,514.299568 Z M337.805091,199.12466 C369.96022,199.12466 389.978601,177.828405 389.978601,151.200032 C389.38224,123.99173 369.96022,103.299568 338.41757,103.299568 C306.866861,103.299568 286.236001,123.999785 286.236001,151.200032 C286.236001,177.828405 306.254382,199.12466 337.200671,199.12466 L337.805091,199.12466 L337.805091,199.12466 Z M426.727319,514.299568 L518.953708,514.299568 L518.953708,359.4265 C518.953708,351.138359 519.550069,342.850217 521.991924,336.946225 C528.6486,320.386051 543.823564,303.22984 569.305899,303.22984 C602.685985,303.22984 616.039631,328.666138 616.039631,365.92653 L616.039631,514.291513 L708.249902,514.291513 L708.249902,355.286457 C708.249902,270.101437 662.749187,230.464951 602.065448,230.464951 C552.317676,230.464951 530.469918,258.261235 518.33317,277.197504 L518.953708,277.197504 L518.953708,236.981089 L426.727319,236.981089 C427.944217,263.00537 426.727319,514.299568 426.727319,514.299568 L426.727319,514.299568 Z M838.361319,111.676309 L746.13493,111.676309 L746.13493,514.299568 L838.361319,514.299568 L838.361319,424.386521 L861.409857,395.382053 L933.617865,514.299568 L1047.07147,514.299568 L925.736232,342.14947 L1031.90457,225.036178 L920.884757,225.036178 C920.884757,225.036178 845.042171,329.809886 838.361319,342.246125 L838.361319,111.676309 Z" id="Shape" fill="#000000"></path>
            <path d="M1294.43689,399.153532 C1295.65493,392.035728 1297.47794,378.379849 1297.47794,362.936468 C1297.47794,291.275314 1261.03372,218.519112 1165.08327,218.519112 C1062.44574,218.519112 1015.07147,299.544528 1015.07147,373.033444 C1015.07147,463.922333 1072.7708,520.679578 1173.57725,520.679578 C1213.66751,520.679578 1250.70059,514.785649 1281.07885,502.361698 L1268.93077,441.50608 C1244.02157,449.751138 1218.51545,453.88172 1186.94336,453.88172 C1143.82817,453.88172 1106.18204,436.207985 1103.14099,398.557698 L1294.43689,399.137429 L1294.43689,399.153532 L1294.43689,399.153532 Z M1102.53601,336.81638 C1104.96401,313.160147 1120.76619,278.255529 1160.23534,278.255529 C1202.13249,278.255529 1211.86063,315.519329 1211.86063,336.81638 L1102.54408,336.81638 L1102.53601,336.81638 Z M1525.331,112.307619 L1525.331,251.636228 L1524.11297,251.636228 C1510.74686,232.134732 1482.81273,219.122998 1445.78772,219.122998 C1374.72228,219.122998 1312.17502,275.888295 1312.77194,372.864356 C1312.77194,462.75482 1369.2613,521.299568 1439.69755,521.299568 C1477.9648,521.299568 1514.39289,504.728932 1532.62307,472.795433 L1534.43802,472.795433 L1538.09213,514.793701 L1620.07147,514.793701 C1618.86151,495.276101 1617.63541,461.571203 1617.63541,428.454088 L1617.63541,112.299568 L1525.32293,112.299568 L1525.331,112.307619 Z M1525.331,386.471924 C1525.331,393.557521 1524.72602,400.667274 1523.49992,406.561202 C1518.05506,432.004938 1496.18691,449.726983 1469.46276,449.726983 C1431.21164,449.726983 1406.30244,418.985153 1406.30244,370.497122 C1406.30244,324.97216 1427.57367,288.304194 1470.07581,288.304194 C1498.61491,288.304194 1518.65198,307.813742 1524.12103,332.049705 C1525.331,337.388059 1525.331,343.306143 1525.331,348.620341 L1525.331,386.463872 L1525.331,386.471924 Z" id="Shape" fill="#000000"></path>
            <path d="M1895.68635,514.291513 L1895.68635,236.978469 L1803.50839,236.978469 L1803.50839,514.291513 L1895.6944,514.291513 L1895.68635,514.291513 Z M1849.61348,199.122782 C1881.75172,199.122782 1901.75959,177.826945 1901.75959,151.215202 C1901.15549,123.999379 1881.75172,103.299568 1850.22564,103.299568 C1818.67539,103.299568 1798.07147,123.999379 1798.07147,151.215202 C1798.07147,177.826945 1818.07129,199.122782 1849.00938,199.122782 L1849.60543,199.122782 L1849.61348,199.122782 Z M1946.7048,514.291513 L2038.8747,514.291513 L2038.8747,359.445644 C2038.8747,351.165719 2039.4788,342.869686 2041.91132,336.957755 C2048.57255,320.389851 2063.73955,303.24203 2089.2085,303.24203 C2122.55494,303.24203 2135.90158,328.669776 2135.90158,365.953601 L2135.90158,514.291513 L2228.07147,514.291513 L2228.07147,355.289573 C2228.07147,270.114277 2182.60271,230.478567 2121.9589,230.478567 C2072.23725,230.478567 2050.40097,258.266252 2038.27059,277.194096 L2038.88275,277.194096 L2038.88275,236.986524 L1946.71285,236.986524 C1947.913,263.002241 1946.7048,514.299568 1946.7048,514.299568 L1946.7048,514.291513 Z" id="Shape" fill="#FFFFFF"></path>
        </g>
    </g>
</svg>