<svg viewBox="0 0 2761 991" version="1.1" xmlns="http://www.w3.org/2000/svg" xmlns:xlink="http://www.w3.org/1999/xlink">
  <g id="netflix" stroke="none" stroke-width="1" fill="none" fill-rule="evenodd">
    <g transform="translate(307.000000, 204.000000)" fill="currentColor" fill-rule="nonzero" id="Shape">
      <path d="M1833.62885,545.008232 C1863.54373,547.904359 1893.44429,551.015014 1923.27324,554.232934 L1989.1318,391.820981 L2051.73252,569.214135 C2083.8527,573.232958 2115.95857,577.452008 2147.9642,581.856981 L2038.21426,270.784317 L2148,0.021452794 L2055.019,0.021452794 L2054.05239,1.35152602 L1994.74532,147.623827 L1942.6771,0.042905588 L1850.87036,0.042905588 L1945.64854,268.667641 L1833.63601,545.008232 L1833.62885,545.008232 Z M1764.1974,538.643903 L1764.1974,0.021452794 L1672.42646,0.021452794 L1672.42646,531.085369 C1703.03587,533.445176 1733.6596,535.976606 1764.1974,538.636752 L1764.1974,538.643903 Z M1074.82341,508.52418 C1099.59734,508.52418 1124.34263,508.710105 1149.04496,508.910331 L1149.04496,311.029759 L1259.28895,311.029759 L1259.28895,226.763184 L1149.05212,226.763184 L1149.05212,84.3881408 L1276.02209,84.3881408 L1276.02209,0.021452794 L1056.92317,0.021452794 L1056.92317,508.59569 C1062.87321,508.59569 1068.85189,508.502728 1074.82341,508.52418 Z M789.894572,513.672851 C820.46818,512.585909 851.070428,511.67059 881.715636,510.926893 L881.715636,84.4024426 L967.49358,84.4024426 L967.49358,0.042905588 L704.116628,0.042905588 L704.116628,84.4024426 L789.908892,84.4024426 L789.908892,513.672851 L789.894572,513.672851 Z M88.0333738,570.465548 L88.0333738,249.567504 L196.694983,557.50806 C230.111148,553.760972 263.577434,550.235563 297.136802,546.903229 L297.136802,0.0286037254 L209.081948,0.0286037254 L209.081948,332.425345 L91.8282244,0.0286037254 L0,0.0286037254 L0,582 L0.551327351,582 C29.6427952,577.981177 58.8345045,574.162579 88.0333738,570.465548 Z M615.625008,84.3809898 L615.625008,0.0286037254 L396.504607,0.0286037254 L396.504607,537.785792 C469.408032,531.500592 542.395578,526.229844 615.446006,521.975082 L615.446006,437.544036 C573.086881,440.003956 530.813678,442.835725 488.640715,445.989286 L488.640715,311.065513 L598.884705,311.065513 L598.884705,226.748882 L488.640715,226.748882 L488.640715,84.3809898 L615.625008,84.3809898 Z M1457.89568,433.510911 L1457.89568,0 L1365.72377,0 L1365.72377,513.980341 C1439.04315,516.669091 1512.07612,520.416179 1584.86565,525.135794 L1584.86565,440.654691 C1542.62109,437.930186 1500.30492,435.563228 1457.89568,433.50376 L1457.89568,433.510911 Z"></path>
    </g>
  </g>
</svg>