<svg viewBox="0 0 2761 991" version="1.1" xmlns="http://www.w3.org/2000/svg" xmlns:xlink="http://www.w3.org/1999/xlink">
  <g id="stripe" stroke="none" stroke-width="1" fill="none" fill-rule="evenodd">
    <g transform="translate(550.000000, 150.000000)" fill="currentColor" fill-rule="nonzero" id="Shape">
      <path d="M116.751407,270.380196 C116.751407,252.418328 131.515491,245.506928 155.973067,245.506928 C191.035739,245.506928 235.327991,256.103977 270.393907,274.988876 L270.393907,166.741579 C232.100071,151.542328 194.266903,145.55396 155.973067,145.55396 C62.3082393,145.55396 0.0207393105,194.380703 0.0207393105,275.911907 C0.0207393105,403.037625 175.347075,382.773037 175.347075,437.588149 C175.347075,458.77253 156.894403,465.68393 131.054823,465.68393 C92.7609874,465.68393 43.8523233,450.021544 5.09457525,428.833925 L5.09457525,538.46091 C48.0048233,556.885913 91.3757393,564.713867 131.054823,564.713867 C227.022991,564.713867 293.002323,517.273291 293.002323,434.822294 C292.541655,297.559423 116.751407,321.969556 116.751407,270.380196 Z M428.649575,53.4321843 L316.071407,77.3824209 L315.610739,446.335896 C315.610739,514.510674 366.825987,564.713867 435.111903,564.713867 C472.945071,564.713867 500.627323,557.805706 515.852075,549.514616 L515.852075,456.009913 C501.091235,461.998282 428.188907,483.185902 428.188907,415.014363 L428.188907,251.495297 L515.852075,251.495297 L515.852075,153.385153 L428.188907,153.385153 L428.649575,53.4321843 Z M659.346903,187.469303 L651.963239,153.385153 L552.303239,153.385153 L552.303239,556.422778 L667.651903,556.422778 L667.651903,283.279965 C694.870243,247.812887 741.011655,254.261152 755.315071,259.32649 L755.315071,153.385153 C740.550987,147.85668 686.568487,137.722767 659.346903,187.469303 Z M783.457991,153.385153 L899.267323,153.385153 L899.267323,556.422778 L783.457991,556.422778 L783.457991,153.385153 Z M783.457991,118.377971 L899.267323,93.5047032 L899.267323,0 L783.457991,24.4133716 L783.457991,118.374732 L783.457991,118.377971 Z M1140.11232,145.55396 C1094.89549,145.55396 1065.82799,166.741579 1049.6819,181.484173 L1043.68024,152.925256 L942.177571,152.925256 L942.177571,690 L1057.52299,665.589867 L1057.9869,535.235158 C1074.5969,547.211896 1099.04799,564.253971 1139.65166,564.253971 C1222.24099,564.253971 1297.44666,497.925256 1297.44666,351.9114 C1296.98599,218.33094 1220.85574,145.55396 1140.11232,145.55396 Z M1112.43007,462.918075 C1085.20849,462.918075 1069.05591,453.247296 1057.9869,441.270559 L1057.52299,270.380196 C1069.51982,257.023769 1086.12982,247.812887 1112.43007,247.812887 C1154.41574,247.812887 1183.48324,294.793568 1183.48324,355.133913 C1183.48324,416.857187 1154.87641,462.918075 1112.43007,462.918075 Z M1661.02074,356.516841 C1661.02074,238.598766 1603.80708,145.55396 1494.46007,145.55396 C1384.64591,145.55396 1318.20591,238.602005 1318.20591,355.597049 C1318.20591,494.239608 1396.64599,564.253971 1509.22091,564.253971 C1564.12799,564.253971 1605.65299,551.817337 1637.02708,534.315366 L1637.02708,442.190351 C1605.65624,457.852737 1569.66574,467.526755 1523.98824,467.526755 C1479.23208,467.526755 1439.55299,451.864369 1434.47916,397.512392 L1660.0994,397.512392 C1660.0994,391.520784 1661.02074,367.570547 1661.02074,356.516841 Z M1433.09391,312.758674 C1433.09391,260.709418 1464.9319,239.058663 1493.9994,239.058663 C1522.14232,239.058663 1552.1344,260.709418 1552.1344,312.758674 L1433.09391,312.758674 Z"></path>
    </g>
  </g>
</svg>