<?xml version="1.0" encoding="UTF-8"?>
<svg width="85px" height="74px" viewBox="0 0 85 74" version="1.1" xmlns="http://www.w3.org/2000/svg" xmlns:xlink="http://www.w3.org/1999/xlink">
    <!-- Generator: Sketch 53 (72520) - https://sketchapp.com -->
    <title>icon/responsive</title>
    <desc>Created with Sketch.</desc>
    <defs>
        <linearGradient x1="149.157588%" y1="48.9230602%" x2="16.2566868%" y2="49.5020544%" id="linearGradient-1">
            <stop stop-color="#6A9BF4" offset="0%"></stop>
            <stop stop-color="#766DF4" offset="59.840714%"></stop>
            <stop stop-color="#A6A0FF" offset="100%"></stop>
        </linearGradient>
    </defs>
    <g id="Homepages-(Demos)" stroke="none" stroke-width="1" fill="none" fill-rule="evenodd">
        <g id="Mobile-App-Showcase" transform="translate(-360.000000, -1351.000000)" fill="#737491" fill-rule="nonzero">
            <g id="Devices" transform="translate(0.000000, 1224.000000)">
                <g id="icons" transform="translate(360.000000, 116.000000)">
                    <g id="icon/responsive" transform="translate(0.000000, 11.000000)">
                        <path d="M80.75,37 L79.3333333,37 L79.3333333,7.11538462 C79.3287292,3.18769231 76.16,0.004625 72.25,0 L12.75,0 C8.84,0.004625 5.67127083,3.18769231 5.66666667,7.11538462 L5.66666667,28.4615385 L4.25,28.4615385 C1.90276042,28.4615385 0,30.3729087 0,32.7307692 L0,69.7307692 C0,72.0886298 1.90276042,74 4.25,74 L58.0833333,74 C58.8656875,74 59.5,73.3628173 59.5,72.5769231 C59.4953958,68.6492308 56.3266667,65.4661635 52.4166667,65.4615385 L48.1666667,65.4615385 L48.1666667,56.9230769 L65.1666667,56.9230769 L65.1666667,69.7307692 C65.1666667,72.0886298 67.0694271,74 69.4166667,74 L80.75,74 C83.0972396,74 85,72.0886298 85,69.7307692 L85,41.2692308 C85,38.9113702 83.0972396,37 80.75,37 Z M31.1666667,69.7307692 C31.1666667,70.5166635 30.5323542,71.1538462 29.75,71.1538462 L4.25,71.1538462 C3.46764583,71.1538462 2.83333333,70.5166635 2.83333333,69.7307692 L2.83333333,68.3076923 L31.1666667,68.3076923 L31.1666667,69.7307692 Z M31.1666667,65.4615385 L2.83333333,65.4615385 L2.83333333,32.7307692 C2.83333333,31.944875 3.46764583,31.3076923 4.25,31.3076923 L29.75,31.3076923 C30.5323542,31.3076923 31.1666667,31.944875 31.1666667,32.7307692 L31.1666667,65.4615385 Z M52.4166667,68.3076923 C54.21725,68.3098269 55.8218021,69.4493558 56.4244167,71.1538462 L33.7393333,71.1538462 C33.9072083,70.6981058 33.9952187,70.21675 34,69.7307692 L34,68.3076923 L52.4166667,68.3076923 Z M34,65.4615385 L34,56.9230769 L36.8333333,56.9230769 L36.8333333,65.4615385 L34,65.4615385 Z M39.6666667,65.4615385 L39.6666667,56.9230769 L45.3333333,56.9230769 L45.3333333,65.4615385 L39.6666667,65.4615385 Z M65.1666667,54.0769231 L34,54.0769231 L34,45.5384615 L65.1666667,45.5384615 L65.1666667,54.0769231 Z M65.1666667,41.2692308 L65.1666667,42.6923077 L34,42.6923077 L34,32.7307692 C33.9952187,32.0555192 33.8289375,31.3912981 33.5155,30.7939615 C33.53675,30.7740385 33.5650833,30.7683462 33.5849167,30.747 L47.6099167,16.6585385 C48.1535625,16.0932212 48.1379792,15.1922356 47.5752083,14.6463077 C47.02625,14.1137212 46.1558854,14.1137212 45.60675,14.6463077 L31.58175,28.7347692 C31.54775,28.7703462 31.5335833,28.8158846 31.5038333,28.8528846 C30.9541667,28.5967308 30.3558021,28.4633173 29.75,28.4615385 L8.5,28.4615385 L8.5,7.11538462 C8.5,4.75752404 10.4027604,2.84615385 12.75,2.84615385 L72.25,2.84615385 C74.5972396,2.84615385 76.5,4.75752404 76.5,7.11538462 L76.5,37 L69.4166667,37 C67.0694271,37 65.1666667,38.9113702 65.1666667,41.2692308 Z M82.1666667,69.7307692 C82.1666667,70.5166635 81.5323542,71.1538462 80.75,71.1538462 L69.4166667,71.1538462 C68.6343125,71.1538462 68,70.5166635 68,69.7307692 L68,68.3076923 L82.1666667,68.3076923 L82.1666667,69.7307692 Z M82.1666667,65.4615385 L68,65.4615385 L68,41.2692308 C68,40.4833365 68.6343125,39.8461538 69.4166667,39.8461538 L80.75,39.8461538 C81.5323542,39.8461538 82.1666667,40.4833365 82.1666667,41.2692308 L82.1666667,65.4615385 Z" id="Shape"></path>
                        <path d="M16.9316847,45.4213315 C16.4121109,44.8595562 15.5698825,44.8595562 15.0503087,45.4213315 L9.40618066,51.5258484 C8.87762576,52.0780899 8.86298988,52.9890185 9.37358256,53.5606874 C9.88417523,54.1323563 10.7264037,54.148186 11.2549586,53.5959445 C11.2661018,53.584432 11.2769124,53.5725597 11.2875567,53.5606874 L16.9316847,47.4561704 C17.1691852,47.0109595 16.6918559,46.1646089 16.9316847,45.4213315 Z" id="Path"></path>
                        <path d="M25.5599082,45.4047104 C25.0011934,44.8650965 24.1153602,44.8650965 23.5564653,45.4047104 L17.4401609,51.5210548 C16.8673882,52.074186 16.8515279,52.9870597 17.4048357,53.5598362 C17.9579633,54.1326127 18.8708311,54.1484731 19.4436038,53.5951616 C19.4556793,53.5836268 19.4673943,53.5717315 19.478929,53.5598362 L25.5952334,47.4434918 C26.148361,46.8707154 26.1326809,45.9578416 25.5599082,45.4047104 Z" id="Path"></path>
                        <path d="M56.5638936,14.4009828 C56.0103254,13.8663391 55.1326519,13.8663391 54.5789051,14.4009828 L40.4361303,28.5438631 C39.8686336,29.0918998 39.8529194,29.9963655 40.4009519,30.5638665 C40.9489845,31.1313674 41.8534435,31.1470817 42.4209402,30.5990451 C42.4329044,30.5876165 42.4445115,30.5758308 42.4561185,30.5638665 L56.5988934,16.4209861 C57.1471045,15.8534852 57.1313903,14.9490194 56.5638936,14.4009828 Z" id="Path"></path>
                        <path d="M78.5573922,49.4070931 C77.9955714,48.8643023 77.1046325,48.8643023 76.5428118,49.4070931 L72.4426078,53.5072928 C71.866651,54.063676 71.8507025,54.9814364 72.4070863,55.5573926 C72.96347,56.1333489 73.8812314,56.1492973 74.4571882,55.5929142 C74.4691496,55.5813153 74.4811109,55.569354 74.4927098,55.5573926 L78.5929137,51.4571929 C79.1492975,50.8812367 79.133349,49.9634762 78.5573922,49.4070931 Z" id="Path"></path>
                        <path d="M42.5037501,49 L42.4887876,49 C41.6624836,49.004125 40.9959043,49.6791207 41.0000189,50.5074905 C41.0041336,51.3358602 41.6774461,52.004106 42.5037501,51.999981 C43.3300541,51.999981 44,51.3283603 44,50.4999905 C44,49.6716207 43.3300541,49 42.5037501,49 Z" id="Path"></path>
                        <path d="M45.6666667,5 L40.3333333,5 C39.597,5 39,5.671625 39,6.5 C39,7.328375 39.597,8 40.3333333,8 L45.6666667,8 C46.403,8 47,7.328375 47,6.5 C47,5.671625 46.403,5 45.6666667,5 Z" id="Path"></path>
                    </g>
                </g>
            </g>
        </g>
    </g>
</svg>