<?xml version="1.0" encoding="UTF-8"?>
<svg width="83px" height="84px" viewBox="0 0 83 84" version="1.1" xmlns="http://www.w3.org/2000/svg" xmlns:xlink="http://www.w3.org/1999/xlink">
    <!-- Generator: Sketch 53 (72520) - https://sketchapp.com -->
    <title>icon/console</title>
    <desc>Created with Sketch.</desc>
    <defs>
        <linearGradient x1="149.157588%" y1="48.9230602%" x2="16.2566868%" y2="49.5020544%" id="linearGradient-1">
            <stop stop-color="#6A9BF4" offset="0%"></stop>
            <stop stop-color="#766DF4" offset="59.840714%"></stop>
            <stop stop-color="#A6A0FF" offset="100%"></stop>
        </linearGradient>
    </defs>
    <g id="Homepages-(Demos)" stroke="none" stroke-width="1" fill="none" fill-rule="evenodd">
        <g id="Mobile-App-Showcase" transform="translate(-508.000000, -1341.000000)" fill="#737491" fill-rule="nonzero">
            <g id="Devices" transform="translate(0.000000, 1224.000000)">
                <g id="icons" transform="translate(360.000000, 116.000000)">
                    <g id="icon/console" transform="translate(148.000000, 1.000000)">
                        <path d="M23,6 C22.4477042,6 22,6.5957159 22,7.3306014 L22,15.6693986 C22,16.4042841 22.4477042,17 23,17 C23.5522958,17 24,16.4042841 24,15.6693986 L24,7.3306014 C24,6.5957159 23.5522958,6 23,6 Z" id="Path"></path>
                        <path d="M82.9987084,73.0983963 C82.9987084,73.1008572 82.9987084,73.1031541 82.9987084,73.1052869 C83.0011614,72.6549362 83.0029603,72.2036012 82.9880787,71.7534145 C82.908274,67.7517739 82.364032,63.7716254 81.3604222,59.8913908 C81.1880571,59.2248062 80.5095535,58.8249867 79.8449503,58.997416 C79.1805106,59.1705016 78.781487,59.8511956 78.9538521,60.5177802 C79.8523093,63.9911406 80.3636809,67.5486649 80.4845328,71.1281736 C79.2591706,71.9112424 77.726691,72.8040687 75.4395009,73.403716 C73.6321203,73.8776916 71.656463,74.0885115 69.5561925,74.0340429 L68.2693414,69.6007547 C67.8322144,68.0946639 66.8564055,66.8435257 65.5919586,66.0350273 C67.090423,64.8060375 68.0490608,62.9381896 68.0490608,60.849678 C68.0490608,60.5113818 68.0233859,60.1791559 67.9749798,59.8543128 C68.6453067,60.0428202 69.3507935,60.1458513 70.0803198,60.1458513 C73.3256571,60.1458513 76.1142433,58.1492146 77.2916899,55.3163529 C77.3574307,55.4886182 77.4243162,55.6605554 77.4880946,55.8333128 C77.6737059,56.3364915 78.148773,56.6478815 78.6540938,56.6478815 C78.7973498,56.6478815 78.9432224,56.62278 79.0854972,56.569952 C79.7293316,56.3309134 80.0580354,55.6133054 79.819766,54.9675567 C78.9217994,52.5340224 77.8300447,50.1495427 76.5749193,47.8805627 L75.9554515,46.7606743 C74.8354054,44.7359829 72.7056988,43.4781182 70.3975763,43.4781182 L68.9228243,43.4781182 C68.2070349,43.4781182 67.5339279,43.7576802 67.0279529,44.2656167 C66.9918118,44.3017103 66.9419339,44.3225462 66.8909112,44.3225462 L58.7676741,44.3225462 L51.854754,44.3225462 L45.4211528,44.3225462 L36.8187603,44.3225462 C36.7677376,44.3225462 36.7176961,44.3017103 36.6818821,44.2657807 C36.1757436,43.7580083 35.5028001,43.4782823 34.7868471,43.4782823 L33.3120952,43.4782823 C31.0039727,43.4782823 28.8744296,44.736147 27.7543835,46.7606743 L27.1347522,47.8807268 C23.0841722,55.2029859 20.8859447,63.416759 20.7207751,71.7693286 C20.6865964,72.5323818 20.706057,73.3041303 20.7251905,74.0673475 L20.7713072,75.9120627 L17.163905,75.9120627 L17.163905,29.1763258 L26.9617329,29.1763258 L26.9617329,40.4628194 C26.9617329,41.1515524 27.51824,41.709856 28.2047568,41.709856 C28.8912736,41.709856 29.4477807,41.1515524 29.4477807,40.4628194 L29.4477807,4.00180468 C29.4474536,1.79516837 27.6580618,0 25.4585261,0 L6.79861323,0 C4.59907748,0 2.80968564,1.79516837 2.80968564,4.00180468 L2.80968564,76.8624749 L0.132956929,82.1915426 C-0.0611582341,82.5782372 -0.0416976576,83.0381034 0.184633754,83.4067512 C0.410965165,83.7753989 0.81146056,83.9998359 1.24302746,83.9998359 L27.7802219,83.9998359 C27.8266656,83.9998359 27.8724552,83.9967188 27.9177542,83.9917969 C28.0283034,83.9967188 28.1391796,83.9998359 28.2505464,83.9998359 C31.54707,83.9998359 34.4933031,81.7820434 35.4149822,78.606784 L37.8267854,70.298183 C38.2990724,68.6708503 39.8089842,67.5342275 41.4984566,67.5342275 L62.2103972,67.5342275 C63.8998696,67.5342275 65.4097814,68.6708503 65.8822319,70.2983471 L68.2940351,78.606784 C69.2157142,81.7822075 72.1617838,84 75.4584709,84 L75.458798,84 C75.4589615,84 75.459125,84 75.4592886,84 C77.4172842,84 79.2675108,83.2446577 80.6693265,81.873262 C82.0709786,80.5018662 82.870007,78.665026 82.9192308,76.7013658 L82.9849715,74.0671835 C82.9928212,73.75202 82.9964189,73.4365284 82.9985449,73.121365 C82.9985449,73.1216931 82.9985449,73.1208728 82.9985449,73.1185759 C82.999199,73.0075058 82.999199,72.9991387 82.9990355,73.0225996 C83.0003438,72.7976703 82.9990355,73.0245683 82.9987084,73.0983963 Z M70.0799927,46.9698536 C73.0154326,46.9698536 75.4036869,49.3658176 75.4036869,52.3107338 C75.4036869,55.2556499 73.0154326,57.651614 70.0799927,57.651614 C67.1445528,57.651614 64.7564621,55.2556499 64.7564621,52.3107338 C64.7564621,49.3658176 67.1445528,46.9698536 70.0799927,46.9698536 Z M46.6640131,46.8164554 L51.8544269,46.8164554 L57.5243231,46.8164554 L57.5243231,48.9874903 C57.5243231,49.9070588 56.7786069,50.6551823 55.8619974,50.6551823 L48.3263388,50.6551823 C47.4097293,50.6551823 46.6640131,49.9070588 46.6640131,48.9874903 L46.6640131,46.8164554 L46.6640131,46.8164554 Z M29.3831847,49.9303556 C29.9390376,48.968459 30.8056056,48.2001559 31.8231158,47.7671958 C32.4559934,47.4978057 33.1291004,47.3613059 33.8239574,47.3613059 C36.6517918,47.3613059 38.9525552,49.6693327 38.9525552,52.5064599 C38.9525552,55.3434232 36.6519553,57.651614 33.8239574,57.651614 C30.9959595,57.651614 28.6953596,55.3434232 28.6953596,52.5064599 C28.6951961,51.5998523 28.9331384,50.7091588 29.3831847,49.9303556 Z M5.29573341,4.00180468 C5.29573341,3.17050162 5.96998515,2.49423732 6.79861323,2.49423732 L14.6775302,2.49423732 L14.6775302,5.98794143 C14.6775302,6.67667446 15.2340373,7.23497806 15.9205541,7.23497806 C16.6070709,7.23497806 17.163578,6.67667446 17.163578,5.98794143 L17.163578,2.49423732 L25.4586896,2.49423732 C26.2873177,2.49423732 26.9614059,3.17050162 26.9614059,4.00180468 L26.9614059,26.6822526 L17.163578,26.6822526 L17.163578,11.8907346 C17.163578,11.2020016 16.6070709,10.643698 15.9205541,10.643698 C15.2340373,10.643698 14.6775302,11.2020016 14.6775302,11.8907346 L14.6775302,26.6820885 L5.29573341,26.6822526 L5.29573341,4.00180468 Z M5.29573341,29.1763258 L14.6773667,29.1763258 L14.6773667,75.9118986 L5.29573341,75.9118986 L5.29573341,29.1763258 Z M3.26136726,81.5055986 L4.81837692,78.4059719 L21.0301819,78.4059719 C21.3268331,79.5524384 21.8924981,80.6116238 22.692017,81.5055986 L3.26136726,81.5055986 Z M35.4396759,69.6007547 L34.1526613,74.0345351 C33.8615703,74.0420819 33.5726053,74.0445429 33.2880557,74.0420819 C33.2841308,74.0420819 33.280206,74.0420819 33.2764447,74.0420819 C32.5953246,74.0420819 32.0399622,74.5930027 32.0337479,75.2776342 C32.0273701,75.9663673 32.5788076,76.5297568 33.2653244,76.5361552 C33.3189636,76.5366474 33.3726029,76.5369755 33.4264056,76.5371396 L33.0280362,77.9093556 C32.4133109,80.0267421 30.4487739,81.5057627 28.2505464,81.5057627 C25.5293364,81.5057627 23.3443552,79.3678684 23.2761614,76.6388581 L23.2109112,74.0296132 C24.3585946,74.672737 25.7887017,75.3311185 27.6418719,75.8170707 C28.3063116,75.9911406 28.9853058,75.5921414 29.1588157,74.9258849 C29.3324891,74.2594643 28.9346102,73.5781141 28.2704976,73.4040441 C25.9828169,72.8042328 24.4503374,71.9114064 23.2248116,71.1281736 C23.4138572,65.5533407 24.5540181,60.0541405 26.5867489,54.8779788 C27.5836537,57.9326525 30.4502457,60.1460153 33.824121,60.1460153 C34.4813651,60.1460153 35.1193123,60.0620155 35.7279868,59.9041877 C35.6841596,60.2132808 35.6601201,60.5287724 35.6601201,60.8498421 C35.6601201,62.9385177 36.6187579,64.8063656 38.1172223,66.0351913 C36.8526119,66.8436898 35.8768029,68.0948279 35.4396759,69.6007547 Z M42.6301136,65.0399902 L42.0394279,65.0399902 C40.1288572,64.9056232 38.5680862,63.4809073 38.2199218,61.630614 C38.9175589,62.2465034 39.8315519,62.6213855 40.8317274,62.6213855 C43.0145827,62.6213855 44.7905647,60.8396702 44.7905647,58.6497683 C44.7905647,58.1708708 44.7056904,57.7113326 44.5500058,57.2859194 C45.7336667,58.0292851 46.5232101,59.3485091 46.5232101,60.849678 C46.5232101,63.0669784 44.8021756,64.8874123 42.6301136,65.0399902 Z M39.3589379,58.6497683 C39.3589379,57.8350355 40.0196163,57.1723883 40.8317274,57.1723883 C41.6438385,57.1723883 42.3045169,57.8350355 42.3045169,58.6497683 C42.3045169,59.464501 41.6438385,60.1273123 40.8317274,60.1273123 C40.0196163,60.1273123 39.3589379,59.464501 39.3589379,58.6497683 Z M56.1733666,65.0398261 L51.8544269,65.0398261 L51.8544269,65.0399902 L47.5354872,65.0399902 C48.4565121,63.891883 49.0094214,62.4346827 49.0094214,60.849678 C49.0094214,57.1574587 46.0152727,54.1534802 42.3347707,54.1534802 C41.9609314,54.1534802 41.5946147,54.1859645 41.2371288,54.2455191 C41.3674656,53.6863951 41.438603,53.1047947 41.438603,52.5064599 C41.438603,50.248144 40.4559257,48.216234 38.8979348,46.8164554 L44.1778018,46.8164554 L44.1778018,48.9874903 C44.1778018,51.282392 46.0388217,53.1494196 48.3263388,53.1494196 L55.8619974,53.1494196 C58.1495146,53.1494196 60.0105344,51.282392 60.0105344,48.9874903 L60.0105344,46.8164554 L64.5191739,46.8164554 C63.1297868,48.2316558 62.2702508,50.1721833 62.2702508,52.3107338 C62.2702508,52.9809278 62.354798,53.6315984 62.5134262,54.2529018 C62.1428576,54.1885895 61.7626404,54.1533161 61.374083,54.1533161 C57.6937446,54.1533161 54.6994324,57.1572946 54.6994324,60.849514 C54.6994324,62.4345187 55.2523417,63.891719 56.1733666,65.0398261 Z M64.5245705,58.6496042 C64.5245705,59.464337 63.8638921,60.1271482 63.0519445,60.1271482 C62.2398334,60.1271482 61.579155,59.464337 61.579155,58.6496042 C61.579155,57.8348714 62.2399969,57.1722243 63.0519445,57.1722243 C63.2279074,57.1722243 63.3960206,57.2050367 63.5525229,57.2619663 C63.8091081,57.419466 64.0470505,57.6045281 64.2635698,57.8117386 C64.4277582,58.050121 64.5245705,58.3385423 64.5245705,58.6496042 Z M61.6694259,65.0399902 L61.0789037,65.0399902 C58.9068417,64.8872483 57.1856437,63.0669784 57.1856437,60.849678 C57.1856437,59.2538452 58.0770689,57.8630901 59.3863242,57.1518806 C59.1977692,57.6143718 59.0931072,58.1200115 59.0931072,58.6497683 C59.0931072,60.8396702 60.8690893,62.6213855 63.0519445,62.6213855 C63.9538359,62.6213855 64.7855712,62.316722 65.4519733,61.8053402 C65.0411752,63.569993 63.519489,64.9100529 61.6694259,65.0399902 Z M80.4328559,76.6388581 C80.3646621,79.3677044 78.1798445,81.5054346 75.4589615,81.5057627 C73.260734,81.5055986 71.2963605,80.0267421 70.6817988,77.9095197 L70.2834294,76.5373036 C72.3261358,76.5305771 74.2654885,76.2895697 76.0679631,75.8170707 C77.9206427,75.3312826 79.3505862,74.6732292 80.4979426,74.0301054 L80.4328559,76.6388581 Z" id="Shape"></path>
                        <circle id="Oval" cx="70" cy="49" r="1"></circle>
                        <circle id="Oval" cx="70" cy="55" r="1"></circle>
                        <circle id="Oval" cx="68" cy="53" r="1"></circle>
                        <circle id="Oval" cx="72" cy="53" r="1"></circle>
                        <circle id="Oval" cx="34" cy="49" r="1"></circle>
                        <circle id="Oval" cx="34" cy="55" r="1"></circle>
                        <circle id="Oval" cx="32" cy="53" r="1"></circle>
                        <circle id="Oval" cx="37" cy="53" r="1"></circle>
                    </g>
                </g>
            </g>
        </g>
    </g>
</svg>