<?xml version="1.0" encoding="UTF-8"?>
<svg width="60px" height="85px" viewBox="0 0 60 85" version="1.1" xmlns="http://www.w3.org/2000/svg" xmlns:xlink="http://www.w3.org/1999/xlink">
    <!-- Generator: Sketch 53 (72520) - https://sketchapp.com -->
    <title>icon/speaker</title>
    <desc>Created with Sketch.</desc>
    <defs>
        <linearGradient x1="149.157588%" y1="48.9230602%" x2="16.2566868%" y2="49.5020544%" id="linearGradient-1">
            <stop stop-color="#6A9BF4" offset="0%"></stop>
            <stop stop-color="#766DF4" offset="59.840714%"></stop>
            <stop stop-color="#A6A0FF" offset="100%"></stop>
        </linearGradient>
    </defs>
    <g id="Homepages-(Demos)" stroke="none" stroke-width="1" fill="none" fill-rule="evenodd">
        <g id="Mobile-App-Showcase" transform="translate(-653.000000, -1340.000000)" fill="#737491" fill-rule="nonzero">
            <g id="Devices" transform="translate(0.000000, 1224.000000)">
                <g id="icons" transform="translate(360.000000, 116.000000)">
                    <g id="icon/speaker" transform="translate(293.000000, 0.000000)">
                        <path d="M8,11 C9.65453845,11 11,9.65396396 11,7.99999993 C11,6.34603604 9.65453845,5 8,5 C6.34603601,5 5,6.34603604 5,7.99999993 C5,9.65396396 6.34603601,11 8,11 Z M8,7.20605132 C8.43776322,7.20605132 8.79394873,7.56223669 8.79394873,7.99999993 C8.79394873,8.43776331 8.43776322,8.79394868 8,8.79394868 C7.56223678,8.79394868 7.20605127,8.43776331 7.20605127,7.99999993 C7.20605127,7.56223669 7.56223678,7.20605132 8,7.20605132 Z" id="Shape"></path>
                        <path d="M51.9999999,5 C50.346036,5 49,6.34546144 49,7.99999993 C49,9.65396396 50.346036,11 51.9999999,11 C53.6545384,11 55,9.65396396 55,7.99999993 C55,6.34546144 53.6545384,5 51.9999999,5 Z M51.9999999,8.79394868 C51.5622367,8.79394868 51.2060513,8.43776331 51.2060513,7.99999993 C51.2060513,7.56223669 51.5622367,7.20605132 51.9999999,7.20605132 C52.4377633,7.20605132 52.7939487,7.56223669 52.7939487,7.99999993 C52.7939487,8.43776331 52.4377633,8.79394868 51.9999999,8.79394868 Z" id="Shape"></path>
                        <path d="M8,80 C9.65453845,80 11,78.6539641 11,77.0000001 C11,75.3454616 9.65453845,74 8,74 C6.34603601,74 5,75.3454616 5,77.0000001 C5,78.6545386 6.34603601,80 8,80 Z M8,76.2060513 C8.43776322,76.2060513 8.79394873,76.5622367 8.79394873,77.0000001 C8.79394873,77.4377633 8.43776322,77.7939487 8,77.7939487 C7.56223678,77.7939487 7.20605127,77.4377633 7.20605127,77.0000001 C7.20605127,76.5622367 7.56223678,76.2060513 8,76.2060513 Z" id="Shape"></path>
                        <path d="M51.9999999,80 C53.6545384,80 55,78.6539641 55,77.0000001 C55,75.3454616 53.6545384,74 51.9999999,74 C50.346036,74 49,75.3454616 49,77.0000001 C49,78.6545386 50.346036,80 51.9999999,80 Z M51.9999999,76.2060513 C52.4377633,76.2060513 52.7939487,76.5622367 52.7939487,77.0000001 C52.7939487,77.4377633 52.4377633,77.7939487 51.9999999,77.7939487 C51.5622367,77.7939487 51.2060513,77.4377633 51.2060513,77.0000001 C51.2060513,76.5622367 51.5622367,76.2060513 51.9999999,76.2060513 Z" id="Shape"></path>
                        <path d="M37.5,30 C43.8414863,30 49,24.8409642 49,18.5003363 C49,12.1590356 43.8414863,7 37.5,7 C31.1585137,7 26,12.1590356 26,18.5003363 C26,24.8409642 31.1585137,30 37.5,30 Z M37.5,9.58389164 C42.4162668,9.58389164 46.4160327,13.5835406 46.4160327,18.5003363 C46.4160327,23.4164594 42.4162668,27.4154355 37.5,27.4154355 C32.5837332,27.4154355 28.5839673,23.4157866 28.5839673,18.5003363 C28.5839673,13.5842134 32.5837332,9.58389164 37.5,9.58389164 Z" id="Shape"></path>
                        <path d="M37.5,25 C41.084061,25 44,22.0842144 44,18.5003418 C44,14.9157856 41.084061,12 37.5,12 C33.9152552,12 31,14.9157856 31,18.5003418 C31,22.0842144 33.9152552,25 37.5,25 L37.5,25 Z M37.5,14.626532 C39.6363493,14.626532 41.3740137,16.3641051 41.3740137,18.5003418 C41.3740137,20.6358949 39.6363493,22.3734679 37.5,22.3734679 C35.3636507,22.3734679 33.6259863,20.6358949 33.6259863,18.5003418 C33.6259863,16.3641051 35.3636507,14.626532 37.5,14.626532 Z" id="Shape"></path>
                        <path d="M30.5,48 C26.915939,48 24,50.915939 24,54.5000001 C24,58.084061 26.915939,61 30.5,61 C34.084061,61 37,58.084061 37,54.5000001 C37,50.915939 34.084061,48 30.5,48 L30.5,48 Z M30.5,58.3740137 C28.3636507,58.3740137 26.6259863,56.6356656 26.6259863,54.5000001 C26.6259863,52.3636508 28.3636507,50.6259863 30.5,50.6259863 C32.6363493,50.6259863 34.3740137,52.3636508 34.3740137,54.5000001 C34.3740137,56.6356656 32.6363493,58.3740137 30.5,58.3740137 Z" id="Shape"></path>
                        <path d="M47,55.0003288 C47,45.6262789 39.5980234,38 30.4996808,38 C21.4019764,38 14,45.6262789 14,55.0003288 C14,64.3737211 21.4019764,72 30.4996808,72 C39.5973852,72 47,64.3737211 47,55.0003288 L47,55.0003288 Z M30.4996808,69.4750034 C22.7530702,69.4750034 16.450732,62.9816852 16.450732,55.0003288 C16.450732,47.0183148 22.7530702,40.5249966 30.4996808,40.5249966 C38.2462916,40.5249966 44.5486298,47.0183148 44.5486298,55.0003288 C44.5486298,62.9816852 38.2462916,69.4750034 30.4996808,69.4750034 Z" id="Shape"></path>
                        <path d="M33.4489844,77 C33.5069367,77 33.5655476,76.9961189 33.6248169,76.9877098 C38.9531405,76.2599932 43.8520898,73.6615604 47.418135,69.6704401 C51.0177661,65.6411549 53,60.4669294 53,55.1005867 C53,42.9144088 42.9064128,33 30.4999999,33 C18.0935871,33 8,42.9144088 8,55.1005867 C8,60.4669294 9.98289239,65.6411549 13.5825235,69.6704401 C17.1485688,73.6615604 22.0468594,76.2599932 27.3758414,76.9877098 C28.0673184,77.0815043 28.7061113,76.6080035 28.8022596,75.9288014 C28.8984077,75.2489527 28.415691,74.6221463 27.7235555,74.5277048 C17.9210472,73.1887066 10.5288298,64.8371092 10.5288298,55.1005867 C10.5288298,44.2838094 19.4883949,35.4839388 30.4999999,35.4839388 C41.5122637,35.4839388 50.4711702,44.2838094 50.4711702,55.1005867 C50.4711702,64.8371092 43.0789528,73.1887066 33.2764443,74.5277048 C32.5849675,74.6221463 32.1022506,75.2495995 32.198399,75.9288014 C32.285986,76.5497861 32.8279722,77 33.4489844,77 Z" id="Path"></path>
                        <path d="M58.7534896,40.8398438 C59.4423166,40.8398438 60,40.282135 60,39.5947266 L60,5.03559108 C60,2.25872044 57.7387523,0 54.9594236,0 L5.0412257,0 C2.26124785,0 0,2.25872044 0,5.03559108 L0,79.9644089 C0,82.7412796 2.26124785,85 5.0412257,85 L54.9587743,85 C57.7387523,85 60,82.7412796 60,79.9644089 L60,45.4052734 C60,44.717865 59.4423166,44.1601562 58.7534896,44.1601562 C58.0646628,44.1601562 57.5069792,44.717865 57.5069792,45.4052734 L57.5069792,79.9644089 C57.5069792,81.3677597 56.3636954,82.5097656 54.9587743,82.5097656 L5.0412257,82.5097656 C3.63630458,82.5097656 2.49302084,81.3677597 2.49302084,79.9644089 L2.49302084,5.03559108 C2.49302084,3.63224025 3.63630458,2.49023437 5.0412257,2.49023437 L54.9587743,2.49023437 C56.3636954,2.49023437 57.5069792,3.63224025 57.5069792,5.03559108 L57.5069792,39.5947266 C57.5069792,40.282135 58.0646628,40.8398437 58.7534896,40.8398437 L58.7534896,40.8398438 Z" id="Path"></path>
                    </g>
                </g>
            </g>
        </g>
    </g>
</svg>