<?xml version="1.0" encoding="UTF-8"?>
<svg width="52px" height="80px" viewBox="0 0 52 80" version="1.1" xmlns="http://www.w3.org/2000/svg" xmlns:xlink="http://www.w3.org/1999/xlink">
    <!-- Generator: Sketch 53 (72520) - https://sketchapp.com -->
    <title>icon/watch</title>
    <desc>Created with Sketch.</desc>
    <defs>
        <linearGradient x1="149.157588%" y1="48.9230602%" x2="16.2566868%" y2="49.5020544%" id="linearGradient-1">
            <stop stop-color="#6A9BF4" offset="0%"></stop>
            <stop stop-color="#766DF4" offset="59.840714%"></stop>
            <stop stop-color="#A6A0FF" offset="100%"></stop>
        </linearGradient>
    </defs>
    <g id="Homepages-(Demos)" stroke="none" stroke-width="1" fill="none" fill-rule="evenodd">
        <g id="Mobile-App-Showcase" transform="translate(-775.000000, -1345.000000)" fill="#737491" fill-rule="nonzero">
            <g id="Devices" transform="translate(0.000000, 1224.000000)">
                <g id="icons" transform="translate(360.000000, 116.000000)">
                    <g id="icon/watch" transform="translate(415.000000, 5.000000)">
                        <path d="M37.8604736,14 L9.13952637,14 C4.10006917,14 0,17.9869379 0,22.8879361 L0,57.1120639 C0,62.0130621 4.10006917,66 9.13952637,66 L37.8604736,66 C42.8999308,66 47,62.0130621 47,57.1120639 L47,22.8879361 C47,17.9869379 42.8999308,14 37.8604736,14 Z M44.3887614,57.1120639 C44.3887614,60.614847 41.4600586,63.4632968 37.8602824,63.4632968 L9.13933512,63.4632968 C5.53955892,63.4632968 2.61085612,60.6146613 2.61085612,57.1120639 L2.61085612,22.8879361 C2.61085612,19.385153 5.53955892,16.5367032 9.13933512,16.5367032 L37.8602824,16.5367032 C41.4600586,16.5367032 44.3887614,19.3853387 44.3887614,22.8879361 L44.3887614,57.1120639 Z" id="Shape"></path>
                        <path d="M39.9793944,14.5492242 L38.1216688,4.63934556 C37.6332535,2.03725196 35.1169947,0 32.3919463,0 L14.6078308,0 C11.8835261,0 9.36652357,2.03725196 8.87829425,4.63934556 L7.02056867,14.5492242 C6.95289332,14.9085378 7.05422043,15.2772263 7.2949885,15.5575738 C7.53575658,15.8379213 7.89272547,16 8.26921609,16 L38.730561,16 C39.1068657,16 39.4638346,15.8375607 39.7049745,15.5575738 C39.9461145,15.2774066 40.0470697,14.9085378 39.9793944,14.5492242 Z M9.79005228,13.5383506 L11.3755891,5.07924775 C11.6422002,3.65984202 13.1219478,2.46146912 14.6076449,2.46146912 L32.3917604,2.46146912 C33.8774575,2.46146912 35.357391,3.66110404 35.6238162,5.07924775 L37.2097248,13.5383506 L9.79005228,13.5383506 Z" id="Shape"></path>
                        <path d="M39.7049932,64.4424262 C39.4642253,64.1620787 39.1072566,64 38.7307662,64 L8.26943826,64 C7.89313377,64 7.53616508,64.1624393 7.2950253,64.4424262 C7.05388551,64.7224132 6.95293031,65.091282 7.02060562,65.4507758 L8.87851608,75.3606544 C9.36693105,77.962748 11.8837462,80 14.6080494,80 L32.392155,80 C35.1172019,80 37.6334593,77.962748 38.1216883,75.3606544 L39.9794129,65.4507758 C40.0470882,65.091282 39.9459471,64.7225934 39.7049932,64.4424262 Z M35.6243949,74.9203917 C35.3577839,76.338896 33.8780372,77.5381703 32.3923409,77.5381703 L14.6082353,77.5381703 C13.1225391,77.5381703 11.6426064,76.3397974 11.3761814,74.9203917 L9.7902736,66.4612888 L37.2099308,66.4612888 L35.6243949,74.9203917 Z" id="Shape"></path>
                        <path d="M48.1980469,26 L45.3333984,26 C44.5970703,26 44,26.5285242 44,27.1818654 L44,37.8181346 C44,38.4713026 44.5970703,39 45.3333984,39 L48.1980469,39 C50.2943359,39 52,37.4881748 52,35.6301169 L52,29.3700562 C52,27.5118252 50.2943359,26 48.1980469,26 Z M49.3333984,35.6299438 C49.3333984,36.185128 48.8244141,36.6362692 48.1980469,36.6362692 L46.6667969,36.6362692 L46.6667969,28.3635577 L48.1980469,28.3635577 C48.8244141,28.3635577 49.3333984,28.8146989 49.3333984,29.3698831 L49.3333984,35.6299438 Z" id="Shape"></path>
                        <path d="M9.60948277,20.3905337 C9.08876057,19.8698221 8.24478435,19.8698221 7.72406216,20.3905337 L4.39054165,23.7239864 C3.86981945,24.244698 3.86981945,25.088657 4.39054165,25.6093686 C4.65090274,25.8697244 4.9923215,26 5.33315429,26 C5.6741824,26 6.01560116,25.8697244 6.27576693,25.6093686 L9.60928745,22.2759159 C10.130205,21.7552043 10.130205,20.9112453 9.60948277,20.3905337 Z" id="Path"></path>
                        <path d="M15.6094885,19.3905312 C15.0887739,18.8698229 14.2448101,18.8698229 13.7240955,19.3905312 L6.39053592,26.7240012 C5.86982136,27.2447094 5.86982136,28.088663 6.39053592,28.6093712 C6.65089321,28.8697253 6.99230696,29 7.33313476,29 C7.67415788,29 8.01557163,28.8697253 8.2757336,28.6093712 L15.6092932,21.2759011 C16.1302031,20.7551929 16.1302031,19.9112394 15.6094885,19.3905312 Z" id="Path"></path>
                    </g>
                </g>
            </g>
        </g>
    </g>
</svg>