<svg xmlns="http://www.w3.org/2000/svg" viewBox="0 0 85 83" xmlns:v="https://vecta.io/nano"><path d="M80.8 41h-1.4V11.1A7.13 7.13 0 0 0 72.3 4H12.8a7.13 7.13 0 0 0-7.1 7.1v21.3H4.2c-2.3 0-4.2 1.9-4.2 4.3v37C0 76.1 1.9 78 4.2 78H58c.8 0 1.4-.6 1.4-1.4a7.13 7.13 0 0 0-7.1-7.1h-4.2V61h17v12.8c0 2.4 1.9 4.3 4.2 4.3h11.3c2.3 0 4.2-1.9 4.2-4.3V45.3c.2-2.4-1.7-4.3-4-4.3zM31.2 73.7c0 .8-.6 1.4-1.4 1.4H4.2c-.8 0-1.4-.6-1.4-1.4v-1.4h28.3v1.4h.1zm0-4.2H2.8V36.7c0-.8.6-1.4 1.4-1.4h25.5c.8 0 1.4.6 1.4 1.4v32.8h.1zm21.2 2.8c1.8 0 3.4 1.1 4 2.8H33.7c.2-.5.3-.9.3-1.4v-1.4h18.4zM34 69.5V61h2.8v8.5H34zm5.7 0V61h5.7v8.5h-5.7zm25.5-11.4H34v-8.5h31.2v8.5zm0-12.8v1.4H34v-10c0-.7-.2-1.3-.5-1.9h.1l14-14.1c.5-.6.5-1.5 0-2s-1.4-.5-2 0l-14 14.1s0 .1-.1.1c-.5-.3-1.1-.4-1.8-.4H8.5V11.1c0-2.4 1.9-4.3 4.2-4.3h59.5c2.3 0 4.2 1.9 4.2 4.3V41h-7.1c-2.2 0-4.1 1.9-4.1 4.3zm17 28.4c0 .8-.6 1.4-1.4 1.4H69.4c-.8 0-1.4-.6-1.4-1.4v-1.4h14.2v1.4zm0-4.2H68V45.3c0-.8.6-1.4 1.4-1.4h11.3c.8 0 1.4.6 1.4 1.4l.1 24.2zM16.9 49.4c-.5-.6-1.4-.6-1.9 0l-5.6 6.1c-.5.6-.5 1.5 0 2 .5.6 1.4.6 1.9 0l5.6-6.1c.3-.4-.2-1.2 0-2zm8.7 0a1.52 1.52 0 0 0-2 0l-6.1 6.1c-.6.6-.6 1.5 0 2 .6.6 1.5.6 2 0l6.1-6.1c.5-.5.5-1.4 0-2zm31-31a1.52 1.52 0 0 0-2 0L40.4 32.5c-.6.5-.6 1.3-.1 1.9l.1.1c.5.6 1.3.6 1.9.1l14.2-14.2c.6-.5.6-1.5.1-2zm22 35c-.6-.5-1.5-.5-2 0l-4.1 4.1c-.6.6-.6 1.5 0 2.1s1.5.6 2.1 0l4.1-4.1a1.81 1.81 0 0 0-.1-2.1zM42.5 53h0a1.54 1.54 0 0 0-1.5 1.5 1.54 1.54 0 0 0 1.5 1.5 1.54 1.54 0 0 0 1.5-1.5 1.54 1.54 0 0 0-1.5-1.5zm3.2-44h-5.3c-.8 0-1.4.7-1.4 1.5s.6 1.5 1.3 1.5h5.3c.7 0 1.3-.7 1.3-1.5S46.4 9 45.7 9z" fill="#766df4"/></svg>