<svg xmlns="http://www.w3.org/2000/svg" viewBox="0 0 78 83" xmlns:v="https://vecta.io/nano"><path d="M65.5 17.4a1.54 1.54 0 0 0-1.5 1.5 1.54 1.54 0 0 0 1.5 1.5 1.54 1.54 0 0 0 1.5-1.5 1.47 1.47 0 0 0-1.5-1.5zm-53 0a1.54 1.54 0 0 0-1.5 1.5 1.54 1.54 0 0 0 1.5 1.5 1.54 1.54 0 0 0 1.5-1.5 1.47 1.47 0 0 0-1.5-1.5zm64 19h-1.8c-.6-4.3-1.9-8.4-4-12.2-.4-.7-1.3-1-2-.6s-1 1.3-.6 2c1.8 3.4 3.1 7 3.6 10.8h-1.2a1.54 1.54 0 0 0-1.5 1.5v6a1.54 1.54 0 0 0 1.5 1.5h5.9a1.54 1.54 0 0 0 1.5-1.5v-6c.1-.9-.6-1.5-1.4-1.5zm-1.5 6h-3v-3h3v3zm-20 4.4v-.5c0-.1 0-.1-.1-.1l-15-28c-.3-.5-.8-.8-1.3-.8s-1.1.3-1.3.8l-15 28s0 .1-.1.1v1.2L27.5 62c-.4.2-.8.5-1.2.9-.9.9-1.3 2-1.3 3.2 0 2 1.3 3.7 3 4.3v8.4a1.54 1.54 0 0 0 1.5 1.5h18a1.54 1.54 0 0 0 1.5-1.5v-8.4c.6-.2 1.2-.6 1.7-1.1.9-.9 1.3-2 1.3-3.2 0-1.8-1-3.4-2.5-4.1l5.4-14.6v-.5c.1 0 .1 0 .1-.1 0 .1 0 .1 0 0 0 .1 0 0 0 0zm-16.5-1.5a1.54 1.54 0 0 1 1.5 1.5 1.54 1.54 0 0 1-1.5 1.5 1.54 1.54 0 0 1-1.5-1.5 1.54 1.54 0 0 1 1.5-1.5zm7.5 32H31v-6.6h15v6.6zm2.6-10.1c-.3.3-.7.4-1.1.4h-18a1.54 1.54 0 0 1-1.5-1.5c0-.4.2-.8.4-1.1.3-.3.7-.4 1.1-.4h18a1.54 1.54 0 0 1 1.5 1.5c0 .4-.2.8-.4 1.1zm-2.1-5.6h-16l-4.9-13.2h3.8a1.54 1.54 0 0 0 1.5-1.5 1.54 1.54 0 0 0-1.5-1.5H26l11-20.5v17.7c-1.7.6-3 2.3-3 4.3 0 2.5 2 4.6 4.5 4.6s4.5-2.1 4.5-4.6c0-2-1.3-3.7-3-4.3V24.9l11 20.5h-3.5a1.54 1.54 0 0 0-1.5 1.5 1.54 1.54 0 0 0 1.5 1.5h3.8l-4.8 13.2zM9.2 23.5c-.7-.4-1.6-.1-2 .6-2.1 3.8-3.4 7.9-4 12.2H1.5c-.8.1-1.5.7-1.5 1.6v6a1.54 1.54 0 0 0 1.5 1.5h5.9a1.54 1.54 0 0 0 1.5-1.5v-6a1.54 1.54 0 0 0-1.5-1.5H6.2a34.39 34.39 0 0 1 3.6-10.8c.4-.7.2-1.6-.6-2.1zM5.9 42.4H3v-3h2.9v3zm67.5-40c-2 0-3.7 1.3-4.3 3.1H43.6V3.9a1.54 1.54 0 0 0-1.5-1.5H36a1.54 1.54 0 0 0-1.5 1.5v1.5H8.9c-.7-1.8-2.3-3-4.3-3-2.5 0-4.6 2-4.6 4.5s2.1 4.6 4.6 4.6c2 0 3.7-1.3 4.3-3.1h15.3c-3.2 1.4-6.2 3.1-8.7 5.2-.6.5-.7 1.5-.2 2.2.3.4.7.5 1.2.5.3 0 .7-.1 1-.4 4.4-3.7 10.6-6.3 17-7.2V10a1.54 1.54 0 0 0 1.5 1.5h6a1.54 1.54 0 0 0 1.5-1.5V8.8c6.3.9 12.6 3.5 17 7.2.3.2.6.4 1 .4s.9-.2 1.2-.5c.5-.6.5-1.6-.2-2.2-2.5-2.1-5.4-3.8-8.7-5.2h15.3c.6 1.8 2.3 3.1 4.3 3.1 2.5 0 4.6-2.1 4.6-4.6s-2.1-4.6-4.6-4.6zM4.6 8.5A1.58 1.58 0 0 1 3 6.9c0-.8.6-1.5 1.4-1.5h.1A1.54 1.54 0 0 1 6 6.9c0 .8-.6 1.6-1.4 1.6zm35.9-1.6v1.5h-3v-3h3v1.5zm32.9 1.6A1.54 1.54 0 0 1 71.9 7a1.54 1.54 0 0 1 1.5-1.5c.8 0 1.6.6 1.6 1.4s-.7 1.6-1.6 1.6z" fill="#766df4"/></svg>