<svg xmlns="http://www.w3.org/2000/svg" viewBox="0 0 83 83" xmlns:v="https://vecta.io/nano"><path d="M82.8 46.2c0-.1.1-.1 0 0L82.9 0l-.2-.2H36.6l-.2.2v.9L27 54.1 21.1 60l-3-6c-.2-.4-.6-.6-1-.7s-.8.1-1.1.4l-5.8 5.8c-.3.3-.4.7-.4 1.1.1.4.3.8.7 1l6 3-4.9 4.9-3-6c-.2-.4-.6-.6-1-.7s-.8.1-1.1.4L.7 69c-.6.5-.8 1-.7 1.4s.3.8.7 1l6 3-6.2 6.2c-.5.5-.5 1.4 0 1.9.3.3.6.4.9.4s.7-.1.9-.4l6.2-6.2 3 6c.2.4.6.6 1 .7h.2c.3 0 .7-.1.9-.4l5.8-5.8c.3-.3.4-.7.4-1.1-.1-.4-.3-.8-.7-1l-6-3 4.9-4.9 3 6c.2.4.6.6 1 .7h.2c.3 0 .7-.1.9-.4l5.8-5.8c.3-.3.4-.7.4-1.1-.1-.4-.3-.8-.7-1l-6-3 5.9-5.9 53.3-9.4h.8l.1-.1c-.1-.4 0-.4.1-.6-.1.1-.1.1 0 0-.1.1 0 .1 0 0h0zM59.6 21.5L40.7 2.6h37.8L59.6 21.5zM38.4 4.1l19.4 19.4-27.7 27.6 8.3-47zM13.1 60.3l3.2-3.2 2.6 5.1-.7.7-5.1-2.6zm-9.5 9.5l3.2-3.2 2.6 5.1-.7.7-5.1-2.6zm12.8 6.4l-3.2 3.2-2.6-5.1.7-.7 5.1 2.6zm9.5-9.5l-3.2 3.2-2.6-5.1.7-.7 5.1 2.6zm34.6-42.4L80.3 4.5v37.8l-16-16.1c-.5-.5-1.4-.5-1.9 0s-.5 1.4 0 1.9l16.5 16.5-47 8.3 28.6-28.6z" fill="#766df4"/></svg>