<svg width="2500" height="2490" viewBox="0 0 256 255" xmlns="http://www.w3.org/2000/svg" preserveAspectRatio="xMidYMid"><path d="M128.637 155.747V.513h-3.523v.069L.506 64.615v60.864h.006v3.234H.506v60.868l124.608 64.748h3.843v-98.582h-.32" fill="#FF8E4A"/><path d="M129.941 254.329L255.51 189.58V64.615L129.623.513h-2.244v253.81h2.244" fill="#F48746"/><path d="M109.098 87.255h36.195v59.208h-36.195V87.255z" fill="#FF8E4A"/><path d="M66.174 188.397h14.863c9.41 0 12.61-2.238 15.62-9.989l8.28-21.353h45.159l8.28 21.353c3.012 7.75 6.396 9.99 15.806 9.99h14.677v-19.115h-3.011c-3.197 0-4.705-.69-5.831-3.79L140.5 66.127h-25.78l-39.703 99.366c-1.129 3.1-2.633 3.79-5.833 3.79h-3.01v19.114zm44.407-49.94l11.478-30.655c2.446-6.715 5.27-18.256 5.27-18.256h.375s2.823 11.541 5.27 18.256l11.478 30.655H110.58z" fill="#FFF"/><path d="M231.205 150.083V98.274c.235 4.523 2.97 16.843 24.305 27.851v11.654l-24.305 12.304zm0-53.163v1.354a12.462 12.462 0 0 1 0-1.354zm.042-.439s-.023.154-.042.44v-.44h.042z" fill="#D4763C"/><path d="M231.155 94.302c-.014.993.059 1.894.05 2.046-.018.248-2.22 16.094 24.305 29.777V65.262c-23.326 12.035-24.45 25.742-24.355 29.04" fill="#FF8E4A"/></svg>