<?xml version="1.0" encoding="UTF-8"?>
<svg width="495px" height="423px" viewBox="0 0 495 423" version="1.1" xmlns="http://www.w3.org/2000/svg" xmlns:xlink="http://www.w3.org/1999/xlink">
    <!-- Generator: Sketch 53 (72520) - https://sketchapp.com -->
    <title>illustration</title>
    <desc>Created with Sketch.</desc>
    <defs>
        <linearGradient x1="49.9989145%" y1="99.9903002%" x2="49.9989145%" y2="0.00713229431%" id="linearGradient-1">
            <stop stop-color="#808080" stop-opacity="0.25" offset="0%"></stop>
            <stop stop-color="#808080" stop-opacity="0.12" offset="54%"></stop>
            <stop stop-color="#808080" stop-opacity="0.1" offset="100%"></stop>
        </linearGradient>
    </defs>
    <g id="Homepages-(Demos)" stroke="none" stroke-width="1" fill="none" fill-rule="evenodd">
        <g id="Booking-/-Directory" transform="translate(-1081.000000, -2220.000000)" fill-rule="nonzero">
            <g id="FAQ" transform="translate(345.000000, 2113.000000)">
                <g id="illustration" transform="translate(736.000000, 107.000000)">
                    <path d="M62.9090849,335 C62.9090849,335 66.5159123,339.810932 61.2471154,347.076315 C55.9783185,354.341698 51.6491154,360.482984 53.3919101,365 C53.3919101,365 61.3380438,351.510828 67.8091165,351.320041 C74.2801892,351.129254 70.0267597,343.116191 62.9090849,335 Z" id="Path" fill="#766DF4"></path>
                    <path d="M62.8181987,335 C63.135717,335.465841 63.386779,335.974427 63.564014,336.510828 C69.9494189,344.08044 73.3464544,351.144723 67.2113573,351.320041 C61.5002511,351.485046 54.639772,361.803025 53,364.407013 C53.054692,364.607873 53.1194813,364.805792 53.1941163,365 C53.1941163,365 61.2295099,351.510828 67.7732729,351.320041 C74.3170359,351.129254 70.0158272,343.116191 62.8181987,335 Z" id="Path" fill="#000000" opacity="0.1"></path>
                    <path d="M70,341.046539 C70,342.677406 69.7757576,344 69.5030303,344 C69.230303,344 69,342.677406 69,341.046539 C69,339.415672 69.2787879,340.181384 69.5575758,340.181384 C69.8363636,340.181384 70,339.410699 70,341.046539 Z" id="Path" fill="#FFD037"></path>
                    <path d="M72.2787698,342.514138 C71.1118658,343.569028 70.0908248,344.207338 70.005738,343.938576 C69.9206513,343.669814 70.7917775,342.594766 71.9586815,341.539875 C73.1255856,340.484985 72.6677378,341.250956 72.7690315,341.539875 C72.8703253,341.828795 73.4456738,341.459247 72.2787698,342.514138 Z" id="Path" fill="#FFD037"></path>
                    <path d="M43.0909151,335 C43.0909151,335 39.4840877,339.810932 44.7528846,347.076315 C50.0216815,354.341698 54.3508846,360.482984 52.6080899,365 C52.6080899,365 44.6619562,351.510828 38.1908835,351.320041 C31.7198108,351.129254 35.9732403,343.116191 43.0909151,335 Z" id="Path" fill="#766DF4"></path>
                    <path d="M43.1818013,335 C42.864283,335.465841 42.613221,335.974427 42.435986,336.510828 C36.0505811,344.08044 32.6535456,351.144723 38.7886427,351.320041 C44.5048572,351.485046 51.360228,361.803025 53,364.407013 C52.9476332,364.608575 52.8828007,364.806626 52.8058837,365 C52.8058837,365 44.7704901,351.510828 38.2267271,351.320041 C31.6829641,351.129254 35.9841728,343.116191 43.1818013,335 Z" id="Path" fill="#000000" opacity="0.1"></path>
                    <path d="M36,341.046539 C36,342.677406 36.2242424,344 36.5030303,344 C36.7818182,344 37,342.677406 37,341.046539 C37,339.415672 36.7212121,340.181384 36.4424242,340.181384 C36.1636364,340.181384 36,339.410699 36,341.046539 Z" id="Path" fill="#FFD037"></path>
                    <path d="M34.7201414,342.514138 C35.8852839,343.569028 36.9047835,344.207338 36.9937875,343.938576 C37.0827914,343.669814 36.2048889,342.594766 35.0397465,341.539875 C33.874604,340.484985 34.3317606,341.250956 34.2306198,341.539875 C34.1294789,341.828795 33.554999,341.459247 34.7201414,342.514138 Z" id="Path" fill="#FFD037"></path>
                    <path d="M475.722265,294.130458 C472.411854,302.118466 468.068554,309.775579 461.989999,315.648962 C454.584182,322.804562 445.386301,326.708087 435.5377,328.57454 C432.634499,329.116296 429.703455,329.496033 426.75814,329.711991 C418.975318,330.311738 411.006575,329.91363 403.363193,329.081223 C384.641488,327.034984 366.177475,323.079918 348.258541,317.277585 C345.314806,316.326262 342.388286,315.324961 339.47898,314.27368 C335.085757,312.705377 330.735571,311.012987 326.428422,309.196513 C308.869301,301.849614 290.716269,292.481154 272.036463,295.386825 C262.983187,296.798298 254.477342,301.074079 245.403408,302.345956 C239.035113,303.183552 232.56338,302.722777 226.377585,300.991355 C223.382892,300.189377 220.44897,299.175177 217.598024,297.95643 C211.172355,295.159539 205.058431,291.693643 199.357196,287.615967 C185.671411,278.040698 173.390355,266.169846 158.981547,257.876795 C143.095707,248.730656 125.510764,244.382491 107.595297,241.140756 C104.679106,240.613392 101.752585,240.110156 98.8157363,239.631048 C90.5267984,238.260937 82.2172027,236.99423 74.0263893,235.494863 C66.1351138,234.036858 58.1043983,232.253128 51.2356834,227.868772 C46.3346229,224.740782 42.213394,220.408128 38.4330185,215.842813 C31.4574105,207.391835 25.4723511,198.168267 20.5950176,188.352692 C20.3367952,187.835669 20.0837373,187.318646 19.8358438,186.801623 C12.2492707,171.218545 7.14679681,154.229165 4.01714175,136.650378 C3.9241817,136.133355 3.83638609,135.616331 3.74859049,135.099308 C0.804855529,117.866927 -0.269349508,100.050309 0.0560106712,82.3629472 L0.086997355,80.8118777 C0.2884108,72.0793568 0.830677766,63.3830274 1.63633154,54.8107836 C2.21474964,48.7822937 2.98941674,42.5263136 6.1087429,37.4594868 C9.22806907,32.3926599 14.3202141,29.1095629 19.4071947,26.4107021 C41.7692515,14.4829781 63.2068722,11.1636895 87.2628677,16.9440083 C91.1258743,17.8694797 94.9733875,18.8673344 98.8209008,19.9013807 C101.749142,20.6872559 104.677384,21.4989822 107.600461,22.3158788 C127.808943,27.9566013 147.965781,33.9592401 168.855971,35.7584806 C170.873548,35.9342685 172.892847,36.0686945 174.913867,36.1617587 C178.911149,36.347887 182.908432,36.3892489 186.905714,36.2858442 C197.202547,35.9965239 207.463492,34.9388638 217.603189,33.1216626 C220.536595,32.6149799 223.463115,32.0531481 226.382749,31.4361671 C238.984,28.8045193 251.471634,25.2939321 263.757854,21.4110883 C266.267776,20.6183194 268.774254,19.8117633 271.277289,18.9914199 C276.916866,17.1456473 282.556442,15.263683 288.206348,13.4334211 C305.068268,7.95814596 322.043806,2.95853212 339.47898,0.942141842 C340.973227,0.769800792 342.467474,0.619864079 343.961721,0.492331703 C345.392273,0.368246147 346.827989,0.270011749 348.258541,0.197628509 C375.346067,-1.25003631 402.74346,5.29030651 426.75814,18.6760358 C429.736304,20.3374035 432.662824,22.1021759 435.5377,23.9703528 C439.52121,26.565809 443.382496,29.357734 447.121555,32.3461278 C454.785595,38.4728521 461.959013,45.4474944 467.422998,53.8284396 C472.747543,61.9922351 476.202558,71.1590555 478.19087,80.796367 C478.299324,81.3133902 478.402613,81.8304133 478.495573,82.3474365 C481.413485,97.904663 480.504543,114.589 477.230283,130.177248 C476.884265,131.811041 476.517589,133.450004 476.13542,135.083798 C476.016638,135.600821 475.892691,136.117844 475.768745,136.634867 C472.236263,151.375197 467.722536,166.074165 468.90003,181.14539 C469.049799,183.042865 469.287363,184.924829 469.59723,186.786112 C469.685026,187.303135 469.772821,187.820159 469.870946,188.337182 C472.174289,200.631992 477.411039,212.296034 480.551023,224.47193 C486.445093,247.609012 484.752204,272.030233 475.722265,294.130458 Z" id="Path" fill="#766DF4" opacity="0.1"></path>
                    <path d="M435.081595,82.2877048 L478,82.2877048 C477.907125,81.7699115 477.803931,81.2521182 477.695578,80.734325 L435.081595,80.734325 L435.081595,23.8081341 C432.2128,21.9406264 429.288969,20.1732254 426.3101,18.5059311 L426.3101,80.734325 L347.882622,80.734325 L347.882622,0 C346.453385,0.0724910563 345.018987,0.170871776 343.58975,0.295142158 C342.160512,0.41941254 340.602282,0.574750518 339.111128,0.745622293 L339.111128,80.734325 L227.145583,80.734325 L226.877279,80.4391828 L287.880442,13.2503295 C282.235727,15.0833176 276.601332,16.9680851 270.966937,18.816607 L226.113643,68.208906 L226.113643,31.2798908 C223.193251,31.8977907 220.26942,32.4604594 217.342149,32.9678968 L217.342149,69.9124459 L186.672877,36.1367916 C182.679267,36.2334463 178.685658,36.1920228 174.692048,36.0125212 L215.020283,80.423649 L214.751978,80.7187912 L107.430166,80.7187912 L107.430166,22.1511956 C104.509774,21.3330823 101.584223,20.5201469 98.6586716,19.7331011 L98.6586716,80.734325 L0.030958215,80.734325 L0,82.2877048 L98.6689911,82.2877048 L98.6689911,135.102617 L3.68918729,135.102617 C3.77690224,135.62041 3.86461718,136.138204 3.95749182,136.655997 L98.6689911,136.655997 L98.6689911,186.881943 L19.7616606,186.881943 C20.0093263,187.399736 20.2621517,187.91753 20.5201369,188.435323 L98.6689911,188.435323 L98.6689911,239.831482 C101.599702,240.311304 104.523533,240.815289 107.440485,241.343438 L107.440485,188.435323 L217.342149,188.435323 L217.342149,298.207494 C220.190475,299.428056 223.121702,300.443768 226.113643,301.24694 L226.113643,188.435323 L339.111128,188.435323 L339.111128,314.538693 C342.0212,315.594992 344.945032,316.597784 347.882622,317.547072 L347.882622,188.435323 L426.3101,188.435323 L426.3101,330 C429.25271,329.78372 432.181061,329.403418 435.081595,328.860855 L435.081595,188.435323 L469.383297,188.435323 C469.285262,187.91753 469.197548,187.399736 469.109833,186.881943 L435.055796,186.881943 L435.055796,136.655997 L475.249879,136.655997 C475.373711,136.138204 475.497544,135.62041 475.616217,135.102617 L435.081595,135.102617 L435.081595,82.2877048 Z M426.3101,82.2877048 L426.3101,135.102617 L347.882622,135.102617 L347.882622,82.2877048 L426.3101,82.2877048 Z M339.111128,135.102617 L226.113643,135.102617 L226.113643,82.2877048 L339.111128,82.2877048 L339.111128,135.102617 Z M107.440485,82.2877048 L215.794238,82.2877048 L217.342149,83.7012804 L217.342149,135.102617 L107.440485,135.102617 L107.440485,82.2877048 Z M107.440485,186.881943 L107.440485,136.655997 L217.342149,136.655997 L217.342149,186.881943 L107.440485,186.881943 Z M226.113643,186.881943 L226.113643,136.655997 L339.111128,136.655997 L339.111128,186.881943 L226.113643,186.881943 Z M426.3101,186.881943 L347.882622,186.881943 L347.882622,136.655997 L426.3101,136.655997 L426.3101,186.881943 Z" id="Shape" fill="#766DF4" opacity="0.1"></path>
                    <path d="M208.450281,95.9839852 C207.785345,95.4060269 207.014589,94.9646693 206.18143,94.684775 C204.317633,94.1037841 202.360264,93.8894402 200.416062,94.053432 C198.989849,94.1344422 197.572659,94.3333849 196.178801,94.6482511 L131.086606,113.197215 C129.857214,113.545062 128.648541,113.950305 127.460589,114.412942 C123.264768,112.758927 111.402511,107.974286 110.102325,106.257659 L105,107.76036 L113.505601,120.54897 L113.505601,120.54897 C113.06525,120.7427 112.788071,121.188789 112.807551,121.672408 C112.827031,122.156027 113.139177,122.578032 113.593662,122.735191 C123.399449,126.126704 138.209141,121.623819 138.209141,121.623819 L195.085816,105.255858 C195.085816,105.255858 212.252419,99.4068038 208.450281,95.9839852 Z" id="Path" fill="#766DF4" opacity="0.1"></path>
                    <ellipse id="Oval" fill="#766DF4" opacity="0.1" transform="translate(133.224988, 116.805307) rotate(-18.220000) translate(-133.224988, -116.805307) " cx="133.224988" cy="116.805307" rx="1" ry="1"></ellipse>
                    <ellipse id="Oval" fill="#766DF4" opacity="0.1" transform="translate(135.197005, 116.153394) rotate(-18.220000) translate(-135.197005, -116.153394) " cx="135.197005" cy="116.153394" rx="1" ry="1"></ellipse>
                    <ellipse id="Oval" fill="#766DF4" opacity="0.1" transform="translate(138.961053, 114.910388) rotate(-18.220000) translate(-138.961053, -114.910388) " cx="138.961053" cy="114.910388" rx="1" ry="1"></ellipse>
                    <ellipse id="Oval" fill="#766DF4" opacity="0.1" transform="translate(149.585787, 111.784422) rotate(-18.220000) translate(-149.585787, -111.784422) " cx="149.585787" cy="111.784422" rx="1" ry="1"></ellipse>
                    <ellipse id="Oval" fill="#766DF4" opacity="0.1" transform="translate(151.137216, 111.755572) rotate(-18.072322) translate(-151.137216, -111.755572) " cx="151.137216" cy="111.755572" rx="1" ry="1"></ellipse>
                    <ellipse id="Oval" fill="#766DF4" opacity="0.1" transform="translate(153.397425, 110.710926) rotate(-18.220000) translate(-153.397425, -110.710926) " cx="153.397425" cy="110.710926" rx="1" ry="1"></ellipse>
                    <ellipse id="Oval" fill="#766DF4" opacity="0.1" transform="translate(155.346306, 110.065218) rotate(-18.220000) translate(-155.346306, -110.065218) " cx="155.346306" cy="110.065218" rx="1" ry="1"></ellipse>
                    <ellipse id="Oval" fill="#766DF4" opacity="0.1" transform="translate(157.260584, 109.435215) rotate(-18.220000) translate(-157.260584, -109.435215) " cx="157.260584" cy="109.435215" rx="1" ry="1"></ellipse>
                    <ellipse id="Oval" fill="#766DF4" opacity="0.1" transform="translate(158.990238, 108.864096) rotate(-18.220000) translate(-158.990238, -108.864096) " cx="158.990238" cy="108.864096" rx="1" ry="1"></ellipse>
                    <ellipse id="Oval" fill="#766DF4" opacity="0.1" transform="translate(160.851674, 108.249218) rotate(-18.220000) translate(-160.851674, -108.249218) " cx="160.851674" cy="108.249218" rx="1" ry="1"></ellipse>
                    <ellipse id="Oval" fill="#766DF4" opacity="0.1" transform="translate(162.795658, 107.605126) rotate(-18.220000) translate(-162.795658, -107.605126) " cx="162.795658" cy="107.605126" rx="1" ry="1"></ellipse>
                    <ellipse id="Oval" fill="#766DF4" opacity="0.1" transform="translate(164.522026, 107.035364) rotate(-18.220000) translate(-164.522026, -107.035364) " cx="164.522026" cy="107.035364" rx="1" ry="1"></ellipse>
                    <ellipse id="Oval" fill="#766DF4" opacity="0.1" transform="translate(174.196696, 104.532328) rotate(-18.220000) translate(-174.196696, -104.532328) " cx="174.196696" cy="104.532328" rx="1" ry="1"></ellipse>
                    <ellipse id="Oval" fill="#766DF4" opacity="0.1" transform="translate(177.967513, 103.289063) rotate(-18.220000) translate(-177.967513, -103.289063) " cx="177.967513" cy="103.289063" rx="1" ry="1"></ellipse>
                    <ellipse id="Oval" fill="#766DF4" opacity="0.1" transform="translate(179.858655, 102.665265) rotate(-18.220000) translate(-179.858655, -102.665265) " cx="179.858655" cy="102.665265" rx="1" ry="1"></ellipse>
                    <ellipse id="Oval" fill="#766DF4" opacity="0.1" transform="translate(181.697216, 102.058208) rotate(-18.220000) translate(-181.697216, -102.058208) " cx="181.697216" cy="102.058208" rx="1" ry="1"></ellipse>
                    <ellipse id="Oval" fill="#766DF4" opacity="0.1" transform="translate(183.502587, 101.458973) rotate(-18.220000) translate(-183.502587, -101.458973) " cx="183.502587" cy="101.458973" rx="1" ry="1"></ellipse>
                    <ellipse id="Oval" fill="#766DF4" opacity="0.1" transform="translate(185.551933, 100.789024) rotate(-18.220000) translate(-185.551933, -100.789024) " cx="185.551933" cy="100.789024" rx="1" ry="1"></ellipse>
                    <ellipse id="Oval" fill="#766DF4" opacity="0.1" transform="translate(176.142292, 103.887977) rotate(-18.220000) translate(-176.142292, -103.887977) " cx="176.142292" cy="103.887977" rx="1" ry="1"></ellipse>
                    <ellipse id="Oval" fill="#766DF4" opacity="0.1" transform="translate(137.226502, 115.483123) rotate(-18.220000) translate(-137.226502, -115.483123) " cx="137.226502" cy="115.483123" rx="1" ry="1"></ellipse>
                    <polygon id="Rectangle" fill="#766DF4" opacity="0.1" transform="translate(167.551630, 107.011013) rotate(-13.870000) translate(-167.551630, -107.011013) " points="166.639755 105.417143 168.465326 105.416098 168.463504 108.604882 166.637934 108.605927"></polygon>
                    <polygon id="Rectangle" fill="#766DF4" opacity="0.1" transform="translate(188.428589, 101.016070) rotate(-13.870000) translate(-188.428589, -101.016070) " points="187.516715 99.4222008 189.342285 99.4211557 189.340464 102.609939 187.514893 102.610984"></polygon>
                    <polygon id="Path" fill="#766DF4" opacity="0.1" points="198.017699 95 196 95.7758621 197.00885 98 200 96.9137931"></polygon>
                    <path d="M206,95.6756299 L200.925,97 L199,95.8044597 L200.281618,95.0520938 C202.210039,94.8914622 204.151328,95.1031417 206,95.6756299 L206,95.6756299 Z" id="Path" fill="#766DF4" opacity="0.1"></path>
                    <path d="M106,107.467783 L114.354302,120 L128,113.940299 C128,113.940299 112.558279,108.038588 111.011563,106 L106,107.467783 Z" id="Path" fill="#766DF4" opacity="0.1"></path>
                    <polygon id="Path" fill="#766DF4" opacity="0.1" points="167 109 144.338854 115.260404 143 118"></polygon>
                    <path d="M388.076279,46.2963833 L387.388345,46.2963833 C387.877287,46.011145 388.191633,45.5040043 388.227416,44.9426961 L388.227416,44.9426961 C388.227416,43.8731799 386.908876,43 385.293272,43 L364.754264,43 C363.138661,43 361.82012,43.8731799 361.82012,44.9426961 L361.82012,44.9426961 C361.82012,46.0070456 363.138661,46.8802255 364.754264,46.8802255 L365.436987,46.8802255 C364.94938,47.166025 364.63688,47.6733372 364.603127,48.2339126 C364.603127,49.1484265 365.562066,49.9131047 366.844125,50.1197745 L360.928932,50.1197745 C359.318541,50.1197745 358,50.9929544 358,52.0624706 C358,53.1319868 359.318541,54 360.928932,54 L381.467941,54 C383.078332,54 384.402085,53.1268201 384.402085,52.0624706 C384.402085,51.1531235 383.437934,50.3832785 382.155875,50.1766087 L388.071068,50.1766087 C389.681459,50.1766087 391,49.3034288 391,48.2339126 C391,47.1643964 389.686671,46.2963833 388.076279,46.2963833 Z" id="Path" fill="#766DF4" opacity="0.1"></path>
                    <path d="M169.07153,64.2948357 L168.383704,64.2948357 C168.873233,64.0104032 169.187771,63.5031127 169.222643,62.941784 L169.222643,62.941784 C169.222643,61.8779343 167.904311,61 166.288963,61 L145.753198,61 C144.137849,61 142.819517,61.8779343 142.819517,62.941784 L142.819517,62.941784 C142.819517,64.0107981 144.137849,64.8835681 145.753198,64.8835681 L146.435812,64.8835681 C145.946283,65.1680006 145.631746,65.675291 145.596874,66.2366197 C145.596874,67.1455399 146.560872,67.9098592 147.842729,68.1164319 L141.92847,68.1164319 C140.318333,68.1164319 139,68.9892019 139,70.058216 C139,71.12723 140.318333,72 141.92847,72 L162.469446,72 C164.079583,72 165.397916,71.12723 165.397916,70.058216 C165.397916,69.1492958 164.439128,68.3798122 163.157271,68.1732394 L169.07153,68.1732394 C170.681667,68.1732394 172,67.3004695 172,66.2366197 C172,65.17277 170.681667,64.2948357 169.07153,64.2948357 Z" id="Path" fill="#766DF4" opacity="0.1"></path>
                    <path d="M419.066319,143.294836 L418.383704,143.294836 C418.873233,143.010403 419.187771,142.503113 419.222643,141.941784 L419.222643,141.941784 C419.222643,140.87277 417.8991,140 416.288963,140 L395.747987,140 C394.137849,140 392.819517,140.87277 392.819517,141.941784 L392.819517,141.941784 C392.819517,143.010798 394.137849,143.883568 395.747987,143.883568 L396.435812,143.883568 C395.944941,144.16664 395.629914,144.674719 395.596874,145.23662 C395.596874,146.14554 396.560872,146.909859 397.842729,147.116432 L391.92847,147.116432 C390.318333,147.116432 389,147.989202 389,149.058216 C389,150.12723 390.318333,151 391.92847,151 L412.469446,151 C414.079583,151 415.397916,150.12723 415.397916,149.058216 C415.397916,148.149296 414.439128,147.379812 413.157271,147.173239 L419.066319,147.173239 C420.681667,147.173239 422,146.300469 422,145.23662 C422,144.17277 420.681667,143.294836 419.066319,143.294836 Z" id="Path" fill="#766DF4" opacity="0.1"></path>
                    <ellipse id="Oval" fill="#766DF4" opacity="0.1" cx="261.5" cy="384" rx="156.5" ry="24"></ellipse>
                    <ellipse id="Oval" fill="#766DF4" opacity="0.1" cx="456.5" cy="407.5" rx="38.5" ry="5.5"></ellipse>
                    <ellipse id="Oval" fill="#766DF4" opacity="0.1" cx="52.5" cy="396.5" rx="38.5" ry="5.5"></ellipse>
                    <ellipse id="Oval" fill="#766DF4" opacity="0.1" cx="99.5" cy="420" rx="21.5" ry="3"></ellipse>
                    <path d="M72.9918398,359.256729 L72.8091011,360.76294 L72.5552973,362.890269 L72.4486998,363.780538 L72.194896,365.913043 L72.0832224,366.798137 L71.8294187,368.930642 L68.93098,393.149068 C68.6721002,395.312629 65.2102173,397 61.0275318,397 L45.9718943,397 C41.7892088,397 38.332402,395.312629 38.0735222,393.149068 L35.1700075,368.930642 L34.9162037,366.798137 L34.8096062,365.913043 L34.5507264,363.780538 L34.4441288,362.890269 L34.1903251,360.76294 L34.0075864,359.256729 C33.8654563,358.030021 35.7385278,357 38.1039786,357 L68.9005236,357 C71.2761265,357 73.1390459,358.030021 72.9918398,359.256729 Z" id="Path" fill="#5A5B75"></path>
                    <polygon id="Path" fill="#9D9CB5" points="73 361 72.7436909 363 34.2563091 363 34 361"></polygon>
                    <polygon id="Path" fill="#9D9CB5" points="72 364 71.738816 366 33.2664077 366 33 364"></polygon>
                    <polygon id="Path" fill="#9D9CB5" points="72 367 71.7405081 369 34.2594919 369 34 367"></polygon>
                    <path d="M350.20632,209.409713 L349.006887,205.954723 L349.454744,205.478886 L347.081616,193.727782 C347.174496,193.314036 347.207439,192.888984 347.179424,192.465779 C347.240134,191.231242 346.876641,190.013254 346.149867,189.015962 L345.676271,186.683326 C345.676271,186.497129 345.676271,186.316104 345.712306,186.129907 C346.685237,172.408217 340.842503,155.815989 340.842503,155.815989 L340.842503,140.54783 L336.333046,110.673544 L336.333046,110.673544 C336.420558,95.7312291 330.582972,90.5021947 330.582972,90.5021947 C330.582972,90.5021947 330.104229,90.3884076 329.326913,90.1504891 C327.782579,86.9385897 325.152062,81.8750638 320.848515,73.7392862 C319.250416,70.6435794 317.164351,67.8280396 314.671176,65.4017952 C311.349931,62.0022407 307.116467,59.6463757 302.486374,58.6211185 C302.883641,58.1719988 303.31569,57.7552001 303.778468,57.3746326 C304.808024,56.5419179 305.950832,55.8747117 306.913467,54.9799313 C308.187762,53.735954 309.163088,52.2165153 309.765339,50.5370623 C310.75341,48.1032223 311.02326,45.4350469 310.542654,42.851261 C310.030432,40.238484 308.479996,37.9485219 306.249403,36.5102164 C305.606563,36.1788979 304.999359,35.7820011 304.437384,35.3257961 C303.701251,34.6172128 303.356349,33.6189896 302.980561,32.6828321 C301.685809,29.4756815 299.735682,26.577177 297.256227,24.1746604 C296.22667,23.1402323 294.960316,22.1833862 293.48805,22.064427 C292.015784,21.9454677 290.564109,22.7368053 289.174208,23.3367736 C284.319694,25.3759778 278.821508,25.1871162 274.116944,22.8195595 C271.857067,21.6558278 269.679555,19.9593656 267.126255,20.0007428 C265.377664,20.0794153 263.749997,20.9197607 262.668275,22.3023454 C262.714605,22.2040748 262.755787,22.1058041 262.807265,22.0075334 C261.877047,23.0561233 261.264434,24.3499543 261.041575,25.736647 L261.041575,25.8762948 C261.041575,29.5795476 262.004211,33.7844981 265.04655,36.3240193 C264.825196,36.6033149 264.603841,36.8826105 264.39793,37.1722504 C260.732557,42.2152707 259.496367,48.637848 261.026132,54.6902914 C260.89212,54.7507321 260.76303,54.8216353 260.640048,54.9023492 L257.736699,56.878107 L251.126946,62.6191834 L248.172119,64.625974 C251.260788,62.3398878 255.687881,58.6159464 254.627438,57.7625431 C253.165468,56.5884671 238.391331,60.8658276 235.00409,64.8328597 C233.547268,66.5448383 231.663179,69.7463935 229.995298,72.8393337 L229.876899,72.6117595 C229.737909,72.7979566 229.578327,73.0203586 229.413598,73.2582771 L229.346677,73.1341457 C228.656874,74.0651311 227.570692,75.6581505 226.366111,77.4632276 C225.928549,78.1149174 225.475544,78.79764 225.027687,79.4855347 C220.348353,84.7662905 211.355176,95.4053842 210.052787,100.515459 C210.052787,100.515459 201.203749,114.930216 203.329783,122.052254 C205.455817,129.174292 214.037171,130.565598 220.229954,128.393299 C224.651899,126.841656 235.616676,121.529868 241.521183,118.617952 L240.934336,127.007165 C240.934336,127.007165 236.105716,161.474311 232.332391,175.45978 C231.678623,177.87517 231.055741,179.685419 230.494633,180.590544 C230.420357,180.708745 230.353312,180.831379 230.293869,180.957766 C226.474214,188.266001 220.672663,229.317283 220.672663,229.317283 C220.672663,229.317283 215.52488,234.789408 225.449806,235.487647 C232.286061,235.963484 236.383696,241.813175 238.267785,245.397469 L238.267785,245.475051 C238.067021,250.962693 237.979509,255.64348 238.103056,258.586428 C238.468548,267.606642 237.438992,279.000868 236.76978,285.155716 C236.430439,288.238235 236.527496,291.353515 237.058056,294.408676 C238.50973,302.834093 241.649878,320.036634 244.208326,327.375901 C247.65734,337.275379 246.066675,348.219629 246.066675,348.219629 C246.066675,348.219629 249.51569,358.9001 252.702167,362.810238 C252.937785,363.076513 253.218359,363.298882 253.53096,363.4671 C253.489778,363.782601 253.448596,364.103274 253.39197,364.429119 C252.877192,367.475509 251.718941,370.992565 249.175936,373.645874 C245.407759,377.581873 240.18276,382.955727 239.570174,386.865866 C239.281898,388.748525 240.04377,390.289823 242.540444,391.189775 C250.262118,393.967215 260.238521,391.189775 260.238521,391.189775 C260.238521,391.189775 266.961526,388.758869 266.961526,386.327963 C266.961526,383.897057 269.705294,383.897057 269.705294,383.897057 L274.127239,380.793772 C274.242092,379.187306 274.242092,377.574631 274.127239,375.968165 C273.931623,372.86488 273.257264,369.027152 271.280515,366.570385 C270.698689,365.845042 270.222073,365.040539 269.864875,364.180856 C269.735771,363.859594 269.624072,363.531545 269.530269,363.198149 C271.373175,362.887821 272.665269,362.680935 272.876328,362.815411 C273.674234,363.332625 276.062805,349.005795 269.957535,341.449297 C263.852265,333.892799 266.771058,327.117294 266.771058,327.117294 C266.771058,327.117294 265.973151,299.498062 261.993915,297.155082 C261.993915,297.155082 265.175245,288.817591 264.912708,284.648846 C264.650171,280.4801 263.322043,272.142609 264.912708,270.316844 C265.664284,269.453096 268.758102,263.59306 271.790146,257.686476 C271.970318,257.339942 272.150491,256.993409 272.304924,256.652047 C274.173569,256.781351 276.232682,256.858933 278.379308,256.817556 C278.405047,257.158917 278.435933,257.500279 278.46682,257.851984 C278.945564,263.055158 280.103815,268.760029 282.677706,272.933947 L282.677706,299.2498 C282.677706,299.2498 284.536056,306.806297 286.126721,309.935443 C287.717386,313.064588 281.174554,334.684136 281.174554,334.684136 C281.174554,334.684136 277.540219,361.129293 281.174554,364.449807 C281.95232,365.064719 282.861645,365.489662 283.83081,365.691121 C283.887435,366.047999 283.938913,366.410048 283.990391,366.77727 C284.505169,370.304671 284.850071,374.157915 284.443396,376.376764 C283.968683,379.230428 283.982611,382.144598 284.484578,384.993551 C284.561795,385.42801 284.61842,385.665929 284.61842,385.665929 C284.61842,385.665929 282.940243,394.091346 294.53305,392.881065 C306.125857,391.670784 307.361324,388.014081 307.361324,388.014081 C307.361324,388.014081 307.361324,387.895122 307.335586,387.688236 C307.27238,386.856833 307.162385,386.029692 307.006127,385.21078 C306.299634,381.543133 304.839135,378.06398 302.718024,374.995802 C301.793084,373.725726 301.256442,372.212423 301.17369,370.64086 C301.17369,369.606432 301.106768,368.478905 301.050143,367.351378 C301.050143,367.004845 301.014108,366.658311 300.993517,366.31695 C301.827458,366.260056 302.326793,366.213507 302.326793,366.213507 C302.326793,366.213507 306.038344,359.701782 305.775807,347.190373 C305.51327,334.678964 308.6946,323.222672 308.6946,323.222672 C308.6946,323.222672 309.492506,304.463317 308.6946,301.856558 C307.896694,299.2498 307.011275,284.504026 309.049797,282.497235 C310.46029,281.105929 312.2929,264.017176 313.286422,253.667722 C313.322457,253.316017 313.353344,252.974655 313.38423,252.633294 C315.983861,252.529851 317.631151,252.514335 317.631151,252.514335 C317.631151,252.514335 317.919427,244.854394 318.171668,234.411842 L319.299033,233.982554 C318.815141,234.763547 319.335067,236.884125 323.092948,235.818664 C327.937012,234.453219 334.376888,233.279143 334.376888,233.279143 C334.376888,233.279143 337.825903,230.801687 337.980336,229.04316 C338.118195,228.144237 338.317718,227.255961 338.577479,226.384679 C346.129276,223.358977 352.337502,220.834972 352.337502,220.834972 C352.337502,220.834972 354.808438,216.790358 350.20632,209.409713 Z M323.751865,165.720639 L324.66817,173.075423 L322.094279,173.871933 L316.673663,174.244327 C315.165363,160.48126 317.70322,137.320414 317.70322,137.320414 L318.161373,137.02043 C320.452136,146.314767 323.751865,165.720639 323.751865,165.720639 L323.751865,165.720639 Z M296.689971,69.8343199 C296.57672,69.5705407 296.468616,69.3171058 296.355365,69.0067773 L296.870143,69.803287 C296.809458,69.8095411 296.749264,69.819909 296.689971,69.8343199 Z M316.848688,175.511502 L316.756028,174.78223 L318.532013,174.404664 L321.337555,174.115024 L316.848688,175.511502 Z M261.041575,74.0289261 C260.284851,74.209951 259.497241,74.4064924 258.750812,74.6288944 L258.884654,74.5513123 L261.087905,73.2324164 C261.056935,73.488119 261.041463,73.7454765 261.041575,74.0030654 L261.041575,74.0289261 Z M236.069681,93.1968801 C234.298844,94.0657998 233.413425,93.9778734 233.413425,93.9778734 L237.480174,86.0644979 C237.951157,85.3478129 238.375864,84.6014901 238.751676,83.830133 C239.916528,83.3712771 241.184798,83.244208 242.416897,83.462911 C242.416897,83.462911 243.400124,83.240509 244.91872,82.8681148 C244.568994,83.3128081 244.242526,83.7754777 243.940641,84.2542486 C243.940641,84.2542486 237.835371,92.3279604 236.069681,93.1968801 Z M319.937358,233.692914 L319.937358,233.692914 L321.214008,233.201561 C320.668343,233.599816 320.21019,233.811873 319.937358,233.692914 Z" id="Shape" fill="url(#linearGradient-1)"></path>
                    <path d="M278,63 C276.424199,63.9711052 276.374645,68.1203728 276.617457,71.4491345 C276.790895,73.8846871 277.112992,75.8788282 277.112992,75.8788282 L266.860374,102 C266.860374,102 263.05962,83.388016 263.000156,75.0790945 C262.995596,74.4235029 263.090947,73.7713529 263.282611,73.1472703 C265.091314,67.1596538 275.140763,63.8153129 278,63 Z" id="Path" fill="#67647E"></path>
                    <path d="M279,62.3000909 C279,62.3000909 278.633987,62.4300909 278,62.7000909 C278.303951,62.432317 278.649284,62.2941842 279,62.3000909 L279,62.3000909 Z" id="Path" fill="#67647E"></path>
                    <path d="M274.909385,379.577126 L270.704913,382.64108 C270.704913,382.64108 268.095415,382.64108 268.095415,385.025857 C268.095415,387.410635 261.705425,389.790306 261.705425,389.790306 C261.705425,389.790306 252.196152,392.512118 244.877444,389.790306 C242.505173,388.906866 241.778349,387.395315 242.055955,385.551836 C242.636405,381.706574 247.608079,376.451893 251.186675,372.596417 C253.604372,369.997163 254.719844,366.550215 255.194299,363.567966 C255.544206,361.433945 255.639106,359.265086 255.476952,357.10813 L270.871477,356 C269.989861,358.350671 269.989861,360.946646 270.871477,363.297317 C271.207886,364.138088 271.661722,364.92571 272.219129,365.636135 C274.096756,368.046446 274.742821,371.830429 274.924527,374.827997 C275.029981,376.409427 275.024921,377.996417 274.909385,379.577126 Z" id="Path" fill="#67647E"></path>
                    <path d="M307,386.03706 C307,386.03706 305.802826,389.666692 294.581246,390.880027 C283.359666,392.093361 284.967887,383.703725 284.967887,383.703725 C284.967887,383.703725 284.911368,383.465206 284.839435,383.034835 C284.351722,380.198401 284.337829,377.299595 284.79833,374.458532 C285.188825,372.249642 284.849711,368.417787 284.361593,364.907414 C283.786127,360.728151 283,357 283,357 L300.387283,358.296297 C300.387283,358.296297 300.69043,361.868893 300.865125,365.477784 C300.921644,366.602971 300.967887,367.728157 300.983301,368.754824 C301.064145,370.31287 301.584708,371.815114 302.483622,373.084457 C304.542146,376.149664 305.955175,379.60873 306.635196,383.247428 C306.785239,384.063773 306.89158,384.887684 306.953757,385.715578 C306.989724,385.938541 307,386.03706 307,386.03706 Z" id="Path" fill="#67647E"></path>
                    <path d="M273.912708,379.684325 L269.707811,382.719525 C269.707811,382.719525 267.09805,382.719525 267.09805,385.081922 C267.09805,387.44432 260.707415,389.801658 260.707415,389.801658 C260.707415,389.801658 251.197181,392.497927 243.877734,389.801658 C241.505224,388.926509 240.778327,387.429144 241.055961,385.602965 C241.283116,385.602965 241.500176,385.633317 241.6819,385.638376 C244.680349,385.73449 247.598032,386.543877 250.581338,386.811986 C252.281184,386.937562 253.98685,386.964587 255.689808,386.892925 C256.534727,386.887213 257.378171,386.821284 258.213755,386.695637 C260.232913,386.336472 262.105682,385.289328 263.90778,384.262418 C264.348472,384.055186 264.736734,383.75083 265.043557,383.372093 C265.286161,382.951594 265.456784,382.493349 265.548346,382.01637 C266.184381,379.729853 267.96124,377.898616 270.000589,376.694653 C271.24182,375.986925 272.557183,375.418602 273.922803,375 C274.028998,376.559749 274.025625,378.12505 273.912708,379.684325 Z" id="Path" fill="#67647E"></path>
                    <path d="M307,387.015355 C307,387.015355 305.8115,390.660861 294.671227,391.879502 C283.530953,393.098143 285.127521,384.671815 285.127521,384.671815 C285.127521,384.671815 285.071412,384.432253 285,384 C285.510086,384.270809 285.943659,384.520787 286.142592,384.63536 C287.162764,385.24468 288.075817,386.083147 289.136796,386.650804 C291.687225,388.020473 294.773244,387.614259 297.624623,387.171591 C298.976351,386.963276 300.328078,386.754961 301.674704,386.499776 C302.701262,386.35596 303.700502,386.053938 304.638303,385.604023 C305.335013,385.189413 306.003089,384.726566 306.637839,384.21873 C306.786795,385.038645 306.892366,385.86616 306.954092,386.697675 C306.989798,386.916405 307,387.015355 307,387.015355 Z" id="Path" fill="#67647E"></path>
                    <path d="M273.912708,379.684325 L269.707811,382.719525 C269.707811,382.719525 267.09805,382.719525 267.09805,385.081922 C267.09805,387.44432 260.707415,389.801658 260.707415,389.801658 C260.707415,389.801658 251.197181,392.497927 243.877734,389.801658 C241.505224,388.926509 240.778327,387.429144 241.055961,385.602965 C241.283116,385.602965 241.500176,385.633317 241.6819,385.638376 C244.680349,385.73449 247.598032,386.543877 250.581338,386.811986 C252.281184,386.937562 253.98685,386.964587 255.689808,386.892925 C256.534727,386.887213 257.378171,386.821284 258.213755,386.695637 C260.232913,386.336472 262.105682,385.289328 263.90778,384.262418 C264.348472,384.055186 264.736734,383.75083 265.043557,383.372093 C265.286161,382.951594 265.456784,382.493349 265.548346,382.01637 C266.184381,379.729853 267.96124,377.898616 270.000589,376.694653 C271.24182,375.986925 272.557183,375.418602 273.922803,375 C274.028998,376.559749 274.025625,378.12505 273.912708,379.684325 Z" id="Path" fill="#000000" opacity="0.1"></path>
                    <path d="M307,387.015355 C307,387.015355 305.8115,390.660861 294.671227,391.879502 C283.530953,393.098143 285.127521,384.671815 285.127521,384.671815 C285.127521,384.671815 285.071412,384.432253 285,384 C285.510086,384.270809 285.943659,384.520787 286.142592,384.63536 C287.162764,385.24468 288.075817,386.083147 289.136796,386.650804 C291.687225,388.020473 294.773244,387.614259 297.624623,387.171591 C298.976351,386.963276 300.328078,386.754961 301.674704,386.499776 C302.701262,386.35596 303.700502,386.053938 304.638303,385.604023 C305.335013,385.189413 306.003089,384.726566 306.637839,384.21873 C306.786795,385.038645 306.892366,385.86616 306.954092,386.697675 C306.989798,386.916405 307,387.015355 307,387.015355 Z" id="Path" fill="#000000" opacity="0.1"></path>
                    <path d="M271,355 C270.156466,357.467363 270.156466,360.192208 271,362.659571 C266.774308,363.458224 258.897618,365.071612 256,362.943655 C256.334793,360.703697 256.425593,358.427171 256.270444,356.16314 L271,355 Z" id="Path" fill="#000000" opacity="0.1"></path>
                    <path d="M301,366.722315 C297.97843,366.957044 289.84757,367.421167 285.295657,366.135492 C284.748059,361.835685 284,358 284,358 L300.545298,359.333687 C300.545298,359.333687 300.823986,363.009329 301,366.722315 Z" id="Path" fill="#000000" opacity="0.1"></path>
                    <path d="M314,245.956101 C314,245.956101 313.732776,249.194584 313.306244,253.72846 C312.345264,264.019062 310.572333,281.009437 309.195099,282.392917 C307.221749,284.387822 308.079951,299.051671 308.850791,301.642457 C309.62163,304.233243 308.850791,322.886903 308.850791,322.886903 C306.911032,330.679169 305.961286,338.68841 306.024378,346.722135 C306.281325,359.157908 302.684073,365.634873 302.684073,365.634873 C302.684073,365.634873 285.725599,367.189345 282.215709,363.883502 C278.705819,360.577659 282.215709,334.286362 282.215709,334.286362 C282.215709,334.286362 288.552012,312.782837 287.010332,309.673894 C285.468653,306.564951 283.670027,299.051671 283.670027,299.051671 L283.670027,272.884732 C281.177645,268.739474 280.072775,263.039745 279.594854,257.889262 C279.214515,253.483392 279.202482,249.053068 279.558882,244.645164 C279.558882,244.645164 276.367605,251.22576 273.114662,257.733815 C270.175193,263.614899 267.184335,269.433805 266.434051,270.293946 C264.892371,272.107496 266.177104,280.398011 266.434051,284.543269 C266.690997,288.688527 263.607638,296.979042 263.607638,296.979042 C267.461837,299.31075 268.232677,326.773082 268.232677,326.773082 C268.232677,326.773082 265.406264,333.509126 271.316036,341.022405 C277.225807,348.535685 274.913288,362.785008 274.142448,362.266851 C273.371608,361.748694 257.697867,366.15303 254.614508,362.266851 C251.53115,358.380672 248.190844,347.758449 248.190844,347.758449 C248.190844,347.758449 249.732524,336.877148 246.392218,327.032161 C243.915253,319.736507 240.878145,302.632137 239.470077,294.253535 C238.956651,291.213674 238.863263,288.11676 239.192575,285.051063 C239.840081,278.931626 240.837033,267.60471 240.482447,258.625045 C240.364252,255.697457 240.446474,251.044405 240.641754,245.58821 C241.304676,226.882734 243.308859,198.777887 243.308859,198.777887 L257.276475,189.290429 L266.475162,183 L268.726014,183.347165 L310.669972,189.860402 L312.299014,210.721411 L314,245.956101 Z" id="Path" fill="#4A4B65"></path>
                    <path d="M257,189 L256.291421,193.098086 C256.291421,193.098086 250.345308,223.077721 249.106535,238.458578 C247.867761,253.839435 242.664912,249.407662 242.664912,249.407662 C242.211133,248.116049 241.65417,246.86721 241,245.674546 C241.639207,226.852549 243.571694,198.572628 243.571694,198.572628 L257,189 Z" id="Path" fill="#000000" opacity="0.1"></path>
                    <path d="M301,76.0756349 C301,76.0756349 272.337804,98.9899073 277.630074,94.3896741 C280.527003,91.8646573 278.556477,81.1001117 276.18161,71.8996455 C274.226438,64.3092608 272,57.7769297 272,57.7769297 C272,57.7769297 297.018002,34.402634 295.201024,53.514047 C294.561242,60.2508329 295.09354,65.0401867 296.050653,68.4239137 C297.806212,74.613783 301,76.0756349 301,76.0756349 Z" id="Path" fill="#EFB7B9"></path>
                    <path d="M299.183421,69 L280.856675,83.4410302 L275.518688,77.4564591 C275.518688,77.4564591 270.960232,75.4633368 270.614347,77.7166579 C270.268462,79.969979 268.983009,93.84898 271.64684,95.1499737 C274.310671,96.4509674 277.759197,97.3200312 280.768913,96.8881013 C283.77863,96.4561714 287.134231,93.0683837 289.37474,91.76739 C291.61525,90.4663963 299.870029,83.701229 299.870029,83.701229 L304,77.893593 L299.183421,69 Z" id="Path" fill="#000000" opacity="0.1"></path>
                    <path d="M299.183421,70 L280.856675,84.4410302 L275.518688,78.4564591 C275.518688,78.4564591 270.960232,76.4633368 270.614347,78.7166579 C270.268462,80.969979 268.983009,94.84898 271.64684,96.1499737 C274.310671,97.4509674 277.759197,98.3200312 280.768913,97.8881013 C283.77863,97.4561714 287.134231,94.0683837 289.37474,92.76739 C291.61525,91.4663963 299.870029,84.701229 299.870029,84.701229 L304,78.893593 L299.183421,70 Z" id="Path" fill="#A36468"></path>
                    <path d="M314,245.996039 C314,245.996039 313.733668,249.253735 313.308561,253.814511 C307.674611,254.033428 296.744748,254.711029 289.072332,256.754257 C286.010653,257.525133 282.87347,257.943009 279.719975,258 C279.340906,253.56799 279.328913,249.11138 279.684123,244.677323 C279.684123,244.677323 276.503502,251.296963 273.261419,257.843631 C270.488259,257.653346 267.729236,257.289533 265,256.754257 L268.416222,211.579123 C268.416222,211.579123 268.303543,196.416499 268.866938,183 L310.670848,189.55188 L312.29445,210.53666 L314,245.996039 Z" id="Path" fill="#000000" opacity="0.1"></path>
                    <path d="M282,83.4391437 C282,83.4391437 294.902204,68.9461358 297.96149,71.2477413 C301.020775,73.5493469 303,79.1584854 303,79.1584854 L292.507981,91 L282,83.4391437 Z" id="Path" fill="#000000" opacity="0.1"></path>
                    <path d="M282,82.4391437 C282,82.4391437 294.902204,67.9461358 297.96149,70.2477413 C301.020775,72.5493469 303,78.1584854 303,78.1584854 L292.507981,90 L282,82.4391437 Z" id="Path" fill="#A36468"></path>
                    <path d="M273,91 L280,82.2814409 C280,82.2814409 278.890244,74.0397945 276.324247,75.0929766 C273.75825,76.1461586 273,80.3638547 273,80.3638547 L273,91 Z" id="Path" fill="#000000" opacity="0.1"></path>
                    <path d="M272,91 L279,82.2814409 C279,82.2814409 277.895265,74.0397945 275.324247,75.0929766 C272.753228,76.1461586 272,80.3638547 272,80.3638547 L272,91 Z" id="Path" fill="#A36468"></path>
                    <path d="M304.700855,75 C304.700855,75 289.732393,91.0004419 280.796154,92.0740199 C279.982821,92.1720871 279.179915,92.3062844 278.377009,92.4662888 C276.046496,92.9204949 270.957949,92.4662888 271.766068,79.2375364 L270.634701,76.8942459 L263.684872,81.1111365 L261.338718,100.032949 L257.167778,148.550418 L251,202.575136 C251,202.575136 269.941282,200.768635 275.24359,205.501669 C280.545897,210.234703 282.021368,179.694504 282.021368,179.694504 L296.531026,117.75731 L312,77.9265324 L304.700855,75 Z" id="Path" fill="#000000" opacity="0.1"></path>
                    <path d="M312,79.9114136 L296.531026,119.747191 L282.021368,181.692161 C282.021368,181.692161 280.540684,212.231031 275.24359,207.502565 C273.51265,205.953941 270.32188,205.107359 266.813077,204.668583 C262.498388,204.207272 258.151861,204.110564 253.820598,204.379506 C252.089658,204.472424 251,204.575665 251,204.575665 L257.167778,150.544165 L261.338718,102.020606 L263.684872,83.0964174 L270.634701,78.8789974 L271.766068,81.2225821 C271.766068,81.5684415 271.729573,81.9091389 271.713932,82.2549983 C271.223846,94.4788056 276.10906,94.9124204 278.377009,94.4684815 C279.179915,94.308457 279.982821,94.1742429 280.796154,94.0761633 C287.125556,93.3070133 296.478889,85.0631702 301.395385,80.32438 C303.423504,78.3627893 304.700855,77 304.700855,77 L312,79.9114136 Z" id="Path" fill="#000000" opacity="0.1"></path>
                    <path d="M312,78.9114136 L296.531026,118.747191 L282.021368,180.692161 C282.021368,180.692161 280.540684,211.231031 275.24359,206.502565 C273.51265,204.953941 270.32188,204.107359 266.813077,203.668583 C262.498388,203.207272 258.151861,203.110564 253.820598,203.379506 C252.089658,203.472424 251,203.575665 251,203.575665 L257.167778,149.544165 L261.338718,101.020606 L263.684872,82.0964174 L270.634701,77.8789974 L271.766068,80.2225821 C271.766068,80.5684415 271.729573,80.9091389 271.713932,81.2549983 C271.223846,93.4788056 276.10906,93.9124204 278.377009,93.4684815 C279.179915,93.308457 279.982821,93.1742429 280.796154,93.0761633 C287.125556,92.3070133 296.478889,84.0631702 301.395385,79.32438 C303.423504,77.3627893 304.700855,76 304.700855,76 L312,78.9114136 Z" id="Path" fill="#E1E7EF"></path>
                    <path d="M272,80.3151951 C272,80.6591376 271.963093,80.9979466 271.947276,81.3418891 L271.826011,81.4240246 C269.970123,82.6149897 266.991213,102.727926 266.991213,102.727926 L263.126538,153.975359 L256.008787,192.219713 C256.008787,192.219713 255.075571,196.578029 253.852373,202.804928 C252.101933,202.897331 251,203 251,203 L257.237258,149.267967 L261.455185,101.013347 L263.827768,82.1940452 L270.855888,78 L272,80.3151951 Z" id="Path" fill="#000000" opacity="0.1"></path>
                    <path d="M277,76.4522279 C277,76.4522279 272.888606,79.8022074 271.079593,81.0015828 C269.270579,82.2009582 266.366907,102.455927 266.366907,102.455927 L262.599843,154.065257 L255.661865,192.579683 C255.661865,192.579683 249.494774,222.305582 248.209964,237.55626 C246.925153,252.806939 241.528948,248.412676 241.528948,248.412676 C241.528948,248.412676 237.499782,236.522316 227.909956,235.834743 C218.320129,235.14717 223.284637,229.713793 223.284637,229.713793 C223.284637,229.713793 228.901829,188.991896 232.596945,181.738777 C232.654604,181.614236 232.719824,181.493381 232.792236,181.376896 C233.336996,180.477365 233.938287,178.683471 234.570414,176.284721 C238.224415,162.409188 242.895987,128.20631 242.895987,128.20631 L245.809937,85.8145936 C253.261839,73.5778627 276.419266,74.0017799 276.419266,74.0017799 L277,76.4522279 Z" id="Path" fill="#67647E"></path>
                    <path d="M312,77.9265539 L296.595016,117.757623 L282.145379,179.695271 C282.145379,179.695271 280.67082,210.230531 275.395639,205.502624 C273.671859,203.954183 270.494289,203.107701 267,202.668976 C267.062305,192.170545 267.384216,173.331177 268.905504,165.413481 C270.222006,158.178483 270.771913,150.82622 270.54621,143.477231 L289.41433,102.613868 C289.41433,102.613868 303.604361,85.2248733 303.692627,82.7370445 C303.72378,81.8183027 302.716511,80.1150174 301.439252,78.3239871 C303.458982,76.3626283 304.731049,75 304.731049,75 L312,77.9265539 Z" id="Path" fill="#000000" opacity="0.1"></path>
                    <path d="M265,255.732008 L268.416209,210.774207 C268.416209,210.774207 268.160122,177.228332 270.295893,165.904589 C271.594556,158.633471 272.137012,151.244501 271.914367,143.858823 L290.526818,102.791451 C290.526818,102.791451 304.524569,85.3156427 304.611639,82.8153935 C304.698709,80.3151442 297.277289,72 297.277289,72 C297.277289,72 313.487638,73.9192785 315.623409,81.264409 C317.75918,88.6095395 329.452142,91.4677083 329.452142,91.4677083 C329.452142,91.4677083 335.086071,96.6549473 334.999001,111.526762 C334.911931,126.398576 317.072865,138.064677 317.072865,138.064677 C317.072865,138.064677 314.086883,166.075768 316.647759,178.701508 C319.208636,191.327248 316.985795,252.702661 316.985795,252.702661 C316.985795,252.702661 299.827922,252.879027 289.07224,255.732008 C278.316558,258.58499 265,255.732008 265,255.732008 Z" id="Path" fill="#67647E"></path>
                    <path d="M290,184.33213 L303.396984,234.657743 C303.396984,234.657743 305.22432,239.148512 314.622049,235.693676 C324.019778,232.23884 351.346285,221.019688 351.346285,221.019688 C351.346285,221.019688 353.779252,217.046886 349.2579,209.712482 L335.594647,170 L290,184.33213 Z" id="Path" fill="#B07473"></path>
                    <polygon id="Path" fill="#E1E7EF" points="308 205.802043 329.047293 182.491699 342.487131 177 348 205.030651 322.454165 233"></polygon>
                    <path d="M331.080785,214 C331.080785,214 324.563047,217.807732 322.841181,217.933607 C321.119315,218.059482 315.061094,229.430229 317.622765,229.341067 C320.184437,229.251906 326.142304,226.194182 325.545461,227.767625 C324.948618,229.341067 321.061215,234.061396 319.936192,233.610342 C318.81117,233.159289 318.28299,237.077161 323.105271,235.708266 C327.927552,234.339371 334.32909,233.154044 334.32909,233.154044 C334.32909,233.154044 337.762258,230.662759 337.894303,228.890014 C338.026348,227.117268 341,217.807732 341,217.807732 L331.080785,214 Z" id="Path" fill="#EFB7B9"></path>
                    <path d="M228,82.6456682 C228,82.6456682 233.485372,70.4276907 236.762214,66.3903538 C240.039055,62.3530169 254.332866,58.0083761 255.765842,59.2005032 C257.198818,60.3926302 248.57528,67.0844367 247.034445,67.9427681 C245.49361,68.8010996 256.988238,76.7751049 257.224499,76.9499502 C257.46076,77.1247955 266.212702,76.1499005 261.7186,79.1964473 C257.224499,82.2429942 243.937367,85.3425245 243.937367,85.3425245 C242.128674,85.0201154 240.271084,85.4800185 238.801252,86.6141267 C236.228058,88.537425 228,82.6456682 228,82.6456682 Z" id="Path" fill="#EFB7B9"></path>
                    <path d="M342.661317,214.596657 C341.970026,216.820312 341.042432,218.966546 339.893816,221 C338.671422,219.915988 327,216.141134 327,216.141134 L328.295738,214.17936 L330.408036,210.984884 C330.408036,210.984884 340.813056,208.768895 342.583084,210.984884 C343.179612,211.728343 343.072041,213.100145 342.661317,214.596657 Z" id="Path" fill="#000000" opacity="0.1"></path>
                    <path d="M343.661317,213.596657 C342.970026,215.820312 342.042432,217.966546 340.893816,220 C339.671422,218.915988 328,215.141134 328,215.141134 L329.295738,213.17936 L331.408036,209.984884 C331.408036,209.984884 341.813056,207.768895 343.583084,209.984884 C344.179612,210.728343 344.072041,212.100145 343.661317,213.596657 Z" id="Path" fill="#A36468"></path>
                    <path d="M240.427121,84.2486583 C240.046765,85.1696895 239.598734,86.0562516 239.087336,86.8998211 C237.176903,90.157424 234.283961,94 234.283961,94 C234.283961,94 223,88.3864043 223,88.1395349 C223,87.8926655 226.423893,82.059034 229.207667,77.4597496 C230.334079,75.6028623 231.351322,73.960644 231.996404,73 C231.996404,73 236.209281,82.5313059 240.367575,82.5957066 C241.479099,82.6118068 240.878678,83.0840787 240.427121,84.2486583 Z" id="Path" fill="#000000" opacity="0.1"></path>
                    <path d="M240.427121,84.2486583 C240.046765,85.1696895 239.598734,86.0562516 239.087336,86.8998211 C237.176903,90.157424 234.283961,94 234.283961,94 C234.283961,94 223,88.3864043 223,88.1395349 C223,87.8926655 226.423893,82.059034 229.207667,77.4597496 C230.334079,75.6028623 231.351322,73.960644 231.996404,73 C231.996404,73 236.209281,82.5313059 240.367575,82.5957066 C241.479099,82.6118068 240.878678,83.0840787 240.427121,84.2486583 Z" id="Path" fill="#A36468"></path>
                    <polygon id="Path" fill="#B07473" points="306.567594 180 305 175.485813 327 174 318.780869 174.840929 308.312347 177.00258 309.117618 180"></polygon>
                    <path d="M343.654505,214 C341.399966,212.888696 335.384536,210.577391 329,213.546087 L331.154781,210.071304 C331.154781,210.071304 341.769072,207.66087 343.574698,210.071304 C344.183224,210.88 344.07349,212.372174 343.654505,214 Z" id="Path" fill="#000000" opacity="0.1"></path>
                    <path d="M344.895955,185.61244 C344.845301,186.361722 344.799713,187.111005 344.754125,187.85512 C344.62749,190.133971 344.541378,192.392153 344.485659,194.572823 C344.23239,204.670048 344.642686,213 344.642686,213 C344.642686,213 336.791341,208.178756 328.433458,212.22488 L327.602735,195.885359 L327.602735,195.601148 L326.746685,188.454545 L323.970855,165.371483 C323.970855,165.371483 318.738313,133.333206 317.132586,132.129187 C315.52686,130.925167 329.036238,105 329.036238,105 L335.945422,110.756555 L340.250998,140.381627 L340.250998,155.537799 C340.250998,155.537799 345.822921,172.006507 344.895955,185.61244 Z" id="Path" fill="#67647E"></path>
                    <path d="M240,84.1869104 L238.382931,87.3693986 C236.437395,90.4115566 233.491297,94 233.491297,94 C233.491297,94 222,88.7576651 222,88.5271226 C222,88.2965802 225.486805,82.8487618 228.321729,78.5536557 C229.195957,77.5763561 229.726558,77 229.726558,77 C226.35598,85.2694575 240,84.1869104 240,84.1869104 Z" id="Path" fill="#000000" opacity="0.1"></path>
                    <path d="M252,83.3668707 L247.143424,85.761242 C247.143424,85.761242 241.15729,93.6913179 239.423914,94.5457197 C237.690538,95.4001214 236.821247,95.3131464 236.821247,95.3131464 L241.93809,85.3365993 C241.93809,85.3365993 227.88369,86.4416937 231.355647,78 C231.355647,78 215.651156,94.8833874 213.91778,101.708369 C213.91778,101.708369 205.240489,115.859717 207.322622,122.853533 C209.404756,129.847348 217.82178,131.208251 223.891199,129.079921 C229.960618,126.951591 248.616533,117.568521 248.616533,117.568521 L252,83.3668707 Z" id="Path" fill="#67647E"></path>
                    <path d="M233,99 C233,99 220.027148,112.939086 221.058377,114.834247 C222.089605,116.729409 232.314233,101.805631 233,99 Z" id="Path" fill="#000000" opacity="0.1"></path>
                    <path d="M291.980879,60.6937089 C291.980879,60.6937089 310.315239,55.239 320.670709,74.9209392 C331.026179,94.6028784 331.373087,95.9678336 330.855314,96.9033648 C330.33754,97.8388959 310.232395,92.6449088 309.108827,94.9453952 C307.985258,97.2458816 320.499844,106.703437 320.499844,106.703437 L272,143 L292.379565,100.241626 C293.744988,97.2473874 295.566166,94.476931 297.779943,92.0263336 C301.129937,88.3251066 305.712233,82.6556857 304.086424,80.907316 C302.657369,79.3736584 300.373988,75.3708121 297.288058,70.7647271 C295.040921,67.3906804 291.45275,63.5769851 291.980879,60.6937089 Z" id="Path" fill="#000000" opacity="0.2"></path>
                    <path d="M291.302619,59.697769 C291.302619,59.697769 309.485799,54.2111344 319.755881,74.0082696 C330.025963,93.8054047 330.370011,95.1783489 329.856507,96.1193556 C329.343003,97.0603623 309.403639,91.8359754 308.289335,94.1499263 C307.175031,96.4638772 319.586425,105.976786 319.586425,105.976786 L272,143 L291.698017,99.4771554 C293.052182,96.4653917 294.858343,93.6787202 297.053865,91.2137798 C300.376237,87.4908899 304.920748,81.7882866 303.308345,80.0296839 C301.891074,78.48705 299.626521,74.4607755 296.566036,69.8277317 C294.337428,66.4339371 290.778845,62.5979208 291.302619,59.697769 Z" id="Path" fill="#67647E"></path>
                    <path d="M291.302619,59.697769 C291.302619,59.697769 309.485799,54.2111344 319.755881,74.0082696 C330.025963,93.8054047 330.370011,95.1783489 329.856507,96.1193556 C329.343003,97.0603623 309.403639,91.8359754 308.289335,94.1499263 C307.175031,96.4638772 319.586425,105.976786 319.586425,105.976786 L272,143 L292.642865,97.3843154 C293.442988,95.6130232 294.523244,93.9825943 295.841995,92.5558713 C299.097611,89.0489502 305.14669,82.0196817 303.32375,80.0296839 C301.906479,78.48705 299.641926,74.4607755 296.581441,69.8277317 C294.337428,66.4339371 290.778845,62.5979208 291.302619,59.697769 Z" id="Path" fill="#000000" opacity="0.1"></path>
                    <circle id="Oval" fill="#444053" cx="296" cy="147" r="4"></circle>
                    <circle id="Oval" fill="#444053" cx="296" cy="171" r="4"></circle>
                    <path d="M345.026454,196.627772 C342.733717,197.168019 331.862234,196.924908 326.918181,198 L326.918181,197.702864 L326,190.231242 C331.574284,189.539726 343.68993,188.226924 345.330703,189.604555 C347.455016,191.403579 347.759265,196.006487 345.026454,196.627772 Z" id="Path" fill="#67647E"></path>
                    <path d="M345.026454,196.627772 C342.733717,197.168019 331.862234,196.924908 326.918181,198 L326.918181,197.702864 L326,190.231242 C331.574284,189.539726 343.68993,188.226924 345.330703,189.604555 C347.455016,191.403579 347.759265,196.006487 345.026454,196.627772 Z" id="Path" fill="#000000" opacity="0.1"></path>
                    <path d="M345.026454,196.627772 C342.733717,197.168019 331.862234,196.924908 326.918181,198 L326.918181,197.702864 L326,190.231242 C331.574284,189.539726 343.68993,188.226924 345.330703,189.604555 C347.455016,191.403579 347.759265,196.006487 345.026454,196.627772 Z" id="Path" fill="#000000" opacity="0.1"></path>
                    <circle id="Oval" fill="#444053" cx="342" cy="192" r="2"></circle>
                    <path d="M299,201 L308.465146,234.656188 C308.465146,234.656188 311,235.887835 311,233.688844 C311,231.489853 299,201 299,201 Z" id="Path" fill="#FFFFFF" opacity="0.1"></path>
                    <path d="M295.813116,67.6094478 C295.191386,68.1107356 294.541748,68.5760301 293.867358,69.0030706 C290.518969,71.1226491 287.539693,73.9999769 283.273791,73.9999769 C280.904827,74.0034486 278.551454,73.6149631 276.308086,72.8501056 C274.293779,64.9811705 272,58.2091172 272,58.2091172 C272,58.2091172 297.774692,33.9770361 295.902758,53.789796 C295.243626,60.7738072 294.827054,64.1015454 295.813116,67.6094478 Z" id="Path" fill="#000000" opacity="0.1"></path>
                    <path d="M304.999773,51.0001136 C304.999773,62.5980306 295.597803,72 283.999886,72 C272.401969,72 263,62.5980306 263,51.0001136 C263,39.4021966 272.401969,30.0002273 283.999886,30.0002273 C289.577329,29.9742375 294.933846,32.1783723 298.877737,36.1222629 C302.821628,40.0661535 305.025762,45.4226706 304.999773,51.0001136 Z" id="Path" fill="#EFB7B9"></path>
                    <path d="M271.355058,68.2138258 C271.156912,68.7083502 270.81187,69.125368 270.369507,69.404963 L267.022737,71.5225403 L260.765509,75.4453522 L250.863794,81.6498536 C250.631094,81.7910254 250.394972,81.923374 250.155428,82.0468993 C247.803098,83.2794083 245.029848,83.3185082 242.645729,82.1527782 C240.843091,81.3165205 239.53908,79.6388712 239.139834,77.6423386 C238.602383,74.8480515 239.639226,71.9801026 241.819303,70.2308181 C241.87133,70.1822832 241.935229,70.1493329 242.004093,70.1355271 C244.11093,69.5215002 246.093195,68.5208274 247.855807,67.1815068 L254.087369,62.7345945 L259.651631,57.4882968 L262.46456,55.4818924 C263.306417,54.8800674 264.41094,54.8387194 265.292888,55.3760135 C268.19308,57.0753693 273.9216,61.5275755 271.355058,68.2138258 Z" id="Path" fill="#E1E7EF"></path>
                    <path d="M267,71.2873563 L260.63209,75 C259.305224,69.8694371 255.930597,66.2469791 253,63.5113469 L259.498507,58 C264.440299,60.3498379 266.404478,68.2010021 267,71.2873563 Z" id="Path" fill="#A36468"></path>
                    <path d="M250,81.1043116 C247.680445,82.2625775 244.945834,82.2993221 242.594933,81.2038126 C240.817411,80.4179289 239.531569,78.8413367 239.137885,76.96507 C238.607923,74.3391034 239.630319,71.6439122 241.780021,70 C243.312433,70.6375553 244.73083,71.5126806 245.981119,72.5920011 C247.725517,74.0765172 248.988996,76.0310129 249.615321,78.2138076 C249.863178,79.1582493 249.992367,80.1289836 250,81.1043116 L250,81.1043116 Z" id="Path" fill="#000000" opacity="0.1"></path>
                    <path d="M304.999979,50.419593 C305.004359,53.5391925 304.32246,56.6217471 303.002394,59.4497664 C301.707119,60.7364452 300.720316,62.2987029 300.11583,64.0196289 C298.66209,65.7828864 298.086869,66.7792833 296.146806,68 C295.367643,67.1809721 293.615834,66.685382 293.296848,65.6263842 C292.486309,62.8980303 292.946486,59.9818737 292.98832,57.1387515 C292.98832,55.8763009 292.810525,54.3843139 291.696688,53.7791723 C290.771105,53.2574985 289.604975,53.6331036 288.69508,54.1443439 C287.785185,54.6555842 286.88052,55.31811 285.834664,55.4380949 C284.265879,55.615464 282.833056,54.5147323 281.954537,53.2209813 C281.076018,51.9272303 280.568777,50.4143763 279.737322,49.0893248 C278.639173,47.3417176 277.018095,46.0010159 275.423165,44.6968314 C273.598146,43.1944109 271.825419,41.5302715 269.880127,40.1843531 C268.719226,39.3757587 267.328237,39.0001535 266.183025,38.1863424 L266,38.0507072 C271.400855,30.4347119 281.12174,27.1818079 290.033783,30.0082721 C298.945826,32.8347363 304.999167,41.0904532 304.999979,50.419593 L304.999979,50.419593 Z" id="Path" fill="#000000" opacity="0.1"></path>
                    <path d="M263,27.7750522 C263.445881,24.821348 265.885417,22.0519303 268.873335,22.0007396 C271.338496,21.959787 273.439776,23.6286043 275.623058,24.7701572 C280.148318,27.1002489 285.479437,27.2880089 290.157769,25.2820644 C291.500538,24.6984902 292.858683,23.9152723 294.319329,24.033011 C295.779975,24.1507496 296.948492,25.108016 297.958132,26.0806396 C300.356885,28.4500365 302.236521,31.2914647 303.477837,34.4247261 C303.841717,35.346159 304.174847,36.3290207 304.882107,37.0200954 C305.421325,37.4712837 306.009213,37.8610331 306.634883,38.1821246 C308.79957,39.6163043 310.292792,41.8627436 310.775943,44.4120346 C311.240526,46.9496035 310.979408,49.5665918 310.022557,51.9626651 C309.455283,53.6119421 308.519346,55.1104887 307.285767,56.3445903 C306.353004,57.2199515 305.235738,57.8803117 304.256848,58.6993632 C301.011913,61.4519686 299.454743,65.7058392 300.156789,69.8998916 C297.430249,70.5295374 294.816461,68.0877403 294.0067,65.415585 C293.196938,62.7434297 293.66332,59.8767496 293.70432,57.0868557 C293.70432,55.8480404 293.530068,54.3839859 292.438427,53.7901736 C291.531289,53.2782665 290.388397,53.6468396 289.496634,54.1485086 C288.604871,54.6501776 287.718233,55.3002997 286.693219,55.4180383 C285.155696,55.5920868 283.751426,54.5170818 282.890413,53.242433 C282.029401,51.9677842 281.537394,50.4883725 280.717382,49.1881283 C279.646241,47.4732394 278.052343,46.157638 276.489196,44.8778701 C274.700545,43.4086966 272.963144,41.7705937 271.061742,40.4498733 C269.91885,39.6564172 268.555581,39.287844 267.433189,38.4892689 C264.045515,36.062829 263,31.6399512 263,27.7750522 Z" id="Path" fill="#585268"></path>
                    <path d="M279,62.3000909 C279,62.3000909 278.633987,62.4300909 278,62.7000909 C278.303951,62.432317 278.649284,62.2941842 279,62.3000909 L279,62.3000909 Z" id="Path" fill="#000000" opacity="0.1"></path>
                    <g id="Group" opacity="0.1" transform="translate(263.000000, 24.000000)" fill="#000000">
                        <path d="M31.6894505,39.8411111 C30.9059341,37.168 31.3507692,34.3108889 31.3912088,31.5253333 C31.3912088,30.2884444 31.2193407,28.8266667 30.1426374,28.2337778 C29.2479121,27.7226667 28.1206593,28.0957778 27.2410989,28.5915556 C26.3615385,29.0873333 25.487033,29.7415556 24.476044,29.8591111 C22.9595604,30.0328889 21.5745055,28.9595556 20.7252747,27.692 C19.876044,26.4244444 19.3907692,24.9371111 18.581978,23.6388889 C17.5204396,21.9317778 15.9534066,20.6182222 14.4116484,19.3353333 C12.6474725,17.8684444 10.9338462,16.2328889 9.05846154,14.9142222 C7.93120879,14.122 6.58659341,13.7591111 5.47956044,12.9566667 C2.12813187,10.534 1.09692308,6.118 1.09692308,2.25911111 C1.21095859,1.52667688 1.43602105,0.816404005 1.76417582,0.153333333 C0.879069884,1.19164915 0.297886106,2.45897212 0.0859340659,3.81288889 C0.0859340659,7.67177778 1.09692308,12.0877778 4.46857143,14.5104444 C5.5756044,15.3128889 6.92021978,15.6757778 8.04747253,16.468 C9.92285714,17.7866667 11.6364835,19.4222222 13.4006593,20.8891111 C14.9424176,22.172 16.5094505,23.4855556 17.570989,25.1926667 C18.3797802,26.4908889 18.86,27.9782222 19.7142857,29.2457778 C20.5685714,30.5133333 21.9586813,31.5866667 23.4650549,31.4128889 C24.476044,31.2953333 25.3353846,30.6411111 26.2301099,30.1453333 C27.1248352,29.6495556 28.2520879,29.2968889 29.1316484,29.7875556 C30.2083516,30.3804444 30.4004396,31.832 30.3802198,33.0791111 C30.3397802,35.8646667 29.8747253,38.7013333 30.6784615,41.3948889 C31.4821978,44.0884444 34.0450549,46.506 36.7443956,45.8722222 C36.6602958,45.3922978 36.6062688,44.9074802 36.5826374,44.4206667 C34.3382418,44.2213333 32.3617582,42.1206667 31.6894505,39.8411111 Z" id="Path"></path>
                        <path d="M44.7767033,30.7842222 C43.8567033,31.6633333 42.7547253,32.3175556 41.7892308,33.1353333 C40.7251409,34.0379446 39.8326798,35.1291111 39.1556044,36.3553333 C39.6346878,35.7355402 40.1787379,35.1700219 40.7782418,34.6686667 C41.7487912,33.8508889 42.8457143,33.1966667 43.7657143,32.3175556 C44.4985655,31.6027238 45.1190624,30.7788417 45.6057143,29.8744444 C45.3507349,30.1969117 45.0737193,30.5009156 44.7767033,30.7842222 Z" id="Path"></path>
                    </g>
                    <path d="M279.271623,239.230653 C278.926147,240.359636 278.433962,241.462606 278.367706,242.654021 C278.254125,244.68307 279.380472,246.566443 279.460925,248.600694 C279.555576,250.957511 278.249393,253.075005 277,255 C278.481287,255 280.099819,254.432907 280.852294,253.033384 C281.107952,252.493705 281.294296,251.917657 281.406002,251.3217 C282.745313,245.447865 284.046764,239.022545 281.71835,233.538912 C281.358496,232.592011 280.836316,231.730047 280.180272,231 C279.787471,233.76783 280.118749,236.488836 279.271623,239.230653 Z" id="Path" fill="#000000" opacity="0.1"></path>
                    <path d="M239,198 L234.663082,192.241887 C233.6193,190.849872 232.538984,189.401354 232.163223,187.711417 C231.756147,185.85711 232.231068,183.936026 232.293695,182.061172 C232.293695,181.850572 232.293695,181.634835 232.293695,181.419099 C232.352248,181.295356 232.418479,181.175276 232.492014,181.059538 C233.045219,180.165772 233.655832,178.383376 234.297758,176 C234.930316,176.618467 235.421404,177.362744 235.738179,178.183049 C237.757898,183.031987 235.889527,188.723325 237.55958,193.695541 C238.03972,195.123512 238.822557,196.489844 239,198 Z" id="Path" fill="#000000" opacity="0.1"></path>
                    <path d="M250,373 C254.337926,375.693904 259.80569,376.632678 265,375.575389" id="Path" fill="#000000" opacity="0.1"></path>
                    <path d="M287,374.040242 C289.078373,376.110816 291.870113,377.17384 294.711955,376.97676 C297.553796,376.77968 300.192081,375.340086 302,373" id="Path" fill="#000000" opacity="0.1"></path>
                    <path d="M263,295.747192 C259.054795,296.728071 254.980372,294.793865 253,291" id="Path" fill="#000000" opacity="0.1"></path>
                    <path d="M288,308.954521 C291.194909,309.237458 294.37365,308.19394 297,306" id="Path" fill="#000000" opacity="0.1"></path>
                    <path d="M271,340 C268.332499,341.171078 265.950266,343.003598 263.352831,344.337325 C260.755396,345.671053 257.747576,346.54394 255,345.611415" id="Path" fill="#000000" opacity="0.1"></path>
                    <rect id="Rectangle" fill="#9D9CB5" x="218" y="187" width="3" height="99"></rect>
                    <rect id="Rectangle" fill="#9D9CB5" x="228" y="187" width="3" height="99"></rect>
                    <circle id="Oval" fill="#535461" cx="210.5" cy="381.5" r="5.5"></circle>
                    <path d="M191,282.255066 C191,282.255066 196.514202,277.776247 201.345595,279.326011 C206.176988,280.875775 218.757231,282.42554 221.002225,290.344834 C223.247219,298.264129 221.002225,385.226562 221.002225,385.226562 C221.002225,385.226562 210.289361,388.005806 207.377077,386.605852 C204.464792,385.205899 204.790678,372.141387 204.790678,372.141387 L203.931993,295.019956 L191,282.255066 Z" id="Path" fill="#766DF4"></path>
                    <path d="M191,282.255066 C191,282.255066 196.514202,277.776247 201.345595,279.326011 C206.176988,280.875775 218.757231,282.42554 221.002225,290.344834 C223.247219,298.264129 221.002225,385.226562 221.002225,385.226562 C221.002225,385.226562 210.289361,388.005806 207.377077,386.605852 C204.464792,385.205899 204.790678,372.141387 204.790678,372.141387 L203.931993,295.019956 L191,282.255066 Z" id="Path" fill="#000000" opacity="0.1"></path>
                    <path d="M241.408242,380.827627 L218.135026,386 L217.891246,381.862101 L217.740829,300.619635 C217.726763,292.926046 214.12714,285.676117 208,281 L208,281 C208,281 220.048959,280.84048 229.26592,284.993896 C231.236908,285.878372 233.213083,286.74733 235.241125,287.492152 C237.756728,288.418007 241.169649,290.388681 241.387495,294.278306 C241.667583,299.347232 242.642703,349.560631 242.990219,367.839798 C243.080306,372.221836 242.547693,376.594519 241.408242,380.827627 L241.408242,380.827627 Z" id="Path" fill="#766DF4"></path>
                    <rect id="Rectangle" fill="#535461" x="216" y="180" width="5" height="9"></rect>
                    <rect id="Rectangle" fill="#000000" opacity="0.1" x="216" y="180" width="5" height="9"></rect>
                    <rect id="Rectangle" fill="#535461" x="227" y="181" width="5" height="9"></rect>
                    <path d="M231,181.27909 L225.781957,181.27909 C223.799994,181.332693 222.021482,182.573818 221.203063,184.474448 C221.128162,184.642624 221.058256,184.816057 220.993342,185 L219.844874,183.833274 L217.458056,181.405222 L216,179.923165 C216,179.923165 225.632157,174.79903 231,181.27909 Z" id="Path" fill="#535461"></path>
                    <circle id="Oval" fill="#535461" cx="233.5" cy="386.5" r="5.5"></circle>
                    <circle id="Oval" fill="#535461" cx="177.5" cy="378.5" r="5.5"></circle>
                    <path d="M187.220779,281 C187.220779,281 171.853766,285.149946 171.012987,324.750807 C170.172208,364.351669 170,368.496428 170,368.496428 C170,368.496428 170.334286,379.908779 192.959351,387 L206.801818,387 L209,296.043555 C209,296.043555 206.467532,282.187922 187.220779,281 Z" id="Path" fill="#766DF4"></path>
                    <path d="M185.30936,341 C185.30936,341 181.084228,286.236007 203.862964,286 L206,287.959888 C206,287.959888 186.054332,281.141325 185.30936,341 Z" id="Path" fill="#000000" opacity="0.1"></path>
                    <circle id="Oval" fill="#535461" cx="195.5" cy="391.5" r="5.5"></circle>
                    <path d="M225.993557,181.757334 C225.995713,181.76631 225.995713,181.775607 225.993557,181.784583 L225.918956,181.784583 C223.944908,181.830904 222.173501,182.90342 221.35835,184.545845 C221.283749,184.691175 221.214121,184.841046 221.149467,185 L220.005586,183.991776 C219.998138,183.902588 219.998138,183.813012 220.005586,183.723825 C220.110223,183.017548 220.51372,182.376818 221.129574,181.938996 C222.334729,181.027908 223.973372,180.757565 225.451457,181.225973 C225.744887,181.312262 226.048264,181.503007 225.993557,181.757334 Z" id="Path" fill="#000000" opacity="0.1"></path>
                </g>
            </g>
        </g>
    </g>
</svg>