<svg width="772" height="128" viewBox="0 0 772 128" fill="none" xmlns="http://www.w3.org/2000/svg">
<rect width="772" height="128" fill="white"/>
<path fill-rule="evenodd" clip-rule="evenodd" d="M113.992 64.6365C110.986 62.8411 108.615 60.165 107.204 56.9763C105.863 53.8751 105.195 49.7037 105.201 44.462V25.7285C105.252 23.7633 105.012 21.8013 104.488 19.9054C104.09 18.4961 103.306 17.2242 102.223 16.2312C101.025 15.2577 99.597 14.6049 98.0737 14.3351C97.7512 14.2592 97.4203 14.1918 97.0724 14.1328C94.6905 13.7002 92.2731 13.4886 89.8517 13.5008H79.5C81.9245 13.4908 84.3447 13.7052 86.7292 14.1413C87.0771 14.2003 87.408 14.2677 87.7304 14.3435C89.2519 14.6115 90.678 15.2645 91.8711 16.2396C92.9591 17.2299 93.7468 18.5025 94.1451 19.9138C94.6645 21.8105 94.9045 23.7719 94.8578 25.737V44.6811C94.8578 49.8385 94.9512 54.4397 96.2918 57.583C97.586 60.596 99.8275 63.1119 102.681 64.7545C99.8225 66.4333 97.5827 68.9798 96.2918 72.0187C94.9512 75.162 94.8578 79.6705 94.8578 84.8195V103.755C94.9044 105.723 94.6643 107.687 94.1451 109.587C93.7449 110.995 92.9574 112.264 91.8711 113.253C90.6767 114.227 89.2514 114.883 87.7304 115.157L86.7292 115.359C84.3442 115.791 81.9244 116.006 79.5 116H89.8517C92.2761 116.006 94.6959 115.791 97.0809 115.359L98.0821 115.157C99.6051 114.881 101.033 114.226 102.231 113.253C103.312 112.261 104.096 110.993 104.497 109.587C105.02 107.688 105.26 105.723 105.21 103.755V85.0217C105.21 79.7885 105.871 75.6086 107.212 72.5159C108.627 69.327 110.997 66.6491 114 64.8472L113.839 64.7461L113.992 64.6365Z" fill="#0FCE7C"/>
<path fill-rule="evenodd" clip-rule="evenodd" d="M122.697 54.6004C120.81 52.0678 119.823 48.9804 119.892 45.8262V26.7116C119.941 23.0624 119.546 19.4208 118.718 15.866C118.047 12.9035 116.608 10.1684 114.545 7.93385C112.236 5.63016 109.361 3.97201 106.207 3.12573C104.095 2.51446 101.932 2.09453 99.7438 1.87107C97.3421 1.61418 94.9278 1.49049 92.5123 1.50057H2C2 1.50057 5.20181 33.4143 23.7115 42.0622C25.3081 51.4848 29.6251 65.0671 41.1905 70.473C42.8801 80.6619 47.8222 93.9579 61.6516 97.7976C61.6382 97.963 61.6382 98.1291 61.6516 98.2944C61.6516 98.2944 63.3412 127 92.9094 127C95.4438 127 97.7332 126.907 99.7692 126.747C101.82 126.612 103.852 126.273 105.835 125.737C109.059 124.936 112.017 123.311 114.418 121.021C116.541 118.838 118.028 116.119 118.718 113.157C119.557 109.569 119.951 105.893 119.892 102.21V82.9944C119.835 79.8834 120.822 76.8425 122.697 74.3549C124.567 71.8793 127.501 70.6443 131.5 70.6499V58.3054C127.496 58.3054 124.561 57.0704 122.697 54.6004ZM107.178 72.0729C105.832 75.1942 105.159 79.3118 105.159 84.4259V103.136C105.159 107.723 104.159 110.81 102.16 112.399C101.432 112.961 100.615 113.399 99.7438 113.696C98.1219 114.244 96.4348 114.578 94.7257 114.689C93.0361 114.689 77.5593 116.676 75.0333 98.8755H89.395C88.8205 87.4236 79.6713 86.7583 78.5054 86.7162H73.2339C61.7868 86.7162 56.6504 78.1778 54.3356 70.4646H88.4065C88.4065 63.7282 83.0167 58.0191 77.8549 58.3054H55.5014C44.2318 58.1875 39.146 49.7165 36.8482 42.0622H86.7845C86.7845 35.3258 82.1466 29.903 75.405 29.903H37.448C26.0009 29.903 22.5034 21.3646 20.1971 13.6514H89.6738C92.1129 13.6416 94.5478 13.8558 96.9475 14.2913C97.2939 14.3503 97.6318 14.4176 97.9528 14.4934C98.5511 14.6224 99.1386 14.7969 99.71 15.0155C100.591 15.3177 101.41 15.7771 102.126 16.3712C103.213 17.3471 104.003 18.6074 104.407 20.0089C104.935 21.8906 105.177 23.8406 105.125 25.7938V44.3947C105.125 49.5986 105.798 53.7359 107.144 56.8065C108.591 59.9752 110.984 62.6217 113.996 64.385C110.976 66.1784 108.593 68.8659 107.178 72.0729V72.0729Z" fill="#15003E"/>
<path d="M226 36.1144V48.5929C219.919 43.4982 213.628 40.9508 207.127 40.9508C200.263 40.8219 193.67 43.6396 189.011 48.694C184.122 53.7176 181.456 60.5015 181.613 67.5171C181.46 74.4475 184.131 81.1412 189.011 86.0537C193.739 91.0158 200.325 93.766 207.169 93.6368C210.407 93.7272 213.626 93.109 216.601 91.8253C218.172 91.1494 219.677 90.3315 221.099 89.3819C222.802 88.238 224.438 86.9974 226 85.6661V98.389C220.236 101.724 213.699 103.485 207.043 103.495C197.47 103.658 188.249 99.8817 181.529 93.047C174.667 86.3884 170.857 77.1818 171.004 67.6098C170.946 58.8641 174.079 50.3987 179.814 43.8071C187.038 35.2747 196.384 31.0056 207.85 31C214.249 31.0358 220.52 32.8028 226 36.1144V36.1144Z" fill="#15003E"/>
<path fill-rule="evenodd" clip-rule="evenodd" d="M255.812 41.6008C248.604 48.6652 245 57.1178 245 66.9585C245 78.1592 248.935 87.2159 256.805 94.1286C263.985 100.372 272.082 103.494 281.098 103.494C290.867 103.667 300.287 99.8609 307.201 92.9484C314.232 86.3189 318.151 77.0317 317.996 67.3631C317.881 47.3305 301.688 31.1193 281.679 31.0042C271.973 30.8547 262.629 34.6828 255.812 41.6008ZM263.407 86.1537C258.22 81.1744 255.626 74.8209 255.626 67.0933V67.1102C255.462 60.1553 258.173 53.4411 263.12 48.5556C273.286 38.4178 289.726 38.4178 299.892 48.5556C309.873 59.0684 309.832 75.5809 299.799 86.0441C294.94 91.0325 288.233 93.7798 281.275 93.6312C274.55 93.6256 268.594 91.1331 263.407 86.1537Z" fill="#15003E"/>
<path fill-rule="evenodd" clip-rule="evenodd" d="M340.5 32.5V102.5H354.999C362.079 102.5 367.546 101.85 371.4 100.55C375.792 99.0989 379.83 96.7346 383.249 93.6118C390.75 86.9323 394.5 78.2297 394.5 67.5042C394.5 56.7787 390.898 48.1184 383.695 41.5233C380.301 38.349 376.241 35.978 371.813 34.5849C367.74 33.195 362.194 32.5 355.176 32.5H340.5ZM355.773 92.5736H351.027L351.011 42.3674H355.757C364.738 42.373 371.535 44.5057 376.147 48.7655C381.269 53.5824 383.83 59.809 383.83 67.4451C383.83 75.0813 381.238 81.2713 376.054 86.015C373.603 88.2785 370.709 90.0035 367.555 91.0795C363.725 92.1679 359.753 92.6715 355.773 92.5736Z" fill="#15003E"/>
<path d="M456 42.4264H428.025V59.2491H455.184V69.1755H428.025V92.5736H456V102.5H417.5V32.5H456V42.4264Z" fill="#15003E"/>
<path d="M483 104.5H497.003V71.1194H520.627V57.7941H497.003V44.3252H521.5V31H483V104.5V104.5Z" fill="#0FCE7C"/>
<path d="M583.082 74.7822C583.082 80.4823 582.241 84.5742 580.468 86.9486C577.863 90.5353 574.257 92.2782 569.458 92.2782C564.659 92.2782 561.053 90.5353 558.532 86.9738C556.784 84.4985 555.901 80.3981 555.901 74.7822V31H542V77.6364C542 85.4078 544.463 91.9499 549.329 97.0016C554.638 102.437 561.909 105.5 569.5 105.5C577.091 105.5 584.362 102.437 589.671 97.0016C594.529 91.9499 597 85.4246 597 77.6364V31.0421H583.082V74.7822Z" fill="#0FCE7C"/>
<path d="M673.555 76.9427L622.5 23.5V104.217H636.445V57.684L687.5 111V30.7896H673.555V76.9427V76.9427Z" fill="#0FCE7C"/>
<path fill-rule="evenodd" clip-rule="evenodd" d="M746.623 33.1814C751.287 34.6548 755.565 37.1471 759.149 40.4781C766.708 47.3859 770.5 56.5259 770.5 67.7542C770.5 78.9826 766.547 88.2155 758.676 95.174C755.065 98.4546 750.806 100.94 746.176 102.471C742.181 103.815 736.463 104.5 729.208 104.5H713V31H729.385C736.581 31 742.4 31.7356 746.623 33.1814ZM749.25 85.0702C754.132 80.6144 756.505 74.9495 756.505 67.7542C756.505 60.4829 754.157 54.7672 749.326 50.2438C745.052 46.3291 738.549 44.3252 730.019 44.3252H726.944V91.1748H730.019C733.846 91.2685 737.667 90.7897 741.353 89.7543C744.281 88.7566 746.97 87.1616 749.25 85.0702Z" fill="#0FCE7C"/>
</svg>
