<?xml version="1.0" encoding="utf-8"?>
<!-- Generator: Adobe Illustrator 23.0.1, SVG Export Plug-In . SVG Version: 6.00 Build 0)  -->
<svg version="1.1" id="Layer_1" xmlns="http://www.w3.org/2000/svg" xmlns:xlink="http://www.w3.org/1999/xlink" x="0px" y="0px"
	 viewBox="0 0 60 60" style="enable-background:new 0 0 60 60;" xml:space="preserve">
<style type="text/css">
	.st0{fill:#6A9BF4;}
</style>
<g>
	<g>
		<g id="Web-Template-Presentation" transform="translate(-366.000000, -4316.000000)">
			<g id="Inner-Pages" transform="translate(345.000000, 3929.000000)">
				<g id="nav_tabs" transform="translate(0.000000, 170.000000)">
					<g id="tab" transform="translate(0.000000, 192.000000)">
						<g transform="translate(21.000000, 25.000000)">
							<path id="Path" class="st0" d="M30.5,29.6c-0.7,0-1.2-0.5-1.2-1.2v-1.2h-11v1.2c0,0.6-0.5,1.2-1.2,1.2s-1.2-0.5-1.2-1.2v-2.3
								c0-0.6,0.5-1.2,1.2-1.2h13.4c0.7,0,1.2,0.5,1.2,1.2v2.3C31.7,29.1,31.2,29.6,30.5,29.6z"/>
							<path class="st0" d="M23.8,39.8c-0.8,0-1.4-0.5-1.4-1.2V26.2c0-0.6,0.6-1.2,1.4-1.2s1.4,0.5,1.4,1.2v12.5
								C25.2,39.3,24.6,39.8,23.8,39.8z"/>
							<path class="st0" d="M25.9,39.8h-4c-0.7,0-1.2-0.4-1.2-0.9s0.5-0.9,1.2-0.9h4c0.7,0,1.2,0.4,1.2,0.9S26.5,39.8,25.9,39.8z"/>
							<path class="st0" d="M42.6,26.9h-6.9c-0.6,0-1.2-0.4-1.2-0.9s0.5-0.9,1.2-0.9h6.9c0.6,0,1.2,0.4,1.2,0.9
								C43.7,26.5,43.2,26.9,42.6,26.9z"/>
							<path class="st0" d="M42.6,33.3h-6.9c-0.6,0-1.2-0.4-1.2-0.9s0.5-0.9,1.2-0.9h6.9c0.6,0,1.2,0.4,1.2,0.9
								C43.7,32.9,43.2,33.3,42.6,33.3z"/>
							<path class="st0" d="M42.6,38.9h-6.9c-0.6,0-1.2-0.4-1.2-0.9s0.5-1,1.1-1h6.9c0.6,0,1.2,0.4,1.2,0.9S43.2,38.9,42.6,38.9z"/>
							<path id="Shape" class="st0" d="M44.1,46.3H15.6c-2.3,0-4.2-1.9-4.2-4.2v-25c0-2.3,1.9-4.2,4.2-4.2h28.5
								c2.3,0,4.2,1.9,4.2,4.2v25C48.3,44.4,46.4,46.3,44.1,46.3z M15.6,15.3c-1.1,0-1.9,0.8-1.9,1.9v25c0,1,0.9,1.9,1.9,1.9h28.5
								c1.1,0,1.9-0.8,1.9-1.9v-25c0-1-0.9-1.9-1.9-1.9C44.1,15.3,15.6,15.3,15.6,15.3z"/>
							<path class="st0" d="M47.2,20.4H12.5c-0.6,0-1.2-0.4-1.2-0.9s0.5-0.9,1.2-0.9h34.7c0.6,0,1.2,0.4,1.2,0.9
								C48.3,20,47.8,20.4,47.2,20.4z"/>
						</g>
					</g>
				</g>
			</g>
		</g>
	</g>
</g>
</svg>
