<?xml version="1.0" encoding="utf-8"?>
<!-- Generator: Adobe Illustrator 23.0.1, SVG Export Plug-In . SVG Version: 6.00 Build 0)  -->
<svg version="1.1" id="Layer_1" xmlns="http://www.w3.org/2000/svg" xmlns:xlink="http://www.w3.org/1999/xlink" x="0px" y="0px"
	 viewBox="0 0 70 46" style="enable-background:new 0 0 70 46;" xml:space="preserve">
<style type="text/css">
	.st0{fill:#FFFFFF;}
	.st1{fill:#FFFFFF;stroke:#766DF4;}
</style>
<title>icon/carousel</title>
<desc>Created with Sketch.</desc>
<g>
	<g id="Web-Template-Presentation" transform="translate(-431.000000, -3218.000000)">
		<g id="Components" transform="translate(0.000000, 2906.000000)">
			<g id="icon_box" transform="translate(346.000000, 288.000000)">
				<g transform="translate(86.000000, 24.000000)">
					<path id="Shape" class="st0" d="M33.5,4C40,4,46.4,4,52.9,4c0.5,0,1.2,0.1,1.5,0.4c0.3,0.3,0.5,1,0.5,1.5c0,8.1,0,16.1,0,24.2
						c0,3,0,5.9,0,8.9c0,1.6-0.6,2.2-2.1,2.2c-12.9,0-25.9,0-38.8,0c-1.3,0-1.9-0.6-1.9-2c0-11.1,0-22.2,0-33.3c0-1.3,0.6-2,1.9-2
						C20.5,4,27,4,33.5,4L33.5,4z M14.3,6.5c0,10.8,0,21.5,0,32.3c12.7,0,25.3,0,37.9,0c0-10.8,0-21.5,0-32.3
						C39.6,6.5,27,6.5,14.3,6.5z"/>
					<path id="Path" class="st1" d="M3.9,24.1c1.2,1.2,2.4,2.4,3.5,3.6C7.7,27.9,7.8,28,8,28.3c0.5,0.7,0.5,1.7-0.1,2.3
						c-0.6,0.6-1.6,0.7-2.2,0.1c-1.8-1.8-3.5-3.6-5.3-5.5c-0.6-0.6-0.6-1.6,0.1-2.2c1.7-1.8,3.4-3.6,5.1-5.3c0.7-0.7,1.6-0.7,2.3,0
						c0.6,0.6,0.7,1.7,0,2.4c-1.1,1.2-2.3,2.3-3.4,3.5C4.3,23.6,4.2,23.8,3.9,24.1z"/>
					<path class="st1" d="M64.1,24c-1.3-1.4-2.6-2.6-3.8-3.9c-0.8-0.9-0.9-1.9-0.2-2.6c0.7-0.7,1.7-0.6,2.5,0.2
						c1.6,1.6,3.1,3.2,4.7,4.9c0.9,1,0.9,1.9,0,2.8c-1.6,1.6-3.2,3.3-4.8,4.9c-0.5,0.6-1.2,0.8-1.9,0.5c-0.6-0.2-1-0.7-1-1.3
						c0-0.5,0.2-1.1,0.6-1.5C61.4,26.7,62.8,25.4,64.1,24z"/>
					<path class="st0" d="M34,15.2c-3.2,0-6.5,0-9.7,0c-1.4,0-2.2-0.6-1.8-1.3c0.3-0.4,0.8-0.6,1.8-0.6c3.9,0,7.7,0,11.5,0
						c2.7,0,5.4,0,8.1,0c0.9,0,1.5,0.3,1.7,0.7c0.2,0.4-0.1,0.9-0.8,1.1c-0.4,0.1-0.8,0.1-1.3,0.1C40.3,15.2,37.1,15.2,34,15.2z"/>
					<path class="st0" d="M34,21.7c-3.3,0-6.5,0-9.8,0c-1.4,0-2.2-0.6-1.7-1.3c0.4-0.5,1-0.6,1.8-0.5c4.3,0,8.5,0,12.8,0
						c2.2,0,4.4,0,6.6,0c1.2,0,1.9,0.3,1.9,0.9c0,0.6-0.7,0.9-1.9,0.9C40.5,21.7,37.2,21.7,34,21.7L34,21.7z"/>
					<path class="st0" d="M41.9,28.2c1,0,1.9,0.9,1.8,1.9c0,1-0.9,1.8-1.9,1.8c-1,0-1.9-0.8-1.9-1.9C40.1,29,40.9,28.2,41.9,28.2z"
						/>
					<path class="st0" d="M26.1,28.2c1,0,1.9,0.8,1.9,1.9c0,1-0.9,1.9-1.9,1.9c-1,0-1.8-0.8-1.8-1.9C24.2,29.1,25,28.2,26.1,28.2z"
						/>
					<path class="st0" d="M32.6,30.1c0-1.1,0.8-1.9,1.9-1.9c1,0,1.8,0.8,1.9,1.8c0,1.1-0.8,1.9-1.9,1.9
						C33.4,31.9,32.6,31.1,32.6,30.1z"/>
				</g>
			</g>
		</g>
	</g>
</g>
</svg>
