<?xml version="1.0" encoding="utf-8"?>
<!-- Generator: Adobe Illustrator 23.0.1, SVG Export Plug-In . SVG Version: 6.00 Build 0)  -->
<svg version="1.1" id="Layer_1" xmlns="http://www.w3.org/2000/svg" xmlns:xlink="http://www.w3.org/1999/xlink" x="0px" y="0px"
	 viewBox="0 0 39 46" style="enable-background:new 0 0 39 46;" xml:space="preserve">
<style type="text/css">
	.st0{fill:#FFFFFF;}
</style>
<title>icon/chart</title>
<desc>Created with Sketch.</desc>
<g>
	<g id="Web-Template-Presentation" transform="translate(-447.000000, -3357.000000)">
		<g id="Components" transform="translate(0.000000, 2906.000000)">
			<g id="icon_box" transform="translate(346.000000, 429.000000)">
				<g transform="translate(101.000000, 22.000000)">
					<path id="Shape" class="st0" d="M22.7,26.2h-7.5c-0.6,0-1.1,0.5-1.1,1.1v14.1c0,0.6,0.5,1.1,1.1,1.1h7.5c0.6,0,1.1-0.5,1.1-1.1
						V27.3C23.8,26.7,23.3,26.2,22.7,26.2z M21.6,40.3h-5.2V28.4h5.2V40.3z"/>
					<path class="st0" d="M37.9,17.6h-7.5c-0.6,0-1.1,0.5-1.1,1.1v22.7c0,0.6,0.5,1.1,1.1,1.1h7.5c0.6,0,1.1-0.5,1.1-1.1V18.7
						C39,18.1,38.5,17.6,37.9,17.6z M36.7,40.3h-5.2V19.8h5.2V40.3z"/>
					<path class="st0" d="M8.6,31.7H1.1c-0.6,0-1.1,0.5-1.1,1.1v8.7c0,0.6,0.5,1.1,1.1,1.1h7.5c0.6,0,1.1-0.5,1.1-1.1v-8.7
						C9.8,32.1,9.2,31.7,8.6,31.7z M7.5,40.4H2.3v-6.5h5.2V40.4z"/>
					<path id="Path" class="st0" d="M38.7,4.6c-0.2-0.2-0.4-0.4-0.7-0.4L28,3.5c-0.6,0-1.1,0.4-1.2,1c0,0.6,0.4,1.1,1,1.1l7.1,0.5
						l-13,9.8L12,8.4c-0.4-0.3-1-0.3-1.4,0.1L0.3,17.9c-0.4,0.4-0.5,1.1-0.1,1.5c0.2,0.2,0.5,0.4,0.8,0.4c0.3,0,0.6-0.1,0.8-0.3
						l9.5-8.8l9.8,7.5c0.4,0.3,1,0.3,1.4,0L36.6,7.5l-0.5,6.6c0,0.6,0.4,1.1,1,1.1h0.1c0.6,0,1-0.4,1.1-1l0.7-9
						C39,5,38.9,4.8,38.7,4.6z"/>
				</g>
			</g>
		</g>
	</g>
</g>
</svg>
