<?xml version="1.0" encoding="utf-8"?>
<!-- Generator: Adobe Illustrator 23.0.1, SVG Export Plug-In . SVG Version: 6.00 Build 0)  -->
<svg version="1.1" id="Layer_1" xmlns="http://www.w3.org/2000/svg" xmlns:xlink="http://www.w3.org/1999/xlink" x="0px" y="0px"
	 viewBox="0 0 60 60" style="enable-background:new 0 0 60 60;" xml:space="preserve">
<style type="text/css">
	.st0{fill:#766DF4;}
</style>
<g>
	<g id="Web-Template-Presentation_1_" transform="translate(-635.000000, -4315.000000)">
		<g id="Inner-Pages_1_" transform="translate(345.000000, 3929.000000)">
			<g id="nav_tabs_1_" transform="translate(0.000000, 170.000000)">
				<g id="tab_1_" transform="translate(266.000000, 192.000000)">
					<g transform="translate(24.000000, 24.000000)">
						<path id="Path_1_" class="st0" d="M13.3,18.6c0.2,0,0.4-0.1,0.6-0.2c0.2-0.2,0.2-0.4,0.2-0.6c0-0.2-0.1-0.4-0.2-0.6
							c-0.2-0.2-0.4-0.2-0.6-0.2c-0.2,0-0.4,0.1-0.6,0.2c-0.2,0.2-0.2,0.4-0.2,0.6s0.1,0.4,0.2,0.6C12.8,18.5,13,18.6,13.3,18.6z"/>
						<path class="st0" d="M14.9,18.6c0.2,0,0.4-0.1,0.6-0.2c0.2-0.2,0.2-0.4,0.2-0.6s-0.1-0.4-0.2-0.6c-0.2-0.2-0.4-0.2-0.6-0.2
							c-0.2,0-0.4,0.1-0.6,0.2c-0.2,0.2-0.2,0.4-0.2,0.6s0.1,0.4,0.2,0.6C14.5,18.5,14.7,18.6,14.9,18.6z"/>
						<path class="st0" d="M16.5,18.6c0.2,0,0.4-0.1,0.6-0.2c0.2-0.2,0.2-0.4,0.2-0.6s-0.1-0.4-0.2-0.6c-0.2-0.2-0.4-0.2-0.6-0.2
							c-0.2,0-0.4,0.1-0.6,0.2c-0.2,0.2-0.2,0.4-0.2,0.6s0.1,0.4,0.2,0.6C16.1,18.5,16.3,18.6,16.5,18.6z"/>
						<path class="st0" d="M19.6,18.6h23.3c0.3,0,0.6-0.4,0.6-0.8s-0.3-0.8-0.6-0.8H19.6c-0.3,0-0.6,0.4-0.6,0.8
							S19.2,18.6,19.6,18.6z"/>
						<path class="st0" d="M45.7,18.6H47c0.3,0,0.6-0.4,0.6-0.8s-0.3-0.8-0.6-0.8h-1.3c-0.3,0-0.6,0.4-0.6,0.8S45.4,18.6,45.7,18.6z
							"/>
						<path id="Shape_1_" class="st0" d="M30.6,27.6h-1.2c-1.3,0-2.3,1.1-2.3,2.5V34c0,1.4,1,2.5,2.3,2.5h1.2c1.3,0,2.3-1.1,2.3-2.5
							v-3.9C32.9,28.7,31.8,27.6,30.6,27.6z M31.8,34c0,0.7-0.5,1.3-1.2,1.3h-1.2c-0.7,0-1.2-0.6-1.2-1.3v-3.9
							c0-0.7,0.5-1.3,1.2-1.3h1.2c0.7,0,1.2,0.6,1.2,1.3V34z"/>
						<path class="st0" d="M24.9,33.4h-0.6v-5.2c0-0.3-0.3-0.6-0.6-0.6s-0.6,0.3-0.6,0.6v5.2h-2.9l1.6-5c0.1-0.3-0.1-0.7-0.4-0.8
							c-0.3-0.1-0.6,0.1-0.7,0.4L19,33.8c-0.1,0.2,0,0.4,0.1,0.5c0.1,0.2,0.3,0.3,0.5,0.3h3.6v1.3c0,0.3,0.3,0.6,0.6,0.6
							s0.6-0.3,0.6-0.6v-1.3h0.6c0.3,0,0.6-0.3,0.6-0.6S25.3,33.4,24.9,33.4z"/>
						<path class="st0" d="M40.5,33.4h-0.6v-5.2c0-0.3-0.3-0.6-0.6-0.6s-0.6,0.3-0.6,0.6v5.2h-2.9l1.6-5c0.1-0.3-0.1-0.7-0.4-0.8
							c-0.3-0.1-0.6,0.1-0.7,0.4l-1.8,5.8c-0.1,0.2,0,0.4,0.1,0.5c0.1,0.2,0.3,0.3,0.5,0.3h3.6v1.3c0,0.3,0.3,0.6,0.6,0.6
							s0.6-0.3,0.6-0.6v-1.3h0.6c0.3,0,0.6-0.3,0.6-0.6S40.8,33.4,40.5,33.4z"/>
						<path class="st0" d="M46.9,14.5H13.1c-1.7,0-3.1,1.4-3.1,3.1v24.9c0,1.7,1.4,3.1,3.1,3.1h33.8c1.7,0,3.1-1.4,3.1-3.1V17.6
							C50,15.9,48.6,14.5,46.9,14.5z M13.1,15.7h33.8c1.1,0,1.9,0.9,1.9,1.9v1.9H11.2v-1.9C11.2,16.5,12,15.7,13.1,15.7z M46.9,44.3
							H13.1c-1.1,0-1.9-0.9-1.9-1.9V20.6h37.7v21.8C48.8,43.5,48,44.3,46.9,44.3z"/>
					</g>
				</g>
			</g>
		</g>
	</g>
</g>
</svg>
