<?xml version="1.0" encoding="utf-8"?>
<!-- Generator: Adobe Illustrator 23.0.1, SVG Export Plug-In . SVG Version: 6.00 Build 0)  -->
<svg version="1.1" id="Layer_1" xmlns="http://www.w3.org/2000/svg" xmlns:xlink="http://www.w3.org/1999/xlink" x="0px" y="0px"
	 viewBox="0 0 42 46" style="enable-background:new 0 0 42 46;" xml:space="preserve">
<style type="text/css">
	.st0{fill:#FFFFFF;}
	.st1{fill:#766DF4;}
</style>
<title>icon/forms</title>
<desc>Created with Sketch.</desc>
<g>
	<g id="Web-Template-Presentation" transform="translate(-445.000000, -3498.000000)">
		<g id="Components" transform="translate(0.000000, 2906.000000)">
			<g id="icon_box" transform="translate(346.000000, 570.000000)">
				<g transform="translate(99.000000, 22.000000)">
					<path id="Shape" class="st0" d="M21,42.7c-6,0-12.1,0-18.1,0c-1.8,0-2.9-1-2.9-2.9c0-11.5,0-23,0-34.5c0-1.8,1.1-2.8,2.8-2.8
						c12.1,0,24.2,0,36.3,0c1.9,0,2.9,1,2.9,2.9c0,11.5,0,22.9,0,34.4c0,1.8-1,2.9-2.9,2.9C33.1,42.7,27,42.7,21,42.7z M21,40.5
						c6,0,12,0,18,0c0.8,0,0.8,0,0.8-0.8c0-11.4,0-22.8,0-34.2c0-0.8,0-0.8-0.8-0.8c-12,0-24,0-36,0c-0.8,0-0.8,0-0.8,0.8
						c0,11.4,0,22.8,0,34.2c0,0.8,0,0.8,0.8,0.8C9,40.5,15,40.5,21,40.5z"/>
					<path class="st0" d="M21,14.4c4.7,0,9.4,0,14.1,0c1.1,0,1.4,0.4,1.4,1.5c0,1.8,0,3.6,0,5.4c0,0.9-0.4,1.3-1.3,1.3
						c-9.5,0-19,0-28.5,0c-0.9,0-1.3-0.4-1.3-1.3c0-1.8,0-3.7,0-5.5c0-0.9,0.4-1.3,1.3-1.3C11.5,14.4,16.2,14.4,21,14.4z M7.7,20.2
						c8.9,0,17.8,0,26.6,0c0-1.2,0-2.3,0-3.5c-8.9,0-17.7,0-26.6,0C7.7,17.9,7.7,19,7.7,20.2z"/>
					<path class="st0" d="M21.1,23.5c4.7,0,9.4,0,14,0c1.1,0,1.4,0.4,1.4,1.5c0,1.8,0,3.6,0,5.4c0,0.9-0.4,1.3-1.3,1.3
						c-9.5,0-19,0-28.5,0c-0.9,0-1.3-0.4-1.3-1.3c0-1.8,0-3.7,0-5.5c0-0.9,0.4-1.3,1.3-1.3C11.5,23.5,16.3,23.5,21.1,23.5z
						 M34.3,25.9c-8.9,0-17.8,0-26.6,0c0,1.2,0,2.3,0,3.5c8.9,0,17.7,0,26.6,0C34.3,28.2,34.3,27,34.3,25.9z"/>
					<path id="Path" class="st0" d="M22,8.9c1.7,0,3.3,0,5,0c0.7,0,1.1,0.3,1.3,0.9c0.2,0.7-0.1,1.5-0.7,1.7
						c-0.2,0.1-0.4,0.1-0.6,0.1c-3.4,0-6.7,0-10.1,0c-0.8,0-1.3-0.4-1.3-1.2c-0.1-0.9,0.4-1.5,1.3-1.5C18.5,8.9,20.3,8.9,22,8.9z"/>
					<path class="st0" d="M31.5,35.4c1.3,0,2.5,0,3.8,0c0.7,0,1.1,0.4,1.2,1.1c0.1,0.9-0.4,1.6-1.1,1.6c-2.6,0-5.1,0-7.7,0
						c-0.7,0-1.2-0.6-1.2-1.4c0-0.8,0.5-1.3,1.2-1.3C29,35.4,30.3,35.4,31.5,35.4z"/>
					<path class="st1" d="M7.3,19.8c0-0.9,0-1.8,0-2.7c8.8,0,17.6,0,26.5,0c0,0.9,0,1.8,0,2.7C25,19.8,16.2,19.8,7.3,19.8z"/>
					<path class="st1" d="M33.8,26.2c0,0.9,0,1.8,0,2.7c-8.8,0-17.6,0-26.5,0c0-0.9,0-1.8,0-2.7C16.1,26.2,24.9,26.2,33.8,26.2z"/>
				</g>
			</g>
		</g>
	</g>
</g>
</svg>
