<?xml version="1.0" encoding="utf-8"?>
<!-- Generator: Adobe Illustrator 23.0.1, SVG Export Plug-In . SVG Version: 6.00 Build 0)  -->
<svg version="1.1" id="Layer_1" xmlns="http://www.w3.org/2000/svg" xmlns:xlink="http://www.w3.org/1999/xlink" x="0px" y="0px"
	 viewBox="0 0 45 46" style="enable-background:new 0 0 45 46;" xml:space="preserve">
<style type="text/css">
	.st0{fill:#FFFFFF;}
</style>
<title>icon/gallery</title>
<desc>Created with Sketch.</desc>
<g>
	<g id="Web-Template-Presentation" transform="translate(-698.000000, -3216.000000)">
		<g id="Components" transform="translate(0.000000, 2906.000000)">
			<g id="icon_box" transform="translate(601.000000, 288.000000)">
				<g transform="translate(97.000000, 22.000000)">
					<path id="Shape" class="st0" d="M23,16.7c-2.6,0-4.8,2.1-4.8,4.8c0,2.6,2.1,4.8,4.8,4.8c2.6,0,4.8-2.1,4.8-4.8
						S25.6,16.7,23,16.7z M23,24c-1.4,0-2.5-1.1-2.5-2.5c0-1.4,1.1-2.5,2.5-2.5l0,0c1.4,0,2.5,1.1,2.5,2.5C25.5,22.9,24.4,24,23,24z
						"/>
					<path class="st0" d="M41.1,6.7L11.3,3.4C10.1,3.2,8.9,3.5,8,4.3C7.1,5,6.6,6,6.4,7.1l-0.5,4.5H4.2c-2.4,0-4.2,2.1-4.2,4.5v22.2
						c-0.1,2.3,1.7,4.2,4,4.2c0.1,0,0.1,0,0.2,0h30c2.4,0,4.6-1.8,4.6-4.2v-0.9c0.7-0.1,1.5-0.4,2.1-0.9c0.9-0.7,1.5-1.8,1.6-2.9
						L45,11.6C45.2,9.2,43.5,7,41.1,6.7z M36.6,38.3c0,1.2-1.2,2.1-2.4,2.1h-30c-1.1,0-2-0.8-2-1.9c0-0.1,0-0.1,0-0.2v-4l8.5-6.2
						c1-0.8,2.5-0.7,3.4,0.2l6,5.2c0.9,0.8,2,1.2,3.2,1.2c0.9,0,1.8-0.2,2.6-0.7l10.8-6.2L36.6,38.3L36.6,38.3z M36.6,25.2
						l-11.9,6.9c-1,0.6-2.3,0.5-3.2-0.3l-6-5.3c-1.7-1.5-4.2-1.6-6.1-0.2l-7.2,5.2V16.1c0-1.2,0.8-2.3,2-2.3h30
						c1.3,0.1,2.3,1.1,2.4,2.3V25.2L36.6,25.2z M42.8,11.3C42.8,11.3,42.8,11.3,42.8,11.3l-2.6,22.1c0,0.6-0.3,1.1-0.7,1.5
						c-0.2,0.2-0.7,0.3-0.7,0.4V16.1c-0.1-2.5-2.1-4.5-4.6-4.5H8.1l0.5-4.2c0.1-0.5,0.4-1,0.8-1.4c0.5-0.3,1.1-0.5,1.6-0.4l29.8,3.4
						C42,9,42.9,10.1,42.8,11.3z"/>
				</g>
			</g>
		</g>
	</g>
</g>
</svg>
