<?xml version="1.0" encoding="utf-8"?>
<!-- Generator: Adobe Illustrator 23.0.1, SVG Export Plug-In . SVG Version: 6.00 Build 0)  -->
<svg version="1.1" id="Layer_1" xmlns="http://www.w3.org/2000/svg" xmlns:xlink="http://www.w3.org/1999/xlink" x="0px" y="0px"
	 viewBox="0 0 60 60" style="enable-background:new 0 0 60 60;" xml:space="preserve">
<style type="text/css">
	.st0{fill:#FFB15C;}
</style>
<g>
	<g id="Web-Template-Presentation" transform="translate(-369.000000, -4121.000000)">
		<g id="Inner-Pages" transform="translate(345.000000, 3929.000000)">
			<g id="nav_tabs" transform="translate(0.000000, 170.000000)">
				<g id="tab">
					<g transform="translate(24.000000, 22.000000)">
						<path id="Shape" class="st0" d="M49,43.3V21.9c0.1-1.9-1.4-3.5-3.3-3.6c-0.1,0-0.2,0-0.2,0h-7.6v-1.5c0.1-2-1.5-3.7-3.5-3.7
							h-0.1h-8.6c-2,0-3.6,1.6-3.6,3.6v0.1v1.5h-7.6c-1.9-0.1-3.5,1.4-3.6,3.3c0,0.1,0,0.2,0,0.2v21.3c-0.1,2,1.5,3.7,3.5,3.7h0.1
							h30.9C47.4,47,49,45.4,49,43.3L49,43.3z M25.6,15.1C25.6,15.1,25.7,15.1,25.6,15.1h8.7c0.9,0,1.7,0.8,1.7,1.7v0.1v1.5H24v-1.5
							C23.9,16,24.6,15.1,25.6,15.1z M45.5,45.1L45.5,45.1h-31c-0.9,0-1.7-0.8-1.7-1.7v-0.1v-6.2c0.5,0.3,1.1,0.5,1.7,0.5H24v2.7
							c0.1,0.6,0.5,1,1.1,1h9.8c0.6,0,1-0.5,1.1-1v-2.7h9.4c0.6,0,1.2-0.1,1.7-0.5v6.1C47.2,44.2,46.5,45.1,45.5,45.1z M25.8,39.5
							v-4.7h8.3v4.7H25.8z M45.5,35.7L45.5,35.7H36v-2c0-0.5-0.6-0.8-1.1-0.8h-9.8c-0.5,0-1.1,0.3-1.1,0.8v2h-9.4
							c-0.9,0-1.7-0.8-1.7-1.7v-0.1v-12c-0.1-0.9,0.6-1.6,1.5-1.7c0.1,0,0.2,0,0.2,0h30.9c0.9-0.1,1.6,0.6,1.7,1.4
							c0,0.1,0,0.2,0,0.2v12C47.2,34.9,46.5,35.7,45.5,35.7z"/>
					</g>
				</g>
			</g>
		</g>
	</g>
</g>
</svg>
