<?xml version="1.0" encoding="UTF-8"?>
<svg width="46px" height="46px" viewBox="0 0 46 46" version="1.1" xmlns="http://www.w3.org/2000/svg" xmlns:xlink="http://www.w3.org/1999/xlink">
    <!-- Generator: Sketch 53 (72520) - https://sketchapp.com -->
    <title>icon/review</title>
    <desc>Created with Sketch.</desc>
    <g id="Homepages-(Demos)" stroke="none" stroke-width="1" fill="none" fill-rule="evenodd">
        <g id="Web-Template-Presentation" transform="translate(-698.000000, -3495.000000)" fill="#FFFFFF" fill-rule="nonzero">
            <g id="Components" transform="translate(0.000000, 2906.000000)">
                <g id="icon_box" transform="translate(601.000000, 570.000000)">
                    <g id="icon/review" transform="translate(97.000000, 19.000000)">
                        <path d="M39.6940024,31.0232558 C39.1197062,31.0232558 38.7368421,30.5953488 38.7368421,29.9534884 L38.7368421,24.6046512 L6.19339045,24.6046512 L6.19339045,29.9534884 C6.19339045,30.5953488 5.81052632,31.0232558 5.23623011,31.0232558 C4.6619339,31.0232558 4.27906977,30.5953488 4.27906977,29.9534884 L4.27906977,23.5348837 C4.27906977,22.8930233 4.6619339,22.4651163 5.23623011,22.4651163 L39.6940024,22.4651163 C40.2682987,22.4651163 40.6511628,22.8930233 40.6511628,23.5348837 L40.6511628,29.9534884 C40.6511628,30.5953488 40.2682987,31.0232558 39.6940024,31.0232558 Z" id="Path"></path>
                        <path d="M22.4651163,31.0232558 C21.8232558,31.0232558 21.3953488,30.6456908 21.3953488,30.0793434 L21.3953488,15.9206566 C21.3953488,15.3543092 21.8232558,14.9767442 22.4651163,14.9767442 C23.1069767,14.9767442 23.5348837,15.3543092 23.5348837,15.9206566 L23.5348837,30.0793434 C23.5348837,30.6456908 23.1069767,31.0232558 22.4651163,31.0232558 Z" id="Path"></path>
                        <path d="M23,37.4418605 C21.5736434,37.4418605 20.3255814,36.1937984 20.3255814,34.7674419 C20.3255814,33.3410853 21.5736434,32.0930233 23,32.0930233 C24.4263566,32.0930233 25.6744186,33.3410853 25.6744186,34.7674419 C25.6744186,36.1937984 24.4263566,37.4418605 23,37.4418605 Z M23,33.875969 C22.4651163,33.875969 22.1085271,34.2325581 22.1085271,34.7674419 C22.1085271,35.3023256 22.4651163,35.6589147 23,35.6589147 C23.5348837,35.6589147 23.8914729,35.3023256 23.8914729,34.7674419 C23.8914729,34.2325581 23.5348837,33.875969 23,33.875969 Z" id="Shape"></path>
                        <path d="M27.9031008,46 C27.3147287,46 26.9224806,45.6434109 26.9224806,45.1085271 L26.9224806,44.2170543 C26.9224806,43.1472868 26.1379845,42.4341085 24.9612403,42.4341085 L21.0387597,42.4341085 C19.8620155,42.4341085 19.0775194,43.1472868 19.0775194,44.2170543 L19.0775194,45.1085271 C19.0775194,45.6434109 18.6852713,46 18.0968992,46 C17.5085271,46 17.1162791,45.6434109 17.1162791,45.1085271 L17.1162791,44.2170543 C17.1162791,42.255814 18.8813953,40.6511628 21.0387597,40.6511628 L24.9612403,40.6511628 C27.1186047,40.6511628 28.8837209,42.255814 28.8837209,44.2170543 L28.8837209,45.1085271 C28.8837209,45.6434109 28.4914729,46 27.9031008,46 Z" id="Path"></path>
                        <path d="M40.1162791,37.4418605 C38.6899225,37.4418605 37.4418605,36.1937984 37.4418605,34.7674419 C37.4418605,33.3410853 38.6899225,32.0930233 40.1162791,32.0930233 C41.5426357,32.0930233 42.7906977,33.3410853 42.7906977,34.7674419 C42.7906977,36.1937984 41.5426357,37.4418605 40.1162791,37.4418605 Z M40.1162791,33.875969 C39.5813953,33.875969 39.2248062,34.2325581 39.2248062,34.7674419 C39.2248062,35.3023256 39.5813953,35.6589147 40.1162791,35.6589147 C40.6511628,35.6589147 41.0077519,35.3023256 41.0077519,34.7674419 C41.0077519,34.2325581 40.6511628,33.875969 40.1162791,33.875969 Z" id="Shape"></path>
                        <path d="M45.0193798,46 C44.4310078,46 44.0387597,45.6434109 44.0387597,45.1085271 L44.0387597,44.2170543 C44.0387597,43.1472868 43.2542636,42.4341085 42.0775194,42.4341085 L38.1550388,42.4341085 C36.9782946,42.4341085 36.1937984,43.1472868 36.1937984,44.2170543 L36.1937984,45.1085271 C36.1937984,45.6434109 35.8015504,46 35.2131783,46 C34.6248062,46 34.2325581,45.6434109 34.2325581,45.1085271 L34.2325581,44.2170543 C34.2325581,42.255814 35.9976744,40.6511628 38.1550388,40.6511628 L42.0775194,40.6511628 C44.2348837,40.6511628 46,42.255814 46,44.2170543 L46,45.1085271 C46,45.6434109 45.6077519,46 45.0193798,46 Z" id="Path"></path>
                        <path d="M4.81395349,37.4418605 C3.3875969,37.4418605 2.13953488,36.1937984 2.13953488,34.7674419 C2.13953488,33.3410853 3.3875969,32.0930233 4.81395349,32.0930233 C6.24031008,32.0930233 7.48837209,33.3410853 7.48837209,34.7674419 C7.48837209,36.1937984 6.24031008,37.4418605 4.81395349,37.4418605 Z M4.81395349,33.875969 C4.27906977,33.875969 3.92248062,34.2325581 3.92248062,34.7674419 C3.92248062,35.3023256 4.27906977,35.6589147 4.81395349,35.6589147 C5.34883721,35.6589147 5.70542636,35.3023256 5.70542636,34.7674419 C5.70542636,34.2325581 5.34883721,33.875969 4.81395349,33.875969 Z" id="Shape"></path>
                        <path d="M10.7868217,46 C10.1984496,46 9.80620155,45.6434109 9.80620155,45.1085271 L9.80620155,44.2170543 C9.80620155,43.1472868 9.02170543,42.4341085 7.84496124,42.4341085 L3.92248062,42.4341085 C2.74573643,42.4341085 1.96124031,43.1472868 1.96124031,44.2170543 L1.96124031,45.1085271 C1.96124031,45.6434109 1.56899225,46 0.980620155,46 C0.392248062,46 0,45.6434109 0,45.1085271 L0,44.2170543 C0,42.255814 1.76511628,40.6511628 3.92248062,40.6511628 L7.84496124,40.6511628 C10.0023256,40.6511628 11.7674419,42.255814 11.7674419,44.2170543 L11.7674419,45.1085271 C11.7674419,45.6434109 11.3751938,46 10.7868217,46 Z" id="Path"></path>
                        <path d="M17.0984501,19.255814 C16.9047574,19.255814 16.7110646,19.255814 16.7110646,19.0632558 C16.3236791,18.8706977 16.1299863,18.4855814 16.1299863,18.1004651 L17.0984501,12.3237209 L13.0309021,8.28 C12.8372093,8.08744186 12.8372093,7.70232558 12.8372093,7.3172093 C13.0309021,6.93209302 13.2245948,6.73953488 13.6119804,6.73953488 L19.2290706,5.77674419 L21.7470765,0.577674419 C21.7470765,0.19255814 22.134462,0 22.5218476,0 C22.9092331,0 23.2966186,0.19255814 23.4903114,0.577674419 L25.8146246,5.77674419 L31.238022,6.54697674 C31.6254076,6.54697674 31.8191003,6.93209302 32.0127931,7.12465116 C32.2064859,7.3172093 32.0127931,7.89488372 31.8191003,8.08744186 L27.7515522,12.1311628 L28.7200161,17.907907 C28.7200161,18.2930233 28.7200161,18.6781395 28.3326305,18.8706977 C27.945245,19.0632558 27.5578595,19.0632558 27.3641667,18.8706977 L22.5218476,16.3674419 L17.6795284,19.0632558 C17.4858357,19.255814 17.2921429,19.255814 17.0984501,19.255814 Z M15.7426008,8.28 L18.841685,11.3609302 C19.0353778,11.5534884 19.2290706,11.9386047 19.0353778,12.1311628 L18.4542995,16.56 L22.134462,14.6344186 C22.3281548,14.4418605 22.7155403,14.4418605 23.1029259,14.6344186 L26.7830884,16.56 L26.0083174,12.3237209 C26.0083174,11.9386047 26.0083174,11.7460465 26.2020101,11.5534884 L29.3010944,8.47255814 L25.2335463,7.89488372 C24.8461608,7.89488372 24.652468,7.70232558 24.4587752,7.3172093 L22.7155403,3.46604651 L20.9723055,7.3172093 C20.5849199,7.3172093 20.1975344,7.50976744 20.0038416,7.70232558 L15.7426008,8.28 Z" id="Shape"></path>
                    </g>
                </g>
            </g>
        </g>
    </g>
</svg>