<?xml version="1.0" encoding="utf-8"?>
<!-- Generator: Adobe Illustrator 23.0.1, SVG Export Plug-In . SVG Version: 6.00 Build 0)  -->
<svg version="1.1" id="Layer_1" xmlns="http://www.w3.org/2000/svg" xmlns:xlink="http://www.w3.org/1999/xlink" x="0px" y="0px"
	 viewBox="0 0 60 60" style="enable-background:new 0 0 60 60;" xml:space="preserve">
<style type="text/css">
	.st0{fill:#16C995;}
</style>
<g>
	<g id="Web-Template-Presentation" transform="translate(-366.000000, -4217.000000)">
		<g id="Inner-Pages" transform="translate(345.000000, 3929.000000)">
			<g id="nav_tabs" transform="translate(0.000000, 170.000000)">
				<g id="tab" transform="translate(0.000000, 96.000000)">
					<g transform="translate(21.000000, 22.000000)">
						<path id="Shape" class="st0" d="M21.7,35.9L21.7,35.9C21.7,35.9,21.7,35.9,21.7,35.9l21.8,0c0.5,0,1-0.4,1.2-0.9l4.8-16.9
							c0.1-0.4,0-0.8-0.2-1.1c-0.2-0.3-0.6-0.5-1-0.5H18.9l-0.9-3.9c-0.1-0.6-0.6-0.9-1.2-0.9H9.7c-0.7,0-1.2,0.5-1.2,1.2
							c0,0.7,0.5,1.2,1.2,1.2h6.2c0.2,0.7,4.1,18.5,4.3,19.6c-1.3,0.6-2.2,1.8-2.2,3.3c0,2,1.6,3.6,3.6,3.6h21.8
							c0.7,0,1.2-0.5,1.2-1.2c0-0.7-0.5-1.2-1.2-1.2H21.7c-0.7,0-1.2-0.5-1.2-1.2C20.5,36.4,21,35.9,21.7,35.9L21.7,35.9z
							 M46.7,19.1l-4.1,14.4H22.7l-3.2-14.4H46.7z"/>
						<path class="st0" d="M20.6,44.4c0,2.1,1.7,3.7,3.7,3.7s3.7-1.7,3.7-3.7s-1.7-3.7-3.7-3.7S20.6,42.4,20.6,44.4z M24.3,43.2
							c0.7,0,1.2,0.6,1.2,1.2s-0.6,1.2-1.2,1.2c-0.7,0-1.2-0.6-1.2-1.2S23.7,43.2,24.3,43.2z"/>
						<path class="st0" d="M37.4,44.4c0,2.1,1.7,3.7,3.7,3.7s3.7-1.7,3.7-3.7s-1.7-3.7-3.7-3.7S37.4,42.4,37.4,44.4z M41.1,43.2
							c0.7,0,1.2,0.6,1.2,1.2s-0.6,1.2-1.2,1.2c-0.7,0-1.2-0.6-1.2-1.2S40.4,43.2,41.1,43.2z"/>
					</g>
				</g>
			</g>
		</g>
	</g>
</g>
</svg>
