<?xml version="1.0" encoding="utf-8"?>
<!-- Generator: Adobe Illustrator 23.0.1, SVG Export Plug-In . SVG Version: 6.00 Build 0)  -->
<svg version="1.1" id="Layer_1" xmlns="http://www.w3.org/2000/svg" xmlns:xlink="http://www.w3.org/1999/xlink" x="0px" y="0px"
	 viewBox="0 0 60 60" style="enable-background:new 0 0 60 60;" xml:space="preserve">
<style type="text/css">
	.st0{fill:#766DF4;}
</style>
<g>
	<g id="Web-Template-Presentation" transform="translate(-633.000000, -4120.000000)">
		<g id="Inner-Pages" transform="translate(345.000000, 3929.000000)">
			<g id="nav_tabs" transform="translate(0.000000, 170.000000)">
				<g id="tab_active" transform="translate(266.000000, 0.000000)">
					<g transform="translate(22.000000, 21.000000)">
						<path id="Shape" class="st0" d="M30,48.5c-4.4,0-8.6-1.6-12-4.4c-0.8-0.7-1.5-1.4-2.2-2.2c-2.8-3.3-4.4-7.6-4.4-11.9
							c0-4.9,1.9-9.6,5.4-13.1s8.1-5.4,13.1-5.4s9.6,1.9,13.1,5.4c3.5,3.5,5.4,8.1,5.4,13.1c0,4.4-1.5,8.6-4.4,11.9
							c-0.7,0.8-1.4,1.5-2.2,2.2C38.6,46.9,34.4,48.5,30,48.5z M30,13.8c-8.9,0-16.2,7.3-16.2,16.2c0,3.8,1.4,7.5,3.8,10.4
							c0.6,0.7,1.2,1.3,1.9,1.9c2.9,2.5,6.6,3.8,10.5,3.8s7.6-1.4,10.5-3.8c0.7-0.6,1.3-1.2,1.9-1.9c2.5-2.9,3.8-6.6,3.8-10.4
							C46.2,21.1,38.9,13.8,30,13.8z"/>
						<path class="st0" d="M30,30c-3.8,0-6.9-3.1-6.9-6.9s3.1-6.9,6.9-6.9s6.9,3.1,6.9,6.9S33.8,30,30,30z M30,18.4
							c-2.6,0-4.6,2.1-4.6,4.6s2.1,4.6,4.6,4.6s4.6-2.1,4.6-4.6S32.6,18.4,30,18.4z"/>
						<path id="Path" class="st0" d="M41.2,44.4c-0.1,0-0.2,0-0.3,0c-0.6-0.2-1-0.8-0.8-1.4c0.2-0.8,0.3-1.7,0.3-2.5
							c0-5.7-4.6-10.3-10.3-10.4L30,30l-0.2,0c-5.7,0.1-10.3,4.7-10.3,10.4c0,0.9,0.1,1.7,0.3,2.5c0.2,0.6-0.2,1.2-0.8,1.4
							c-0.6,0.2-1.2-0.2-1.4-0.8c-0.3-1-0.4-2.1-0.4-3.1c0-3.4,1.3-6.5,3.7-8.9c2.4-2.4,5.5-3.7,8.9-3.8c0,0,0,0,0,0l0.2,0l0.2,0
							c0,0,0,0,0,0c3.4,0,6.5,1.4,8.9,3.8c2.4,2.4,3.7,5.6,3.7,8.9c0,1-0.1,2.1-0.4,3.1C42.2,44,41.7,44.4,41.2,44.4z"/>
					</g>
				</g>
			</g>
		</g>
	</g>
</g>
</svg>
