<?xml version="1.0" encoding="utf-8"?>
<!-- Generator: Adobe Illustrator 23.0.1, SVG Export Plug-In . SVG Version: 6.00 Build 0)  -->
<svg version="1.1" id="Layer_1" xmlns="http://www.w3.org/2000/svg" xmlns:xlink="http://www.w3.org/1999/xlink" x="0px" y="0px"
	 viewBox="0 0 60 60" style="enable-background:new 0 0 60 60;" xml:space="preserve">
<style type="text/css">
	.st0{fill:#F74F78;}
</style>
<g>
	<g id="Web-Template-Presentation" transform="translate(-632.000000, -4219.000000)">
		<g id="Inner-Pages" transform="translate(345.000000, 3929.000000)">
			<g id="nav_tabs" transform="translate(0.000000, 170.000000)">
				<g id="tab" transform="translate(266.000000, 96.000000)">
					<g transform="translate(21.000000, 24.000000)">
						<path id="Shape" class="st0" d="M45.2,13.7H14.8c-1.8,0-3.3,1.5-3.3,3.3v26.2c0,1.8,1.5,3.3,3.3,3.3h30.5
							c1.8,0,3.3-1.5,3.3-3.3V16.9C48.5,15.1,47,13.7,45.2,13.7z M14.8,15.8h30.5c0.6,0,1.1,0.5,1.1,1.1V18H13.7v-1.1
							C13.7,16.3,14.2,15.8,14.8,15.8z M13.7,43.1v-9.8h15.2v10.8H14.8C14.2,44.2,13.7,43.7,13.7,43.1z M45.2,44.2H31V32.2
							c0-0.6-0.5-1.1-1.1-1.1H13.7v-11h32.7v11H34.4c-0.6,0-1.1,0.5-1.1,1.1s0.5,1.1,1.1,1.1h11.9v9.8
							C46.3,43.7,45.8,44.2,45.2,44.2z"/>
						<circle id="Oval" class="st0" cx="16.9" cy="16.9" r="1.1"/>
						<circle class="st0" cx="21.3" cy="16.9" r="1.1"/>
						<path id="Path" class="st0" d="M25.6,35.5h-8.7c-0.6,0-1.1,0.5-1.1,1.1s0.5,1.1,1.1,1.1h8.7c0.6,0,1.1-0.5,1.1-1.1
							S26.2,35.5,25.6,35.5z"/>
						<path class="st0" d="M23.4,39.8h-6.5c-0.6,0-1.1,0.5-1.1,1.1s0.5,1.1,1.1,1.1h6.5c0.6,0,1.1-0.5,1.1-1.1S24,39.8,23.4,39.8z"
							/>
					</g>
				</g>
			</g>
		</g>
	</g>
</g>
</svg>
