<svg xmlns="http://www.w3.org/2000/svg" width="43" height="43" fill="#5a5b75" fill-rule="nonzero" xmlns:v="https://vecta.io/nano"><path d="M40.85 0H2.15A2.15 2.15 0 0 0 0 2.15v38.7A2.15 2.15 0 0 0 2.15 43h38.7A2.15 2.15 0 0 0 43 40.85V2.15A2.15 2.15 0 0 0 40.85 0zM10.63 24.685a.74.74 0 0 0-.596-.298.74.74 0 0 0-.596.298L1.433 36.693V12.9h40.133v21.5l-11.6-15.48c-.135-.18-.347-.287-.573-.287s-.438.106-.573.287L17.15 34.464l-6.52-9.778zM1.433 2.15c0-.396.32-.717.717-.717h38.7c.396 0 .717.32.717.717v9.317H1.433V2.15zm.717 39.417c-.396 0-.717-.32-.717-.717v-1.577l8.6-12.9L20.16 41.567h-18zm38.7 0H21.884L17.99 35.73l11.395-15.184L41.567 36.8v4.06c0 .396-.32.717-.717.717h0zM6.5 4a2.5 2.5 0 1 0 0 5 2.5 2.5 0 1 0 0-5zm0 3.75a1.25 1.25 0 1 1 0-2.5 1.25 1.25 0 1 1 0 2.5zM38.308 3H12.692C12.3 3 12 3.448 12 4s.3 1 .692 1h25.615C38.7 5 39 4.552 39 4s-.3-1-.692-1zm0 5H12.692C12.3 8 12 8.448 12 9s.3 1 .692 1h25.615C38.7 10 39 9.552 39 9s-.3-1-.692-1z"/></svg>