<svg xmlns="http://www.w3.org/2000/svg" xmlns:xlink="http://www.w3.org/1999/xlink" width="43" height="43" xmlns:v="https://vecta.io/nano"><g fill="#5a5b75" fill-rule="nonzero"><circle cx="29" cy="20" r="1"/><path d="M29.253 23c-.478-.066-.924.242-.994.7-.24 1.508-1.605 2.76-3.654 3.347-2.2.628-5.23.417-7.083-1.468a.92.92 0 0 0-1.237-.049.78.78 0 0 0-.053 1.155c1.073 1.1 2.53 1.835 4.216 2.15A9.98 9.98 0 0 0 22.28 29a10.37 10.37 0 0 0 2.838-.393c2.7-.777 4.532-2.523 4.872-4.67.07-.447-.26-.862-.738-.928zm11.087-7.018c-1.538-1.77-3.66-2.917-6.216-3.378 2.447-1.64 4.557-3.27 6.06-4.692 2.294-2.17 3.063-3.694 2.42-4.797-.715-1.23-2.778-1.22-6.494.027-3.14 1.054-7.05 2.885-11.012 5.155l-2.026 1.198c-.492-1.38-.167-2.954.918-4.32.813-1.023.995-2.322.474-3.4C23.92.674 22.723.003 21.26 0h-.04C16.057 0 11.008 2.022 7 5.692s-6.467 8.54-6.915 13.7c-.54 6.213 1.462 12.12 5.635 16.633A21.78 21.78 0 0 0 21.664 43c3.248 0 6.297-.6 9.062-1.753a20.4 20.4 0 0 0 6.674-4.514 19.94 19.94 0 0 0 4.128-6.129c.93-2.165 1.44-4.46 1.47-6.636.046-3.164-.874-5.922-2.658-7.976zm-17.166-4.57c.896-.56 1.83-1.12 2.773-1.66 3.663-2.1 7.3-3.828 10.27-4.868 3.26-1.145 4.593-1.07 4.904-.923-.027.195-.27 1.065-2.4 3.02-1.786 1.632-4.394 3.55-7.343 5.404a83.05 83.05 0 0 1-2.884 1.731 81.23 81.23 0 0 1-4.031 2.163 12.58 12.58 0 0 0-1.017-2.221 12.53 12.53 0 0 0-1.383-1.93l1.12-.714zm-.253 5.6c-2.4 1.125-4.582 1.982-6.333 2.48-.1-.434-.25-.854-.48-1.246a4.2 4.2 0 0 0-.798-.988c1.3-1.255 3.156-2.7 5.328-4.198a10.92 10.92 0 0 1 1.333 1.827 10.89 10.89 0 0 1 .949 2.126zm18.385 6.9C41.185 32.3 33.64 41.32 21.664 41.32c-5.56 0-10.916-2.344-14.695-6.43-3.848-4.162-5.693-9.614-5.196-15.353C2.627 9.7 11.35 1.68 21.22 1.68h.038c.8.002 1.424.3 1.685.845.24.492.136 1.098-.28 1.62-1.525 1.92-1.908 4.28-1.046 6.27l-1.33.87c-2.697 1.806-4.97 3.6-6.48 5.107a4.23 4.23 0 0 0-3.477.338c-1.758 1.008-4.067 5.705-4.512 6.636a.83.83 0 0 0 .032.78c.14.24.387.395.664.417a42.93 42.93 0 0 0 3.274.133c1.794 0 3.8-.14 4.773-.693a4.19 4.19 0 0 0 2.018-2.746c2.075-.54 4.787-1.598 7.723-3.018a82.36 82.36 0 0 0 5.03-2.658 85.17 85.17 0 0 0 2.532-1.511c7.068.202 9.5 5.233 9.443 9.875zm-26.327-3.42c-.054.845-.527 1.6-1.265 2.024-.8.46-3.55.52-5.807.418 1.04-2 2.467-4.323 3.268-4.782.756-.433 1.67-.452 2.447-.05.426.22.78.557 1.02.972.25.433.368.923.336 1.418zM14.5 5C12.57 5 11 6.57 11 8.5s1.57 3.5 3.5 3.5S18 10.43 18 8.5 16.43 5 14.5 5zm0 5.25c-.965 0-1.75-.785-1.75-1.75s.785-1.75 1.75-1.75 1.75.785 1.75 1.75-.785 1.75-1.75 1.75zM10.5 28C8.57 28 7 29.57 7 31.5S8.57 35 10.5 35s3.5-1.57 3.5-3.5-1.57-3.5-3.5-3.5zm0 5.25c-.965 0-1.75-.785-1.75-1.75s.785-1.75 1.75-1.75 1.75.785 1.75 1.75-.785 1.75-1.75 1.75z"/><use xlink:href="#B"/><use xlink:href="#B" x="10" y="-2"/><use xlink:href="#B" x="17" y="-11"/></g><defs ><path id="B" d="M19.5 33c-1.93 0-3.5 1.57-3.5 3.5s1.57 3.5 3.5 3.5 3.5-1.57 3.5-3.5-1.57-3.5-3.5-3.5zm0 5.25c-.965 0-1.75-.785-1.75-1.75s.785-1.75 1.75-1.75 1.75.785 1.75 1.75-.785 1.75-1.75 1.75z"/></defs></svg>