<svg xmlns="http://www.w3.org/2000/svg" xmlns:xlink="http://www.w3.org/1999/xlink" width="43" height="52" xmlns:v="https://vecta.io/nano"><g fill="#5a5b75" fill-rule="nonzero"><path d="M29.308 6.893c-.907-3.87-4.24-6.5-7.75-6.14C19.3 1 17.286 2.447 16.17 4.65c-.228.45-.085 1.03.32 1.3s.917.122 1.145-.328c.854-1.685 2.395-2.8 4.12-2.98 2.684-.282 5.23 1.736 5.925 4.694.1.465.502.767.9.724a.77.77 0 0 0 .118-.022c.45-.122.716-.633.596-1.142zm11.572 9.81l-2.543-4.285c-.153-.258-.43-.416-.727-.416h-2.44c-.468 0-.848.384-.848.857s.38.857.848.857h1.958l1.526 2.57h-34.3l1.526-2.57h.898c.468 0 .848-.384.848-.857A.86.86 0 0 0 6.77 12H5.4c-.298 0-.574.158-.727.416L2.12 16.702a.87.87 0 0 0-.01.864c.15.27.432.435.738.435h37.304c.306 0 .587-.166.738-.435s.147-.6-.01-.864z"/><path d="M35.874 8.874a.84.84 0 0 0-.523-.351L23.896 6.02c-.217-.048-.445-.012-.635.097a.79.79 0 0 0-.375.488l-.864 3.45c-.106.422.175.844.627.943s.904-.163 1-.586l.673-2.685 9.82 2.146-1.543 6.163c-.106.422.175.844.627.943.065.014.13.02.193.02.382 0 .727-.244.817-.606l1.734-6.927a.74.74 0 0 0-.104-.593zm-13.88 2.27l-.742-6.4a.83.83 0 0 0-.305-.556.8.8 0 0 0-.6-.173L6.72 5.65c-.447.054-.766.467-.713.924l1.238 10.692a.82.82 0 0 0 .808.734.87.87 0 0 0 .097-.006.83.83 0 0 0 .713-.924L7.72 7.204l12-1.45.646 5.584a.82.82 0 0 0 .905.729c.447-.054.766-.467.714-.923z"/><path d="M29.975 16.917l-1.778-7.245a.88.88 0 0 0-.403-.543c-.202-.12-.445-.158-.677-.104l-14.43 3.4c-.48.113-.777.587-.662 1.06l.89 3.62c.115.472.6.762 1.08.648s.777-.587.662-1.06l-.68-2.768 12.688-3 1.57 6.39c.098.402.466.672.87.672a.91.91 0 0 0 .21-.025c.48-.113.777-.587.662-1.06z"/><path d="M41.28 16.833c-.024-.467-.4-.833-.86-.833H2.58c-.458 0-.835.366-.86.833L.001 51.077a.89.89 0 0 0 .235.65C.4 51.9.624 52 .86 52h41.28c.236 0 .46-.1.624-.273a.89.89 0 0 0 .235-.65l-1.72-34.244zM1.765 50.244l1.632-32.488h36.205l1.632 32.488H1.765z"/><use xlink:href="#B"/><use xlink:href="#B" x="-12"/><path d="M28.177 23h-.063c-.455 0-.823.388-.823.867 0 .118.022.23.063.334v4.432c0 3.106-2.4 5.633-5.353 5.633s-5.353-2.527-5.353-5.633v-4.766c0-.478-.37-.867-.823-.867s-.823.388-.823.867v4.767C15 32.695 18.14 36 22 36s7-3.305 7-7.367v-4.767c0-.478-.37-.867-.823-.867z"/></g><defs ><path id="B" d="M28.5 20c-1.38 0-2.5 1.12-2.5 2.5s1.12 2.5 2.5 2.5 2.5-1.12 2.5-2.5-1.12-2.5-2.5-2.5zm0 3.333c-.46 0-.833-.374-.833-.833s.374-.833.833-.833.833.374.833.833-.374.833-.833.833z"/></defs></svg>