<?xml version="1.0" encoding="utf-8"?>
<!-- Generator: Adobe Illustrator 23.0.0, SVG Export Plug-In . SVG Version: 6.00 Build 0)  -->
<svg xmlns="http://www.w3.org/2000/svg" xmlns:xlink="http://www.w3.org/1999/xlink" x="0px" y="0px"
	 viewBox="0 0 120 120" style="enable-background:new 0 0 120 120;" xml:space="preserve">
<style type="text/css">
	.icon-white-62-0{fill:none;stroke:#FFFFFF;}
	.icon-white-62-1{fill:#FFFFFF;stroke:#FFFFFF;}
  .icon-white-62-2{fill:#FFFFFF;}
  .icon-white-62-3{fill:#377DFF;stroke:#FFFFFF;}
</style>
<path class="icon-white-62-0 fill-none stroke-white" opacity=".7" stroke-width="3" stroke-linecap="round" stroke-linejoin="round" stroke-miterlimit="10" d="M53.2,48.2c-0.7-0.8-1.8-1.3-3.1-1.3c-1.3,0-2.4,0.5-3.1,1.3"/>
<path class="icon-white-62-0 fill-none stroke-white" opacity=".7" stroke-width="3" stroke-linecap="round" stroke-linejoin="round" stroke-miterlimit="10" d="M71.9,48.2c-0.7-0.8-1.8-1.3-3.1-1.3c-1.3,0-2.4,0.5-3.1,1.3"/>
<path class="icon-white-62-0 fill-none stroke-white" stroke-width="3" stroke-linecap="round" stroke-linejoin="round" stroke-miterlimit="10" d="M36.2,30.4C38,18.9,47.7,10.1,59.4,10.1s21.5,8.8,23.3,20.3"/>
<path class="icon-white-62-0 fill-none stroke-white" stroke-width="3" stroke-linecap="round" stroke-linejoin="round" stroke-miterlimit="10" d="M35.8,36.8"/>
<path class="icon-white-62-0 fill-none stroke-white" stroke-width="3" stroke-linecap="round" stroke-linejoin="round" stroke-miterlimit="10" d="M31.5,29.3C31.5,13.9,44,1.4,59.4,1.4c5,0,9.7,1.3,13.8,3.7c8.4,4.8,14.1,13.9,14.1,24.3"/>
<path class="icon-white-62-0 fill-none stroke-white" opacity=".7" stroke-width="3" stroke-linecap="round" stroke-linejoin="round" stroke-miterlimit="10" d="M50.4,25.7c1.7,10.6,17,15.1,31.4,14.3"/>
<path class="icon-white-62-0 fill-none stroke-white" opacity=".7" stroke-width="3" stroke-linecap="round" stroke-linejoin="round" stroke-miterlimit="10" d="M50.4,25.7c0,7.9-5.7,12.6-13.2,14.3"/>
<polyline class="icon-white-62-0 fill-none stroke-white" stroke-width="3" stroke-linecap="round" stroke-linejoin="round" stroke-miterlimit="10" points="58.1,66.5 31.6,62.7 31.3,55.2 "/>
<path class="icon-white-62-2 fill-white" opacity=".15" d="M59.7,96.9l8.7,9.8c0.7,0.8,2,0.8,2.8,0l11.2-12.2c0.6-0.6,0.6-1.5,0.2-2.2l-5.1-8.8"/>
<path class="icon-white-62-0 fill-none stroke-white" opacity=".7" stroke-width="3" stroke-linecap="round" stroke-linejoin="round" stroke-miterlimit="10" d="M36.2,86.4L19.4,96.8c-1.6,1-3,2.3-4.1,3.8c-1.7,2.4-2.7,5.3-2.7,8.3v9.7"/>
<path class="icon-white-62-0 fill-none stroke-white" opacity=".7" stroke-width="3" stroke-linecap="round" stroke-linejoin="round" stroke-miterlimit="10" d="M83.2,86.4l17.5,10.9c4.2,2.6,6.7,7.2,6.7,12.1v1.1v8.1"/>
<line class="icon-white-62-0 fill-none stroke-white" opacity=".7" stroke-width="3" stroke-linecap="round" stroke-linejoin="round" stroke-miterlimit="10" x1="59.7" y1="111.5" x2="59.7" y2="118.6"/>
<line class="icon-white-62-0 fill-none stroke-white" opacity=".7" stroke-width="3" stroke-linecap="round" stroke-linejoin="round" stroke-miterlimit="10" x1="59.7" y1="104.3" x2="59.7" y2="105.8"/>
<path class="icon-white-62-0 fill-none stroke-white" stroke-width="3" stroke-linecap="round" stroke-linejoin="round" stroke-miterlimit="10" d="M36.8,50.3"/>
<path class="icon-white-62-0 fill-none stroke-white" opacity=".7" stroke-width="3" stroke-linecap="round" stroke-linejoin="round" stroke-miterlimit="10" d="M83.1,54.1c0,0.1,0,0.1,0,0.2c-1.3,9.8-6.8,19.9-16.2,23.8c-9.2,3.8-18.9-0.2-24.7-7.8"/>
<path class="icon-white-62-2 fill-white" opacity=".15" d="M59.7,96.9l-8.7,9.8c-0.7,0.8-2,0.8-2.8,0L37.1,94.5c-0.6-0.6-0.6-1.5-0.2-2.2l5.1-8.8"/>
<path class="icon-white-62-3 fill-primary stroke-white" stroke-width="3" stroke-linecap="round" stroke-linejoin="round" stroke-miterlimit="10" d="M31.2,55.2h-0.8c-3.2,0-5.8-2.6-5.8-5.8V35.1c0-3.2,2.6-5.8,5.8-5.8h0.8c3.2,0,5.8,2.6,5.8,5.8v14.3
	C37,52.5,34.4,55.2,31.2,55.2z"/>
<path class="icon-white-62-3 fill-primary stroke-white" stroke-width="3" stroke-linecap="round" stroke-linejoin="round" stroke-miterlimit="10" d="M88.5,55.2h-0.8c-3.2,0-5.8-2.6-5.8-5.8V35.1c0-3.2,2.6-5.8,5.8-5.8h0.8c3.2,0,5.8,2.6,5.8,5.8v14.2
	C94.3,52.5,91.7,55.2,88.5,55.2z"/>
<line class="icon-white-62-0 fill-none stroke-white" opacity=".7" stroke-width="3" stroke-linecap="round" stroke-linejoin="round" stroke-miterlimit="10" x1="73.8" y1="73.6" x2="73.8" y2="79.6"/>
<line class="icon-white-62-0 fill-none stroke-white" opacity=".7" stroke-width="3" stroke-linecap="round" stroke-linejoin="round" stroke-miterlimit="10" x1="46.2" y1="74.5" x2="46.2" y2="80"/>
<polyline class="icon-white-62-1 fill-white stroke-white" stroke-width="3" stroke-linecap="round" stroke-linejoin="round" stroke-miterlimit="10" points="59.7,90.2 69.8,101.6 83.4,86.8 77.5,76.8 "/>
<polyline class="icon-white-62-1 fill-white stroke-white" stroke-width="3" stroke-linecap="round" stroke-linejoin="round" stroke-miterlimit="10" points="59.7,90.2 49.7,101.6 36.1,86.8 41.9,76.8 "/>
<line class="icon-white-62-0 fill-none stroke-white" stroke-width="3" stroke-linecap="round" stroke-linejoin="round" stroke-miterlimit="10" x1="77.5" y1="76.8" x2="59.7" y2="90.2"/>
<line class="icon-white-62-0 fill-none stroke-white" stroke-width="3" stroke-linecap="round" stroke-linejoin="round" stroke-miterlimit="10" x1="41.9" y1="76.8" x2="59.7" y2="90.2"/>
</svg>
