<?xml version="1.0" encoding="utf-8"?>
<!-- Generator: Adobe Illustrator 23.0.0, SVG Export Plug-In . SVG Version: 6.00 Build 0)  -->
<svg xmlns="http://www.w3.org/2000/svg" xmlns:xlink="http://www.w3.org/1999/xlink" x="0px" y="0px"
	 viewBox="0 0 120 120" style="enable-background:new 0 0 120 120;" xml:space="preserve">
<style type="text/css">
	.icon-white-31-0{fill:none;stroke:#FFFFFF;}
	.icon-white-31-1{fill:#FFFFFF;}
	.icon-white-31-2{fill:none;stroke:#377DFF;}
	.icon-white-31-3{fill:#FFFFFF;stroke:#FFFFFF;}
</style>
<g>
	<path class="icon-white-31-0 fill-none stroke-white" stroke-width="3" stroke-linecap="round" stroke-linejoin="round" stroke-miterlimit="10" d="M67.7,67.4c1.3,1.7,3.3,2.8,5.6,2.8c3.8,0,6.9-3.1,6.9-6.9c0-3.8-3.1-6.9-6.9-6.9h-0.1c-3,0-5.3-2.4-5.3-5.3
		c0-3,2.4-5.3,5.3-5.3c1.8,0,3.3,0.9,4.3,2.2"/>
	<line class="icon-white-31-0 fill-none stroke-white" stroke-width="3" stroke-linecap="round" stroke-linejoin="round" stroke-miterlimit="10" x1="73.2" y1="45.7" x2="73.2" y2="42.7"/>
	<line class="icon-white-31-0 fill-none stroke-white" stroke-width="3" stroke-linecap="round" stroke-linejoin="round" stroke-miterlimit="10" x1="73.2" y1="73.2" x2="73.2" y2="70.2"/>
</g>
<g>
	<line class="icon-white-31-0 fill-none stroke-white" stroke-width="3" stroke-linecap="round" stroke-linejoin="round" stroke-miterlimit="10" x1="65.3" y1="23.3" x2="65.3" y2="15.1"/>
	<line class="icon-white-31-0 fill-none stroke-white" stroke-width="3" stroke-linecap="round" stroke-linejoin="round" stroke-miterlimit="10" x1="82.7" y1="15.1" x2="82.7" y2="23.3"/>
</g>
<path class="icon-white-31-1 fill-white" d="M59.1,0.9h29.8c0.8,0,1.3,0.8,1,1.5l-5.7,11.9c-0.2,0.4-0.6,0.6-1,0.6H64.8c-0.4,0-0.8-0.2-1-0.6L58.1,2.4
	C57.8,1.7,58.3,0.9,59.1,0.9z"/>
<path class="icon-white-31-0 fill-none stroke-white" stroke-width="3" stroke-linecap="round" stroke-linejoin="round" stroke-miterlimit="10" d="M101.5,88.3c1.3-2.2,2.1-4.7,2.1-7.5V51.6c0-13.3-8.8-24.6-20.9-28.3H65.3c-12.1,3.7-20.9,15-20.9,28.3v24.7"/>
<g>
	<line class="icon-white-31-2 fill-none stroke-primary" stroke-width="3" stroke-linecap="round" stroke-linejoin="round" stroke-miterlimit="10" x1="76.9" y1="11.7" x2="79.3" y2="5.4"/>
	<line class="icon-white-31-2 fill-none stroke-primary" stroke-width="3" stroke-linecap="round" stroke-linejoin="round" stroke-miterlimit="10" x1="71.1" y1="11.7" x2="68.6" y2="5.4"/>
</g>
<g>
	<line class="icon-white-31-0 fill-none stroke-white" stroke-width="3" stroke-linecap="round" stroke-linejoin="round" stroke-miterlimit="10" x1="86.9" y1="59.3" x2="88.7" y2="59.3"/>
	<line class="icon-white-31-0 fill-none stroke-white" stroke-width="3" stroke-linecap="round" stroke-linejoin="round" stroke-miterlimit="10" x1="59.3" y1="59.3" x2="61" y2="59.3"/>
</g>
<path class="icon-white-31-1 fill-white" opacity=".15" d="M90.7,93.8L112,88c2.6-0.7,5.3,0.7,6.2,3.3l0,0c0.7,2.3-0.2,5.1-2.6,6.2l-41.3,20.7c-4.6,2.2-9.9,2.5-14.4,0.5
	L37,108.9H26.7c-0.7,0-1.3-0.6-1.3-1.3v-8L90.7,93.8z"/>
<path class="icon-white-31-1 fill-white" opacity=".5" d="M1.9,104.2h21.7c1,0,1.7-0.7,1.7-1.7V65.1c0-1-0.7-1.7-1.7-1.7H1.9c-1,0-1.7,0.7-1.7,1.7v37.3
	C0.2,103.3,0.9,104.2,1.9,104.2z"/>
<line class="icon-white-31-2 fill-none stroke-primary" stroke-width="3" stroke-linecap="round" stroke-linejoin="round" stroke-miterlimit="10" x1="13.8" y1="78.8" x2="13.8" y2="82.6"/>
<path class="icon-white-31-3 fill-white stroke-white" stroke-width="3" stroke-linecap="round" stroke-linejoin="round" stroke-miterlimit="10" d="M118.3,82.5c-0.9-2.6-3.6-4-6.2-3.3L78.6,89.8c-2.5,0.8-5,1.8-7.4,3c-9.9,4.6-15.7-0.5-15.7-0.5
	c0-3.2,2.6-5.8,5.8-5.8h14.8c3,0,5.5-2.4,5.5-5.5c0-3.3-2.7-6-6-6H61.3l-24.4-7.5H25.3l0.2,32.6H37l23,9.8c4.5,2,9.8,1.7,14.4-0.5
	l41.3-20.7C118.1,87.6,119,84.8,118.3,82.5z"/>
</svg>
