<?xml version="1.0" encoding="utf-8"?>
<!-- Generator: Adobe Illustrator 23.0.0, SVG Export Plug-In . SVG Version: 6.00 Build 0)  -->
<svg xmlns="http://www.w3.org/2000/svg" xmlns:xlink="http://www.w3.org/1999/xlink" x="0px" y="0px"
	 viewBox="0 0 120 120" style="enable-background:new 0 0 120 120;" xml:space="preserve">
<style type="text/css">
	.icon-white-20-0{fill:none;stroke:#FFFFFF;}
	.icon-white-20-1{fill:#377DFF;}
	.icon-white-20-2{fill:#FFFFFF;}
	.icon-white-20-3{fill:none;stroke:#377DFF;}
</style>
<path class="icon-white-20-0 fill-none stroke-white" stroke-width="3" stroke-miterlimit="10" d="M11.3,56.2h11.3V33.5c0-11.4,9.3-20.7,20.7-20.7S64,22.1,64,33.5v22.7h11.3V33.5C75.3,15.9,61,1.6,43.4,1.6
	c-11,0-20.7,5.6-26.5,14.1"/>
<path class="icon-white-20-1 fill-primary" d="M2.1,77.2c0,22.8,18.5,41.3,41.3,41.3S84.7,100,84.7,77.2S66.2,35.9,43.4,35.9C20.6,35.9,2.1,54.4,2.1,77.2z"/>
<path class="icon-white-20-2 fill-white" opacity=".15" d="M21.1,82.3c0,15.5,12.6,28.1,28.1,28.1s28.1-12.6,28.1-28.1S64.7,54.2,49.2,54.2C33.6,54.3,21.1,66.8,21.1,82.3
	z"/>
<path class="icon-white-20-2 fill-white" d="M15.3,77.2c0,15.5,12.6,28.1,28.1,28.1s28.1-12.6,28.1-28.1S58.9,49.1,43.4,49.1S15.3,61.7,15.3,77.2z"/>
<path class="icon-white-20-1 fill-primary" d="M35.6,73c0,4.4,3.6,8,8,8s8-3.6,8-8s-3.6-8-8-8S35.6,68.6,35.6,73z"/>
<path class="icon-white-20-0 fill-none stroke-white" stroke-width="3" stroke-miterlimit="10" d="M81.5,61.5C75.3,46.5,60.6,36,43.3,36C20.5,36,2,54.5,2,77.3c0,4.5,0.7,8.8,2,12.8"/>
<path class="icon-white-20-0 fill-none stroke-white" stroke-width="3" stroke-miterlimit="10" d="M11.4,103.2c7.6,9.3,19.1,15.2,32,15.2c8.4,0,16.1-2.5,22.6-6.8"/>
<path class="icon-white-20-0 fill-none stroke-white" stroke-width="3" stroke-miterlimit="10" d="M6,94.5c0.5,1,2.2,4.2,2.8,5.1"/>
<rect class="icon-white-20-1 fill-primary" width="9.5" height="18.2" x="38.9" y="71.8"/>
<path class="icon-white-20-0 fill-none stroke-white" stroke-width="3" stroke-miterlimit="10" d="M67.2,80.3l5.4,11.3c-0.5,3.1-0.4,6.4,0.5,9.7c3.3,12.4,16.1,19.8,28.5,16.4c12.4-3.3,19.8-16.1,16.4-28.5
	s-16.1-19.8-28.5-16.4c-4.4,1.2-8.1,3.5-11,6.6L67.2,80.3z"/>
<path class="icon-white-20-2 fill-white" opacity=".15" d="M82.8,95.3c-2.2-8.1,2.8-16.5,11.1-18.7s16.8,2.5,19,10.7c2.2,8.1-2.8,16.5-11.1,18.7S85,103.4,82.8,95.3z"/>
<path class="icon-white-20-2 fill-white" d="M80.3,99.3c-2.2-8.1,2.8-16.5,11.1-18.7s16.8,2.5,19,10.7c2.2,8.1-2.8,16.5-11.1,18.7
	C91,112.1,82.5,107.4,80.3,99.3z"/>
<path class="icon-white-20-3 fill-none stroke-primary" stroke-width="3" stroke-linecap="round" stroke-miterlimit="10" d="M89.6,95.7l3.5,3.5c0.2,0.2,0.6,0.2,0.8,0l7.9-7.9"/>
</svg>
