<?xml version="1.0" encoding="utf-8"?>
<!-- Generator: Adobe Illustrator 23.0.0, SVG Export Plug-In . SVG Version: 6.00 Build 0)  -->
<svg xmlns="http://www.w3.org/2000/svg" xmlns:xlink="http://www.w3.org/1999/xlink" x="0px" y="0px"
	 viewBox="0 0 120 120" style="enable-background:new 0 0 120 120;" xml:space="preserve">
<style type="text/css">
	.icon-white-4-0{fill:none;stroke:#FFFFFF;}
	.icon-white-4-1{fill:#FFFFFF;}
	.icon-white-4-2{fill:none;stroke:#377DFF;}
</style>
<path class="icon-white-4-0 fill-none stroke-white" stroke-width="3" stroke-linecap="round" stroke-linejoin="round" stroke-miterlimit="10" d="M27.8,37.1c0,1.5-1.3,2.8-2.8,2.8s-2.8-1.2-2.8-2.8c0-1.5,1.3-2.8,2.8-2.8C26.6,34.3,27.8,35.5,27.8,37.1z"/>
<path class="icon-white-4-0 fill-none stroke-white" stroke-width="3" stroke-linecap="round" stroke-linejoin="round" stroke-miterlimit="10" opacity=".5" d="M41,37.1c0,1.5-1.2,2.8-2.8,2.8c-1.5,0-2.8-1.2-2.8-2.8c0-1.5,1.2-2.8,2.8-2.8S41,35.5,41,37.1z"/>
<path class="icon-white-4-0 fill-none stroke-white" stroke-width="3" stroke-linecap="round" stroke-linejoin="round" stroke-miterlimit="10" opacity=".5" d="M54.2,37.1c0,1.5-1.3,2.8-2.8,2.8s-2.8-1.2-2.8-2.8c0-1.5,1.3-2.8,2.8-2.8C53,34.3,54.2,35.5,54.2,37.1z"/>
<path class="icon-white-4-0 fill-none stroke-white" stroke-width="3" stroke-linecap="round" stroke-linejoin="round" stroke-miterlimit="10" opacity=".5" d="M105.8,61.7c0.8,1.4,1.4,2.9,1.9,4.5"/>
<path class="icon-white-4-0 fill-none stroke-white" stroke-width="3" stroke-linecap="round" stroke-linejoin="round" stroke-miterlimit="10" opacity=".5" d="M76.8,48c9.7-1.8,19.3,1.7,25.4,8.6"/>
<path class="icon-white-4-0 fill-none stroke-white" stroke-width="3" stroke-linecap="round" stroke-linejoin="round" stroke-miterlimit="10" opacity=".5" d="M72.2,41.2C74.6,23.3,62.6,6.4,44.6,3C26-0.6,8,11.7,4.5,30.3c-1.8,9.6,0.6,19,5.8,26.4l-5,15.1l16.1-5.2
	c3.2,1.8,6.7,3.1,10.4,3.8c5.5,1,10.9,0.7,15.9-0.8"/>
<path class="icon-white-4-1 fill-white" opacity=".15" d="M74.3,50.5c18.6-3.5,36.6,8.7,40.1,27.3c1.8,9.6-0.6,19-5.8,26.4l5.1,15.1l-16.1-5.2c-3.2,1.8-6.7,3.1-10.4,3.8
	c-18.6,3.5-36.6-8.7-40.1-27.3C43.4,72,55.7,54.1,74.3,50.5z"/>
<path class="icon-white-4-1 fill-white" d="M75.4,40.4c18.6-3.5,36.6,8.7,40.1,27.3c1.8,9.6-0.6,19-5.8,26.4l5.1,15.1L98.7,104c-3.2,1.8-6.7,3.1-10.4,3.8
	c-18.6,3.5-36.6-8.7-40.1-27.3C44.5,61.9,56.8,44,75.4,40.4z"/>
<circle class="icon-white-4-2 fill-none stroke-primary" opacity=".5" stroke-width="3" stroke-linecap="round" stroke-linejoin="round" stroke-miterlimit="10" cx="95" cy="74.5" r="2.8"/>
<circle class="icon-white-4-2 fill-none stroke-primary" opacity=".5" stroke-width="3" stroke-linecap="round" stroke-linejoin="round" stroke-miterlimit="10" cx="81.8" cy="74.5" r="2.8"/>
<circle class="icon-white-4-2 fill-none stroke-primary" stroke-width="3" stroke-linecap="round" stroke-linejoin="round" stroke-miterlimit="10" cx="68.6" cy="74.5" r="2.8"/>
</svg>
