<?xml version="1.0" encoding="utf-8"?>
<!-- Generator: Adobe Illustrator 23.0.0, SVG Export Plug-In . SVG Version: 6.00 Build 0)  -->
<svg xmlns="http://www.w3.org/2000/svg" xmlns:xlink="http://www.w3.org/1999/xlink" x="0px" y="0px"
	 viewBox="0 0 120 120" style="enable-background:new 0 0 120 120;" xml:space="preserve">
<style type="text/css">
	.icon-white-24-0{fill:none;stroke:#FFFFFF;}
	.icon-white-24-1{fill:#FFFFFF;}
	.icon-white-24-2{fill:none;stroke:#377DFF;}
</style>
<line class="icon-white-24-0 fill-none stroke-white" opacity=".5" stroke-width="3" stroke-linecap="round" stroke-linejoin="round" stroke-miterlimit="10" x1="99.8" y1="26.9" x2="106.5" y2="24.1"/>
<line class="icon-white-24-0 fill-none stroke-white" opacity=".5" stroke-width="3" stroke-linecap="round" stroke-linejoin="round" stroke-miterlimit="10" x1="47.1" y1="26.9" x2="40.4" y2="24.1"/>
<line class="icon-white-24-0 fill-none stroke-white" opacity=".5" stroke-width="3" stroke-linecap="round" stroke-linejoin="round" stroke-miterlimit="10" x1="99.8" y1="48.7" x2="106.5" y2="51.5"/>
<line class="icon-white-24-0 fill-none stroke-white" opacity=".5" stroke-width="3" stroke-linecap="round" stroke-linejoin="round" stroke-miterlimit="10" x1="47.1" y1="48.7" x2="40.4" y2="51.5"/>
<line class="icon-white-24-0 fill-none stroke-white" opacity=".5" stroke-width="3" stroke-linecap="round" stroke-linejoin="round" stroke-miterlimit="10" x1="84.4" y1="11.5" x2="87.1" y2="4.8"/>
<line class="icon-white-24-0 fill-none stroke-white" opacity=".5" stroke-width="3" stroke-linecap="round" stroke-linejoin="round" stroke-miterlimit="10" x1="59.8" y1="4.8" x2="62.5" y2="11.5"/>
<line class="icon-white-24-0 fill-none stroke-white" opacity=".5" stroke-width="3" stroke-linecap="round" stroke-linejoin="round" stroke-miterlimit="10" x1="48.2" y1="12.5" x2="53.3" y2="17.6"/>
<line class="icon-white-24-0 fill-none stroke-white" opacity=".5" stroke-width="3" stroke-linecap="round" stroke-linejoin="round" stroke-miterlimit="10" x1="98.7" y1="12.5" x2="93.6" y2="17.6"/>
<line class="icon-white-24-0 fill-none stroke-white" opacity=".5" stroke-width="3" stroke-linecap="round" stroke-linejoin="round" stroke-miterlimit="10" x1="48.2" y1="63.1" x2="53.3" y2="58"/>
<line class="icon-white-24-0 fill-none stroke-white" opacity=".5" stroke-width="3" stroke-linecap="round" stroke-linejoin="round" stroke-miterlimit="10" x1="98.7" y1="63.1" x2="93.6" y2="58"/>
<line class="icon-white-24-0 fill-none stroke-white" opacity=".5" stroke-width="3" stroke-linecap="round" stroke-linejoin="round" stroke-miterlimit="10" x1="73.5" y1="2.1" x2="73.5" y2="9.3"/>
<line class="icon-white-24-0 fill-none stroke-white" opacity=".5" stroke-width="3" stroke-linecap="round" stroke-linejoin="round" stroke-miterlimit="10" x1="102" y1="37.8" x2="109.2" y2="37.8"/>
<line class="icon-white-24-0 fill-none stroke-white" opacity=".5" stroke-width="3" stroke-linecap="round" stroke-linejoin="round" stroke-miterlimit="10" x1="37.7" y1="37.8" x2="45" y2="37.8"/>
<path class="icon-white-24-0 fill-none stroke-white" stroke-width="3" stroke-linecap="round" stroke-linejoin="round" stroke-miterlimit="10" d="M84.3,96.7l17.3-4.7c2.1-0.6,4.3,0.6,5,2.7l0,0c0.6,1.9-0.2,4.1-2.1,5L71,116.5c-3.7,1.8-8,2-11.7,0.4L40.7,109
	h-9.4"/>
<path class="icon-white-24-0 fill-none stroke-white" stroke-width="3" stroke-linecap="round" stroke-linejoin="round" stroke-miterlimit="10" d="M31.2,82.5h9.4l19.8,6.1H72c2.7,0,4.9,2.2,4.9,4.9l0,0c0,2.5-2,4.5-4.5,4.5h-12c-2.6,0-4.7,2.1-4.7,4.7l0,0"/>
<path class="icon-white-24-1 fill-white" d="M12.2,112.3h17.6c0.8,0,1.4-0.6,1.4-1.4V80.6c0-0.8-0.6-1.4-1.4-1.4H12.2c-0.8,0-1.4,0.6-1.4,1.4v30.3
	C10.8,111.6,11.4,112.3,12.2,112.3z"/>
<path class="icon-white-24-0 fill-none stroke-white" stroke-width="3" stroke-linecap="round" stroke-linejoin="round" stroke-miterlimit="10" d="M84.1,62.6v-7.8c5.7-3.6,9.5-9.8,9.5-17c0-11.1-9-20.1-20.1-20.1s-20.1,9-20.1,20.1c0,7.2,3.8,13.5,9.5,17v7.8"
	/>
<line class="icon-white-24-0 fill-none stroke-white" stroke-width="3" stroke-linecap="round" stroke-linejoin="round" stroke-miterlimit="10" x1="73.5" y1="55.4" x2="73.5" y2="69.7"/>
<line class="icon-white-24-0 fill-none stroke-white" stroke-width="3" stroke-linecap="round" stroke-linejoin="round" stroke-miterlimit="10" x1="84.1" y1="69.7" x2="62.8" y2="69.7"/>
<line class="icon-white-24-0 fill-none stroke-white" stroke-width="3" stroke-linecap="round" stroke-linejoin="round" stroke-miterlimit="10" x1="68.4" y1="77.9" x2="78.5" y2="77.9"/>
<line class="icon-white-24-2 fill-none stroke-primary" stroke-width="3" stroke-linecap="round" stroke-linejoin="round" stroke-miterlimit="10" x1="21.8" y1="85.7" x2="21.8" y2="88.8"/>
<circle class="icon-white-24-1 fill-white" opacity=".15" cx="76.8" cy="40.8" r="10.6"/>
<circle class="icon-white-24-1 fill-white" cx="73.2" cy="36.7" r="10.6"/>
<line class="icon-white-24-2 fill-none stroke-primary" stroke-width="3" stroke-linecap="round" stroke-linejoin="round" stroke-miterlimit="10" x1="73.2" y1="41.7" x2="73.2" y2="39.7"/>
<line class="icon-white-24-2 fill-none stroke-primary" stroke-width="3" stroke-linecap="round" stroke-linejoin="round" stroke-miterlimit="10" x1="73.2" y1="34.1" x2="73.2" y2="34.1"/>
</svg>
