<?xml version="1.0" encoding="utf-8"?>
<!-- Generator: Adobe Illustrator 23.0.0, SVG Export Plug-In . SVG Version: 6.00 Build 0)  -->
<svg xmlns="http://www.w3.org/2000/svg" xmlns:xlink="http://www.w3.org/1999/xlink" x="0px" y="0px"
	 viewBox="0 0 120 120" style="enable-background:new 0 0 120 120;" xml:space="preserve">
<style type="text/css">
	.icon-38-0{fill:none;stroke:#BDC5D1;}
	.icon-38-1{fill:none;stroke:#377DFF;}
	.icon-38-2{fill:#BDC5D1;}
	.icon-38-3{fill:#377DFF;}
	.icon-38-4{fill:none;stroke:#FFFFFF;}
</style>
<path class="icon-38-0 fill-none stroke-gray-400" stroke-width="3" stroke-linecap="round" stroke-linejoin="round" stroke-miterlimit="10" d="M14.3,74.8V25c0-2.3,1.9-4.2,4.2-4.2h84.3c2.3,0,4.2,1.9,4.2,4.2v49.9"/>
<polyline class="icon-38-0 fill-none stroke-gray-400" stroke-width="3" stroke-linecap="round" stroke-linejoin="round" stroke-miterlimit="10" points="20.7,75.1 20.7,27.7 100.7,27.7 100.7,59 "/>
<path class="icon-38-0 fill-none stroke-gray-400" stroke-width="3" stroke-linecap="round" stroke-linejoin="round" stroke-miterlimit="10" d="M103.3,83.1h4.3c5.3,0,10.8-8,10.8-8h-15.2"/>
<path class="icon-38-0 fill-none stroke-gray-400" stroke-width="3" stroke-linecap="round" stroke-linejoin="round" stroke-miterlimit="10" d="M61.1,77.5H47.5v-2.4h-46c0,0,6.5,8,12.2,8h48"/>
<path class="icon-38-1 fill-none stroke-primary" stroke-width="3" stroke-linecap="round" stroke-linejoin="round" stroke-miterlimit="10" d="M75.1,63.6v-6.2c0-4.1,3.3-7.4,7.4-7.4l0,0c4.1,0,7.4,3.3,7.4,7.4v6.2"/>
<path class="icon-38-1 fill-none stroke-primary" stroke-width="3" stroke-linecap="round" stroke-linejoin="round" stroke-miterlimit="10" d="M69.8,63.6v-6.5c0-7,5.7-12.7,12.7-12.7l0,0c7,0,12.7,5.7,12.7,12.7v6.5"/>
<path class="icon-38-1 fill-none stroke-primary" stroke-width="3" stroke-linecap="round" stroke-linejoin="round" stroke-miterlimit="10" d="M99.2,99.3H65.8c-2.3,0-4.2-1.9-4.2-4.2V67.8c0-2.3,1.9-4.2,4.2-4.2h33.4c2.3,0,4.2,1.9,4.2,4.2v27.3
	C103.3,97.4,101.5,99.3,99.2,99.3z"/>
<circle class="icon-38-2 fill-gray-400" opacity=".5" cx="86.9" cy="85" r="11.8"/>
<circle class="icon-38-3 fill-primary" cx="82.5" cy="81.5" r="11.8"/>
<polyline class="icon-38-4 fill-none stroke-white" opacity=".15" stroke-width="3" stroke-linecap="round" stroke-linejoin="round" stroke-miterlimit="10" points="79.5,80.8 84.3,85.7 97.8,72.2 "/>
<polyline class="icon-38-4 fill-none stroke-white" stroke-width="3" stroke-linecap="round" stroke-linejoin="round" stroke-miterlimit="10" points="77.7,80.1 82.5,85 96,71.5 "/>
<path class="icon-38-0 fill-none stroke-gray-400" stroke-width="3" stroke-linecap="round" stroke-linejoin="round" stroke-miterlimit="10" d="M47.6,39"/>
</svg>
