<?xml version="1.0" encoding="utf-8"?>
<!-- Generator: Adobe Illustrator 22.1.0, SVG Export Plug-In . SVG Version: 6.00 Build 0)  -->
<svg xmlns="http://www.w3.org/2000/svg" xmlns:xlink="http://www.w3.org/1999/xlink" x="0px" y="0px"
	 viewBox="0 0 1920 1070.2" style="enable-background:new 0 0 1920 1070.2;" xml:space="preserve">
<style type="text/css">
	.error-404-0{fill:#F0F1F3;}
	.error-404-1{fill:#00C671;}
	.error-404-2{opacity:0.2;}
	.error-404-3{fill:#191C3C;}
	.error-404-4{opacity:8.000000e-02;fill:#F5F7F9;}
	.error-404-5{fill:#1E2022;}
	.error-404-6{fill:#D4DBE3;}
	.error-404-7{fill:#00C9A7;}
	.error-404-8{fill:none;stroke:#191C3C;stroke-width:1.5917;stroke-miterlimit:10;}
	.error-404-9{fill:#7783A0;}
	.error-404-10{fill:#3A3C4E;}
	.error-404-11{fill:#FEC55E;}
	.error-404-12{fill:#DB3F32;}
	.error-404-13{opacity:0.3;fill:#191C3C;}
	.error-404-14{fill:#DE4437;}
	.error-404-15{fill:url(#error404_1_);}
	.error-404-16{fill:url(#error404_2_);}
	.error-404-17{fill:url(#error404_3_);}
	.error-404-18{fill:#FFFFFF;}
	.error-404-19{opacity:0.3;}
	.error-404-20{fill:#41446B;}
	.error-404-21{opacity:0.1;fill:#191C3C;}
	.error-404-22{fill:#D8ED96;}
	.error-404-23{fill:#D4DEE8;}
	.error-404-24{fill:url(#error404_4_);}
	.error-404-25{fill:#D1D3DB;}
	.error-404-26{fill:#377DFF;}
	.error-404-27{fill:#2D1582;}
	.error-404-28{fill:#474963;}
	.error-404-29{fill:#4D5068;}
	.error-404-30{opacity:0.17;fill:#191C3C;}
	.error-404-31{opacity:0.11;}
	.error-404-32{fill:#DAE1E9;}
	.error-404-33{fill:none;stroke:#DAE1E9;stroke-width:1.92;stroke-miterlimit:10;}
	.error-404-34{fill:none;stroke:#DAE1E9;stroke-width:5.76;stroke-miterlimit:10;}
	.error-404-35{fill:#E4EDF7;}
	.error-404-36{opacity:0.3;fill:#DAE1E9;}
	.error-404-37{fill:none;stroke:#DAE1E9;stroke-width:1.8812;stroke-miterlimit:10;}
	.error-404-38{opacity:0.2;fill:#AAB2BA;}
	.error-404-39{fill:#FED17E;}
	.error-404-40{fill:#E0A546;}
	.error-404-41{fill:#19A0FF;}
	.error-404-42{fill:#DD9C3E;}
	.error-404-43{fill:#BF9447;}
	.error-404-44{opacity:0.1;fill:#3A3C4E;}
	.error-404-45{opacity:0.2;fill:#3A3C4E;}
</style>
<rect class="error-404-0" width="1920" height="1070.2"/>
<g>
	<g>
		<path class="error-404-1" d="M1574.8,471.2L1574.8,471.2C1574.8,471.2,1574.4,471.6,1574.8,471.2z M1579.8,466.6c-5-5-11.1-9.6-18-11.5
			s-15-1.2-20.7,2.7c8.8,9.2,21.5,14.2,33.8,13.4c1.9,0,7.3,0.4,8.8-0.8c0.4-0.4-0.8-1.5-1.9-2.7
			C1581.3,467.7,1580.2,466.9,1579.8,466.6z"/>
		<g class="error-404-2">
			<path class="error-404-3" d="M1581.7,468.1c-0.4-0.4-1.5-1.2-1.9-1.5c-5-5-11.1-9.6-18-11.5c-3.5-0.8-6.9-1.2-10.4-0.8
				c3.8,0,8.1,1.2,11.5,3.1c6.1,3.1,11.1,8.4,15.4,14.2c1.9,0,4.6-0.4,5.4-0.8C1584,470.4,1582.8,468.9,1581.7,468.1z"/>
		</g>
		<path class="error-404-1" d="M1585.5,455.8c1.2,3.1,2.3,7.3,1.2,10c-0.8,2.3-2.7,5.4-5,5c-1.9-2.3-5.8-7.3-8.1-9.2c-1.9-1.5-5-3.5-6.9-5
			c-5-4.2-6.5-10.4-9.2-16.1c5,0.4,9.6,1.5,14.6,2.7c3.1,0.8,6.1,1.9,8.4,4.2C1583.2,449.3,1584.8,452.4,1585.5,455.8z"/>
		<path class="error-404-4" d="M1575.2,461.6c-1.5-1.9-4.6-4.2-6.1-6.1c-3.5-4.2-4.6-9.2-5.8-14.6c-1.9-0.4-3.8-0.8-6.1-0.8
			c2.7,6.1,4.6,11.9,9.2,16.1c1.9,1.9,5,3.5,6.9,5c1.2,0.8,2.7,2.7,3.8,4.2C1577.1,463.9,1575.9,462.3,1575.2,461.6z"/>
		<path class="error-404-1" d="M1588.2,440.1c1.5,4.6,1.5,9.2,1.5,14.2c0,1.9,0.4,5,0,6.5s-1.2,3.1-2.3,4.2c-0.8,1.2-1.5-0.4-2.3-1.2
			c-0.8-1.2-1.9-2.7-1.2-2.3c-0.8-2.7-1.2-4.6-1.9-7.3c-0.8-2.3-1.5-4.2-1.9-6.5c-0.8-5.4,0-11.1,1.2-16.5
			C1584.4,433.5,1586.7,436.6,1588.2,440.1z"/>
		<g>
			<path class="error-404-5" d="M1544.4,458.5c6.1-0.4,12.3,0,18.4,1.5c5.8,1.5,10.8,4.2,15.7,8.1c0.4,0.4,0.4-0.4,0.4-0.4
				c-4.6-3.5-10-6.1-15.7-7.7C1556.7,458.1,1550.6,458.1,1544.4,458.5L1544.4,458.5L1544.4,458.5z"/>
		</g>
		<g>
			<path class="error-404-5" d="M1559.4,442c5,2.3,9.6,5.4,13.4,9.2c4.2,4.2,7.3,9.2,10.4,14.2h0.4C1578.2,455,1570.6,446.6,1559.4,442
				L1559.4,442L1559.4,442z"/>
		</g>
		<g>
			<path class="error-404-5" d="M1581.7,433.2c3.5,9.6,7.3,19.2,5,29.6c0,0.4,0.4,0.4,0.4,0C1589,452.7,1585.9,442.4,1581.7,433.2
				L1581.7,433.2L1581.7,433.2z"/>
		</g>
		<g>
			<path class="error-404-5" d="M1549.1,462.3c0.8-0.8,1.2-1.5,1.9-1.9c0.8-0.8,1.5-1.2,2.3-1.5l0,0C1551.7,459.3,1549.8,460.4,1549.1,462.3
				L1549.1,462.3L1549.1,462.3z"/>
		</g>
		<g>
			<path class="error-404-5" d="M1554,464.6c1.9-3.1,4.2-4.2,7.7-4.6c0.4,0,0.4-0.4,0-0.4C1558.7,460,1555.2,461.2,1554,464.6L1554,464.6
				L1554,464.6z"/>
		</g>
		<g>
			<path class="error-404-5" d="M1560.2,465c1.9-1.5,3.8-3.8,6.9-3.1c0,0,0.4-0.4,0-0.4C1564.4,460.8,1562.1,463.1,1560.2,465L1560.2,465
				L1560.2,465z"/>
		</g>
		<g>
			<path class="error-404-5" d="M1566.3,468.5c1.9-2.3,4.6-4.6,7.7-3.1c0.4,0,0.4-0.4,0-0.4C1571.3,463.5,1567.9,465.4,1566.3,468.5
				L1566.3,468.5L1566.3,468.5z"/>
		</g>
		<g>
			<path class="error-404-5" d="M1552.1,454.7c0.4,1.9,2.3,3.1,3.8,4.2c0,0,0.4,0,0-0.4C1554.4,457.7,1552.9,456.6,1552.1,454.7
				L1552.1,454.7L1552.1,454.7z"/>
		</g>
		<g>
			<path class="error-404-5" d="M1558.7,455c0.8,1.9,1.9,3.5,3.5,5c0,0,0.4,0,0.4-0.4C1561,458.5,1559.8,457,1558.7,455L1558.7,455
				L1558.7,455z"/>
		</g>
		<g>
			<path class="error-404-5" d="M1564.4,457.3c0.4,0.8,0.8,1.9,1.5,2.7c0.4,0.8,1.2,1.5,1.9,1.9c0,0,0,0,0.4,0l0,0v-0.4l0,0c0,0,0,0-0.4,0
				l0,0c0,0,0,0,0,0.4c0.4,0-0.8-1.2-0.8-1.2c-0.4-0.4-0.4-0.8-0.8-0.8C1565.6,458.9,1564.8,458.1,1564.4,457.3L1564.4,457.3
				L1564.4,457.3z"/>
		</g>
		<g>
			<path class="error-404-5" d="M1569,459.6c1.2,1.9,3.1,3.8,5,5.4c0.4,0.4,0.4,0,0.4-0.4C1572.5,463.1,1570.9,461.2,1569,459.6L1569,459.6
				L1569,459.6z"/>
		</g>
		<g>
			<path class="error-404-5" d="M1562.5,448.5c3.5-0.4,6.5,0,9.6,1.9c0.4,0,0.4-0.4,0.4-0.4C1569.4,448.1,1565.6,447.4,1562.5,448.5
				L1562.5,448.5L1562.5,448.5z"/>
		</g>
		<g>
			<path class="error-404-5" d="M1567.9,454.3c1.5,0,3.5,0,5,0.4s3.1,0.8,4.2,1.5c0.4,0,0.4-0.4,0-0.4
				C1574.4,454.7,1570.9,453.5,1567.9,454.3L1567.9,454.3L1567.9,454.3z"/>
		</g>
		<g>
			<path class="error-404-5" d="M1574.4,459.3c1.2,0,2.3,0.4,3.5,0.4c1.2,0.4,2.3,0.8,3.1,1.9c0,0,0.4,0,0.4-0.4c-0.8-0.8-1.5-1.5-3.1-1.9
				C1577.1,459.3,1575.6,459.3,1574.4,459.3L1574.4,459.3L1574.4,459.3z"/>
		</g>
		<g>
			<path class="error-404-5" d="M1569.8,444.7c0,1.2,0.8,2.7,1.2,3.8c0.4,0.8,0.8,1.9,1.5,2.3l0,0C1570.9,448.9,1570.9,446.2,1569.8,444.7
				C1569.8,444.3,1569.8,444.3,1569.8,444.7L1569.8,444.7z"/>
		</g>
		<g>
			<path class="error-404-5" d="M1574.8,446.2c0.4,3.5,1.5,6.9,2.7,10h0.4C1576.3,452.7,1575.9,449.3,1574.8,446.2
				C1574.8,445.8,1574.8,445.8,1574.8,446.2L1574.8,446.2z"/>
		</g>
		<g>
			<path class="error-404-5" d="M1580.5,453.5c0,3.1,0.8,6.1,1.2,8.8c0,0.4,0.4,0,0.4,0C1581.3,459.3,1580.9,456.2,1580.5,453.5
				C1580.5,453.1,1580.5,453.1,1580.5,453.5L1580.5,453.5z"/>
		</g>
		<g>
			<path class="error-404-5" d="M1580.5,438.9c1.9,2.3,3.8,5,5,7.7c0,0.4,0.4,0,0.4-0.4C1584.8,443.5,1582.8,440.8,1580.5,438.9
				C1580.5,438.5,1580.5,438.5,1580.5,438.9L1580.5,438.9z"/>
		</g>
		<g>
			<path class="error-404-5" d="M1587.5,439.3c-1.2,2.3-1.2,5-1.2,7.7c0,0.4,0.4,0.4,0.4,0c0-1.5,0.4-2.7,0.4-4.2
				C1587.1,441.6,1587.5,440.4,1587.5,439.3L1587.5,439.3L1587.5,439.3z"/>
		</g>
		<g>
			<path class="error-404-5" d="M1583.6,447.7c1.5,2.3,2.7,5,3.5,7.7l0,0C1587.1,452.4,1585.5,449.7,1583.6,447.7
				C1583.6,447.4,1583.6,447.7,1583.6,447.7L1583.6,447.7z"/>
		</g>
		<g>
			<path class="error-404-5" d="M1587.5,455.4c0.8-1.9,1.2-3.5,2.3-5c0,0,0-0.4-0.4,0C1588.6,451.6,1587.5,453.5,1587.5,455.4L1587.5,455.4
				L1587.5,455.4z"/>
		</g>
	</g>
</g>
<path class="error-404-6" d="M0,878.6c0,0,247.7-143.2,566.4-66.4s489.6-78.7,604.8-145.9s493.4-357.9,748.8-175.1v578.7H0V878.6z"/>
<g>
	<path class="error-404-7" d="M453.5,689.3L453.5,689.3C454.3,689.7,453.5,689.3,453.5,689.3z M448.5,686.6c-0.8,0.8-1.9,1.9-1.5,1.9
		c1.2,0.8,5,0.8,6.5,0.4c9.6,0.4,19.2-3.5,25.7-10.4c-4.6-3.1-10.4-3.5-15.7-1.9c-5.4,1.5-10,5-13.8,8.8
		C449.7,685.8,448.9,686.6,448.5,686.6z"/>
	<g class="error-404-2">
		<path class="error-404-3" d="M448.5,686.6c0.4-0.4,1.2-0.8,1.5-1.2c3.8-3.8,8.4-7.3,13.8-8.8c2.7-0.8,5.4-1.2,7.7-0.8
			c-3.1,0-6.1,0.8-8.8,2.3c-4.6,2.3-8.4,6.5-11.5,10.8c-1.5,0-3.5,0-4.2-0.4C446.6,688.5,447.7,687.7,448.5,686.6z"/>
	</g>
	<path class="error-404-7" d="M449.3,670.8c1.9-1.5,4.2-2.3,6.5-3.1c3.5-1.2,7.3-1.9,11.1-1.9c-1.9,4.6-3.5,8.8-6.9,12.3
		c-1.5,1.2-3.8,2.7-5.4,3.8c-1.9,1.5-4.6,5.4-6.1,6.9c-1.5,0.4-3.1-1.9-3.8-3.8c-0.8-2.3,0-5.4,0.8-7.7
		C446.2,675.1,447.4,672.8,449.3,670.8z"/>
	<path class="error-404-4" d="M453.5,682c1.2-1.5,3.5-3.1,4.6-4.6c2.7-3.1,3.5-6.9,4.2-10.8c1.5-0.4,3.1-0.4,4.6-0.8
		c-1.9,4.6-3.5,8.8-6.9,12.3c-1.5,1.2-3.8,2.7-5.4,3.8c-0.8,0.8-1.9,1.9-3.1,3.1C452,683.9,452.7,682.4,453.5,682z"/>
	<path class="error-404-7" d="M448.9,658.6c0.8,4.2,1.5,8.4,0.8,12.7c-0.4,1.5-0.8,3.5-1.5,5c-0.8,2.3-0.8,3.5-1.5,5.4
		c0.4-0.4-0.4,1.2-0.8,1.9c-0.4,0.8-1.2,1.9-1.9,0.8c-0.8-0.8-1.5-1.9-1.5-3.1c-0.4-1.2,0-3.5,0-5c0-3.5,0-7.3,1.2-10.8
		C444.7,662.8,446.6,660.5,448.9,658.6z"/>
	<g>
		<path class="error-404-3" d="M476.5,679.7c-4.6,0-9.2,0-13.8,1.2c-4.2,1.2-8.4,3.5-11.9,6.1c-0.4,0-0.4,0,0-0.4c3.5-2.7,7.7-4.6,11.9-6.1
			C467.3,679.3,471.9,679.3,476.5,679.7C476.9,679.7,476.9,679.7,476.5,679.7L476.5,679.7z"/>
	</g>
	<g>
		<path class="error-404-3" d="M465.4,667c-3.8,1.9-7.3,4.2-10.4,7.3s-5.4,6.9-8.1,10.8c0,0-0.4,0,0,0C451.2,677,457,670.5,465.4,667
			L465.4,667L465.4,667z"/>
	</g>
	<g>
		<path class="error-404-3" d="M448.5,660.5c-2.3,7.3-5.4,14.6-3.8,22.3c0,0-0.4,0.4-0.4,0C443.1,675.5,445.1,667,448.5,660.5L448.5,660.5
			L448.5,660.5z"/>
	</g>
	<g>
		<path class="error-404-3" d="M473.5,682.4c-0.4-0.4-1.2-1.2-1.5-1.5c-0.8-0.4-1.2-0.8-1.9-1.2l0,0C471.2,680.1,472.7,681.2,473.5,682.4
			L473.5,682.4L473.5,682.4z"/>
	</g>
	<g>
		<path class="error-404-3" d="M469.6,684.3c-1.2-2.3-3.1-3.1-5.8-3.5c-0.4,0,0-0.4,0-0.4C466.2,680.8,468.5,681.6,469.6,684.3L469.6,684.3
			L469.6,684.3z"/>
	</g>
	<g>
		<path class="error-404-3" d="M464.6,684.7c-1.5-1.2-3.1-3.1-5.4-2.3l0,0C461.6,681.2,463.5,683.1,464.6,684.7
			C465,684.7,464.6,684.7,464.6,684.7L464.6,684.7z"/>
	</g>
	<g>
		<path class="error-404-3" d="M460,687c-1.5-1.9-3.5-3.5-5.8-2.3c0,0-0.4,0,0-0.4C456.6,683.5,458.9,685.1,460,687L460,687L460,687z"/>
	</g>
	<g>
		<path class="error-404-3" d="M470.8,676.6c-0.4,1.5-1.5,2.3-2.7,3.1l0,0C469.2,678.9,470.4,678.1,470.8,676.6L470.8,676.6L470.8,676.6z"/>
	</g>
	<g>
		<path class="error-404-3" d="M465.8,677c-0.4,1.5-1.5,2.7-2.7,3.8c0,0-0.4,0,0,0C464.3,679.7,465,678.5,465.8,677L465.8,677L465.8,677z"/>
	</g>
	<g>
		<path class="error-404-3" d="M461.6,678.5c-0.4,0.8-0.8,1.2-1.2,1.9c-0.4,0.4-0.8,1.2-1.5,1.5l0,0l0,0c0,0,0,0,0-0.4l0,0l0,0l0,0l0,0
			c0,0,0.8-0.8,0.4-0.8c0.4-0.4,0.4-0.4,0.8-0.8C461.2,680.1,461.6,679.3,461.6,678.5L461.6,678.5L461.6,678.5z"/>
	</g>
	<g>
		<path class="error-404-3" d="M458.1,680.4c-0.8,1.5-2.3,3.1-3.8,4.2c0,0-0.4,0-0.4-0.4C455.4,683.1,457,682,458.1,680.4L458.1,680.4
			L458.1,680.4z"/>
	</g>
	<g>
		<path class="error-404-3" d="M463.1,672c-2.7,0-5,0-7.3,1.5c0,0-0.4,0,0-0.4C457.7,672,460.8,671.2,463.1,672L463.1,672L463.1,672z"/>
	</g>
	<g>
		<path class="error-404-3" d="M458.9,676.2c-1.2,0-2.3,0-3.8,0.4c-1.2,0.4-2.3,0.8-3.5,1.2c0,0-0.4,0,0-0.4
			C454.3,676.6,456.6,675.8,458.9,676.2L458.9,676.2L458.9,676.2z"/>
	</g>
	<g>
		<path class="error-404-3" d="M453.9,680.4c-0.8,0-1.9,0-2.7,0.4c-1.2,0.4-1.5,0.8-2.3,1.5c0,0-0.4,0,0,0c0.8-0.8,1.2-1.2,2.3-1.5
			C452.4,680.4,453.1,680.1,453.9,680.4C454.3,680.1,454.3,680.4,453.9,680.4L453.9,680.4z"/>
	</g>
	<g>
		<path class="error-404-3" d="M457.7,668.9c0,0.8-0.4,1.9-0.8,2.7c-0.4,0.4-0.4,1.5-1.2,1.5l0,0C456.6,672,456.6,670.1,457.7,668.9
			L457.7,668.9L457.7,668.9z"/>
	</g>
	<g>
		<path class="error-404-3" d="M453.5,670.1c-0.4,2.7-1.2,5.4-1.9,7.7h-0.4C452.4,675.5,453.1,672.8,453.5,670.1
			C453.5,670.1,453.9,670.1,453.5,670.1L453.5,670.1z"/>
	</g>
	<g>
		<path class="error-404-3" d="M449.3,675.8c0,2.3-0.8,4.6-0.8,6.5h-0.4C448.5,680.1,448.9,677.8,449.3,675.8
			C449.3,675.5,449.3,675.5,449.3,675.8L449.3,675.8z"/>
	</g>
	<g>
		<path class="error-404-3" d="M449.3,664.7c-1.5,1.9-2.7,3.8-3.8,5.8h-0.4C446.2,668.2,447.4,666.2,449.3,664.7
			C449.3,664.3,449.3,664.3,449.3,664.7L449.3,664.7z"/>
	</g>
	<g>
		<path class="error-404-3" d="M444.3,665.1c0.8,1.5,0.8,3.8,1.2,5.8h-0.4c0-1.2,0-2.3-0.4-3.1C444.3,666.6,444.3,665.9,444.3,665.1
			L444.3,665.1L444.3,665.1z"/>
	</g>
	<g>
		<path class="error-404-3" d="M447,671.2c-1.2,1.9-1.9,3.8-2.7,5.8l0,0C444.7,675.1,445.8,672.8,447,671.2L447,671.2L447,671.2z"/>
	</g>
	<g>
		<path class="error-404-3" d="M444.3,677c-0.4-1.2-0.8-2.7-1.5-3.8l0,0C443.5,674.3,443.9,675.8,444.3,677
			C444.3,677.4,444.3,677.4,444.3,677L444.3,677z"/>
	</g>
</g>
<g>
	<path class="error-404-7" d="M432.4,689.3L432.4,689.3C432.4,689.3,432,689.7,432.4,689.3z M436.2,685.4c-3.8-4.2-8.8-7.7-14.2-9.2
		c-5.4-1.5-11.9-1.2-16.5,2.3c6.9,7.3,16.9,11.1,26.9,10.8c1.5,0,5.8,0,6.9-0.4c0.4-0.4-0.8-1.2-1.5-2.3
		C437.8,686.2,436.6,685.8,436.2,685.4z"/>
	<g class="error-404-2">
		<path class="error-404-3" d="M437.8,686.6c-0.4-0.4-1.2-0.8-1.5-1.2c-3.8-4.2-8.8-7.7-14.2-9.2c-2.7-0.8-5.4-1.2-8.1-0.8
			c3.1,0,6.1,0.8,9.2,2.3c5,2.7,8.8,6.5,11.9,11.5c1.5,0,3.5,0,4.2-0.8C439.7,688.5,438.5,687.4,437.8,686.6z"/>
	</g>
	<path class="error-404-7" d="M441.2,677c0.8,2.3,1.9,5.8,0.8,8.1c-0.8,1.9-2.3,4.2-3.8,3.8c-1.5-1.9-4.6-5.8-6.5-7.3
		c-1.5-1.2-3.8-2.7-5.4-3.8c-3.8-3.5-5.4-8.1-7.3-12.7c3.8,0.4,7.7,1.2,11.5,2.3c2.3,0.8,5,1.5,6.9,3.5
		C438.9,672,440.1,674.3,441.2,677z"/>
	<path class="error-404-4" d="M432.8,681.6c-1.2-1.5-3.5-3.5-4.6-5c-2.7-3.5-3.5-7.3-4.6-11.5c-1.5-0.4-3.1-0.4-4.6-0.8
		c2.3,4.6,3.5,9.2,7.3,12.7c1.5,1.5,3.8,2.7,5.4,3.8c0.8,0.8,1.9,1.9,3.1,3.5C434.3,683.5,433.5,682.4,432.8,681.6z"/>
	<path class="error-404-7" d="M443.1,664.7c1.2,3.5,1.2,7.3,1.2,11.1c0,1.5,0.4,3.8,0,5.4c-0.4,1.2-1.2,2.3-1.9,3.1c-0.8,0.8-1.2,0-1.9-1.2
		c-0.4-0.8-1.5-2.3-0.8-1.9c-0.8-2.3-1.2-3.5-1.5-5.8c-0.8-1.5-1.2-3.5-1.5-5c-0.8-4.2,0-8.8,0.8-13.1
		C440.1,659.3,442,661.6,443.1,664.7z"/>
	<g>
		<path class="error-404-3" d="M408.6,679.3c5,0,9.6,0,14.6,1.2c4.6,1.2,8.8,3.5,12.3,6.1c0.4,0,0.4,0,0.4-0.4c-3.8-2.7-8.1-5-12.3-6.1
			C418.2,678.9,413.6,678.9,408.6,679.3L408.6,679.3L408.6,679.3z"/>
	</g>
	<g>
		<path class="error-404-3" d="M420.5,666.2c3.8,1.9,7.7,4.2,10.8,7.3c3.5,3.5,5.8,7.3,8.1,11.1c0,0,0.4,0,0,0
			C435.1,676.6,428.9,669.7,420.5,666.2C420.5,665.9,420.5,666.2,420.5,666.2L420.5,666.2z"/>
	</g>
	<g>
		<path class="error-404-3" d="M437.8,659.3c2.7,7.7,5.8,15,3.8,23.4c0,0,0.4,0.4,0.4,0C443.5,674.7,441.2,666.2,437.8,659.3
			C437.8,658.9,437.8,659.3,437.8,659.3L437.8,659.3z"/>
	</g>
	<g>
		<path class="error-404-3" d="M412,682c0.4-0.4,1.2-1.2,1.5-1.5c0.8-0.4,1.2-0.8,1.9-1.2l0,0C414.3,679.7,412.8,680.8,412,682L412,682
			L412,682z"/>
	</g>
	<g>
		<path class="error-404-3" d="M415.9,683.9c1.5-2.3,3.5-3.1,6.1-3.5c0.4,0,0-0.4,0-0.4C419.7,680.4,417,681.2,415.9,683.9L415.9,683.9
			L415.9,683.9z"/>
	</g>
	<g>
		<path class="error-404-3" d="M420.9,684.3c1.5-1.2,3.1-3.1,5.4-2.7l0,0C424.3,681.2,422.4,682.8,420.9,684.3L420.9,684.3L420.9,684.3z"/>
	</g>
	<g>
		<path class="error-404-3" d="M425.9,687c1.5-1.9,3.5-3.5,6.1-2.3c0,0,0.4,0,0-0.4C429.7,683.1,427,684.7,425.9,687L425.9,687L425.9,687z"
			/>
	</g>
	<g>
		<path class="error-404-3" d="M414.3,676.2c0.4,1.5,1.5,2.7,3.1,3.5l0,0C416.3,678.5,415.1,677.8,414.3,676.2
			C414.7,676.2,414.3,676.2,414.3,676.2L414.3,676.2z"/>
	</g>
	<g>
		<path class="error-404-3" d="M419.7,676.6c0.8,1.5,1.5,2.7,2.7,3.8c0,0,0.4,0,0,0C421.2,679.3,420.5,677.8,419.7,676.6L419.7,676.6
			L419.7,676.6z"/>
	</g>
	<g>
		<path class="error-404-3" d="M424.3,678.1c0.4,0.8,0.8,1.5,1.2,1.9c0.4,0.4,0.8,1.2,1.5,1.5l0,0l0,0c0,0,0,0,0-0.4l0,0l0,0l0,0l0,0
			c0.4,0-0.8-0.8-0.8-0.8c-0.4-0.4-0.4-0.4-0.8-0.8C425.1,679.3,424.7,678.9,424.3,678.1L424.3,678.1L424.3,678.1z"/>
	</g>
	<g>
		<path class="error-404-3" d="M427.8,680.1c0.8,1.5,2.3,3.1,3.8,4.2c0,0,0.4,0,0.4-0.4C430.5,682.8,429.3,681.6,427.8,680.1L427.8,680.1
			L427.8,680.1z"/>
	</g>
	<g>
		<path class="error-404-3" d="M422.8,671.2c2.7,0,5,0,7.7,1.5c0,0,0.4,0,0-0.4C428.2,671.2,425.1,670.1,422.8,671.2L422.8,671.2
			L422.8,671.2z"/>
	</g>
	<g>
		<path class="error-404-3" d="M427,675.8c1.2,0,2.7,0,3.8,0.4c1.2,0.4,2.3,0.8,3.5,1.2c0,0,0.4,0,0-0.4C432,676.2,429.3,675.1,427,675.8
			L427,675.8L427,675.8z"/>
	</g>
	<g>
		<path class="error-404-3" d="M432,680.1c0.8,0,1.9,0,2.7,0.4c1.2,0.4,1.9,0.8,2.3,1.5c0,0,0.4,0,0.4-0.4c-0.8-0.8-1.2-1.2-2.3-1.5
			C434.3,679.7,433.2,679.7,432,680.1C432,679.7,432,680.1,432,680.1L432,680.1z"/>
	</g>
	<g>
		<path class="error-404-3" d="M428.2,668.2c0,1.2,0.8,1.9,0.8,3.1c0.4,0.8,0.4,1.5,1.2,1.5l0,0C429.3,671.6,429.3,669.3,428.2,668.2
			C428.5,668.2,428.2,668.2,428.2,668.2L428.2,668.2z"/>
	</g>
	<g>
		<path class="error-404-3" d="M432.4,669.3c0.4,2.7,1.2,5.4,1.9,8.1h0.4C433.9,674.7,433.2,672,432.4,669.3L432.4,669.3L432.4,669.3z"/>
	</g>
	<g>
		<path class="error-404-3" d="M437,675.1c0,2.3,0.8,4.6,0.8,6.9h0.4C437.8,679.7,437.4,677.4,437,675.1L437,675.1L437,675.1z"/>
	</g>
	<g>
		<path class="error-404-3" d="M437,663.6c1.5,1.9,3.1,3.8,3.8,6.1h0.4C440.4,667.4,438.9,665.1,437,663.6C437,663.2,437,663.6,437,663.6
			L437,663.6z"/>
	</g>
	<g>
		<path class="error-404-3" d="M442.4,663.9c-0.8,1.9-0.8,3.8-1.2,5.8h0.4c0-1.2,0-2.3,0.4-3.5C442,665.9,442.4,664.7,442.4,663.9
			L442.4,663.9L442.4,663.9z"/>
	</g>
	<g>
		<path class="error-404-3" d="M439.3,670.5c1.2,1.9,1.9,3.8,2.7,5.8l0,0C442,674.3,440.8,672,439.3,670.5L439.3,670.5L439.3,670.5z"/>
	</g>
	<g>
		<path class="error-404-3" d="M442.4,676.6c0.4-1.5,0.8-2.7,1.9-3.8c0,0,0-0.4,0,0C443.1,673.9,442.4,675.1,442.4,676.6L442.4,676.6
			L442.4,676.6z"/>
	</g>
</g>
<g>
	<g>
		<path class="error-404-8" d="M1778.7,603.3l8.8-8.8c0.8-0.8,1.5-0.8,2.3,0l4.6,4.6c3.8,3.8,5.4,9.6,4.2,15l-2.3,8.4"/>
		<polygon class="error-404-9" points="1742.2,634.4 1741.4,641.3 1734.9,642.4 1736.4,630.9 		"/>
		<polygon class="error-404-9" points="1785.2,638.6 1783.7,648.2 1741.1,641.3 1742.2,634.4 		"/>
		<polygon class="error-404-10" points="1741.4,639 1741.1,641.3 1783.7,648.2 1784.1,646.3 		"/>

			<rect x="1763" y="604.9" transform="matrix(0.7105 -0.7037 0.7037 0.7105 74.4496 1433.7194)" class="error-404-9" width="33.4" height="43"/>

			<rect x="1753.8" y="616.3" transform="matrix(0.7105 -0.7037 0.7037 0.7105 78.4287 1424.4697)" class="error-404-3" width="33.4" height="1.2"/>

			<rect x="1756.5" y="619.1" transform="matrix(0.7105 -0.7037 0.7037 0.7105 77.2781 1427.217)" class="error-404-3" width="33.4" height="1.2"/>
	</g>
	<g>

			<rect x="1865.9" y="685" transform="matrix(0.8742 -0.4856 0.4856 0.8742 -101.9069 996.2801)" class="error-404-11" width="11.5" height="19.6"/>
		<polygon class="error-404-12" points="1839.7,592.1 1839.7,656.6 1864.7,695 1875.8,689.7 1855.9,645.5 1861.2,599.8 		"/>
		<rect x="1832.1" y="690.4" class="error-404-11" width="12.7" height="19.6"/>
		<polygon class="error-404-13" points="1852.8,644 1857.8,629.8 1861.2,599.8 1842,592.9 1839.7,609.8 1839.7,656.6 1850.1,672.4 		"/>
		<path class="error-404-14" d="M1868.2,574.1l1.2,1.9c0.8,1.9,1.2,3.8,1.2,5.8l-0.4,12.7c-0.4,5.4-1.9,11.1-5,15.7l-7.3,11.5l-7.7,22.3
			l-4.6,48.8H1831l3.1-47.2l-0.8-2.3c-0.8-2.3-0.8-4.6-0.4-6.9l6.5-44.2l-4.6-12.3L1868.2,574.1z"/>
		<g>
			<path class="error-404-11" d="M1800.2,519.6c0-1.9,0-3.8-0.8-5.8c-1.2-1.9-3.1-3.5-5-4.6c-4.6-2.7-10.4-4.2-15.7-4.6v0.4
				c-0.4,3.1,1.2,5.8,2.3,8.8c2.7,5.8,5,12.3,4.6,18.8c-0.4,6.1-3.5,11.5-6.5,16.5c1.5-1.9,3.5-3.8,5.8-5.8
				c-1.2,3.8-2.7,7.3-4.6,10.8c4.2-2.3,6.5-6.9,8.8-11.1c-0.4,3.8-1.2,7.3-3.1,10.8c3.1-3.5,5.4-7.3,7.3-11.5
				c0.4,3.1-0.4,6.5-1.9,9.2c3.1-4.2,6.1-8.4,7.7-13.4C1800.2,531.8,1800.2,525.7,1800.2,519.6z"/>
		</g>
		<path class="error-404-13" d="M1800.2,519.6c0-1.9,0-3.8-0.8-5.8c-1.2-1.9-3.1-3.5-5-4.6c-4.6-2.7-10.4-4.2-15.7-4.6v0.4
			c-0.4,3.1,1.2,5.8,2.3,8.8c1.9,4.6,4.2,9.6,4.6,14.6c2.3,1.9,6.1,1.5,8.1-1.2l1.2-1.5l5.4,2.3
			C1800.2,524.9,1800.2,522.2,1800.2,519.6z"/>

			<rect x="1794.5" y="513" transform="matrix(0.3909 -0.9204 0.9204 0.3909 618.5286 1973.0414)" class="error-404-11" width="11.1" height="12.3"/>
		<polygon class="error-404-13" points="1800.6,512.6 1797.1,523.8 1791.7,521.9 1796.4,511.5 		"/>
		<path class="error-404-11" d="M1771.4,506.1l5,8.4l1.2,1.2v5.8h3.1l4.2,3.8c2.3,2.3,6.5,1.9,8.4-0.8l9.2-13.4l-6.5-15.4
			C1796,495.7,1776,489.2,1771.4,506.1z"/>
		<g>
			<g>

					<linearGradient id="error404_1_" gradientUnits="userSpaceOnUse" x1="1770.5829" y1="356.792" x2="1771.038" y2="356.792" gradientTransform="matrix(1 0 0 1 0 149.508)">
					<stop  offset="1.500162e-07" style="stop-color:#FFC107"/>
					<stop  offset="1" style="stop-color:#DE4437"/>
				</linearGradient>
				<path class="error-404-15" d="M1771,506.5L1771,506.5c-0.4-0.4-0.4-0.4-0.4-0.4L1771,506.5z"/>
			</g>
			<g>

					<linearGradient id="error404_2_" gradientUnits="userSpaceOnUse" x1="1771.038" y1="357.492" x2="1772.1178" y2="357.492" gradientTransform="matrix(1 0 0 1 0 149.508)">
					<stop  offset="1.500162e-07" style="stop-color:#FFC107"/>
					<stop  offset="1" style="stop-color:#DE4437"/>
				</linearGradient>
				<path class="error-404-16" d="M1772.2,507.6l-1.2-1.2C1771.4,506.9,1771.8,507.3,1772.2,507.6z"/>
			</g>
			<g>

					<linearGradient id="error404_3_" gradientUnits="userSpaceOnUse" x1="1770.1532" y1="352.9388" x2="1829.3645" y2="352.9388" gradientTransform="matrix(1 0 0 1 0 149.508)">
					<stop  offset="1.500162e-07" style="stop-color:#FFC107"/>
					<stop  offset="1" style="stop-color:#DE4437"/>
				</linearGradient>
				<path class="error-404-17" d="M1825.9,511.9c-3.5-2.7-8.8-2.7-11.1-6.5c-0.4-0.8-0.8-1.9-1.5-2.7c-1.9-1.9-5.4-1.5-7.3-3.8
					c-0.8-1.2-0.8-2.3-1.2-3.5c-0.8-1.9-1.9-3.5-3.5-4.6c-1.2-0.8-2.7-1.5-4.2-1.9c-1.5-0.8-3.1-1.2-4.6-1.9
					c-1.5-0.8-3.1-1.2-4.6-1.5c-2.3-0.4-4.6,0.4-6.5,1.2c-1.2,0.4-2.3,0.8-3.1,1.2c-3.1,1.9-4.6,5.4-5.8,8.4c-1.2,2.3-2.3,5-1.9,7.7
					c0,0.8,0.4,1.5,0.8,1.9c1.9,1.5,4.6,1.2,6.9,0.8s5-1.2,7.3-0.8c1.9,0.4,3.8,0.8,5.8,0.8s3.5,1.5,4.6,3.1
					c1.2,1.5,2.3,3.1,4.2,4.2c1.2,0.8,2.3,1.2,3.5,1.2c1.2,0.4,2.3,0.4,3.5,0.4c1.9,0,3.5-1.2,5.4-1.5c1.9-0.8,3.5-1.2,5.4-1.5
					c0.8,0,1.5,0,2.7,0c1.2,0.4,2.3,1.2,3.1,1.9c1.2,0.8,2.3,1.9,3.5,2.7c0.8,0.8,2.3,1.2,2.7,2.3
					C1829.8,516.9,1828.2,513.4,1825.9,511.9z"/>
			</g>
		</g>
		<path class="error-404-13" d="M1870.5,581.8c0-1.2,0-2.3-0.4-3.5l-1.2-3.1l-0.8-1.5l-33,5.8l3.1,8.4l32.3-1.9V581.8z"/>
		<path class="error-404-18" d="M1804.8,515.3l9.6-2.7h5c3.8,0,7.7,1.2,10.8,3.8l15,12.3c5.4,4.6,9.6,10,12.7,16.5l14.6,38l-36.5,5.4
			l-15.7-47.2l-13.4-7.3l-3.8-7.3L1804.8,515.3z"/>
		<path class="error-404-11" d="M1809.4,719.6l0.4-1.2c1.2-2.3,3.1-4.6,5.4-5.8l10-3.5l6.5-4.2v3.5h7.7l3.1-1.9h2.3v13.1L1809.4,719.6
			L1809.4,719.6z"/>
		<rect x="1808.6" y="719.6" class="error-404-3" width="38" height="1.9"/>
		<path class="error-404-11" d="M1856.3,721.5v-1.9c0.4-2.7,0.4-2.7,1.9-4.6l6.5-6.9l3.8-6.1l1.5,3.1l6.1-3.5l1.9-2.7l1.9-0.8l5.4,10.8
			l-25.3,12.7L1856.3,721.5z"/>

			<rect x="1862" y="713.5" transform="matrix(0.8916 -0.4528 0.4528 0.8916 -120.2338 926.6459)" class="error-404-3" width="26.9" height="1.9"/>
		<polygon class="error-404-3" points="1856.3,721.5 1863.9,721.5 1866.6,719.6 1856.3,719.6 		"/>
		<g>
			<path class="error-404-18" d="M1812.9,714.2h25V713H1814C1814,713.5,1813.6,713.9,1812.9,714.2z"/>
			<polygon class="error-404-18" points="1818.6,711.2 1844.7,711.2 1844.7,710 1821.7,710 			"/>
		</g>
		<g>
			<polygon class="error-404-18" points="1880.8,700 1863.6,709.2 1861.6,711.6 1881.2,700.8 			"/>
			<path class="error-404-18" d="M1876.6,705.4l-18.8,10c-0.4,0.8-0.8,1.2-1.2,1.5l20-10.8V705.4z"/>
		</g>
		<g class="error-404-19">
			<path class="error-404-20" d="M1867.4,602.5c-1.5,5.4-4.6,9.2-10,11.5c-1.2,0.4-1.9,2.3-1.2,3.5c-0.8,0.4-1.5,0.8-2.3,1.2
				c-1.5,0.8,0.8,1.5,2.3,1.9c3.1,0.4-1.5,3.1-1.9,5c-0.4,2.3-1.5,4.6-1.9,6.9s-0.4,4.2,0,6.1l5.8-16.9l7.3-11.5
				c1.9-2.7,3.1-5.8,3.8-9.2C1868.5,601,1867.8,601.7,1867.4,602.5z"/>
			<path class="error-404-20" d="M1850.5,643.2c-1.5,0-3.1-0.4-4.2-0.8c-2.7-0.8-0.4,1.9,2.3,3.1c0.8,0.4-2.3,1.5-1.5,1.9
				c0,0-2.3,1.2-2.3,1.5c-1.9,1.2,0.8,2.3,2.7,2.7c-0.4,0.4-0.4,0.8-0.8,1.5c-1.2,3.5,0.4,9.2,0.8,12.7c0,0.8,0.4,1.2,0.8,1.5
				l2.3-23L1850.5,643.2z"/>
		</g>
		<path class="error-404-21" d="M1834.8,567.6c-0.8,0-3.1-0.8-3.8-0.8c0.4-0.4,2.3-1.9,1.9-2.3c-3.5-0.8-5.8-3.1-6.1-6.9
			c0-0.8-0.8-1.2-1.5-0.8l2.7,7.7c0.4,0.4,1.2,0.8,1.5,0.8c0,0-0.4,0-0.4,0.4c-0.4,0-0.4,0.4-0.4,0.4l0.4,1.5c0.4,0,0.4,0,0.8,0
			c-0.4,0-0.4,0.4-0.4,0.8l0.4,1.2c0,0,1.9,4.6,2.3,6.9l3.1,8.8c0-3.8-0.4-8.1-1.2-11.9c-0.4-1.5-0.4-3.1-1.2-3.8
			c1.2-0.4,2.3-0.4,3.5-0.8C1837.1,567.9,1835.9,567.6,1834.8,567.6z"/>
		<path class="error-404-11" d="M1814.8,554.9l1.9,14.6l-18.8,24.2l-6.1-0.8l-5.8,3.1l-1.5,2.7l0.8,6.9l11.1,1.2l6.1-7.3l25.3-23.4
			c0.8-0.8,1.2-1.9,1.2-3.1l-1.9-19.6L1814.8,554.9z"/>
		<polygon class="error-404-13" points="1827.5,553 1814.8,554.9 1815.2,556.4 1827.5,554.9 		"/>
		<polygon class="error-404-18" points="1828.6,533.4 1826.3,539.5 1828.6,553 1812.9,554.9 1806.7,533.8 1809.4,526.8 		"/>
		<path class="error-404-21" d="M1827.1,550.7c-0.8-3.8-0.4-6.5-1.5-10.4c-0.4-1.9-0.8-2.3-1.5-2.7l0,0c0.8-0.4,0.8-1.2,0.4-1.5
			c1.2-0.8,1.2-2.3,2.3-3.1s0.8-1.2-0.4-0.8c-1.5,0.8-3.1,1.5-4.2,2.7c-0.4,0.4-0.8,1.2-0.4,1.5c-0.4,0,0,1.2-0.4,1.2
			c-0.8,0.4-1.2,0.8-0.4,1.2c2.3,1.2,2.7,3.5,3.1,5.8c0.8,2.7,1.2,5.4,1.9,8.1C1826.7,554.1,1827.5,551.8,1827.1,550.7z"/>
	</g>
	<g>
		<g>
			<path class="error-404-22" d="M1693.4,673.2L1693.4,673.2C1693.4,673.2,1692.7,673.9,1693.4,673.2z M1701.9,665.1
				c-8.8-9.2-19.2-16.9-31.5-20c-11.9-3.5-25.7-2.3-36.5,4.6c15,16.1,37.2,25,59.5,23.8c3.1,0.4,12.3,0.4,15-1.2
				c0.8-0.4-1.5-2.7-3.1-4.6C1705,667,1702.7,665.5,1701.9,665.1z"/>
			<g class="error-404-2">
				<path class="error-404-3" d="M1705.3,667.4c-0.8-0.8-2.7-1.9-3.1-2.3c-8.8-9.2-19.2-16.9-31.5-20c-5.8-1.5-11.9-2.3-18-1.5
					c6.9,0.4,13.8,2.3,20,5.4c11.1,5.8,19.6,14.6,26.5,25c3.8,0,7.7-0.4,9.2-1.2C1709.2,671.6,1707.3,669.3,1705.3,667.4z"/>
			</g>
			<path class="error-404-22" d="M1712.3,645.9c1.9,5,4.2,12.7,1.9,17.7c-1.5,3.8-4.6,9.6-8.4,8.8c-3.1-4.2-10-13.1-14.2-16.1
				c-3.5-2.7-8.8-5.8-12.3-8.8c-8.4-7.7-11.5-18-16.5-28.4c8.4,0.8,16.9,2.3,25.3,4.6c5.4,1.5,10.8,3.5,15,7.3
				C1708,634.8,1710.3,640.5,1712.3,645.9z"/>
			<path class="error-404-4" d="M1694.2,656.3c-3.1-3.5-7.7-7.3-10.8-10.8c-5.8-7.7-7.7-16.1-10-25.3c-3.5-0.8-6.9-1.2-10.8-1.5
				c4.6,10.4,8.1,20.7,16.5,28.4c3.1,3.1,8.8,6.1,12.3,8.8c1.9,1.5,4.6,4.6,6.9,7.3C1697.3,660.5,1695.7,657.8,1694.2,656.3z"/>
			<path class="error-404-22" d="M1716.9,619c3.1,7.7,2.7,16.5,2.7,24.6c0,3.1,0.8,8.4,0,11.5c-0.8,2.7-2.3,5-3.8,7.3
				c-1.5,1.9-3.1-0.4-4.2-2.3c-1.2-1.9-3.1-4.6-2.3-4.2c-1.5-4.6-2.3-7.7-3.5-12.7c-1.2-3.8-2.3-7.7-3.1-11.5
				c-1.5-9.6,0.4-19.2,2.3-28.8C1710.3,607.1,1714.2,612.9,1716.9,619z"/>
			<g>
				<path class="error-404-5" d="M1640.4,651.3c10.8-0.4,21.5,0,32.3,3.1c10,2.7,19.2,7.7,27.3,13.8c0.4,0.4,0.8-0.4,0.4-0.8
					c-8.1-6.1-17.7-10.8-27.6-13.8C1662,650.5,1651.2,650.5,1640.4,651.3C1640.1,650.9,1640.1,651.3,1640.4,651.3L1640.4,651.3z"/>
			</g>
			<g>
				<path class="error-404-5" d="M1666.6,622.1c8.8,4.2,16.9,9.6,23.8,16.5c7.7,7.3,12.7,16.1,18,25c0,0.4,0.8,0,0.4-0.4
					C1699.6,645.1,1685.8,629.8,1666.6,622.1C1666.6,621.7,1666.6,622.1,1666.6,622.1L1666.6,622.1z"/>
			</g>
			<g>
				<path class="error-404-5" d="M1705.3,606.7c5.8,16.9,12.3,33.4,8.4,51.8c0,0.4,0.4,0.8,0.8,0C1718,641.3,1713,622.5,1705.3,606.7
					L1705.3,606.7L1705.3,606.7z"/>
			</g>
			<g>
				<path class="error-404-5" d="M1648.1,657.4c1.2-1.2,2.3-2.3,3.8-3.5s2.7-1.9,4.2-2.7v-0.4C1653.1,652,1650,654.7,1648.1,657.4
					L1648.1,657.4L1648.1,657.4z"/>
			</g>
			<g>
				<path class="error-404-5" d="M1657,661.6c3.1-5.4,7.7-7.3,13.4-7.7c0.4,0,0.4-0.8,0-0.8C1664.6,654,1658.9,655.9,1657,661.6L1657,661.6
					L1657,661.6z"/>
			</g>
			<g>
				<path class="error-404-5" d="M1668.1,662.4c3.5-2.7,6.9-6.9,11.9-5.8c0.4,0,0.4-0.4,0-0.4C1675,655.1,1671.2,659.3,1668.1,662.4
					C1667.7,662.4,1667.7,662.4,1668.1,662.4L1668.1,662.4z"/>
			</g>
			<g>
				<path class="error-404-5" d="M1678.8,668.2c3.1-4.2,8.1-7.7,13.4-5c0.4,0,0.8-0.4,0.4-0.4C1686.9,659.7,1681.5,663.2,1678.8,668.2
					C1678.5,668.2,1678.8,668.2,1678.8,668.2L1678.8,668.2z"/>
			</g>
			<g>
				<path class="error-404-5" d="M1653.5,644.4c0.8,3.5,3.8,5.8,6.5,7.7c0.4,0,0.4-0.4,0.4-0.4C1657.7,649.7,1654.7,647.8,1653.5,644.4
					C1653.9,644,1653.5,644.4,1653.5,644.4L1653.5,644.4z"/>
			</g>
			<g>
				<path class="error-404-5" d="M1665.4,645.1c1.2,3.5,3.5,6.1,6.1,8.8c0.4,0.4,0.8,0,0.4-0.4C1668.9,650.9,1666.9,648.2,1665.4,645.1
					C1665.4,645.1,1665,645.1,1665.4,645.1L1665.4,645.1z"/>
			</g>
			<g>
				<path class="error-404-5" d="M1675,649c0.8,1.5,1.5,3.1,2.3,4.6c0.8,1.2,1.9,3.1,3.1,3.5h0.4l0,0v-0.4l0,0h-0.4l0,0v0.4
					c0.4,0-1.2-1.9-1.2-1.9c-0.4-0.8-0.8-1.2-1.5-1.5C1676.9,651.6,1675.8,650.1,1675,649L1675,649L1675,649z"/>
			</g>
			<g>
				<path class="error-404-5" d="M1683.1,652.8c2.3,3.8,5.4,6.9,8.8,9.6c0.4,0.4,0.8-0.4,0.8-0.8C1688.8,659.3,1686.1,655.9,1683.1,652.8
					L1683.1,652.8L1683.1,652.8z"/>
			</g>
			<g>
				<path class="error-404-5" d="M1671.9,633.6c6.1-0.4,11.5,0,16.5,3.1c0.4,0.4,0.8-0.4,0.4-0.8c-4.6-3.1-11.5-5-16.9-3.1
					C1671.6,633.2,1671.6,633.6,1671.9,633.6L1671.9,633.6z"/>
			</g>
			<g>
				<path class="error-404-5" d="M1681.2,643.6c3.1,0,5.8,0,8.4,0.8c2.7,0.8,5,1.5,7.7,2.3c0.4,0,0.4-0.4,0-0.8
					C1692.3,644.4,1686.5,642,1681.2,643.6L1681.2,643.6L1681.2,643.6z"/>
			</g>
			<g>
				<path class="error-404-5" d="M1692.7,652.4c1.9,0,4.2,0.4,6.1,0.8c2.3,0.4,3.8,1.5,5.4,3.5c0.4,0.4,0.8,0,0.4-0.4
					c-1.5-1.5-2.7-2.7-5-3.5C1697.3,652.4,1695,652,1692.7,652.4L1692.7,652.4L1692.7,652.4z"/>
			</g>
			<g>
				<path class="error-404-5" d="M1684.2,626.7c0,2.3,1.2,4.6,2.3,6.5c0.8,1.2,1.2,3.5,2.7,3.8c0,0,0.4,0,0-0.4
					C1686.5,634.4,1686.5,629.8,1684.2,626.7C1684.6,626.3,1684.2,626.3,1684.2,626.7L1684.2,626.7z"/>
			</g>
			<g>
				<path class="error-404-5" d="M1693.4,629c0.8,6.1,2.3,11.9,4.6,17.7c0,0.4,0.8,0,0.4,0C1696.1,640.9,1695,635.1,1693.4,629L1693.4,629
					L1693.4,629z"/>
			</g>
			<g>
				<path class="error-404-5" d="M1703.4,642c0,5,1.2,10.4,2.3,15.4c0,0.4,0.8,0.4,0.8,0C1705,652,1704.2,647,1703.4,642
					C1703.4,641.7,1703.4,641.7,1703.4,642L1703.4,642z"/>
			</g>
			<g>
				<path class="error-404-5" d="M1703.4,616.3c3.8,4.2,6.5,8.4,8.8,13.4c0.4,0.4,0.8,0,0.8-0.4C1710.7,624.4,1707.6,620.2,1703.4,616.3
					C1703.4,615.9,1703.4,616.3,1703.4,616.3L1703.4,616.3z"/>
			</g>
			<g>
				<path class="error-404-5" d="M1715.3,617.5c-1.9,3.8-2.3,8.8-2.3,13.1c0,0.4,0.8,0.4,0.8,0c0-2.3,0.4-4.6,0.8-7.3
					C1714.6,621.3,1715.3,619.4,1715.3,617.5C1715.7,617.1,1715.3,617.1,1715.3,617.5L1715.3,617.5z"/>
			</g>
			<g>
				<path class="error-404-5" d="M1708.8,632.1c2.7,4.2,4.6,8.4,6.1,13.1h0.4C1714.6,640.5,1711.9,635.5,1708.8,632.1
					C1708.8,631.7,1708.4,632.1,1708.8,632.1L1708.8,632.1z"/>
			</g>
			<g>
				<path class="error-404-5" d="M1715.3,645.5c1.2-3.1,2.3-6.1,3.8-8.8c0-0.4-0.4-0.4-0.4-0.4C1717.2,639,1715.7,642,1715.3,645.5
					L1715.3,645.5L1715.3,645.5z"/>
			</g>
		</g>
	</g>
</g>
<path class="error-404-23" d="M0,840.6c0,0,400.5-248.4,678.9-141.7s654.3,60.3,654.3,60.3v311H0V840.6z"/>
<linearGradient id="error404_4_" gradientUnits="userSpaceOnUse" x1="0" y1="642.7708" x2="1920" y2="642.7708" gradientTransform="matrix(1 0 0 1 0 149.508)">
	<stop  offset="5.250566e-07" style="stop-color:#DAE1E9"/>
	<stop  offset="1" style="stop-color:#F0F1F3"/>
</linearGradient>
<path class="error-404-24" d="M0,654.7c0,0,255.7,194.7,743,19.2c108.3-39.2,215.4-81.4,324.1-119.8c67.2-23.8,139-41.1,210.8-39.2
	c70.7,2.3,139.8,21.9,204.7,49.5c36.9,16.1,72.6,34.9,107.1,55.3c33,19.6,64.1,43,99.8,58c31.9,13.1,65.3,21.1,99.5,25.3
	c25,3.1,50.3,4.6,75.3,5.4c18.4,0.4,37.2,0.4,55.7,0.4v361H0V654.7z"/>
<g>
	<path class="error-404-25" d="M1425.8,799.9l-17.7-0.4l-1.5-1.2h-0.4l88.3-49.9l4.6-1.9h-0.8c1.5-0.4,2.7-0.8,3.5-1.2l16.1-8.4l0,0l5-2.7
		l21.9-6.9l-17.3,11.9c-0.4,0.8,0.8,1.2,2.7,1.5c2.7,0.4,8.4,0,12.3-1.2l43.4-10.8h-1.5l2.7-0.8l43.4-5.4c-0.8-0.4-3.5-0.4-6.5-0.4
		l-8.4,1.2h-1.9c-1.5,0-3.8,0-5.8,0.4l-4.2,0.4l-12.3,0.8c-3.5,0.4-6.9,0.8-9.6,1.5l-5.8,1.5h0.8h-1.9l-19.6,4.2l16.9-8.8
		c3.1-1.5,2.7-3.1-0.8-3.8l-19.6-4.2c5-1.2,10-2.7,12.7-3.5c1.5-0.4,1.9-0.8,2.7-1.5l3.1-0.4c0,0,6.9-1.5,7.3-2.3v-0.4
		c2.7-1.2,4.6-1.9,7.3-3.1c0.8-0.4,1.9-0.8,2.3-1.2s0.4-0.4,0.4-0.8c0-0.4,0.4-1.2,0.4-1.5c0.4-0.8-1.9-0.8-4.2-1.2
		c-2.3-0.4-3.8-0.8-6.5-0.8c-1.9,0-4.2,0-6.1,0.4c-0.8,0-1.9,0.4-2.7,0.4c-1.5,0-2.7,0-3.8,0c-3.1,0-7.3,0.8-10,1.5
		c-0.4,0-0.8,0.4-1.2,0.4c-0.4,0-1.2,0-1.5,0.4c-6.1,1.2-7.7,2.7-9.6,3.8c-0.8,0.4-1.9,0.8-2.3,1.5c-1.5,0-3.1,0.4-3.1,0.4
		c-3.8,1.2-3.5,2.3-3.5,2.3l2.3,0.4c-0.4,0-0.4,0.4-0.8,0.4s-0.8,0.4-1.2,0.4c-1.9,0.8-2.7,1.5-3.1,1.9l0,0l-3.5,1.5l-41.1,4.6
		c-7.3,0.8-14.2,2.3-18.4,3.8l-22.3,8.8l-0.4-4.2h-1.9l0,0l1.2-1.5c0.4-0.8-0.4-1.2-2.7-1.5l-8.8-0.8l-1.9-0.4
		c-1.2-0.4-2.7-0.4-4.6-0.4h-2.7l-4.2-1.2c-1.5-0.4-4.6-0.4-7.3,0.4l20,5.4l-0.8,0.8h-2.3l-5.4,10.8c-0.4,1.2,3.1,1.5,8.1,1.2
		c3.1-0.4,6.5-0.8,9.6-1.5l26.5-8.8l-5,2.3l0,0l-4.2,1.9l-2.3,0.8l0,0l-15,6.1l-8.4,3.5c-0.8,0.4-1.5,0.8-1.2,1.2l0,0l-3.5,1.5
		l-76.8,27.6l-51.1,22.7h-2.3l-5.8,1.2l-20.4,0.4c-5.4,0.4-6.5,0.8-10.4,1.9l-1.2,0.4h39.2l5-0.8l-1.9,0.8h13.1l8.1-3.5h-0.8
		l23.4-9.6l0,0l25.3-10.4l67.2-20.4l-0.4,0.4l-0.4,0.4l0,0l-25.7,20.4l-31.1,19.2h-0.4l-8.1,3.5h13.1l1.9-0.8l0.8,0.8h39.2l0.4-0.4
		C1429.6,800.3,1429.2,800.3,1425.8,799.9z"/>
</g>
<g>
	<polygon class="error-404-26" points="1305.6,565.6 1288.3,687.7 1287.9,787.2 1314,787.2 1319.4,700.4 1344,612.5 1366.3,702.3
		1379.7,787.2 1407.4,787.2 1380.5,565.6 	"/>
	<path id="XMLID_16_" class="error-404-27" d="M1286.4,786l-4.2,4.2l-21.1,2.3c-5,1.5-5.8,2.7-7.3,7.7l-0.4,1.2h43.8l3.1-3.8v3.8h14.6v-15.7
		h-11.5L1286.4,786L1286.4,786z"/>
	<path id="XMLID_15_" class="error-404-27" d="M1407.7,786l4.2,4.2l21.1,2.3c5,1.5,5.8,2.7,7.3,7.7l0.4,1.2H1397l-3.1-3.8v3.8h-14.6v-15.7
		h11.5L1407.7,786L1407.7,786z"/>
	<path class="error-404-28" d="M1333.2,425.1l-29.6,16.5l2.7,69.9l-2.3,45.7c-0.4,4.6,3.5,8.4,8.1,8.4h61.1c5,0,8.4-4.2,8.1-8.8l-3.8-47.2
		l15-66l-33-18.4L1333.2,425.1L1333.2,425.1z"/>
	<polygon class="error-404-11" points="1359.4,426.2 1346.3,450 1333.2,426.2 1333.2,409 1359.4,409 	"/>
	<g>
		<path class="error-404-29" d="M1370.9,373.6c-0.4-1.2-0.8-2.3-1.2-3.1c-1.2-1.9-2.3-4.2-3.1-6.1c-1.9-3.8-3.8-3.1-7.3-4.2
			c-3.1-1.2-6.1-3.1-9.6-3.5c-2.3,0-4.2,0.8-6.1,1.5c-0.8,0.4-1.5,0.8-2.3,1.2c-1.5,0.4-3.1,0-4.6,0c-3.5,0-6.9,2.7-7.7,6.1
			c0,0.4-0.4,1.2-0.4,1.5c-0.4,0.4-0.8,0.8-1.2,1.2c-4.6,4.2-1.9,11.5-1.2,16.9c0.4,3.1,0,6.1,2.7,8.4l-1.2-0.4
			c3.1,3.1,6.9,4.6,11.1,5.4s8.4,0.8,12.7,0.8c5,0,10,0,15,0c0.8,0,1.9,0,2.7-0.8s1.2-1.9,1.2-3.1c0.8-5.8,0.4-11.5,0.8-17.3
			C1370.9,376.3,1371.3,374.8,1370.9,373.6z"/>
	</g>
	<path class="error-404-13" d="M1333.2,418.9l3.8,6.5c2.3,4.2,6.9,6.9,11.9,6.9c4.2,0,8.4-1.9,10.8-5.4v-17.7h-26.5L1333.2,418.9
		L1333.2,418.9z"/>
	<path class="error-404-11" d="M1330.9,382.5v20c0,4.6,1.2,8.8,3.5,13.1l3.8,6.5c2.3,4.2,6.9,6.9,11.9,6.9l0,0c4.6,0,9.2-2.3,11.5-6.5
		l0.8-1.2c2.3-3.8,3.8-8.8,3.8-13.4v-19.2V371h-34.6L1330.9,382.5z"/>
	<path class="error-404-11" d="M1331.3,405.5l-3.8-2.3c0,0-4.2-6.1-2.3-10.4c0,0,1.5-3.5,4.2-1.9l3.8,3.8L1331.3,405.5z"/>
	<path class="error-404-11" d="M1365.1,405.5l3.8-2.3c0,0,4.2-6.1,2.3-10.4c0,0-1.5-3.5-4.2-1.9l-3.8,3.8L1365.1,405.5z"/>
	<g>
		<path class="error-404-29" d="M1329.8,385.9c0.4,3.1,0.8,6.1,0.8,9.6c0,1.2-0.4,5,1.9,3.8c0.8-0.4,1.2-1.2,1.2-1.9
			c0.4-3.1-2.3-5.8-0.8-8.4c1.2-1.9,3.5-3.5,3.8-5.8c0.4-1.5-0.4-3.5-0.8-5c0-1.2,0-2.7,0.8-3.8c0.8-1.2,2.3-1.5,3.5-1.2
			s1.9,1.5,3.1,2.3c2.3,1.9,5.4,2.7,8.1,1.5c1.5-0.8,3.1-1.9,4.6-2.7c1.5-1.2,3.5-1.5,5-1.2c2.7,0.8,3.5,3.5,4.2,6.1
			c0.4,2.7,1.2,5.8,0.8,8.4c-0.4,2.3-1.5,4.2-1.9,6.5c0,0.4-0.4,1.2-0.4,1.5c0,1.2,0.8,1.9,1.2,2.7c0,0,0,0.4,0.4,0.4s0.4,0,0.8-0.4
			c1.5-1.2,1.9-3.5,2.3-5.4c0.4-2.7,1.5-4.2,0.8-6.9c-1.2-5.4,0.4-10.8-0.8-16.1c0-0.4-0.4-1.2-0.4-1.5c-0.4-0.4-1.2-0.8-1.5-1.2
			c-7.7-2.7-15.7-2.3-23.8-1.9c-2.7,0-5.8,0.4-8.1,1.9c-2.7,1.9-4.2,5-5,8.4C1329,379,1329.4,382.5,1329.8,385.9z"/>
	</g>
	<path class="error-404-11" d="M1260.7,484.6l-1.2-3.5l-35.3-22.7l0,0c1.9-1.9,5.4-2.3,7.7-0.8l6.9,4.2l2.7-0.4c1.9-0.4,4.2,0,6.1,1.2
		l3.5,2.3l11.9,3.5c3.1,0.8,5.8,3.5,6.9,6.5l2.7,6.5L1260.7,484.6z"/>
	<path class="error-404-11" d="M1431.9,484.6l1.2-3.5l35.3-22.7l0,0c-1.9-1.9-5.4-2.3-7.7-0.8l-6.9,4.2l-2.7-0.4c-1.9-0.4-4.2,0-6.1,1.2
		l-3.5,2.3l-11.9,3.5c-3.1,0.8-5.8,3.5-6.9,6.5l-2.7,6.5L1431.9,484.6z"/>
	<path class="error-404-28" d="M1333.2,425.1l-34.9,19.6c-6.1,3.5-10.4,9.6-10.8,16.9l-3.1,38l-11.1-18.4l-15,4.6l21.1,47.2
		c1.9,4.2,7.3,6.1,11.5,4.2c2.7-1.5,5.4-3.5,6.9-6.9l11.1-56.1l24.2-35.7v-13.4H1333.2z"/>
	<path class="error-404-28" d="M1359.4,425.1l34.9,19.6c6.1,3.5,10.4,9.6,10.8,16.9l3.1,38l11.1-18.4l15,4.6l-21.1,47.2
		c-1.9,4.2-7.3,6.1-11.5,4.2c-2.7-1.5-5.4-3.5-6.9-6.9l-11.1-56.1l-24.2-35.7v-13.4H1359.4z"/>
	<rect x="1305.2" y="561.8" class="error-404-27" width="76" height="11.5"/>
	<rect x="1335.9" y="561.8" class="error-404-11" width="13.1" height="11.5"/>
	<path class="error-404-30" d="M1377.8,509.6l6.9-30.7c-2.3,3.5-4.2,7.3-6.1,11.1c-0.8,1.5,0,3.1,1.2,3.8c-1.5,3.5-7.3,9.2-9.6,11.5
		c-1.9,1.9,3.5,2.3,5.8,1.5c0,0,0,0,0.4,0c-1.5,2.7-3.1,5.4-5,7.7c-1.2,1.5-4.2,3.8-2.3,3.5c1.5-0.4,6.5,0.8,8.1,0.4
		c-0.8,1.9-1.2,3.5-1.9,5.4c-0.8,1.9,0.4,3.8,1.9,4.2c-1.2,0,0.4,10.8,0.8,11.9c0.8,3.5,1.5,5.8,3.1,8.1l-1.5-26.5v-0.4
		L1377.8,509.6z"/>
	<path class="error-404-30" d="M1312.9,516.5c-6.1-3.1-7.7-6.1-5.4-9.2c2.3,0.8,5.8,0,8.1,0.8c1.5,0.4,0.8-1.5-4.2-1.9
		c0.8,0-5.4-7.7-3.1-7.7c1.2,0,1.9-1.5,1.5-2.7c-2.7-4.6-3.1-11.1-4.6-16.5l0.8,23.4c0.4,0.4,1.2,0.8,1.5,1.5
		c-0.4,0-1.2-0.4-1.5-0.4l0.4,8.1v2.7c0.4,0.4,0.4,0.8,0.8,1.2c-0.4,0-0.4,0-0.8,0l-1.5,35.3c0.4-0.4,0.8-0.8,0.8-1.2
		c0-7.3,2.3-13.4,3.1-20.4c0.4-2.3-1.5-10.8,3.5-9.6C1313.3,519.9,1314.4,517.2,1312.9,516.5z"/>
	<polygon class="error-404-18" points="1333.2,425.1 1325.6,429.7 1334.4,462 1346.3,450 	"/>
	<polygon class="error-404-18" points="1359.4,425.1 1367.4,429.7 1358.2,462 1346.3,450 	"/>
	<circle class="error-404-3" cx="1346.3" cy="461.6" r="1.5"/>
	<path class="error-404-3" d="M1347.1,479.2c0,0.8-0.8,1.5-1.5,1.5c-0.8,0-1.5-0.8-1.5-1.5c0-0.8,0.8-1.5,1.5-1.5
		C1346.3,477.7,1347.1,478.5,1347.1,479.2z"/>
	<path class="error-404-3" d="M1346.3,496.5c0,0.8-0.8,1.5-1.5,1.5c-0.8,0-1.5-0.8-1.5-1.5c0-0.8,0.8-1.5,1.5-1.5
		C1345.9,495.4,1346.3,495.7,1346.3,496.5z"/>
	<circle class="error-404-3" cx="1344.4" cy="514.2" r="1.5"/>
	<circle class="error-404-3" cx="1343.6" cy="531.8" r="1.5"/>
	<path class="error-404-3" d="M1344.4,549.1c0,0.8-0.8,1.5-1.5,1.5c-0.8,0-1.5-0.8-1.5-1.5s0.8-1.5,1.5-1.5
		C1344,548,1344.4,548.4,1344.4,549.1z"/>
	<g class="error-404-31">
		<g>
			<path class="error-404-3" d="M1319.4,700.4l-2.7,44.5c-0.4,0.4-0.8,0.4-1.2,0.8c-0.4-13.8-2.7-27.6-6.5-40.7c2.3-0.8,4.6-2.3,6.1-4.2
				c-1.5,0-3.1-0.4-4.6-0.4c1.2-0.8,2.3-1.9,2.7-3.1c-3.5,0-6.9,0-10.4,0c9.6-2.3,16.9-11.5,16.5-21.1c-1.2,0.4-2.7,0-3.8-0.8
				c3.5-5.4,6.9-10.8,10.4-16.5c0.8-0.8,1.2-1.9,0.8-3.1c-1.9,1.5-3.8,2.7-6.1,3.1c2.7-3.1,5.4-6.5,6.5-10.4
				c1.5-4.6,1.2-9.6,1.9-14.2c1.5-8.8,6.9-16.5,14.6-20.7L1319.4,700.4z M1344.4,615.2c0-0.8,0-1.2,0-1.9l-0.4-0.4l0,0L1344.4,615.2
				z"/>
		</g>
	</g>
	<g class="error-404-31">
		<path class="error-404-3" d="M1406.6,780.7l-25.3-210.8c-0.4,0-0.8,0-0.8,0l-0.4,1.2c-1.2,13.8-1.2,27.6,1.2,41.1
			c1.2,8.1,3.1,16.1,1.2,24.2c-0.4,2.7-1.5,4.6-2.7,7.3c-1.2,3.1-1.5,6.9-1.9,10c-0.8,3.5-1.2,6.5-1.5,10c-0.4,3.5-1.2,6.9-1.2,10.8
			c0,0.4,13.4-2.7,15-4.2c-1.2,6.1-3.5,12.7-5.8,18.4c1.5-3.1,3.5-6.1,6.1-8.4c-2.3,4.2-3.5,8.8-4.2,13.8c2.7-0.4,5.4-0.8,8.4-0.8
			c-2.3,5.4-4.6,10.4-7.3,15.7c3.1-1.5,5.8-3.1,8.8-4.6c-0.8,13.1-1.5,26.1-2.3,38.8c-0.4,5-0.4,10,1.5,14.6
			c1.5,3.5,3.8,6.1,5.8,9.2c3.1,5.4,4.6,11.9,3.8,18C1405.4,783.7,1405.8,782.2,1406.6,780.7z"/>
	</g>
	<g>
		<path class="error-404-29" d="M1340.9,410.9c-0.4,1.2-0.8,1.9-1.2,3.1c-0.4,0.8-1.5,1.9-2.7,1.5s-1.5-1.9-1.5-3.1c-0.4-3.5,0.4-6.5-0.8-10
			c-0.4-0.8-0.8-1.5-0.8-2.7c0-0.8,0-1.5,0-2.7c0-0.8-0.8-1.5-1.5-1.5c-0.8,0-1.5,0.8-1.5,1.5s0,1.5,0,2.3c0.8,3.8,1.2,7.3,0.8,10.8
			c-0.4,3.8,1.2,7.3,2.3,10.8c0.4,1.2,0.8,2.3,1.5,3.5c1.5,2.7,4.6,4.6,7.7,5.4s6.5,0.8,9.6,0.8c1.9,0,4.2,0,6.1-0.8
			c5.8-2.3,7.3-13.1,8.1-18.4c0.4-2.3-0.4-4.2-0.4-6.5c-0.4-2.7,0.8-5.8,1.2-8.4c0-0.4,0-0.8-0.4-1.2s-1.2-0.4-1.2-0.8
			c-0.8,0.8-1.9,1.9-2.3,3.1c0,0.4,0,1.2,0,1.5c0,2.3,0,4.6-0.4,6.5c-0.8,2.7-1.5,5-1.9,7.7c0,1.2-0.4,2.7-1.9,3.1
			c-0.8,0.4-1.9-0.4-2.3-1.5c-0.4-0.8-0.4-1.9-0.4-3.1s0-1.9-0.8-2.7c-0.8-1.2-2.3-1.2-3.8-1.2
			C1349,407.8,1343.2,405.9,1340.9,410.9z"/>
	</g>
</g>
<g id="Clouds">
	<path id="XMLID_198_" class="error-404-18" d="M435.1,274.2L435.1,274.2c-2.3-6.5-8.4-11.5-15.7-11.5c-3.1,0-6.1,0.8-8.4,2.7
		c-1.5-10.4-10.4-18.4-21.5-18.4c-9.6,0-18,6.5-20.7,15.4c-1.2-0.4-2.7-0.4-3.8-0.4c-7.3,0-13.4,5.4-14.6,12.7h-2.3
		c-6.1,0-11.1,5-11.1,11.1v0.8c0,6.1,5,11.1,11.1,11.1h87.2c6.1,0,11.1-5,11.1-11.1v-0.8C446.2,279.2,441.2,274.2,435.1,274.2z"/>
	<path id="XMLID_181_" class="error-404-18" d="M228.5,215L228.5,215c-1.5-4.6-6.1-8.1-11.1-8.1c-2.3,0-4.2,0.8-6.1,1.9
		c-1.2-7.3-7.7-13.1-15.4-13.1c-6.9,0-12.7,4.6-14.6,10.8c-0.8-0.4-1.9-0.4-2.7-0.4c-5.4,0-9.6,3.8-10.4,8.8h-1.9
		c-4.2,0-8.1,3.5-8.1,8.1v0.8c0,4.2,3.5,8.1,8.1,8.1h62.2c4.2,0,8.1-3.5,8.1-8.1V223C236.2,218.5,232.7,215,228.5,215z"/>
	<path id="XMLID_190_" class="error-404-18" d="M549.5,188.2L549.5,188.2c-1.9-5.8-7.3-10-13.4-10c-2.7,0-5.4,0.8-7.3,2.3
		c-1.5-9.2-9.2-16.1-18.4-16.1c-8.4,0-15.7,5.8-18,13.4c-1.2-0.4-2.3-0.4-3.5-0.4c-6.5,0-11.9,4.6-12.7,10.8h-1.9
		c-5.4,0-9.6,4.2-9.6,9.6v0.8c0,5.4,4.2,9.6,9.6,9.6h76c5.4,0,9.6-4.2,9.6-9.6v-0.8C559.1,192.4,554.9,188.2,549.5,188.2z"/>
	<path id="XMLID_178_" class="error-404-18" d="M550.7,324.5L550.7,324.5c-1.2-3.1-3.8-5-6.9-5c-1.5,0-2.7,0.4-3.8,1.2
		c-0.8-4.6-4.6-8.4-9.6-8.4c-4.2,0-8.1,3.1-9.2,6.9c-0.4,0-1.2-0.4-1.9-0.4c-3.5,0-6.1,2.3-6.5,5.8h-1.2c-2.7,0-5,2.3-5,5v0.4
		c0,2.7,2.3,5,5,5H551c2.7,0,5-2.3,5-5v-0.4C555.6,326.8,553.3,324.5,550.7,324.5z"/>
	<g id="XMLID_141_">
		<path id="XMLID_151_" class="error-404-32" d="M1405.8,145.2h-0.8c-3.1-10.4-12.3-17.7-23.4-17.7c-5,0-9.2,1.5-13.1,3.8
			c-2.3-16.1-16.5-28.4-33-28.4c-15,0-27.6,10-31.9,23.4c-1.9-0.4-3.8-0.8-6.1-0.8c-11.5,0-21.1,8.4-22.7,19.6h-3.8
			c-9.6,0-17.3,7.7-17.3,17.3v1.2c0,9.6,7.7,17.3,17.3,17.3h135.2c9.6,0,17.3-7.7,17.3-17.3v-1.2
			C1423.1,152.8,1415,145.2,1405.8,145.2z"/>
		<path id="XMLID_150_" class="error-404-18" d="M1390.1,149.4h-0.8c-2.7-8.8-10.8-15.7-20.7-15.7c-4.2,0-8.4,1.2-11.5,3.5
			c-2.3-14.2-14.6-25-29.2-25c-13.4,0-24.6,8.8-28.4,20.7c-1.5-0.4-3.5-0.8-5.4-0.8c-10,0-18.4,7.3-20,17.3h-3.1
			c-8.4,0-15,6.9-15,15v1.2c0,8.4,6.9,15,15,15h119c8.4,0,15-6.9,15-15v-1.2C1405.1,156.3,1398.1,149.4,1390.1,149.4z"/>
	</g>
</g>
<g id="Plane">
	<path id="XMLID_196_" class="error-404-18" d="M434.7,203.9h-33l-15.4-30c-1.2-2.3,0.4-5,3.1-5h11.5c1.2,0,1.9,0.4,2.7,1.2L434.7,203.9z"/>
	<path id="XMLID_195_" class="error-404-18" d="M434.7,203.9h-33l-15.4-30c-1.2-2.3,0.4-5,3.1-5h11.5c1.2,0,1.9,0.4,2.7,1.2L434.7,203.9z"/>
	<path id="XMLID_194_" class="error-404-32" d="M392.8,168.6h-3.5c-2.7,0-4.2,2.7-3.1,5l15.4,30h12.7l-21.1-33.8
		C393.2,169.7,393.2,169.3,392.8,168.6z"/>
	<path id="XMLID_193_" class="error-404-33" d="M434.7,203.9h-33l-15.4-30c-1.2-2.3,0.4-5,3.1-5h11.5c1.2,0,1.9,0.4,2.7,1.2L434.7,203.9z"/>
	<path id="XMLID_175_" class="error-404-18" d="M549.1,215.4H546c-2.7-7.7-10-13.1-18.8-13.1H392.8c0,18.4,15,33.4,33.4,33.4h84.5h36.5h1.9
		c5,0,9.2-4.2,9.2-9.2v-1.9C558.3,219.6,554.5,215.4,549.1,215.4z"/>
	<path id="XMLID_174_" class="error-404-32" d="M549.1,228.1h-1.9h-36.5h-84.5c-15.7,0-29.2-11.1-32.6-25.7h-1.2c0,18.4,15,33.4,33.4,33.4
		h84.5h36.5h1.9c5,0,9.2-4.2,9.2-9.2v-1.9c0-1.2-0.4-1.9-0.4-3.1C556.8,225.4,553.3,228.1,549.1,228.1z"/>
	<path id="XMLID_173_" class="error-404-33" d="M549.1,215.4H546c-2.7-7.7-10-13.1-18.8-13.1H392.8c0,18.4,15,33.4,33.4,33.4h84.5h36.5h1.9
		c5,0,9.2-4.2,9.2-9.2v-1.9C558.3,219.6,554.5,215.4,549.1,215.4z"/>
	<path id="XMLID_172_" class="error-404-18" d="M431.6,213.1h-38.8c-2.3,0-4.6-1.9-4.6-4.6V207c0-2.3,1.9-4.6,4.6-4.6h38.8
		c2.3,0,4.6,1.9,4.6,4.6v1.5C435.8,211.2,433.9,213.1,431.6,213.1z"/>
	<path id="XMLID_171_" class="error-404-18" d="M506.9,240h-47.6c-2.3,0-4.6-1.9-4.6-4.6v-3.5c0-2.3,1.9-4.6,4.6-4.6h47.6
		c2.3,0,4.6,1.9,4.6,4.6v3.5C511.5,237.7,509.6,240,506.9,240z"/>
	<path id="XMLID_170_" class="error-404-33" d="M431.6,213.1h-38.8c-2.3,0-4.6-1.9-4.6-4.6V207c0-2.3,1.9-4.6,4.6-4.6h38.8
		c2.3,0,4.6,1.9,4.6,4.6v1.5C435.8,211.2,433.9,213.1,431.6,213.1z"/>
	<path id="XMLID_169_" class="error-404-33" d="M506.9,240h-47.6c-2.3,0-4.6-1.9-4.6-4.6v-3.5c0-2.3,1.9-4.6,4.6-4.6h47.6
		c2.3,0,4.6,1.9,4.6,4.6v3.5C511.5,237.7,509.6,240,506.9,240z"/>
	<line id="XMLID_167_" class="error-404-34" x1="518.8" y1="213.1" x2="535.7" y2="213.1"/>
	<line id="XMLID_166_" class="error-404-34" x1="499.2" y1="213.1" x2="507.6" y2="213.1"/>
	<line id="XMLID_4_" class="error-404-34" x1="485.8" y1="213.1" x2="494.2" y2="213.1"/>
	<line id="XMLID_3_" class="error-404-34" x1="472.3" y1="213.1" x2="480.4" y2="213.1"/>
	<line id="XMLID_2_" class="error-404-34" x1="458.5" y1="213.1" x2="466.9" y2="213.1"/>
	<line id="XMLID_1_" class="error-404-34" x1="445.1" y1="213.1" x2="453.5" y2="213.1"/>
</g>
<g id="Paarachute">
	<g id="XMLID_893_">
		<path id="XMLID_906_" class="error-404-32" d="M1756,210.4h7.7V210c0-2.7,3.8-7.3,6.1-9.6c2.7-3.1,4.6-7.7,4.6-12.3
			c0-10.4-8.4-18.4-18.4-18.4L1756,210.4L1756,210.4z"/>
		<path id="XMLID_903_" class="error-404-18" d="M1756,210.4h-7.7V210c0-2.7-3.8-7.3-6.1-9.6c-2.7-3.1-4.6-7.7-4.6-12.3
			c0-10.4,8.4-18.4,18.4-18.4L1756,210.4z"/>
		<path id="XMLID_902_" class="error-404-18" d="M1756,210.4h4.6V210c0-2.7,2.3-7.3,3.5-9.6c1.5-3.1,2.7-7.7,2.7-12.3
			c0-10.4-4.6-18.4-10.8-18.4L1756,210.4z"/>
		<path id="XMLID_898_" class="error-404-32" d="M1756,210.4h-4.6V210c0-2.7-2.3-7.3-3.5-9.6c-1.5-3.1-2.7-7.7-2.7-12.3
			c0-10.4,4.6-18.4,10.8-18.4L1756,210.4z"/>
	</g>
	<g id="XMLID_884_">
		<path id="XMLID_892_" class="error-404-18" d="M1758.3,235h-3.5c-2.7,0-5-2.3-5-5v-6.5h13.4v6.5C1763.3,232.7,1761,235,1758.3,235z"/>
		<path id="XMLID_891_" class="error-404-35" d="M1751.4,230v-6.5h-1.9v6.5c0,2.7,2.3,5,5,5h1.9C1753.7,235,1751.4,232.7,1751.4,230z"/>
		<path id="XMLID_890_" class="error-404-35" d="M1760.3,223.5v6.5c0,2.7-2.3,5-5,5h3.1c2.7,0,5-2.3,5-5v-6.5H1760.3z"/>
		<polygon id="XMLID_889_" class="error-404-36" points="1749.5,226.6 1763.3,224.6 1763.3,223.5 1749.5,223.5 		"/>
		<path id="XMLID_888_" class="error-404-37" d="M1758.3,235h-3.5c-2.7,0-5-2.3-5-5v-6.5h13.4v6.5C1763.3,232.7,1761,235,1758.3,235z"/>
		<path id="XMLID_887_" class="error-404-18" d="M1763.7,223.5h-14.6c-0.8,0-1.2-0.4-1.2-1.2l0,0c0-0.8,0.4-1.2,1.2-1.2h14.6
			c0.8,0,1.2,0.4,1.2,1.2l0,0C1764.9,223.1,1764.5,223.5,1763.7,223.5z"/>
		<path id="XMLID_885_" class="error-404-37" d="M1763.7,223.5h-14.6c-0.8,0-1.2-0.4-1.2-1.2l0,0c0-0.8,0.4-1.2,1.2-1.2h14.6
			c0.8,0,1.2,0.4,1.2,1.2l0,0C1764.9,223.1,1764.5,223.5,1763.7,223.5z"/>
	</g>
	<line id="XMLID_883_" class="error-404-37" x1="1753.7" y1="210" x2="1753.7" y2="221.2"/>
	<line id="XMLID_882_" class="error-404-37" x1="1758.7" y1="210" x2="1758.7" y2="221.2"/>
	<line id="XMLID_881_" class="error-404-37" x1="1748.4" y1="210" x2="1751.8" y2="221.2"/>
	<line id="XMLID_880_" class="error-404-37" x1="1764.1" y1="210.4" x2="1761" y2="221.2"/>
</g>
<g>
	<g>
		<path class="error-404-1" d="M253.1,782.2L253.1,782.2C253.1,782.2,251.1,783,253.1,782.2z M269.2,766.1c-16.9-17.7-37.6-32.3-60.7-38.8
			c-23.4-6.9-49.9-4.6-70.3,9.2c29.2,30.7,72.2,48,114.8,45.7c6.1,0.4,24.2,0.8,29.2-2.3c1.2-0.8-2.7-5.4-6.1-9.2
			C274.6,769.5,270.3,767.2,269.2,766.1z"/>
		<g class="error-404-2">
			<path class="error-404-3" d="M275.7,770.7c-1.2-1.2-5.4-3.5-6.1-4.6c-16.9-17.7-37.6-32.3-60.7-38.8c-11.5-3.1-23.4-4.2-34.9-3.1
				c13.4,0.4,26.9,4.2,38.8,10.4c21.1,10.8,38,28.4,51.5,48.4c6.9,0,15.4-0.8,18-2.3C283.4,778.8,279.2,774.5,275.7,770.7z"/>
		</g>
		<path class="error-404-1" d="M289.5,729.2c3.5,9.6,8.1,24.2,3.8,33.8c-3.1,7.3-9.2,18.4-16.5,16.9c-6.1-8.1-18.8-25-27.3-31.5
			c-6.9-5.4-17.3-11.1-23.8-16.9c-16.5-14.6-22.7-34.6-31.9-54.5c16.5,1.5,33,4.6,49.2,9.2c10.4,3.1,21.1,6.9,29.2,14.2
			C280.7,707.7,285.7,718.5,289.5,729.2z"/>
		<path class="error-404-4" d="M254.2,748.8c-5.8-6.5-15.4-14.2-20.4-20.7c-11.1-14.6-15-31.1-18.8-48.8c-6.9-1.2-13.4-1.9-20.4-2.7
			c9.2,20,15.4,39.9,31.9,54.5c6.1,5.8,16.9,11.5,23.8,16.9c3.8,3.1,8.8,8.4,13.4,14.2C260.4,757.2,256.9,751.9,254.2,748.8z"/>
		<path class="error-404-1" d="M298,676.6c5.8,15.4,5.4,31.9,5.4,48c0,6.1,1.5,16.5,0,22.3c-1.2,5-4.6,9.6-7.3,13.8
			c-2.7,3.5-5.8-0.8-8.1-4.2c-1.9-3.5-5.8-9.2-4.2-8.1c-2.7-9.2-4.2-15.4-6.9-24.6c-2.3-7.3-4.6-14.6-6.1-21.9
			c-3.1-18.8,0.4-37.6,4.2-56.1C285.3,654,293.4,664.7,298,676.6z"/>
		<g>
			<path class="error-404-5" d="M150.1,739.2c21.1-0.8,41.9,0,62.2,5.8c19.2,5.4,36.9,14.6,53,26.9c0.8,0.8,1.5-0.8,0.8-1.2
				c-15.7-11.9-34.2-21.1-53.4-26.5C192,738.4,171.6,738,150.1,739.2C149.8,738.8,149.8,739.2,150.1,739.2L150.1,739.2z"/>
		</g>
		<g>
			<path class="error-404-5" d="M201.2,683.1c16.9,8.1,32.6,18.8,46.1,31.9c14.6,14.2,24.2,31.1,35.3,48c0,0.4,1.2,0,0.8-0.4
				c-18.8-34.9-44.9-64.1-81.8-79.9C201.2,682.4,200.8,682.8,201.2,683.1L201.2,683.1z"/>
		</g>
		<g>
			<path class="error-404-5" d="M275.7,653.6c11.1,33,24.2,64.5,16.5,99.8c0,0.8,0.8,1.2,1.2,0C300.7,720,290.3,683.9,275.7,653.6
				C275.7,653.2,275.7,653.2,275.7,653.6L275.7,653.6z"/>
		</g>
		<g>
			<path class="error-404-5" d="M165.5,751.1c2.3-2.3,4.6-4.6,6.9-6.5c2.7-1.9,5.4-3.5,8.4-5v-0.4C174.7,741.1,168.6,745.7,165.5,751.1
				C165.1,751.1,165.1,751.1,165.5,751.1L165.5,751.1z"/>
		</g>
		<g>
			<path class="error-404-5" d="M182.4,759.6c5.8-10.8,14.6-13.8,26.1-15.4c0.8,0,0.8-1.2,0-1.2C197.4,744.6,186.2,748,182.4,759.6
				L182.4,759.6L182.4,759.6z"/>
		</g>
		<g>
			<path class="error-404-5" d="M203.5,761.1c6.9-5.4,13.4-13.4,23-10.8c0.4,0,0.8-0.8,0-0.8C217.3,746.9,209.7,754.9,203.5,761.1
				C203.1,761.1,203.1,761.1,203.5,761.1L203.5,761.1z"/>
		</g>
		<g>
			<path class="error-404-5" d="M224.3,771.8c6.1-8.1,15.4-15.4,25.7-9.6c0.8,0,1.2-0.8,0.4-0.8C240.4,756.1,229.6,762.6,224.3,771.8
				C223.9,771.8,224.3,772.2,224.3,771.8L224.3,771.8z"/>
		</g>
		<g>
			<path class="error-404-5" d="M175.9,725.8c1.2,6.9,7.3,10.8,12.7,14.6c0.4,0,0.8-0.4,0.4-0.8C183.6,736.1,178.2,732.3,175.9,725.8
				C176.3,725.8,175.9,725.8,175.9,725.8L175.9,725.8z"/>
		</g>
		<g>
			<path class="error-404-5" d="M198.1,727.3c2.3,6.5,6.9,12.3,11.9,16.9c0.4,0.4,1.2,0,0.8-0.8C205.4,738.8,201.6,733.4,198.1,727.3
				L198.1,727.3L198.1,727.3z"/>
		</g>
		<g>
			<path class="error-404-5" d="M217,735c1.2,3.1,2.7,5.8,4.6,8.4c1.5,1.9,3.8,5.8,6.1,6.5c0,0,0.4,0,0.8,0l0,0v-0.8l0,0c0,0-0.4,0-0.8,0
				l0,0c0,0,0,0.4,0,0.8c0.8,0-2.3-3.5-2.3-3.5c-0.8-1.2-1.9-1.9-2.7-3.1C220.8,740.4,218.9,737.7,217,735
				C217.3,734.6,217,734.6,217,735L217,735z"/>
		</g>
		<g>
			<path class="error-404-5" d="M232.7,742.7c4.2,6.9,10.8,13.4,16.9,18.4c0.8,0.8,1.9-0.4,1.2-1.2c-6.9-5.4-11.9-11.5-17.7-17.7
				C233.1,742.3,232.3,742.7,232.7,742.7L232.7,742.7z"/>
		</g>
		<g>
			<path class="error-404-5" d="M211.2,705c11.9-0.8,21.9,0,32.3,6.1c0.8,0.4,1.2-0.8,0.8-1.2c-9.2-5.8-22.3-9.6-33-5.8
				C210.4,704.6,210.4,705,211.2,705L211.2,705z"/>
		</g>
		<g>
			<path class="error-404-5" d="M229.2,724.6c5.8,0,11.1,0,16.5,1.2c5,1.2,9.6,3.1,14.6,4.6c0.8,0,0.8-0.8,0-1.2c-10-3.5-21.1-8.1-31.9-5.4
				C229.2,724.6,229.2,724.6,229.2,724.6L229.2,724.6z"/>
		</g>
		<g>
			<path class="error-404-5" d="M251.1,741.9c3.8,0,8.1,0.8,11.9,1.2c4.6,0.8,7.3,3.1,10.4,6.5c0.4,0.4,1.2,0,0.8-0.8
				c-2.7-3.1-5.4-5.4-9.6-6.5C260,741.5,255.4,741.1,251.1,741.9C251.1,741.5,251.1,741.9,251.1,741.9L251.1,741.9z"/>
		</g>
		<g>
			<path class="error-404-5" d="M235,691.6c0,4.2,2.3,8.4,4.2,12.7c1.2,2.3,1.9,6.9,5.4,7.3c0,0,0.4,0,0-0.4
				C239.2,706.6,239.2,697.7,235,691.6C235.4,691.2,235,691.2,235,691.6L235,691.6z"/>
		</g>
		<g>
			<path class="error-404-5" d="M252.7,696.6c1.2,11.9,4.6,23.4,8.8,34.2c0,0.4,1.2,0,0.8,0C258,719.6,255.7,708.5,252.7,696.6L252.7,696.6
				L252.7,696.6z"/>
		</g>
		<g>
			<path class="error-404-5" d="M271.9,721.5c0,10,2.3,20,4.2,30c0,0.8,1.2,0.4,1.2,0c-1.9-10-3.1-19.6-4.6-29.6
				C272.3,721.2,271.9,721.2,271.9,721.5L271.9,721.5z"/>
		</g>
		<g>
			<path class="error-404-5" d="M272.3,672c6.9,8.1,12.7,16.5,17.3,26.1c0.4,0.8,1.5,0,1.2-0.8c-4.6-9.6-10.4-18.4-17.7-26.1
				C272.3,671.2,271.9,671.6,272.3,672L272.3,672z"/>
		</g>
		<g>
			<path class="error-404-5" d="M294.9,673.9c-3.5,7.3-4.2,17.3-4.6,25.3c0,0.8,1.2,0.8,1.2,0c0-4.6,0.8-9.2,1.5-14.2
				c0.8-3.8,1.9-7.3,2.3-11.5C295.7,673.5,294.9,673.5,294.9,673.9L294.9,673.9z"/>
		</g>
		<g>
			<path class="error-404-5" d="M282.2,702.3c5.4,8.1,8.4,16.5,12.3,25.3h0.4C293.8,718.5,288.8,708.9,282.2,702.3
				C282.2,702,281.9,702,282.2,702.3L282.2,702.3z"/>
		</g>
		<g>
			<path class="error-404-5" d="M295.3,728.1c2.3-5.8,4.2-11.5,7.3-16.9c0-0.4-0.4-0.8-0.8-0.4C299.1,716.2,295.7,721.9,295.3,728.1
				C294.9,728.4,294.9,728.4,295.3,728.1L295.3,728.1z"/>
		</g>
	</g>
</g>
<g id="XMLID_320_">
	<polygon class="error-404-38" points="265.3,776.8 268.4,793 315.6,793 315.3,784.9 271.1,774.1 	"/>
	<polygon id="XMLID_327_" class="error-404-11" points="297.6,760.3 280.7,759.2 294.1,743.8 	"/>
	<polygon id="XMLID_326_" class="error-404-11" points="284.2,775.3 267.6,774.1 280.7,759.2 	"/>
	<polygon id="XMLID_6_" class="error-404-11" points="316.8,790.3 270.7,790.3 310.7,745 	"/>
	<polygon id="XMLID_324_" class="error-404-39" points="316.8,790.3 284.2,775.3 297.6,759.9 	"/>
	<polygon id="XMLID_323_" class="error-404-39" points="267.6,774.1 270.7,790.3 283.8,775.3 	"/>
	<polygon id="XMLID_5_" class="error-404-39" points="280.7,759.2 284.2,775.3 297.6,760.3 	"/>
	<polygon id="XMLID_321_" class="error-404-39" points="294.1,743.8 297.6,759.9 310.7,745 	"/>
</g>
<path class="error-404-25" d="M1114.8,627.1c0,0-0.4,0-0.8,0c-1.5,0-2.3-0.8-2.7-1.5c0-0.8,0.8-1.9,1.5-3.1c1.2-1.2,2.3-2.3,3.8-3.8
	c0.8-0.4,1.2-1.2,1.9-1.5c0.4-0.4,0.4-0.8,0.8-1.2c1.2-1.5,3.5-3.1,4.6-5c0.4-0.4,0.4-0.8,0.4-1.2c-0.4-0.4-1.5-0.4-2.7-0.4
	c-1.2,0.4-1.9,0.8-2.7,1.2v-0.4c-0.4,0-0.8-0.4-1.5,0h-0.4c-0.4,0-0.8,0.4-0.8,0.4c-0.4,0-0.4-0.4-0.8-0.4c-0.8-0.4-1.9-0.4-2.7-0.4
	c-3.1-0.4-6.5-0.4-10.4,0.4c-0.4,0-0.8,0-1.2,0l0.8-0.8c0.4-0.4,0-0.8-0.8-0.4h-1.2c0,0-0.4,0-0.8,0l-15.7,1.9
	c-0.4,0-1.2,0.4-1.2,0.4l-4.2,3.8c-0.4,0.4,0,0.8,0.8,0.4l9.2,0.4l0.8-0.4l-3.8,3.8c-0.8,0.8-0.4,1.2,1.2,1.2h4.2l-2.3,2.3l-9.2,0.8
	l-11.9,0.8l-0.4,0.4l0,0l-13.4-0.4l-5.4-10.4l1.5-2.3l-0.4-2.3l1.5-1.9l-0.4-1.9c-1.2,0.4-1.5,1.2-1.5,1.5v0.4l-1.5,1.9l0,0h-0.4
	v-0.8l-3.5-1.9l-0.4,0.4c-0.4,0.4-0.4,0.4,0,0.8l2.3,1.5v0.4l-0.4,0.4l-0.8-0.8l-4.6-0.8l-0.8,0.8l3.1,0.4l1.5,0.8l-0.8,0.8
	l-5.4-0.8v0.4c0,0,0,0,0.4,0.4l3.8,0.8l0.4,2.3l1.2,1.2l0.8,11.5l17.7,1.5l0,0l0,0l-0.4,0.4l7.3,1.5l-4.2,3.8
	c-1.5,1.5-2.3,2.7-3.1,4.2l-0.4,1.5l-18.4,16.9h0.4l-1.2,0.8l0,0l-26.1,17.3l-5,17.7l0,0l-1.2,1.2l-10,1.9l0,0l-8.8,1.5
	c0,0,0,0-0.4,0c-0.4,0.4-2.3,2.3,5,1.9c0.8,0,1.5,0.4,2.7,0.4c6.1,0,18.8-0.4,18.8-0.4c1.2-0.4,2.3-1.2,2.7-1.5l0.8-0.8l0,0
	c0,0,0-0.4,0.4-0.4l0,0l0,0l0,0c0-0.4,0-0.4-0.4-0.8l3.5-3.5h-0.8h0.8c0,0,20.4-14.6,22.3-20.7l15.7-12.3l0,0l0.8-0.8l0,0l-0.4,1.2
	c3.5-1.5,6.5-3.1,8.4-5l10.4-10.4c0.8,0,1.5-0.4,2.3-0.4l3.1-1.2l10.8-8.4h1.2l9.2-8.4c0.8-0.8,0.4-1.2-0.4-1.2l-8.4-2.3l3.1-2.7
	c0.4,0,1.2-0.4,1.9-0.4c1.5-0.4,3.5-1.2,5-1.5c-0.8,0.4-1.5,0.8-1.9,1.2c-1.5,1.2-3.1,2.3-2.7,3.5c0,0.4,0.4,0.8,0.8,0.8
	c1.2,0.8,2.7,1.2,4.2,1.5l0,0c0,0,0,0,0.4,0l0,0l0,0c0-0.4,0-0.8,0.4-1.2c0.8,0.4,1.5,0.8,2.3,1.2
	C1111.7,627.5,1112.8,627.5,1114.8,627.1C1114.8,627.5,1114.4,627.1,1114.8,627.1C1114.4,627.1,1114.8,627.1,1114.8,627.1z
	 M1084.4,627.8L1084.4,627.8L1084.4,627.8L1084.4,627.8z M1033,675.5l-0.4,1.2l0,0v0.4l-3.8,4.2l0,0l-1.9,2.3
	c0.8-1.5,0.8-3.1-0.4-4.2L1033,675.5z"/>
<g>
	<g>
		<path class="error-404-40" d="M1009.5,683.5l-0.8,5.4l-14.2,6.9l-10.8,2.3c0,0,0.8,4.6,9.2,5s25-0.8,25-0.8l0,0c1.2-1.2,1.5-2.7,1.5-4.2
			v-1.9c0-1.2-0.8-2.3-1.9-2.7l0,0v-8.8L1009.5,683.5z"/>
		<path class="error-404-41" d="M1019.9,696.2c0-0.4,0-0.8-0.4-1.2c-0.8,0.4-2.3,2.7-3.1,2.7c-5.4,0-11.5,0.8-16.1,0.4
			c-4.6,0-7.3-0.4-8.4-1.5l-8.1,1.9c0,0,0.8,4.6,9.2,5s25-0.8,25-0.8c1.2-1.2,1.5-2.7,1.5-4.2L1019.9,696.2L1019.9,696.2z"/>
		<path class="error-404-11" d="M1000.3,685.4v2.7l-21.1,8.8c0,0-1.2,6.9,11.9,5.4l23-4.6c0,0,0.8-2.7,1.2-5c0.4-1.5-0.4-3.1-1.5-3.8l0,0
			l-4.6-4.6L1000.3,685.4z"/>
		<path class="error-404-26" d="M1015.3,690.4c-1.2,1.9-2.7,3.1-5,3.8l-8.8,2.7c-11.1,1.2-12.3-2.7-12.3-4.2l-10,4.2c0,0-1.2,6.9,11.9,5.4
			l23-4.6c0,0,0.8-2.7,1.2-5C1016.1,692,1015.7,691.2,1015.3,690.4z"/>
		<path class="error-404-10" d="M1021.4,593.7l-3.8,37.6c6.9,16.1,0.4,53.4,0.4,53.4h-8.4l-5-48l-5-13.4L1021.4,593.7z"/>
		<g>
			<path class="error-404-13" d="M1003.8,635.5l13.4-32.6l3.1-2.7c0,0,0,0,0.4-0.4l0.8-6.1l-22.3,29.6L1003.8,635.5z"/>
			<path class="error-404-13" d="M1009.2,684.7h2.3c0,0,1.9-23.8-6.5-37.6L1009.2,684.7z"/>
		</g>
		<path class="error-404-29" d="M994.6,580.6l-13.1,59.9l19.2,44.5l9.2-0.8c0,0,2.3-31.1-10.4-42.6l15.7-38.8l3.1-2.7
			c2.7-2.3,4.6-5.8,4.6-9.2v-13.4L994.6,580.6z"/>
		<g>
			<path class="error-404-42" d="M1036.4,506.1c-1.5-2.3-1.9-5-2.3-7.3c-0.4-3.1-0.4-6.1,0-9.2c0-1.2,0.4-2.7,0-3.8c0-0.8-0.4-1.9-0.8-2.7
				c-0.8-3.8-0.4-8.4-1.2-12.3c0-0.8-0.4-1.9-1.2-2.7c-1.2-1.2-2.7-1.2-3.8-0.8c-1.2,0.8-1.9,1.9-2.3,3.5v-0.4
				c-1.9,5-0.8,10.4-1.9,15.7c-0.8,3.1-1.5,5.8-2.3,8.8c-0.4,3.1-0.4,6.5,1.5,8.8c0.8,0.8,1.5,1.5,2.7,2.3c2.7,1.9,5.4,3.1,8.4,4.2
				c-0.8-0.8-1.5-1.9-1.5-3.1c1.5,1.2,3.1,2.3,5,3.1c1.9,0.8,3.8,0.8,5.8,0C1040.6,510,1038,508.4,1036.4,506.1z"/>
		</g>
		<g>
			<g>
				<path class="error-404-43" d="M1028,506.9c-0.8-0.8-1.9-1.2-2.7-2.3c-1.9-2.3-2.3-5.8-1.5-8.8c0.4-3.1,1.5-5.8,2.3-8.8
					c0.8-5,0-14.6,0-14.6c0-1.5-0.8-1.9-0.8-1.9c-1.9,5-0.8,10.4-1.9,15.7c-0.8,3.1-1.5,5.8-2.3,8.8c-0.4,3.1-0.4,6.5,1.5,8.8
					c0.8,0.8,1.5,1.5,2.7,2.3c2.7,1.9,5.4,3.1,8.4,4.2c0,0,0,0-0.4-0.4C1031.4,508.8,1029.5,508,1028,506.9z"/>
			</g>
			<g>
				<path class="error-404-43" d="M1042.6,510h0.4c-0.4,0-0.8,0-1.2,0C1042.2,510,1042.6,510,1042.6,510z"/>
			</g>
			<g>
				<path class="error-404-43" d="M1034.9,507.6c0,0.4,0,0.8,0.4,1.2c0.8,0.4,1.5,0.8,2.3,1.2c0.8,0,1.2,0.4,1.5,0.4
					C1037.2,509.6,1036,508.8,1034.9,507.6z"/>
			</g>
		</g>
		<g>
			<path class="error-404-42" d="M1024.9,471.2c-0.8,0.4-1.5,0.4-2.3,0s-1.2-0.8-1.9-1.2c-1.2-0.8-3.1-0.8-4.6-1.2c-5-0.8-10.4-1.2-14.2,1.5
				h-0.4c3.8,9.2,8.4,18.4,13.1,27.6c0.8-0.8,1.9-1.5,2.7-2.3c3.8-3.5,8.1-7.3,8.8-12.3C1026.4,479.2,1024.5,475.4,1024.9,471.2z"/>
		</g>
		<rect x="1002.2" y="491.9" class="error-404-11" width="13.4" height="26.9"/>
		<path class="error-404-13" d="M1007.6,499.6l-5-1.2v-6.9h13.4v1.2C1016.1,497.3,1011.8,500.7,1007.6,499.6z"/>
		<path class="error-404-11" d="M993.4,483.8v11.9c0,1.9,1.5,3.1,3.1,3.1h8.1c5,0,8.8-3.8,8.8-8.8v-4.6v-5.8c0-1.5-0.8-3.1-1.9-3.8l-5.4-4.2
			c-1.5-1.2-3.5-1.2-5-0.4C998.8,472.3,995.7,475.8,993.4,483.8z"/>
		<g>
			<path class="error-404-28" d="M1000.7,470l5,2.7c2.3,1.2,3.8,3.1,3.8,5.8v1.9l-12.3-2.7L1000.7,470z"/>
			<path class="error-404-28" d="M979.6,485.4l13.1,1.2l1.2-1.2l5,0.8c0,0,5.8,1.9,11.9-3.1l1.2-4.2l-15.4-7.7L979.6,485.4z"/>
			<path class="error-404-28" d="M982.3,483.1l18.4-5c0.8,0,1.2-0.8,1.2-1.2v-7.7c0-0.8-0.8-1.5-1.9-1.2l-18.4,5c-0.8,0-1.2,0.8-1.2,1.2v7.7
				C980.4,482.3,981.1,483.1,982.3,483.1z"/>
			<path class="error-404-3" d="M1000.7,478.1l23.8,11.5c0,0,0.4,0,0.4-0.4v-4.6l-24.2-11.9V478.1L1000.7,478.1z"/>
			<path class="error-404-28" d="M1022.6,488.8c0,0,0.4,0,0.4-0.4v-4.6l1.5,0.8v4.6c0,0.4-0.4,0.4-0.4,0.4L1022.6,488.8z"/>
			<path class="error-404-28" d="M1019.5,487.3c0,0,0.4,0,0.4-0.4v-4.6l1.5,0.8v4.6c0,0.4-0.4,0.4-0.4,0.4L1019.5,487.3z"/>
			<path class="error-404-28" d="M1016.1,485.8c0,0,0.4,0,0.4-0.4v-4.6l1.5,0.8v4.6c0,0.4-0.4,0.4-0.4,0.4L1016.1,485.8z"/>
			<path class="error-404-28" d="M1012.6,483.8c0,0,0.4,0,0.4-0.4v-4.6l1.5,0.8v4.6c0,0.4-0.4,0.4-0.4,0.4L1012.6,483.8z"/>
			<path class="error-404-28" d="M1009.2,482.3c0,0,0.4,0,0.4-0.4v-4.6l1.5,0.8v4.6c0,0.4-0.4,0.4-0.4,0.4L1009.2,482.3z"/>
			<path class="error-404-28" d="M1005.7,480.8c0,0,0.4,0,0.4-0.4v-4.2l1.5,0.8v4.6c0,0.4-0.4,0.4-0.4,0.4L1005.7,480.8z"/>
			<path class="error-404-28" d="M1002.2,478.8c0,0,0.4,0,0.4-0.4v-4.6l1.5,0.8v4.6c0,0.4-0.4,0.4-0.4,0.4L1002.2,478.8z"/>
			<path class="error-404-3" d="M979.6,485.4l18.4-5c0.8,0,1.2-0.8,1.2-1.2v-10.4c0-0.8-0.8-1.5-1.9-1.2l-18.4,5c-0.8,0-1.2,0.8-1.2,1.2
				v10.4C978,485,978.8,485.8,979.6,485.4z"/>
			<ellipse class="error-404-28" cx="987.6" cy="476.5" rx="1.2" ry="1.9"/>
		</g>
		<path class="error-404-11" d="M1013.8,485c0,0,3.1-2.7,4.6,0v4.2c0,1.5-0.8,3.1-2.3,3.8c-0.8,0.4-1.5,0.4-2.7,0L1013.8,485z"/>
		<path class="error-404-3" d="M1024.9,474.6l-2.7-2.7c-0.8-0.8-0.4-1.5,0-1.9l0.4-0.4c0.8-0.8,1.5-0.4,1.9,0l2.7,2.7c0.8,0.8,0.4,1.5,0,1.9
			l-0.4,0.4C1026.4,475,1025.7,475,1024.9,474.6z"/>
		<path class="error-404-13" d="M1019.5,598.7c1.9-1.9,3.1-5,3.1-7.7v-13.4l-28,3.1l-3.5,15.4v1.5c13.4,3.1,23.8-10.4,23.8-10.4
			L1019.5,598.7z"/>
		<path class="error-404-26" d="M987.6,509.2v26.9c0,3.5,0.8,6.9,1.9,10.4l1.5,3.8v43.4c13.4,3.1,23.8-10.4,23.8-10.4l6.9,17.7l0,0
			c2.7-3.8,4.2-8.4,3.8-12.7l-1.9-39.6l0.8-39.6l-8.4,1.9l-1.2,1.2c-3.5,3.8-9.6,3.5-12.7-1.2l0,0L987.6,509.2z"/>
		<path class="error-404-11" d="M923.5,476.9l-8.1-1.5l0.8,1.2c0,0.4,0.4,0.4,0.8,0.8l6.5,1.9l3.8,5.8l3.5,3.1l18.4,30l26.1,3.8v-13.1
			l-19.2-1.2l-22.3-26.1l-0.8-5.4l-3.5-5.4l-1.2-5.4l-3.8-5c-0.8,1.2-0.8,2.7,0.4,3.8l0.8,1.2l1.2,5l0,0l-0.8-0.4l-0.8-1.5l-7.3-4.6
			v1.2c0,0.8,0.4,1.2,0.8,1.9l5.4,4.2l0.4,1.2l-0.4,0.8l-2.3-1.9l-6.9-1.5v1.9l5,1.2l3.5,2.3"/>
		<path class="error-404-13" d="M933.1,476.2L933.1,476.2L933.1,476.2l-2.7-0.8c-0.8,0-1.2,0-1.5,0.4l-2.3,1.9v0.4l2.3-1.5
			c0.4-0.4,1.2-0.4,1.5-0.4H933.1L933.1,476.2z"/>
		<polygon class="error-404-13" points="972.7,521.1 975.7,521.5 975.7,508.8 974.6,508.8 		"/>
		<polygon class="error-404-26" points="1002.2,504.2 991.1,506.1 975.7,507.6 975.7,522.6 987.6,526.5 1002.2,511.1 		"/>
		<path class="error-404-44" d="M1023.7,548.7v-1.5c-0.4-0.8-0.8-1.2-1.2-1.5c0.4-0.4,0.8-0.8,1.2-0.8v-6.5c-0.4,0-0.8,0-0.8-0.4
			c0.4-0.8,0.4-1.5-0.4-2.3l0,0c0.4-0.4,0.8-0.8,1.5-0.8v-3.1c-0.4-0.4-1.2-0.4-1.9,0c-1.2,0.8-2.7,1.5-3.8,2.3
			c-1.2,0.8-1.2,2.3,0,3.1l0,0c-1.2,0.8-1.2,2.7,0.4,3.1c1.2,0.4,2.7,0.8,3.8,1.2c-1.2,0.8-3.1,1.5-3.8,2.3
			c-0.8,0.8-0.8,1.5-0.4,2.3c0,0.4,0.8,1.2,1.2,1.5c1.5,4.2,0,3.5,0.4,6.5c0,1.2,0.4,2.3,0.8,3.5c-1.9-1.2,3.1,1.2,1.9-1.2
			C1021.4,554.1,1023.7,548.7,1023.7,548.7z"/>
		<path class="error-404-45" d="M1022.6,537.2l-1.5,13.4l-11.5-6.1l-0.8-7.7l-3.1-3.1l-1.2-4.6l-4.6-5.4l0,0c-0.8,1.2-0.4,2.7,0.4,3.8
			l1.5,2.7v6.5l-1.2,0.4l-3.8-5.4l0,0c-1.2,1.2-1.2,2.7-0.8,4.2l8.4,13.4l20,14.6l0,0l-0.8-15v-11.5h-1.2L1022.6,537.2L1022.6,537.2
			z"/>
		<path class="error-404-11" d="M1031.4,535.3l-2.3,21.5l-2.3,3.1c-1.2,1.5-3.1,1.9-4.6,0.8l-17.7-13.8l-8.4-13.4c-0.8-1.2-0.8-3.1,0.8-4.2
			l0,0l3.8,5.4l1.2-0.4v-6.5l-2.3-3.5c-0.8-1.2-0.8-2.3,0-3.1l0.4-0.4l4.6,6.1l1.2,4.6l3.1,3.1l0.8,7.7l11.5,6.1l1.5-13.4
			L1031.4,535.3L1031.4,535.3z"/>
		<polygon class="error-404-13" points="1031.4,535.3 1022.6,535.3 1022.6,537.2 1031,537.2 		"/>
		<path class="error-404-26" d="M1016.1,504.2l15,6.1c1.2,0.8,2.3,1.9,2.3,3.1v21.5h-11.9v-9.6l-5-14.6v-6.5L1016.1,504.2L1016.1,504.2z"/>
	</g>
</g>
</svg>
