<svg xmlns="http://www.w3.org/2000/svg" width="101" height="79" fill="#766df4" fill-rule="evenodd" xmlns:v="https://vecta.io/nano"><path d="M37.313 74.93c17.87 8.716 53.216 3.095 61.932-14.775S82.107 22.098 64.237 13.382 22.223-8.355 13.507 9.515s5.936 56.698 23.806 65.414z" opacity=".1"/><g fill-rule="nonzero"><path d="M22.34 57.718a.83.83 0 0 0 .162-.655c-.152-.885.136-1.8.763-2.396a2.4 2.4 0 0 1 .734-.487 2.3 2.3 0 0 0-2.507.487c-.626.606-.915 1.5-.763 2.396a.84.84 0 0 1-.162.655C20.425 57.9 20.22 58 20 58h1.772a.72.72 0 0 0 .568-.282h0zM16.094 74.05v-14.1c.006-1.07.85-1.944 1.906-1.95h-2.094c-1.057.006-1.9.88-1.906 1.95v14.1c-.004 1.072.85 1.945 1.906 1.95H18c-1.057-.006-1.9-.88-1.906-1.95h0zM37 75.877l.043-5.206a.86.86 0 0 0-.34-.684 1.01 1.01 0 0 0-.783-.194c-.184.03-.37.045-.558.043-1.185-.007-2.264-.636-2.787-1.625s-.4-2.167.318-3.043 1.907-1.3 3.072-1.096a1.01 1.01 0 0 0 .788-.184c.22-.167.35-.417.35-.68l.043-5.2L34.87 58l-.043 5.206a.86.86 0 0 1-.35.68 1.01 1.01 0 0 1-.788.184c-1.16-.196-2.34.23-3.052 1.105s-.834 2.045-.317 3.03 1.587 1.615 2.767 1.63c.187.002.374-.013.558-.043.28-.047.566.024.783.194s.34.42.34.684l-.043 5.206L51.758 76a2.23 2.23 0 0 0 .242-.015l-15-.1zM36.967 38c-1.02.008-1.847.873-1.852 1.942l-.014 2.03c0 .01-.001.017-.002.026a.37.37 0 0 1-.002.034l-.004.03-.005.033-.007.03-.008.032-.02.06c-.003.01-.008.018-.012.027l-.013.028-.015.026-.016.027-.017.024-.018.026-.018.02-.02.024-.02.02-.024.023-.02.016-.026.02-.022.014-.028.018-.024.013-.03.014-.026.01-.03.01-.06.016-.032.005-.028.004-.034.002a.21.21 0 0 0-.025.002l-.712.008c-1.54.012-2.783 1.32-2.785 2.933s1.238 2.924 2.778 2.94l.673.01c.01 0 .02.001.03.002h.03c.01.001.02.004.032.005l.03.005.03.01.027.008.03.012.026.01.03.015.024.013.027.018.023.015.025.02.02.017.023.022.02.02.02.023.02.022.034.05.015.026.015.027.012.027.013.03.01.027.01.032.007.028.008.033.004.03.005.035.003.062-.045 6.86h2.033l.045-6.86-.003-.062-.005-.035-.004-.03-.008-.033-.007-.028-.01-.032-.01-.027-.013-.03-.012-.027L37 48.8l-.015-.026-.035-.05c-.006-.008-.013-.015-.02-.022l-.02-.023v-.02l-.023-.022-.02-.017-.025-.02-.023-.015-.027-.018-.024-.013-.03-.015-.026-.01-.03-.012-.027-.008-.03-.01-.03-.005-.032-.005-.06-.004-.673-.01c-1.54-.015-2.78-1.328-2.778-2.94s1.245-2.92 2.785-2.933l.712-.008c.01 0 .017-.001.025-.002l.034-.002.028-.004.032-.005c.01-.002.02-.005.03-.008l.03-.008.03-.01c.01-.003.018-.007.026-.01l.03-.014.024-.013.028-.018.022-.014.026-.02.02-.016.024-.023.02-.02.02-.024.018-.02.018-.026.017-.024.016-.027.015-.026.013-.028.012-.027a.34.34 0 0 0 .01-.03l.01-.03.008-.032.007-.03.005-.033.004-.03.002-.034c0-.01.001-.017.002-.026l.014-2.03c.005-1.07.83-1.935 1.852-1.942h-2.033z" opacity=".2"/><path d="M51.764 37h-14.5a3.38 3.38 0 0 0-3.358 3.36l-.01 1.466-.117.001c-2.418.014-4.37 1.982-4.374 4.405s1.946 4.396 4.364 4.415h.064l-.044 6.522h-5.66c.026-.362.01-.726-.052-1.084-.33-1.95-1.92-3.436-3.88-3.633-1.227-.126-2.45.28-3.36 1.116a4.43 4.43 0 0 0-1.443 3.274l.012.327H16.43c-1.86.007-3.36 1.522-3.358 3.385V75.36c-.003 1.863 1.5 3.377 3.358 3.385h17.366l17.858.14a3.32 3.32 0 0 0 2.35-.968 3.37 3.37 0 0 0 1.007-2.395l.113-16.948v-18.18c.003-1.863-1.5-3.378-3.358-3.385h0zm-21.036 9.24c-.004-1.692 1.36-3.068 3.048-3.074l.78-.008c.01 0 .018-.001.028-.002l.037-.002.03-.005.035-.006.032-.008.064-.02.03-.01.032-.015.026-.013.03-.018.024-.015.03-.02.022-.017.026-.024.02-.02.023-.025.02-.022.02-.027.018-.025.017-.028.016-.027.014-.03.013-.03c.004-.01.008-.02.01-.03s.007-.02.01-.03l.01-.033.007-.03.006-.034.005-.032.002-.035c0-.01.002-.018.002-.027l.015-2.124a2.04 2.04 0 0 1 2.024-2.033h14.5a2.04 2.04 0 0 1 2.024 2.049v16.84h-4.774c-.276 0-.537.122-.713.334s-.254.5-.203.776c.2 1.048-.17 2.12-.957 2.838a3 3 0 0 1-2.335.774c-1.363-.138-2.466-1.172-2.694-2.526a3.13 3.13 0 0 1 .005-1.086.95.95 0 0 0-.2-.774.93.93 0 0 0-.711-.338l-6.094-.05.046-7.247-.005-.036-.004-.03c-.002-.012-.006-.023-.008-.035l-.007-.03-.01-.033-.01-.03-.014-.03-.013-.028-.017-.03-.016-.027-.038-.052-.02-.023-.022-.025-.022-.02-.025-.023-.023-.018-.028-.02-.025-.015-.03-.02c-.01-.006-.018-.01-.027-.013l-.03-.015-.028-.01-.033-.012-.03-.008-.033-.01-.032-.005-.034-.006-.033-.002-.032-.002-.736-.01a3.06 3.06 0 0 1-3.04-3.073h0zM14.405 75.364V60.568a2.04 2.04 0 0 1 2.024-2.048h3.422c.276 0 .537-.122.713-.334a.96.96 0 0 0 .204-.776c-.2-1.048.17-2.12.957-2.838a3 3 0 0 1 2.335-.774c1.363.138 2.466 1.172 2.694 2.526a3.13 3.13 0 0 1-.004 1.084.95.95 0 0 0 .204.777.93.93 0 0 0 .716.336h6.1l-.04 5.047c-2.375-.194-4.467 1.554-4.703 3.93a4.45 4.45 0 0 0 1.1 3.417 4.37 4.37 0 0 0 3.216 1.459l.32-.01-.04 5.05H16.43a2.04 2.04 0 0 1-2.025-2.048zm39.27.153a2.07 2.07 0 0 1-.6 1.452 2 2 0 0 1-1.414.583h-.016l-16.68-.13L35 71.92a.94.94 0 0 0-.333-.723.93.93 0 0 0-.768-.205 2.92 2.92 0 0 1-.546.046 3.06 3.06 0 0 1-2.73-1.718 3.08 3.08 0 0 1 .312-3.217c.703-.927 1.87-1.375 3-1.158.274.053.557-.018.772-.195a.94.94 0 0 0 .344-.72l.042-5.503 5.645.046a4.49 4.49 0 0 0 .052 1.091c.33 1.95 1.92 3.436 3.88 3.633l.436.02c1.082.003 2.126-.403 2.924-1.136a4.43 4.43 0 0 0 1.443-3.274l-.012-.327h4.315l-.108 16.94zm-3.232-21.17a.67.67 0 0 0 .667-.668v-1.388a.67.67 0 0 0-.667-.668.67.67 0 0 0-.667.668v1.388a.67.67 0 0 0 .667.668zm0-4.738a.67.67 0 0 0 .667-.668v-7.267a.67.67 0 0 0-.667-.668.67.67 0 0 0-.667.668v7.267a.67.67 0 0 0 .667.668h0zm.255 25.824a.67.67 0 0 0 .667-.668v-1.388a.67.67 0 0 0-.667-.668.67.67 0 0 0-.667.668v1.388a.67.67 0 0 0 .667.668h0zm0-4.738a.67.67 0 0 0 .667-.668V62.76a.67.67 0 0 0-.667-.668.67.67 0 0 0-.667.668v7.267a.67.67 0 0 0 .667.668zm-24.342-37.73l-3.152-1.917c1.414-1.965.998-4.687-.94-6.15a4.44 4.44 0 0 0-3.53-.82c-1.242.24-2.324.986-2.98 2.06l-.16.284L13 24.852a3.45 3.45 0 0 0-2.6-.404c-.887.214-1.65.77-2.12 1.544L.5 38.752c-.982 1.6-.472 3.705 1.143 4.695l2.234 1.36c.22.133.484.168.73.096a.91.91 0 0 0 .562-.472 2.77 2.77 0 0 1 2.47-1.55c1.054-.008 2.02.58 2.492 1.514a2.72 2.72 0 0 1-.272 2.884.89.89 0 0 0-.172.71.9.9 0 0 0 .418.603l4.785 2.9c.535.326 1.15.498 1.78.498a3.44 3.44 0 0 0 2.925-1.615l1.634-2.63a.94.94 0 0 0 .104-.767.95.95 0 0 0-.508-.588c-1.566-.73-2.243-2.574-1.516-4.13s2.586-2.237 4.16-1.524a3.19 3.19 0 0 1 .618.381.96.96 0 0 0 .76.194.95.95 0 0 0 .65-.436l1.988-3.2c1.002-1.612.496-3.723-1.13-4.717h0zm-.03 4l-1.76 2.83a4.59 4.59 0 0 0-.515-.283c-1.902-.884-4.17-.34-5.45 1.3a4.46 4.46 0 0 0-.865 3.544c.23 1.25.985 2.343 2.076 3l.03.02-1.4 2.268c-.595.96-1.86 1.26-2.83.675l-4.382-2.665a4.07 4.07 0 0 0-1.404-5.551c-1.914-1.164-4.415-.598-5.63 1.273l-1.83-1.114a2.07 2.07 0 0 1-.69-2.845L9.46 26.68c.282-.466.74-.802 1.275-.93a2.08 2.08 0 0 1 1.565.242l2.986 1.815c.24.147.535.18.803.1s.486-.298.587-.563a3.11 3.11 0 0 1 2.319-1.937c.862-.167 1.756.04 2.452.57a3.11 3.11 0 0 1 1.222 2.18 3.1 3.1 0 0 1-.781 2.37.94.94 0 0 0-.23.764.95.95 0 0 0 .448.672l3.54 2.153a2.07 2.07 0 0 1 .682 2.859h-.001z"/></g></svg>