<svg xmlns="http://www.w3.org/2000/svg" xmlns:xlink="http://www.w3.org/1999/xlink" width="102" height="79" xmlns:v="https://vecta.io/nano"><g fill="#6a9bf4" fill-rule="evenodd"><path d="M37.86 74.797c17.87 8.716 53.216 3.095 61.932-14.775S82.654 21.966 64.784 13.25 22.77-8.487 14.054 9.383 20 66.08 37.86 74.797z" opacity=".1"/><g fill-rule="nonzero"><path d="M3 20h2v58H3c-.552 0-1-.55-1-1.23V21.23c0-.68.448-1.23 1-1.23z" opacity=".1"/><path d="M3.282 79l34.35-.203-.01-1.463-34.347.203a1.8 1.8 0 0 1-1.811-1.782v-53.5a1.8 1.8 0 0 1 1.811-1.782h37.43a1.8 1.8 0 0 1 1.811 1.782v19.5h1.467v-19.5c-.01-1.798-1.475-3.25-3.278-3.245H3.278A3.25 3.25 0 0 0 0 22.245v53.5c.01 1.8 1.478 3.252 3.282 3.245zM4.94 26.032h15.268c.405 0 .733-.328.733-.732s-.328-.732-.733-.732H4.94c-.405 0-.733.328-.733.732s.328.732.733.732zM3.063 70.45c0 .404.328.732.733.732h15.268c.405 0 .733-.328.733-.732s-.328-.732-.733-.732H3.796c-.405 0-.733.328-.733.732z"/><use xlink:href="#B"/><use xlink:href="#B" y="5.644"/><use xlink:href="#B" y="11.288"/><path d="M36.058 47.143H4.25c-.405 0-.733.328-.733.732s.328.732.733.732h31.807c.405 0 .733-.328.733-.732s-.328-.732-.733-.732h0zm.732 6.377c0-.404-.328-.732-.733-.732H4.25c-.405 0-.733.328-.733.732s.328.732.733.732h31.807c.405 0 .733-.328.733-.732zm-3.412 5.642c0-.404-.328-.732-.733-.732H4.25c-.405 0-.733.328-.733.732s.328.732.733.732h28.394c.405 0 .733-.328.733-.732h0zM9.227 64.36c.314-.68.3-1.327-.01-1.824-.27-.42-.76-.705-1.376-.807-.822-.136-1.726.07-2.304.527-.637.503-1 1.372-.982 2.382l-.014-.006a.73.73 0 0 0-.946.39.73.73 0 0 0 .368.954 5.45 5.45 0 0 0 .916.3c.326.797.876 1.43 1.56 1.752a3.24 3.24 0 0 0 1.377.29 3.7 3.7 0 0 0 1.938-.538 3.95 3.95 0 0 0 1.062-1.048l.157-.203a3.32 3.32 0 0 0 .653.452c.605.318 1.278.5 1.962.5a4.49 4.49 0 0 0 2.343-.615.73.73 0 0 0 .259-.997c-.203-.347-.648-.466-.997-.267-.476.28-1.02.425-1.572.416a2.88 2.88 0 0 1-1.3-.326 1.97 1.97 0 0 1-.431-.309 1.3 1.3 0 0 0-.873-.397c-.705-.02-1.1.493-1.372.867a2.59 2.59 0 0 1-.671.689c-.542.34-1.378.413-1.904.164a1.42 1.42 0 0 1-.461-.362c.574-.087 1.117-.317 1.577-.67.445-.353.802-.803 1.045-1.315h0zm-1.95.163a2.11 2.11 0 0 1-1.24.413c-.073-.667.1-1.282.407-1.532a1.5 1.5 0 0 1 .882-.253 1.68 1.68 0 0 1 .273.022c.258.043.367.13.384.157.078.12-.16.766-.706 1.193h0zm50.46 1.047a.71.71 0 0 0-.628-.146l-4.643 1.17-2.535-4.485a2.57 2.57 0 0 1-.151-1.879l.012-.046 2.066-8.838c.552-2.42.318-4.958-.668-7.23a.73.73 0 0 0-.049-.094l-7.86-12.684a.71.71 0 0 0-.99-.228.74.74 0 0 0-.223 1.01l7.83 12.64a10.16 10.16 0 0 1 .562 6.25l-2.06 8.813a4.06 4.06 0 0 0 .258 2.965l.02.035 2.338 4.137-9.55 2.4a6.54 6.54 0 0 0-1.238-2.467l-1.222-1.52a9.13 9.13 0 0 1-.454-9.488l.324-.597a7.84 7.84 0 0 0 .938-3.356l.284-5.933c.1-1.757 1.396-3.2 3.103-3.457l-.392 4.2c-.145 1.565-.148 3.14-.008 4.705a.72.72 0 0 0 .414.6.73.73 0 0 0 .716-.067.74.74 0 0 0 .3-.666 24.31 24.31 0 0 1 .008-4.433l.47-5.05a.74.74 0 0 0-.172-.55.71.71 0 0 0-.508-.252c-2.823-.14-5.228 2.053-5.364 4.9l-.284 5.933a6.36 6.36 0 0 1-.76 2.716l-.324.597a10.61 10.61 0 0 0 .545 11.056l.036.048 1.24 1.542a5.09 5.09 0 0 1 .953 1.89l-2.728.688a.73.73 0 0 0-.545.675l-.342 7.144a.74.74 0 0 0 .197.541.71.71 0 0 0 .52.227l.05-.002L56.82 77.58c.362-.026.648-.325.666-.695L58 66.173a.74.74 0 0 0-.261-.602h0zm-1.654 10.597l-18.154 1.3.276-5.775 18.313-4.62-.435 9.084zm-5.08-4.8c-.033.667.202 1.32.65 1.808a2.5 2.5 0 0 0 1.725.813l.124.003c1.323.005 2.42-1.04 2.493-2.377a2.49 2.49 0 0 0-.65-1.807c-.68-.746-1.735-1-2.68-.67s-1.6 1.217-1.663 2.23h0zm3.323.164c-.03.453-.418.796-.865.765a.83.83 0 0 1-.578-.27.79.79 0 0 1-.209-.576c.03-.436.4-.773.822-.766l.042.001a.83.83 0 0 1 .578.27c.144.155.22.363.2.576h0z"/></g></g><defs ><path id="B" d="M36.058 30.212H4.25c-.405 0-.733.328-.733.732s.328.732.733.732h31.807c.405 0 .733-.328.733-.732s-.328-.732-.733-.732z"/></defs></svg>