<svg xmlns="http://www.w3.org/2000/svg" width="98" height="79" fill="#16c995" fill-rule="evenodd" xmlns:v="https://vecta.io/nano"><path d="M34.313 74.93c17.87 8.716 53.216 3.095 61.932-14.775S79.107 22.098 61.237 13.382 19.223-8.355 10.507 9.515s5.936 56.698 23.806 65.414z" opacity=".1"/><g fill-rule="nonzero"><path d="M29.185 55.925h3.383V78h-3.383zM15.3 45.8h3.383V78H15.3zM2.42 35.075L2.007 78H5.4l.413-42.925zm41.1 29.81L43.343 78h3.383l.165-13.114z" opacity=".2"/><path d="M55.317 63.03h-12.05v-8.337c0-.38-.306-.7-.683-.7H28.8v-9.5c0-.38-.306-.7-.683-.7h-13.32V33.7c0-.38-.306-.7-.683-.7h-13c-.375 0-.68.305-.683.683L0 78.304c-.002.184.07.36.198.492A.68.68 0 0 0 .683 79h54.634c.377 0 .683-.3.683-.7V63.7c0-.38-.306-.7-.683-.7h0zM41.9 55.384v8.337l-.176 13.9H28.8V55.384h13.1zm-14.464-10.2V77.62H14.798V45.185h12.638zM1.8 34.38h11.642v43.24H1.373L1.8 34.38zm52.834 43.24H43.1l.167-13.2h11.377v13.2zm.916-23.888l-5.098-2c-11.818-5.08-22.357-12.96-31.345-23.436H23.3c.375 0 .678-.292.678-.653S23.674 27 23.3 27h-5.62c-.008 0-.016.001-.023.001-.013 0-.026.001-.04.002s-.02.003-.03.004a.59.59 0 0 0-.035.005c-.012.002-.023.005-.033.007s-.02.005-.03.008l-.034.01c-.01.003-.02.007-.03.01s-.023.01-.033.015-.018.008-.027.012-.023.012-.033.02-.016.01-.024.014-.023.015-.033.023-.012.008-.018.013c-.013.01-.023.02-.032.028s-.015.012-.022.02-.01.01-.016.017a.65.65 0 0 0-.1.131l-.002.003c-.006.01-.01.022-.016.033s-.01.017-.013.026a.68.68 0 0 0-.044.155c-.002.01-.004.02-.005.03s-.001.016-.002.025c-.001.014-.002.027-.002.04v5.5c0 .36.304.653.678.653s.678-.292.678-.653v-3.66c9.058 10.46 19.66 18.35 31.54 23.455 1.696.73 3.44 1.4 5.185 2.024a.7.7 0 0 0 .672-.109.64.64 0 0 0 .234-.617.66.66 0 0 0-.441-.501z"/></g></svg>