<svg xmlns="http://www.w3.org/2000/svg" xmlns:xlink="http://www.w3.org/1999/xlink" width="100" height="80" xmlns:v="https://vecta.io/nano"><g fill="#ffbd5c" fill-rule="evenodd"><path d="M36.313 74.93c17.87 8.716 53.216 3.095 61.932-14.775S81.107 22.098 63.237 13.382 21.223-8.355 12.507 9.515s5.936 56.698 23.806 65.414z" opacity=".1"/><g fill-rule="nonzero"><path d="M43 25c-6.627 0-12 5.373-12 12s5.373 12 12 12 12-5.373 12-12c-.008-6.624-5.376-11.992-12-12zm0 22.642c-5.877 0-10.642-4.764-10.642-10.642S37.123 26.358 43 26.358 53.642 31.123 53.642 37A10.66 10.66 0 0 1 43 47.642zm0-16.506c1.442.002 2.6 1.145 2.612 2.555 0 .375.3.68.694.68s.694-.304.694-.68c-.003-1.9-1.395-3.522-3.306-3.854V28.68c0-.375-.3-.68-.694-.68s-.694.304-.694.68v1.158c-2.042.352-3.47 2.174-3.3 4.195s1.9 3.573 3.984 3.573c1.435.002 2.6 1.136 2.608 2.54s-1.142 2.552-2.577 2.57c-.01 0-.02-.001-.03-.001l-.03.001c-1.43-.018-2.58-1.156-2.58-2.555 0-.375-.3-.68-.694-.68s-.694.304-.694.68c.003 1.9 1.395 3.522 3.306 3.854v1.305c0 .375.3.68.694.68s.694-.304.694-.68v-1.305c2.042-.352 3.47-2.174 3.3-4.195s-1.9-3.573-3.984-3.573c-1.436-.01-2.594-1.15-2.594-2.556s1.16-2.546 2.594-2.556zm-3.07 24.18c-2.42-.97-5.63-1.502-9.027-1.502a30.02 30.02 0 0 0-4.752.368V35.647c0-1.624-1.44-3.096-4.057-4.144-2.42-.97-5.62-1.502-9.017-1.502s-6.598.534-9.018 1.502C1.44 32.55 0 34.022 0 35.647V65.43c0 1.624 1.442 3.096 4.06 4.144 2.42.97 5.637 1.502 9.033 1.502a29.5 29.5 0 0 0 4.758-.37v3.645c0 1.624 1.427 3.096 4.045 4.144 2.42.97 5.616 1.502 9 1.502s6.606-.534 9.026-1.502C42.55 77.45 44 75.977 44 74.353v-14.89c0-1.624-1.453-3.096-4.07-4.144zM13.08 31.365c6.903 0 11.714 2.256 11.714 4.28s-4.8 4.28-11.714 4.28-11.713-2.256-11.713-4.28 4.8-4.28 11.713-4.28zM1.364 38.232c.67.583 1.574 1.1 2.695 1.56 2.42.97 5.623 1.502 9.018 1.502s6.596-.534 9.016-1.502c1.12-.45 2-.976 2.692-1.56v2.38c0 2.025-4.808 4.28-11.7 4.28s-11.7-2.256-11.7-4.28v-2.38zm0 4.964c.67.583 1.574 1.1 2.695 1.56 2.42.97 5.623 1.502 9.018 1.502s6.596-.534 9.016-1.502c1.12-.45 2-.976 2.692-1.56v2.38c0 2.025-4.808 4.28-11.7 4.28s-11.7-2.256-11.7-4.28v-2.38zm0 4.964c.67.583 1.574 1.1 2.695 1.56 2.42.97 5.623 1.502 9.018 1.502s6.596-.534 9.016-1.502c1.12-.45 2-.976 2.692-1.56v2.38c0 2.025-4.808 4.28-11.7 4.28s-11.7-2.256-11.7-4.28v-2.38zm0 4.964c.67.583 1.574 1.1 2.695 1.56 2.42.97 5.623 1.502 9.018 1.502s6.596-.534 9.016-1.502c1.12-.45 2-.976 2.692-1.56v1.318a19.71 19.71 0 0 0-2.908.876c-2.583 1.034-4.018 2.48-4.056 4.08a28.18 28.18 0 0 1-4.744.387c-6.903 0-11.713-2.257-11.713-4.28v-2.38zm0 4.964c.67.583 1.574 1.1 2.695 1.56 2.42.97 5.637 1.502 9.033 1.502a29.5 29.5 0 0 0 4.758-.37v3.58c-1.572.263-3.164.393-4.758.387-6.903 0-11.728-2.257-11.728-4.282v-2.38zm0 7.343v-2.38c.67.583 1.574 1.1 2.695 1.56 2.42.97 5.637 1.502 9.033 1.502a29.73 29.73 0 0 0 4.758-.37v3.58c-1.572.263-3.164.393-4.758.387-6.903 0-11.728-2.257-11.728-4.28zm29.56 13.204c-6.903 0-11.7-2.256-11.7-4.28v-2.38c.682.583 1.56 1.1 2.68 1.56 2.42.97 5.616 1.502 9 1.502s6.606-.534 9.026-1.502c1.12-.45 2.02-.976 2.703-1.56v2.38c0 2.025-4.808 4.28-11.7 4.28zm0-4.964c-6.903 0-11.7-2.256-11.7-4.28V67c.682.583 1.56 1.1 2.68 1.56 2.42.97 5.616 1.502 9 1.502s6.606-.534 9.026-1.502c1.12-.45 2.02-.977 2.703-1.56v2.38c0 2.025-4.808 4.28-11.7 4.28zm0-4.964c-6.903 0-11.7-2.256-11.7-4.28v-2.38c.682.583 1.56 1.1 2.68 1.56 2.42.97 5.616 1.502 9 1.502s6.606-.534 9.026-1.502c1.12-.45 2.02-.976 2.703-1.56v2.38c0 2.025-4.808 4.28-11.7 4.28zm-.026-4.964c-6.903 0-11.713-2.256-11.713-4.28s4.8-4.28 11.713-4.28 11.714 2.256 11.714 4.28-4.8 4.28-11.714 4.28z"/><path d="M4.3 36c0-1.787 4.338-3.765 10.7-3.98a34.9 34.9 0 0 0-1.15-.02C6.867 32 2 34.108 2 36s4.867 4 11.85 4a33.03 33.03 0 0 0 1.15-.02C8.64 39.765 4.3 37.786 4.3 36zm0 4.5v-1.048C3.468 39.1 2.693 38.6 2 38v2.5C2 42.63 6.865 45 13.85 45a28.53 28.53 0 0 0 1.15-.022C8.637 44.735 4.3 42.5 4.3 40.5zm0 5v-1.047C3.468 44.1 2.693 43.6 2 43v2.5C2 47.63 6.865 50 13.85 50a28.53 28.53 0 0 0 1.15-.022C8.637 49.735 4.3 47.5 4.3 45.5zm0 5v-1.048A8.97 8.97 0 0 1 2 48v2.5C2 52.63 6.865 55 13.85 55a28.53 28.53 0 0 0 1.15-.022C8.637 54.735 4.3 52.5 4.3 50.5zm.002 5v-1.048C3.47 54.1 2.693 53.6 2 53v2.5C2 57.63 6.87 60 13.858 60A28.75 28.75 0 0 0 15 59.978C8.64 59.733 4.302 57.5 4.302 55.5zm-.002 5v-1.048A8.97 8.97 0 0 1 2 58v2.5C2 62.628 6.878 65 13.857 65c.383 0 .764-.008 1.143-.022-6.356-.244-10.7-2.47-10.7-4.477zm0 5v-1.048A8.97 8.97 0 0 1 2 63v2.5C2 67.63 6.878 70 13.857 70c.383 0 .764-.007 1.143-.022-6.356-.244-10.7-2.47-10.7-4.477z" opacity=".2"/><use xlink:href="#B" opacity=".2"/><use xlink:href="#B" y="-5" opacity=".2"/><use xlink:href="#B" y="-10" opacity=".2"/><path d="M21.3 60c0-1.787 4.338-3.765 10.7-3.98a34.32 34.32 0 0 0-1.15-.02C23.867 56 19 58.108 19 60s4.867 4 11.85 4a33.03 33.03 0 0 0 1.15-.02c-6.36-.216-10.7-2.194-10.7-3.98zm24.012-14.096c-4.848.001-9.12-2.986-10.5-7.346S35.238 29.498 39.3 27c-4 1.333-6.804 4.703-7.233 8.658s1.604 7.788 5.225 9.85A11.58 11.58 0 0 0 49 45.304a11.57 11.57 0 0 1-3.688.6h0z" opacity=".2"/></g></g><defs ><path id="B" d="M21.3 74.5v-1.04c-.83-.367-1.607-.86-2.3-1.46v2.5c0 2.128 4.865 4.5 11.85 4.5.4 0 .774-.007 1.15-.022-6.363-.243-10.7-2.468-10.7-4.477z"/></defs></svg>