<?xml version="1.0" standalone="no"?>
<!DOCTYPE svg PUBLIC "-//W3C//DTD SVG 1.1//EN" "http://www.w3.org/Graphics/SVG/1.1/DTD/svg11.dtd" >
<svg xmlns="http://www.w3.org/2000/svg" xmlns:xlink="http://www.w3.org/1999/xlink" version="1.1">
<metadata>
Created by FontForge 20190112 at Mon Jan 28 12:50:08 2019
 By Robert Madole
Copyright (c) Font Awesome
</metadata>
<defs>
<font id="FontAwesome5Pro-Solid" horiz-adv-x="512" >
  <font-face 
    font-family="Font Awesome 5 Pro Solid"
    font-weight="900"
    font-stretch="normal"
    units-per-em="512"
    panose-1="2 0 5 3 0 0 0 0 0 0"
    ascent="448"
    descent="-64"
    bbox="-0.983398 -64.9834 640.104 448.427"
    underline-thickness="25"
    underline-position="-51"
    unicode-range="U+0020-F833"
  />
    <missing-glyph />
    <glyph glyph-name="glass-martini" unicode="&#xf000;" 
d="M502.05 390.4l-214.05 -214.04v-192.36h56c22.0898 0 40 -17.9102 40 -40c0 -4.41992 -3.58008 -8 -8 -8h-240c-4.41992 0 -8 3.58008 -8 8c0 22.0898 17.9102 40 40 40h56v192.36l-214.05 214.04c-21.25 21.2598 -6.2002 57.5996 23.8496 57.5996h444.4
c30.0498 0 45.0996 -36.3398 23.8496 -57.5996z" />
    <glyph glyph-name="music" unicode="&#xf001;" 
d="M511.99 415.99l0.00976562 -351.99c0 -35.3496 -42.9805 -64 -96 -64s-96 28.6504 -96 64s42.9805 64 96 64c11.2803 0 21.9502 -1.54004 32 -3.91992v184.63l-256 -75.0195v-233.69c0 -35.3496 -42.9805 -64 -96 -64s-96 28.6504 -96 64s42.9805 64 96 64
c11.2803 0 21.9502 -1.54004 32 -3.91992v261.42c0 14 9.09961 26.2998 22.4004 30.5l319.989 94.5c20.5 6.5 41.6006 -8.7998 41.6006 -30.5098z" />
    <glyph glyph-name="search" unicode="&#xf002;" horiz-adv-x="511" 
d="M505 5.2998c9.2998 -9.39941 9.2998 -24.5996 -0.0996094 -34l-28.3008 -28.2998c-9.2998 -9.40039 -24.5 -9.40039 -33.8994 0l-99.7002 99.7002c-4.5 4.5 -7 10.5996 -7 17v16.2998c-35.2998 -27.5996 -79.7002 -44 -128 -44c-114.9 0 -208 93.0996 -208 208
s93.0996 208 208 208s208 -93.0996 208 -208c0 -48.2998 -16.4004 -92.7002 -44 -128h16.2998c6.40039 0 12.5 -2.5 17 -7zM208 112c70.7998 0 128 57.2998 128 128c0 70.7998 -57.2998 128 -128 128c-70.7998 0 -128 -57.2998 -128 -128c0 -70.7998 57.2998 -128 128 -128z
" />
    <glyph glyph-name="heart" unicode="&#xf004;" 
d="M462.3 385.4c62.7998 -53.6006 66.1006 -149.801 9.7998 -207.9l-193.5 -199.8c-12.5 -12.9004 -32.7998 -12.9004 -45.2998 0l-193.5 199.8c-56.2002 58.0996 -52.8994 154.3 9.90039 207.9c54.7998 46.6992 136.399 38.2998 186.6 -13.6006l19.7002 -20.2998
l19.7002 20.2998c50.2998 51.9004 131.8 60.2998 186.6 13.6006z" />
    <glyph glyph-name="star" unicode="&#xf005;" horiz-adv-x="576" 
d="M259.3 430.2c11.7998 23.8994 45.7002 23.5996 57.4004 0l65.2998 -132.4l146.1 -21.2998c26.2002 -3.7998 36.7002 -36.0996 17.7002 -54.5996l-105.7 -103l25 -145.5c4.5 -26.3008 -23.1992 -45.9004 -46.3994 -33.7002l-130.7 68.7002l-130.7 -68.7002
c-23.2002 -12.2998 -50.8994 7.39941 -46.3994 33.7002l25 145.5l-105.7 103c-19 18.5 -8.5 50.7998 17.7002 54.5996l146.1 21.2998z" />
    <glyph glyph-name="user" unicode="&#xf007;" horiz-adv-x="448" 
d="M224 192c-70.7002 0 -128 57.2998 -128 128s57.2998 128 128 128s128 -57.2998 128 -128s-57.2998 -128 -128 -128zM313.6 160c74.2002 0 134.4 -60.2002 134.4 -134.4v-41.5996c0 -26.5 -21.5 -48 -48 -48h-352c-26.5 0 -48 21.5 -48 48v41.5996
c0 74.2002 60.2002 134.4 134.4 134.4h16.6992c22.3008 -10.2002 46.9004 -16 72.9004 -16s50.7002 5.7998 72.9004 16h16.6992z" />
    <glyph glyph-name="film" unicode="&#xf008;" 
d="M488 384c13.2998 0 24 -10.7002 24 -24v-336c0 -13.2998 -10.7002 -24 -24 -24h-8v20c0 6.59961 -5.40039 12 -12 12h-40c-6.59961 0 -12 -5.40039 -12 -12v-20h-320v20c0 6.59961 -5.40039 12 -12 12h-40c-6.59961 0 -12 -5.40039 -12 -12v-20h-8
c-13.2998 0 -24 10.7002 -24 24v336c0 13.2998 10.7002 24 24 24h8v-20c0 -6.59961 5.40039 -12 12 -12h40c6.59961 0 12 5.40039 12 12v20h320v-20c0 -6.59961 5.40039 -12 12 -12h40c6.59961 0 12 5.40039 12 12v20h8zM96 76v40c0 6.59961 -5.40039 12 -12 12h-40
c-6.59961 0 -12 -5.40039 -12 -12v-40c0 -6.59961 5.40039 -12 12 -12h40c6.59961 0 12 5.40039 12 12zM96 172v40c0 6.59961 -5.40039 12 -12 12h-40c-6.59961 0 -12 -5.40039 -12 -12v-40c0 -6.59961 5.40039 -12 12 -12h40c6.59961 0 12 5.40039 12 12zM96 268v40
c0 6.59961 -5.40039 12 -12 12h-40c-6.59961 0 -12 -5.40039 -12 -12v-40c0 -6.59961 5.40039 -12 12 -12h40c6.59961 0 12 5.40039 12 12zM368 60v96c0 6.59961 -5.40039 12 -12 12h-200c-6.59961 0 -12 -5.40039 -12 -12v-96c0 -6.59961 5.40039 -12 12 -12h200
c6.59961 0 12 5.40039 12 12zM368 228v96c0 6.59961 -5.40039 12 -12 12h-200c-6.59961 0 -12 -5.40039 -12 -12v-96c0 -6.59961 5.40039 -12 12 -12h200c6.59961 0 12 5.40039 12 12zM480 76v40c0 6.59961 -5.40039 12 -12 12h-40c-6.59961 0 -12 -5.40039 -12 -12v-40
c0 -6.59961 5.40039 -12 12 -12h40c6.59961 0 12 5.40039 12 12zM480 172v40c0 6.59961 -5.40039 12 -12 12h-40c-6.59961 0 -12 -5.40039 -12 -12v-40c0 -6.59961 5.40039 -12 12 -12h40c6.59961 0 12 5.40039 12 12zM480 268v40c0 6.59961 -5.40039 12 -12 12h-40
c-6.59961 0 -12 -5.40039 -12 -12v-40c0 -6.59961 5.40039 -12 12 -12h40c6.59961 0 12 5.40039 12 12z" />
    <glyph glyph-name="th-large" unicode="&#xf009;" 
d="M296 416h192c13.2549 0 24 -10.7451 24 -24v-160c0 -13.2549 -10.7451 -24 -24 -24h-192c-13.2549 0 -24 10.7451 -24 24v160c0 13.2549 10.7451 24 24 24zM216 416c13.2549 0 24 -10.7451 24 -24v-160c0 -13.2549 -10.7451 -24 -24 -24h-192
c-13.2549 0 -24 10.7451 -24 24v160c0 13.2549 10.7451 24 24 24h192zM0 152c0 13.2549 10.7451 24 24 24h192c13.2549 0 24 -10.7451 24 -24v-160c0 -13.2549 -10.7451 -24 -24 -24h-192c-13.2549 0 -24 10.7451 -24 24v160zM296 -32c-13.2549 0 -24 10.7451 -24 24v160
c0 13.2549 10.7451 24 24 24h192c13.2549 0 24 -10.7451 24 -24v-160c0 -13.2549 -10.7451 -24 -24 -24h-192z" />
    <glyph glyph-name="th" unicode="&#xf00a;" 
d="M149.333 392v-80c0 -13.2549 -10.7451 -24 -24 -24h-101.333c-13.2549 0 -24 10.7451 -24 24v80c0 13.2549 10.7451 24 24 24h101.333c13.2549 0 24 -10.7451 24 -24zM330.667 152c0 -13.2549 -10.7451 -24 -24.001 -24h-101.333c-13.2549 0 -24 10.7451 -24 24v80
c0 13.2549 10.7451 24 24 24h101.334c13.2549 0 24 -10.7451 24 -24v-80zM362.667 392c0 13.2549 10.7451 24 24 24h101.333c13.2549 0 24 -10.7451 24 -24v-80c0 -13.2549 -10.7451 -24 -24 -24h-101.333c-13.2549 0 -24 10.7451 -24 24v80zM330.667 312
c0 -13.2549 -10.7451 -24 -24.001 -24h-101.333c-13.2549 0 -24 10.7451 -24 24v80c0 13.2549 10.7451 24 24 24h101.334c13.2549 0 24 -10.7451 24 -24v-80zM125.333 256c13.2549 0 24 -10.7451 24 -24v-80c0 -13.2549 -10.7451 -24 -24 -24h-101.333
c-13.2549 0 -24 10.7451 -24 24v80c0 13.2549 10.7451 24 24 24h101.333zM0 72c0 13.2549 10.7451 24 24 24h101.333c13.2549 0 24 -10.7451 24 -24v-80c0 -13.2549 -10.7451 -24 -24 -24h-101.333c-13.2549 0 -24 10.7451 -24 24v80zM386.667 128
c-13.2549 0 -24 10.7451 -24 24v80c0 13.2549 10.7451 24 24 24h101.333c13.2549 0 24 -10.7451 24 -24v-80c0 -13.2549 -10.7451 -24 -24 -24h-101.333zM386.667 -32c-13.2549 0 -24 10.7451 -24 24v80c0 13.2549 10.7451 24 24 24h101.333c13.2549 0 24 -10.7451 24 -24
v-80c0 -13.2549 -10.7451 -24 -24 -24h-101.333zM181.333 72c0 13.2549 10.7451 24 24 24h101.333c13.2549 0 24 -10.7451 24 -24v-80c0 -13.2549 -10.7451 -24 -24 -24h-101.333c-13.2549 0 -24 10.7451 -24 24v80z" />
    <glyph glyph-name="th-list" unicode="&#xf00b;" 
d="M149.333 232v-80c0 -13.2549 -10.7451 -24 -24 -24h-101.333c-13.2549 0 -24 10.7451 -24 24v80c0 13.2549 10.7451 24 24 24h101.333c13.2549 0 24 -10.7451 24 -24zM0 72c0 13.2549 10.7451 24 24 24h101.333c13.2549 0 24 -10.7451 24 -24v-80
c0 -13.2549 -10.7451 -24 -24 -24h-101.333c-13.2549 0 -24 10.7451 -24 24v80zM125.333 416c13.2549 0 24 -10.7451 24 -24v-80c0 -13.2549 -10.7451 -24 -24 -24h-101.333c-13.2549 0 -24 10.7451 -24 24v80c0 13.2549 10.7451 24 24 24h101.333zM205.333 -32
c-13.2549 0 -24 10.7451 -24 24v80c0 13.2549 10.7451 24 24 24h282.667c13.2549 0 24 -10.7451 24 -24v-80c0 -13.2549 -10.7451 -24 -24 -24h-282.667zM181.333 392c0 13.2549 10.7451 24 24 24h282.667c13.2549 0 24 -10.7451 24 -24v-80
c0 -13.2549 -10.7451 -24 -24 -24h-282.667c-13.2549 0 -24 10.7451 -24 24v80zM205.333 128c-13.2549 0 -24 10.7451 -24 24v80c0 13.2549 10.7451 24 24 24h282.667c13.2549 0 24 -10.7451 24 -24v-80c0 -13.2549 -10.7451 -24 -24 -24h-282.667z" />
    <glyph glyph-name="check" unicode="&#xf00c;" 
d="M173.898 8.5957l-166.4 166.4c-9.99707 9.99707 -9.99707 26.2061 0 36.2041l36.2031 36.2041c9.99707 9.99805 26.207 9.99805 36.2041 0l112.095 -112.095l240.095 240.095c9.99707 9.99707 26.207 9.99707 36.2041 0l36.2031 -36.2041
c9.99707 -9.99707 9.99707 -26.2061 0 -36.2041l-294.4 -294.401c-9.99805 -9.99707 -26.207 -9.99707 -36.2031 0.000976562z" />
    <glyph glyph-name="times" unicode="&#xf00d;" horiz-adv-x="352" 
d="M242.72 192l100.07 -100.07c12.2803 -12.29 12.2803 -32.1992 0 -44.4795l-22.2402 -22.2402c-12.2803 -12.2803 -32.2002 -12.2803 -44.4795 0l-100.07 100.07l-100.07 -100.07c-12.2793 -12.2803 -32.1992 -12.2803 -44.4795 0l-22.2402 22.2402
c-12.2803 12.29 -12.2803 32.2002 0 44.4795l100.07 100.07l-100.07 100.07c-12.2803 12.29 -12.2803 32.1992 0 44.4795l22.2402 22.2402c12.29 12.2803 32.2002 12.2803 44.4795 0l100.07 -100.07l100.07 100.07c12.29 12.2803 32.1992 12.2803 44.4795 0
l22.2402 -22.2402c12.2803 -12.29 12.2803 -32.2002 0 -44.4795z" />
    <glyph glyph-name="search-plus" unicode="&#xf00e;" horiz-adv-x="511" 
d="M304 256v-32c0 -6.59961 -5.40039 -12 -12 -12h-56v-56c0 -6.59961 -5.40039 -12 -12 -12h-32c-6.59961 0 -12 5.40039 -12 12v56h-56c-6.59961 0 -12 5.40039 -12 12v32c0 6.59961 5.40039 12 12 12h56v56c0 6.59961 5.40039 12 12 12h32c6.59961 0 12 -5.40039 12 -12
v-56h56c6.59961 0 12 -5.40039 12 -12zM505 -28.7002l-28.2998 -28.2998c-9.40039 -9.40039 -24.6006 -9.40039 -33.9004 0l-99.7998 99.7002c-4.5 4.5 -7 10.5996 -7 17v16.2998c-35.2998 -27.5996 -79.7002 -44 -128 -44c-114.9 0 -208 93.0996 -208 208
s93.0996 208 208 208s208 -93.0996 208 -208c0 -48.2998 -16.4004 -92.7002 -44 -128h16.2998c6.40039 0 12.5 -2.5 17 -7l99.7002 -99.7002c9.2998 -9.39941 9.2998 -24.5996 0 -34zM344 240c0 75.2002 -60.7998 136 -136 136s-136 -60.7998 -136 -136
s60.7998 -136 136 -136s136 60.7998 136 136z" />
    <glyph glyph-name="search-minus" unicode="&#xf010;" horiz-adv-x="511" 
d="M304 256v-32c0 -6.59961 -5.40039 -12 -12 -12h-168c-6.59961 0 -12 5.40039 -12 12v32c0 6.59961 5.40039 12 12 12h168c6.59961 0 12 -5.40039 12 -12zM505 -28.7002l-28.2998 -28.2998c-9.40039 -9.40039 -24.6006 -9.40039 -33.9004 0l-99.7998 99.7002
c-4.5 4.5 -7 10.5996 -7 17v16.2998c-35.2998 -27.5996 -79.7002 -44 -128 -44c-114.9 0 -208 93.0996 -208 208s93.0996 208 208 208s208 -93.0996 208 -208c0 -48.2998 -16.4004 -92.7002 -44 -128h16.2998c6.40039 0 12.5 -2.5 17 -7l99.7002 -99.7002
c9.2998 -9.39941 9.2998 -24.5996 0 -34zM344 240c0 75.2002 -60.7998 136 -136 136s-136 -60.7998 -136 -136s60.7998 -136 136 -136s136 60.7998 136 136z" />
    <glyph glyph-name="power-off" unicode="&#xf011;" horiz-adv-x="511" 
d="M400 393.9c63 -45 104 -118.601 104 -201.9c0 -136.8 -110.8 -247.7 -247.5 -248c-136.5 -0.299805 -248.3 111 -248.5 247.6c-0.0996094 83.3008 40.9004 157.101 103.8 202.2c11.7002 8.2998 28 4.7998 35 -7.7002l15.7998 -28.0996
c5.90039 -10.5 3.10059 -23.7998 -6.59961 -31c-41.5 -30.7998 -68 -79.5996 -68 -134.9c-0.0996094 -92.2998 74.5 -168.1 168 -168.1c91.5996 0 168.6 74.2002 168 169.1c-0.299805 51.8008 -24.7002 101.801 -68.0996 134c-9.7002 7.2002 -12.4004 20.5 -6.5 30.9004
l15.7998 28.0996c7 12.4004 23.2002 16.1006 34.7998 7.80078zM296 184c0 -13.2998 -10.7002 -24 -24 -24h-32c-13.2998 0 -24 10.7002 -24 24v240c0 13.2998 10.7002 24 24 24h32c13.2998 0 24 -10.7002 24 -24v-240z" />
    <glyph glyph-name="signal" unicode="&#xf012;" horiz-adv-x="640" 
d="M216 160c8.83984 0 16 -7.16016 16 -16v-192c0 -8.83984 -7.16016 -16 -16 -16h-48c-8.83984 0 -16 7.16016 -16 16v192c0 8.83984 7.16016 16 16 16h48zM88 64c8.83984 0 16 -7.16016 16 -16v-96c0 -8.83984 -7.16016 -16 -16 -16h-48c-8.83984 0 -16 7.16016 -16 16v96
c0 8.83984 7.16016 16 16 16h48zM344 256c8.83984 0 16 -7.16016 16 -16v-288c0 -8.83984 -7.16016 -16 -16 -16h-48c-8.83984 0 -16 7.16016 -16 16v288c0 8.83984 7.16016 16 16 16h48zM472 352c8.83984 0 16 -7.16016 16 -16v-384c0 -8.83984 -7.16016 -16 -16 -16h-48
c-8.83984 0 -16 7.16016 -16 16v384c0 8.83984 7.16016 16 16 16h48zM600 448c8.83984 0 16 -7.16016 16 -16v-480c0 -8.83984 -7.16016 -16 -16 -16h-48c-8.83984 0 -16 7.16016 -16 16v480c0 8.83984 7.16016 16 16 16h48z" />
    <glyph glyph-name="cog" unicode="&#xf013;" 
d="M487.4 132.3c4.89941 -2.7998 7.09961 -8.59961 5.59961 -14.0996c-11.0996 -35.7002 -30 -67.9004 -54.7002 -94.6006c-3.7998 -4.19922 -9.89941 -5.09961 -14.7998 -2.2998l-42.5996 24.6006c-18 -15.3008 -38.6006 -27.2002 -60.8008 -35.1006v-49.2002
c0 -5.59961 -3.89941 -10.5 -9.39941 -11.6992c-34.9004 -7.80078 -72.5 -8.2002 -109.2 0c-5.5 1.19922 -9.40039 6.09961 -9.40039 11.6992v49.2002c-22.2998 7.7998 -42.8994 19.7002 -60.7998 35.1006l-42.5996 -24.6006c-4.7998 -2.7998 -11 -1.7998 -14.7998 2.2998
c-24.7002 26.8008 -43.6006 59 -54.7002 94.6006c-1.60059 5.39941 0.599609 11.2002 5.5 14l42.5996 24.5996c-4.2998 23.2002 -4.2998 47 0 70.2002l-42.5996 24.5996c-4.90039 2.80078 -7.2002 8.60059 -5.5 14c11.0996 35.7002 30 67.9004 54.7002 94.6006
c3.7998 4.2002 9.89941 5.09961 14.7998 2.2998l42.5 -24.5996c18 15.2998 38.5996 27.1992 60.7998 35.0996v49.2002c0 5.59961 3.90039 10.5 9.40039 11.7002c34.8994 7.7998 72.5 8.19922 109.199 0c5.5 -1.2002 9.40039 -6.10059 9.40039 -11.7002v-49.1006
c22.2998 -7.7998 42.9004 -19.6992 60.7998 -35.0996l42.6006 24.5996c4.7998 2.80078 11 1.80078 14.7998 -2.2998c24.7002 -26.7998 43.5996 -59 54.7002 -94.5996c1.59961 -5.40039 -0.600586 -11.2002 -5.5 -14l-42.6006 -24.6006
c4.2998 -23.1992 4.2998 -47 0 -70.1992zM256 112c44.0996 0 80 35.9004 80 80s-35.9004 80 -80 80s-80 -35.9004 -80 -80s35.9004 -80 80 -80z" />
    <glyph glyph-name="home" unicode="&#xf015;" horiz-adv-x="576" 
d="M280.37 299.74c1.84863 1.49023 5.27539 2.69922 7.64941 2.69922c2.375 0 5.80176 -1.20898 7.65039 -2.69922l184.33 -151.74v-164c0 -8.83203 -7.16797 -16 -16 -16l-112.02 0.30957h-0.000976562c-8.83203 0 -16 7.16797 -16 16
c0 0.0146484 0 0.0371094 0.000976562 0.0507812v95.6396c0 8.83203 -7.16895 16 -16 16h-64c-8.83203 0 -16 -7.16797 -16 -16v-95.71v0c0 -8.78809 -7.13281 -15.9561 -15.9209 -16l-112.06 -0.290039c-8.83203 0 -16 7.16797 -16 16v163.89zM571.6 196.53
c2.44531 -1.98828 4.42969 -6.15918 4.42969 -9.31055c0 -2.37305 -1.22266 -5.78613 -2.72949 -7.62012l-25.5 -31c-1.98633 -2.40332 -6.13086 -4.35449 -9.24902 -4.35449c-2.38574 0 -5.81348 1.23438 -7.65039 2.75488l-235.23 193.74
c-1.84863 1.49023 -5.27539 2.69922 -7.65039 2.69922c-2.37402 0 -5.80078 -1.20898 -7.64941 -2.69922l-235.22 -193.74c-1.83691 -1.5166 -5.26074 -2.74805 -7.64258 -2.74805c-3.12793 0 -7.28027 1.96191 -9.26758 4.37793l-25.5 31
c-1.52051 1.83789 -2.75488 5.26562 -2.75488 7.65039c0 3.11914 1.95117 7.2627 4.35449 9.25l253.13 208.47c7.33594 6.03613 21 10.9355 30.5 10.9355c9.50098 0 23.1641 -4.89941 30.5 -10.9355l89.5303 -73.6602v72.6104c0 6.62402 5.37598 12 12 12h56
c6.62402 0 12 -5.37598 12 -12v-138.51z" />
    <glyph glyph-name="clock" unicode="&#xf017;" 
d="M256 440c137 0 248 -111 248 -248s-111 -248 -248 -248s-248 111 -248 248s111 248 248 248zM313.1 89.9004c5.40039 -3.90039 12.9004 -2.7002 16.8008 2.59961l28.1992 38.7998c3.90039 5.40039 2.80078 12.9004 -2.59961 16.7998l-63.5 46.2002v137.7
c0 6.59961 -5.40039 12 -12 12h-48c-6.59961 0 -12 -5.40039 -12 -12v-168.3c0 -3.7998 1.7998 -7.40039 4.90039 -9.7002z" />
    <glyph glyph-name="road" unicode="&#xf018;" horiz-adv-x="576" 
d="M573.19 45.3301c9.25977 -21.1904 -5.5 -45.3301 -27.7305 -45.3301h-196.84l-10.3105 97.6797c-0.859375 8.14062 -7.71973 14.3203 -15.9092 14.3203h-68.8008c-8.18945 0 -15.0498 -6.17969 -15.9092 -14.3203l-10.3105 -97.6797h-196.84
c-22.2305 0 -36.9902 24.1396 -27.7402 45.3301l139.79 320c4.96973 11.3799 15.7998 18.6699 27.7305 18.6699h97.5898l-2.4502 -23.1602c-0.5 -4.71973 3.20996 -8.83984 7.95996 -8.83984h29.1602c4.75 0 8.45996 4.12012 7.95996 8.83984l-2.4502 23.1602h97.5898
c11.9199 0 22.75 -7.29004 27.7207 -18.6699zM260.4 312.84l-4.59082 -43.5801c-0.75 -7.08984 4.80078 -13.2598 11.9307 -13.2598h40.54c7.12012 0 12.6797 6.16992 11.9297 13.2598l-4.59961 43.5801c-0.430664 4.07031 -3.87012 7.16016 -7.95996 7.16016h-39.29
h-0.00488281c-3.97363 0 -7.53809 -3.20801 -7.95508 -7.16016zM315.64 144c9.5 0 16.9102 8.23047 15.9102 17.6797l-5.06934 48c-0.860352 8.14062 -7.7207 14.3203 -15.9102 14.3203h-45.1504c-8.18945 0 -15.0498 -6.17969 -15.9102 -14.3203l-5.06934 -48
c-1 -9.44922 6.40918 -17.6797 15.9092 -17.6797h55.29z" />
    <glyph glyph-name="download" unicode="&#xf019;" 
d="M216 448h80c13.2998 0 24 -10.7002 24 -24v-168h87.7002c17.7998 0 26.7002 -21.5 14.0996 -34.0996l-152.1 -152.2c-7.5 -7.5 -19.7998 -7.5 -27.2998 0l-152.301 152.2c-12.5996 12.5996 -3.69922 34.0996 14.1006 34.0996h87.7998v168c0 13.2998 10.7002 24 24 24z
M512 72v-112c0 -13.2998 -10.7002 -24 -24 -24h-464c-13.2998 0 -24 10.7002 -24 24v112c0 13.2998 10.7002 24 24 24h146.7l49 -49c20.0996 -20.0996 52.5 -20.0996 72.5996 0l49 49h146.7c13.2998 0 24 -10.7002 24 -24zM388 -16c0 11 -9 20 -20 20s-20 -9 -20 -20
s9 -20 20 -20s20 9 20 20zM452 -16c0 11 -9 20 -20 20s-20 -9 -20 -20s9 -20 20 -20s20 9 20 20z" />
    <glyph glyph-name="inbox" unicode="&#xf01c;" horiz-adv-x="576" 
d="M567.938 204.092c4.4502 -6.6748 8.06152 -18.6025 8.06152 -26.624v-0.000976562v-129.467c0 -26.5098 -21.4902 -48 -48 -48h-480c-26.5098 0 -48 21.4902 -48 48v129.467v0.000976562c0 8.02148 3.61133 19.9492 8.06152 26.624l105.689 158.534
c7.86621 11.7988 25.7578 21.374 39.9385 21.374h268.621c14.1807 0 32.0732 -9.57617 39.9395 -21.374zM162.252 320l-85.334 -128h123.082l32 -64h112l32 64h123.082l-85.333 128h-251.497z" />
    <glyph glyph-name="redo" unicode="&#xf01e;" horiz-adv-x="520" 
d="M500.333 448c6.62695 0 12 -5.37305 12 -12v-200.332c0 -6.62695 -5.37305 -12 -12 -12h-200.333c-6.62695 0 -12 5.37305 -12 12v47.4111c0 6.85254 5.72852 12.3135 12.5742 11.9863l101.524 -4.86523c-31.5928 46.9414 -85.207 77.7998 -146.099 77.7998
c-97.2842 0 -176 -78.7334 -176 -176c0 -97.2842 78.7334 -176 176 -176c44.6064 0 85.3076 16.5518 116.309 43.8555c4.74023 4.17383 11.9141 3.92285 16.3809 -0.543945l33.9707 -33.9707c4.87207 -4.87207 4.63086 -12.8145 -0.482422 -17.4326
c-43.9756 -39.7217 -102.252 -63.9082 -166.178 -63.9082c-136.904 0 -247.899 110.932 -248 247.813c-0.100586 136.66 111.34 248.187 248.001 248.187c75.6709 0 143.415 -33.8994 188.901 -87.333l-3.9668 82.7588c-0.327148 6.8457 5.13379 12.5742 11.9863 12.5742
h47.4111z" />
    <glyph glyph-name="sync" unicode="&#xf021;" 
d="M440.935 435.426c-0.327148 6.8457 5.13477 12.5742 11.9873 12.5742h47.4111c6.62695 0 12 -5.37305 12 -12v-200.333c0 -6.62695 -5.37305 -12 -12 -12h-200.333c-6.62695 0 -12 5.37305 -12 12v47.4111c0 6.85254 5.72852 12.3135 12.5742 11.9863l101.529 -4.86523
c-31.5918 46.9443 -85.2109 77.8008 -146.104 77.8008c-83.0693 0 -152.593 -57.4082 -171.137 -134.741c-1.29883 -5.41699 -6.10645 -9.25879 -11.6768 -9.25879h-49.084c-7.49902 0 -13.1943 6.80664 -11.8066 14.1758c21.6367 114.9 122.518 201.824 243.704 201.824
c75.6738 0 143.416 -33.9043 188.901 -87.3398zM256 16c83.0693 0 152.593 57.4082 171.137 134.741c1.29883 5.41699 6.10645 9.25879 11.6768 9.25879h49.084c7.49902 0 13.1943 -6.80664 11.8066 -14.1758c-21.6367 -114.9 -122.518 -201.824 -243.704 -201.824
c-75.5947 0 -143.275 33.834 -188.759 87.1738l4.12891 -82.5752c0.342773 -6.85352 -5.12207 -12.5986 -11.9854 -12.5986h-47.3848c-6.62695 0 -12 5.37305 -12 12v200.332c0 6.62695 5.37305 12 12 12h200.332c6.62695 0 12 -5.37305 12 -12v-47.4121
c0 -6.85156 -5.72852 -12.3125 -12.5732 -11.9863l-101.868 4.87109c31.5928 -46.9463 85.2148 -77.8047 146.109 -77.8047z" />
    <glyph glyph-name="list-alt" unicode="&#xf022;" 
d="M464 -32h-416c-26.5098 0 -48 21.4902 -48 48v352c0 26.5098 21.4902 48 48 48h416c26.5098 0 48 -21.4902 48 -48v-352c0 -26.5098 -21.4902 -48 -48 -48zM128 328c-22.0908 0 -40 -17.9092 -40 -40s17.9092 -40 40 -40s40 17.9092 40 40s-17.9092 40 -40 40zM128 232
c-22.0908 0 -40 -17.9092 -40 -40s17.9092 -40 40 -40s40 17.9092 40 40s-17.9092 40 -40 40zM128 136c-22.0908 0 -40 -17.9092 -40 -40s17.9092 -40 40 -40s40 17.9092 40 40s-17.9092 40 -40 40zM416 272v32c0 6.62695 -5.37305 12 -12 12h-200
c-6.62695 0 -12 -5.37305 -12 -12v-32c0 -6.62695 5.37305 -12 12 -12h200c6.62695 0 12 5.37305 12 12zM416 176v32c0 6.62695 -5.37305 12 -12 12h-200c-6.62695 0 -12 -5.37305 -12 -12v-32c0 -6.62695 5.37305 -12 12 -12h200c6.62695 0 12 5.37305 12 12zM416 80v32
c0 6.62695 -5.37305 12 -12 12h-200c-6.62695 0 -12 -5.37305 -12 -12v-32c0 -6.62695 5.37305 -12 12 -12h200c6.62695 0 12 5.37305 12 12z" />
    <glyph glyph-name="lock" unicode="&#xf023;" horiz-adv-x="448" 
d="M400 224c26.5 0 48 -21.5 48 -48v-192c0 -26.5 -21.5 -48 -48 -48h-352c-26.5 0 -48 21.5 -48 48v192c0 26.5 21.5 48 48 48h24v72c0 83.7998 68.2002 152 152 152s152 -68.2002 152 -152v-72h24zM296 224v72c0 39.7002 -32.2998 72 -72 72s-72 -32.2998 -72 -72v-72h144
z" />
    <glyph glyph-name="flag" unicode="&#xf024;" horiz-adv-x="520" 
d="M349.565 349.217c40.4951 0 82.6113 15.9062 116.949 31.8545c21.2168 9.85352 45.4854 -5.62305 45.4854 -29.0166v-243.1c0 -10.5264 -5.16016 -20.4072 -13.8428 -26.3584c-35.8379 -24.5635 -74.3359 -40.8574 -122.505 -40.8574
c-67.373 0 -111.629 34.7832 -165.218 34.7832c-50.8525 0 -86.124 -10.0586 -114.435 -22.1221v-94.4004c0 -13.2549 -10.7451 -24 -24 -24h-16c-13.2549 0 -24 10.7451 -24 24v386.055c-14.5029 10.1201 -24 26.9189 -24 45.9453
c0 31.7041 26.3447 57.2539 58.3379 55.9521c28.4678 -1.1582 51.7793 -23.9668 53.5508 -52.4033c0.0625 -0.980469 0.113281 -2.57324 0.113281 -3.55566c0 -5.71094 -1.65723 -14.6738 -3.69922 -20.0059c20.7363 7.62891 43.0898 12.0127 68.0449 12.0127
c67.373 0 111.63 -34.7832 165.218 -34.7832z" />
    <glyph glyph-name="headphones" unicode="&#xf025;" 
d="M256 416c141.504 0 256 -114.521 256 -256v-48c0 -10.917 -7.9248 -23.7402 -17.6904 -28.6221l-14.3818 -7.19141c-2.01074 -60.0889 -51.3486 -108.187 -111.928 -108.187h-24c-13.2549 0 -24 10.7451 -24 24v176c0 13.2549 10.7451 24 24 24h24
c31.3418 0 59.6709 -12.8789 80 -33.627v1.62695c0 105.869 -86.1309 192 -192 192s-192 -86.1309 -192 -192v-1.62695c20.3291 20.748 48.6582 33.627 80 33.627h24c13.2549 0 24 -10.7451 24 -24v-176c0 -13.2549 -10.7451 -24 -24 -24h-24
c-60.5791 0 -109.917 48.0967 -111.928 108.187l-14.3828 7.19141c-9.76465 4.88184 -17.6895 17.7051 -17.6895 28.6221v0v48c0 141.504 114.52 256 256 256z" />
    <glyph glyph-name="volume-off" unicode="&#xf026;" horiz-adv-x="258" 
d="M216.36 376.96c15.0098 15 40.9697 4.49023 40.9697 -16.9795v-335.961c0 -21.4395 -25.9404 -32 -40.9697 -16.9697l-88.9707 88.9502h-102.06c-13.2598 0 -24 10.75 -24 24v144c0 13.2598 10.7402 24 24 24h102.06z" />
    <glyph glyph-name="volume-down" unicode="&#xf027;" horiz-adv-x="384" 
d="M215.03 375.96c15.0098 15 40.9697 4.49023 40.9697 -16.9795v-335.961c0 -21.4395 -25.9404 -32 -40.9697 -16.9697l-88.9707 88.9502h-102.06c-13.2598 0 -24 10.75 -24 24v144c0 13.2598 10.7402 24 24 24h102.06zM338.23 267.88
c28.2393 -15.5498 45.7793 -44.9902 45.7793 -76.8701s-17.54 -61.3301 -45.7695 -76.8799c-11.5605 -6.34961 -26.1807 -2.20996 -32.6104 9.4502c-6.38965 11.6104 -2.16016 26.2002 9.4502 32.6104c12.9004 7.08984 20.9199 20.4297 20.9199 34.8096
s-8.01953 27.7197 -20.9297 34.8203c-11.6104 6.41016 -15.8398 21 -9.4502 32.6094c6.41992 11.6104 21.0303 15.7803 32.6104 9.4502z" />
    <glyph glyph-name="volume-up" unicode="&#xf028;" horiz-adv-x="576" 
d="M215.03 376.95c15.0098 15.0098 40.9697 4.49023 40.9697 -16.9697v-335.961c0 -21.4395 -25.9404 -32 -40.9697 -16.9697l-88.9707 88.9502h-102.06c-13.2598 0 -24 10.75 -24 24v144c0 13.2598 10.7402 24 24 24h102.06zM448.35 428.03
c79.9199 -52.46 127.65 -140.7 127.65 -236.03s-47.7305 -183.58 -127.65 -236.04c-11.5801 -7.61035 -26.4697 -3.75977 -33.5098 6.9502c-7.33984 11.1602 -4.21973 26.1797 6.9502 33.5c66.2695 43.4902 105.82 116.6 105.82 195.58
c0 78.9795 -39.5508 152.09 -105.82 195.58c-11.1699 7.33008 -14.29 22.3398 -6.9502 33.5098c7.33008 11.1895 22.3398 14.2803 33.5098 6.9502zM480 192c0 -63.54 -32.0596 -121.94 -85.7695 -156.24c-12 -7.67969 -26.6104 -2.89941 -33.1201 7.45996
c-7.09082 11.29 -3.78027 26.2207 7.40918 33.3604c39.75 25.3896 63.4805 68.5303 63.4805 115.42s-23.7305 90.0303 -63.4805 115.42c-11.1895 7.15039 -14.5 22.0801 -7.40918 33.3604c7.08984 11.2793 21.9297 14.5996 33.1201 7.45996
c53.71 -34.2998 85.7695 -92.71 85.7695 -156.24zM338.23 268.87c28.2393 -15.54 45.7793 -44.9805 45.7793 -76.8604s-17.54 -61.3301 -45.7695 -76.8799c-11.5605 -6.34961 -26.1807 -2.20996 -32.6104 9.4502c-6.38965 11.6104 -2.16016 26.2002 9.4502 32.6104
c12.9004 7.08984 20.9199 20.4297 20.9199 34.8096c0 14.3701 -8.01953 27.7197 -20.9297 34.8096c-11.6104 6.41016 -15.8398 21 -9.4502 32.6104c6.41992 11.6104 21.0303 15.7803 32.6104 9.4502z" />
    <glyph glyph-name="qrcode" unicode="&#xf029;" horiz-adv-x="448" 
d="M0 224v192h192v-192h-192zM64 352v-64h64v64h-64zM256 416h192v-192h-192v192zM384 288v64h-64v-64h64zM0 -32v192h192v-192h-192zM64 96v-64h64v64h-64zM416 160h32v-128h-96v32h-32v-96h-64v192h96v-32h64v32zM416 0h32v-32h-32v32zM352 0h32v-32h-32v32z" />
    <glyph glyph-name="barcode" unicode="&#xf02a;" 
d="M0 0v384h18v-384h-18zM26.8574 0.273438v383.727h9.14258v-383.727h-9.14258zM54 0.273438v383.727h8.85742v-383.727h-8.85742zM98.8574 0.273438v383.727h8.85645v-383.727h-8.85645zM134.857 0.273438v383.727h17.7139v-383.727h-17.7139zM179.714 0.273438v383.727
h8.85742v-383.727h-8.85742zM197.714 0.273438v383.727h8.85742v-383.727h-8.85742zM215.714 0.273438v383.727h8.85742v-383.727h-8.85742zM251.429 0.273438v383.727h18v-383.727h-18zM296.286 0.273438v383.727h18v-383.727h-18zM332.285 0.273438v383.727h18.001
v-383.727h-18.001zM368.286 0.273438v383.727h18.001v-383.727h-18.001zM395.143 0.273438v383.727h18v-383.727h-18zM440.286 0.273438v383.727h26.8564v-383.727h-26.8564zM476 0.273438v383.727h9.14258v-383.727h-9.14258zM494 0v384h18v-384h-18z" />
    <glyph glyph-name="tag" unicode="&#xf02b;" horiz-adv-x="511" 
d="M0 195.882v204.118c0 26.5098 21.4902 48 48 48h204.118c10.9746 0 26.1807 -6.29883 33.9404 -14.0586l211.883 -211.883c18.7441 -18.7441 18.7441 -49.1367 0 -67.8818l-204.118 -204.118c-18.7451 -18.7441 -49.1377 -18.7441 -67.8818 0l-211.883 211.883
c-7.75977 7.75977 -14.0586 22.9658 -14.0586 33.9404zM112 384c-26.5098 0 -48 -21.4902 -48 -48s21.4902 -48 48 -48s48 21.4902 48 48s-21.4902 48 -48 48z" />
    <glyph glyph-name="tags" unicode="&#xf02c;" horiz-adv-x="639" 
d="M497.941 222.059c18.7441 -18.7441 18.7441 -49.1367 0 -67.8818l-204.118 -204.118c-18.7461 -18.7451 -49.1387 -18.7441 -67.8818 0l-211.883 211.883c-7.75977 7.75977 -14.0586 22.9658 -14.0586 33.9404v204.118c0 26.5098 21.4902 48 48 48h204.118
c10.9746 0 26.1807 -6.29883 33.9404 -14.0586zM112 288c26.5098 0 48 21.4902 48 48s-21.4902 48 -48 48s-48 -21.4902 -48 -48s21.4902 -48 48 -48zM625.941 154.177l-204.118 -204.118c-18.7451 -18.7441 -49.1377 -18.7441 -67.8818 0l-0.360352 0.360352
l174.059 174.059c16.999 16.999 26.3604 39.6006 26.3604 63.6406s-9.3623 46.6406 -26.3604 63.6396l-196.242 196.242h48.7207c10.9746 0 26.1807 -6.29883 33.9404 -14.0586l211.883 -211.883c18.7441 -18.7441 18.7441 -49.1367 0 -67.8818z" />
    <glyph glyph-name="book" unicode="&#xf02d;" horiz-adv-x="448" 
d="M448 88c0 -7.5 -3.5 -14.2998 -8.90039 -18.5996c-4.19922 -15.4004 -4.19922 -59.3008 0 -74.7002c5.40039 -4.40039 8.90039 -11.2002 8.90039 -18.7002v-16c0 -13.2998 -10.7002 -24 -24 -24h-328c-53 0 -96 43 -96 96v320c0 53 43 96 96 96h328
c13.2998 0 24 -10.7002 24 -24v-336zM128 314v-20c0 -3.2998 2.7002 -6 6 -6h212c3.2998 0 6 2.7002 6 6v20c0 3.2998 -2.7002 6 -6 6h-212c-3.2998 0 -6 -2.7002 -6 -6zM128 250v-20c0 -3.2998 2.7002 -6 6 -6h212c3.2998 0 6 2.7002 6 6v20c0 3.2998 -2.7002 6 -6 6h-212
c-3.2998 0 -6 -2.7002 -6 -6zM381.4 0c-1.90039 17.0996 -1.90039 46.9004 0 64h-285.4c-17.5996 0 -32 -14.4004 -32 -32c0 -17.7002 14.2998 -32 32 -32h285.4z" />
    <glyph glyph-name="bookmark" unicode="&#xf02e;" horiz-adv-x="384" 
d="M0 -64v464c0 26.5098 21.4902 48 48 48h288c26.5098 0 48 -21.4902 48 -48v-464l-192 112z" />
    <glyph glyph-name="print" unicode="&#xf02f;" 
d="M448 256c35.3496 0 64 -28.6504 64 -64v-112c0 -8.83984 -7.16016 -16 -16 -16h-48v-96c0 -17.6699 -14.3301 -32 -32 -32h-320c-17.6699 0 -32 14.3301 -32 32v96h-48c-8.83984 0 -16 7.16016 -16 16v112c0 35.3496 28.6504 64 64 64v160c0 17.6699 14.3301 32 32 32
h274.74c8.49023 0 16.6299 -3.37012 22.6299 -9.37012l45.2598 -45.25c6 -6.00977 9.37012 -14.1396 9.37012 -22.6299v-114.75zM384 0v96h-256v-96h256zM384 224v96h-48c-8.83984 0 -16 7.16016 -16 16v48h-192v-160h256zM432 152c13.25 0 24 10.75 24 24
c0 13.2598 -10.75 24 -24 24s-24 -10.7402 -24 -24c0 -13.25 10.75 -24 24 -24z" />
    <glyph glyph-name="camera" unicode="&#xf030;" 
d="M512 304v-288c0 -26.5 -21.5 -48 -48 -48h-416c-26.5 0 -48 21.5 -48 48v288c0 26.5 21.5 48 48 48h88l12.2998 32.9004c7 18.6992 24.9004 31.0996 44.9004 31.0996h125.5c20 0 37.8994 -12.4004 44.8994 -31.0996l12.4004 -32.9004h88c26.5 0 48 -21.5 48 -48zM376 160
c0 66.2002 -53.7998 120 -120 120s-120 -53.7998 -120 -120s53.7998 -120 120 -120s120 53.7998 120 120zM344 160c0 -48.5 -39.5 -88 -88 -88s-88 39.5 -88 88s39.5 88 88 88s88 -39.5 88 -88z" />
    <glyph glyph-name="font" unicode="&#xf031;" horiz-adv-x="448" 
d="M432 32c8.7998 0 16 -7.2002 16 -16v-32c0 -8.7998 -7.2002 -16 -16 -16h-136c-8.7998 0 -16 7.2002 -16 16v32c0 8.7998 7.2002 16 16 16h23.4004l-26.6006 80.7998h-138.2l-26.5996 -80.7998h24c8.7998 0 16 -7.2002 16 -16v-32c0 -8.7998 -7.2002 -16 -16 -16h-136
c-8.7998 0 -16 7.2002 -16 16v32c0 8.7998 7.2002 16 16 16h26.7002l129.8 373.3c2.2002 6.40039 8.2998 10.7002 15.0996 10.7002h72.8008c6.7998 0 12.8994 -4.2998 15.0996 -10.7002l129.8 -373.3h26.7002zM174.4 179.7h98.5996l-41.2998 124
c-4.7998 15.2002 -6.90039 28.2002 -7.7002 34.7002c-1 -6.40039 -3.2998 -19.4004 -7.59961 -34.6006z" />
    <glyph glyph-name="bold" unicode="&#xf032;" horiz-adv-x="384" 
d="M304.793 204.109c44.6338 -14.4395 71.207 -53.9551 71.207 -106.123c0 -60.6338 -38.4805 -107.18 -89.4443 -122.402c-22.0312 -6.29492 -42.6631 -7.58398 -66.8652 -7.58398h-195.69c-8.83691 0 -16 7.16309 -16 16v32.4209c0 8.83691 7.16309 16 16 16h33.1133
v318.53h-33.1133c-8.83691 0 -16 7.16309 -16 16v33.0488c0 8.83691 7.16309 16 16 16h185.661c31.1875 0 55.4766 -2.00977 80.1631 -12.0186c42.376 -16.5537 68.626 -55.9434 68.626 -104.18c0 -41.5332 -20.0186 -77.1553 -53.6572 -95.6924zM142.217 347.191v-112.953
h76.8467c32.709 0 53.0283 21.7607 53.0283 56.79c0 22.9434 -9.07812 40.9668 -24.9062 49.4453c-9.98828 4.69824 -21.2305 6.71777 -37.5244 6.71777h-67.4443zM254.859 41.7158c21.1221 8.80078 34.7822 32.8594 34.7812 61.2842
c0 37.6768 -23.4121 63.0566 -63.0566 63.0566h-84.3672v-129.248h81.2334c8.73145 0 21.2686 0.851562 31.4092 4.90723z" />
    <glyph glyph-name="italic" unicode="&#xf033;" horiz-adv-x="320" 
d="M204.758 32c10.0664 0 17.6309 -9.18457 15.7041 -19.0654l-6.24512 -32c-1.39355 -7.13965 -8.42871 -12.9346 -15.7031 -12.9346h-0.000976562h-158.479c-10.0674 0 -17.6318 9.18457 -15.7051 19.0654l6.24512 32c1.39355 7.13965 8.42871 12.9346 15.7031 12.9346
h0.000976562h39.4707l62.0898 320h-33.8457c-10.0664 0 -17.6309 9.18359 -15.7041 19.0635l6.24219 32c1.39258 7.14062 8.42773 12.9365 15.7041 12.9365h159.732c10.0664 0 17.6309 -9.18359 15.7041 -19.0635l-6.24219 -32
c-1.39258 -7.14062 -8.42773 -12.9365 -15.7041 -12.9365h-40.7246l-62.0918 -320h33.8486z" />
    <glyph glyph-name="text-height" unicode="&#xf034;" horiz-adv-x="576" 
d="M16 416h288c8.83691 0 16 -7.16309 16 -16v-96c0 -8.83691 -7.16309 -16 -16 -16h-35.4961c-8.83691 0 -16 7.16309 -16 16v48h-54.7607v-320h34.2568c8.83691 0 16 -7.16309 16 -16v-32c0 -8.83691 -7.16309 -16 -16 -16h-144c-8.83691 0 -16 7.16309 -16 16v32
c0 8.83691 7.16309 16 16 16h34.2568v320h-54.7607v-48c0 -8.83691 -7.16309 -16 -16 -16h-35.4961c-8.83691 0 -16 7.16309 -16 16v96c0 8.83691 7.16309 16 16 16zM491.308 411.315l79.9951 -80.001c10.0059 -10.0078 2.99414 -27.3145 -11.3125 -27.3145h-47.9902v-224
h48c15.6387 0 20.6348 -17.9912 11.3135 -27.3145l-79.9951 -80.001c-6.24707 -6.24609 -16.3818 -6.24414 -22.626 0l-79.9951 80.001c-10.0059 10.0078 -2.99414 27.3145 11.3125 27.3145h47.9902v224h-48c-15.6387 0 -20.6348 17.9912 -11.3135 27.3145l79.9951 80.001
c6.24707 6.24805 16.3818 6.24414 22.626 0z" />
    <glyph glyph-name="text-width" unicode="&#xf035;" horiz-adv-x="448" 
d="M16 416h416c8.83691 0 16 -7.16309 16 -16v-96c0 -8.83691 -7.16309 -16 -16 -16h-35.4961c-8.83691 0 -16 7.16309 -16 16v48h-118.761v-128h34.2568c8.83691 0 16 -7.16309 16 -16v-32c0 -8.83691 -7.16309 -16 -16 -16h-144c-8.83691 0 -16 7.16309 -16 16v32
c0 8.83691 7.16309 16 16 16h34.2568v128h-118.761v-48c0 -8.83691 -7.16309 -16 -16 -16h-35.4961c-8.83691 0 -16 7.16309 -16 16v96c0 8.83691 7.16309 16 16 16zM443.315 75.3184c6.24805 -6.24707 6.24414 -16.3818 0 -22.626l-80.001 -79.9951
c-10.0078 -10.0059 -27.3145 -2.99414 -27.3145 11.3125v47.9902h-224v-48c0 -15.6377 -17.9912 -20.6348 -27.3145 -11.3135l-80.001 79.9951c-6.24609 6.24707 -6.24414 16.3818 0 22.626l80.001 79.9951c10.0078 10.0059 27.3145 2.99414 27.3145 -11.3125v-47.9902h224
v48c0 15.6377 17.9912 20.6348 27.3145 11.3135z" />
    <glyph glyph-name="align-left" unicode="&#xf036;" horiz-adv-x="448" 
d="M288 404v-40c0 -8.83691 -7.16309 -16 -16 -16h-256c-8.83691 0 -16 7.16309 -16 16v40c0 8.83691 7.16309 16 16 16h256c8.83691 0 16 -7.16309 16 -16zM0 276c0 8.83691 7.16309 16 16 16h416c8.83691 0 16 -7.16309 16 -16v-40c0 -8.83691 -7.16309 -16 -16 -16h-416
c-8.83691 0 -16 7.16309 -16 16v40zM16 -36c-8.83691 0 -16 7.16309 -16 16v40c0 8.83691 7.16309 16 16 16h416c8.83691 0 16 -7.16309 16 -16v-40c0 -8.83691 -7.16309 -16 -16 -16h-416zM272 164c8.83691 0 16 -7.16309 16 -16v-40c0 -8.83691 -7.16309 -16 -16 -16h-256
c-8.83691 0 -16 7.16309 -16 16v40c0 8.83691 7.16309 16 16 16h256z" />
    <glyph glyph-name="align-center" unicode="&#xf037;" horiz-adv-x="448" 
d="M352 404v-40c0 -8.83691 -7.16309 -16 -16 -16h-224c-8.83691 0 -16 7.16309 -16 16v40c0 8.83691 7.16309 16 16 16h224c8.83691 0 16 -7.16309 16 -16zM16 220c-8.83691 0 -16 7.16309 -16 16v40c0 8.83691 7.16309 16 16 16h416c8.83691 0 16 -7.16309 16 -16v-40
c0 -8.83691 -7.16309 -16 -16 -16h-416zM16 -36c-8.83691 0 -16 7.16309 -16 16v40c0 8.83691 7.16309 16 16 16h416c8.83691 0 16 -7.16309 16 -16v-40c0 -8.83691 -7.16309 -16 -16 -16h-416zM336 164c8.83691 0 16 -7.16309 16 -16v-40c0 -8.83691 -7.16309 -16 -16 -16
h-224c-8.83691 0 -16 7.16309 -16 16v40c0 8.83691 7.16309 16 16 16h224z" />
    <glyph glyph-name="align-right" unicode="&#xf038;" horiz-adv-x="448" 
d="M160 364v40c0 8.83691 7.16309 16 16 16h256c8.83691 0 16 -7.16309 16 -16v-40c0 -8.83691 -7.16309 -16 -16 -16h-256c-8.83691 0 -16 7.16309 -16 16zM16 220c-8.83691 0 -16 7.16309 -16 16v40c0 8.83691 7.16309 16 16 16h416c8.83691 0 16 -7.16309 16 -16v-40
c0 -8.83691 -7.16309 -16 -16 -16h-416zM16 -36c-8.83691 0 -16 7.16309 -16 16v40c0 8.83691 7.16309 16 16 16h416c8.83691 0 16 -7.16309 16 -16v-40c0 -8.83691 -7.16309 -16 -16 -16h-416zM176 92c-8.83691 0 -16 7.16309 -16 16v40c0 8.83691 7.16309 16 16 16h256
c8.83691 0 16 -7.16309 16 -16v-40c0 -8.83691 -7.16309 -16 -16 -16h-256z" />
    <glyph glyph-name="align-justify" unicode="&#xf039;" horiz-adv-x="448" 
d="M0 364v40c0 8.83691 7.16309 16 16 16h416c8.83691 0 16 -7.16309 16 -16v-40c0 -8.83691 -7.16309 -16 -16 -16h-416c-8.83691 0 -16 7.16309 -16 16zM16 220c-8.83691 0 -16 7.16309 -16 16v40c0 8.83691 7.16309 16 16 16h416c8.83691 0 16 -7.16309 16 -16v-40
c0 -8.83691 -7.16309 -16 -16 -16h-416zM16 -36c-8.83691 0 -16 7.16309 -16 16v40c0 8.83691 7.16309 16 16 16h416c8.83691 0 16 -7.16309 16 -16v-40c0 -8.83691 -7.16309 -16 -16 -16h-416zM16 92c-8.83691 0 -16 7.16309 -16 16v40c0 8.83691 7.16309 16 16 16h416
c8.83691 0 16 -7.16309 16 -16v-40c0 -8.83691 -7.16309 -16 -16 -16h-416z" />
    <glyph glyph-name="list" unicode="&#xf03a;" 
d="M128 332v40c0 8.83691 7.16309 16 16 16h352c8.83691 0 16 -7.16309 16 -16v-40c0 -8.83691 -7.16309 -16 -16 -16h-352c-8.83691 0 -16 7.16309 -16 16zM144 156c-8.83691 0 -16 7.16309 -16 16v40c0 8.83691 7.16309 16 16 16h352c8.83691 0 16 -7.16309 16 -16v-40
c0 -8.83691 -7.16309 -16 -16 -16h-352zM144 -4c-8.83691 0 -16 7.16309 -16 16v40c0 8.83691 7.16309 16 16 16h352c8.83691 0 16 -7.16309 16 -16v-40c0 -8.83691 -7.16309 -16 -16 -16h-352zM16 304c-8.83691 0 -16 7.16309 -16 16v64c0 8.83691 7.16309 16 16 16h64
c8.83691 0 16 -7.16309 16 -16v-64c0 -8.83691 -7.16309 -16 -16 -16h-64zM16 144c-8.83691 0 -16 7.16309 -16 16v64c0 8.83691 7.16309 16 16 16h64c8.83691 0 16 -7.16309 16 -16v-64c0 -8.83691 -7.16309 -16 -16 -16h-64zM16 -16c-8.83691 0 -16 7.16309 -16 16v64
c0 8.83691 7.16309 16 16 16h64c8.83691 0 16 -7.16309 16 -16v-64c0 -8.83691 -7.16309 -16 -16 -16h-64z" />
    <glyph glyph-name="outdent" unicode="&#xf03b;" horiz-adv-x="448" 
d="M0 364v40c0 8.83691 7.16309 16 16 16h416c8.83691 0 16 -7.16309 16 -16v-40c0 -8.83691 -7.16309 -16 -16 -16h-416c-8.83691 0 -16 7.16309 -16 16zM208 220c-8.83691 0 -16 7.16309 -16 16v40c0 8.83691 7.16309 16 16 16h224c8.83691 0 16 -7.16309 16 -16v-40
c0 -8.83691 -7.16309 -16 -16 -16h-224zM16 -36c-8.83691 0 -16 7.16309 -16 16v40c0 8.83691 7.16309 16 16 16h416c8.83691 0 16 -7.16309 16 -16v-40c0 -8.83691 -7.16309 -16 -16 -16h-416zM208 92c-8.83691 0 -16 7.16309 -16 16v40c0 8.83691 7.16309 16 16 16h224
c8.83691 0 16 -7.16309 16 -16v-40c0 -8.83691 -7.16309 -16 -16 -16h-224zM4.68652 180.687c-6.24805 6.24805 -6.24805 16.3789 0 22.627l96 95.9912c9.98828 9.99121 27.3135 3.0166 27.3135 -11.3125v-191.977c0 -14.2393 -17.2656 -21.3633 -27.3135 -11.3125z" />
    <glyph glyph-name="indent" unicode="&#xf03c;" horiz-adv-x="448" 
d="M0 364v40c0 8.83691 7.16309 16 16 16h416c8.83691 0 16 -7.16309 16 -16v-40c0 -8.83691 -7.16309 -16 -16 -16h-416c-8.83691 0 -16 7.16309 -16 16zM176 220c-8.83691 0 -16 7.16309 -16 16v40c0 8.83691 7.16309 16 16 16h256c8.83691 0 16 -7.16309 16 -16v-40
c0 -8.83691 -7.16309 -16 -16 -16h-256zM16 -36c-8.83691 0 -16 7.16309 -16 16v40c0 8.83691 7.16309 16 16 16h416c8.83691 0 16 -7.16309 16 -16v-40c0 -8.83691 -7.16309 -16 -16 -16h-416zM176 92c-8.83691 0 -16 7.16309 -16 16v40c0 8.83691 7.16309 16 16 16h256
c8.83691 0 16 -7.16309 16 -16v-40c0 -8.83691 -7.16309 -16 -16 -16h-256zM123.313 203.313c6.24805 -6.24805 6.24805 -16.3789 0 -22.625l-96 -95.9922c-9.98828 -9.99121 -27.3135 -3.0166 -27.3135 11.3125v191.976c0 14.2393 17.2656 21.3633 27.3135 11.3125z" />
    <glyph glyph-name="video" unicode="&#xf03d;" horiz-adv-x="576" 
d="M336.2 384c26.3994 0 47.7998 -21.4004 47.7998 -47.7998v-288.4c0 -26.3994 -21.4004 -47.7998 -47.7998 -47.7998h-288.4c-26.3994 0 -47.7998 21.4004 -47.7998 47.7998v288.4c0 26.3994 21.4004 47.7998 47.7998 47.7998h288.4zM525.6 346.3
c21.3008 14.6006 50.4004 -0.399414 50.4004 -25.7998v-256.9c0 -25.5 -29.2002 -40.3994 -50.4004 -25.7998l-109.6 75.5v157.4z" />
    <glyph glyph-name="image" unicode="&#xf03e;" 
d="M464 0h-416c-26.5098 0 -48 21.4902 -48 48v288c0 26.5098 21.4902 48 48 48h416c26.5098 0 48 -21.4902 48 -48v-288c0 -26.5098 -21.4902 -48 -48 -48zM112 328c-30.9277 0 -56 -25.0723 -56 -56s25.0723 -56 56 -56s56 25.0723 56 56s-25.0723 56 -56 56zM64 64h384
v112l-87.5146 87.5146c-4.68652 4.68652 -12.2842 4.68652 -16.9717 0l-135.514 -135.515l-55.5146 55.5146c-4.68652 4.68652 -12.2842 4.68652 -16.9717 0l-71.5137 -71.5146v-48z" />
    <glyph glyph-name="pencil" unicode="&#xf040;" 
d="M497.9 305.9l-46.1006 -46.1006c-4.7002 -4.7002 -12.2998 -4.7002 -17 0l-111 111c-4.7002 4.7002 -4.7002 12.2998 0 17l46.1006 46.1006c18.6992 18.6992 49.0996 18.6992 67.8994 0l60.1006 -60.1006c18.7998 -18.7002 18.7998 -49.0996 0 -67.8994zM284.2 348.2
c4.7002 4.7002 12.2998 4.7002 17.0996 0l111 -111c4.7002 -4.7002 4.7002 -12.2998 0 -17l-262.6 -262.601l-121.5 -21.2998c-16.4004 -2.7998 -30.7002 11.4004 -27.7998 27.7998l21.1992 121.5zM88 24v48h-36.2998l-11.2998 -64.5l31.0996 -31.0996l64.5 11.2998v36.2998
h-48z" />
    <glyph glyph-name="map-marker" unicode="&#xf041;" horiz-adv-x="384" 
d="M172.268 -53.6699c-145.298 210.639 -172.268 232.257 -172.268 309.67c0 106.039 85.9609 192 192 192s192 -85.9609 192 -192c0 -77.4131 -26.9697 -99.0312 -172.268 -309.67c-9.53516 -13.7744 -29.9307 -13.7734 -39.4648 0z" />
    <glyph glyph-name="adjust" unicode="&#xf042;" 
d="M8 192c0 136.967 111.034 248 248 248s248 -111.034 248 -248s-111.033 -248 -248 -248s-248 111.034 -248 248zM256 8c101.689 0 184 82.2949 184 184c0 101.689 -82.2949 184 -184 184v-368z" />
    <glyph glyph-name="tint" unicode="&#xf043;" horiz-adv-x="352" 
d="M205.22 425.91c46.9902 -158.48 146.78 -200.07 146.78 -311.82c0 -98.4395 -78.7197 -178.09 -176 -178.09s-176 79.6504 -176 178.09c0 111.19 100.01 154.061 146.78 311.82c9 30.1201 50.5 28.7803 58.4395 0zM176 0c8.83984 0 16 7.16016 16 16s-7.16016 16 -16 16
c-44.1104 0 -80 35.8896 -80 80c0 8.83984 -7.16016 16 -16 16s-16 -7.16016 -16 -16c0 -61.75 50.25 -112 112 -112z" />
    <glyph glyph-name="edit" unicode="&#xf044;" horiz-adv-x="575" 
d="M402.6 364.8l90.2002 -90.2002c3.7998 -3.7998 3.7998 -10 0 -13.7998l-218.399 -218.399l-92.8008 -10.3008c-12.3994 -1.39941 -22.8994 9.10059 -21.5 21.5l10.3008 92.8008l218.399 218.399c3.7998 3.7998 10 3.7998 13.7998 0zM564.6 387.7
c15.2002 -15.2002 15.2002 -39.9004 0 -55.2002l-35.3994 -35.4004c-3.7998 -3.7998 -10 -3.7998 -13.7998 0l-90.2002 90.2002c-3.7998 3.7998 -3.7998 10 0 13.7998l35.3994 35.4004c15.3008 15.2002 40 15.2002 55.2002 0zM384 101.8c0 3.2002 1.2998 6.2002 3.5 8.5
l40 40c7.59961 7.5 20.5 2.2002 20.5 -8.5v-157.8c0 -26.5 -21.5 -48 -48 -48h-352c-26.5 0 -48 21.5 -48 48v352c0 26.5 21.5 48 48 48h285.8c10.7002 0 16.1006 -12.9004 8.5 -20.5l-40 -40c-2.2998 -2.2002 -5.2998 -3.5 -8.5 -3.5h-229.8v-320h320v101.8z" />
    <glyph glyph-name="arrows" unicode="&#xf047;" 
d="M352.634 19.3789l-74.0068 -74.0068c-12.4971 -12.4971 -32.7578 -12.4971 -45.2549 0l-74.0068 74.0068c-9.37305 9.37305 -9.37305 24.5693 0 33.9414l10.8398 10.8398c9.55566 9.55566 25.1133 9.34082 34.4023 -0.474609l23.3926 -26.0508v126.365h-126.365
l26.0508 -23.3916c9.81543 -9.28906 10.0303 -24.8467 0.474609 -34.4023l-10.8398 -10.8398c-9.37305 -9.37305 -24.5693 -9.37305 -33.9414 0l-74.0059 74.0068c-12.4971 12.4971 -12.4971 32.7578 0 45.2549l74.0068 74.0068c9.37305 9.37305 24.5693 9.37305 33.9414 0
l10.8398 -10.8398c9.55566 -9.55566 9.34082 -25.1143 -0.474609 -34.4023l-26.0518 -23.3926h126.365v126.365l-23.3916 -26.0508c-9.28906 -9.81543 -24.8467 -10.0303 -34.4023 -0.474609l-10.8398 10.8398c-9.37305 9.37305 -9.37305 24.5693 0 33.9414l74.0068 74.0068
c12.4971 12.4971 32.7578 12.4971 45.2549 0l74.0068 -74.0068c9.37305 -9.37305 9.37305 -24.5693 0 -33.9414l-10.8398 -10.8398c-9.55566 -9.55566 -25.1133 -9.34082 -34.4023 0.474609l-23.3926 26.0508v-126.365h126.365l-26.0508 23.3916
c-9.81543 9.28906 -10.0303 24.8467 -0.474609 34.4023l10.8398 10.8398c9.37305 9.37305 24.5693 9.37305 33.9414 0l74.0068 -74.0068c12.4971 -12.4971 12.4971 -32.7578 0 -45.2549l-74.0068 -74.0068c-9.37305 -9.37305 -24.5693 -9.37305 -33.9414 0l-10.8398 10.8398
c-9.55566 9.55566 -9.34082 25.1133 0.474609 34.4023l26.0508 23.3926h-126.365v-126.365l23.3916 26.0508c9.28906 9.81543 24.8467 10.0303 34.4023 0.474609l10.8398 -10.8398c9.37305 -9.37207 9.37305 -24.5684 0 -33.9414z" />
    <glyph glyph-name="step-backward" unicode="&#xf048;" horiz-adv-x="448" 
d="M64 -20v424c0 6.59961 5.40039 12 12 12h48c6.59961 0 12 -5.40039 12 -12v-176.4l195.5 181c20.5996 17.1006 52.5 2.80078 52.5 -24.5996v-384c0 -27.4004 -31.9004 -41.7002 -52.5 -24.5996l-195.5 179.899v-175.3c0 -6.59961 -5.40039 -12 -12 -12h-48
c-6.59961 0 -12 5.40039 -12 12z" />
    <glyph glyph-name="fast-backward" unicode="&#xf049;" 
d="M0 12v360c0 6.59961 5.40039 12 12 12h40c6.59961 0 12 -5.40039 12 -12v-151.9l171.5 156.5c20.5996 17.1006 52.5 2.80078 52.5 -24.5996v-131.9l171.5 156.5c20.5996 17.1006 52.5 2.80078 52.5 -24.5996v-320c0 -27.4004 -31.9004 -41.7002 -52.5 -24.5996
l-171.5 155.3v-130.7c0 -27.4004 -31.9004 -41.7002 -52.5 -24.5996l-171.5 155.3v-150.7c0 -6.59961 -5.40039 -12 -12 -12h-40c-6.59961 0 -12 5.40039 -12 12z" />
    <glyph glyph-name="backward" unicode="&#xf04a;" 
d="M11.5 167.4c-15.2998 12.7998 -15.2998 36.3994 0 49.1992l192 160c20.5996 17.2002 52.5 2.80078 52.5 -24.5996v-320c0 -27.4004 -31.9004 -41.7998 -52.5 -24.5996zM267.5 167.4c-15.2998 12.7998 -15.2998 36.3994 0 49.1992l192 160
c20.5996 17.2002 52.5 2.80078 52.5 -24.5996v-320c0 -27.4004 -31.9004 -41.7998 -52.5 -24.5996z" />
    <glyph glyph-name="play" unicode="&#xf04b;" horiz-adv-x="447" 
d="M424.4 233.3c31.5 -18.5 31.3994 -64.0996 0 -82.5996l-352 -208c-31.7002 -18.7998 -72.4004 3.7998 -72.4004 41.2998v416.1c0 41.8008 43.7998 58.2002 72.4004 41.3008z" />
    <glyph glyph-name="pause" unicode="&#xf04c;" horiz-adv-x="448" 
d="M144 -31h-96c-26.5 0 -48 21.5 -48 48v352c0 26.5 21.5 48 48 48h96c26.5 0 48 -21.5 48 -48v-352c0 -26.5 -21.5 -48 -48 -48zM448 17c0 -26.5 -21.5 -48 -48 -48h-96c-26.5 0 -48 21.5 -48 48v352c0 26.5 21.5 48 48 48h96c26.5 0 48 -21.5 48 -48v-352z" />
    <glyph glyph-name="stop" unicode="&#xf04d;" horiz-adv-x="448" 
d="M400 416c26.5 0 48 -21.5 48 -48v-352c0 -26.5 -21.5 -48 -48 -48h-352c-26.5 0 -48 21.5 -48 48v352c0 26.5 21.5 48 48 48h352z" />
    <glyph glyph-name="forward" unicode="&#xf04e;" horiz-adv-x="511" 
d="M500.5 216.6c15.2998 -12.7998 15.2998 -36.3994 0 -49.1992l-192 -160c-20.5996 -17.2002 -52.5 -2.80078 -52.5 24.5996v320c0 27.4004 31.9004 41.7002 52.5 24.5996zM244.5 216.6c15.2998 -12.7998 15.2998 -36.3994 0 -49.1992l-192 -160
c-20.5996 -17.2002 -52.5 -2.80078 -52.5 24.5996v320c0 27.4004 31.9004 41.7002 52.5 24.5996z" />
    <glyph glyph-name="fast-forward" unicode="&#xf050;" 
d="M512 372v-360c0 -6.59961 -5.40039 -12 -12 -12h-40c-6.59961 0 -12 5.40039 -12 12v151.9l-171.5 -156.5c-20.5996 -17.2002 -52.5 -2.80078 -52.5 24.5996v131.9l-171.5 -156.5c-20.5996 -17.2002 -52.5 -2.80078 -52.5 24.5996v320
c0 27.4004 31.9004 41.7002 52.5 24.5996l171.5 -155.399v130.8c0 27.4004 31.9004 41.7002 52.5 24.5996l171.5 -155.399v150.8c0 6.59961 5.40039 12 12 12h40c6.59961 0 12 -5.40039 12 -12z" />
    <glyph glyph-name="step-forward" unicode="&#xf051;" horiz-adv-x="448" 
d="M384 404v-424c0 -6.59961 -5.40039 -12 -12 -12h-48c-6.59961 0 -12 5.40039 -12 12v176.4l-195.5 -181c-20.5996 -17.1006 -52.5 -2.80078 -52.5 24.5996v384c0 27.4004 31.9004 41.7002 52.5 24.5996l195.5 -179.899v175.3c0 6.59961 5.40039 12 12 12h48
c6.59961 0 12 -5.40039 12 -12z" />
    <glyph glyph-name="eject" unicode="&#xf052;" horiz-adv-x="448" 
d="M448 64v-64c0 -17.6729 -14.3271 -32 -32 -32h-384c-17.6729 0 -32 14.3271 -32 32v64c0 17.6729 14.3271 32 32 32h384c17.6729 0 32 -14.3271 32 -32zM48.0527 128c-41.7285 0 -63.5273 49.7324 -35.3828 80.4346l175.946 192.008
c19.0156 20.7432 51.7529 20.7422 70.7666 0l175.939 -192.008c28.1973 -30.7607 6.26758 -80.4346 -35.3828 -80.4346h-351.887z" />
    <glyph glyph-name="chevron-left" unicode="&#xf053;" horiz-adv-x="320" 
d="M34.5195 208.97l194.351 194.34c9.37012 9.37012 24.5703 9.37012 33.9395 0l22.6709 -22.6699c9.35938 -9.35938 9.36914 -24.5195 0.0390625 -33.8994l-154.029 -154.74l154.02 -154.75c9.33984 -9.37988 9.32031 -24.54 -0.0400391 -33.9004l-22.6699 -22.6699
c-9.37012 -9.37012 -24.5693 -9.37012 -33.9395 0l-194.341 194.351c-9.36914 9.37012 -9.36914 24.5693 0 33.9395z" />
    <glyph glyph-name="chevron-right" unicode="&#xf054;" horiz-adv-x="319" 
d="M285.476 175.029l-194.344 -194.344c-9.37305 -9.37207 -24.5684 -9.37207 -33.9404 0l-22.667 22.667c-9.35742 9.35742 -9.375 24.5225 -0.0400391 33.9014l154.021 154.746l-154.021 154.745c-9.33496 9.37891 -9.31738 24.5439 0.0400391 33.9014l22.667 22.667
c9.37305 9.37207 24.5684 9.37207 33.9404 0l194.343 -194.344c9.37305 -9.37207 9.37305 -24.5674 0.000976562 -33.9404z" />
    <glyph glyph-name="plus-circle" unicode="&#xf055;" 
d="M256 440c137 0 248 -111 248 -248s-111 -248 -248 -248s-248 111 -248 248s111 248 248 248zM400 164v56c0 6.59961 -5.40039 12 -12 12h-92v92c0 6.59961 -5.40039 12 -12 12h-56c-6.59961 0 -12 -5.40039 -12 -12v-92h-92c-6.59961 0 -12 -5.40039 -12 -12v-56
c0 -6.59961 5.40039 -12 12 -12h92v-92c0 -6.59961 5.40039 -12 12 -12h56c6.59961 0 12 5.40039 12 12v92h92c6.59961 0 12 5.40039 12 12z" />
    <glyph glyph-name="minus-circle" unicode="&#xf056;" 
d="M256 440c137 0 248 -111 248 -248s-111 -248 -248 -248s-248 111 -248 248s111 248 248 248zM124 152h264c6.59961 0 12 5.40039 12 12v56c0 6.59961 -5.40039 12 -12 12h-264c-6.59961 0 -12 -5.40039 -12 -12v-56c0 -6.59961 5.40039 -12 12 -12z" />
    <glyph glyph-name="times-circle" unicode="&#xf057;" 
d="M256 440c137 0 248 -111 248 -248s-111 -248 -248 -248s-248 111 -248 248s111 248 248 248zM377.6 126.9l-65.5996 65.0996l65.7002 65c4.7002 4.7002 4.7002 12.2998 0 17l-39.6006 39.5996c-4.69922 4.7002 -12.2998 4.7002 -17 0l-65.0996 -65.5996l-65 65.7002
c-4.7002 4.7002 -12.2998 4.7002 -17 0l-39.5996 -39.6006c-4.7002 -4.69922 -4.7002 -12.2998 0 -17l65.5996 -65.0996l-65.5996 -65c-4.7002 -4.7002 -4.7002 -12.2998 0 -17l39.5 -39.5996c4.69922 -4.7002 12.2998 -4.7002 17 0l65.0996 65.5996l65 -65.5996
c4.7002 -4.7002 12.2998 -4.7002 17 0l39.5996 39.5c4.7002 4.69922 4.7002 12.2998 0 17z" />
    <glyph glyph-name="check-circle" unicode="&#xf058;" 
d="M504 192c0 -136.967 -111.033 -248 -248 -248s-248 111.033 -248 248s111.033 248 248 248s248 -111.033 248 -248zM227.314 60.6855l184 184c6.24707 6.24805 6.24707 16.3799 0 22.6279l-22.6279 22.627c-6.24707 6.24902 -16.3789 6.24902 -22.6279 0
l-150.059 -150.059l-70.0586 70.0596c-6.24805 6.24805 -16.3799 6.24805 -22.6279 0l-22.6279 -22.627c-6.24707 -6.24805 -6.24707 -16.3799 0 -22.6279l104 -104c6.24902 -6.24805 16.3799 -6.24805 22.6289 -0.000976562z" />
    <glyph glyph-name="question-circle" unicode="&#xf059;" 
d="M504 192c0 -136.997 -111.043 -248 -248 -248s-248 111.003 -248 248c0 136.917 111.043 248 248 248s248 -111.083 248 -248zM262.655 358c-54.4971 0 -89.2549 -22.957 -116.549 -63.7578c-3.53613 -5.28613 -2.35352 -12.415 2.71484 -16.2578l34.6982 -26.3105
c5.20508 -3.94727 12.6211 -3.00781 16.665 2.12207c17.8643 22.6582 30.1133 35.7969 57.3037 35.7969c20.4287 0 45.6973 -13.1475 45.6973 -32.958c0 -14.9756 -12.3623 -22.667 -32.5332 -33.9756c-23.5244 -13.1875 -54.6523 -29.6006 -54.6523 -70.6592v-4
c0 -6.62695 5.37305 -12 12 -12h56c6.62695 0 12 5.37305 12 12v1.33301c0 28.4619 83.1855 29.6475 83.1855 106.667c0 58.002 -60.1641 102 -116.53 102zM256 110c-25.3652 0 -46 -20.6348 -46 -46c0 -25.3643 20.6348 -46 46 -46s46 20.6357 46 46
c0 25.3652 -20.6348 46 -46 46z" />
    <glyph glyph-name="info-circle" unicode="&#xf05a;" 
d="M256 440c136.957 0 248 -111.083 248 -248c0 -136.997 -111.043 -248 -248 -248s-248 111.003 -248 248c0 136.917 111.043 248 248 248zM256 330c-23.1963 0 -42 -18.8037 -42 -42s18.8037 -42 42 -42s42 18.8037 42 42s-18.8037 42 -42 42zM312 76v24
c0 6.62695 -5.37305 12 -12 12h-12v100c0 6.62695 -5.37305 12 -12 12h-64c-6.62695 0 -12 -5.37305 -12 -12v-24c0 -6.62695 5.37305 -12 12 -12h12v-64h-12c-6.62695 0 -12 -5.37305 -12 -12v-24c0 -6.62695 5.37305 -12 12 -12h88c6.62695 0 12 5.37305 12 12z" />
    <glyph glyph-name="crosshairs" unicode="&#xf05b;" 
d="M500 224c6.62695 0 12 -5.37305 12 -12v-40c0 -6.62695 -5.37305 -12 -12 -12h-30.3643c-13.9121 -93.6748 -87.9609 -167.724 -181.636 -181.636v-30.3643c0 -6.62695 -5.37305 -12 -12 -12h-40c-6.62695 0 -12 5.37305 -12 12v30.3643
c-93.6748 13.9121 -167.724 87.9609 -181.636 181.636h-30.3643c-6.62695 0 -12 5.37305 -12 12v40c0 6.62695 5.37305 12 12 12h30.3643c13.9121 93.6748 87.9609 167.724 181.636 181.636v30.3643c0 6.62695 5.37305 12 12 12h40c6.62695 0 12 -5.37305 12 -12v-30.3643
c93.6748 -13.9121 167.724 -87.9609 181.636 -181.636h30.3643zM288 43.3662c58.2432 12.417 104.232 58.46 116.634 116.634h-40.6338c-6.62695 0 -12 5.37305 -12 12v40c0 6.62695 5.37305 12 12 12h40.6338c-12.417 58.2432 -58.46 104.232 -116.634 116.634v-40.6338
c0 -6.62695 -5.37305 -12 -12 -12h-40c-6.62695 0 -12 5.37305 -12 12v40.6338c-58.2432 -12.417 -104.232 -58.46 -116.634 -116.634h40.6338c6.62695 0 12 -5.37305 12 -12v-40c0 -6.62695 -5.37305 -12 -12 -12h-40.6338
c12.417 -58.2432 58.46 -104.232 116.634 -116.634v40.6338c0 6.62695 5.37305 12 12 12h40c6.62695 0 12 -5.37305 12 -12v-40.6338zM288 192c0 -17.6729 -14.3271 -32 -32 -32s-32 14.3271 -32 32s14.3271 32 32 32s32 -14.3271 32 -32z" />
    <glyph glyph-name="ban" unicode="&#xf05e;" 
d="M256 440c136.967 0 248 -111.034 248 -248s-111.034 -248 -248 -248s-248 111.033 -248 248s111.034 248 248 248zM386.108 322.108c-65.4121 65.4102 -165.435 70.0312 -235.639 20.6758l256.315 -256.313c49.3232 70.1562 44.7705 170.189 -20.6768 235.638z
M125.892 61.8916c65.4121 -65.4111 165.436 -70.0312 235.639 -20.6758l-256.315 256.313c-49.3232 -70.1562 -44.7705 -170.189 20.6768 -235.638z" />
    <glyph glyph-name="arrow-left" unicode="&#xf060;" horiz-adv-x="448" 
d="M257.5 2.90039l-22.2002 -22.2002c-9.39941 -9.40039 -24.5996 -9.40039 -33.8994 0l-194.4 194.3c-9.40039 9.40039 -9.40039 24.5996 0 33.9004l194.4 194.399c9.39941 9.40039 24.5996 9.40039 33.8994 0l22.2002 -22.2002c9.5 -9.5 9.2998 -25 -0.400391 -34.2998
l-120.5 -114.8h287.4c13.2998 0 24 -10.7002 24 -24v-32c0 -13.2998 -10.7002 -24 -24 -24h-287.4l120.5 -114.8c9.80078 -9.2998 10 -24.7998 0.400391 -34.2998z" />
    <glyph glyph-name="arrow-right" unicode="&#xf061;" horiz-adv-x="448" 
d="M190.5 381.1l22.2002 22.2002c9.39941 9.40039 24.5996 9.40039 33.8994 0l194.4 -194.3c9.40039 -9.40039 9.40039 -24.5996 0 -33.9004l-194.4 -194.399c-9.39941 -9.40039 -24.5996 -9.40039 -33.8994 0l-22.2002 22.2002c-9.5 9.5 -9.2998 25 0.400391 34.2998
l120.5 114.8h-287.4c-13.2998 0 -24 10.7002 -24 24v32c0 13.2998 10.7002 24 24 24h287.4l-120.5 114.8c-9.80078 9.2998 -10 24.7998 -0.400391 34.2998z" />
    <glyph glyph-name="arrow-up" unicode="&#xf062;" horiz-adv-x="447" 
d="M34.9004 158.5l-22.2002 22.2002c-9.40039 9.39941 -9.40039 24.5996 0 33.8994l194.3 194.4c9.40039 9.40039 24.5996 9.40039 33.9004 0l194.3 -194.3c9.39941 -9.40039 9.39941 -24.6006 0 -33.9004l-22.2002 -22.2002c-9.5 -9.5 -25 -9.2998 -34.2998 0.400391
l-114.7 120.4v-287.4c0 -13.2998 -10.7002 -24 -24 -24h-32c-13.2998 0 -24 10.7002 -24 24v287.4l-114.8 -120.5c-9.2998 -9.80078 -24.7998 -10 -34.2998 -0.400391z" />
    <glyph glyph-name="arrow-down" unicode="&#xf063;" horiz-adv-x="448" 
d="M413.1 225.5l22.2002 -22.2002c9.40039 -9.39941 9.40039 -24.5996 0 -33.8994l-194.3 -194.4c-9.40039 -9.40039 -24.5996 -9.40039 -33.9004 0l-194.399 194.4c-9.40039 9.39941 -9.40039 24.5996 0 33.8994l22.2002 22.2002c9.5 9.5 25 9.2998 34.2998 -0.400391
l114.8 -120.5v287.4c0 13.2998 10.7002 24 24 24h32c13.2998 0 24 -10.7002 24 -24v-287.4l114.8 120.5c9.2998 9.80078 24.7998 10 34.2998 0.400391z" />
    <glyph glyph-name="share" unicode="&#xf064;" 
d="M503.691 258.164c11.0859 -9.5752 11.0703 -26.7656 0 -36.3281l-176.005 -152c-15.3867 -13.2891 -39.6865 -2.53613 -39.6865 18.1641v87.915c-155.083 -2.23145 -221.934 -40.7295 -176.59 -185.742c5.03418 -16.0977 -14.4238 -28.5615 -28.0771 -18.6309
c-43.752 31.8232 -83.333 92.6914 -83.333 154.132c0 152.227 127.371 184.419 288 186.258v80.0537c0 20.668 24.2812 31.4688 39.6865 18.1641z" />
    <glyph glyph-name="expand" unicode="&#xf065;" horiz-adv-x="448" 
d="M0 268v124c0 13.2998 10.7002 24 24 24h124c6.59961 0 12 -5.40039 12 -12v-40c0 -6.59961 -5.40039 -12 -12 -12h-84v-84c0 -6.59961 -5.40039 -12 -12 -12h-40c-6.59961 0 -12 5.40039 -12 12zM288 404c0 6.59961 5.40039 12 12 12h124c13.2998 0 24 -10.7002 24 -24
v-124c0 -6.59961 -5.40039 -12 -12 -12h-40c-6.59961 0 -12 5.40039 -12 12v84h-84c-6.59961 0 -12 5.40039 -12 12v40zM436 128c6.59961 0 12 -5.40039 12 -12v-124c0 -13.2998 -10.7002 -24 -24 -24h-124c-6.59961 0 -12 5.40039 -12 12v40c0 6.59961 5.40039 12 12 12h84
v84c0 6.59961 5.40039 12 12 12h40zM160 -20c0 -6.59961 -5.40039 -12 -12 -12h-124c-13.2998 0 -24 10.7002 -24 24v124c0 6.59961 5.40039 12 12 12h40c6.59961 0 12 -5.40039 12 -12v-84h84c6.59961 0 12 -5.40039 12 -12v-40z" />
    <glyph glyph-name="compress" unicode="&#xf066;" horiz-adv-x="448" 
d="M436 256h-124c-13.2998 0 -24 10.7002 -24 24v124c0 6.59961 5.40039 12 12 12h40c6.59961 0 12 -5.40039 12 -12v-84h84c6.59961 0 12 -5.40039 12 -12v-40c0 -6.59961 -5.40039 -12 -12 -12zM160 280c0 -13.2998 -10.7002 -24 -24 -24h-124
c-6.59961 0 -12 5.40039 -12 12v40c0 6.59961 5.40039 12 12 12h84v84c0 6.59961 5.40039 12 12 12h40c6.59961 0 12 -5.40039 12 -12v-124zM160 -20c0 -6.59961 -5.40039 -12 -12 -12h-40c-6.59961 0 -12 5.40039 -12 12v84h-84c-6.59961 0 -12 5.40039 -12 12v40
c0 6.59961 5.40039 12 12 12h124c13.2998 0 24 -10.7002 24 -24v-124zM352 -20c0 -6.59961 -5.40039 -12 -12 -12h-40c-6.59961 0 -12 5.40039 -12 12v124c0 13.2998 10.7002 24 24 24h124c6.59961 0 12 -5.40039 12 -12v-40c0 -6.59961 -5.40039 -12 -12 -12h-84v-84z" />
    <glyph glyph-name="plus" unicode="&#xf067;" horiz-adv-x="448" 
d="M416 240c17.6699 0 32 -14.3301 32 -32v-32c0 -17.6699 -14.3301 -32 -32 -32h-144v-144c0 -17.6699 -14.3301 -32 -32 -32h-32c-17.6699 0 -32 14.3301 -32 32v144h-144c-17.6699 0 -32 14.3301 -32 32v32c0 17.6699 14.3301 32 32 32h144v144
c0 17.6699 14.3301 32 32 32h32c17.6699 0 32 -14.3301 32 -32v-144h144z" />
    <glyph glyph-name="minus" unicode="&#xf068;" horiz-adv-x="448" 
d="M416 240c17.6699 0 32 -14.3301 32 -32v-32c0 -17.6699 -14.3301 -32 -32 -32h-384c-17.6699 0 -32 14.3301 -32 32v32c0 17.6699 14.3301 32 32 32h384z" />
    <glyph glyph-name="asterisk" unicode="&#xf069;" 
d="M478.21 113.907c11.7949 -6.47754 15.96 -21.3828 9.23242 -33.0361l-19.4805 -33.7412c-6.72754 -11.6533 -21.7207 -15.499 -33.2266 -8.52246l-138.735 84.1104l3.47559 -162.204c0.288086 -13.4531 -10.5391 -24.5137 -23.9941 -24.5137h-38.9619
c-13.4551 0 -24.2822 11.0605 -23.9941 24.5137l3.47461 162.204l-138.735 -84.1113c-11.5059 -6.97656 -26.499 -3.13086 -33.2266 8.52246l-19.4805 33.7412c-6.72852 11.6533 -2.5625 26.5596 9.23242 33.0371l142.21 78.0928l-142.209 78.0918
c-11.7949 6.47754 -15.9609 21.3838 -9.2334 33.0371l19.4805 33.7412c6.72754 11.6533 21.7207 15.499 33.2266 8.52246l138.735 -84.1104l-3.47363 162.204c-0.289062 13.4531 10.5381 24.5137 23.9932 24.5137h38.9609c13.4561 0 24.2822 -11.0605 23.9941 -24.5137
l-3.47461 -162.204l138.735 84.1113c11.5068 6.97656 26.499 3.13086 33.2266 -8.52246l19.4805 -33.7412c6.72852 -11.6533 2.5625 -26.5596 -9.23242 -33.0371l-142.21 -78.0928z" />
    <glyph glyph-name="exclamation-circle" unicode="&#xf06a;" 
d="M504 192c0 -136.997 -111.043 -248 -248 -248s-248 111.003 -248 248c0 136.917 111.043 248 248 248s248 -111.083 248 -248zM256 142c-25.4053 0 -46 -20.5947 -46 -46s20.5947 -46 46 -46s46 20.5947 46 46s-20.5947 46 -46 46zM212.327 307.346l7.41797 -136
c0.34668 -6.36328 5.6084 -11.3457 11.9814 -11.3457h48.5469c6.37305 0 11.6348 4.98242 11.9814 11.3457l7.41797 136c0.375 6.87402 -5.09766 12.6543 -11.9814 12.6543h-63.3838c-6.88379 0 -12.3555 -5.78027 -11.9805 -12.6543z" />
    <glyph glyph-name="gift" unicode="&#xf06b;" 
d="M32 0v128h192v-160h-160c-17.7002 0 -32 14.2998 -32 32zM288 -32v160h192v-128c0 -17.7002 -14.2998 -32 -32 -32h-160zM480 288c17.7002 0 32 -14.2998 32 -32v-80c0 -8.7998 -7.2002 -16 -16 -16h-480c-8.7998 0 -16 7.2002 -16 16v80c0 17.7002 14.2998 32 32 32
h44.0996c-6.2998 12.0996 -10.0996 25.5 -10.0996 40c0 48.5 39.5 88 88 88c41.5996 0 68.5 -21.2998 103 -68.2998c34.5 47 61.4004 68.2998 103 68.2998c48.5 0 88 -39.5 88 -88c0 -14.5 -3.90039 -27.9004 -10.0996 -40h42.0996zM153.9 288h86.0996
c-51.5 76.7002 -66.2002 80 -86.0996 80c-22.1006 0 -40 -17.9004 -40 -40s17.8994 -40 40 -40zM360 288c22.0996 0 40 17.9004 40 40s-17.9004 40 -40 40c-20.4004 0 -34.7002 -3.5 -86.0996 -80h86.0996z" />
    <glyph glyph-name="leaf" unicode="&#xf06c;" horiz-adv-x="576" 
d="M546.2 438.3c19 -42.3994 29.7998 -94.3994 29.7998 -144.6c0 -172.4 -110.5 -313.2 -267.5 -324.601c-80.9004 -8.59961 -142.5 33.3008 -174.9 77.2002c-51 -42.7002 -70.3994 -87 -71.8994 -90.5996c-6.7998 -16.2002 -25.4004 -24.1006 -41.7998 -17.2998
c-16.3008 6.69922 -24.1006 25.2998 -17.5 41.5996c23.5996 57.9004 130.199 212 381.6 212c8.7998 0 16 7.2002 16 16s-7.2002 16 -16 16c-130.6 0 -222.7 -38.7998 -286.5 -84.5c-0.700195 6.7998 -1.5 13.5 -1.5 20.5c0 106 86 192 192 192h80
c63.4004 0 118.9 33.5996 149.9 87.5c6.69922 11.7998 22.6992 11.2998 28.2998 -1.2002z" />
    <glyph glyph-name="fire" unicode="&#xf06d;" horiz-adv-x="384" 
d="M216 424.14c0 -103.14 168 -125.85 168 -296.14c0 -105.87 -86.1299 -192 -192 -192s-192 86.1299 -192 192c0 58.6699 27.7998 106.84 54.5703 134.96c14.96 15.7305 41.4297 5.2002 41.4297 -16.5v-85.5098c0 -35.1699 27.9805 -64.4902 63.1504 -64.9404
c35.7393 -0.469727 64.8496 28.3604 64.8496 63.9902c0 88 -176 96.1504 -52.1504 277.18c13.5 19.7305 44.1504 10.7607 44.1504 -13.04z" />
    <glyph glyph-name="eye" unicode="&#xf06e;" horiz-adv-x="576" 
d="M572.52 206.6c1.9209 -3.79883 3.47949 -10.3379 3.47949 -14.5947s-1.55859 -10.7959 -3.47949 -14.5947c-54.1992 -105.771 -161.59 -177.41 -284.52 -177.41s-230.29 71.5898 -284.52 177.4c-1.9209 3.79883 -3.47949 10.3379 -3.47949 14.5947
s1.55859 10.7959 3.47949 14.5947c54.1992 105.771 161.59 177.41 284.52 177.41s230.29 -71.5898 284.52 -177.4zM288 48h0.0703125c79.4492 0 143.93 64.4805 143.93 143.93v0.0703125c0 79.4883 -64.5117 144 -144 144s-144 -64.5117 -144 -144s64.5117 -144 144 -144z
M288 288h0.225586c52.8701 0 95.7803 -42.9092 95.7803 -95.7793c0 -52.8711 -42.9102 -95.7803 -95.7803 -95.7803c-52.8711 0 -95.7803 42.9092 -95.7803 95.7803c0 7.04785 1.49805 18.2871 3.34473 25.0889c6.9834 -5.13867 19.6895 -9.30957 28.3604 -9.30957
c26.4131 0 47.8496 21.4365 47.8496 47.8496c0 8.6709 -4.1709 21.377 -9.30957 28.3604c6.84375 1.99219 18.1826 3.69043 25.3096 3.79004z" />
    <glyph glyph-name="eye-slash" unicode="&#xf070;" horiz-adv-x="640" 
d="M320 48c7.24121 0.0673828 18.8896 1.23633 26 2.61035l51.8896 -40.1504c-25.0195 -6.45996 -50.9795 -10.46 -77.8896 -10.46c-122.93 0 -230.29 71.5898 -284.52 177.4c-1.9209 3.79883 -3.47949 10.3379 -3.47949 14.5947s1.55859 10.7959 3.47949 14.5947
c10.2393 20 22.9297 38.29 36.7197 55.5898l104.899 -81.0693c5.65039 -74.4004 67.0508 -133.11 142.9 -133.11zM633.82 -10.0996c3.41309 -2.65234 6.18359 -8.3125 6.18359 -12.6357c0 -3.02734 -1.50684 -7.42383 -3.36426 -9.81445l-19.6396 -25.2705
c-2.65234 -3.41211 -8.31152 -6.18262 -12.6338 -6.18262c-3.03125 0 -7.43359 1.51172 -9.82617 3.37305l-588.36 454.729c-3.41016 2.65234 -6.17773 8.31055 -6.17773 12.6309c0 3.0293 1.50879 7.42773 3.36816 9.81934l19.6299 25.2705
c2.65234 3.41211 8.31152 6.18262 12.6338 6.18262c3.03125 0 7.43359 -1.51172 9.82617 -3.37305l127.22 -98.3301c38.0117 20.7578 104.011 37.6475 147.32 37.7002c122.93 0 230.29 -71.5898 284.52 -177.4c1.9209 -3.79883 3.47949 -10.3379 3.47949 -14.5947
s-1.55859 -10.7959 -3.47949 -14.5947c-16.7666 -32.6758 -53.166 -78.4033 -81.25 -102.07zM450.1 131.9c8.61035 18.3203 13.9004 38.4697 13.9004 60.0996v0.0800781c0 79.4434 -64.4766 143.92 -143.92 143.92h-0.0800781
c-28.4697 -0.0214844 -69.3047 -14.8545 -91.1504 -33.1104l73.6104 -56.8896c0.726562 2.71387 1.41602 7.19336 1.54004 10c-0.015625 8.62891 -4.18652 21.2666 -9.30957 28.21c7.17969 2.09668 19.0781 3.79785 26.5576 3.79785
c52.3076 0 94.7598 -42.4521 94.7598 -94.7598c0 -0.344727 -0.00292969 -0.90332 -0.0078125 -1.24805c-0.112305 -8.43457 -2.44238 -21.749 -5.2002 -29.7197z" />
    <glyph glyph-name="exclamation-triangle" unicode="&#xf071;" horiz-adv-x="576" 
d="M569.517 7.9873c18.458 -31.9941 -4.71094 -71.9873 -41.5762 -71.9873h-479.887c-36.9365 0 -59.999 40.0547 -41.5771 71.9873l239.946 416.027c18.4668 32.0098 64.7197 31.9512 83.1543 0zM288 94c-25.4053 0 -46 -20.5947 -46 -46s20.5947 -46 46 -46
s46 20.5947 46 46s-20.5947 46 -46 46zM244.327 259.346l7.41797 -136c0.34668 -6.36328 5.6084 -11.3457 11.9814 -11.3457h48.5469c6.37305 0 11.6348 4.98242 11.9814 11.3457l7.41797 136c0.375 6.87402 -5.09766 12.6543 -11.9814 12.6543h-63.3838
c-6.88379 0 -12.3555 -5.78027 -11.9805 -12.6543z" />
    <glyph glyph-name="plane" unicode="&#xf072;" horiz-adv-x="576" 
d="M480 256c35.3496 0 96 -28.6504 96 -64s-60.6504 -64 -96 -64h-114.29l-105.11 -183.94c-2.84961 -4.97949 -8.14941 -8.05957 -13.8896 -8.05957h-65.5c-10.6299 0 -18.2998 10.1797 -15.3799 20.4004l49.0303 171.6h-102.86l-43.2002 -57.5996
c-3.01953 -4.03027 -7.75977 -6.40039 -12.7998 -6.40039h-39.9902c-10.4102 0 -18.0498 9.78027 -15.5195 19.8799l31.5098 108.12l-31.5098 108.12c-2.53027 10.0996 5.10938 19.8799 15.5195 19.8799h39.9902c5.03027 0 9.78027 -2.37012 12.7998 -6.40039
l43.2002 -57.5996h102.86l-49.0303 171.61c-2.91992 10.2197 4.75 20.3896 15.3799 20.3896h65.5h0.000976562c5.12598 0 11.3525 -3.61133 13.8994 -8.05957l105.1 -183.94h114.29z" />
    <glyph glyph-name="calendar-alt" unicode="&#xf073;" horiz-adv-x="448" 
d="M0 -16v272h448v-272c0 -26.5 -21.5 -48 -48 -48h-352c-26.5 0 -48 21.5 -48 48zM320 180v-40c0 -6.59961 5.40039 -12 12 -12h40c6.59961 0 12 5.40039 12 12v40c0 6.59961 -5.40039 12 -12 12h-40c-6.59961 0 -12 -5.40039 -12 -12zM320 52v-40
c0 -6.59961 5.40039 -12 12 -12h40c6.59961 0 12 5.40039 12 12v40c0 6.59961 -5.40039 12 -12 12h-40c-6.59961 0 -12 -5.40039 -12 -12zM192 180v-40c0 -6.59961 5.40039 -12 12 -12h40c6.59961 0 12 5.40039 12 12v40c0 6.59961 -5.40039 12 -12 12h-40
c-6.59961 0 -12 -5.40039 -12 -12zM192 52v-40c0 -6.59961 5.40039 -12 12 -12h40c6.59961 0 12 5.40039 12 12v40c0 6.59961 -5.40039 12 -12 12h-40c-6.59961 0 -12 -5.40039 -12 -12zM64 180v-40c0 -6.59961 5.40039 -12 12 -12h40c6.59961 0 12 5.40039 12 12v40
c0 6.59961 -5.40039 12 -12 12h-40c-6.59961 0 -12 -5.40039 -12 -12zM64 52v-40c0 -6.59961 5.40039 -12 12 -12h40c6.59961 0 12 5.40039 12 12v40c0 6.59961 -5.40039 12 -12 12h-40c-6.59961 0 -12 -5.40039 -12 -12zM400 384c26.5 0 48 -21.5 48 -48v-48h-448v48
c0 26.5 21.5 48 48 48h48v48c0 8.7998 7.2002 16 16 16h32c8.7998 0 16 -7.2002 16 -16v-48h128v48c0 8.7998 7.2002 16 16 16h32c8.7998 0 16 -7.2002 16 -16v-48h48z" />
    <glyph glyph-name="random" unicode="&#xf074;" 
d="M504.971 88.9707c9.37305 -9.37305 9.37305 -24.5684 0 -33.9404l-80 -79.9844c-15.0098 -15.0098 -40.9707 -4.49023 -40.9707 16.9707v39.9834h-58.7852c-2.87793 0 -6.80859 1.70801 -8.77246 3.81152l-70.5566 75.5967l53.333 57.1426l52.7812 -56.5508h32v39.9814
c0 21.4375 25.9434 31.9971 40.9707 16.9707zM12 272c-6.62695 0 -12 5.37305 -12 12v56c0 6.62695 5.37305 12 12 12h110.785h0.000976562c2.87793 0 6.80762 -1.70801 8.77148 -3.81152l70.5566 -75.5967l-53.333 -57.1426l-52.7812 56.5508h-84zM384 272h-32
l-220.442 -236.188c-2.26953 -2.43066 -5.44629 -3.81152 -8.77246 -3.81152h-110.785c-6.62695 0 -12 5.37305 -12 12v56c0 6.62695 5.37305 12 12 12h84l220.442 236.188c1.96387 2.10352 5.89453 3.81152 8.77246 3.81152h58.7852v39.9814
c0 21.4365 25.9434 31.9971 40.9707 16.9697l80 -79.9814c9.37305 -9.37207 9.37305 -24.5674 0 -33.9404l-80 -79.9844c-15.0098 -15.0088 -40.9707 -4.48926 -40.9707 16.9707v39.9844z" />
    <glyph glyph-name="comment" unicode="&#xf075;" 
d="M256 416c141.4 0 256 -93.0996 256 -208s-114.6 -208 -256 -208c-38.4004 0 -74.7002 7.09961 -107.4 19.4004c-24.5996 -19.6006 -74.2998 -51.4004 -140.6 -51.4004c-3.2002 0 -6 1.7998 -7.2998 4.7998s-0.700195 6.40039 1.5 8.7002
c0.5 0.5 42.2998 45.4004 54.7998 95.7998c-35.5996 35.7002 -57 81.1006 -57 130.7c0 114.9 114.6 208 256 208z" />
    <glyph glyph-name="magnet" unicode="&#xf076;" 
d="M164.1 288h-152.1c-6.59961 0 -12 5.40039 -12 12v80c0 19.9004 16.0996 36 36 36h104c19.9004 0 36 -16.0996 36 -36v-80c0.0996094 -6.59961 -5.2998 -12 -11.9004 -12zM512.1 300c0 -6.59961 -5.39941 -12 -12 -11.9004h-152c-6.59961 0 -12 5.40039 -12 12v80
c0 19.9004 16.1006 36 36 36h104c19.9004 0 36 -16.0996 36 -36v-80.0996zM348.1 256h151.9c6.7002 0 12 -5.40039 12 -12.0996c-0.200195 -20.2002 -0.599609 -40.4004 0 -53.2002c0 -150.7 -134.5 -246.7 -255.1 -246.7c-120.601 0 -256.801 96 -256.801 246.6
c0.600586 13 0.100586 31.9004 0 53.3008c0 6.69922 5.30078 12.0996 12 12.0996h152c6.60059 0 12 -5.40039 12 -12v-52c0 -127.9 160 -128.1 160 0v52c0 6.59961 5.40039 12 12 12z" />
    <glyph glyph-name="chevron-up" unicode="&#xf077;" horiz-adv-x="448" 
d="M240.971 317.476l194.344 -194.343c9.37207 -9.37305 9.37207 -24.5684 0 -33.9404l-22.667 -22.667c-9.35742 -9.35742 -24.5225 -9.375 -33.9014 -0.0400391l-154.746 154.02l-154.745 -154.021c-9.37891 -9.33496 -24.5439 -9.31738 -33.9014 0.0400391
l-22.667 22.667c-9.37207 9.37305 -9.37207 24.5684 0 33.9404l194.344 194.343c9.37207 9.37305 24.5674 9.37305 33.9404 0.000976562z" />
    <glyph glyph-name="chevron-down" unicode="&#xf078;" horiz-adv-x="447" 
d="M207.029 66.5244l-194.344 194.344c-9.37207 9.37305 -9.37207 24.5684 0 33.9404l22.667 22.667c9.35742 9.35742 24.5225 9.375 33.9014 0.0400391l154.746 -154.021l154.745 154.021c9.37891 9.33496 24.5439 9.31738 33.9014 -0.0400391l22.667 -22.667
c9.37207 -9.37305 9.37207 -24.5684 0 -33.9404l-194.343 -194.344c-9.37305 -9.37207 -24.5684 -9.37207 -33.9414 0z" />
    <glyph glyph-name="retweet" unicode="&#xf079;" horiz-adv-x="640" 
d="M629.657 104.402l-100.687 -100.687c-9.37305 -9.37207 -24.5674 -9.37207 -33.9404 0l-100.688 100.687c-9.37305 9.37305 -9.37305 24.5684 0 33.9404l10.8232 10.8232c9.56152 9.56152 25.1328 9.33984 34.4189 -0.492188l40.415 -42.792v182.118h-187.549
c-5.4873 0 -13.0908 3.14941 -16.9707 7.0293l-16 16c-15.1191 15.1201 -4.41113 40.9707 16.9707 40.9707h243.549c13.2549 0 24 -10.7451 24 -24v-222.118l40.416 42.792c9.28516 9.83105 24.8564 10.0537 34.4189 0.492188l10.8232 -10.8232
c9.37207 -9.37207 9.37207 -24.5684 -0.000976562 -33.9404zM364.519 88.9707l16.001 -16c15.1191 -15.1201 4.41113 -40.9707 -16.9707 -40.9707h-243.549c-13.2549 0 -24 10.7451 -24 24v222.119l-40.416 -42.793c-9.28613 -9.83105 -24.8574 -10.0527 -34.4189 -0.491211
l-10.8223 10.8223c-9.37305 9.37207 -9.37305 24.5674 0 33.9404l100.688 100.687c9.37207 9.37305 24.5674 9.37305 33.9404 0l100.687 -100.686c9.37305 -9.37207 9.37305 -24.5674 0 -33.9404l-10.8223 -10.8223c-9.5625 -9.5625 -25.1328 -9.33984 -34.4189 0.491211
l-40.416 42.792v-182.119h187.548h0.000976562c5.4873 0 13.0898 -3.14941 16.9697 -7.0293z" />
    <glyph glyph-name="shopping-cart" unicode="&#xf07a;" horiz-adv-x="575" 
d="M528.12 146.681c-2.4834 -10.9268 -12.1973 -18.6807 -23.4033 -18.6807h-293.145l6.54492 -32h268.418c15.4004 0 26.8154 -14.3008 23.4033 -29.3193l-5.51758 -24.2754c18.6914 -9.07324 31.5791 -28.2334 31.5791 -50.4053c0 -30.9277 -25.0723 -56 -56 -56
s-56 25.0723 -56 56c0 15.6738 6.44727 29.835 16.8232 40h-209.647c10.377 -10.165 16.8242 -24.3262 16.8242 -40c0 -30.9277 -25.0723 -56 -56 -56s-56 25.0723 -56 56c0 20.7783 11.3252 38.9004 28.1309 48.5654l-70.248 343.435h-69.8828
c-13.2549 0 -24 10.7451 -24 24v16c0 13.2549 10.7451 24 24 24h102.529c11.4004 0 21.2285 -8.02148 23.5127 -19.1904l9.16602 -44.8096h392.782c15.4004 0 26.8154 -14.3008 23.4023 -29.3193z" />
    <glyph glyph-name="folder" unicode="&#xf07b;" 
d="M464 320c26.5098 0 48 -21.4902 48 -48v-224c0 -26.5098 -21.4902 -48 -48 -48h-416c-26.5098 0 -48 21.4902 -48 48v288c0 26.5098 21.4902 48 48 48h160l64 -64h192z" />
    <glyph glyph-name="folder-open" unicode="&#xf07c;" horiz-adv-x="576" 
d="M572.694 155.907l-72.4248 -124.155c-10.2236 -17.5273 -34.9883 -31.752 -55.2793 -31.752h-0.000976562h-399.964c-18.5234 0 -30.0645 20.0928 -20.7314 36.0928l72.4238 124.155c10.2246 17.5273 34.9902 31.752 55.2822 31.752v0h399.964
c18.5234 0 30.0645 -20.0928 20.7305 -36.0928zM152 224c-34.0107 0 -65.7861 -18.25 -82.9229 -47.6279l-69.0771 -118.418v278.046c0 26.5098 21.4902 48 48 48h160l64 -64h160c26.5098 0 48 -21.4902 48 -48v-48h-328z" />
    <glyph glyph-name="arrows-v" unicode="&#xf07d;" horiz-adv-x="256" 
d="M160 41.8145l43.7285 46.208c9.28906 9.81445 24.8467 10.0293 34.4023 0.473633l10.8398 -10.8398c9.37305 -9.37207 9.37305 -24.5684 0 -33.9414l-98.3428 -98.3428c-12.4971 -12.4971 -32.7578 -12.4971 -45.2549 0l-98.3428 98.3428
c-9.37305 9.37207 -9.37305 24.5684 0 33.9414l10.8398 10.8398c9.55566 9.55566 25.1133 9.34082 34.4023 -0.473633l43.7275 -46.208v300.37l-43.7285 -46.207c-9.28906 -9.81445 -24.8467 -10.0293 -34.4023 -0.473633l-10.8398 10.8398
c-9.37305 9.37207 -9.37305 24.5684 0 33.9414l98.3428 98.3418c12.4971 12.4971 32.7578 12.4971 45.2549 0l98.3428 -98.3428c9.37305 -9.37207 9.37305 -24.5684 0 -33.9414l-10.8398 -10.8398c-9.55566 -9.55566 -25.1133 -9.34082 -34.4023 0.473633l-43.7275 46.208
v-300.37z" />
    <glyph glyph-name="arrows-h" unicode="&#xf07e;" 
d="M105.815 160l46.208 -43.7275c9.81445 -9.28906 10.0293 -24.8467 0.473633 -34.4023l-10.8398 -10.8398c-9.37207 -9.37305 -24.5684 -9.37305 -33.9414 0l-98.3428 98.3428c-12.4971 12.4971 -12.4971 32.7578 0 45.2549l98.3428 98.3418
c9.37207 9.37305 24.5684 9.37305 33.9414 0l10.8398 -10.8398c9.55566 -9.55566 9.34082 -25.1133 -0.473633 -34.4023l-46.208 -43.7275h300.37l-46.208 43.7285c-9.81445 9.28906 -10.0293 24.8467 -0.473633 34.4023l10.8398 10.8398
c9.37207 9.37305 24.5684 9.37305 33.9414 0l98.3428 -98.3428c12.4971 -12.4971 12.4971 -32.7578 0 -45.2549l-98.3428 -98.3428c-9.37207 -9.37305 -24.5684 -9.37305 -33.9414 0l-10.8398 10.8398c-9.55566 9.55566 -9.34082 25.1133 0.473633 34.4023l46.208 43.7275
h-300.37z" />
    <glyph glyph-name="chart-bar" unicode="&#xf080;" 
d="M332.8 128c-6.39941 0 -12.7998 6.40039 -12.7998 12.7998v134.4c0 6.39941 6.40039 12.7998 12.7998 12.7998h38.4004c6.39941 0 12.7998 -6.40039 12.7998 -12.7998v-134.4c0 -6.39941 -6.40039 -12.7998 -12.7998 -12.7998h-38.4004zM428.8 128
c-6.39941 0 -12.7998 6.40039 -12.7998 12.7998v230.4c0 6.39941 6.40039 12.7998 12.7998 12.7998h38.4004c6.39941 0 12.7998 -6.40039 12.7998 -12.7998v-230.4c0 -6.39941 -6.40039 -12.7998 -12.7998 -12.7998h-38.4004zM140.8 128
c-6.39941 0 -12.7998 6.40039 -12.7998 12.7998v70.4004c0 6.39941 6.40039 12.7998 12.7998 12.7998h38.4004c6.39941 0 12.7998 -6.40039 12.7998 -12.7998v-70.4004c0 -6.39941 -6.40039 -12.7998 -12.7998 -12.7998h-38.4004zM236.8 128
c-6.39941 0 -12.7998 6.40039 -12.7998 12.7998v198.4c0 6.39941 6.40039 12.7998 12.7998 12.7998h38.4004c6.39941 0 12.7998 -6.40039 12.7998 -12.7998v-198.4c0 -6.39941 -6.40039 -12.7998 -12.7998 -12.7998h-38.4004zM496 64c8.83984 0 16 -7.16016 16 -16v-32
c0 -8.83984 -7.16016 -16 -16 -16h-464c-17.6699 0 -32 14.3301 -32 32v336c0 8.83984 7.16016 16 16 16h32c8.83984 0 16 -7.16016 16 -16v-304h432z" />
    <glyph glyph-name="camera-retro" unicode="&#xf083;" 
d="M48 416h416c26.5 0 48 -21.5 48 -48v-352c0 -26.5 -21.5 -48 -48 -48h-416c-26.5 0 -48 21.5 -48 48v352c0 26.5 21.5 48 48 48zM48 384c-8.7998 0 -16 -7.2002 -16 -16v-10c0 -3.2998 2.7002 -6 6 -6h116c3.2998 0 6 2.7002 6 6v20c0 3.2998 -2.7002 6 -6 6h-106z
M474 288c3.2998 0 6 2.7002 6 6v74c0 8.7998 -7.2002 16 -16 16h-252.8c-2 0 -3.90039 -1 -5 -2.7002l-30.2002 -45.2998h-138c-3.2998 0 -6 -2.7002 -6 -6v-36c0 -3.2998 2.7002 -6 6 -6h436zM256 24c66.2002 0 120 53.7998 120 120s-53.7998 120 -120 120
s-120 -53.7998 -120 -120s53.7998 -120 120 -120zM256 232c48.5 0 88 -39.5 88 -88s-39.5 -88 -88 -88s-88 39.5 -88 88s39.5 88 88 88zM208 128c8.7998 0 16 7.2002 16 16c0 17.5996 14.4004 32 32 32c8.7998 0 16 7.2002 16 16s-7.2002 16 -16 16
c-35.2998 0 -64 -28.7002 -64 -64c0 -8.7998 7.2002 -16 16 -16z" />
    <glyph glyph-name="key" unicode="&#xf084;" 
d="M512 271.999c0 -97.2021 -78.7979 -175.999 -176 -175.999c-11.2197 0 -22.1904 1.06152 -32.8271 3.06934l-24.0117 -27.0146c-3.95215 -4.44629 -11.9883 -8.05469 -17.9375 -8.05469h-0.000976562h-37.2227v-40c0 -13.2549 -10.7451 -24 -24 -24h-40v-40
c0 -13.2549 -10.7451 -24 -24 -24h-112c-13.2549 0 -24 10.7451 -24 24v78.0586c0 6.36523 2.5293 12.4707 7.0293 16.9717l161.802 161.802c-5.72266 17.3535 -8.83105 35.8965 -8.83105 55.168c0 97.2021 78.7969 175.999 175.999 176
c97.4893 0.000976562 176.001 -78.5107 176.001 -176.001zM336 320c0 -26.5098 21.4902 -48 48 -48s48 21.4902 48 48s-21.4902 48 -48 48s-48 -21.4902 -48 -48z" />
    <glyph glyph-name="cogs" unicode="&#xf085;" horiz-adv-x="639" 
d="M512.1 257l-8.19922 -14.2998c-3 -5.2998 -9.40039 -7.5 -15.1006 -5.40039c-11.7998 4.40039 -22.5996 10.7002 -32.0996 18.6006c-4.60059 3.7998 -5.7998 10.5 -2.7998 15.6992l8.19922 14.3008c-6.89941 8 -12.2998 17.2998 -15.8994 27.3994h-16.5
c-6 0 -11.2002 4.2998 -12.2002 10.2998c-2 12 -2.09961 24.6006 0 37.1006c1 6 6.2002 10.3994 12.2002 10.3994h16.5c3.59961 10.1006 9 19.4004 15.8994 27.4004l-8.19922 14.2998c-3 5.2002 -1.90039 11.9004 2.7998 15.7002
c9.5 7.90039 20.3994 14.2002 32.0996 18.5996c5.7002 2.10059 12.1006 -0.0996094 15.1006 -5.39941l8.19922 -14.2998c10.5 1.89941 21.2002 1.89941 31.7002 0l8.2002 14.2998c3 5.2998 9.40039 7.5 15.0996 5.39941c11.8008 -4.39941 22.6006 -10.6992 32.1006 -18.5996
c4.59961 -3.7998 5.7998 -10.5 2.7998 -15.7002l-8.2002 -14.2998c6.90039 -8 12.2998 -17.2998 15.9004 -27.4004h16.5c6 0 11.2002 -4.2998 12.2002 -10.2998c2 -12 2.09961 -24.5996 0 -37.0996c-1 -6 -6.2002 -10.4004 -12.2002 -10.4004h-16.5
c-3.60059 -10.0996 -9 -19.3994 -15.9004 -27.3994l8.2002 -14.3008c3 -5.19922 1.90039 -11.8994 -2.7998 -15.6992c-9.5 -7.90039 -20.4004 -14.2002 -32.1006 -18.6006c-5.69922 -2.09961 -12.0996 0.100586 -15.0996 5.40039l-8.2002 14.2998
c-10.3994 -1.90039 -21.2002 -1.90039 -31.7002 0zM501.6 315.8c38.5 -29.5996 82.4004 14.2998 52.8008 52.7998c-38.5 29.7002 -82.4004 -14.2998 -52.8008 -52.7998zM386.3 161.9l33.7002 -16.8008c10.0996 -5.7998 14.5 -18.0996 10.5 -29.0996
c-8.90039 -24.2002 -26.4004 -46.4004 -42.5996 -65.7998c-7.40039 -8.90039 -20.2002 -11.1006 -30.3008 -5.2998l-29.0996 16.7998c-16 -13.7002 -34.5996 -24.6006 -54.9004 -31.7002v-33.5996c0 -11.6006 -8.2998 -21.6006 -19.6992 -23.6006
c-24.6006 -4.2002 -50.4004 -4.39941 -75.9004 0c-11.5 2 -20 11.9004 -20 23.6006v33.5996c-20.2998 7.2002 -38.9004 18 -54.9004 31.7002l-29.0996 -16.7002c-10 -5.7998 -22.9004 -3.59961 -30.2998 5.2998c-16.2002 19.4004 -33.2998 41.6006 -42.2002 65.7002
c-4 10.9004 0.400391 23.2002 10.5 29.0996l33.2998 16.8008c-3.89941 20.8994 -3.89941 42.3994 0 63.3994l-33.2998 16.9004c-10.0996 5.7998 -14.5996 18.0996 -10.5 29c8.90039 24.2002 26 46.3994 42.2002 65.7998c7.39941 8.90039 20.2002 11.0996 30.2998 5.2998
l29.0996 -16.7998c16 13.7002 34.6006 24.5996 54.9004 31.7002v33.7002c0 11.5 8.2002 21.5 19.5996 23.5c24.6006 4.19922 50.5 4.39941 76 0.0996094c11.5 -2 20 -11.9004 20 -23.5996v-33.6006c20.3008 -7.2002 38.9004 -18 54.9004 -31.7002l29.0996 16.8008
c10 5.7998 22.9004 3.59961 30.3008 -5.30078c16.1992 -19.3994 33.1992 -41.5996 42.0996 -65.7998c4 -10.8994 0.0996094 -23.2002 -10 -29.0996l-33.7002 -16.7998c3.90039 -21 3.90039 -42.5 0 -63.5zM268.7 140.8c59.2002 77 -28.7002 164.9 -105.7 105.7
c-59.2002 -77 28.7002 -164.9 105.7 -105.7zM512.1 -41.9004l-8.19922 -14.2998c-3 -5.2998 -9.40039 -7.5 -15.1006 -5.39941c-11.7998 4.39941 -22.5996 10.6992 -32.0996 18.5996c-4.60059 3.7998 -5.7998 10.5 -2.7998 15.7002l8.19922 14.2998
c-6.89941 8 -12.2998 17.2998 -15.8994 27.4004h-16.5c-6 0 -11.2002 4.2998 -12.2002 10.2998c-2 12 -2.09961 24.5996 0 37.0996c1 6 6.2002 10.4004 12.2002 10.4004h16.5c3.59961 10.0996 9 19.3994 15.8994 27.3994l-8.19922 14.3008
c-3 5.19922 -1.90039 11.8994 2.7998 15.6992c9.5 7.90039 20.3994 14.2002 32.0996 18.6006c5.7002 2.09961 12.1006 -0.100586 15.1006 -5.40039l8.19922 -14.2998c10.5 1.90039 21.2002 1.90039 31.7002 0l8.2002 14.2998c3 5.2998 9.40039 7.5 15.0996 5.40039
c11.8008 -4.40039 22.6006 -10.7002 32.1006 -18.6006c4.59961 -3.7998 5.7998 -10.5 2.7998 -15.6992l-8.2002 -14.3008c6.90039 -8 12.2998 -17.2998 15.9004 -27.3994h16.5c6 0 11.2002 -4.2998 12.2002 -10.2998c2 -12 2.09961 -24.6006 0 -37.1006
c-1 -6 -6.2002 -10.3994 -12.2002 -10.3994h-16.5c-3.60059 -10.1006 -9 -19.4004 -15.9004 -27.4004l8.2002 -14.2998c3 -5.2002 1.90039 -11.9004 -2.7998 -15.7002c-9.5 -7.90039 -20.4004 -14.2002 -32.1006 -18.5996
c-5.69922 -2.10059 -12.0996 0.0996094 -15.0996 5.39941l-8.2002 14.2998c-10.3994 -1.89941 -21.2002 -1.89941 -31.7002 0zM501.6 17c38.5 -29.5996 82.4004 14.2998 52.8008 52.7998c-38.5 29.6006 -82.4004 -14.2998 -52.8008 -52.7998z" />
    <glyph glyph-name="comments" unicode="&#xf086;" horiz-adv-x="576" 
d="M416 256c0 -88.4004 -93.0996 -160 -208 -160c-41 0 -79.0996 9.2998 -111.3 25c-21.7998 -12.7002 -52.1006 -25 -88.7002 -25c-3.2002 0 -6 1.7998 -7.2998 4.7998s-0.700195 6.40039 1.5 8.7002c0.299805 0.299805 22.3994 24.2998 35.7998 54.5
c-23.9004 26.0996 -38 57.7002 -38 92c0 88.4004 93.0996 160 208 160s208 -71.5996 208 -160zM538 36c13.4004 -30.2998 35.5 -54.2002 35.7998 -54.5c2.2002 -2.40039 2.7998 -5.7998 1.5 -8.7002c-1.2002 -2.89941 -4.09961 -4.7998 -7.2998 -4.7998
c-36.5996 0 -66.9004 12.2998 -88.7002 25c-32.2002 -15.7998 -70.2998 -25 -111.3 -25c-86.2002 0 -160.2 40.4004 -191.7 97.9004c10.4004 -1.10059 20.9004 -1.90039 31.7002 -1.90039c132.3 0 240 86.0996 240 192c0 6.7998 -0.400391 13.5 -1.2998 20.0996
c75.7998 -23.8994 129.3 -81.1992 129.3 -148.1c0 -34.2998 -14.0996 -66 -38 -92z" />
    <glyph glyph-name="star-half" unicode="&#xf089;" horiz-adv-x="308" 
d="M288 448v-439.6l-130.7 -68.6006c-23.3994 -12.2998 -50.8994 7.60059 -46.3994 33.7002l25 145.5l-105.7 103c-19 18.5 -8.5 50.7998 17.7002 54.5996l146.1 21.2002l65.2998 132.4c5.90039 11.8994 17.2998 17.7998 28.7002 17.7998z" />
    <glyph glyph-name="sign-out" unicode="&#xf08b;" 
d="M180 0h-84c-53 0 -96 43 -96 96v192c0 53 43 96 96 96h84c6.59961 0 12 -5.40039 12 -12v-40c0 -6.59961 -5.40039 -12 -12 -12h-84c-17.7002 0 -32 -14.2998 -32 -32v-192c0 -17.7002 14.2998 -32 32 -32h84c6.59961 0 12 -5.40039 12 -12v-40
c0 -6.59961 -5.40039 -12 -12 -12zM297.9 303.1c-10 9.2002 -10.4004 25 -0.700195 34.6006l21.8994 21.8994c9.40039 9.40039 24.5 9.40039 33.9004 0.100586l151.9 -150.601c9.5 -9.39941 9.5 -24.6992 0 -34.0996l-152 -150.8
c-9.40039 -9.2998 -24.6006 -9.2002 -33.9004 0.0996094l-21.9004 21.9004c-9.59961 9.7002 -9.2998 25.5 0.800781 34.7002l77.5996 71.0996h-191.5c-13.2998 0 -24 10.7002 -24 24v32c0 13.2998 10.7002 24 24 24h191.5z" />
    <glyph glyph-name="thumbtack" unicode="&#xf08d;" horiz-adv-x="384" 
d="M298.028 233.733c47.9893 -22.3135 85.9717 -62.5508 85.9727 -113.733c0 -13.2549 -10.7451 -24 -24 -24h-136v-104.007c0 -1.04297 -0.378906 -2.64551 -0.844727 -3.57812l-24 -48c-2.94727 -5.89258 -11.3701 -5.88184 -14.3115 0l-24 48
c-0.555664 1.11133 -0.844727 2.33594 -0.844727 3.57812v104.007h-136c-13.2549 0 -24 10.7451 -24 24c0 50.7393 37.4648 91.1797 85.9717 113.733l12.2354 118.267h-42.207c-13.2549 0 -24 10.7451 -24 24v48c0 13.2549 10.7451 24 24 24h272
c13.2549 0 24 -10.7451 24 -24v-48c0 -13.2549 -10.7451 -24 -24 -24h-42.207z" />
    <glyph glyph-name="external-link" unicode="&#xf08e;" horiz-adv-x="576" 
d="M448 168.804v-184.804c0 -26.5098 -21.4902 -48 -48 -48h-352c-26.5098 0 -48 21.4902 -48 48v352c0 26.5098 21.4902 48 48 48h248c5.4873 0 13.0898 -3.14941 16.9697 -7.0293l16 -16c15.1201 -15.1201 4.41211 -40.9707 -16.9697 -40.9707h-248v-320h320v152.804
c0 6.36523 2.5293 12.4707 7.0293 16.9717l16 16c15.1191 15.1182 40.9707 4.41016 40.9707 -16.9717zM576 410.667v-158.667c0 -15.4639 -12.5361 -28 -28 -28h-17.8848c-15.7666 0 -28.4238 13.0117 -27.9902 28.7725l1.90625 67.2021l-247.122 -248.885
c-9.3623 -9.42871 -24.6055 -9.45605 -34.001 -0.0595703l-23.8789 23.8789c-9.39648 9.39551 -9.36816 24.6377 0.0605469 34.001l248.885 247.122l-67.2021 -1.90625c-15.7617 -0.43457 -28.7725 12.2227 -28.7725 27.9893v17.8848c0 15.4639 12.5361 28 28 28h158.667
c20.6182 0 37.333 -16.7148 37.333 -37.333z" />
    <glyph glyph-name="sign-in" unicode="&#xf090;" 
d="M137.2 337.7l21.8994 21.8994c9.30078 9.30078 24.5 9.40039 33.9004 0.100586l151.9 -150.7c9.5 -9.40039 9.5 -24.7002 0 -34.0996l-151.9 -150.601c-9.40039 -9.2998 -24.5 -9.2998 -33.9004 0.100586l-21.8994 21.8994
c-9.7002 9.7002 -9.2998 25.4004 0.799805 34.7002l77.5996 71.0996h-191.6c-13.2998 0 -24 10.7002 -24 24v32c0 13.3008 10.7002 24 24 24h191.5l-77.5996 71.1006c-10 9.09961 -10.4004 24.8994 -0.700195 34.5zM512 96c0 -53 -43 -96 -96 -96h-84
c-6.59961 0 -12 5.40039 -12 12v40c0 6.59961 5.40039 12 12 12h84c17.7002 0 32 14.2998 32 32v192c0 17.7002 -14.2998 32 -32 32h-84c-6.59961 0 -12 5.40039 -12 12v40c0 6.59961 5.40039 12 12 12h84c53 0 96 -43 96 -96v-192z" />
    <glyph glyph-name="trophy" unicode="&#xf091;" horiz-adv-x="576" 
d="M552 384c13.2998 0 24 -10.7002 24 -24v-56c0 -35.7002 -22.5996 -72.4004 -61.9004 -100.7c-31.3994 -22.7002 -69.6992 -37.0996 -110 -41.7002c-31.3994 -52.0996 -68.0996 -73.5996 -68.0996 -73.5996v-72h48c35.2998 0 64 -20.7002 64 -56v-12
c0 -6.59961 -5.40039 -12 -12 -12h-296c-6.59961 0 -12 5.40039 -12 12v12c0 35.2998 28.7002 56 64 56h48v72s-36.7002 21.5 -68.0996 73.5996c-40.2002 4.60059 -78.5 19 -110 41.7002c-39.4004 28.2998 -61.9004 65 -61.9004 100.7v56c0 13.2998 10.7002 24 24 24h104v40
c0 13.2998 10.7002 24 24 24h272c13.2998 0 24 -10.7002 24 -24v-40h104zM99.2998 255.2c12.5 -9 26.6006 -16.2002 41.7002 -21.4004c-7 25 -11.7998 53.6006 -12.7998 86.2002h-64.2002v-16c0 -11.5996 10.9004 -31.2002 35.2998 -48.7998zM512 304v16h-64.2998
c-1 -32.5996 -5.7998 -61.2002 -12.7998 -86.2002c15.0996 5.2002 29.2998 12.4004 41.7998 21.4004c17.5996 12.7002 35.2998 32.7002 35.2998 48.7998z" />
    <glyph glyph-name="upload" unicode="&#xf093;" 
d="M296 64h-80c-13.2998 0 -24 10.7002 -24 24v168h-87.7002c-17.7998 0 -26.7002 21.5 -14.0996 34.0996l152.1 152.2c7.5 7.5 19.7998 7.5 27.2998 0l152.2 -152.2c12.6006 -12.5996 3.7002 -34.0996 -14.0996 -34.0996h-87.7002v-168c0 -13.2998 -10.7002 -24 -24 -24z
M512 72v-112c0 -13.2998 -10.7002 -24 -24 -24h-464c-13.2998 0 -24 10.7002 -24 24v112c0 13.2998 10.7002 24 24 24h136v-8c0 -30.9004 25.0996 -56 56 -56h80c30.9004 0 56 25.0996 56 56v8h136c13.2998 0 24 -10.7002 24 -24zM388 -16c0 11 -9 20 -20 20s-20 -9 -20 -20
s9 -20 20 -20s20 9 20 20zM452 -16c0 11 -9 20 -20 20s-20 -9 -20 -20s9 -20 20 -20s20 9 20 20z" />
    <glyph glyph-name="lemon" unicode="&#xf094;" 
d="M489.038 425.037c23.0938 -23.0938 28.8916 -54.3906 16.833 -75.0928c-34.3115 -58.9043 53.0762 -181.249 -86.7461 -321.071s-262.167 -52.4326 -321.068 -86.7432c-20.7031 -12.0586 -52 -6.2627 -75.0947 16.832c-23.0928 23.0938 -28.8916 54.3906 -16.833 75.0928
c34.3125 58.9043 -53.0781 181.247 86.7451 321.07s262.167 52.4336 321.073 86.7461c20.7012 12.0586 51.9971 6.25879 75.0908 -16.834zM243.881 352.478c8.57227 2.14355 13.7832 10.8291 11.6416 19.4023c-2.14258 8.57324 -10.8281 13.7852 -19.4033 11.6426
c-69.8027 -17.4521 -154.218 -101.949 -171.643 -171.643c-2.1416 -8.57324 3.07031 -17.2588 11.6426 -19.4033c1.30273 -0.324219 2.6084 -0.480469 3.89258 -0.480469c7.16895 0 13.6943 4.85352 15.5117 12.124c14.5498 58.2031 90.1689 133.811 148.357 148.357z" />
    <glyph glyph-name="phone" unicode="&#xf095;" 
d="M493.4 423.4c10.8994 -2.5 18.5996 -12.2002 18.5996 -23.4004c0 -256.5 -207.9 -464 -464 -464c-11.2998 0 -20.9004 7.7998 -23.4004 18.5996l-24 104c-2.59961 11.3008 3.30078 22.9004 14 27.6006l112 48c9.80078 4.2002 21.2002 1.39941 28 -6.90039
l49.6006 -60.5996c78.2998 36.7002 141.2 100.5 177.2 177.2l-60.6006 49.5996c-8.2998 6.7002 -11.0996 18.2002 -6.89941 28l48 112c4.59961 10.5996 16.1992 16.5 27.5 13.9004z" />
    <glyph glyph-name="phone-square" unicode="&#xf098;" horiz-adv-x="448" 
d="M400 416c26.5098 0 48 -21.4902 48 -48v-352c0 -26.5098 -21.4902 -48 -48 -48h-352c-26.5098 0 -48 21.4902 -48 48v352c0 26.5098 21.4902 48 48 48h352zM94 32c160.055 0 290 129.708 290 290v0c0 6.58691 -5.20898 13.1338 -11.6279 14.6143l-65 14.998
c-0.918945 0.211914 -2.42969 0.383789 -3.37305 0.383789c-5.45996 0 -11.6367 -4.07324 -13.7871 -9.09082l-30 -69.998c-0.668945 -1.5625 -1.21191 -4.20898 -1.21191 -5.9082c0 -3.92383 2.46387 -9.125 5.50098 -11.6104l37.8857 -30.9971
c-22.4834 -47.9219 -61.8369 -87.8164 -110.78 -110.779l-30.9971 37.8848c-2.48535 3.03711 -7.68652 5.50195 -11.6104 5.50195c-1.69922 0 -4.3457 -0.543945 -5.9082 -1.21289l-69.998 -29.999c-5.01855 -2.15039 -9.09082 -8.32715 -9.09082 -13.7871
c0 -0.943359 0.171875 -2.4541 0.383789 -3.37305l14.998 -65c1.55957 -6.75391 7.58301 -11.627 14.6162 -11.627z" />
    <glyph glyph-name="unlock" unicode="&#xf09c;" horiz-adv-x="448" 
d="M400 192c26.5 0 48 -21.5 48 -48v-160c0 -26.5 -21.5 -48 -48 -48h-352c-26.5 0 -48 21.5 -48 48v160c0 26.5 21.5 48 48 48h24v102.5c0 84 67.5 153.2 151.5 153.5s152.5 -68 152.5 -152v-16c0 -13.2998 -10.7002 -24 -24 -24h-32c-13.2998 0 -24 10.7002 -24 24v16
c0 39.9004 -32.7002 72.4004 -72.7002 72c-39.5996 -0.400391 -71.2998 -33.2998 -71.2998 -72.9004v-103.1h248z" />
    <glyph glyph-name="credit-card" unicode="&#xf09d;" horiz-adv-x="576" 
d="M0 16v176h576v-176c0 -26.5 -21.5 -48 -48 -48h-480c-26.5 0 -48 21.5 -48 48zM192 84v-40c0 -6.59961 5.40039 -12 12 -12h136c6.59961 0 12 5.40039 12 12v40c0 6.59961 -5.40039 12 -12 12h-136c-6.59961 0 -12 -5.40039 -12 -12zM64 84v-40
c0 -6.59961 5.40039 -12 12 -12h72c6.59961 0 12 5.40039 12 12v40c0 6.59961 -5.40039 12 -12 12h-72c-6.59961 0 -12 -5.40039 -12 -12zM576 368v-48h-576v48c0 26.5 21.5 48 48 48h480c26.5 0 48 -21.5 48 -48z" />
    <glyph glyph-name="rss" unicode="&#xf09e;" horiz-adv-x="448" 
d="M128.081 32.041c0 -35.3691 -28.6719 -64.041 -64.041 -64.041s-64.04 28.6719 -64.04 64.041s28.6719 64.041 64.041 64.041s64.04 -28.6729 64.04 -64.041zM303.741 -15.209c0.494141 -9.13477 -6.84668 -16.791 -15.9951 -16.79h-48.0693
c-8.41406 0 -15.4707 6.49023 -16.0176 14.8867c-7.29883 112.07 -96.9404 201.488 -208.772 208.772c-8.39648 0.545898 -14.8867 7.60254 -14.8867 16.0176v48.0693c0 9.14746 7.65625 16.4883 16.791 15.9941c154.765 -8.36328 278.596 -132.351 286.95 -286.95z
M447.99 -15.4971c0.324219 -9.03027 -6.97168 -16.5029 -16.0049 -16.5039h-48.0684c-8.62598 0 -15.6455 6.83496 -15.999 15.4531c-7.83789 191.148 -161.286 344.626 -352.465 352.465c-8.61816 0.354492 -15.4531 7.37402 -15.4531 15.999v48.0684
c0 9.03418 7.47266 16.3301 16.5029 16.0059c234.962 -8.43555 423.093 -197.667 431.487 -431.487z" />
    <glyph glyph-name="hdd" unicode="&#xf0a0;" horiz-adv-x="576" 
d="M576 144v-96c0 -26.5098 -21.4902 -48 -48 -48h-480c-26.5098 0 -48 21.4902 -48 48v96c0 26.5098 21.4902 48 48 48h480c26.5098 0 48 -21.4902 48 -48zM528 224h-480h-0.0693359c-8.81738 0 -22.5742 -2.76172 -30.708 -6.16504l96.5283 144.791
c7.86621 11.7988 25.7578 21.374 39.9385 21.374h268.621c14.1807 0 32.0732 -9.57617 39.9395 -21.374l96.5273 -144.791c-8.13379 3.40332 -21.8906 6.16504 -30.708 6.16504h-0.0693359zM480 128c-17.6729 0 -32 -14.3271 -32 -32s14.3271 -32 32 -32s32 14.3271 32 32
s-14.3271 32 -32 32zM384 128c-17.6729 0 -32 -14.3271 -32 -32s14.3271 -32 32 -32s32 14.3271 32 32s-14.3271 32 -32 32z" />
    <glyph glyph-name="bullhorn" unicode="&#xf0a1;" horiz-adv-x="576" 
d="M576 208c0 -23.6299 -12.9502 -44.04 -32.0098 -55.1299v-152.87c0 -9.21973 -7.08008 -32 -32 -32c-6.19336 0.00585938 -15.1445 3.15039 -19.9805 7.01953l-85.0293 68.0303c-42.7002 34.1406 -96.3203 52.9502 -150.98 52.9502h-28.0801
c-2.79004 -10.21 -4.41016 -20.8896 -4.41016 -32c0 -29.0801 9.75 -55.9199 26.1504 -77.4404c15.79 -20.7197 0.149414 -50.5596 -25.9004 -50.5596h-74.2793c-11.8809 0 -23.2109 6.37012 -28.4004 17.0596c-16.2998 33.5908 -25.5605 71.1709 -25.5605 110.94
c0 10.8604 0.790039 21.5195 2.18066 32h-33.7002c-35.3496 0 -64 28.6504 -64 64v96c0 35.3496 28.6504 64 64 64h192c54.6602 0 108.28 18.8096 150.99 52.9502l85.0293 68.0303c5.79004 4.63965 12.8604 7.01953 19.9805 7.01953c25.0195 0 32 -23.2598 32 -32.0098
v-152.87c19.0498 -11.0801 32 -31.4902 32 -55.1201zM480 66.5801v282.84l-33.0498 -26.4395c-54 -43.2002 -121.83 -66.9805 -190.95 -66.9805v-96c69.1201 0 136.95 -23.7803 190.95 -66.9805z" />
    <glyph glyph-name="certificate" unicode="&#xf0a3;" horiz-adv-x="511" 
d="M458.622 192.08l45.9844 -45.0039c13.7012 -12.9727 7.32227 -36.0371 -10.6641 -40.3389l-62.6504 -15.9902l17.6611 -62.0146c4.99023 -17.834 -11.8252 -34.665 -29.6611 -29.6719l-61.9941 17.667l-15.9834 -62.6709
c-4.33887 -18.1533 -27.8252 -24.1553 -40.3252 -10.668l-44.9893 46.001l-44.9912 -46.001c-12.6289 -13.3496 -35.8857 -7.90625 -40.3252 10.668l-15.9834 62.6709l-61.9941 -17.667c-17.832 -4.99121 -34.6523 11.833 -29.6611 29.6719l17.6611 62.0146
l-62.6504 15.9902c-17.9795 4.2998 -24.3721 27.3613 -10.6641 40.3389l45.9854 45.0039l-45.9854 45.0049c-13.7012 12.9707 -7.32227 36.0371 10.665 40.3379l62.6504 15.9902l-17.6611 62.0146c-4.99023 17.834 11.8242 34.665 29.6611 29.6709l61.9951 -17.667
l15.9834 62.6709c4.27832 17.9023 27.6953 24.0195 40.3252 10.6689l44.9893 -46.3418l44.9902 46.3428c12.7744 13.5039 36.0947 7.03027 40.3252 -10.6689l15.9834 -62.6709l61.9941 17.667c17.832 4.99219 34.6523 -11.833 29.6611 -29.6709l-17.6611 -62.0146
l62.6504 -15.9902c17.9795 -4.2998 24.3721 -27.3623 10.6641 -40.3389z" />
    <glyph glyph-name="hand-point-right" unicode="&#xf0a4;" 
d="M512 248.348c0 -23.625 -20.6504 -43.8252 -44.7998 -43.8252h-99.8516c16.3408 -17.0488 18.3467 -49.7666 -6.29883 -70.9443c14.2881 -22.8291 2.14746 -53.0176 -16.4502 -62.3154c8.97461 -49.1406 -21.9453 -71.2627 -72.5996 -71.2627
c-2.74609 0 -13.2764 0.203125 -16 0.195312c-61.9707 -0.167969 -76.8936 31.0645 -123.731 38.3145c-11.6729 1.80762 -20.2686 11.8916 -20.2686 23.7041v171.525l0.00195312 0.000976562c0.0107422 18.3662 10.6074 35.8887 28.4639 43.8447
c28.8857 12.9941 95.4131 49.0381 107.534 77.3232c7.79688 18.1934 21.3838 29.084 40 29.0918c34.2217 0.0136719 57.752 -35.0977 44.1191 -66.9082c-3.58301 -8.3584 -8.3125 -16.6699 -14.1533 -24.918h149.234c23.4502 0 44.7998 -20.543 44.7998 -43.8262zM96 248
v-192c0 -13.2549 -10.7451 -24 -24 -24h-48c-13.2549 0 -24 10.7451 -24 24v192c0 13.2549 10.7451 24 24 24h48c13.2549 0 24 -10.7451 24 -24zM68 80c0 11.0459 -8.9541 20 -20 20s-20 -8.9541 -20 -20s8.9541 -20 20 -20s20 8.9541 20 20z" />
    <glyph glyph-name="hand-point-left" unicode="&#xf0a5;" 
d="M44.7998 292.174h149.234c-5.84082 8.24805 -10.5703 16.5586 -14.1533 24.918c-13.6328 31.8105 9.89746 66.9219 44.1191 66.9082c18.6162 -0.0078125 32.2031 -10.8975 40 -29.0918c12.1221 -28.2861 78.6484 -64.3291 107.534 -77.3232
c17.8564 -7.95605 28.4531 -25.4785 28.4639 -43.8447l0.00195312 -0.000976562v-171.526c0 -11.8115 -8.5957 -21.8965 -20.2686 -23.7031c-46.8379 -7.25 -61.7607 -38.4824 -123.731 -38.3145c-2.72363 0.00683594 -13.2539 -0.195312 -16 -0.195312
c-50.6543 0 -81.5742 22.1221 -72.5996 71.2627c-18.5977 9.29688 -30.7383 39.4863 -16.4502 62.3154c-24.6455 21.1768 -22.6396 53.8955 -6.29883 70.9443h-99.8516c-24.1494 0 -44.7998 20.2002 -44.7998 43.8252c0 23.2832 21.3496 43.8262 44.7998 43.8262zM440 272
h48c13.2549 0 24 -10.7451 24 -24v-192c0 -13.2549 -10.7451 -24 -24 -24h-48c-13.2549 0 -24 10.7451 -24 24v192c0 13.2549 10.7451 24 24 24zM464 60c11.0459 0 20 8.9541 20 20s-8.9541 20 -20 20s-20 -8.9541 -20 -20s8.9541 -20 20 -20z" />
    <glyph glyph-name="hand-point-up" unicode="&#xf0a6;" horiz-adv-x="384" 
d="M135.652 448c23.625 0 43.8252 -20.6504 43.8252 -44.7998v-99.8516c17.0488 16.3408 49.7666 18.3467 70.9443 -6.29883c22.8291 14.2881 53.0176 2.14746 62.3154 -16.4502c49.1406 8.97461 71.2627 -21.9453 71.2627 -72.5996
c0 -2.74609 -0.203125 -13.2764 -0.195312 -16c0.167969 -61.9707 -31.0645 -76.8936 -38.3145 -123.731c-1.80762 -11.6729 -11.8916 -20.2686 -23.7041 -20.2686h-171.525l-0.000976562 0.00195312c-18.3662 0.0107422 -35.8887 10.6074 -43.8447 28.4639
c-12.9941 28.8857 -49.0381 95.4121 -77.3232 107.534c-18.1943 7.79688 -29.084 21.3838 -29.0918 40c-0.0136719 34.2217 35.0977 57.752 66.9082 44.1191c8.3584 -3.58301 16.6699 -8.3125 24.918 -14.1533v149.234c0 23.4502 20.543 44.7998 43.8262 44.7998zM136 32
h192c13.2549 0 24 -10.7451 24 -24v-48c0 -13.2549 -10.7451 -24 -24 -24h-192c-13.2549 0 -24 10.7451 -24 24v48c0 13.2549 10.7451 24 24 24zM304 4c-11.0459 0 -20 -8.9541 -20 -20s8.9541 -20 20 -20s20 8.9541 20 20s-8.9541 20 -20 20z" />
    <glyph glyph-name="hand-point-down" unicode="&#xf0a7;" horiz-adv-x="384" 
d="M91.8262 -19.2002v149.234c-8.24805 -5.84082 -16.5586 -10.5703 -24.918 -14.1533c-31.8105 -13.6328 -66.9219 9.89746 -66.9082 44.1191c0.0078125 18.6162 10.8975 32.2031 29.0918 40c28.2861 12.1221 64.3291 78.6484 77.3232 107.534
c7.95605 17.8564 25.4785 28.4531 43.8447 28.4639l0.000976562 0.00195312h171.526c11.8115 0 21.8965 -8.5957 23.7031 -20.2686c7.25 -46.8379 38.4824 -61.7607 38.3145 -123.731c-0.00683594 -2.72363 0.195312 -13.2539 0.195312 -16
c0 -50.6543 -22.1221 -81.5742 -71.2627 -72.5996c-9.29688 -18.5977 -39.4863 -30.7383 -62.3154 -16.4502c-21.1768 -24.6455 -53.8955 -22.6396 -70.9443 -6.29883v-99.8516c0 -24.1494 -20.2002 -44.7998 -43.8252 -44.7998
c-23.2832 0 -43.8262 21.3496 -43.8262 44.7998zM112 376v48c0 13.2549 10.7451 24 24 24h192c13.2549 0 24 -10.7451 24 -24v-48c0 -13.2549 -10.7451 -24 -24 -24h-192c-13.2549 0 -24 10.7451 -24 24zM324 400c0 11.0459 -8.9541 20 -20 20s-20 -8.9541 -20 -20
s8.9541 -20 20 -20s20 8.9541 20 20z" />
    <glyph glyph-name="arrow-circle-left" unicode="&#xf0a8;" 
d="M256 -56c-137 0 -248 111 -248 248s111 248 248 248s248 -111 248 -248s-111 -248 -248 -248zM284.9 87.5996l-75.5 72.4004h182.6c13.2998 0 24 10.7002 24 24v16c0 13.2998 -10.7002 24 -24 24h-182.6l75.5 72.4004c9.69922 9.2998 9.89941 24.7998 0.399414 34.2998
l-11 10.8994c-9.39941 9.40039 -24.5996 9.40039 -33.8994 0l-132.7 -132.6c-9.40039 -9.40039 -9.40039 -24.5996 0 -33.9004l132.7 -132.699c9.39941 -9.40039 24.5996 -9.40039 33.8994 0l11 10.8994c9.5 9.5 9.2998 25 -0.399414 34.2998z" />
    <glyph glyph-name="arrow-circle-right" unicode="&#xf0a9;" 
d="M256 440c137 0 248 -111 248 -248s-111 -248 -248 -248s-248 111 -248 248s111 248 248 248zM227.1 296.4l75.5 -72.4004h-182.6c-13.2998 0 -24 -10.7002 -24 -24v-16c0 -13.2998 10.7002 -24 24 -24h182.6l-75.5 -72.4004
c-9.69922 -9.2998 -9.89941 -24.7998 -0.399414 -34.2998l11 -10.8994c9.39941 -9.40039 24.5996 -9.40039 33.8994 0l132.7 132.6c9.40039 9.40039 9.40039 24.5996 0 33.9004l-132.7 132.8c-9.39941 9.39941 -24.5996 9.39941 -33.8994 0l-11 -10.9004
c-9.5 -9.59961 -9.2998 -25.0996 0.399414 -34.3994z" />
    <glyph glyph-name="arrow-circle-up" unicode="&#xf0aa;" 
d="M8 192c0 137 111 248 248 248s248 -111 248 -248s-111 -248 -248 -248s-248 111 -248 248zM151.6 163.1l72.4004 75.5v-182.6c0 -13.2998 10.7002 -24 24 -24h16c13.2998 0 24 10.7002 24 24v182.6l72.4004 -75.5c9.2998 -9.69922 24.7998 -9.89941 34.2998 -0.399414
l10.8994 11c9.40039 9.39941 9.40039 24.5996 0 33.8994l-132.6 132.7c-9.40039 9.40039 -24.5996 9.40039 -33.9004 0l-132.8 -132.7c-9.39941 -9.39941 -9.39941 -24.5996 0 -33.8994l10.9004 -11c9.59961 -9.5 25.0996 -9.2998 34.3994 0.399414z" />
    <glyph glyph-name="arrow-circle-down" unicode="&#xf0ab;" 
d="M504 192c0 -137 -111 -248 -248 -248s-248 111 -248 248s111 248 248 248s248 -111 248 -248zM360.4 220.9l-72.4004 -75.5v182.6c0 13.2998 -10.7002 24 -24 24h-16c-13.2998 0 -24 -10.7002 -24 -24v-182.6l-72.4004 75.5
c-9.2998 9.69922 -24.7998 9.89941 -34.2998 0.399414l-10.8994 -11c-9.40039 -9.39941 -9.40039 -24.5996 0 -33.8994l132.6 -132.7c9.40039 -9.40039 24.5996 -9.40039 33.9004 0l132.699 132.7c9.40039 9.39941 9.40039 24.5996 0 33.8994l-10.8994 11
c-9.5 9.5 -25 9.2998 -34.2998 -0.399414z" />
    <glyph glyph-name="globe" unicode="&#xf0ac;" horiz-adv-x="495" 
d="M336.5 288h-177c14.5 89.2998 48.7002 152 88.5 152s74 -62.7002 88.5 -152zM152 192c0 22.2002 1.2002 43.5 3.2998 64h185.3c2.10059 -20.5 3.30078 -41.7998 3.30078 -64s-1.2002 -43.5 -3.30078 -64h-185.3c-2.09961 20.5 -3.2998 41.7998 -3.2998 64zM476.7 288
h-108c-8.7998 56.9004 -25.6006 107.8 -50 141.6c71.5 -21.1992 129.399 -73.6992 158 -141.6zM177.2 429.6c-24.4004 -33.7998 -41.2002 -84.6992 -49.9004 -141.6h-108c28.5 67.9004 86.5 120.4 157.9 141.6zM487.4 256c5.39941 -20.5 8.5 -41.7998 8.5 -64
s-3.10059 -43.5 -8.60059 -64h-114.6c2.09961 21 3.2998 42.5 3.2998 64s-1.2002 43 -3.2998 64h114.7zM120 192c0 -21.5 1.2002 -43 3.2002 -64h-114.601c-5.39941 20.5 -8.59961 41.7998 -8.59961 64s3.2002 43.5 8.59961 64h114.7
c-2.09961 -21 -3.2998 -42.5 -3.2998 -64zM159.5 96h177c-14.5 -89.2998 -48.7002 -152 -88.5 -152s-74 62.7002 -88.5 152zM318.8 -45.5996c24.4004 33.7998 41.2002 84.6992 50 141.6h108c-28.5996 -67.9004 -86.5996 -120.4 -158 -141.6zM19.2998 96h108
c8.7998 -56.9004 25.6006 -107.8 50 -141.6c-71.5 21.1992 -129.399 73.6992 -158 141.6z" />
    <glyph glyph-name="wrench" unicode="&#xf0ad;" 
d="M507.73 338.9c11.7891 -47.4102 -0.84082 -99.6602 -37.9102 -136.73c-39.9004 -39.9004 -97.25 -50.9297 -147.37 -34.2197l-213.21 -213.21c-24.9902 -24.9902 -65.5098 -24.9902 -90.5 0s-24.9902 65.5098 0 90.5l213.39 213.39
c-16.5 50.1006 -5.58984 107.561 34.0498 147.2c37.0303 37.0195 89.2002 49.6699 136.58 37.9297c9.08984 -2.25977 12.2803 -13.54 5.66016 -20.1602l-74.3604 -74.3594l11.3105 -67.8799l67.8799 -11.3105l74.3604 74.3604
c6.58008 6.58008 17.8799 3.51953 20.1201 -5.50977zM64 -24c13.25 0 24 10.75 24 24c0 13.2598 -10.75 24 -24 24s-24 -10.7402 -24 -24c0 -13.25 10.75 -24 24 -24z" />
    </font>
</defs>
</svg>
