<svg viewBox="0 0 1000 1000" version="1.1" xmlns="http://www.w3.org/2000/svg" xmlns:xlink="http://www.w3.org/1999/xlink">
  <g id="slack" stroke="none" stroke-width="1" fill="none" fill-rule="evenodd">
    <g id="slack-new-logo" transform="translate(128.000000, 126.000000)" fill-rule="nonzero">
      <path d="M273.39158,8.66682096e-15 C232.172648,0.0304936654 198.813645,33.5125382 198.84411,74.7704675 C198.813645,116.028397 232.203113,149.510441 273.422045,149.540935 L348,149.540935 L347.999979,74.8009611 C348.030444,33.5430319 314.640977,0.0609873307 273.39158,0 C273.422045,0 273.422045,0 273.39158,0 L273.39158,8.66682096e-15 Z M273.39158,199.428571 L74.5780177,199.428571 C33.3590858,199.459065 -0.0303815859,232.94111 8.32566395e-05,274.199039 C-0.0608464284,315.456968 33.328621,348.939013 74.5475529,349 L273.39158,349 C314.610512,348.969506 347.999979,315.487462 347.969514,274.229533 C347.999979,232.94111 314.610512,199.459065 273.39158,199.428571 Z" id="Shape" fill="#36C5F0"></path>
      <path d="M744.999979,274.199039 C745.030447,232.94111 711.638056,199.459065 670.415515,199.428571 C629.192975,199.459065 595.800584,232.94111 595.831052,274.199039 L595.831031,349 L670.415515,349 C711.638056,348.969506 745.030447,315.487462 744.999979,274.199039 Z M546.138543,274.199039 L546.138543,74.7704675 C546.169011,33.5430319 512.807088,0.0609873307 471.584547,0 C430.362006,0.0304936654 396.969616,33.5125382 397.000083,74.7704675 L397.000083,274.199039 C396.939148,315.456968 430.331539,348.939013 471.55408,349 C512.77662,348.969506 546.169011,315.487462 546.138543,274.199039 Z" id="Shape" fill="#2EB67D"></path>
      <path d="M471.577955,748 C512.796887,747.969509 546.186355,714.49039 546.15589,673.236065 C546.186355,631.98174 512.796887,598.502621 471.577955,598.47213 L397,598.47213 L397.000021,673.236065 C396.969556,714.459899 430.359023,747.939018 471.577955,748 Z M471.577955,548.558361 L670.421982,548.558361 C711.640914,548.52787 745.030382,515.048751 744.999917,473.794426 C745.060846,432.540101 711.671379,399.060982 670.452447,399 L471.60842,399 C430.389488,399.030491 397.000021,432.50961 397.030486,473.763935 C397.000021,515.048751 430.359023,548.52787 471.577955,548.558361 L471.577955,548.558361 Z" id="Shape" fill="#ECB22E"></path>
      <path d="M2.08325354e-05,473.770467 C-0.0304466772,515.028397 33.361944,548.510441 74.5844846,548.540935 C115.807025,548.510441 149.199416,515.028397 149.168948,473.770467 L149.168969,399 L74.5844846,399 C33.361944,399.030494 -0.0304466772,432.512538 2.08325354e-05,473.770467 Z M198.861457,473.770467 L198.861457,673.199039 C198.800522,714.456968 232.192912,747.939013 273.415453,748 C314.637994,747.969506 348.030384,714.487462 347.999917,673.229533 L347.999917,473.831455 C348.060852,432.573526 314.668461,399.091481 273.44592,399.030494 C232.192912,399.030494 198.830989,432.512538 198.861457,473.770467 C198.861457,473.770467 198.861457,473.800961 198.861457,473.770467 L198.861457,473.770467 Z" id="Shape" fill="#E01E5A"></path>
    </g>
  </g>
</svg>