<?xml version="1.0" encoding="UTF-8"?>
<svg width="12px" height="12px" viewBox="0 0 12 12" version="1.1" xmlns="http://www.w3.org/2000/svg" xmlns:xlink="http://www.w3.org/1999/xlink">
    <!-- Generator: Sketch 59.1 (86144) - https://sketch.com -->
    <title>Artboard Copy</title>
    <desc>Created with Sketch.</desc>
    <g id="Artboard-Copy" stroke="none" stroke-width="1" fill="none" fill-rule="evenodd">
        <g id="svg16" transform="translate(2.000000, 1.000000)">
            <path d="M-0.381185185,4.45185 L1.79214815,0.62745 L6.13851852,0.62745 L8.31155556,4.45185 L6.13851852,8.27595 L1.79185185,8.27595 L-0.381185185,4.45185 Z M1.79214815,0.62745 L-0.381185185,4.45185 L1.79214815,8.27595 L6.13851852,8.27595 L8.31155556,4.45185 L6.13851852,0.62745 L1.79214815,0.62745 Z" id="Shape" stroke="#FFFFFF" transform="translate(3.965185, 4.451700) rotate(90.000000) translate(-3.965185, -4.451700) "></path>
            <path d="M0.706074074,4.7496 L2.3357037,2.0178 L5.59585185,2.0178 L7.22548148,4.7496 L5.59585185,7.4811 L2.3357037,7.4811 L0.706074074,4.7496 Z M2.3357037,2.0178 L0.706074074,4.7496 L2.3357037,7.4811 L5.59585185,7.4811 L7.22548148,4.7496 L5.59585185,2.0178 L2.3357037,2.0178 Z" id="Shape" stroke="#25E899" transform="translate(3.965778, 4.749450) rotate(90.000000) translate(-3.965778, -4.749450) "></path>
        </g>
    </g>
</svg>