<?xml version="1.0" encoding="UTF-8"?>
<svg width="19px" height="20px" viewBox="0 0 19 20" version="1.1" xmlns="http://www.w3.org/2000/svg" xmlns:xlink="http://www.w3.org/1999/xlink">
    <!-- Generator: Sketch 59.1 (86144) - https://sketch.com -->
    <title>quests-symbol</title>
    <desc>Created with Sketch.</desc>
    <defs>
        <linearGradient x1="9.00256207%" y1="29.4130704%" x2="78.2253802%" y2="107.123965%" id="linearGradient-1">
            <stop stop-color="#F2C2FF" offset="0%"></stop>
            <stop stop-color="#8E2ABE" offset="100%"></stop>
        </linearGradient>
    </defs>
    <g id="quests-symbol" stroke="none" stroke-width="1" fill="none" fill-rule="evenodd">
        <g id="svg21" transform="translate(-0.000000, 0.000000)" fill-rule="nonzero">
            <path d="M18.3965217,12.6588308 C18.3390007,12.0214532 18.0789712,11.4510542 17.6998279,10.938824 C17.3252003,10.0859644 16.7605017,9.34601853 15.9617946,8.90670771 C15.9482471,8.77689644 15.8665923,8.64913983 15.6992842,8.57918169 C15.4099018,8.45818004 15.1252207,8.36301474 14.8392436,8.28911467 C14.8115194,8.15795253 14.7265703,8.04254024 14.5804725,8.01746255 C14.0022264,7.91817005 13.4450044,7.87889746 12.8779366,7.89614646 C11.9995736,7.7692225 11.1910951,7.93682572 10.427108,8.44639092 C10.3430101,8.50248709 10.2898568,8.57760855 10.2606892,8.6587821 C10.113222,8.73893772 9.96949324,8.82405351 9.8335377,8.91716445 C8.82288366,9.29847303 7.79246385,10.2010992 7.53335983,11.280786 C7.4913109,11.4560699 7.48775739,11.6426802 7.5144822,11.823498 C7.21336624,12.4789203 7.08599806,13.1899945 7.32096834,13.9332161 C7.38581834,14.1384266 7.47198905,14.3406018 7.57192924,14.540038 C7.57259543,14.5783484 7.57592697,14.6161034 7.57729634,14.6542843 C7.3830793,16.779715 9.10493703,18.3233463 11.0468112,18.6745249 C11.7674907,19.0570181 12.7764048,19.4936454 13.5586401,19.2721299 C13.6173458,19.2555285 13.6588762,19.2151455 13.6836021,19.1666191 C14.9570247,19.1262173 16.1283614,18.4353349 16.8389359,17.3406755 C18.384973,16.3540621 19.1110939,14.4362847 18.3965217,12.6588308 Z" id="Path" fill="#15003E"></path>
            <path d="M18.372277,13.6030614 C18.631085,12.444311 18.6082837,11.1066121 17.9390549,10.196768 C17.8092066,10.0201887 17.4526795,10.0499115 17.4755549,10.3223037 C17.5838604,11.6132897 17.9308378,12.7107067 17.5123477,14.0109095 C17.0891196,15.3259923 16.1170723,16.3923167 14.8757035,16.9863867 C13.6466617,17.5745344 12.2378758,17.6180455 10.9491291,17.2010915 C9.74899592,16.8127869 8.91971488,16.0222791 8.07540567,15.1616278 C8.0633388,15.1442123 8.04949533,15.1267414 8.0377987,15.1093629 C7.81445106,14.7789126 7.71910079,14.2668491 7.40232746,14.0206076 C7.26755633,13.915874 7.11094626,13.9565163 7.0459483,14.114681 C6.86028162,14.5664474 7.2493079,15.142843 7.5067833,15.493929 C7.67942066,15.729362 7.87023217,15.9122157 8.08421529,16.0656052 C8.11108807,16.1006399 8.13514783,16.1379691 8.16283477,16.1723007 C8.08747254,16.2714819 8.06437523,16.4021816 8.15380319,16.5214803 C8.17105219,16.5445222 8.19029975,16.5654911 8.207845,16.5882367 L8.20643834,16.5896434 C8.20925136,16.592068 8.21206469,16.5944553 8.21487772,16.5968799 C8.98945075,17.5970217 10.0384153,18.3110014 11.1993125,18.6678803 C11.4129624,18.7561608 11.6314611,18.8367422 11.8617305,18.8989086 C13.0217766,19.212073 14.5604105,19.2514383 15.4950361,18.3923972 C15.5349382,18.3557524 15.5541118,18.3131482 15.5597381,18.2702111 C17.2755265,17.3711011 19.0829994,15.4980562 18.372277,13.6030614 Z" id="Path" fill="#3E00FF"></path>
            <path d="M17.4948024,10.1295122 C16.3554108,8.00533989 13.2429031,7.56204984 11.1595584,8.28106372 C10.8556664,8.38596378 10.5219403,8.53883537 10.1801451,8.72962839 C9.88298989,8.86650937 9.60904266,9.04260775 9.3822525,9.23823115 C7.92038724,10.2896384 6.61046813,11.9309888 7.12752877,13.5080629 C7.18179255,13.6736118 7.47309946,13.7132734 7.50441419,13.5080629 C7.81600539,11.4682289 9.76835477,9.49239381 11.72137,8.92486335 C13.9065798,8.28983635 15.4876698,9.26068078 17.2857795,10.3385721 C17.4208469,10.4195607 17.5652788,10.2608781 17.4948024,10.1295122 Z" id="Path" fill="#B8AAE2"></path>
            <g id="Group" transform="translate(10.309677, 10.006452)">
                <path d="M2.35479218,0.233452639 C2.27885625,0.368043355 2.20218227,0.502226839 2.12715996,0.637326368 C2.0218457,0.826971974 1.91699173,1.01688624 1.81337462,1.20746639 C1.71947135,1.38017774 1.62891205,1.55471664 1.53424768,1.72700712 C1.44353132,1.89211205 1.3483833,2.05477845 1.25705957,2.21955923 C1.11280111,2.47984311 0.969904129,2.74089051 0.826811568,3.00182208 C0.679530548,3.27039736 0.532705277,3.53921795 0.385677755,3.80793181 C0.413720077,3.85050805 0.444566026,3.82883135 0.476272832,3.81279465 C0.625373206,3.73738603 0.7748984,3.66281977 0.924013935,3.58743874 C1.14661443,3.47491346 1.3688377,3.36164801 1.59153553,3.2493171 C1.72053567,3.1842497 1.8500798,3.12025541 1.97950567,3.05603461 C2.14824719,2.97230699 2.31711486,2.88882923 2.48592794,2.80524503 C2.48435935,2.78425756 2.48215369,2.76329344 2.48131618,2.74227807 C2.44912603,1.93480321 2.41715542,1.12731926 2.38461595,0.3198632 C2.38336666,0.288864123 2.39418061,0.252006419 2.35479218,0.233452639 Z" id="Path" fill="#3E00FF"></path>
                <path d="M2.35479218,0.233452639 C2.39418061,0.252006419 2.38336636,0.288863819 2.38461565,0.319863806 C2.41715512,1.12732017 2.44912573,1.93480412 2.48131588,2.74227868 C2.48215339,2.76329374 2.48435905,2.78425817 2.48592764,2.80524564 L2.4862342,2.80552794 C2.50196555,2.80970124 2.51838038,2.81219982 2.53332881,2.81829799 C3.13355034,3.06300334 3.73322607,3.30906411 4.33411592,3.55211324 C4.44601412,3.59737788 4.55339214,3.65613425 4.67408481,3.6781166 C4.59336579,3.52835914 4.49429555,3.39018247 4.39864085,3.25018766 C4.34574432,3.17277108 4.29708022,3.09259697 4.24302234,3.01573559 C4.12292521,2.84497671 4.01378454,2.66647253 3.9016295,2.49019857 C3.86490279,2.43247378 3.81532931,2.3833227 3.78837799,2.31921288 C3.7512207,2.31753331 3.74341415,2.29410305 3.74644823,2.26263579 C3.74644823,2.26263579 3.74695371,2.26268674 3.74694674,2.26269128 C3.70267334,2.25912383 3.70196683,2.22655101 3.70120664,2.19401034 C3.70120664,2.19401034 3.70176518,2.1948154 3.7017573,2.19481085 C3.69732353,2.18935582 3.69289916,2.18390534 3.68847479,2.1784503 C3.68847479,2.1784503 3.68981081,2.17866317 3.68977624,2.17868166 C3.66405086,2.17560938 3.6524455,2.16345457 3.66294045,2.13706756 C3.66294045,2.13706756 3.66068718,2.13531855 3.66064321,2.1353695 C3.61555323,2.12717997 3.61249854,2.092534 3.61115888,2.05681006 C3.61115888,2.05681006 3.61160068,2.05699503 3.61159492,2.05699988 C3.57428845,2.05446885 3.56688094,2.03145037 3.57229079,1.99964987 C3.57229079,1.99964987 3.57066459,1.99887725 3.57062154,1.99891425 C3.55175907,1.99901613 3.55156683,1.9870093 3.55396959,1.9733232 L3.55006222,1.97432718 C3.55006222,1.97432718 3.55401355,1.9736331 3.5539893,1.9736425 C3.53736282,1.97100504 3.5359792,1.95947518 3.53784161,1.94604804 C3.53784161,1.94604804 3.53821974,1.94638583 3.53820033,1.94638583 C3.52900683,1.94513199 3.52415552,1.9403107 3.5251883,1.93063598 L3.52110052,1.93300023 C3.52110052,1.93300023 3.52547758,1.93122818 3.52543937,1.93124213 C3.50580641,1.92895641 3.50670517,1.91443281 3.5069517,1.90030218 C3.41867812,1.76483696 3.33040363,1.62937174 3.24211488,1.49389743 C3.22525795,1.49186157 3.221051,1.48071559 3.22190246,1.46591423 C3.22190246,1.46591423 3.22242401,1.46571532 3.22241612,1.46572441 C3.1699429,1.46787125 3.17648651,1.43049564 3.17664267,1.3973949 C3.17664267,1.3973949 3.1772279,1.39752923 3.17722092,1.39753378 C3.13292327,1.3938787 3.13193445,1.36156908 3.13170188,1.3287555 C3.13170188,1.3287555 3.13224192,1.328737 3.13223404,1.32874155 C3.08770169,1.32530388 3.08707007,1.29269831 3.08656005,1.26000966 C3.08656005,1.26000966 3.08709675,1.26109248 3.08708766,1.26108763 C3.08197375,1.25437875 3.07686804,1.24767898 3.07176354,1.24097466 C2.99952666,1.10308515 2.9055773,0.978886284 2.81873797,0.850680594 C2.70788893,0.687028716 2.61405388,0.512017697 2.48877341,0.357836774 C2.45714545,0.318911071 2.43710283,0.270602045 2.41150359,0.226739219 C2.38765792,0.185888639 2.36751372,0.179017845 2.35479218,0.233452639 Z" id="Path" fill="#70668F"></path>
                <path d="M1.97950567,3.05603552 C1.8500798,3.12025632 1.72053567,3.1842503 1.59153553,3.24931801 C1.36883801,3.36164892 1.14661443,3.47491437 0.924013935,3.58743965 C0.7748984,3.66282037 0.625373206,3.73738694 0.476272832,3.81279555 C0.444566026,3.82883226 0.413720077,3.85050896 0.385677755,3.80793272 C0.342617871,3.85737521 0.356902232,3.88292471 0.414214942,3.91278669 C0.666153135,4.04405981 0.912558974,4.18613232 1.16631652,4.31364848 C1.29945903,4.38055283 1.43059692,4.45283367 1.56122114,4.52285185 C1.72607621,4.61122034 1.89132427,4.70128204 2.05435969,4.79422621 C2.20654994,4.88099366 2.36350083,4.95938663 2.51608193,5.045497 C2.56445342,5.07279551 2.60033807,5.0695704 2.63597074,5.03021897 C2.5866171,5.04589028 2.57032842,5.03125085 2.5684372,4.97650585 C2.55217368,4.50570443 2.53226782,4.03502338 2.51400119,3.56428685 C2.50418759,3.31139197 2.49545439,3.05845101 2.4862342,2.80552825 C2.31711455,2.88883014 2.14824719,2.9723079 1.97950567,3.05603552 Z" id="Path" fill="#70668F"></path>
                <path d="M2.4862345,2.80552825 C2.49545469,3.05845071 2.5041879,3.31139197 2.5140015,3.56428685 C2.53226843,4.03502338 2.55217429,4.50570443 2.5684375,4.97650585 C2.57032872,5.03125085 2.58661771,5.04589028 2.63597105,5.03021897 C2.85377359,4.88305712 3.07973898,4.74864227 3.29743358,4.60086032 C3.41436018,4.52148642 3.53482603,4.44327417 3.65773861,4.37046117 C3.89477265,4.23003608 4.12339369,4.07533695 4.35447177,3.92496879 C4.45543201,3.85927188 4.55409987,3.79003118 4.65312857,3.72141482 C4.66664941,3.71204999 4.68961482,3.70330526 4.67409178,3.678126 C4.55339214,3.65613455 4.44601412,3.59737818 4.33411592,3.55211354 C3.73322577,3.30906472 3.13355034,3.06300365 2.53332881,2.8182983 C2.51838068,2.81220012 2.50196555,2.80970154 2.4862345,2.80552825 Z" id="Path" fill="#693CF4"></path>
                <path d="M2.69872059,7.19683346 C2.82560998,7.00614688 2.952963,6.81576989 3.07923805,6.62468063 C3.17269467,6.48325611 3.26483286,6.34095709 3.3574071,6.19894492 C3.4757819,6.01735451 3.59394475,5.83562552 3.71230683,5.65403056 C3.89985199,5.36628625 4.08744324,5.07856954 4.27509817,4.79089466 C4.39726936,4.60360876 4.52003609,4.41670674 4.64117055,4.22875435 C4.65369772,4.20931242 4.68755379,4.18547463 4.66320597,4.16340919 C4.64101561,4.14329167 4.61872457,4.17740548 4.59862191,4.19012945 C4.47962155,4.26543163 4.36067061,4.34089089 4.24342835,4.41889057 C4.09355051,4.51860395 3.94948854,4.6277701 3.79520967,4.71995559 C3.63433383,4.81608333 3.47349497,4.91235874 3.31843955,5.01711567 C3.15168294,5.12977497 2.97493232,5.22705012 2.81251335,5.34538672 C2.74095661,5.3975176 2.66222828,5.43506908 2.58939465,5.48342905 C2.59849446,5.70601347 2.60806184,5.92857909 2.61659704,6.1511911 C2.62998355,6.50029225 2.64267415,6.84942098 2.65565828,7.19854062 C2.65987343,7.20899736 2.6541743,7.22651926 2.67474514,7.22531637 C2.67474514,7.22531637 2.67237391,7.22592706 2.67238422,7.22592706 C2.68661885,7.22116612 2.69298659,7.20928421 2.69872059,7.19683346 Z" id="Path" fill="#70668F"></path>
                <path d="M2.65565828,7.19854062 C2.64267415,6.84942098 2.62998385,6.50029225 2.61659704,6.1511911 C2.60806154,5.92857909 2.59849446,5.70601317 2.58939465,5.48342905 C2.55266885,5.46205285 2.50580591,5.46227056 2.47441476,5.42950307 C2.42844573,5.42851759 2.38378603,5.42526488 2.36959324,5.36911808 C2.36959324,5.36911808 2.36555852,5.36724414 2.36553668,5.36727204 C2.33211453,5.3817726 2.31133174,5.37121397 2.30307308,5.33581873 L2.30418228,5.3366147 C2.29127214,5.33685515 2.27869524,5.33650372 2.27485034,5.32037453 C2.27485034,5.32037453 2.27707359,5.32212354 2.2770654,5.32212354 C2.2622792,5.32497355 2.25040185,5.32285916 2.24774498,5.30498097 C2.24774498,5.30498097 2.24987575,5.30698438 2.2498524,5.30699833 C2.23478268,5.31098211 2.22178127,5.31149577 2.22159843,5.29032303 C2.22159843,5.29032303 2.2223007,5.29302963 2.22226006,5.29304812 C2.21228909,5.29538933 2.20591346,5.2914195 2.20262255,5.28198978 C2.20262255,5.28198978 2.20450468,5.28334095 2.2044977,5.2833455 C2.19064271,5.28489559 2.17823683,5.28386372 2.17476217,5.26679059 C2.17476217,5.26679059 2.17725377,5.26875701 2.17724104,5.26876155 C2.15966001,5.27390214 2.14801553,5.26889103 2.14462395,5.24973595 C2.03853828,5.1912061 1.93282012,5.13199155 1.8262881,5.07428556 C1.60807741,4.95607844 1.38969539,4.83818637 1.17088189,4.72109906 C0.979140387,4.61850321 0.786616561,4.51736922 0.594678265,4.41513876 C0.561217903,4.39732061 0.528868258,4.37740201 0.496155045,4.35819599 C0.472005232,4.34401472 0.4485586,4.3405722 0.425987684,4.36113394 L0.42642251,4.36015755 C0.515443239,4.47765665 0.602157632,4.59662244 0.697255613,4.70979541 C0.794915852,4.82601276 0.875970232,4.95605994 0.971412071,5.07430861 C1.05627224,5.17944943 1.1361595,5.28836571 1.22095114,5.39358961 C1.37640076,5.58650187 1.5193975,5.78923683 1.67704824,5.98082581 C1.76485788,6.08753491 1.84673825,6.19964386 1.93016628,6.30971695 C1.99810706,6.39934837 2.06272357,6.49387993 2.13497075,6.57935625 C2.20210646,6.65878079 2.26225343,6.74357274 2.32718195,6.8243345 C2.35712338,6.86157609 2.38858033,6.90094602 2.41426871,6.94307348 C2.45198909,7.00493003 2.50272605,7.05622795 2.55345148,7.10731756 L2.55279105,7.10672081 C2.55343177,7.11132439 2.5559443,7.11439667 2.56032834,7.11593766 C2.60481217,7.1273429 2.61869839,7.15850935 2.6151925,7.20090517 L2.61437803,7.20000308 C2.62813903,7.19951701 2.64189911,7.19902639 2.65565828,7.19854062 Z" id="Path" fill="#3E00FF"></path>
                <path d="M2.36959354,5.36911777 C2.38378633,5.42526458 2.42844603,5.42851728 2.47441506,5.42950277 C2.44454884,5.40056654 2.40857019,5.38223957 2.36959354,5.36911777 Z" id="Path" fill="#00FF91"></path>
                <path d="M2.6151931,7.20090487 C2.618699,7.15850905 2.60481277,7.12734259 2.56032894,7.11593736 C2.56411017,7.15362772 2.59205758,7.17571166 2.6151931,7.20090487 Z" id="Path" fill="#00FF91"></path>
                <path d="M2.65565828,7.19854062 C2.64189911,7.19902639 2.62813903,7.19951701 2.61437864,7.20000277 C2.623164,7.21330044 2.63117401,7.2271994 2.64088027,7.23978448 C2.66989413,7.27741935 2.66988139,7.24528591 2.67474301,7.22532092 C2.6541743,7.22651926 2.65987343,7.20899736 2.65565828,7.19854062 Z" id="Path" fill="#00FF91"></path>
                <path d="M3.17664267,1.3973946 C3.17648651,1.43049503 3.1699429,1.46787095 3.22241612,1.46572411 C3.21144693,1.44007272 3.19927393,1.4152264 3.17664267,1.3973946 Z" id="Path" fill="#00FF91"></path>
                <path d="M3.61115919,2.05680975 C3.61249854,2.0925337 3.61555354,2.12717967 3.66064352,2.13536919 C3.64956546,2.10574828 3.63647369,2.07742244 3.61115919,2.05680975 Z" id="Path" fill="#00FF91"></path>
                <path d="M3.08656005,1.26000935 C3.08707007,1.29269801 3.08770169,1.32530357 3.13223404,1.32874125 C3.12244591,1.30222021 3.10816974,1.27867866 3.08656005,1.26000935 Z" id="Path" fill="#00FF91"></path>
                <path d="M3.13170188,1.32875519 C3.13193445,1.36156877 3.13292327,1.39387809 3.17722092,1.39753348 C3.17325109,1.36719058 3.1509461,1.34898854 3.13170188,1.32875519 Z" id="Path" fill="#00FF91"></path>
                <path d="M3.70120694,2.19401003 C3.70196683,2.22655071 3.70267365,2.25912383 3.74694704,2.26269098 C3.73694817,2.23630427 3.72386367,2.21197161 3.70120694,2.19401003 Z" id="Path" fill="#00FF91"></path>
                <path d="M2.30307338,5.33581843 C2.31133234,5.37121397 2.33211514,5.3817723 2.36553699,5.36727174 C2.34472994,5.3567686 2.32390226,5.34629336 2.30307338,5.33581843 Z" id="Path" fill="#00FF91"></path>
                <path d="M3.5722911,1.99964957 C3.56688125,2.03145007 3.57428875,2.05446855 3.61159523,2.05699957 C3.60285505,2.03489229 3.59350295,2.01320619 3.5722911,1.99964957 Z" id="Path" fill="#00FF91"></path>
                <path d="M3.74644854,2.26263579 C3.74341446,2.29410305 3.75122101,2.31753361 3.7883783,2.31921288 C3.77440171,2.30035375 3.76042391,2.28149462 3.74644854,2.26263579 Z" id="Path" fill="#00FF91"></path>
                <path d="M0.425987987,4.36113364 C0.425145929,4.35082972 0.424305084,4.3405255 0.423463026,4.33022159 C0.419886477,4.33214161 0.416309929,4.33406194 0.412733381,4.33598652 C0.417396084,4.34393558 0.422058787,4.35188889 0.426572303,4.35999988 C0.426422813,4.36015725 0.425987987,4.36113364 0.425987987,4.36113364 Z" id="Path" fill="#00FF91"></path>
                <path d="M3.66294045,2.13706726 C3.6524455,2.16345427 3.66405086,2.17560908 3.68977624,2.17868136 C3.68706388,2.16078467 3.67904781,2.1463117 3.66294045,2.13706726 Z" id="Path" fill="#00FF91"></path>
                <path d="M2.14462425,5.24973565 C2.14801583,5.26889073 2.15966031,5.27390184 2.17724134,5.26876125 C2.16637858,5.26241777 2.15550066,5.25607914 2.14462425,5.24973565 Z" id="Path" fill="#00FF91"></path>
                <path d="M2.69872059,7.19683346 C2.6929869,7.20928421 2.68661915,7.22116612 2.67238452,7.22592706 C2.6884755,7.22285023 2.69331408,7.20958501 2.69872059,7.19683346 Z" id="Path" fill="#00FF91"></path>
                <path d="M3.22190246,1.46591363 C3.221051,1.48071499 3.22525795,1.49186096 3.24211488,1.49389682 C3.23538752,1.48457384 3.22864499,1.47524146 3.22190246,1.46591363 Z" id="Path" fill="#00FF91"></path>
                <path d="M3.5069517,1.90030188 C3.50670517,1.9144322 3.50580641,1.92895611 3.52543937,1.93124183 C3.52439143,1.91786987 3.51932513,1.90689977 3.5069517,1.90030188 Z" id="Path" fill="#00FF91"></path>
                <path d="M3.53784192,1.94604743 C3.5359795,1.95947457 3.53736312,1.97100474 3.5539896,1.97364189 C3.55268603,1.96205654 3.55001522,1.95126655 3.53784192,1.94604743 Z" id="Path" fill="#00FF91"></path>
                <path d="M3.55396989,1.9733229 C3.55156743,1.98700899 3.55175937,1.99901583 3.57062184,1.99891394 C3.56944684,1.98751811 3.56576507,1.9777691 3.55396989,1.9733229 Z" id="Path" fill="#00FF91"></path>
                <path d="M2.17476247,5.26679028 C2.17823714,5.28386341 2.19064301,5.28489529 2.20449801,5.2833452 C2.19848534,5.2708247 2.18620803,5.26955692 2.17476247,5.26679028 Z" id="Path" fill="#00FF91"></path>
                <path d="M2.22159903,5.29032243 C2.22178188,5.31149486 2.23478329,5.3109812 2.24985301,5.30699772 C2.24044997,5.30143141 2.23102481,5.29587449 2.22159903,5.29032243 Z" id="Path" fill="#00FF91"></path>
                <path d="M2.24774528,5.30498036 C2.25040215,5.32285855 2.2622795,5.32497295 2.2770657,5.32212293 C2.26729728,5.31640864 2.25752068,5.31069435 2.24774528,5.30498036 Z" id="Path" fill="#00FF91"></path>
                <path d="M2.27485064,5.32037392 C2.27869554,5.33650311 2.29127244,5.33685485 2.30418258,5.33661409 C2.2944084,5.3312006 2.28462937,5.32578711 2.27485064,5.32037392 Z" id="Path" fill="#00FF91"></path>
                <path d="M3.07176323,1.24097435 C3.07686774,1.24767868 3.08197345,1.25437845 3.08708735,1.26108732 C3.08198649,1.25438755 3.07687501,1.24767868 3.07176323,1.24097435 Z" id="Path" fill="#00FF91"></path>
                <path d="M3.52518982,1.93063537 C3.52415582,1.9403101 3.52900713,1.94513139 3.53820063,1.94638523 C3.53387663,1.94113366 3.52953323,1.93588694 3.52518982,1.93063537 Z" id="Path" fill="#00FF91"></path>
                <path d="M3.6884751,2.17845 C3.69289946,2.18390503 3.69732383,2.18935552 3.7017576,2.19481055 C3.69733535,2.18936006 3.69290523,2.18390503 3.6884751,2.17845 Z" id="Path" fill="#00FF91"></path>
                <path d="M2.20262286,5.28198948 C2.20591377,5.29141889 2.21228939,5.29538872 2.22226037,5.29304782 C2.21574132,5.28935089 2.20918163,5.28567246 2.20262286,5.28198948 Z" id="Path" fill="#00FF91"></path>
                <path d="M2.55279166,7.10672051 L2.55345208,7.10731726 L2.55279166,7.10672051 Z" id="Path" fill="#00FF91"></path>
            </g>
            <path d="M12.8871686,19.4064516 C9.62674161,19.4064516 6.97419355,16.7539033 6.97419355,13.4936203 C6.97419355,10.2331932 9.62674189,7.58064516 12.8871686,7.58064516 C16.1474517,7.58064516 18.8,10.2331935 18.8,13.4936203 C18.8,16.7539033 16.1474517,19.4064516 12.8871686,19.4064516 Z M12.8871684,8.18709677 C9.9612059,8.18709677 7.58064516,10.5676575 7.58064516,13.49362 C7.58064516,16.4195825 9.9612059,18.8 12.8871684,18.8 C15.8131309,18.8 18.1935484,16.4195825 18.1935484,13.49362 C18.1935484,10.5676575 15.8131309,8.18709677 12.8871684,8.18709677 Z" id="Shape" fill="url(#linearGradient-1)"></path>
            <ellipse id="Oval" fill="#B8AAE2" transform="translate(12.111852, 9.178219) rotate(-2.950087) translate(-12.111852, -9.178219) " cx="12.1118525" cy="9.17821897" rx="1.83301532" ry="1"></ellipse>
            <polygon id="Path" fill="#3E00FF" points="6.94324905 10.974691 0.140355342 7.71575864 3.85255968 7.0660367 0.107785555 3.03761121 6.72258496 7.17746521 4.23465482 8.03926874"></polygon>
            <polygon id="Path" fill="#3E00FF" points="10.8853835 7.01145818 11.0457147 1.73568271 9.42616475 3.76472214 8.10450261 0.0784784774 8.56130441 5.548256 9.91575465 4.33761969"></polygon>
            <polygon id="Path" fill="#3E00FF" points="15.0083936 6.7407964 17.5173885 4.76596041 15.9473359 4.80298003 17.1435314 2.75825079 14.7842697 5.09463868 15.8718093 5.25255808"></polygon>
        </g>
    </g>
</svg>