<?xml version="1.0" encoding="utf-8"?>
<!-- Generator: Adobe Illustrator 23.0.1, SVG Export Plug-In . SVG Version: 6.00 Build 0)  -->
<svg version="1.1" id="Layer_1" xmlns="http://www.w3.org/2000/svg" xmlns:xlink="http://www.w3.org/1999/xlink" x="0px" y="0px"
	 viewBox="0 0 54 54" style="enable-background:new 0 0 54 54;" xml:space="preserve">
<style type="text/css">
	.st0{fill:#9E9FB4;}
</style>
<g>
	<g id="Coworking-Space" transform="translate(-922.000000, -977.000000)">
		<g id="About" transform="translate(378.000000, 796.000000)">
			<g id="features" transform="translate(0.000000, 180.000000)">
				<g id="feature" transform="translate(523.000000, 1.000000)">
					<g transform="translate(21.000000, 0.000000)">
						<path id="XMLID_2047_" class="st0" d="M47,49.1H27C14.3,49.1,4,39,4,26.5S14.3,3.9,27,3.9c5,0,9.8,1.6,13.8,4.5h-1.1
							c-0.5,0-1,0.4-1,1s0.4,1,1,1h3.7c0.5,0,1-0.4,1-1V5.7c0-0.5-0.4-1-1-1c-0.5,0-1,0.4-1,1v1.5C38,3.8,32.6,2,27,2
							C20.3,2,14,4.5,9.3,9.2C4.6,13.8,2,20,2,26.5s2.6,12.7,7.3,17.3C14,48.5,20.3,51,27,51h20c0.5,0,1-0.4,1-1S47.6,49.1,47,49.1z
							"/>
						<path id="XMLID_2046_" class="st0" d="M12.3,16.3c-0.5-0.3-1.1-0.1-1.4,0.3c-2.3,3.5-3.3,7.7-2.8,11.8
							c0.5,4.2,2.4,8.1,5.5,11.1C17.3,43.2,22.1,45,27,45s9.7-1.8,13.4-5.4c7.4-7.2,7.4-19,0-26.2c-3.1-3-7.1-4.9-11.4-5.3
							c-4.2-0.4-8.6,0.5-12.1,2.8c-0.5,0.3-0.6,0.9-0.3,1.3c0.3,0.5,0.9,0.6,1.4,0.3c6.7-4.1,15.5-3.1,21.1,2.3
							c6.6,6.5,6.6,17,0,23.4c-3.3,3.2-7.7,4.8-12,4.8c-4.4,0-8.7-1.6-12-4.8c-5.7-5.5-6.6-14-2.4-20.5
							C12.9,17.2,12.8,16.6,12.3,16.3z"/>
						<path id="XMLID_2045_" class="st0" d="M16.5,22c-1.4,0-2.5,1.1-2.5,2.5c0,0.5,0.4,0.9,0.9,0.9c0.5,0,0.9-0.4,0.9-0.9
							c0-0.4,0.3-0.8,0.8-0.8c0.7,0,0.8,0.4,0.8,0.8c0,1.3-1.8,3.1-2.9,3.9c-0.3,0.2-0.4,0.6-0.3,1c0.1,0.4,0.4,0.6,0.8,0.6h3.3
							c0.5,0,0.9-0.4,0.9-0.9c0-0.5-0.4-0.9-0.9-0.9h-1c0.9-1,1.9-2.4,1.9-3.7C19,23,18,22,16.5,22z"/>
						<path id="XMLID_2044_" class="st0" d="M20.9,22c-0.5,0-0.9,0.4-0.9,0.9V26c0,0.5,0.4,0.9,0.9,0.9h2.2v2.3
							c0,0.5,0.4,0.9,0.9,0.9s0.9-0.4,0.9-0.9v-6.3c0-0.5-0.4-0.9-0.9-0.9s-0.9,0.4-0.9,0.9v2.3h-1.3v-2.3
							C21.8,22.4,21.4,22,20.9,22z"/>
						<path id="XMLID_2043_" class="st0" d="M28.9,30c0.4,0,0.7-0.2,0.9-0.5l3.1-6.3c0.2-0.4,0-1-0.5-1.2c-0.5-0.2-1,0-1.3,0.4
							l-3.1,6.3c-0.2,0.4,0,1,0.5,1.2C28.7,30,28.8,30,28.9,30z"/>
						<path id="XMLID_2042_" class="st0" d="M36.7,30c0.1,0,0.2,0,0.3,0c0.4,0,0.8-0.2,0.9-0.6l2-6.3c0.1-0.3,0-0.5-0.1-0.8
							C39.6,22.1,39.3,22,39,22H35c-0.5,0-1,0.4-1,0.9s0.4,0.9,1,0.9h2.8l-1.7,5.1C35.9,29.3,36.2,29.8,36.7,30z"/>
						<path id="XMLID_2040_" class="st0" d="M14,13c-0.3,0-0.5,0.1-0.7,0.3C13.1,13.5,13,13.7,13,14s0.1,0.5,0.3,0.7S13.7,15,14,15
							c0.3,0,0.5-0.1,0.7-0.3S15,14.3,15,14s-0.1-0.5-0.3-0.7C14.5,13.1,14.3,13,14,13z"/>
						<path id="XMLID_2039_" class="st0" d="M51,49L51,49c-0.6,0-1,0.4-1,1s0.4,1,1,1h0c0.5,0,1-0.4,1-1S51.6,49,51,49z"/>
					</g>
				</g>
			</g>
		</g>
	</g>
</g>
</svg>
