<?xml version="1.0" encoding="utf-8"?>
<!-- Generator: Adobe Illustrator 23.0.1, SVG Export Plug-In . SVG Version: 6.00 Build 0)  -->
<svg version="1.1" id="Layer_1" xmlns="http://www.w3.org/2000/svg" xmlns:xlink="http://www.w3.org/1999/xlink" x="0px" y="0px"
	 viewBox="0 0 195 195" style="enable-background:new 0 0 195 195;" xml:space="preserve">
<style type="text/css">
	.st0{fill:#FFFFFF;}
	.st1{enable-background:new    ;}
</style>
<title>360_btn</title>
<desc>Created with Sketch.</desc>
<g>
	<g id="Coworking-Space" transform="translate(-866.000000, -1370.000000)">
		<g id="VR-Tour" transform="translate(0.000000, 1224.000000)">
			<g transform="translate(866.000000, 146.000000)">
				<g transform="translate(64.000000, 38.000000)">
					<path id="Path" class="st0" d="M53.8,18.1c-0.7-0.2-1.5,0.2-1.7,0.9c-0.2,0.7,0.2,1.5,0.9,1.7c6.3,1.8,10.2,4.4,10.2,6.7
						c0,1.7-2.1,3.7-5.9,5.2c-4.1,1.7-9.9,3-16.4,3.6l-5.6-0.1c0,0,0,0,0,0c-0.8,0-1.4,0.6-1.4,1.3c0,0.8,0.6,1.4,1.4,1.4l5.7,0.1
						c0,0,0,0,0,0c0,0,0.1,0,0.1,0c6.8-0.6,12.9-2,17.3-3.8c6.2-2.7,7.5-5.7,7.5-7.7C66,23.6,61.7,20.3,53.8,18.1z"/>
					<path class="st0" d="M14.3,16.6c-0.7,0-1.3,0.6-1.3,1.4s0.6,1.4,1.3,1.4h5.2v5.8h-5.2c-0.7,0-1.3,0.6-1.3,1.4s0.6,1.4,1.3,1.4
						h6.5c0.7,0,1.3-0.6,1.3-1.4V9.4C22,8.6,21.4,8,20.7,8h-6.5C13.6,8,13,8.6,13,9.4s0.6,1.4,1.3,1.4h5.2v5.8H14.3z"/>
					<path id="Shape" class="st0" d="M25.5,28h9c0.8,0,1.5-0.6,1.5-1.4V18c0-0.8-0.7-1.4-1.5-1.4H27v-5.8H33c0.8,0,1.5-0.6,1.5-1.4
						C34.5,8.6,33.8,8,33,8h-7.5C24.7,8,24,8.6,24,9.4v17.2C24,27.4,24.7,28,25.5,28z M27,19.4H33v5.8H27V19.4z"/>
					<path class="st0" d="M39.5,28h9c0.8,0,1.5-0.6,1.5-1.4V9.4C50,8.6,49.3,8,48.5,8h-9C38.7,8,38,8.6,38,9.4v17.2
						C38,27.4,38.7,28,39.5,28z M41,10.8H47v14.4H41V10.8z"/>
					<path class="st0" d="M25,31.1c-0.5-0.6-1.4-0.7-1.9-0.2c-0.6,0.5-0.6,1.4-0.2,2l3.1,3.8c-6.5-0.5-12.3-1.7-16.6-3.5
						c-4.2-1.7-6.6-3.9-6.6-5.8c0-2.3,3.2-4.7,8.7-6.6c0.7-0.2,1.1-1,0.9-1.8c-0.2-0.7-1-1.2-1.7-0.9c-3.2,1.1-5.7,2.3-7.5,3.8
						C1,23.5,0,25.4,0,27.3c0,3.3,2.9,6.2,8.4,8.5c4.5,1.8,10.4,3.1,17,3.7l-2.7,3.1c-0.5,0.6-0.5,1.5,0.1,2
						c0.3,0.2,0.6,0.4,0.9,0.4c0.4,0,0.7-0.2,1-0.5l5-5.7c0.2-0.3,0.4-0.6,0.4-1v-0.1c0-0.3-0.1-0.7-0.3-0.9L25,31.1z"/>
					<path class="st0" d="M52.3,8h5.4C58.4,8,59,7.4,59,6.7V1.3C59,0.6,58.4,0,57.7,0h-5.4C51.6,0,51,0.6,51,1.3v5.4
						C51,7.4,51.6,8,52.3,8z M53.6,2.6h2.7v2.7h-2.7V2.6z"/>
				</g>
				<g class="st1">
					<path class="st0" d="M64.4,116.5h0.2l5.3-15.4h3.1L66.1,120h-3.3L56,101.1h3.1L64.4,116.5z"/>
					<path class="st0" d="M75.1,102c0-0.9,0.8-1.7,1.7-1.7c1,0,1.7,0.7,1.7,1.7s-0.8,1.6-1.7,1.6C75.9,103.6,75.1,102.9,75.1,102z
						 M75.5,105.8h2.8V120h-2.8V105.8z"/>
					<path class="st0" d="M81.9,105.8h2.7v2.3h0.1c0.5-1.5,1.9-2.5,3.6-2.5c0.4,0,0.9,0,1.2,0.1v2.6c-0.2-0.1-0.9-0.2-1.4-0.2
						c-2,0-3.4,1.3-3.4,3.2v8.7h-2.8V105.8z"/>
					<path class="st0" d="M99.4,108h-2.9v7.8c0,1.6,0.8,1.9,1.7,1.9c0.4,0,0.8-0.1,1-0.1l0.5,2.3c-0.3,0.1-0.9,0.3-1.8,0.3
						c-2.2,0-4.1-1.2-4.1-3.8V108h-2.1v-2.2h2.1v-3.4h2.8v3.4h2.9V108z"/>
					<path class="st0" d="M111.4,105.8h2.8V120h-2.7v-2.5h-0.1c-0.7,1.5-2.1,2.6-4.2,2.6c-2.7,0-4.7-1.8-4.7-5.3v-9h2.8v8.7
						c0,1.9,1.2,3.2,2.9,3.2c1.6,0,3.3-1.1,3.3-3.6V105.8z"/>
					<path class="st0" d="M117.3,116c0-3.2,2.8-3.9,5.4-4.2c2.5-0.3,3.6-0.3,3.6-1.3v-0.1c0-1.6-0.9-2.5-2.7-2.5c-1.9,0-2.9,1-3.3,2
						l-2.6-0.6c0.9-2.6,3.3-3.6,5.9-3.6c2.3,0,5.5,0.8,5.5,4.9v9.4h-2.7v-1.9h-0.1c-0.5,1.1-1.8,2.3-4.2,2.3
						C119.4,120.3,117.3,118.8,117.3,116z M126.3,114.9v-1.8c-0.4,0.4-2.5,0.6-3.4,0.8c-1.6,0.2-2.9,0.7-2.9,2.2
						c0,1.4,1.1,2.1,2.7,2.1C124.9,118.1,126.3,116.6,126.3,114.9z"/>
					<path class="st0" d="M135.5,120h-2.8v-18.9h2.8V120z"/>
				</g>
				<g class="st1">
					<path class="st0" d="M69.9,132.1h14.6v2.5h-5.9V151h-2.8v-16.5h-5.9V132.1z"/>
					<path class="st0" d="M84.8,144c0-4.4,2.6-7.3,6.6-7.3c4,0,6.6,2.9,6.6,7.3c0,4.4-2.6,7.3-6.6,7.3
						C87.5,151.3,84.8,148.4,84.8,144z M95.3,144c0-2.7-1.2-5-3.8-5c-2.6,0-3.8,2.3-3.8,5c0,2.7,1.2,5,3.8,5
						C94.1,149,95.3,146.7,95.3,144z"/>
					<path class="st0" d="M110.1,136.8h2.8V151h-2.7v-2.5H110c-0.7,1.5-2.1,2.6-4.2,2.6c-2.7,0-4.7-1.8-4.7-5.3v-9h2.8v8.7
						c0,1.9,1.2,3.2,2.9,3.2c1.6,0,3.3-1.1,3.3-3.6V136.8z"/>
					<path class="st0" d="M116.6,136.8h2.7v2.3h0.1c0.5-1.5,1.9-2.5,3.6-2.5c0.8,0,1.4,0.2,1.9,0.5l-0.9,2.3
						c-0.3-0.2-0.7-0.3-1.3-0.3c-1.9,0-3.3,1.3-3.3,3.2v8.7h-2.8V136.8z"/>
				</g>
			</g>
		</g>
	</g>
</g>
</svg>
