<?xml version="1.0" encoding="utf-8"?>
<!-- Generator: Adobe Illustrator 23.0.1, SVG Export Plug-In . SVG Version: 6.00 Build 0)  -->
<svg version="1.1" id="Layer_1" xmlns="http://www.w3.org/2000/svg" xmlns:xlink="http://www.w3.org/1999/xlink" x="0px" y="0px"
	 viewBox="0 0 54 54" style="enable-background:new 0 0 54 54;" xml:space="preserve">
<style type="text/css">
	.st0{fill:#9E9FB4;}
</style>
<g>
	<g id="Coworking-Space" transform="translate(-1178.000000, -977.000000)">
		<g id="About" transform="translate(378.000000, 796.000000)">
			<g id="features" transform="translate(0.000000, 180.000000)">
				<g id="feature" transform="translate(775.000000, 1.000000)">
					<g transform="translate(25.000000, 0.000000)">
						<path id="Path" class="st0" d="M37.1,48H12.9c-0.5,0-0.9,0.3-0.9,0.7v1.5c0,0.4,0.4,0.7,0.9,0.7s0.9-0.3,0.9-0.7v-0.7h23.4
							c0.5,0,0.9-0.3,0.9-0.7C38,48.3,37.6,48,37.1,48z"/>
						<path id="Shape" class="st0" d="M20,22.3c0,0.4,0.4,0.7,0.8,0.7h3.3c0.5,0,0.8-0.3,0.8-0.7v-4.5c0-0.4-0.4-0.7-0.8-0.7h-3.3
							c-0.5,0-0.8,0.3-0.8,0.7L20,22.3L20,22.3z M21.7,18.5h1.7v3h-1.7V18.5z"/>
						<path class="st0" d="M13.1,11H2.9C2.4,11,2,11.4,2,11.8v16.4C2,28.6,2.4,29,2.9,29s0.9-0.4,0.9-0.8V12.6h9.4
							c0.5,0,0.9-0.4,0.9-0.8C14,11.4,13.6,11,13.1,11z"/>
						<path class="st0" d="M41,42.3c0,0.4,0.4,0.7,0.8,0.7h3.3c0.5,0,0.8-0.3,0.8-0.7v-4.5c0-0.4-0.4-0.7-0.8-0.7h-3.3
							c-0.5,0-0.8,0.3-0.8,0.7V42.3z M42.7,38.5h1.7v3h-1.7V38.5z"/>
						<path class="st0" d="M6,31c-4,0-4,10.7-4,10.8c0,2,1.4,3.7,3.2,4.1v4.3C5.2,50.6,5.6,51,6,51s0.8-0.4,0.8-0.8v-4.3
							c1.8-0.4,3.2-2.1,3.2-4.1C10,41.7,10,31,6,31z M6,44.3c-1.3,0-2.4-1.1-2.4-2.5c0-4.2,1.1-9.2,2.4-9.2s2.4,5,2.4,9.2
							C8.4,43.2,7.3,44.3,6,44.3z"/>
						<path class="st0" d="M12.2,26H8.8C8.4,26,8,26.3,8,26.7v1.5C8,28.7,8.4,29,8.8,29c0.5,0,0.8-0.3,0.8-0.7v-0.7h1.7v3.8
							c0,0.4,0.4,0.7,0.8,0.7c0.5,0,0.8-0.3,0.8-0.7v-4.5C13,26.3,12.6,26,12.2,26z"/>
						<path class="st0" d="M41.8,23h3.3c0.5,0,0.8-0.3,0.8-0.7v-4.5c0-0.4-0.4-0.7-0.8-0.7h-3.3c-0.5,0-0.8,0.3-0.8,0.7v4.5
							C41,22.7,41.4,23,41.8,23z M42.7,18.5h1.7v3h-1.7V18.5z"/>
						<path class="st0" d="M12.2,17H8.8C8.4,17,8,17.3,8,17.7v4.5C8,22.7,8.4,23,8.8,23h3.3c0.5,0,0.8-0.3,0.8-0.7v-4.5
							C13,17.3,12.6,17,12.2,17z M11.3,21.5H9.7v-3h1.7L11.3,21.5L11.3,21.5z"/>
						<path class="st0" d="M29,22.3c0,0.4,0.4,0.7,0.8,0.7h3.3c0.5,0,0.8-0.3,0.8-0.7v-4.5c0-0.4-0.4-0.7-0.8-0.7h-3.3
							c-0.5,0-0.8,0.3-0.8,0.7V22.3z M30.7,18.5h1.7v3h-1.7V18.5z"/>
						<path class="st0" d="M51.1,11H40.9c-0.5,0-0.9,0.4-0.9,0.8s0.4,0.8,0.9,0.8h9.4v33.5C50,46.1,49.7,46,49.4,46
							c-0.1,0-0.3,0-0.4,0c-0.6-1-1.7-1.7-3-1.7S43.6,45,43,46c-0.1,0-0.3,0-0.4,0c-1.4,0-2.6,1.1-2.6,2.5s1.2,2.5,2.6,2.5h6.9
							c1.4,0,2.6-1.1,2.6-2.5V11.8C52,11.4,51.6,11,51.1,11z M49.4,49.3h-6.9c-0.5,0-0.9-0.4-0.9-0.8s0.4-0.8,0.9-0.8
							c0.2,0,0.3,0,0.5,0.1c0.2,0.1,0.5,0.2,0.8,0.1c0.3-0.1,0.5-0.3,0.5-0.6c0.2-0.8,0.9-1.3,1.7-1.3s1.5,0.5,1.7,1.3
							c0.1,0.3,0.3,0.5,0.5,0.6c0.3,0.1,0.6,0.1,0.8-0.1c0.6-0.4,1.3,0.1,1.3,0.7C50.3,49,49.9,49.3,49.4,49.3z"/>
						<path class="st0" d="M29.8,13h3.3c0.5,0,0.8-0.3,0.8-0.7V7.7C34,7.3,33.6,7,33.2,7h-3.3C29.4,7,29,7.3,29,7.7v4.5
							C29,12.7,29.4,13,29.8,13z M30.7,8.5h1.7v3h-1.7V8.5z"/>
						<path class="st0" d="M29,31.3c0,0.4,0.4,0.7,0.8,0.7h3.3c0.5,0,0.8-0.3,0.8-0.7v-4.5c0-0.4-0.4-0.7-0.8-0.7h-3.3
							c-0.5,0-0.8,0.3-0.8,0.7V31.3z M30.7,27.5h1.7v3h-1.7V27.5z"/>
						<path class="st0" d="M20.8,13h3.3c0.5,0,0.8-0.3,0.8-0.7V7.7C25,7.3,24.6,7,24.2,7h-3.3C20.4,7,20,7.3,20,7.7v4.5
							C20,12.7,20.4,13,20.8,13z M21.7,8.5h1.7v3h-1.7V8.5z"/>
						<path class="st0" d="M25.3,42.3C25.1,42.5,25,42.7,25,43s0.1,0.5,0.3,0.7c0.2,0.2,0.4,0.3,0.7,0.3s0.5-0.1,0.7-0.3
							c0.2-0.2,0.3-0.5,0.3-0.7s-0.1-0.5-0.3-0.7C26.3,41.9,25.7,41.9,25.3,42.3z"/>
						<path class="st0" d="M20,31.3c0,0.4,0.4,0.7,0.8,0.7h3.3c0.5,0,0.8-0.3,0.8-0.7v-4.5c0-0.4-0.4-0.7-0.8-0.7h-3.3
							c-0.5,0-0.8,0.3-0.8,0.7L20,31.3L20,31.3z M21.7,27.5h1.7v3h-1.7V27.5z"/>
						<path class="st0" d="M19,36.8c0,0.5,0.4,0.8,0.8,0.8h2.4v7.5c0,0.5,0.4,0.8,0.8,0.8s0.8-0.4,0.8-0.8v-7.5h6.4v7.5
							c0,0.5,0.4,0.8,0.8,0.8s0.8-0.4,0.8-0.8v-7.5h2.4c0.4,0,0.8-0.4,0.8-0.8S34.6,36,34.2,36H19.8C19.4,36,19,36.4,19,36.8z"/>
						<path class="st0" d="M41,31.3c0,0.4,0.4,0.7,0.8,0.7h3.3c0.5,0,0.8-0.3,0.8-0.7v-4.5c0-0.4-0.4-0.7-0.8-0.7h-3.3
							c-0.5,0-0.8,0.3-0.8,0.7V31.3z M42.7,27.5h1.7v3h-1.7V27.5z"/>
						<path class="st0" d="M38.2,2H16.8C16.4,2,16,2.4,16,2.8v42.4c0,0.4,0.4,0.8,0.8,0.8c0.5,0,0.8-0.4,0.8-0.8V3.6h19.7v41.6
							c0,0.4,0.4,0.8,0.8,0.8c0.5,0,0.8-0.4,0.8-0.8V2.8C39,2.4,38.6,2,38.2,2z"/>
					</g>
				</g>
			</g>
		</g>
	</g>
</g>
</svg>
