<?xml version="1.0" encoding="utf-8"?>
<!-- Generator: Adobe Illustrator 23.0.1, SVG Export Plug-In . SVG Version: 6.00 Build 0)  -->
<svg version="1.1" id="Layer_1" xmlns="http://www.w3.org/2000/svg" xmlns:xlink="http://www.w3.org/1999/xlink" x="0px" y="0px"
	 viewBox="0 0 54 54" style="enable-background:new 0 0 54 54;" xml:space="preserve">
<style type="text/css">
	.st0{fill:#9E9FB4;}
</style>
<g>
	<g id="Coworking-Space" transform="translate(-403.000000, -978.000000)">
		<g id="About" transform="translate(378.000000, 796.000000)">
			<g id="features" transform="translate(0.000000, 180.000000)">
				<g id="feature" transform="translate(0.000000, 2.000000)">
					<g transform="translate(25.000000, 0.000000)">
						<path id="Path" class="st0" d="M2.2,3H0.8C0.3,3,0,3.3,0,3.8v1.4C0,5.7,0.3,6,0.8,6s0.8-0.3,0.8-0.8V4.6h0.7
							C2.7,4.6,3,4.2,3,3.8S2.7,3,2.2,3z"/>
						<path class="st0" d="M53.2,3h-1.5C51.3,3,51,3.3,51,3.8s0.3,0.8,0.8,0.8h0.7v0.7c0,0.4,0.3,0.8,0.8,0.8S54,5.7,54,5.2V3.8
							C54,3.3,53.7,3,53.2,3z"/>
						<path class="st0" d="M2.2,48.4H1.5v-0.7c0-0.4-0.3-0.8-0.8-0.8S0,47.3,0,47.8v1.4C0,49.7,0.3,50,0.8,50h1.5
							C2.7,50,3,49.7,3,49.2S2.7,48.4,2.2,48.4z"/>
						<path class="st0" d="M53.2,47c-0.4,0-0.8,0.3-0.8,0.8v0.7h-0.7c-0.4,0-0.8,0.3-0.8,0.8s0.3,0.8,0.8,0.8h1.5
							c0.4,0,0.8-0.3,0.8-0.8v-1.4C54,47.3,53.7,47,53.2,47z"/>
						<path class="st0" d="M27,13c-0.6,0-1,0.4-1,0.8v3.3c0,0.5,0.4,0.8,1,0.8s1-0.4,1-0.8v-3.3C28,13.4,27.6,13,27,13z"/>
						<path id="Shape" class="st0" d="M47.6,36.2v-9.7c0-0.4-0.4-0.8-0.8-0.8S46,26.1,46,26.5v9.7c-0.5,0.1-1,0.4-1.4,0.8l-2.3-1.1
							c-0.4-0.2-0.9,0-1.1,0.4c-0.2,0.4,0,0.9,0.4,1l2.1,1c-0.1,0.3-0.2,0.6-0.2,1c0,0.2,0,0.3,0,0.4L29,45.9
							c-0.4-0.5-1-0.9-1.7-1.1V30.4c0.1,0,0.2,0,0.3,0c0.3,0,0.6-0.2,0.7-0.4c0.2-0.4,0-0.9-0.4-1l-0.6-0.3v-2.1
							c1.4-0.3,2.4-1.6,2.4-3.1c0-0.2,0-0.3,0-0.5l14.5-6.2c0.4,0.5,1,1,1.8,1.1v3c0,0.4,0.4,0.8,0.8,0.8s0.8-0.3,0.8-0.8v-3
							c1.4-0.3,2.4-1.6,2.4-3.1c0-1.7-1.5-3.2-3.2-3.2c-1,0-2,0.5-2.6,1.2L29.7,6.7c0-0.2,0-0.3,0-0.5c0-1.7-1.5-3.2-3.2-3.2
							c-1.8,0-3.2,1.4-3.2,3.2c0,0.2,0,0.3,0,0.5L8.8,12.9c-0.6-0.7-1.5-1.2-2.6-1.2c-1.8,0-3.2,1.4-3.2,3.2c0,1.5,1,2.7,2.5,3.1
							v18.3C4,36.5,3,37.8,3,39.3c0,1.7,1.5,3.2,3.2,3.2c1.1,0,2-0.5,2.6-1.3l3.8,1.6c0.1,0,0.2,0.1,0.3,0.1c0.3,0,0.6-0.2,0.7-0.5
							c0.2-0.4,0-0.9-0.4-1l-3.8-1.6c0-0.1,0-0.3,0-0.4c0-0.3-0.1-0.7-0.2-1l2.2-1c0.4-0.2,0.6-0.7,0.4-1c-0.2-0.4-0.7-0.5-1.1-0.4
							L8.5,37c-0.4-0.4-0.9-0.6-1.4-0.8V17.9c0.7-0.2,1.3-0.6,1.7-1.1L23.3,23c0,0.2,0,0.3,0,0.5c0,1.5,1,2.7,2.4,3.1v2.1L25.1,29
							c-0.4,0.2-0.6,0.7-0.4,1c0.1,0.3,0.4,0.4,0.7,0.4c0.1,0,0.2,0,0.3,0v14.3c-0.7,0.2-1.3,0.6-1.7,1.1l-5.6-2.3
							c-0.4-0.2-0.9,0-1,0.4c-0.2,0.4,0,0.9,0.4,1l5.5,2.3c0,0.2,0,0.4,0,0.5c0,1.7,1.5,3.2,3.2,3.2c1.8,0,3.2-1.4,3.2-3.2
							c0-0.2,0-0.4,0-0.5l14.5-6.1c0.6,0.8,1.5,1.3,2.6,1.3c1.8,0,3.2-1.4,3.2-3.2C50,37.8,49,36.6,47.6,36.2z M46.8,13.3
							c0.9,0,1.6,0.7,1.6,1.6s-0.7,1.6-1.6,1.6c-0.9,0-1.6-0.7-1.6-1.6S45.9,13.3,46.8,13.3z M7.9,39.3c0,0.9-0.7,1.6-1.6,1.6
							s-1.6-0.7-1.6-1.6c0-0.9,0.7-1.6,1.6-1.6S7.9,38.4,7.9,39.3z M7.8,15.5C7.8,15.5,7.7,15.5,7.8,15.5
							C7.7,15.5,7.7,15.5,7.8,15.5c-0.3,0.6-0.9,1-1.5,1c-0.9,0-1.6-0.7-1.6-1.6s0.7-1.6,1.6-1.6s1.6,0.7,1.6,1.6
							C7.9,15.1,7.8,15.3,7.8,15.5z M26.5,4.6c0.9,0,1.6,0.7,1.6,1.6c0,0.9-0.7,1.6-1.6,1.6c-0.9,0-1.6-0.7-1.6-1.6
							C24.9,5.3,25.6,4.6,26.5,4.6z M24,21.6L9.4,15.4c0-0.2,0-0.3,0-0.5s0-0.3,0-0.5L24,8.1c0.4,0.5,1,1,1.8,1.1v2.4
							c0,0.4,0.4,0.8,0.8,0.8s0.8-0.3,0.8-0.8V9.2c0.7-0.2,1.3-0.6,1.8-1.1l14.5,6.2c0,0.2,0,0.3,0,0.5c0,0.2,0,0.3,0,0.5l-14.5,6.2
							c-0.5-0.6-1.2-1.1-2.1-1.2c-0.1-0.1-0.3-0.1-0.5-0.1s-0.3,0.1-0.5,0.1C25.2,20.5,24.5,21,24,21.6z M24.9,23.6
							c0-0.9,0.7-1.6,1.6-1.6c0.9,0,1.6,0.7,1.6,1.6c0,0.9-0.7,1.6-1.6,1.6C25.6,25.2,24.9,24.4,24.9,23.6z M26.5,49.4
							c-0.9,0-1.6-0.7-1.6-1.6c0-0.9,0.7-1.6,1.6-1.6c0.9,0,1.6,0.7,1.6,1.6C28.2,48.7,27.4,49.4,26.5,49.4z M46.8,40.9
							c-0.7,0-1.2-0.4-1.5-0.9c0,0,0-0.1,0-0.1c0,0,0,0,0,0c-0.1-0.2-0.1-0.4-0.1-0.6c0-0.3,0.1-0.6,0.2-0.8
							c0.1-0.1,0.1-0.1,0.1-0.2c0,0,0,0,0,0c0.3-0.4,0.8-0.6,1.3-0.6h0c0.9,0,1.6,0.7,1.6,1.6C48.4,40.2,47.7,40.9,46.8,40.9z"/>
						<path class="st0" d="M23.9,30.4c-0.2-0.4-0.8-0.6-1.2-0.4l-3.2,1.4c-0.4,0.2-0.6,0.7-0.4,1.1c0.2,0.3,0.5,0.4,0.8,0.4
							c0.1,0,0.3,0,0.4-0.1l3.2-1.4C23.9,31.3,24.1,30.8,23.9,30.4z"/>
						<path class="st0" d="M18.9,33.4c-0.2-0.4-0.8-0.6-1.2-0.4l-3.2,1.4c-0.4,0.2-0.6,0.7-0.4,1.1c0.2,0.3,0.5,0.4,0.8,0.4
							c0.1,0,0.3,0,0.4-0.1l3.2-1.4C18.9,34.3,19.1,33.8,18.9,33.4z"/>
						<path class="st0" d="M34.5,31.5l-3.2-1.4c-0.4-0.2-1,0-1.2,0.4c-0.2,0.4,0,0.9,0.4,1.1l3.2,1.4C33.8,33,34,33,34.1,33
							c0.3,0,0.6-0.2,0.8-0.4C35.1,32.2,34.9,31.7,34.5,31.5z"/>
						<path class="st0" d="M39.5,34.5l-3.2-1.4c-0.4-0.2-1,0-1.2,0.4c-0.2,0.4,0,0.9,0.4,1.1l3.2,1.4C38.8,36,39,36,39.1,36
							c0.3,0,0.6-0.2,0.8-0.4C40.1,35.2,39.9,34.7,39.5,34.5z"/>
					</g>
				</g>
			</g>
		</g>
	</g>
</g>
</svg>
