<?xml version="1.0" encoding="utf-8"?>
<!-- Generator: Adobe Illustrator 23.0.1, SVG Export Plug-In . SVG Version: 6.00 Build 0)  -->
<svg version="1.1" id="Layer_1" xmlns="http://www.w3.org/2000/svg" xmlns:xlink="http://www.w3.org/1999/xlink" x="0px" y="0px"
	 viewBox="0 0 46 46" style="enable-background:new 0 0 46 46;" xml:space="preserve">
<style type="text/css">
	.st0{fill:#766DF4;}
</style>
<g>
	<g id="Coworking-Space" transform="translate(-1125.000000, -4160.000000)">
		<g id="Benefits" transform="translate(346.000000, 3886.000000)">
			<g transform="translate(735.000000, 87.000000)">
				<g id="item" transform="translate(0.000000, 187.000000)">
					<g transform="translate(44.000000, 0.000000)">
						<path id="Shape" class="st0" d="M43.7,26.8h-2.3v-7.7c0-2.1-1.7-3.8-3.8-3.8H25.3c-2.1,0-3.8,1.7-3.8,3.8v7.7h-2.3
							c-1.3,0-2.3,1-2.3,2.3v7.7c0,2,1.6,3.7,3.6,3.8l-1.1,3.9h-7.2c-0.4-1.8-1.9-3.1-3.8-3.1H6.9V6.1c0-2.4,1.9-4.4,4.2-4.6
							s4.5,1.5,4.8,3.9l0,0.1C15,6,14.4,7,14.6,8.1l0.2,1.2l-2,3.5c-0.3,0.5-0.3,1.1,0,1.5c0.3,0.5,0.8,0.8,1.3,0.8
							c0.1,0,0.2,0,0.3,0l7.4-1.2c0.6-0.1,1.1-0.5,1.2-1.1c0.2-0.6,0-1.2-0.5-1.6l-3.1-2.7l-0.2-1.2c-0.1-0.9-0.8-1.6-1.6-1.8l0-0.2
							C17.1,2.1,14.2-0.2,11,0S5.4,2.9,5.4,6.1v35.3H3.8v-0.8c0-0.4-0.3-0.8-0.8-0.8c-0.4,0-0.8,0.3-0.8,0.8v1.1
							c-1.4,0.6-2.3,2-2.3,3.5C0,45.7,0.3,46,0.8,46h44.5c0.4,0,0.8-0.3,0.8-0.8c0-0.4-0.3-0.8-0.8-0.8h-1.7l-1.1-3.9
							c2-0.1,3.6-1.8,3.6-3.8v-7.7C46,27.9,45,26.8,43.7,26.8z M21.5,12.3l-7.4,1.2l2-3.4l2.3-0.4L21.5,12.3L21.5,12.3z M17.8,8.3
							l-1.5,0.3l-0.1-0.8c-0.1-0.4,0.2-0.8,0.6-0.9c0,0,0.1,0,0.1,0c0.4,0,0.7,0.3,0.8,0.6L17.8,8.3z M25.3,16.9h12.3
							c1.3,0,2.3,1,2.3,2.3V27c-0.9,0.3-1.5,1.2-1.5,2.2v1.6c-0.7-0.5-1.5-0.8-2.3-0.8h-2.7l1.8-1.8c0.3-0.3,0.3-0.8,0-1.1
							c-0.3-0.3-0.8-0.3-1.1,0l-1.8,1.8v-3.5c0-0.4-0.3-0.8-0.8-0.8s-0.8,0.3-0.8,0.8v3.5l-1.8-1.8c-0.3-0.3-0.8-0.3-1.1,0
							c-0.3,0.3-0.3,0.8,0,1.1l1.8,1.8h-2.7c-0.8,0-1.6,0.3-2.3,0.8v-1.6c0-1-0.6-1.8-1.5-2.2v-7.8C23,17.9,24,16.9,25.3,16.9
							L25.3,16.9z M36,31.4c1.3,0,2.3,1,2.3,2.3v0.8H24.5v-0.8c0-1.3,1-2.3,2.3-2.3H36z M37.1,40.6l2.2,3.8H23.6l2.2-3.8H37.1z
							 M38.3,39.1H24.5V36h13.8V39.1z M18.4,36.8v-7.7c0-0.4,0.3-0.8,0.8-0.8h3.1c0.4,0,0.8,0.3,0.8,0.8v10h-2.3
							C19.4,39.1,18.4,38.1,18.4,36.8L18.4,36.8z M1.7,44.5c0.3-0.9,1.2-1.5,2.2-1.5h4.6c1,0,1.8,0.6,2.2,1.5H1.7z M20.9,44.5
							l1.1-3.8H24l-2.2,3.8H20.9z M41.1,44.5l-2.2-3.8h1.9l1.1,3.8H41.1z M44.5,36.8c0,1.3-1,2.3-2.3,2.3h-2.3v-10
							c0-0.4,0.3-0.8,0.8-0.8h3.1c0.4,0,0.8,0.3,0.8,0.8V36.8z"/>
					</g>
				</g>
			</g>
		</g>
	</g>
</g>
</svg>
