<?xml version="1.0" encoding="utf-8"?>
<!-- Generator: Adobe Illustrator 23.0.1, SVG Export Plug-In . SVG Version: 6.00 Build 0)  -->
<svg version="1.1" id="Layer_1" xmlns="http://www.w3.org/2000/svg" xmlns:xlink="http://www.w3.org/1999/xlink" x="0px" y="0px"
	 viewBox="0 0 46 46" style="enable-background:new 0 0 46 46;" xml:space="preserve">
<style type="text/css">
	.st0{fill:#766DF4;}
</style>
<g>
	<g id="Coworking-Space" transform="translate(-1506.000000, -4164.000000)">
		<g id="Benefits" transform="translate(346.000000, 3886.000000)">
			<g transform="translate(735.000000, 87.000000)">
				<g id="item" transform="translate(392.000000, 191.000000)">
					<g transform="translate(33.000000, 0.000000)">
						<path id="Path" class="st0" d="M26.1,21.6c0.1,0.2,0.3,0.4,0.6,0.4c0.1,0,0.2,0,0.3-0.1c0,0,3.8-2,5.6-2.6
							c0.3-0.1,0.5-0.5,0.4-0.8c-0.1-0.4-0.5-0.5-0.8-0.4c-1.9,0.6-5.7,2.6-5.8,2.7C26,20.9,25.9,21.3,26.1,21.6z"/>
						<path class="st0" d="M26.6,15c0.1,0,0.2,0,0.3-0.1c0,0,3.8-2,5.6-2.6c0.3-0.1,0.5-0.5,0.4-0.8c-0.1-0.4-0.5-0.5-0.8-0.4
							c-1.9,0.6-5.7,2.6-5.8,2.7c-0.3,0.2-0.4,0.6-0.3,0.9C26.2,14.9,26.4,15,26.6,15z"/>
						<path class="st0" d="M41.4,13.3c-0.4,0-0.6,0.3-0.6,0.6v24c0,1-0.9,1.8-1.9,1.8H23.6v-1.4c0.9-0.3,3.3-1,5.7-1
							c5.5,0,9.3,1.2,9.3,1.2c0.2,0.1,0.4,0,0.6-0.1c0.2-0.1,0.3-0.3,0.3-0.5V10.8c0-0.3-0.2-0.5-0.5-0.6c0,0-0.5-0.1-1.3-0.3
							c-0.3-0.1-0.7,0.2-0.7,0.5c-0.1,0.3,0.2,0.7,0.5,0.7c0.3,0.1,0.6,0.1,0.8,0.1v25.8c-1.4-0.4-4.6-1-8.9-1
							c-2.8,0-5.5,0.9-6.3,1.2c-0.7-0.3-3-1.2-5.7-1.2c-4.4,0-8,0.7-9.5,1.1V11.3c1.3-0.3,5-1.1,9.5-1.1c2.3,0,4.3,0.7,5.1,1v24.3
							c0,0.2,0.1,0.4,0.3,0.5c0.2,0.1,0.4,0.1,0.6,0c0.1,0,6.3-3.7,11.9-5.5c0.3-0.1,0.4-0.3,0.4-0.6V4.6c0-0.2-0.1-0.4-0.3-0.5
							C35.2,4,35,4,34.8,4c-5.1,1.9-10.2,5-10.2,5c-0.3,0.2-0.4,0.6-0.2,0.8c0.2,0.3,0.6,0.4,0.9,0.2c0,0,4.5-2.7,9.2-4.6v23.9
							c-4.3,1.5-8.8,3.9-10.8,4.9V10.8c0-0.2-0.1-0.4-0.4-0.6c-0.1-0.1-2.7-1.3-6-1.3c-5.7,0-10.1,1.2-10.3,1.3
							c-0.3,0.1-0.5,0.3-0.5,0.6v27.1c0,0.2,0.1,0.4,0.3,0.5c0.1,0.1,0.2,0.1,0.4,0.1c0.1,0,0.1,0,0.2,0c0,0,4.4-1.2,10-1.2
							c2.3,0,4.3,0.7,5.1,1v1.4H7.2c-1,0-1.9-0.8-1.9-1.8v-24c0-0.3-0.3-0.6-0.6-0.6S4,13.5,4,13.9v24C4,39.6,5.4,41,7.2,41h31.7
							c1.7,0,3.2-1.4,3.2-3.1v-24C42,13.5,41.7,13.3,41.4,13.3z"/>
						<path class="st0" d="M26.1,17.6c0.1,0.2,0.3,0.4,0.6,0.4c0.1,0,0.2,0,0.3-0.1c0,0,3.8-2,5.6-2.6c0.3-0.1,0.5-0.5,0.4-0.8
							c-0.1-0.4-0.5-0.5-0.8-0.4c-1.9,0.6-5.7,2.6-5.8,2.7C26,16.9,25.9,17.3,26.1,17.6z"/>
						<path class="st0" d="M26.1,24.6c0.1,0.2,0.3,0.4,0.6,0.4c0.1,0,0.2,0,0.3-0.1c0,0,3.8-2,5.6-2.6c0.3-0.1,0.5-0.5,0.4-0.8
							c-0.1-0.4-0.5-0.5-0.8-0.4c-1.9,0.6-5.7,2.6-5.8,2.7C26,23.9,25.9,24.3,26.1,24.6z"/>
						<path class="st0" d="M19.5,15.4c-3.7-1-7.9,0.3-8.1,0.3c-0.3,0.1-0.5,0.5-0.4,0.8c0.1,0.3,0.3,0.5,0.6,0.5c0.1,0,0.1,0,0.2,0
							c0,0,4.1-1.2,7.5-0.3c0.3,0.1,0.6-0.1,0.7-0.5C20.1,15.8,19.9,15.5,19.5,15.4z"/>
						<path class="st0" d="M19.5,18.4c-3.7-1-7.9,0.3-8.1,0.3c-0.3,0.1-0.5,0.5-0.4,0.8c0.1,0.3,0.3,0.5,0.6,0.5c0.1,0,0.1,0,0.2,0
							c0,0,4.1-1.2,7.5-0.3c0.3,0.1,0.6-0.1,0.7-0.5C20.1,18.8,19.9,18.5,19.5,18.4z"/>
						<path class="st0" d="M26.1,28.6c0.1,0.2,0.3,0.4,0.6,0.4c0.1,0,0.2,0,0.3-0.1c0,0,3.8-2,5.6-2.6c0.3-0.1,0.5-0.5,0.4-0.8
							c-0.1-0.4-0.5-0.5-0.8-0.4c-1.9,0.6-5.7,2.6-5.8,2.7C26,27.9,25.9,28.3,26.1,28.6z"/>
						<path class="st0" d="M19.5,22.4c-3.7-1-7.9,0.3-8.1,0.3c-0.3,0.1-0.5,0.5-0.4,0.8c0.1,0.3,0.3,0.5,0.6,0.5c0.1,0,0.1,0,0.2,0
							c0,0,4.1-1.2,7.5-0.3c0.3,0.1,0.6-0.1,0.7-0.5C20.1,22.8,19.9,22.5,19.5,22.4z"/>
						<path class="st0" d="M19.5,30.4c-3.7-1-7.9,0.3-8.1,0.3c-0.3,0.1-0.5,0.5-0.4,0.8c0.1,0.3,0.3,0.5,0.6,0.5c0.1,0,0.1,0,0.2,0
							c0,0,4.1-1.2,7.5-0.3c0.3,0.1,0.6-0.1,0.7-0.5C20.1,30.8,19.9,30.5,19.5,30.4z"/>
						<path class="st0" d="M19.5,27.4c-3.7-1-7.9,0.3-8.1,0.3c-0.3,0.1-0.5,0.5-0.4,0.8c0.1,0.3,0.3,0.5,0.6,0.5c0.1,0,0.1,0,0.2,0
							c0,0,4.1-1.2,7.5-0.3c0.3,0.1,0.6-0.1,0.7-0.5C20.1,27.8,19.9,27.5,19.5,27.4z"/>
					</g>
				</g>
			</g>
		</g>
	</g>
</g>
</svg>
