<?xml version="1.0" encoding="utf-8"?>
<!-- Generator: Adobe Illustrator 23.0.1, SVG Export Plug-In . SVG Version: 6.00 Build 0)  -->
<svg version="1.1" id="Layer_1" xmlns="http://www.w3.org/2000/svg" xmlns:xlink="http://www.w3.org/1999/xlink" x="0px" y="0px"
	 viewBox="0 0 54 54" style="enable-background:new 0 0 54 54;" xml:space="preserve">
<style type="text/css">
	.st0{fill:#9E9FB4;}
</style>
<g>
	<g id="Coworking-Space_1_" transform="translate(-1443.000000, -976.000000)">
		<g id="About_1_" transform="translate(378.000000, 796.000000)">
			<g id="features_1_" transform="translate(0.000000, 180.000000)">
				<g id="feature_1_" transform="translate(1034.000000, 0.000000)">
					<g transform="translate(31.000000, 0.000000)">
						<path id="Shape_1_" class="st0" d="M39,42.9v-9.1c0-1.4-1.1-2.5-2.5-2.5h-0.4c-0.4,0-0.8-0.2-0.8-0.6l-2.9-10.1v-0.1
							C31.6,19,30.1,18,28.4,18H12.6c-1.7,0-3.2,1-3.9,2.5v0.1L5.8,30.7c-0.2,0.3-0.5,0.6-0.8,0.6H4.5c-1.4,0-2.5,1.1-2.5,2.5v9.1
							c0,1.4,1.1,2.5,2.5,2.5v4.1C4.5,50.9,5.6,52,7,52h1.7c1.4,0,2.5-1.1,2.5-2.5v-4.1h18.5v4.1c0,1.4,1.1,2.5,2.5,2.5H34
							c1.4,0,2.5-1.1,2.5-2.5v-4.1C37.9,45.4,39,44.3,39,42.9z M9.6,49.5c0,0.5-0.3,0.8-0.8,0.8H7c-0.5,0-0.8-0.3-0.8-0.8v-4.1h3.4
							L9.6,49.5L9.6,49.5z M34.8,49.5c0,0.5-0.3,0.8-0.8,0.8h-1.7c-0.5,0-0.8-0.3-0.8-0.8v-4.1h3.4L34.8,49.5L34.8,49.5z M37.3,42.9
							c0,0.5-0.3,0.8-0.8,0.8h-0.8h-5H10.4h-5H4.5c-0.5,0-0.8-0.3-0.8-0.8v-9.1c0-0.5,0.3-0.8,0.8-0.8h0.4c1.1,0,2.1-0.7,2.4-1.8
							l2.9-10c0.4-0.8,1.3-1.4,2.3-1.4h15.8c0.9,0,1.9,0.5,2.3,1.4l2.9,10c0.3,1.1,1.3,1.8,2.4,1.8h0.4c0.5,0,0.8,0.3,0.8,0.8
							L37.3,42.9L37.3,42.9z"/>
						<path class="st0" d="M10,35c-1.7,0-3,1.3-3,3s1.3,3,3,3s3-1.3,3-3S11.7,35,10,35z M10,39.5c-0.8,0-1.5-0.7-1.5-1.5
							s0.7-1.5,1.5-1.5c0.8,0,1.5,0.7,1.5,1.5S10.8,39.5,10,39.5z"/>
						<path class="st0" d="M31,35c-1.7,0-3,1.3-3,3s1.3,3,3,3c1.7,0,3-1.3,3-3S32.6,35,31,35z M31,39.5c-0.8,0-1.5-0.7-1.5-1.5
							s0.7-1.5,1.5-1.5s1.5,0.7,1.5,1.5S31.8,39.5,31,39.5z"/>
						<path id="Path_1_" class="st0" d="M22.2,39h-3.3c-0.5,0-0.8,0.4-0.8,1s0.3,1,0.8,1h3.3c0.5,0,0.8-0.4,0.8-1
							C23,39.4,22.7,39,22.2,39z"/>
						<path class="st0" d="M24.2,34h-6.4c-0.5,0-0.8,0.4-0.8,1s0.3,1,0.8,1h6.4c0.5,0,0.8-0.4,0.8-1C25,34.4,24.7,34,24.2,34z"/>
						<path class="st0" d="M12.6,31h15.7c0.5,0,1-0.2,1.3-0.7c0.3-0.4,0.4-1,0.2-1.5l-2-6.7c-0.2-0.7-0.8-1.2-1.5-1.2H14.6
							c-0.7,0-1.3,0.4-1.5,1.2l-2,6.7c-0.2,0.5-0.1,1.1,0.2,1.5C11.7,30.7,12.1,31,12.6,31z M14.6,22.7h11.8l2,6.7H12.6L14.6,22.7z"
							/>
						<path class="st0" d="M51.2,2H37.8C37.3,2,37,2.3,37,2.8V17c0,0.5,0.3,0.8,0.8,0.8h5.5v25.8h-1.6c-0.5,0-0.8,0.3-0.8,0.8V47
							h-1.6c-0.5,0-0.8,0.3-0.8,0.8v3.3c0,0.5,0.3,0.8,0.8,0.8h9.5c0.5,0,0.8-0.3,0.8-0.8v-3.3c0-0.5-0.3-0.8-0.8-0.8h-1.6v-2.5
							c0-0.5-0.3-0.8-0.8-0.8h-1.6V17.8h6.3c0.5,0,0.8-0.3,0.8-0.8V2.8C52,2.3,51.7,2,51.2,2z M48.1,50.3h-7.9v-1.7h1.6h4.7h1.6
							L48.1,50.3L48.1,50.3z M45.7,47h-3.2v-1.7h3.2V47z M50.4,16.2H38.6V3.7h11.8V16.2z"/>
						<path class="st0" d="M42.7,13c0.4,0,0.7-0.3,0.7-0.7v-1.5h0.7c1.6,0,2.9-1.3,2.9-2.9S45.7,5,44.1,5h-1.4C42.3,5,42,5.3,42,5.7
							v4.4v2.2C42,12.7,42.3,13,42.7,13z M45.6,7.9c0,0.8-0.6,1.5-1.4,1.5h-0.7V6.5h0.7C44.9,6.5,45.6,7.1,45.6,7.9z"/>
					</g>
				</g>
			</g>
		</g>
	</g>
</g>
</svg>
