<?xml version="1.0" encoding="utf-8"?>
<!-- Generator: Adobe Illustrator 23.0.1, SVG Export Plug-In . SVG Version: 6.00 Build 0)  -->
<svg version="1.1" id="Layer_1" xmlns="http://www.w3.org/2000/svg" xmlns:xlink="http://www.w3.org/1999/xlink" x="0px" y="0px"
	 viewBox="0 0 46 46" style="enable-background:new 0 0 46 46;" xml:space="preserve">
<style type="text/css">
	.st0{fill:#766DF4;}
</style>
<g>
	<g id="Coworking-Space" transform="translate(-1318.000000, -4165.000000)">
		<g id="Benefits" transform="translate(346.000000, 3886.000000)">
			<g transform="translate(735.000000, 87.000000)">
				<g id="item" transform="translate(202.000000, 192.000000)">
					<g transform="translate(35.000000, 0.000000)">
						<path id="Shape" class="st0" d="M42.6,30.8V13.6c0-0.6-0.3-1.1-0.7-1.5v-8C42,2.9,41,2,39.9,2c-1.1,0-2.1,0.9-2.1,2.1v8
							c-0.4,0.4-0.7,0.9-0.7,1.5v17.1H5.1c-1.1,0-2.1,0.9-2.1,2V41c0,1.1,0.9,2,2.1,2H42c1.1,0,2-0.9,2-2v-8.2
							C44,31.9,43.4,31.1,42.6,30.8z M38.5,13.6c0-0.2,0.1-0.5,0.3-0.6c0.2-0.1,0.3-0.3,0.3-0.6V4.1c0-0.4,0.3-0.7,0.7-0.7
							c0.4,0,0.7,0.3,0.7,0.7v8.4c0,0.2,0.1,0.5,0.3,0.6c0.2,0.1,0.3,0.3,0.3,0.6v17.1h-2.7V13.6z M42.6,41c0,0.4-0.3,0.7-0.7,0.7
							H5.1c-0.4,0-0.7-0.3-0.7-0.7v-8.2c0-0.4,0.3-0.7,0.7-0.7H42c0.4,0,0.7,0.3,0.7,0.7V41z"/>
						<path class="st0" d="M40.3,33H5.7C5.3,33,5,33.3,5,33.7v5.6C5,39.7,5.3,40,5.7,40h34.6c0.4,0,0.7-0.3,0.7-0.7v-5.6
							C41,33.3,40.7,33,40.3,33z M39.6,38.6H6.4v-4.2h33.2V38.6z"/>
						<rect id="Rectangle" x="8" y="37" class="st0" width="3" height="1"/>
						<path id="Path" class="st0" d="M35,21l1-1.1c-7.2-7.9-18.8-7.9-26,0l1,1.1C17.6,13.7,28.4,13.7,35,21z"/>
						<path class="st0" d="M34,21.1c-6.1-5.5-15.9-5.5-22,0l1,0.9c5.6-5,14.5-5,20.1,0L34,21.1z"/>
						<path class="st0" d="M32,23c-5-5.3-13-5.3-18,0l0.9,1c4.5-4.8,11.7-4.8,16.1,0L32,23z"/>
						<path class="st0" d="M16,26l0.9,1c3.4-3.5,8.8-3.5,12.1,0l0.9-1C26.1,22,19.9,22,16,26z"/>
					</g>
				</g>
			</g>
		</g>
	</g>
</g>
</svg>
