<?xml version="1.0" encoding="utf-8"?>
<!-- Generator: Adobe Illustrator 23.0.1, SVG Export Plug-In . SVG Version: 6.00 Build 0)  -->
<svg version="1.1" id="Layer_1" xmlns="http://www.w3.org/2000/svg" xmlns:xlink="http://www.w3.org/1999/xlink" x="0px" y="0px"
	 viewBox="0 0 46 46" style="enable-background:new 0 0 46 46;" xml:space="preserve">
<style type="text/css">
	.st0{fill:#766DF4;}
</style>
<g>
	<g id="Coworking-Space" transform="translate(-1320.000000, -3975.000000)">
		<g id="Benefits" transform="translate(346.000000, 3886.000000)">
			<g transform="translate(735.000000, 87.000000)">
				<g id="item" transform="translate(205.000000, 2.000000)">
					<g transform="translate(34.000000, 0.000000)">
						<path id="Shape" class="st0" d="M40.1,9.7h-1.2V8.4c0-1-0.8-1.9-1.8-1.9h-1.5l-0.9-1.8C34.5,4.3,34.1,4,33.6,4h-0.9
							c-0.7,0-1.2,0.6-1.2,1.3v1.3h-6.8c-1,0-1.8,0.9-1.8,1.9v1.3h-1.2c-1,0-1.8,0.9-1.8,1.9v1.3c0,0.7,0.6,1.3,1.2,1.3h0.1l0.7,6.5
							l-3-0.7c-0.1-0.2-0.3-0.5-0.5-0.7l-1-4.6c-0.1-0.3-0.3-0.5-0.6-0.5h-3.5c-1.7-1.5-3.6-2.2-5.1-1.7l-0.9-1
							c-0.3-0.4-0.9-0.5-1.3-0.3C5.3,11.2,5,11.7,5,12.2v27.9c0,1,0.8,1.9,1.8,1.9h30.2c0.3,0,0.6-0.2,0.6-0.6l3-27.3h0.1
							c0.7,0,1.2-0.6,1.2-1.3v-1.3C42,10.6,41.2,9.7,40.1,9.7z M32.7,5.3h0.9l0.6,1.3h-1.5V5.3z M24.1,8.4c0-0.3,0.3-0.6,0.6-0.6
							h12.3c0.3,0,0.6,0.3,0.6,0.6v1.3H24.1V8.4z M22.4,22.1L22.4,22.1l0.5,0.1l0.3,3.6c-1-0.7-2.1-1.1-3.3-1.1
							c0.2-1.1,0.1-2.3-0.3-3.3L22.4,22.1z M23.6,27.7L23.6,27.7c0.2,0.2,0.4,0.4,0.6,0.7c0.7,0.8,1.3,1.8,1.6,2.9
							c0.1,0.4,0.2,0.8,0.2,1.2L20.2,26C21.5,26.2,22.7,26.8,23.6,27.7z M17.1,19.7L17.1,19.7c1.3,1.6,2,3.5,1.7,4.7l-6.3-7
							C13.7,17.1,15.7,18,17.1,19.7z M16.2,15.4l0.5,2.2c-0.5-0.4-1-0.7-1.6-1c-0.2-0.4-0.5-0.8-0.8-1.2H16.2z M13.1,15.9L13.1,15.9
							c0.1,0.1,0.1,0.1,0.1,0.2c-0.6-0.1-1.2,0-1.7,0.3L9,13.5C10.3,13.5,11.9,14.4,13.1,15.9z M30.8,40.4c-0.1,0.2-0.3,0.4-0.6,0.4
							h-5.6H6.8c-0.3,0-0.6-0.3-0.6-0.6l0-27.9l12.4,13.9v0l7.3,8.1l0,0l4,4.5c0,0,0,0,0,0.1l0.8,0.9C30.9,39.9,30.9,40.1,30.8,40.4
							z M27,33.7c0.1-0.4,0.2-0.8,0.2-1.2c0.3,0.3,0.6,0.6,0.9,0.9c0.3,0.4,0.7,0.8,0.9,1.3c0.4,0.6,0.6,1.3,0.8,2L27,33.7z
							 M36.5,40.7H32c0.2-0.7,0.1-1.4-0.4-1.9L31,38.1c0.1-1.1,0-2.1-0.5-3.1h6.6L36.5,40.7z M37.3,33.8h-7.4
							c-0.3-0.4-0.5-0.8-0.8-1.2c-0.6-0.7-1.3-1.3-2.1-1.8c-0.4-1.2-1-2.3-1.8-3.2c-0.2-0.2-0.4-0.4-0.6-0.6l-0.5-5.3
							c0-0.3-0.2-0.5-0.5-0.6L23.1,21L23,19.8h15.9L37.3,33.8z M39,18.6H22.8l-0.5-4.4h17.1L39,18.6z M40.8,12.9H21v-1.3
							c0-0.3,0.3-0.6,0.6-0.6h18.5c0.3,0,0.6,0.3,0.6,0.6V12.9z"/>
						<path class="st0" d="M30.7,31C30.8,31,30.8,31,30.7,31c0.1,0,0.1,0,0.1,0c0,0,0.1,0,0.1,0c0.9-0.1,1.8-0.6,2.3-1.3
							c0.7-1.1,0.9-2.5,0.6-3.8c-0.1-0.3-0.2-0.6-0.2-0.9c-0.5-2-0.9-3.8-2.7-3.9c0,0,0,0-0.1,0c0,0,0,0-0.1,0c-2.1,0-3.7,2.2-3.7,5
							S28.7,31,30.7,31z M31.2,22.3c0.6,0.3,0.9,1.1,1.3,2.8c0.1,0.3,0.1,0.6,0.2,1c0.3,0.9,0.1,1.9-0.4,2.7
							c-0.2,0.3-0.4,0.5-0.7,0.6c0-1.1-0.2-2.1-0.6-3.1c-0.1-0.2-0.1-0.4-0.2-0.6C30.5,24.6,30.9,23.1,31.2,22.3z M29.9,22.4
							c-0.4,1.2-0.4,2.5-0.2,3.7c0.1,0.2,0.1,0.4,0.2,0.6c0.3,1,0.6,2.1,0.5,3c-1.3-0.2-2.3-1.8-2.3-3.7
							C28.2,24.3,28.9,22.9,29.9,22.4z"/>
						<path id="Path" class="st0" d="M8.4,38.1l-0.3,0.3C8,38.5,8,38.6,8,38.7C8,38.9,8.1,39,8.3,39c0.1,0,0.3,0,0.4-0.1l0.3-0.3
							c0.1-0.1,0.1-0.4,0-0.5C8.7,38,8.5,38,8.4,38.1z"/>
						<path class="st0" d="M13.9,33.6c0.1-0.1,0.1-0.4,0-0.5c-0.1-0.1-0.4-0.1-0.5,0l-0.3,0.3C13,33.5,13,33.6,13,33.7
							c0,0.1,0.1,0.2,0.3,0.3c0.1,0,0.3,0,0.4-0.1L13.9,33.6z"/>
						<path class="st0" d="M8.4,32.1l-0.3,0.3C8,32.5,8,32.6,8,32.7C8,32.9,8.1,33,8.3,33c0.1,0,0.3,0,0.4-0.1l0.3-0.3
							c0.1-0.1,0.1-0.4,0-0.5C8.7,32,8.5,32,8.4,32.1z"/>
						<path class="st0" d="M8.4,27.1l-0.3,0.3C8,27.5,8,27.6,8,27.7C8,27.9,8.1,28,8.3,28c0.1,0,0.3,0,0.4-0.1l0.3-0.3
							c0.1-0.1,0.1-0.4,0-0.5C8.7,27,8.5,27,8.4,27.1z"/>
						<path class="st0" d="M14.4,38.1l-0.3,0.3C14,38.5,14,38.6,14,38.7c0,0.1,0.1,0.2,0.3,0.3c0.1,0,0.3,0,0.4-0.1l0.3-0.3
							c0.1-0.1,0.1-0.4,0-0.5C14.7,38,14.5,38,14.4,38.1z"/>
						<path class="st0" d="M19.4,38.1l-0.3,0.3C19,38.5,19,38.6,19,38.7s0.1,0.2,0.3,0.3c0.1,0,0.3,0,0.4-0.1l0.3-0.3
							c0.1-0.1,0.1-0.4,0-0.5C19.7,38,19.5,38,19.4,38.1z"/>
					</g>
				</g>
			</g>
		</g>
	</g>
</g>
</svg>
