<?xml version="1.0" encoding="utf-8"?>
<!-- Generator: Adobe Illustrator 23.0.1, SVG Export Plug-In . SVG Version: 6.00 Build 0)  -->
<svg version="1.1" id="Layer_1" xmlns="http://www.w3.org/2000/svg" xmlns:xlink="http://www.w3.org/1999/xlink" x="0px" y="0px"
	 viewBox="0 0 54 54" style="enable-background:new 0 0 54 54;" xml:space="preserve">
<style type="text/css">
	.st0{fill:#9E9FB4;}
</style>
<g>
	<g id="Coworking-Space" transform="translate(-677.000000, -977.000000)">
		<g id="About" transform="translate(378.000000, 796.000000)">
			<g id="features" transform="translate(0.000000, 180.000000)">
				<g id="feature" transform="translate(265.000000, 1.000000)">
					<g transform="translate(34.000000, 0.000000)">
						<path id="Shape" class="st0" d="M48.2,24.1c0.4,0,0.8-0.4,0.8-0.9V2.8C49,2.4,48.6,2,48.2,2c-3.5,0-8.9,2.9-8.9,6.8v0.8h-17
							c-2.2,0-4.1,1.9-4.1,4.2V18c-0.8,0.8-1.4,1.8-1.6,2.9c-4.9,0.8-8.6,5-9,10.2c-1.1,0.4-1.8,1.6-1.6,2.8C6.2,35.1,7.2,36,8.4,36
							h24.3c1.2,0,2.2-0.9,2.4-2.1c0.2-1.2-0.5-2.4-1.6-2.8c-0.3-5.2-4.1-9.4-9-10.2c-0.2-1.1-0.7-2.1-1.6-2.9v-3.2h16.2v2.5
							C39.3,21.2,44.7,24.1,48.2,24.1z M40.9,8.8c0-2.5,3.7-4.7,6.5-5v18.6c-2.7-0.4-6.5-2.6-6.5-5V8.8z M22.9,20.7h-4.6
							c0.3-0.9,0.9-1.7,1.5-1.7h1.6C22,19,22.6,19.8,22.9,20.7z M32.8,34.3H8.4c-0.4,0-0.8-0.4-0.8-0.9c0-0.5,0.4-0.8,0.8-0.8h24.3
							c0.4,0,0.8,0.4,0.8,0.8C33.6,33.9,33.2,34.3,32.8,34.3z M31.9,30.9H9.3c0.4-4.8,4.3-8.5,8.9-8.5H23
							C27.7,22.4,31.5,26.1,31.9,30.9z M22.2,13c-0.4,0-0.8,0.4-0.8,0.8v3.4h-1.6v-3.4c0-1.4,1.1-2.5,2.4-2.5h17V13H22.2z"/>
						<path id="Path" class="st0" d="M10,37.7c0-0.4-0.4-0.7-1-0.7s-1,0.3-1,0.7v0.7C8,38.7,8.4,39,9,39s1-0.3,1-0.7V37.7z"/>
						<path class="st0" d="M14,37.8c0-0.4-0.4-0.8-1-0.8s-1,0.3-1,0.8v4.5c0,0.4,0.4,0.8,1,0.8s1-0.3,1-0.8V37.8z"/>
						<path class="st0" d="M17,37.7c0-0.4-0.4-0.7-1-0.7s-1,0.3-1,0.7v0.7c0,0.4,0.4,0.7,1,0.7s1-0.3,1-0.7V37.7z"/>
						<path class="st0" d="M20,37.8c0-0.4-0.4-0.8-1-0.8s-1,0.3-1,0.8v4.5c0,0.4,0.4,0.8,1,0.8s1-0.3,1-0.8V37.8z"/>
						<path class="st0" d="M23,37.7c0-0.4-0.4-0.7-1-0.7s-1,0.3-1,0.7v0.7c0,0.4,0.4,0.7,1,0.7s1-0.3,1-0.7V37.7z"/>
						<path class="st0" d="M27,37.8c0-0.4-0.4-0.8-1-0.8s-1,0.3-1,0.8v4.5c0,0.4,0.4,0.8,1,0.8s1-0.3,1-0.8V37.8z"/>
						<path class="st0" d="M30,37.7c0-0.4-0.4-0.7-1-0.7s-1,0.3-1,0.7v0.7c0,0.4,0.4,0.7,1,0.7s1-0.3,1-0.7V37.7z"/>
						<path class="st0" d="M13,45c-0.6,0-1,0.4-1,0.8v2.4c0,0.4,0.4,0.8,1,0.8s1-0.4,1-0.8v-2.4C14,45.4,13.6,45,13,45z"/>
						<path class="st0" d="M19,45c-0.6,0-1,0.4-1,0.8v2.4c0,0.4,0.4,0.8,1,0.8s1-0.4,1-0.8v-2.4C20,45.4,19.6,45,19,45z"/>
						<path class="st0" d="M26,45c-0.6,0-1,0.4-1,0.8v2.4c0,0.4,0.4,0.8,1,0.8s1-0.4,1-0.8v-2.4C27,45.4,26.6,45,26,45z"/>
						<path class="st0" d="M32,45c-0.6,0-1,0.4-1,0.8v2.4c0,0.4,0.4,0.8,1,0.8s1-0.4,1-0.8v-2.4C33,45.4,32.6,45,32,45z"/>
						<path class="st0" d="M33,37.8c0-0.4-0.4-0.8-1-0.8s-1,0.3-1,0.8v4.5c0,0.4,0.4,0.8,1,0.8s1-0.3,1-0.8V37.8z"/>
						<path class="st0" d="M10,40.8c0-0.4-0.4-0.8-1-0.8s-1,0.3-1,0.8v4.5C8,45.7,8.4,46,9,46s1-0.3,1-0.8V40.8z"/>
						<path class="st0" d="M17,40.8c0-0.4-0.4-0.8-1-0.8s-1,0.3-1,0.8v4.5c0,0.4,0.4,0.8,1,0.8s1-0.3,1-0.8V40.8z"/>
						<path class="st0" d="M23,40.8c0-0.4-0.4-0.8-1-0.8s-1,0.3-1,0.8v4.5c0,0.4,0.4,0.8,1,0.8s1-0.3,1-0.8V40.8z"/>
						<path class="st0" d="M30,40.8c0-0.4-0.4-0.8-1-0.8s-1,0.3-1,0.8v4.5c0,0.4,0.4,0.8,1,0.8s1-0.3,1-0.8V40.8z"/>
						<path class="st0" d="M9.4,49.1C9.2,49,9,49,8.8,49c-0.1,0-0.1,0-0.2,0c-0.1,0-0.1,0.1-0.2,0.1c-0.1,0-0.1,0.1-0.1,0.1
							c-0.1,0.1-0.2,0.2-0.2,0.3C8,49.7,8,49.9,8,50c0,0.4,0.2,0.8,0.6,0.9C9,51.1,9.4,51,9.7,50.7c0.3-0.3,0.4-0.7,0.2-1.1
							c0-0.1-0.1-0.2-0.2-0.3C9.6,49.2,9.5,49.1,9.4,49.1z"/>
						<path class="st0" d="M15.3,49.3c-0.1,0.1-0.2,0.2-0.2,0.3c-0.2,0.4-0.1,0.8,0.2,1.1c0.1,0.1,0.2,0.2,0.3,0.2
							c0.4,0.2,0.8,0.1,1.1-0.2c0.3-0.3,0.4-0.7,0.2-1.1c-0.1-0.1-0.1-0.2-0.2-0.3C16.3,48.9,15.7,48.9,15.3,49.3z"/>
						<path class="st0" d="M22.5,49.2c-0.1,0-0.1-0.1-0.2-0.1c-0.1,0-0.1,0-0.2,0c-0.2,0-0.4,0-0.6,0c-0.1,0.1-0.2,0.1-0.3,0.2
							c-0.1,0.1-0.2,0.2-0.2,0.3c-0.2,0.4-0.1,0.8,0.2,1.1c0.1,0.1,0.2,0.2,0.3,0.2c0.4,0.2,0.8,0.1,1.1-0.2
							c0.3-0.3,0.4-0.7,0.2-1.1c-0.1-0.1-0.1-0.2-0.2-0.3C22.7,49.2,22.6,49.2,22.5,49.2z"/>
						<path class="st0" d="M28.3,49.3c-0.1,0.1-0.2,0.2-0.2,0.3C28,49.7,28,49.9,28,50c0,0.3,0.1,0.5,0.3,0.7
							c0.1,0.1,0.2,0.2,0.3,0.2c0.3,0.1,0.7,0.1,0.9-0.1c0.3-0.2,0.4-0.5,0.4-0.8c0-0.1,0-0.3-0.1-0.4c-0.1-0.1-0.1-0.2-0.2-0.3
							C29.3,48.9,28.7,48.9,28.3,49.3z"/>
					</g>
				</g>
			</g>
		</g>
	</g>
</g>
</svg>
