<?xml version="1.0" encoding="utf-8"?>
<!-- Generator: Adobe Illustrator 23.0.1, SVG Export Plug-In . SVG Version: 6.00 Build 0)  -->
<svg version="1.1" id="Layer_1" xmlns="http://www.w3.org/2000/svg" xmlns:xlink="http://www.w3.org/1999/xlink" x="0px" y="0px"
	 viewBox="0 0 46 46" style="enable-background:new 0 0 46 46;" xml:space="preserve">
<style type="text/css">
	.st0{fill:#766DF4;}
</style>
<g>
	<g id="Coworking-Space" transform="translate(-1505.000000, -3973.000000)">
		<g id="Benefits" transform="translate(346.000000, 3886.000000)">
			<g transform="translate(735.000000, 87.000000)">
				<g id="item" transform="translate(395.000000, 0.000000)">
					<g transform="translate(29.000000, 0.000000)">
						<path id="Shape" class="st0" d="M6.4,29.1C7.2,29.9,8,30.6,9,31.2L5,35.1c-0.4,0.4-0.6,0.9-0.6,1.4c0,0.5,0.2,1.1,0.6,1.5
							L7,40c0.4,0.4,0.9,0.6,1.4,0.6c0.5,0,1.1-0.2,1.5-0.6l6.5-6.5h0.1c0.2,0,0.3,0,0.5-0.1c0.1,0,0.1,0,0.1,0
							c3-1.2,5.4-1.5,7.5-0.9c0.7,0.2,1.3,0.5,2,0.9c0,0.3,0.2,0.6,0.4,0.8l8.2,8.2c0.8,0.8,2.1,0.8,2.9,0l1.9-1.9
							c0.4-0.4,0.6-0.9,0.6-1.4c0-0.5-0.2-1.1-0.6-1.4l-2.9-2.9l-4.4-4.4c0.4-0.1,0.7-0.2,1.1-0.4c3.6-1.5,6.6-4.4,8.1-8.1
							c0.7-1.7,1.1-3.6,1.1-5.5c0-1.9-0.3-3.7-1-5.5c-1.4-3.6-4.3-6.5-7.9-7.9c-1.7-0.7-3.6-1-5.5-1c-1.9,0-3.7,0.4-5.5,1.1
							C22,3.6,21,4.2,20,5c-1.2-0.3-2.4-0.5-3.6-0.5c-1.9,0-3.7,0.3-5.5,1C7.3,6.9,4.4,9.7,3,13.4c-0.7,1.7-1,3.6-1,5.5
							c0,1.9,0.4,3.7,1.1,5.5C3.9,26.1,5,27.7,6.4,29.1L6.4,29.1z M10.4,37.5l-1.5-1.5c-0.3-0.2-0.7-0.2-0.9,0
							c-0.3,0.3-0.3,0.7,0,0.9l1.5,1.5L8.9,39c-0.3,0.3-0.7,0.3-1,0L6,37.1c-0.1-0.1-0.2-0.3-0.2-0.5c0-0.2,0.1-0.4,0.2-0.5l2.4-2.4
							l1.5,1.5c0.3,0.3,0.7,0.3,1,0c0.3-0.3,0.3-0.7,0-1l-1.5-1.5l0.8-0.8c0.3,0.2,0.7,0.3,1,0.5c1.1,0.4,2.2,0.8,3.4,0.9L10.4,37.5
							z M19.3,31.2l9.5-9.5c-0.5,1.9-0.5,3.8,0,5.7c0.2,0.7,0.5,1.5,0.9,2.1l-2.6,2.6c-0.7-0.4-1.4-0.7-2.1-0.9
							C23.1,30.7,21.1,30.7,19.3,31.2L19.3,31.2z M39,39.5l-1.9,1.9c-0.3,0.3-0.7,0.3-1,0L35.6,41l1.4-1.4c0.2-0.2,0.2-0.4,0.2-0.7
							c-0.1-0.2-0.2-0.4-0.5-0.5c-0.2-0.1-0.5,0-0.7,0.2L34.6,40l-2.9-2.9l1.4-1.4c0.3-0.3,0.3-0.7,0-1c-0.3-0.3-0.7-0.3-1,0
							l-1.4,1.4l-2.9-2.9l2.9-2.9l1,1l-1.5,1.4c-0.2,0.2-0.2,0.4-0.2,0.7c0.1,0.2,0.2,0.4,0.5,0.5c0.2,0.1,0.5,0,0.7-0.2l1.4-1.5
							l2.9,2.9l-1.4,1.4C34,36.8,33.9,37,34,37.3c0.1,0.2,0.2,0.4,0.5,0.5c0.2,0.1,0.5,0,0.7-0.2l1.5-1.4l2.4,2.4
							c0.1,0.1,0.2,0.3,0.2,0.5C39.2,39.2,39.1,39.4,39,39.5L39,39.5z M23.7,4.4c1.6-0.7,3.3-1,5-1c1.7,0,3.4,0.3,4.9,0.9
							c3.3,1.3,5.8,3.9,7.1,7.1c0.6,1.6,0.9,3.2,0.9,4.9c0,1.7-0.4,3.4-1,5c-1.4,3.3-4,6-7.3,7.3c-0.6,0.2-1.1,0.4-1.7,0.6
							c-0.2-0.1-0.4-0.2-0.7-0.2c-0.4-0.6-0.7-1.3-0.9-2c-0.6-2.2-0.4-4.6,0.9-7.5c0,0,0-0.1,0-0.1C31,19.2,31,19,31,18.8
							c-0.1-1.8-0.4-3.5-1.1-5.2c-1.5-3.7-4.4-6.6-8.1-8.1c-0.1,0-0.2-0.1-0.2-0.1C22.3,5.1,23,4.7,23.7,4.4L23.7,4.4z M4.3,13.9
							c1.3-3.3,3.9-5.8,7.1-7.1c1.5-0.6,3.1-0.9,4.8-0.9h0.2c1.7,0,3.4,0.4,5,1c3.3,1.4,6,4,7.3,7.3c0.6,1.5,1,3.1,1,4.7L19.5,29
							l0,0l0,0l-3.1,3.1l0,0c-1.6-0.1-3.2-0.4-4.7-1c-3.3-1.4-6-4-7.3-7.3c-0.7-1.6-1-3.3-1-5C3.3,17.1,3.6,15.4,4.3,13.9z"/>
						<path id="Path" class="st0" d="M25.7,15.6c0.4,0.9,0.7,1.9,0.8,2.8c0,0.3,0.4,0.6,0.7,0.6c0,0,0.1,0,0.1,0
							c0.4,0,0.7-0.4,0.6-0.7c-0.1-1.1-0.4-2.2-0.9-3.2c-0.7-1.4-1.6-2.8-2.8-3.9c-0.3-0.3-0.7-0.2-1,0c-0.3,0.3-0.3,0.7,0,0.9
							C24.3,13.1,25.1,14.3,25.7,15.6L25.7,15.6z"/>
						<path class="st0" d="M6.4,24c0.2,0,0.4-0.1,0.5-0.3C7,23.5,7,23.2,7,23c-0.3-0.8-0.5-1.6-0.6-2.4l0-3.2
							c0.1-0.8,0.3-1.6,0.5-2.4c0.1-0.2,0-0.5-0.1-0.7C6.6,14.1,6.4,14,6.2,14c-0.2,0-0.4,0.2-0.5,0.4C5.2,15.9,5,17.4,5,19
							c0,1.6,0.3,3.1,0.8,4.6C5.9,23.8,6.1,24,6.4,24L6.4,24z"/>
						<path class="st0" d="M38.4,20.9c0.3,0.1,0.7,0,0.8-0.4c0.5-1.5,0.8-3,0.8-4.6c0-1.6-0.2-3.1-0.7-4.5C39.2,11.2,39,11,38.8,11
							c-0.2,0-0.4,0.1-0.6,0.3c-0.1,0.2-0.2,0.5-0.1,0.7c0.3,0.8,0.4,1.6,0.5,2.4l0,3.2c-0.1,0.8-0.3,1.7-0.6,2.4
							c-0.1,0.2-0.1,0.4,0,0.5C38.1,20.7,38.2,20.9,38.4,20.9z"/>
						<path class="st0" d="M18,39c0,2.2,1.8,4,4,4s4-1.8,4-4s-1.8-4-4-4C19.8,35,18,36.8,18,39L18,39z M24.7,39
							c0,1.5-1.2,2.7-2.7,2.7s-2.7-1.2-2.7-2.7s1.2-2.7,2.7-2.7S24.7,37.5,24.7,39L24.7,39z"/>
						<path class="st0" d="M21.1,38.1C21,38.3,21,38.5,21,38.7c0.1,0.2,0.3,0.3,0.5,0.3c0,0,0.1,0,0.1,0c0,0,0.1,0,0.1,0
							c0,0,0.1,0,0.1,0c0,0,0.1,0,0.1-0.1c0.2-0.2,0.2-0.5,0-0.7C21.7,38,21.3,38,21.1,38.1z"/>
					</g>
				</g>
			</g>
		</g>
	</g>
</g>
</svg>
