<?xml version="1.0" encoding="utf-8"?>
<!-- Generator: Adobe Illustrator 23.0.1, SVG Export Plug-In . SVG Version: 6.00 Build 0)  -->
<svg version="1.1" id="Layer_1" xmlns="http://www.w3.org/2000/svg" xmlns:xlink="http://www.w3.org/1999/xlink" x="0px" y="0px"
	 viewBox="0 0 46 46" style="enable-background:new 0 0 46 46;" xml:space="preserve">
<style type="text/css">
	.st0{fill:#766DF4;}
</style>
<g>
	<g id="Coworking-Space" transform="translate(-1128.000000, -3976.000000)">
		<g id="Benefits" transform="translate(346.000000, 3886.000000)">
			<g transform="translate(735.000000, 87.000000)">
				<g id="item" transform="translate(24.000000, 3.000000)">
					<g transform="translate(23.000000, 0.000000)">
						<path id="Shape" class="st0" d="M39.2,5H12.9c-0.3,0-0.6,0.3-0.6,0.6c0,0.3,0.3,0.6,0.6,0.6h26.3c1.4,0,2.6,1.2,2.6,2.6v21.4
							c0,1.5-1.2,2.6-2.6,2.6H6.8c-1.4,0-2.6-1.2-2.6-2.6V8.8c0-1.5,1.2-2.6,2.6-2.6h3.7c0.3,0,0.6-0.3,0.6-0.6
							c0-0.3-0.3-0.6-0.6-0.6H6.8C4.7,5,3,6.7,3,8.8v21.4c0,2.1,1.7,3.8,3.8,3.8h9.6l-1.2,3.8H13c-1.1,0-2,0.9-2,2c0,1.1,0.9,2,2,2
							h20c1.1,0,2-0.9,2-2c0-1.1-0.9-2-2-2h-2.2l-1.2-3.8h9.6c2.1,0,3.8-1.7,3.8-3.8V8.8C43,6.7,41.3,5,39.2,5z M33.8,40
							c0,0.5-0.4,0.8-0.8,0.8H13c-0.5,0-0.8-0.4-0.8-0.8c0-0.5,0.4-0.8,0.8-0.8h20C33.4,39.1,33.8,39.5,33.8,40L33.8,40z M29.6,37.9
							H16.4l1.2-3.8h10.8L29.6,37.9z"/>
						<path id="Path" class="st0" d="M38.4,24.7c0.3,0,0.6-0.3,0.6-0.6V9.6C39,9.3,38.7,9,38.4,9H6.6C6.3,9,6,9.3,6,9.6v18.8
							C6,28.7,6.3,29,6.6,29h31.8c0.3,0,0.6-0.3,0.6-0.6v-2c0-0.3-0.3-0.6-0.6-0.6c-0.3,0-0.6,0.3-0.6,0.6v1.4H7.2V10.2h30.7v14
							C37.8,24.4,38.1,24.7,38.4,24.7z"/>
						<path class="st0" d="M22.9,30.2c-0.1-0.2-0.3-0.3-0.5-0.2c-0.2,0-0.4,0.2-0.4,0.4c0,0.5,0.5,0.7,0.8,0.4
							C23,30.7,23,30.4,22.9,30.2L22.9,30.2z"/>
					</g>
				</g>
			</g>
		</g>
	</g>
</g>
</svg>
