<svg xmlns="http://www.w3.org/2000/svg" xmlns:xlink="http://www.w3.org/1999/xlink" width="600" height="356" xmlns:v="https://vecta.io/nano"><style><![CDATA[.B{fill-rule:nonzero}.C{fill:#000}.D{opacity:.1}.E{fill:#575988}.F{fill:#f7c4a7}.G{fill:#766df4}.H{stroke-width:2}.I{fill:#5a5b75}]]></style><defs><linearGradient x1="49.9980158%" y1="100.011974%" x2="49.9980158%" y2="3.14375538e-06%" id="A"><stop stop-color="gray" stop-opacity=".25" offset="0%"/><stop stop-color="gray" stop-opacity=".12" offset="54%"/><stop stop-color="gray" stop-opacity=".1" offset="100%"/></linearGradient><linearGradient x1="49.9961829%" y1="99.9999929%" x2="49.9961829%" y2="7.11191695e-06%" id="B"><stop stop-color="gray" stop-opacity=".25" offset="0%"/><stop stop-color="gray" stop-opacity=".12" offset="54%"/><stop stop-color="gray" stop-opacity=".1" offset="100%"/></linearGradient><linearGradient x1="50.0023585%" y1="100.026536%" x2="50.0023585%" y2="-0.00215558891%" id="C"><stop stop-color="gray" stop-opacity=".25" offset="0%"/><stop stop-color="gray" stop-opacity=".12" offset="54%"/><stop stop-color="gray" stop-opacity=".1" offset="100%"/></linearGradient><path id="D" d="M590 193.26s-23.227-3.78-25.34 17.496S520 234.983 520 234.983l.795.54c35.128 23.57 68.733 15.017 63.62-16.26-1.858-11.66-1.704-23.35 5.584-26.004z"/><path id="E" d="M485.55 233.03l-19.557-8.36c-8.628-3.582-3.45 8.36-3.45 8.36s14.38 4.18 14.38 4.777S489 239 489 239l-3.45-5.97z"/><path id="F" d="M532 187.665s-19.267-10.366-22.667 9.8-14.167 33.98-14.167 33.98-10.2 2.304-14.167-1.728c0 0 9.633 11.518 5.1 12.67 0 0 10.2 7.487 14.733 5.183s7.933-17.853 9.633-21.885 7.933-39.162 21.533-38z"/><path id="G" d="M472.543 265.175L433.7 260s-63.176 29.9-70.7 30.475l1.74 13.225h11.592c4.637 0 49.845-9.775 56.22-19.55 3.688-.973 7.61-.563 11.012 1.15C449.36 288.175 505 306 505 306l-32.457-40.825z"/><path id="H" d="M537.88 219.106s-8.178 35.752-27.455 29.41c0 0-9.93 14.416-2.92 20.76 0 0 16.94 4.036 28.04-6.92s19.277-14.993 21.03-28.255 2.92-31.715-2.92-29.985-15.772 14.993-15.772 14.993z"/></defs><g fill="none" fill-rule="evenodd"><g class="B"><path d="M87.603.04c-4.664-.133-9.443 0-13.817 1.346-11.902 3.668-17.544 15.67-15.71 26.04s9.38 19.407 17.208 27.666S91.595 71.52 95.888 81.39c2.14 4.927 3.142 10.447.966 15.368-3.356 7.585-13.476 11.822-23.19 12.704s-19.47-.836-29.22-1.4c-4.09-.238-8.297-.267-12.15.842-4.23 1.207-7.753 3.674-10.994 6.245C8.657 125.226-1.463 138.986.174 153.443c1.852 16.384 18.365 29.332 36.453 36.28 5.99 2.32 12.324 4.167 17.596 7.452 13.887 8.665 17.005 24.915 15.623 39.256s-6.093 28.7-3.472 42.912c3.084 16.535 16.733 31.473 35.145 38.45 16.404 6.216 36.933 5.804 51.497-2.966 7.1-4.283 12.47-10.232 17.14-16.384a132.27 132.27 0 0 0 17.04-29.599c2.03-4.927 3.94-10.226 8.68-13.65 2.893-2.107 6.642-3.285 10.35-4.202 11.18-2.763 22.954-3.517 34.237-5.978s22.635-7.063 28.77-15.246c8.68-11.607 4.63-26.476 4.67-40.127.07-31.143 22.63-59.018 30.956-89.377 2.72-9.918 3.732-20.893-2.343-29.744-4.126-6.007-11.086-10.342-18.4-13.69-16.09-7.365-34.38-10.644-52.37-13.836-25.002-4.434-55.362-5.01-74.74-19.355C138.405 9.866 112.963.04 87.603.04z" opacity=".2" class="G"/><ellipse fill="#f7f7fc" cx="330.5" cy="283.5" rx="269.5" ry="72.5"/><path d="M554.152 108s-20.774 20.82-9.045 51.72S525 242 525 242l.974-.163c42.668-7.555 63.87-56.46 40.145-92.8-8.82-13.505-16.06-29.335-11.967-41.04z" class="G"/></g><path d="M554.184 108s-11.742 25.523 0 46.344S556.198 233.603 525 242" stroke="#5a5b75" class="H"/><g class="B"><use xlink:href="#D" class="G"/><use xlink:href="#D" fill="#f5f5f5" opacity=".2"/></g><path d="M590 193s-18.03 3.935-16.547 20.135S546.68 248.8 520 233.37" stroke="#5a5b75" class="H"/><g class="B"><path d="M535.7 244.492h-37.14a12.55 12.55 0 0 0 1.295-5.574V68.528c0-6.92-5.568-12.528-12.436-12.528H199.9a12.39 12.39 0 0 0-8.797 3.667c-2.333 2.35-3.644 5.537-3.644 8.86v170.397a12.55 12.55 0 0 0 1.295 5.574H150.3c-1.817 0-3.3 1.484-3.3 3.314v2.673C147 260.713 155.243 269 165.397 269h355.206c10.16 0 18.397-8.297 18.397-18.532v-2.673c-.006-1.826-1.477-3.302-3.3-3.302h0zm-228.885 10.6l-3.168-3.64h79.045l-3.527 3.646-72.35-.006z" fill="#e9e9f2"/><rect x="191" y="58" width="306" height="192" rx="23.26" class="I"/><g fill="#fff"><path d="M198 87h292v154H198z"/><circle cx="343.5" cy="71.5" r="2.5"/></g><path d="M389.106 243l-10.08 10.378H307.97L298.865 243H154.23c-1.784 0-3.23 1.452-3.23 3.244v2.614c0 10.02 8.1 18.143 18.07 18.143H517.93c9.98 0 18.07-8.123 18.07-18.143v-2.614c0-1.79-1.446-3.244-3.23-3.244H389.106z" fill="#535461"/><path d="M286.762 93H164.238C158.04 92.994 153 98.06 153 104.316v171.368c.01 6.257 5.04 11.323 11.238 11.316h122.524c6.198.006 11.228-5.06 11.238-11.316V104.316C298 98.06 292.96 92.994 286.762 93z" fill="url(#A)"/><rect x="154" y="94" width="142" height="192" rx="20" class="I"/><g fill="#fff"><path d="M163 113h128v153H163z"/><circle cx="225" cy="103" r="2"/><circle cx="225" cy="276" r="5"/></g><path d="M192.8 151H130.2c-1.642-.003-3.217.657-4.38 1.836a6.35 6.35 0 0 0-1.821 4.448v139.432a6.35 6.35 0 0 0 1.821 4.448c1.163 1.178 2.738 1.84 4.38 1.836H192.8c1.642.003 3.217-.657 4.38-1.836a6.35 6.35 0 0 0 1.821-4.448V157.284a6.35 6.35 0 0 0-1.821-4.448c-1.163-1.178-2.738-1.84-4.38-1.836h0z" fill="url(#B)"/><rect x="125" y="152" width="74" height="150" rx="11" class="I"/><g fill="#fff"><path d="M130 165h63v122h-63z"/><circle cx="154.5" cy="157.5" r="1"/><rect x="158" y="157" width="13" height="1" rx=".5"/><circle cx="162.5" cy="293.5" r="4.5"/></g></g><path d="M117.172 312s-8.058-26.308 1.513-45.683c4.074-8.1 5.307-17.25 3.512-26.08A67.94 67.94 0 0 0 118.363 228" stroke="#535461" class="H"/><path d="M124 215.712c0 3.153-5.5 12.288-5.5 12.288s-5.5-9.14-5.5-12.288c0-3.155 2.462-5.712 5.5-5.712s5.5 2.558 5.5 5.712zm9.897 19.183C132.12 237.5 122 242 122 242s.184-10.6 1.96-13.214c1.1-1.788 3.147-2.856 5.327-2.782s4.14 1.28 5.103 3.138a5.39 5.39 0 0 1-.494 5.754zm-1.737 30.368c-2.736 1.36-13.16.422-13.16.422s5.433-8.838 8.164-10.198c2.7-1.2 5.9-.095 7.24 2.527s.35 5.82-2.245 7.254v-.005zm-4.342 21.987C125.178 289.145 114 290 114 290s4.114-10.133 6.754-12.028c2.638-1.7 6.194-1.107 8.08 1.37s1.44 5.957-1.016 7.908h0zm-17.852-44.9C112.295 244.636 123 247 123 247s-2.625-10.85-4.93-13.126c-1.467-1.593-3.675-2.237-5.748-1.674s-3.673 2.24-4.166 4.365a5.99 5.99 0 0 0 1.81 5.8v-.006zm-6.388 24.917c3 1.334 14.422.414 14.422.414s-5.955-8.672-8.947-10.006c-1.95-.965-4.343-.906-6.23.153s-2.965 2.95-2.807 4.92 1.526 3.7 3.563 4.523v-.005zm-1.396 26.973C104.822 296.145 116 297 116 297s-4.114-10.133-6.754-12.028c-2.638-1.7-6.194-1.107-8.08 1.37s-1.44 5.957 1.016 7.908h0z" class="B G"/><path d="M575 229.172c-6.38-7.81-14.107-16.786-13.023-27.18.876-8.416-1.222-16.2-.807-24.644.576-12-1.81-21.393-10.373-29.082-5.002-4.496-13.363-8.027-15.853-7.125-4.933 1.78-10.315 1.1-15.392 2.327-3.855.907-6.42 2.327-8 4.07-3.198 2.908-3.25 6.98-1.792 11.313-2.573 4.757-3.024 10.393-1.24 15.504s5.634 9.218 10.593 11.297c-3.555 1.5-6.627 4.956-7.826 11.97-.833 4.817-2.093 9.55-3.763 14.14-.75.354-1.52.667-2.305.936.173.07.352.116.524.18-.375.145-.743.29-1.153.42.68.27 1.385.475 2.103.617-4.6 11.755-10.373 19.037-10.373 19.037s-10.747 2.396-14.925-1.797c0 0 .68.803 1.602 2.007l-16.527-6.8c-4.16-1.67-5.227 0-5.186 2.327-1.015.13-1.995.46-2.88.977-1.23-.798-2.518-1.498-3.855-2.094-2.386-.582-10.148-4.793-17.9 9.58-4.518 8.358-16.1 23.614-25.004 34.898-17.316 8.038-39.86 18.217-48.238 20.776h-5.37c-.703-1.163-1.193-1.896-1.193-1.896l-.415.28-.18-.28s-10.545 7.37-21.252 7.427a19.99 19.99 0 0 1-4.518-.582c-4.92-1.25-8.4-1.81-10.868-1.745-2.933-.052-4.6.65-5.624 1.978a5.2 5.2 0 0 0-.375.547c-.114.188-.217.382-.31.582-.092.21-.184.43-.265.657a1.36 1.36 0 0 0 .334 1.134 6.05 6.05 0 0 0 .467.582l.3.326c1.348 1.408 3.803 3.275 6.857 5.357l2.79 1.855 1.85 1.163 1.654 1.04.663.413.738.454 1.32.808.784.477 1.48.9 1.2.715 9.076 5.28 1.97 1.187.2.105 1.268.715 2.2 1.227 1.504.838 1.608.9 1.314.72a1.89 1.89 0 0 0 1.533-.419c.38-1.63 1.308-5.118 2.305-5.386s5.313-7.88 6.53-12.976h11.652a50.92 50.92 0 0 0 6.823-1.059c-3.008 2.164-5.987 3.525-8.304 2.943-4.898-1.227-9.537 1.786-10.004 4.758 0 .064-.04.122-.058.186s-.03.122-.04.18-.035.145-.046.22 0 .122 0 .186v.803c0 .058.035.157.058.238s0 .105.04.15c.036.105.08.208.127.308l.03.076c.065.127.138.25.22.366l.092.122c.058.08.12.163.2.238l.133.134c.07.07.144.14.22.21l.16.134.26.192.2.128.31.186.207.11.392.186.196.087c.207.087.426.17.663.244.375.122.818.25 1.32.378l.5.122.732.17.386.087 1.6.326.778.145.634.116 1.458.256 2.88.465 2.512.384 3.273.47.726.1 1.153.163 1.688.227 1.153.15 2.99.384.934.116 1.884.233 7.082.832 3.844.436.576.058 1.544.17.86.093 2.553.268h.16l.957.1c.242.026.484-.052.667-.214a.88.88 0 0 0 .295-.641v-.1c.088-.135.136-.292.138-.454a19.95 19.95 0 0 1 .536-4.258 12.92 12.92 0 0 1 .219-.727l.092-.28.328-.902a6.51 6.51 0 0 0 .225-.663c0-.07.04-.14.063-.215s.058-.238.08-.36c1.2-4.135-.248-11.848-.663-14.878a16.28 16.28 0 0 0-.657-2.85 1.14 1.14 0 0 0 .225 0c.62-.23 1.2-.55 1.73-.948 8.805-3.17 16.227-6.793 18.573-10.423a15.95 15.95 0 0 1 11.341 1.198c4.558 2.286 39.04 13.645 55.096 18.892 2.88 2.507 5.14 3.973 6.39 3.862 0 0 20.44 3.34 28.657-3.176.732.512 1.193.785 1.193.785s11.94-5.985 13.732-13.773c.576-2.524 1.1-6.247 1.637-10.365 2.77-2.817 4.327-6.623 4.333-10.592.375-13.075 5.394-28.012 9.116-41.296 4.518.36 6.264-.5 10.407-2.565l-.184-.238c.294-.174.553-.29.813-.42zm-68.453 19.584l-2.305-.774a19.23 19.23 0 0 0 1.988-3.339l.317 4.112zm-12.845 5.502l13.83 8.376.12 1.704c-.17 1.297-.13 2.613.115 3.897-6.097-5.467-13.23-12.104-14.072-13.983l.006.006zm-5.647-12.214c-1.5-.628-2.76-1.198-3.62-1.67l3.204.204a7.29 7.29 0 0 1 .415 1.466h0zm-37.042 13.65s2.386-5.386 7.762 3.595c.836 1.396 2.374 3.618 4.408 6.37l-15.65-2.11c1.844-2.885 3.083-5.566 3.48-7.846v-.006z" fill="url(#C)" class="B"/><use xlink:href="#E" class="B F"/><use xlink:href="#E" opacity=".05" class="B C"/><use xlink:href="#F" class="B E"/><use xlink:href="#F" class="B C D"/><g class="F B"><path d="M521 180.207s12.217 13.963 12.8 25.598 13.963-12.217 15.126-12.8-11.636-20.362-12.8-26.762S521 180.207 521 180.207z"/><path d="M529.4 187l-7.4 6.765L525.495 208l9.505-9.02-1.118-9.02zM370.355 289H357l5.226 13L375 298.455z"/></g><path d="M360.68 288s-14.027 9.615-26 6.625-15.24-1.872-16.635 1.988c-1.3 3.553 33.47 22.343 39.012 25.3.174.094.383.102.564.023a.63.63 0 0 0 .36-.428c.377-1.576 1.3-4.955 2.267-5.216 1.272-.336 7.066-11.012 6.748-15.208S360.68 288 360.68 288z" class="B C D"/><path d="M359.68 288s-14.027 9.615-26 6.625-15.24-1.872-16.635 1.988c-1.3 3.553 33.47 22.343 39.012 25.3.174.094.383.102.564.023a.63.63 0 0 0 .36-.428c.377-1.576 1.3-4.955 2.267-5.216 1.272-.336 7.066-11.012 6.748-15.208S359.68 288 359.68 288z" fill="#f3b5b7" class="B"/><use xlink:href="#G" class="B E"/><use xlink:href="#G" class="B C D"/><path d="M403.52 283l-6.52 7.7 6.52 3.3 9.48-6.6z" class="B F"/><path d="M514.272 273.3s-20.727-17.997-22.16-21.26-35.415-25.453-37.718-26.037-9.788-4.67-17.273 9.343S402 283.225 402 283.225s8.636 12.262 11.515 11.68 35.12-28.03 37.424-41.46c0 0 2.303-5.255 7.485 3.504s38.576 50.802 44.91 50.218c0 0 24.757 4.087 29.94-5.84s-19-28.03-19-28.03z" class="B E"/><path d="M526.576 188.876s-7.39 3.213-7.98 16.65S505 241.743 505 241.743l1.182 26.87s14.187 14.02 15.37 22.782S532.783 306 532.783 306s11.823-5.842 13.596-13.436 2.956-26.287 5.91-33.297 1.182-50.822 1.182-50.822l-8.867-15.188-4.73-5.257-12.414 14.02s-6.798-9.054-.887-13.144z" fill="#dfdfeb" class="B"/><path d="M509.362 259.973s-1.787-20.7 3.575-25.313l10.724-29.34s3.873-14.095 3.277-15.245-14 11.218-14 11.218l-8.937 30.5L506.383 264l2.98-4.027z" class="B C D"/><path d="M509.294 257.988s-1.765-20.63 3.53-25.215l10.59-29.227s4.118-14.327 3.53-15.473-14.118 11.46-14.118 11.46L504 229.908 506.353 262l2.94-4.012z" class="B E"/><path d="M514 249.864s-28.848-9.138-30.58-11.423-20.193-17.134-26.54-6.854 23.655 13.136 23.655 13.136L511.115 263 514 249.864z" class="B F"/><path d="M406.493 292.5l-8.532-1.5s-13.974 17.517-21.255 15.74-13.98 5.9-6.3 8.35c6.947 2.223 36.948 5.33 42.66 5.907.234.024.467-.05.643-.202s.28-.37.285-.6a17.63 17.63 0 0 1 1.326-6.358c1.54-3.695 0-11.633-.427-14.668-.235-1.78-.804-3.5-1.678-5.077l-6.734-1.59z" class="B C D"/><path d="M406.523 292.5l-8.542-1.5s-14 17.513-21.268 15.742-13.996 5.89-6.297 8.348c6.955 2.222 36.99 5.33 42.708 5.905.234.024.468-.05.644-.202s.28-.37.285-.6c.028-2.175.46-4.327 1.275-6.35 1.54-3.694 0-11.63-.427-14.665a14.34 14.34 0 0 0-1.679-5.076l-6.7-1.602z" fill="#f3b5b7" class="B"/><circle cx="525" cy="168" r="19" class="B C D"/><circle cx="524" cy="168" r="19" class="B F"/><path d="M543.567 188S565 195.566 565 211.28s-11.845 40.743-12.41 61.114-31.586 17.46-31.586 17.46-4.512-68.68 0-73.92 24.817-25.6 22.56-27.938z" class="B E"/><use xlink:href="#H" class="B C D"/><use xlink:href="#H" x="2" class="B E"/><path d="M415 312c0 .065-.036.144-.054.2A24.1 24.1 0 0 0 414 316l.506-1.7A12.08 12.08 0 0 0 415 312zm-44.246 1.37c-2.324-.77-3.3-2.035-3.34-3.37-.96 1.858-.355 3.945 2.928 5.028 6.798 2.246 36.164 5.387 41.75 5.968a.82.82 0 0 0 .632-.206c.173-.155.273-.376.277-.6h0c.008-.434-.312-.802-.74-.85-6.127-.66-34.8-3.75-41.507-5.962zM318.8 295.245a7.31 7.31 0 0 1 .574-1.245 5.75 5.75 0 0 0-1.35 2.278c-1.258 3.6 32.643 22.638 38.047 25.644a.61.61 0 0 0 .552.021.63.63 0 0 0 .349-.438h0a.64.64 0 0 0-.304-.705c-5.973-3.34-39.1-21.998-37.87-25.556zm39.87 20.985c-.235.06-.465.36-.68.77l.07-.025c.195-.05.527-.424.93-.975a.85.85 0 0 1-.32.23h0z" fill="#dddbe2" class="B"/><path d="M522.548 185.398c-1.622 3.648-1.96 7.76-3.152 11.582-2.364 7.583-8.293 13.858-15.396 16.28 5.976 2.428 13.027-.54 17.645-5.466s7.327-11.483 9.92-17.863c6.706 4.598 5.89 15.165 8.144 23.393 1.958 7.243 6.898 13.265 13.544 16.508a23.83 23.83 0 0 0 20.745-.428c-6.148-7.624-14.902-18.14-13.86-28.32.845-8.245-4.958-14.544-4.56-22.818.575-11.73-3.83-17.687-12.078-25.217-4.82-4.404 2.766-10.615-3.45-8.797-2.444.715-5.02-1.953-7.42-1.073-4.75 1.76-9.938 1.08-14.827 2.252-25.4 6.087 7.114 34.64 4.745 39.966z" class="B C D"/><path d="M522.548 185.492c-1.622 3.64-1.96 7.743-3.152 11.56-2.364 7.567-8.293 13.83-15.396 16.247 5.976 2.423 13.027-.538 17.645-5.455s7.327-11.46 9.92-17.827c6.706 4.588 5.89 15.135 8.144 23.346 1.958 7.228 6.898 13.238 13.544 16.475 6.63 3.027 14.242 2.87 20.745-.427-6.148-7.608-14.327-16.346-13.286-26.507.845-8.23-.414-16.686 0-24.938.575-11.705-5.067-23.013-13.32-30.527-4.82-4.395-12.348-4.957-14.752-4.097-4.75 1.756-9.938 1.077-14.827 2.247-25.42 6.093 7.103 34.59 4.733 39.903z" fill="#fc6681" class="B"/></g></svg>