<svg xmlns="http://www.w3.org/2000/svg" width="526" height="382" xmlns:v="https://vecta.io/nano"><style><![CDATA[.B{fill:#dfdfeb}.C{fill:#766df4}.D{fill:#e9e9f2}]]></style><g fill-rule="nonzero"><path d="M264.006 359.5c-73.465 0-136.7-52.064-151.032-124.352s24.23-144.666 92.103-172.87 146.154-4.382 186.97 56.9 32.797 142.957-19.15 195.073c-28.816 29.068-68.025 45.36-108.89 45.25zm0-307.796c-84.258 0-152.807 68.772-152.807 153.304s68.55 153.304 152.807 153.304 152.807-68.772 152.807-153.304-68.55-153.304-152.807-153.304z" class="B"/><path fill="#37384e" d="M321 186.5v156H205v-156z"/><path d="M185 181.5h155v62H185zm0 69h155v62H185zm0 69h155v62H185z" fill="#4a4b65"/><g class="C"><path d="M185 208.5h155v9H185zm0 69h155v9H185zm0 68h155v9H185z"/><circle cx="310.5" cy="191" r="3.5"/><circle cx="322.5" cy="191" r="3.5"/><circle cx="335.5" cy="191" r="3.5"/><circle cx="310.5" cy="258" r="3.5"/><circle cx="322.5" cy="258" r="3.5"/><circle cx="335.5" cy="258" r="3.5"/><circle cx="310.5" cy="326" r="3.5"/><circle cx="322.5" cy="326" r="3.5"/><circle cx="335.5" cy="326" r="3.5"/></g><path fill="#4a4b65" d="M0 380.5h526v1H0z"/><path d="M143 151.22v110.557c-.001 4.816-3.88 8.72-8.662 8.722H91.666C86.88 270.5 83 266.596 83 261.778V151.22c.001-4.818 3.88-8.722 8.666-8.72h5.176a4.17 4.17 0 0 0 .397 3.876c.764 1.145 2.044 1.833 3.414 1.834h24.33c1.37-.002 2.65-.69 3.414-1.834a4.17 4.17 0 0 0 .397-3.876h5.545c4.784.001 8.66 3.905 8.662 8.72z" class="D"/><path fill="#fff" d="M86 163.5h54v76H86z"/><path d="M101 215.5h22v1h-22z" class="B"/><path d="M101 220.5h34v1h-34z" class="C"/><path d="M102 224.5h26v1h-26zm-1 4h16v1h-16zm1 5h23v1h-23zm-10-18h2v2h-2z" class="B"/><path d="M92 219.5h2v2h-2z" class="C"/><path d="M92 224.5h2v2h-2zm0-26h2v2h-2zm0 34h2v2h-2z" class="B"/><path d="M102 172.5h22v22h-22zm88-172h146v93H190z" class="D"/><path fill="#fff" d="M201 26.5h121v46H201z"/><path d="M223 33.5h29v2h-29z" class="B"/><path d="M223 40.5h45v2h-45z" class="C"/><path d="M223 45.5h35v2h-35zm0 6h21v2h-21zm0 6h31v2h-31zm-13-24h3v3h-3z" class="B"/><path d="M210 39.5h3v3h-3z" class="C"/><path d="M210 45.5h3v3h-3zm0 6h3v3h-3zm0 5h3v3h-3z" class="B"/><path d="M286 31.5h30v30h-30z" class="D"/><path d="M190 .5h146v6H190z" class="C"/><g fill="#fff"><circle cx="195" cy="3.5" r="1"/><circle cx="199" cy="3.5" r="1"/><circle cx="203" cy="3.5" r="1"/></g><g class="D"><path d="M398 175.5h36v18h-36zm0 66h36v18h-36z"/><circle cx="415.5" cy="217" r="29.5"/></g><circle fill="#fff" cx="416" cy="217.5" r="23"/><path d="M408 210.5h18v1h-18z" class="B"/><path d="M408 214.5h28v1h-28z" class="C"/><path d="M408 218.5h22v1h-22zm0 3h13v1h-13zm0 4h19v1h-19zm-8-15h2v2h-2z" class="B"/><path d="M400 214.5h2v2h-2z" class="C"/><path d="M400 217.5h2v2h-2zm0 4h2v2h-2zm0 3h2v2h-2z" class="B"/></g></svg>