<svg xmlns="http://www.w3.org/2000/svg" xmlns:xlink="http://www.w3.org/1999/xlink" width="457" height="402" xmlns:v="https://vecta.io/nano"><style><![CDATA[.B{opacity:.1}.C{fill:#000}.D{fill:#766df4}.E{fill:#3a3768}.F{fill:#4a4b65}.G{fill:#fec2be}.H{fill:#4c4981}.I{fill:#e6e8ec}]]></style><defs><linearGradient x1="50.0175487%" y1="100%" x2="50.0175487%" y2="0.0625978091%" id="A"><stop stop-color="gray" stop-opacity=".25" offset="0%"/><stop stop-color="gray" stop-opacity=".12" offset="54%"/><stop stop-color="gray" stop-opacity=".1" offset="100%"/></linearGradient><linearGradient x1="50.00553%" y1="99.999296%" x2="50.00553%" y2="-0.00533520373%" id="B"><stop stop-color="gray" stop-opacity=".25" offset="0%"/><stop stop-color="gray" stop-opacity=".12" offset="54%"/><stop stop-color="gray" stop-opacity=".1" offset="100%"/></linearGradient><path id="C" d="M370.624 123.375l-1.18-1.375s-6.1 9.692-6.74 13.352l-1.477 7.863s-1.546 4.757-2.55 6.86-1.9 4.114-1.998 5.03.364 2.927-1.55 4.208-2.363 4.757-2.363 4.757-6.92 6.765-10.563 6.923-14.107 2.013-13.743 3.842-4.366 2.923-6.28 3.382 12.306 5.934 4.007 12.986c0 0 5.277 1.098 5.823 2.374s6.1-.727 6.1-.727 1.186-2.838 5.282-3.02 6.187-2.013 6.187-2.285 4.095-2.562 6.4-3.2 5.277-.915 5.37-1.558S375 123.35 375 123.35l-4.376.025z"/></defs><g fill-rule="nonzero" fill="none"><g fill="#f3f3f9"><ellipse cx="370.5" cy="370" rx="58.5" ry="10"/><ellipse cx="194.5" cy="360.5" rx="86.5" ry="6.5"/></g><path d="M141.794 15.724c15.475-13.8 39.766-16.61 61.86-15.51C273.092 3.654 335.77 37.21 390 75.15c19.638 13.755 38.95 28.536 51.69 47.454 25.936 38.504 18.243 91.863-17.82 123.563-12.274 10.807-27.144 19.065-42.417 26.4-27.15 13.043-56.458 23.51-87.26 26.488-21.975 2.127-44.224.398-66.07-2.564-61.034-8.282-120.944-26.6-171.147-57.938C34.94 224.8 14.18 207.723 5.1 185.5s-3.265-50.412 19.22-63.572c9.328-5.443 20.423-7.9 31.312-10.208 16.024-3.4 32.31-6.75 46.772-13.657 14.944-7.143 32.618-20.942 29.673-36.73-3.19-16.953-5.74-31.828 9.716-45.607z" fill="#f7f7fc"/><path d="M81 87h-3" class="D"/><path d="M201.5 316.865c1.9 3.212 4.853 5.283 8.2 5.283 5.7 0 10.335-6.035 10.335-13.487s-4.65-13.438-10.335-13.438c-2.682 0-5.128 1.338-6.964 3.537a13.31 13.31 0 0 0-1.757 2.75l-.098.585s-2.2 1.88-5.197.152v-43.7h-42.68a3.44 3.44 0 0 1-.517-3.217 4.11 4.11 0 0 1 1.924-2.346c3.214-1.9 5.3-4.85 5.3-8.185 0-5.696-6.044-10.33-13.495-10.33s-13.495 4.62-13.495 10.33c0 2.68 1.344 5.13 3.544 6.965a13.41 13.41 0 0 0 2.746 1.751l.06.098c1.325 1.28 1.658 3.277.822 4.92h-19.248v80.905c0 10.595 8.594 19.183 19.194 19.183h55.87V315.7a3.4 3.4 0 0 1 3.48-.738 4.08 4.08 0 0 1 2.333 1.904zm-71.83-60.01h6.684a13.48 13.48 0 0 1-5.271-10.58c0-7.668 6.693-13.88 14.947-13.88s14.952 6.212 14.952 13.88a13.48 13.48 0 0 1-5.271 10.58h40.062v-43.104c.933-.872 2.273-1.156 3.48-.738a4.1 4.1 0 0 1 2.353 1.923c1.885 3.212 4.848 5.283 8.2 5.283 5.7 0 10.335-6.035 10.335-13.483s-4.616-13.487-10.335-13.487c-2.687 0-5.133 1.343-6.97 3.537a13.59 13.59 0 0 0-1.757 2.75l-.094.06c-1.36 1.418-3.52 1.706-5.202.694V156.6h-41.1a3.44 3.44 0 0 1-.517-3.217 4.09 4.09 0 0 1 1.924-2.346c3.214-1.884 5.286-4.85 5.286-8.185 0-5.696-6.04-10.33-13.5-10.33s-13.495 4.62-13.495 10.33c0 2.686 1.344 5.13 3.54 6.965a13.6 13.6 0 0 0 2.751 1.756l.06.093c1.325 1.28 1.658 3.277.822 4.92h-11.9v-2.213h8.78c-3.286-2.524-5.228-6.42-5.266-10.56 0-7.668 6.693-13.886 14.952-13.886s14.947 6.217 14.947 13.886a13.48 13.48 0 0 1-5.29 10.575h37.946v-43.63c.93-.88 2.276-1.165 3.485-.738 1 .318 1.84 1.006 2.348 1.923 1.885 3.212 4.853 5.283 8.2 5.283 5.7 0 10.335-6.035 10.335-13.487s-4.616-13.483-10.335-13.483c-2.687 0-5.133 1.338-6.97 3.537a13.31 13.31 0 0 0-1.757 2.75l-.094.585s-2.2 1.88-5.202.152V56.595h-55.846c-10.6 0-19.194 8.6-19.194 19.183v20.767h-.3c-.622 0-1.127.504-1.127 1.126v9.838a1.13 1.13 0 0 0 1.127 1.126h.3v10.044h-.38a1.13 1.13 0 0 0-1.132 1.126V138.6a1.13 1.13 0 0 0 1.132 1.126h.38v7.378h-.3c-.622 0-1.127.504-1.127 1.126v6.05h-.246v12.75a1.12 1.12 0 0 0 1.127 1.126h.335v88.706h9.194zM275.72 126.26a1.13 1.13 0 0 0-1.127-1.131h-.68v-1.235h-.37V74.83c.001-4.892-1.943-9.585-5.404-13.044s-8.157-5.402-13.052-5.4H199.72V93.77a13.66 13.66 0 0 1 10.828-5.435c7.732 0 14.002 6.695 14.002 14.948s-6.27 14.948-14.002 14.948a13.65 13.65 0 0 1-10.828-5.435v41.48h44.787a13.51 13.51 0 0 1-5.261-10.59c0-7.678 6.68-13.9 14.922-13.9a15.54 15.54 0 0 1 10.025 3.6 13.14 13.14 0 0 1 0 20.536v.33h9.72v-.034h1.806V126.26zm-14.87 128.387v-4.92c.203-.296.4-.603.556-.92a8.19 8.19 0 0 0 1.014-3.91 8.05 8.05 0 0 0-.463-2.676 8.85 8.85 0 0 0-1.107-2.154h0c-2.27-3.26-6.752-5.484-11.92-5.484-7.456 0-13.495 4.62-13.495 10.33 0 2.686 1.344 5.13 3.54 6.965a13.6 13.6 0 0 0 2.751 1.756l.06.093a4.2 4.2 0 0 1 .822 4.919h-43.42v40.334a13.49 13.49 0 0 1 10.714-5.41c7.673 0 13.9 6.7 13.9 14.938s-6.216 14.943-13.9 14.943c-4.222-.03-8.187-2.03-10.714-5.4v32.56H249a11.84 11.84 0 0 0 11.841-11.805v-.054A11.84 11.84 0 0 1 249 350.576h-49.822v7.87h51.677c10.6 0 19.194-8.6 19.194-19.183v-82.715h-9.208v-1.9z" class="B C"/><path d="M142.032 349.11a11.83 11.83 0 0 1-11.831-11.826V257H121v80.83c0 10.587 8.586 19.17 19.178 19.17H196v-7.864l-53.968-.025z" class="F"/><path d="M199.168 312.304c1 .314 1.84 1.002 2.343 1.92 1.886 3.205 4.843 5.27 8.174 5.27 5.688 0 10.315-6.022 10.315-13.458s-4.622-13.428-10.296-13.428c-2.677 0-5.118 1.335-6.95 3.53-.695.84-1.284 1.76-1.754 2.744l-.098.584s-2.196 1.875-5.187.152v-43.593h-42.598c-.7-.916-.893-2.12-.516-3.2.318-.996 1.005-1.834 1.92-2.34 3.208-1.885 5.28-4.84 5.28-8.167 0-5.683-6.032-10.307-13.47-10.307s-13.47 4.61-13.47 10.307c0 2.675 1.34 5.12 3.537 6.95.84.692 1.76 1.278 2.74 1.747l.06.098c1.322 1.28 1.655 3.27.82 4.908H130v80.182c0 6.522 5.29 11.81 11.82 11.81h53.91v-34.96c.92-.866 2.245-1.15 3.438-.736z" class="D"/><g class="E"><path d="M119 153h1v2h-1zm3 0h8v2h-8z"/><path d="M121 153h1v2h-1zm-1.227 14H120v-12h-1v10.824c-.001.315.08.617.226.838s.343.343.547.337h0z"/></g><path d="M130 155h-7.807v10.348c0 .3-.117.585-.324.796a1.09 1.09 0 0 1-.782.327H121V255h9V155z" class="F"/><path d="M121 167h.073c.246.001.48-.122.656-.342s.272-.52.272-.833V155h-1v12z" class="E"/><path d="M131.405 244.513c0-7.587 6.66-13.733 14.87-13.733s14.876 6.146 14.876 13.733A13.31 13.31 0 0 1 155.908 255h39.86v-42.645c.93-.862 2.26-1.143 3.462-.73.997.313 1.835.994 2.34 1.903 1.875 3.178 4.823 5.227 8.148 5.227 5.67 0 10.283-5.97 10.283-13.34s-4.593-13.344-10.283-13.344c-2.674 0-5.107 1.33-6.934 3.5-.7.834-1.277 1.747-1.748 2.72l-.093.058a4.2 4.2 0 0 1-5.176.686V155.82h-40.882a3.39 3.39 0 0 1-.514-3.183 4.05 4.05 0 0 1 1.915-2.321c3.197-1.864 5.26-4.798 5.26-8.098 0-5.635-6.008-10.22-13.422-10.22s-13.427 4.57-13.427 10.22c0 2.657 1.337 5.076 3.52 6.89a13.54 13.54 0 0 0 2.737 1.737l.06.092c1.318 1.268 1.65 3.242.818 4.866H130V255h6.65a13.31 13.31 0 0 1-5.244-10.487h0z" class="D"/><g class="E"><path d="M122 146.92a.92.92 0 0 0-.272-.653c-.174-.173-.4-.27-.656-.268H121v6h1v-5.08zM120.97 95h-.174c-.2 0-.413.128-.562.355s-.233.535-.233.856v10.578c.002.668.357 1.208.795 1.2H121V95.005l-.03-.005z"/><path d="M120.75 117c-.412 0-.747.503-.75 1.124v18.75c.002.622.337 1.124.75 1.124h.25v-21h-.25zm.23 29h-.217c-.422 0-.763.412-.763.92V152h1l-.02-6z"/></g><path d="M121 74.218v20.8c.604.02 1.082.518 1.082 1.124v9.858c-.002.605-.48 1.1-1.082 1.124v10.065h.172c.3 0 .585.12.796.33a1.13 1.13 0 0 1 .33.798v18.823c0 .623-.504 1.13-1.126 1.13H121v7.393h.088c.623 0 1.128.505 1.13 1.13v6.2h7.98V74.78c0-6.547 5.293-11.856 11.824-11.86h16.032v2.06c0 5.393 4.36 9.764 9.74 9.764H196v-6.447h-12.984c-1.045-.005-1.892-.85-1.903-1.898v-.414a1.91 1.91 0 0 1 1.903-1.907h12.96V55h-55.8c-10.584.005-19.16 8.607-19.164 19.218h0z" class="F"/><path d="M122 106.798v-10.6c0-.65-.442-1.185-1-1.207v13c.555-.025.996-.555 1-1.202zm0 30.078v-18.75c0-.298-.1-.584-.252-.795s-.38-.33-.6-.33H121v21h.132c.23.003.45-.115.614-.326s.255-.5.255-.8h0z" class="E"/><path d="M133.26 142.414c0-7.676 6.68-13.9 14.922-13.9s14.917 6.224 14.917 13.9c-.04 4.156-1.988 8.06-5.28 10.586h37.87v-43.673c.93-.88 2.272-1.166 3.478-.74a4.1 4.1 0 0 1 2.343 1.925c1.88 3.215 4.843 5.288 8.173 5.288 5.688 0 10.315-6.04 10.315-13.5s-4.607-13.496-10.315-13.496c-2.682 0-5.123 1.34-6.955 3.54a13.34 13.34 0 0 0-1.754 2.752l-.093.586s-2.196 1.88-5.192.153V74.812h-28.165c-5.364-.014-9.706-4.377-9.706-9.754V63h-16.008c-3.136.001-6.143 1.252-8.36 3.477A11.86 11.86 0 0 0 130 74.861V153h8.517c-3.283-2.53-5.222-6.435-5.256-10.586z" class="D"/><path d="M182.92 65c-1.06.003-1.918.805-1.92 1.796v.404c.003.992.86 1.795 1.92 1.8H196v-3.986L182.92 65z" class="I"/><path d="M269 123.2V153h3v-31h-1.622c-.76 0-1.378.537-1.378 1.2zM200 54h3v9h-3zm0 15h3v6h-3z" class="E"/><path d="M200 63h3v4h-3z" class="I"/><path d="M203.492 63.865c1.058.236 1.986 2.147 1.986 2.147v.414s-.933 1.906-1.986 1.872h0V74.7h22.44c5.433-.003 9.836-4.372 9.836-9.762v-2.06h16.882c6.586.014 11.917 5.313 11.917 11.845v57.383a13.12 13.12 0 0 1 0 20.562v.33h6.952v-28.906c0-.04.016-.076.044-.103s.066-.04.105-.04H274V73.47c.001-4.9-1.96-9.597-5.452-13.06S260.32 55 255.38 55H203v8.865h.492zm7.518-.044c1.336 0 2.418 1.074 2.418 2.4s-1.083 2.4-2.418 2.4-2.418-1.074-2.418-2.4 1.083-2.4 2.418-2.4z" class="F"/><path d="M210.744 87.07c7.672 0 13.894 6.693 13.894 14.946s-6.222 14.946-13.894 14.946A13.51 13.51 0 0 1 200 111.526V153h44.44c-3.263-2.535-5.188-6.44-5.22-10.59 0-7.677 6.627-13.898 14.807-13.898 3.645-.025 7.18 1.256 9.972 3.615v-57.3c0-6.523-5.244-11.814-11.72-11.828h-16.604v2.056c0 5.38-4.33 9.745-9.674 9.748h-25.976v17.705a13.52 13.52 0 0 1 10.72-5.439z" class="D"/><g class="I"><path d="M203.4 67c.853.001 1.557-.742 1.6-1.69v-.373c-.095-.965-.743-1.75-1.6-1.938h-.4v4h.4z"/><ellipse transform="matrix(.98708 -.160226 .160226 .98708 -59.079223 18.611009)" cx="258.686" cy="90.006" rx="2.386" ry="2.394"/></g><path d="M261 253v-5.06c1.333-2.963 1.333-6.976 0-9.94v15zm0 1h9v2h-9z" class="E"/><g class="D"><path d="M257.814 250.4c-.787.51-1.377 1.357-1.65 2.364-.326 1.1-.16 2.32.443 3.246H261v-2.13h-1.688c.612-.575 1.177-1.215 1.688-1.913V247c-.84 1.388-1.927 2.545-3.186 3.4z"/><path d="M259 255h2v-2c-.605.73-1.275 1.4-2 2h0z"/></g><path d="M262 243.502c-.008-1.616-.357-3.188-1-4.502v9c.642-1.313.99-2.884 1-4.498z" class="E"/><path d="M269 257v80.78c0 10.615-8.61 19.22-19.23 19.22H198v-7.885h49.912c6.552 0 11.863-5.31 11.863-11.857V257H269z" class="F"/><path d="M255.42 252.843c.314-1 .996-1.838 1.904-2.346a11.57 11.57 0 0 0 3.676-3.359v-9.654c-2.244-3.26-6.68-5.484-11.792-5.484-7.376 0-13.35 4.618-13.35 10.328 0 2.685 1.33 5.13 3.5 6.964.834.694 1.748 1.283 2.722 1.756l.058.093c1.31 1.282 1.64 3.276.813 4.918H200v40.33c2.5-3.38 6.423-5.38 10.6-5.4 7.6 0 13.74 6.69 13.74 14.936s-6.15 14.94-13.74 14.94c-4.176-.03-8.1-2.03-10.6-5.4V348h49.286c6.458 0 11.698-5.28 11.714-11.804v-80.132h-5.054a3.47 3.47 0 0 1-.526-3.221h0z" class="D"/><path d="M349 132c2.205-1.257 3.836-3.375 4.393-6.1a9.55 9.55 0 0 0 .15-1.002l.253-.956c.557-2.724-.055-5.544-1.51-7.952l-2.888 14.022L349 132z" fill="url(#A)"/><path d="M431.36 126.51c-.56-3.285-10.926-10.4-10.926-10.4s-4.58-2.455-7.004-5.293c-1.55-1.807-2.037-1.787-2.184-1.542-.1-.064-.215-.103-.334-.113-.098-.07-.19-.133-.28-.206h0c.03-.284-.127-.556-.388-.673-.118-.07-.236-.157-.353-.24-.785-1.32-1.065-3.19-1.158-4.82-.118-2.057-2.454-1.542-3.254-1.31-.55-1.03-1.085-2.1-1.6-3.172a5.82 5.82 0 0 0 .555-1.105c1.443-3.137 1.13-6.736 1.757-10.055.452-2.4 1.394-4.9 1.207-7.247v-.137a6.21 6.21 0 0 0-.398-1.709c-.417-1.05-1.144-1.964-1.472-3.05-.525-1.586-.19-3.334-.628-4.94-.545-2.033-2.263-3.604-4.206-4.502s-4.108-1.208-6.238-1.473c-5.326-.668-10.985-1.065-15.844 1.173-.446.264-.955.402-1.472.398a4.52 4.52 0 0 1-1.345-.624c-1.306-.648-2.945-.236-4.113.628s-1.963 2.11-2.734 3.32-1.615 2.455-2.822 3.245c-1.42.948-3.293 1.267-4.417 2.543a4.11 4.11 0 0 0-.913 2.121v-.034a2.68 2.68 0 0 0 0 .28v1.03c.157 1.2.476 2.372.947 3.486a4.85 4.85 0 0 0 1.286 2.19c1.708 1.39 4.417.08 6.48.854.182.064.353.147.525.226 0 .08-.054.157-.08.24a16.3 16.3 0 0 0-.663 4.62c0 9.22 7.652 16.693 17.09 16.693.353 0 .702 0 1.05-.04l.147.545c.525 2.037.69 4.15.49 6.245l-.103-.913c-.23-.1-.467-.2-.712-.27a6.35 6.35 0 0 0-2.12-.324c-2.322-.03-5.816.903-9.547 5.43 0 0-4.76 2.646-6.16 3.285a.66.66 0 0 0-.26.295h0s-6.366 9.618-7.024 13.276l-1.472 7.856s-1.6 4.743-2.616 6.844-1.963 4.105-2.052 5.018.373 2.916-1.6 4.193-2.454 4.743-2.454 4.743-.982.923-2.37 2.092h-.05l5.13-19.673.918.23a1.18 1.18 0 0 0 1.207-.412c.095-.12.163-.26.2-.408l1.036-3.987.5-1.9.604-2.312-2.042-.49-2.4-.594-6.754-1.704.59-2.258.49-1.915 3.578-13.762c-1.963-2.543-5.1-4.6-8.933-5.568-7.412-1.84-14.587 1.154-16.03 6.687a7.54 7.54 0 0 0-.191.982c-.124.304-.228.615-.31.933-.25.96-.317 1.96-.196 2.946.02.16.044.324.074.49.294 1.53.938 2.97 1.88 4.208a13.41 13.41 0 0 0 2.292 2.381l.034.108c.364.596.584 1.268.643 1.964v.304c-.165.296-.362.573-.59.825l-45.284-11.258-.49 1.9-10.2 39.204a14.78 14.78 0 0 1 4.417-2.332 14.39 14.39 0 0 1 1.914-.491l.23-.04c1.826-.297 3.692-.22 5.487.226 5.723 1.424 9.68 6.3 10.415 12.034a14.64 14.64 0 0 1 .123 2.185 15.4 15.4 0 0 1-.294 2.774c-2.454 7.453-9.993 11.955-17.317 10.134-4.16-1.05-7.59-3.983-9.277-7.93l-.49 1.915L260 220.82l40.106 9.977.432-1.93h.064c-2.403-2.977-3.41-6.843-2.768-10.615 0-.064.04-.123.064-.187.05-.142.103-.28.157-.417a13.53 13.53 0 0 1 .982-1.939c.196-.32.402-.628.623-.928.137-.187.28-.368.427-.545.706-.855 1.512-1.623 2.4-2.288l.285-.206a22.83 22.83 0 0 1 .982-.658c.2-.118.407-.236.614-.344 2.375-1.255 5.03-1.89 7.716-1.84 1.29.017 2.575.182 3.828.49 3.87.93 7.25 3.28 9.468 6.584a14.35 14.35 0 0 1 .805 1.375c.723 1.403 1.193 2.922 1.39 4.488.153 1.25.12 2.516-.098 3.756-.954 2.746-2.777 5.106-5.193 6.72l-.49 1.846h.054l-.074.054-.49 1.84 9.16 2.278 12.973-49.613c3.5-.408 5.29-1.964 5.29-2.2s4.206-2.558 6.538-3.196c1.158-.314 2.498-.54 3.563-.766l-2.346 12.628c.034.137.26-.08.604-.55a2.65 2.65 0 0 0-.044.55c0 .093.133.025.304-.167l-.025.118-7.853 15.71c-.57 1.615.137 5.75 2.38 7.12a4.8 4.8 0 0 1 1.149 1.016l-.265.525c-.834 1.694-1.576 3.58-1.443 4.753a6.44 6.44 0 0 1-.982 4.242s-6.307 19.497-6.165 25.108-2.243 17.925-2.243 17.925-2.592 7.934-1.05 10.193 3.293 12.112 3.293 12.112 1.193 2.258 1.12 4.173 1.124 5.4 1.124 5.4l3.927 14.16s-.422 3.766 1.05 6.432 1.33 1.846.628 6.5.844 8.96 3.362 10.3c.982.53 1.03 1.34.726 2.13h0c-.643-.25-1.178 1.08-1.497 2.155l-.324.31.216.054c-.137.49-.216.903-.216.903s-6.582 5.474-7.004 7.458-5.046 3-5.046 3-7.004 1.915-8.835 2.872a3.34 3.34 0 0 0-1.934 2.656 7.29 7.29 0 0 0 .255 2.681c.697 2.803 10.504 3.078 15.216 2.327s14.426-3.49 14.426-3.49 10.23-.982 13.252-2.2.628-4.38.628-4.38v-.295c.074-1.144.285-5.293-.442-6.383-.545-.844-.53-2.946-.452-4.28 2.047-3.682-2.346-14.73-2.346-14.73s.84-10.8.28-12.382-2.945-14.985-2.945-14.985-1.472-6.088-.908-7.114-.353-3.972-.353-3.972-2.4-3.275-2.184-4.306-.702-2.872-.702-2.872 7.147-10.674 6.513-12.657.285-5.2.285-5.2l1.963-3.324 3.475-5.705c.687-1.056 2.34-5.548 3.264-8.135l.658-1.856s1.12 20.13 2.1 22.168 2.454 18.27 2.454 18.27a11.11 11.11 0 0 1 .702 4.517c-.137 2.53 2.243 13.546 2.243 13.546s1.05 7.797.348 9.85-.137 17.184-.137 17.184-3.853 2.946-4.835 5.2.137 8.415.137 8.415l.452.21a12.98 12.98 0 0 0-.8 2.661c-.137 1.3-2.243 7.188-2.032 8.008s-.908 3.353-1.05 4.65-1.9 3.216-2.032 3.903a16.75 16.75 0 0 1-.771 1.802 17.19 17.19 0 0 0-.908 2.779c-.702 2.877 7.632 3.353 7.632 3.353 12.33 2.258 14.573-6.977 14.573-6.977s1.54-8.21 2.1-8.838a.98.98 0 0 0 .093-.781h0a10.41 10.41 0 0 0-1.777-3.864c-.393-.457-.417-1.63-.353-2.68.357-.035.7-.1 1.055-.196 4.972-1.434 2.945-9.716 2.945-9.716s3.362-5.47 3.362-7.6 1.193-8.622 1.193-8.622c4.275-7.664 2.592-26.272 3.293-27.78s-1.472-7.114-3.225-9.648-1.05-9.373 0-11.356-1.05-8.838-1.05-8.838 2.032-13.256 1.963-15.328 1.752-8.14 1.752-8.14 1.82-3.147 1.4-4.105 1.4-3.437.913-4.517.417-4.448 1.33-6.432c.466-1.016 1.045-3.815 1.472-6.304l.142-.82c2.042 1.29 3.927 2.254 4.594 1.993 1.252-.49-.74-6.874-2.106-10.85.236-.177.334-.31.236-.368-.84-.55.093-3.015.093-3.015 4.952-2.916 3.27-5.106 1.684-6.383s-.56-4.9-1.03-6.383.564-8.116 1.404-12.952a9.27 9.27 0 0 0-.025-3.172l2.64-4.13c2.798-4.56 8.776-26.272 8.776-26.272l-.04-.113c.584-1.154 1.02-2.092 1.257-2.715 1.81-4.713-1.55-18.952-2.11-22.246zm-43.527-12.5l.128-.06v.103l-.128-.044zm-27.177 232.894c-.305.002-.607-.058-.888-.177l.888.177z" fill="url(#B)"/><path d="M308.16 189.177c3.95 1.644 13.136 1.823 17.216 1.823h2.007l2.617-5.85-2.617-4.874s-2.4-.727-5.588-1.36c-4.705-.927-11.143-1.655-14.21.432-5.147 3.494-4.57 7.683.576 9.828z" class="G"/><path d="M325.49 191h1.958l2.553-5.81-2.548-4.84S325.1 179.628 322 179c2.525 2.072 8.595 6.584 3.49 12z" class="B C"/><use xlink:href="#C" class="H"/><use xlink:href="#C" opacity=".05" class="C"/><path d="M383.5 374.656c12.094 2.185 14.294-6.752 14.294-6.752s1.51-7.94 2.06-8.536c.138-.228.172-.5.094-.754h0c-.317-1.346-.9-2.618-1.744-3.74-.753-.86-.14-4.433-.14-4.433L384.06 347s-1.24 2.7-1.372 3.97-2.2 6.947-1.982 7.744-.892 3.24-1.03 4.5-1.853 3.11-1.982 3.77c-.216.596-.47 1.18-.758 1.746a17.02 17.02 0 0 0-.892 2.686c-.708 2.777 7.466 3.24 7.466 3.24z" fill="#ca8496"/><path d="M383.525 375.643c12.083 2.267 14.28-7.005 14.28-7.005s1.5-8.237 2.06-8.856a.99.99 0 0 0 .094-.782l-2.9 8.336s-2.4 5-11.326 4.257c-5.08-.43-7.578-1.37-8.8-2.104a17.93 17.93 0 0 0-.89 2.787c-.683 2.886 7.484 3.366 7.484 3.366zM394 362s-2.807.058-3-2l3 2z" class="B C"/><path d="M301.257 229l1.743.402-.383 1.598-1.617-.37z" class="D"/><path d="M301.257 229l1.743.402-.383 1.598-1.617-.37z" class="B C"/><g class="E"><path d="M356.004 141.34l.585-2.306 1.98.506-.585 2.306zm-8.887-2.272l.585-2.306 6.565 1.677-.585 2.306z"/><path d="M353.678 140.75l.585-2.306 2.32.593-.585 2.306z"/></g><path d="M348.178 136.566l-.38.2.316.09-.486 2.142-2.403-.69c-.37-.986-.277-2.116.247-3.01.458-.832 1.184-1.43 2.026-1.67.515-.167 1.017-.377 1.503-.63l-.822 3.566z" class="D"/><g class="E"><path d="M355 147.75l.82.217a1.02 1.02 0 0 0 .789-.116c.237-.144.4-.38.476-.652l.915-3.737-1.813-.462-1.187 4.75zm-.228-20.822c-.6 2.7-2.38 4.822-4.772 6.072l3.134-14c1.6 2.404 2.256 5.22 1.638 7.928zm-.992 19.102a1.13 1.13 0 0 1-.8-1.368l.998-3.982-6.493-1.68-19.804 79.025c2.98 5.892 1.17 13.117-4.22 16.845l-.46 1.84 8.785 2.3L355 146.364l-1.22-.335z"/><path d="M353.03 144.514c-.135.53.187 1.07.722 1.208l1.102.278 1.146-4.474-2.068-.526-.9 3.514z"/></g><path d="M345.2 135.167c.56-.888 1.443-1.53 2.467-1.8.624-.18 1.235-.405 1.825-.675L353 119.057c-2.195-2.765-5.272-4.7-8.727-5.517-7.237-1.83-14.252 1.14-15.658 6.627-.666 2.587.035 5.272 1.717 7.58a13.25 13.25 0 0 0 2.235 2.362l.035.108a4.15 4.15 0 0 1-.424 4.959l-44.23-11.165-9.98 38.87c3.28-2.634 7.614-3.6 11.716-2.612 7.454 1.883 11.84 9.855 9.797 17.802s-9.718 12.872-17.172 11.014c-4.095-1.07-7.448-3.978-9.062-7.86L263 221.116 302.18 231a13.3 13.3 0 0 1-2.506-11.483c1.9-7.385 9.935-11.738 17.957-9.713 4.332 1.052 7.993 3.9 10.04 7.84l20.162-78.515-2.896-.738a3.4 3.4 0 0 1 .266-3.223zm2.947 1l.083-.315-.46.22.377.093z" class="D"/><g class="B"><path d="M356.578 138.85l-2.305-.6-6.525-1.692.083-.318.975-3.875a12.53 12.53 0 0 1-1.808.685c-1.013.26-1.886.912-2.437 1.816a4.84 4.84 0 0 0-.361.784 4.8 4.8 0 0 1 .356-.784c.553-.9 1.426-1.55 2.437-1.816.617-.182 1.22-.41 1.803-.685l3.465-13.842c-2.17-2.805-5.208-4.778-8.62-5.596-7.15-1.856-14.078 1.156-15.467 6.722-.658 2.624.034 5.348 1.696 7.7a13.3 13.3 0 0 0 2.208 2.396l.034.11c.964 1.588.794 3.63-.42 5.03L288 123.55l-9.858 39.432c3.243-2.675 7.528-3.655 11.583-2.65 7.363 1.9 11.695 9.997 9.678 18.06s-9.6 13.058-16.963 11.173c-4.045-1.085-7.358-4.036-8.952-7.973l-10.12 40.464 38.702 10.027c-2.544-3.287-3.457-7.585-2.476-11.65 1.876-7.49 9.814-11.907 17.738-9.853 4.28 1.067 7.896 3.967 9.917 7.953 2.997 5.94 1.176 13.22-4.244 16.977l-.463 1.856 8.835 2.307 23.347-93.366.882.233a1.1 1.1 0 0 0 .848-.124c.255-.155.44-.406.512-.7l.984-4.03.58-2.327-1.95-.51zm-8.986-2.48c-.073.035-.146.074-.22.104h0l.22-.104zm-3.314 1.78h0l2.9.75-2.9-.75z" class="F"/><path d="M354.05 126.363c.668-2.68-.068-5.457-1.808-7.84l-3.46 13.842c2.656-1.235 4.6-3.33 5.268-6.003z" class="C"/></g><g class="F"><path d="M356.484 139.44l.585-2.306 1.98.506-.585 2.306zm-8.886-2.273l.585-2.306 6.565 1.677-.585 2.306z"/><path d="M354.16 138.84l.585-2.306 2.32.593-.585 2.306z"/></g><path d="M348.185 134.553l-.38.205.312.087-.483 2.155-2.405-.69c-.376-.985-.285-2.117.243-3.01.46-.83 1.186-1.43 2.027-1.67a9.78 9.78 0 0 0 1.5-.63l-.815 3.553z" class="D"/><g class="F"><path d="M355 143.75l.815.213a1 1 0 0 0 .788-.11c.238-.144.4-.38.475-.657l.922-3.734-1.8-.462-1.2 4.75zm-.226-18.817c-.605 2.705-2.376 4.817-4.774 6.067l3.14-14c1.58 2.404 2.248 5.22 1.634 7.933zm-1 19.09a1.11 1.11 0 0 1-.68-.518c-.15-.258-.193-.565-.12-.855l.97-3.98-6.464-1.67-19.8 79.04c2.986 5.892 1.175 13.12-4.22 16.845l-.46 1.842 8.8 2.275 23.2-92.663-1.226-.315z"/><path d="M353.032 141.5a.99.99 0 0 0 .108.755 1 1 0 0 0 .613.457l1.096.278 1.152-4.48-2.07-.52-.9 3.5z"/></g><path d="M345.205 133.17a4.16 4.16 0 0 1 2.467-1.8 12.83 12.83 0 0 0 1.825-.675l3.503-13.64c-2.194-2.765-5.27-4.7-8.722-5.518-7.242-1.825-14.253 1.14-15.664 6.633-.66 2.583.035 5.268 1.722 7.577a13.3 13.3 0 0 0 2.235 2.368l.035.103a4.16 4.16 0 0 1-.424 4.96l-44.238-11.163-9.995 38.873c3.287-2.642 7.632-3.607 11.74-2.607 7.45 1.878 11.84 9.852 9.798 17.805s-9.724 12.87-17.198 11c-4.1-1.077-7.436-3.987-9.048-7.866L263 219.1l39.176 9.9c-2.573-3.242-3.496-7.48-2.5-11.485 1.894-7.4 9.936-11.74 17.958-9.715a15.37 15.37 0 0 1 10.044 7.866l20.158-78.52-2.926-.74a3.4 3.4 0 0 1 .296-3.238h0zm2.945 2l.078-.32-.456.22.377.098z" class="D"/><path d="M341.482 281.674c1.47 2.24 3.195 12.038 3.195 12.038s1.156 2.24 1.088 4.148 1.088 5.394 1.088 5.394l3.807 14.078s-.412 3.74 1.02 6.375 1.29 1.834.612 6.458.813 8.9 3.258 10.298-1.088 4.555-1.088 4.555 15.63 4.217 18.894 1.633-1.7-15.373-1.7-15.373.818-10.744.274-12.308-2.857-14.892-2.857-14.892-1.426-6.056-.882-7.076-.338-3.923-.338-3.923-2.313-3.266-2.107-4.286-.68-2.854-.68-2.854 6.92-10.64 6.306-12.637.27-5.168.27-5.168l1.93-3.305 3.37-5.673c.666-1.05 2.274-5.512 3.17-8.086l.637-1.844s1.088 19.997 2.038 22.037 2.376 18.143 2.376 18.143c.528 1.434.76 2.96.68 4.487-.137 2.516 2.176 13.465 2.176 13.465s1.02 7.753.338 9.807-.137 17.074-.137 17.074-3.74 2.942-4.69 5.168.137 8.336.137 8.336 10.873 5.443 15.68 4.016 2.852-9.66 2.852-9.66 3.263-5.438 3.263-7.547 1.186-8.547 1.186-8.547c4.145-7.615 2.514-26.112 3.195-27.607s-1.43-7.076-3.126-9.59-1.02-9.317 0-11.278-1.05-8.782-1.05-8.782 1.96-13.196 1.9-15.235 1.7-8.09 1.7-8.09 1.764-3.128 1.357-4.085 1.357-3.398.882-4.487.412-4.413 1.294-6.375c.45-1 1.014-3.795 1.47-6.262L415 219.8l-11.216-9.047-27.998-7.355-10.53-3.398-10.265 16.182c-.726 1.18-1.39 2.396-1.994 3.643-.808 1.682-1.53 3.555-1.4 4.722a6.53 6.53 0 0 1-.951 4.217s-6.12 19.38-5.983 24.96-2.176 17.815-2.176 17.815-2.514 7.885-1.004 10.136z" fill="#ceddf9"/><path d="M382.954 125c.427-.178 29.697-12.486 25.665-14.93-2.392-1.452-5.337-7.606-7.355-12.422-1.407-3.364-2.363-6.075-2.363-6.075s-23.49-4.248-15.084 10.412c1.325 2.25 2.324 4.68 2.964 7.22 2.397 9.987-3.634 15.613-3.828 15.795z" class="G"/><path d="M383.793 101.86c1.307 2.223 2.292 4.628 2.924 7.14 5.99-.426 11.258-4.203 13.68-9.81.23-.527.43-1.067.603-1.616-1.388-3.326-2.33-6.007-2.33-6.007s-23.17-4.2-14.877 10.295z" class="B C"/><path d="M368 91.507a16.5 16.5 0 0 0 32.837 2.296 16.5 16.5 0 0 0-12.897-18.437c-8.473-1.807-16.9 3.247-19.297 11.572-.428 1.486-.644 3.024-.644 4.57h0z" class="G"/><path d="M353 219.764c1.734 1.575 2.4 4.573 2.4 4.573s8.158 5.56 7.614 2.035 4.214-17.773 4.214-17.773L366.685 228s26.09-1.223 27.997-3.12 13.048-5.536 13.048-5.536 3.43 2.734 6.546 4.808l.725-4.402-11.215-9.024-27.997-7.336-10.53-3.39-10.265 16.14c-.725 1.174-1.39 2.383-1.994 3.624h0z" class="B C"/><path d="M351.524 219.18c2.187 1.376 3.005 5.098 3.005 5.098s8.198 5.65 7.65 2.067 4.237-18.056 4.237-18.056l-.547 19.7s26.24-1.232 28.146-3.17 13.12-5.65 13.12-5.65 9.705 7.855 11.48 7.165-3.143-14.056-3.143-14.056L410.42 134s1.365-23.293-.685-24.122a2.95 2.95 0 0 1-.862-.542c-1.35-1.222-1.754-3.707-1.872-5.793-.133-2.484-3.414-1.242-3.414-1.242l1.912 2.484-16.933 10.384-.148.09c-.66-.35-1.34-.66-2.035-.93-1.478-.58-3.493-1.128-4.8-.586-.73.374-1.35.936-1.793 1.63a20.55 20.55 0 0 0-2.306 4.71l-6.134 10.47-3.143 14.473c0 .56-.956 13.23-2.05 14.608s-2.187 8.268-1.78 10.335-.685 9.788-.685 9.788c-4.508 3.72-6.828 16.396-6.828 16.396l-7.686 15.85c-.562 1.64.153 5.813 2.34 7.17z" fill="#fff"/><path d="M390 116.084c1.635 2.465 6.36 5.916 6.36 5.916L410 110.29c-1.33-1.213-1.727-3.678-1.844-5.753-.13-2.465-3.362-1.228-3.362-1.228l.393.493c.38.497.532 1.135.42 1.753a2.21 2.21 0 0 1-1.007 1.486l-14.6 9.042z" class="B C"/><path d="M390 115.083c1.635 2.465 6.36 5.917 6.36 5.917L410 109.3c-1.33-1.213-1.727-3.678-1.844-5.75-.13-2.465-3.362-1.233-3.362-1.233l.393.493a2.23 2.23 0 0 1 .419 1.751c-.112.618-.478 1.157-1.006 1.484l-14.6 9.048z" fill="#fff"/><path d="M382 117.822c1.587 1.85 3.84 3.948 3.735 2.896s1.343-3.373 2.265-4.413a6.88 6.88 0 0 0-4.408.119 4.05 4.05 0 0 0-1.592 1.397z" class="B C"/><path d="M382 116.664c1.63 1.943 3.936 4.14 3.828 3.042s1.225-2.89 2.172-3.98c-1.346-.523-3.177-1.014-4.37-.523-.664.334-1.227.838-1.63 1.46z" fill="#fff"/><g fill="#ff718d"><circle cx="386" cy="127" r="1"/><circle cx="379" cy="156" r="1"/><circle cx="369" cy="186" r="1"/><circle cx="368" cy="219" r="1"/><circle cx="382" cy="140" r="1"/><circle cx="374" cy="171" r="1"/><circle cx="367" cy="201" r="1"/><circle cx="368" cy="223" r="1"/></g><path d="M408.046 110.47s-.18-1.63 2.152 1.18 6.736 5.248 6.736 5.248 9.97 7.065 10.5 10.32 3.77 17.386 2.064 22.09-14.74 27.256-14.74 27.256 3.4 4.078 2.608 8.876-1.797 11.408-1.35 12.857-.54 5.067.97 6.335 3.142 3.427-1.617 6.335c0 0-.9 2.448-.092 2.99s-11.943 6.154-17 3.168-14.085-26.89-14.28-32.23 2.783-23.01 4.4-27.163 6.47-20.372 8.533-24 11.103-23.276 11.103-23.276z" class="B C"/><path d="M410.036 110.47s-.18-1.63 2.157 1.18 6.738 5.248 6.738 5.248 9.973 7.065 10.512 10.32 3.77 17.386 2.065 22.09-14.734 27.256-14.734 27.256 3.4 4.078 2.61 8.876-1.797 11.408-1.35 12.857-.54 5.067.972 6.335 3.143 3.427-1.618 6.335c0 0-.9 2.448-.092 2.99s-11.946 6.154-17.003 3.168-14.088-26.89-14.282-32.23 2.784-23.01 4.4-27.163 6.47-20.372 8.535-24 11.09-23.276 11.09-23.276z" class="H"/><path d="M414 126s-8.28 9.02-7.993 15c0 0-.094-9.687 7.993-15zm-11 14c0 .27-5.27 19.85-4.996 22.302S396.456 172 396.456 172l-2.456-.632s1.906-10.065 2.27-13.782S403 140 403 140zm-3 56c.17.266 11.66 13.968 8.426 14.956S400 196 400 196zm11-3c.246.2 4.473 10.973 4.96 8.092s-3.636 7.882-4.298-.097L411 193zm-24.2-79.403s-5.038-3.1-11.365 4.828l-5.96 3.28-2.893 17.583s-2.98 7.287-2.17 11.48-2.345 18.584-2.345 18.584l-5.072 26.604c.176.74 5.33-8.1 5.243-12.484s4.334-18.037 4.97-18.86 4.97-24.23 4.97-24.23 3.523-9.932 5.78-13.213 5.062-9.474 6.235-10.568a11.93 11.93 0 0 1 2.8-1.823l-.2-1.182z" class="B C"/><path d="M386.85 113.597s-5.73-3.1-12.144 4.828l-6.052 3.28S365.72 139.3 365.72 139.3s-3.024 7.287-2.2 11.48-2.38 18.584-2.38 18.584l-5.135 26.605c.183.73 5.408-8.11 5.32-12.484s4.397-18.037 5.04-18.86 5.056-24.23 5.056-24.23 3.574-9.932 5.864-13.214 5.135-9.474 6.325-10.568 3.39-1.823 3.39-1.823l-.15-1.182z" class="H"/><path d="M362 170.57s-10.84-7.103-16.08-3.596-13.795 8.472-5.375 12.068 20.087 2.906 20.087 2.906L362 170.57z" class="G"/><path d="M368.652 239.9c1.758 3.4 3.216 20.64 4.192 26.1l3.688-5.635c.73-1.042 2.487-5.474 3.468-8.03-1.12-2.474-4.213-9.565-4.213-12.175 0-3.175-5.65-7.16-5.65-7.16s-3.565 2.85-1.485 6.9zM403 291.44s-12.013-4.485-15.56-1.294S403 291.44 403 291.44zm-6 2.56s12.348 6.77 8.117 7.902S397 294 397 294zm-35-6s4.253.2 2.63.842S362 288 362 288zm-7 1c.07.352 15.65 5.383 12.606 7.66S355 289 355 289zm47 42.425c-2.448-.34-16.116-6.058-10.77-1.94s10.77 1.94 10.77 1.94zM397 337s-1.038 3.4-5 2.96 5-2.96 5-2.96zm3 7.348c-.837-.164-10.772-3.487-10.996-1.937s9.476 4.265 10.236 3.435c.436-.44.7-.957.76-1.498h0zM371 340c-1.143-.042-11.847-2.05-14-.253l14 .253zm-10 2s-1.363-1.586-2.723-.76S361 342 361 342zm23 17c-.202.993-.986 1.776-2 2l2-2z" class="B C"/><path d="M333.292 365.294c.675 2.828 10.11 3.1 14.625 2.346s13.882-3.518 13.882-3.518 9.84-.964 12.735-2.2.607-4.413.607-4.413v-.298c.068-1.153.272-5.332-.423-6.46-.807-1.312-.335-5.586-.335-5.586s-13.95 2.758-14.222 1.45-2.43-3.17-3.435-3.583-1.754 3.444-1.754 3.444-6.317 5.516-6.74 7.514-4.86 3.03-4.86 3.03-6.74 1.928-8.493 2.892c-1.035.498-1.74 1.514-1.856 2.678-.074.9.017 1.827.267 2.703z" fill="#ca8496"/><path d="M333.277 365.24c.676 2.882 10.115 3.16 14.63 2.4s13.887-3.586 13.887-3.586 9.843-.983 12.74-2.244.608-4.498.608-4.498V357l-14.096 3.257s-6.946 3.1-11.393 3.1c-3.888 0-12.6 1.656-16.623-.856a7.89 7.89 0 0 0 .248 2.75zM352 355s.6 3.75 3 5l-3-5zm17-267.637a4.89 4.89 0 0 0 .82.348c1.293.353 2.555-.535 3.704-1.242s2.734-1.232 3.73-.313c1.298 1.196.358 3.75 1.695 4.907.845.732 2.188.48 3.127 1.08s1.223 1.918 1.462 3.054.716 2.433 1.8 2.767 2.113-.4 3.192-.358c.224 0 .497.035.636-.126a.69.69 0 0 0 .104-.505 10.95 10.95 0 0 1 .353-4.039c.442-1.292 1.5-2.46 2.804-2.666 1.934-.303 3.56 1.42 4.698 3.03a49.75 49.75 0 0 1 3.261 5.331 3.45 3.45 0 0 1 .164.369c2.546-5.84 1.672-12.633-2.266-17.612s-10.28-7.313-16.445-6.05-11.12 5.9-12.85 12.05v-.025z" class="B C"/><path d="M397.354 91.115c-1.113-1.588-2.702-3.265-4.598-2.96-1.298.202-2.3 1.34-2.736 2.6a10.59 10.59 0 0 0-.34 3.945.7.7 0 0 1-.107.493c-.15.163-.403.138-.622.128-1.055-.04-2.104.656-3.12.35s-1.536-1.593-1.77-2.702-.486-2.377-1.43-2.983-2.23-.34-3.057-1.06c-1.307-1.124-.384-3.624-1.657-4.793-.972-.893-2.522-.38-3.645.31s-2.357 1.553-3.626 1.208c-.428-.118-.812-.365-1.23-.528-1.998-.774-4.588.538-6.23-.853-.596-.605-1.025-1.358-1.244-2.185-.45-1.117-.756-2.29-.91-3.486a4.71 4.71 0 0 1 .914-3.398c1.07-1.277 2.877-1.598 4.243-2.54 1.162-.81 1.944-2.037 2.712-3.245s1.512-2.466 2.634-3.32 2.697-1.277 3.95-.63c.396.28.834.492 1.298.626.505.007 1.002-.132 1.434-.4 4.675-2.234 10.12-1.84 15.246-1.174 2.05.266 4.13.577 6.002 1.48s3.524 2.466 4.048 4.497c.418 1.608.097 3.358.603 4.93.34 1.075 1.04 1.973 1.458 3.052 1.094 2.885-.214 6.05-.768 9.088-.603 3.32-.3 6.904-1.69 10.05-.272.616-.578 1.696-1.264 1.292-.486-.3-1-2.05-1.293-2.6a48.03 48.03 0 0 0-3.208-5.198z" fill="#9a5e7f"/><path d="M427.538 146.58l2.462 6.947s-5.83 21.466-8.564 25.978-6.737 10.284-6.737 10.284-6.737 3.342-14.572 1.805l-30.7-5.59s-1.916.36-2.915-1.083-6.205-2.176-6.205-2.176-6.008-8.66 1.37-12.27c0 0 .91 1.986 4.826.634s5.097 1.078 5.097 1.078 6.402 1.264 9.928.815 12.385-.634 13.297-1.356a1.18 1.18 0 0 1 1.64.093s2.182-.8 2.9-1.625 1.733.903 1.733.903 1.275-.722.91-1.625 1.182-4.327 1.182-4.327.73-2.26.276-4.064 2.275-8.294 2.275-8.294c.036-1.095-.087-2.19-.364-3.25-.458-1.62 3.447-4.88 3.447-4.88s3.822-18.407 11.927-12.362 6.776 14.363 6.776 14.363z" class="B C"/><path d="M427.537 146.58l2.463 6.947s-5.833 21.466-8.567 25.978-6.734 10.284-6.734 10.284-6.74 3.342-14.577 1.805l-30.7-5.59s-1.91.36-2.91-1.083-6.202-2.176-6.202-2.176-6-8.66 1.37-12.27c0 0 .91 1.986 4.828.634s5.1 1.078 5.1 1.078 6.404 1.264 9.93.815 12.4-.634 13.3-1.356a1.18 1.18 0 0 1 1.64.093s2.182-.8 2.91-1.625 1.734.903 1.734.903 1.276-.722.91-1.625 1.182-4.327 1.182-4.327.73-2.26.27-4.064 2.28-8.294 2.28-8.294c.036-1.095-.087-2.19-.365-3.25-.458-1.62 3.448-4.88 3.448-4.88s3.823-18.407 11.932-12.362 6.754 14.363 6.754 14.363z" class="H"/><g class="C"><path d="M367.836 174c.068.664 1.6 3.305 1.043 3.78s-1.46.2-.625 1.7.753 3.775.207 3.494-1.46-3.683-1.46-5.007.836-3.97.836-3.97zM396 173s.44 6.06 4.036 7.8S396 173 396 173zm9-2c.25.083 5.867 3.008 3.355 4.712S405 171 405 171zm0-4s8.198 1.5 5.43 2.754S405 167 405 167z" class="B"/><path d="M389.955 89.63c.435-1.2 1.452-2.268 2.724-2.46 1.887-.28 3.47 1.3 4.577 2.8a45.63 45.63 0 0 1 3.174 4.928c.3.518.784 2.17 1.287 2.455.682.387.968-.635 1.258-1.218 1.384-2.968 1.084-6.37 1.684-9.5.353-1.834 1.006-3.733 1.152-5.553.208 2.26-.7 4.634-1.152 6.93-.6 3.14-.3 6.533-1.684 9.515-.27.583-.576 1.605-1.258 1.218-.484-.285-.997-1.937-1.287-2.455a45.63 45.63 0 0 0-3.174-4.928c-1.108-1.498-2.7-3.1-4.577-2.8-1.292.2-2.3 1.27-2.724 2.46a6.63 6.63 0 0 0-.358 1.941 8.73 8.73 0 0 1 .358-3.323zm-27.973-8.205a4.58 4.58 0 0 0 1.239 2.072c1.635 1.316 4.215.075 6.203.807.416.15.798.387 1.224.5 1.263.322 2.497-.495 3.6-1.148s2.666-1.134 3.63-.3c1.268 1.106.348 3.467 1.65 4.536.823.677 2.13.467 3.044 1.003s1.2 1.77 1.423 2.8.692 2.25 1.76 2.557 2.056-.364 3.106-.327c.218 0 .484.033.62-.12a.45.45 0 0 0 .073-.13l.034 1.04a.64.64 0 0 1-.106.467c-.15.15-.402.126-.62.117-1.05-.033-2.095.62-3.106.33s-1.53-1.503-1.76-2.557-.484-2.25-1.423-2.8-2.22-.327-3.044-1.003c-1.302-1.07-.382-3.435-1.65-4.536-.968-.85-2.5-.364-3.63.3s-2.347 1.47-3.6 1.148c-.426-.112-.808-.35-1.224-.5-2-.733-4.568.5-6.203-.807-.594-.574-1.02-1.3-1.24-2.072a12.8 12.8 0 0 1-.905-3.295 5.09 5.09 0 0 1 .03-1.157 13.5 13.5 0 0 0 .876 3.075h0z" class="B"/></g><g class="D"><path d="M49.608 357.027S28.744 355.78 31.2 370.272c0 0-.493 2.564 1.855 3.728 0 0 .035-1.076 2.142-.714.748.124 1.508.162 2.265.113a4.74 4.74 0 0 0 2.768-1.135h0s5.867-2.402 8.147-11.91c0 0 1.688-2.07 1.62-2.603l-3.52 1.468s1.204 2.52.257 4.614c0 0-.114-4.52-.8-4.404-.138 0-1.83.87-1.83.87s2.073 4.404.493 7.58c0 0 .592-5.407-1.155-7.26l-2.467 1.434s2.418 4.53.78 8.23c0 0 .42-5.67-1.303-7.877l-2.245 1.737s2.275 4.462.888 7.53c0 0-.183-6.6-1.372-7.1 0 0-1.974 1.717-2.265 2.446 0 0 1.554 3.244.587 4.956 0 0-.592-4.404-1.076-4.404 0 0-1.974 2.91-2.16 4.893 0 0 .084-2.97 1.688-5.19-1.13.212-2.17.748-2.995 1.54 0 0 .3-2.06 3.48-2.24 0 0 1.62-2.212 2.048-2.344 0 0-3.158-.264-5.073.577 0 0 1.688-1.957 5.655-1.057l2.216-1.796s-4.16-.563-5.922.06c0 0 2.028-1.717 6.52-.465l2.413-1.434s-3.543-.758-5.655-.49c0 0 2.226-1.19 6.366.103l1.722-.768-3.356-.587c-.76-.098-.804-.29-.804-.29 1.646-.272 3.335-.086 4.88.538 0 0 3.667-1.37 3.607-1.595z"/><ellipse cx="36" cy="375" rx="15" ry="2" class="B"/><path d="M89.75 318.014s-12.07-.662-10.632 7.015c-.15.798.284 1.593 1.073 1.97 0 0 0-.57 1.24-.377.433.064.873.084 1.31.06.6-.04 1.15-.25 1.6-.602h0s3.382-1.254 4.718-6.307c0 0 .977-1.098.937-1.378l-2.025.786s.694 1.337.147 2.444c0 0-.066-2.393-.456-2.338-.08 0-1.058.46-1.058.46s1.195 2.297.294 4c0 0 .34-2.862-.668-3.845l-1.443.78s1.397 2.398.45 4.355c0 0 .243-3.004-.754-4.17l-1.296.92s1.31 2.366.506 3.988c0 0-.106-3.496-.795-3.758-.492.378-.932.81-1.31 1.282 0 0 .9 1.718.344 2.623 0 0-.344-2.33-.623-2.338 0 0-1.134 1.54-1.25 2.6.052-.98.388-1.93.972-2.756-.652.115-1.254.4-1.73.818 0 0 .177-1.093 2.025-1.185 0 0 .932-1.17 1.185-1.24 0 0-1.828-.142-2.936.303 0 0 .977-1.03 3.27-.56l1.28-.95s-2.405-.3-3.422.032c0 0 1.175-.92 3.772-.248l1.392-.753a13.75 13.75 0 0 0-3.271-.257s1.29-.634 3.68.05l1.013-.404s-1.52-.27-1.94-.312-.466-.152-.466-.152a5.72 5.72 0 0 1 2.825.285s2.096-.726 2.04-.845z"/><ellipse cx="81.5" cy="328" rx="8.5" ry="1" class="B"/><path d="M21.71 326.02s-14.27-.883-12.57 9.352c-.177 1.065.335 2.126 1.27 2.63 0 0 0-.76 1.463-.507a6.37 6.37 0 0 0 1.552.076c.7-.048 1.366-.33 1.894-.802h0s4.012-1.695 5.574-8.403c0 0 1.15-1.46 1.106-1.837l-2.445 1.055s.818 1.776.174 3.253c0 0-.08-3.187-.54-3.11-.094 0-1.25.614-1.25.614s1.413 3.095.347 5.35c0 0 .402-3.816-.793-5.125l-1.69 1.015s1.65 3.197.53 5.805c0 0 .288-4.004-.888-5.582l-1.537 1.228s1.552 3.15.605 5.318c0 0-.124-4.663-.937-5.014 0 0-1.344 1.213-1.552 1.7 0 0 1.066 2.29.407 3.496 0 0-.407-3.106-.74-3.12 0 0-1.34 2.06-1.488 3.47.066-1.303.465-2.567 1.155-3.664a3.98 3.98 0 0 0-2.053 1.086s.208-1.456 2.385-1.583c0 0 1.106-1.558 1.398-1.654 0 0-2.157-.188-3.47.406 0 0 1.155-1.37 3.868-.746l1.517-1.27s-2.846-.396-4.05.046c0 0 1.388-1.218 4.463-.33l1.65-1.015s-2.425-.538-3.868-.345c0 0 1.522-.842 4.354.07l1.18-.543s-1.775-.355-2.296-.41-.55-.203-.55-.203a6 6 0 0 1 3.337.376s2.534-.924 2.49-1.09z"/><ellipse cx="10" cy="338.5" rx="10" ry="1.5" class="B"/><ellipse cx="299" cy="400" rx="15" ry="2" class="B"/></g><path d="M289 387.57s8.332-.263 10.84-2.08 12.813-3.97 13.438-1.072 12.52 14.5 3.114 14.58-21.854-1.49-24.363-3.043-3.03-8.384-3.03-8.384z" fill="#dfdfeb"/><path d="M316.566 397.94c-9.407.083-21.855-1.564-24.36-3.2-1.91-1.246-2.67-5.696-2.93-7.75H289s.527 7.17 3.03 8.803 14.957 3.273 24.364 3.195c2.714 0 3.65-1.042 3.603-2.606-.37.954-1.41 1.532-3.432 1.548z" fill="#9e9fb4" opacity=".2"/></g></svg>