<?xml version="1.0" standalone="no"?>
<!DOCTYPE svg PUBLIC "-//W3C//DTD SVG 1.1//EN" "http://www.w3.org/Graphics/SVG/1.1/DTD/svg11.dtd" >
<svg xmlns="http://www.w3.org/2000/svg">
<metadata>Generated by IcoMoon</metadata>
<defs>
<font id="feather" horiz-adv-x="1024">
<font-face units-per-em="1024" ascent="960" descent="-64" />
<missing-glyph horiz-adv-x="1024" />
<glyph unicode="&#x20;" horiz-adv-x="512" d="" />
<glyph unicode="&#xe900;" glyph-name="activity" d="M640 21.333c-17.067 0-34.133 12.8-38.4 29.867l-217.6 644.267-89.6-264.533c-4.267-12.8-21.333-25.6-38.4-25.6h-170.667c-25.6 0-42.667 17.067-42.667 42.667s17.067 42.667 42.667 42.667h140.8l119.467 354.133c4.267 17.067 21.333 29.867 38.4 29.867s34.133-12.8 38.4-29.867l217.6-644.267 89.6 264.533c4.267 17.067 21.333 29.867 38.4 29.867h170.667c25.6 0 42.667-17.067 42.667-42.667s-17.067-42.667-42.667-42.667h-140.8l-119.467-354.133c-4.267-21.333-21.333-34.133-38.4-34.133z" />
<glyph unicode="&#xe901;" glyph-name="airplay" d="M853.333 192h-42.667c-25.6 0-42.667 17.067-42.667 42.667s17.067 42.667 42.667 42.667h42.667c25.6 0 42.667 17.067 42.667 42.667v426.667c0 25.6-17.067 42.667-42.667 42.667h-682.667c-25.6 0-42.667-17.067-42.667-42.667v-426.667c0-25.6 17.067-42.667 42.667-42.667h42.667c25.6 0 42.667-17.067 42.667-42.667s-17.067-42.667-42.667-42.667h-42.667c-72.533 0-128 55.467-128 128v426.667c0 72.533 55.467 128 128 128h682.667c72.533 0 128-55.467 128-128v-426.667c0-72.533-55.467-128-128-128zM725.333 21.333h-426.667c-17.067 0-29.867 8.533-38.4 25.6s-4.267 34.133 4.267 46.933l213.333 256c17.067 21.333 51.2 21.333 64 0l213.333-256c8.533-12.8 12.8-29.867 4.267-46.933-4.267-17.067-17.067-25.6-34.133-25.6zM388.267 106.667h243.2l-119.467 145.067-123.733-145.067z" />
<glyph unicode="&#xe902;" glyph-name="alert-circle" d="M512-21.333c-260.267 0-469.333 209.067-469.333 469.333s209.067 469.333 469.333 469.333 469.333-209.067 469.333-469.333-209.067-469.333-469.333-469.333zM512 832c-213.333 0-384-170.667-384-384s170.667-384 384-384c213.333 0 384 170.667 384 384s-170.667 384-384 384zM512 405.333c-25.6 0-42.667 17.067-42.667 42.667v170.667c0 25.6 17.067 42.667 42.667 42.667s42.667-17.067 42.667-42.667v-170.667c0-25.6-17.067-42.667-42.667-42.667zM512 234.667c-25.6 0-42.667 17.067-42.667 42.667s17.067 42.667 42.667 42.667v0c25.6 0 42.667-17.067 42.667-42.667s-17.067-42.667-42.667-42.667z" />
<glyph unicode="&#xe903;" glyph-name="alert-octagon" d="M686.933-21.333h-349.867c-12.8 0-21.333 4.267-29.867 12.8l-251.733 251.733c-8.533 4.267-12.8 17.067-12.8 29.867v349.867c0 12.8 4.267 21.333 12.8 29.867l251.733 251.733c4.267 8.533 17.067 12.8 29.867 12.8h354.133c12.8 0 21.333-4.267 29.867-12.8l251.733-251.733c4.267-4.267 8.533-17.067 8.533-29.867v-354.133c0-12.8-4.267-21.333-12.8-29.867l-251.733-251.733c-4.267-4.267-17.067-8.533-29.867-8.533zM354.133 64h320l226.133 226.133v315.733l-230.4 226.133h-315.733l-226.133-226.133v-320l226.133-221.867zM512 405.333c-25.6 0-42.667 17.067-42.667 42.667v170.667c0 25.6 17.067 42.667 42.667 42.667s42.667-17.067 42.667-42.667v-170.667c0-25.6-17.067-42.667-42.667-42.667zM512 234.667c-25.6 0-42.667 17.067-42.667 42.667s17.067 42.667 42.667 42.667v0c25.6 0 42.667-17.067 42.667-42.667s-17.067-42.667-42.667-42.667z" />
<glyph unicode="&#xe904;" glyph-name="alert-triangle" d="M149.333 21.333c-21.333 0-42.667 4.267-64 17.067-59.733 34.133-81.067 115.2-46.933 174.933l362.667 605.867c0 0 0 0 0 0 8.533 17.067 25.6 34.133 42.667 42.667 29.867 17.067 64 21.333 98.133 12.8s59.733-29.867 81.067-59.733l358.4-601.6c12.8-21.333 17.067-42.667 17.067-64 0-34.133-12.8-68.267-38.4-89.6-21.333-25.6-51.2-38.4-85.333-38.4h-725.333zM473.6 772.267l-358.4-601.6c-12.8-21.333-4.267-46.933 17.067-59.733 4.267-4.267 12.8-4.267 17.067-4.267h721.067c12.8 0 21.333 4.267 29.867 12.8s12.8 17.067 12.8 29.867c0 8.533 0 12.8-4.267 21.333l-358.4 601.6c-12.8 21.333-38.4 25.6-59.733 17.067-8.533-4.267-12.8-8.533-17.067-17.067zM512 362.667c-25.6 0-42.667 17.067-42.667 42.667v170.667c0 25.6 17.067 42.667 42.667 42.667s42.667-17.067 42.667-42.667v-170.667c0-25.6-17.067-42.667-42.667-42.667zM512 192c-25.6 0-42.667 17.067-42.667 42.667s17.067 42.667 42.667 42.667v0c25.6 0 42.667-17.067 42.667-42.667s-17.067-42.667-42.667-42.667z" />
<glyph unicode="&#xe905;" glyph-name="align-center" d="M768 490.667h-512c-25.6 0-42.667 17.067-42.667 42.667s17.067 42.667 42.667 42.667h512c25.6 0 42.667-17.067 42.667-42.667s-17.067-42.667-42.667-42.667zM896 661.333h-768c-25.6 0-42.667 17.067-42.667 42.667s17.067 42.667 42.667 42.667h768c25.6 0 42.667-17.067 42.667-42.667s-17.067-42.667-42.667-42.667zM896 320h-768c-25.6 0-42.667 17.067-42.667 42.667s17.067 42.667 42.667 42.667h768c25.6 0 42.667-17.067 42.667-42.667s-17.067-42.667-42.667-42.667zM768 149.333h-512c-25.6 0-42.667 17.067-42.667 42.667s17.067 42.667 42.667 42.667h512c25.6 0 42.667-17.067 42.667-42.667s-17.067-42.667-42.667-42.667z" />
<glyph unicode="&#xe906;" glyph-name="align-justify" d="M896 490.667h-768c-25.6 0-42.667 17.067-42.667 42.667s17.067 42.667 42.667 42.667h768c25.6 0 42.667-17.067 42.667-42.667s-17.067-42.667-42.667-42.667zM896 661.333h-768c-25.6 0-42.667 17.067-42.667 42.667s17.067 42.667 42.667 42.667h768c25.6 0 42.667-17.067 42.667-42.667s-17.067-42.667-42.667-42.667zM896 320h-768c-25.6 0-42.667 17.067-42.667 42.667s17.067 42.667 42.667 42.667h768c25.6 0 42.667-17.067 42.667-42.667s-17.067-42.667-42.667-42.667zM896 149.333h-768c-25.6 0-42.667 17.067-42.667 42.667s17.067 42.667 42.667 42.667h768c25.6 0 42.667-17.067 42.667-42.667s-17.067-42.667-42.667-42.667z" />
<glyph unicode="&#xe907;" glyph-name="align-left" d="M725.333 490.667h-597.333c-25.6 0-42.667 17.067-42.667 42.667s17.067 42.667 42.667 42.667h597.333c25.6 0 42.667-17.067 42.667-42.667s-17.067-42.667-42.667-42.667zM896 661.333h-768c-25.6 0-42.667 17.067-42.667 42.667s17.067 42.667 42.667 42.667h768c25.6 0 42.667-17.067 42.667-42.667s-17.067-42.667-42.667-42.667zM896 320h-768c-25.6 0-42.667 17.067-42.667 42.667s17.067 42.667 42.667 42.667h768c25.6 0 42.667-17.067 42.667-42.667s-17.067-42.667-42.667-42.667zM725.333 149.333h-597.333c-25.6 0-42.667 17.067-42.667 42.667s17.067 42.667 42.667 42.667h597.333c25.6 0 42.667-17.067 42.667-42.667s-17.067-42.667-42.667-42.667z" />
<glyph unicode="&#xe908;" glyph-name="align-right" d="M896 490.667h-597.333c-25.6 0-42.667 17.067-42.667 42.667s17.067 42.667 42.667 42.667h597.333c25.6 0 42.667-17.067 42.667-42.667s-17.067-42.667-42.667-42.667zM896 661.333h-768c-25.6 0-42.667 17.067-42.667 42.667s17.067 42.667 42.667 42.667h768c25.6 0 42.667-17.067 42.667-42.667s-17.067-42.667-42.667-42.667zM896 320h-768c-25.6 0-42.667 17.067-42.667 42.667s17.067 42.667 42.667 42.667h768c25.6 0 42.667-17.067 42.667-42.667s-17.067-42.667-42.667-42.667zM896 149.333h-597.333c-25.6 0-42.667 17.067-42.667 42.667s17.067 42.667 42.667 42.667h597.333c25.6 0 42.667-17.067 42.667-42.667s-17.067-42.667-42.667-42.667z" />
<glyph unicode="&#xe909;" glyph-name="anchor" d="M938.667 490.667h-128c-25.6 0-42.667-17.067-42.667-42.667s17.067-42.667 42.667-42.667h81.067c-21.333-179.2-162.133-320-337.067-337.067v512c72.533 21.333 128 85.333 128 166.4 0 93.867-76.8 170.667-170.667 170.667s-170.667-76.8-170.667-170.667c0-76.8 55.467-145.067 128-166.4v-516.267c-174.933 21.333-315.733 162.133-337.067 337.067h81.067c25.6 0 42.667 17.067 42.667 42.667s-17.067 42.667-42.667 42.667h-128c-25.6 0-42.667-17.067-42.667-42.667 0-260.267 209.067-469.333 469.333-469.333s469.333 209.067 469.333 469.333c0 29.867-17.067 46.933-42.667 46.933zM426.667 746.667c0 46.933 38.4 85.333 85.333 85.333s85.333-38.4 85.333-85.333-38.4-85.333-85.333-85.333-85.333 38.4-85.333 85.333z" />
<glyph unicode="&#xe90a;" glyph-name="aperture" d="M627.2 661.333h-21.333c4.267 0 12.8 0 21.333 0zM900.267 179.2c0-8.533-8.533-12.8-12.8-17.067 4.267 8.533 8.533 12.8 12.8 17.067zM947.2 627.2c-4.267 4.267-8.533 12.8-8.533 21.333 4.267-8.533 8.533-12.8 8.533-21.333zM85.333 247.467c-4.267 4.267-8.533 12.8-8.533 21.333 4.267-4.267 8.533-12.8 8.533-21.333zM947.2 627.2c-4.267 4.267-8.533 12.8-8.533 21.333-76.8 157.867-238.933 268.8-426.667 268.8-260.267 0-469.333-209.067-469.333-469.333 0-64 12.8-123.733 34.133-179.2 4.267-4.267 8.533-12.8 8.533-21.333 76.8-157.867 238.933-268.8 426.667-268.8 153.6 0 290.133 72.533 375.467 183.467 4.267 4.267 8.533 12.8 12.8 17.067 51.2 76.8 81.067 166.4 81.067 268.8 0 64-12.8 123.733-34.133 179.2zM584.533 823.467c102.4-17.067 192-76.8 247.467-162.133h-341.333l93.867 162.133zM661.333 452.267l-76.8-132.267h-145.067l-72.533 128 72.533 128h149.333l72.533-123.733zM486.4 832l-170.667-294.4-93.867 162.133c64 76.8 157.867 123.733 264.533 132.267zM149.333 320c-12.8 38.4-21.333 85.333-21.333 128 0 59.733 12.8 119.467 38.4 170.667l170.667-298.667h-187.733zM439.467 72.533c-102.4 17.067-192 76.8-247.467 162.133h341.333l-93.867-162.133zM537.6 64l170.667 298.667 93.867-166.4c-64-72.533-157.867-123.733-264.533-132.267zM857.6 281.6l-170.667 294.4h183.467c12.8-38.4 21.333-85.333 21.333-128 4.267-59.733-8.533-115.2-34.133-166.4z" />
<glyph unicode="&#xe90b;" glyph-name="archive" d="M981.333 874.667h-938.667c-25.6 0-42.667-17.067-42.667-42.667v-213.333c0-25.6 17.067-42.667 42.667-42.667h42.667v-512c0-25.6 17.067-42.667 42.667-42.667h768c25.6 0 42.667 17.067 42.667 42.667v512h42.667c25.6 0 42.667 17.067 42.667 42.667v213.333c0 25.6-17.067 42.667-42.667 42.667zM853.333 106.667h-682.667v469.333h682.667v-469.333zM938.667 661.333h-853.333v128h853.333v-128zM597.333 405.333h-170.667c-25.6 0-42.667 17.067-42.667 42.667s17.067 42.667 42.667 42.667h170.667c25.6 0 42.667-17.067 42.667-42.667s-17.067-42.667-42.667-42.667z" />
<glyph unicode="&#xe90c;" glyph-name="arrow-down-circle" d="M512-21.333c-260.267 0-469.333 209.067-469.333 469.333s209.067 469.333 469.333 469.333 469.333-209.067 469.333-469.333-209.067-469.333-469.333-469.333zM512 832c-213.333 0-384-170.667-384-384s170.667-384 384-384 384 170.667 384 384-170.667 384-384 384zM712.533 418.133l-170.667-170.667c-4.267-4.267-4.267-4.267-8.533-4.267 0 0 0 0 0 0-4.267 0-8.533-4.267-12.8-4.267s-4.267 0-8.533 0-8.533 0-8.533 0-8.533 4.267-12.8 4.267c0 0 0 0 0 0s0 0 0 0c-4.267 0-4.267 4.267-8.533 4.267l-170.667 170.667c-17.067 17.067-17.067 42.667 0 59.733s42.667 17.067 59.733 0l98.133-98.133v238.933c0 25.6 17.067 42.667 42.667 42.667s42.667-17.067 42.667-42.667v-238.933l98.133 98.133c17.067 17.067 42.667 17.067 59.733 0s17.067-42.667 0-59.733zM490.667 243.2c-4.267 4.267-12.8 8.533-12.8 12.8l8.533-8.533c0-4.267 0-4.267 4.267-4.267zM550.4 256c-4.267-4.267-8.533-8.533-12.8-12.8 4.267 0 4.267 4.267 8.533 4.267l4.267 8.533z" />
<glyph unicode="&#xe90d;" glyph-name="arrow-down-left" d="M768 234.667c0-25.6-17.067-42.667-42.667-42.667h-426.667c-4.267 0-8.533 0-8.533 0s-4.267 0-4.267 0-8.533 4.267-17.067 8.533-8.533 8.533-8.533 17.067c0 0 0 4.267 0 4.267 0 4.267 0 4.267 0 8.533v430.933c0 25.6 17.067 42.667 42.667 42.667s42.667-17.067 42.667-42.667v-324.267l354.133 354.133c17.067 17.067 42.667 17.067 59.733 0s17.067-42.667 0-59.733l-358.4-354.133h324.267c25.6 0 42.667-17.067 42.667-42.667zM285.867 196.267c-12.8 4.267-21.333 12.8-25.6 25.6 0-4.267 4.267-12.8 8.533-17.067s8.533-8.533 17.067-8.533z" />
<glyph unicode="&#xe90e;" glyph-name="arrow-down-right" d="M768 661.333v-426.667c0-4.267 0-4.267 0-8.533 0 0 0-4.267 0-4.267 0-4.267-4.267-12.8-8.533-17.067s-8.533-8.533-17.067-8.533c0 0-4.267 0-4.267 0-4.267 0-4.267 0-8.533 0h-430.933c-25.6 0-42.667 17.067-42.667 42.667s17.067 42.667 42.667 42.667h324.267l-354.133 349.867c-17.067 17.067-17.067 42.667 0 59.733s42.667 17.067 59.733 0l354.133-354.133v324.267c0 25.6 17.067 42.667 42.667 42.667s42.667-17.067 42.667-42.667zM763.733 221.867c-4.267-12.8-12.8-21.333-25.6-25.6 4.267 0 8.533 4.267 17.067 8.533s8.533 8.533 8.533 17.067z" />
<glyph unicode="&#xe90f;" glyph-name="arrow-down" d="M503.467 106.667c-4.267 0-8.533 4.267-12.8 4.267 4.267 0 8.533-4.267 12.8-4.267zM482.133 119.467c4.267-4.267 4.267-4.267 8.533-8.533-8.533 4.267-12.8 8.533-17.067 12.8l8.533-4.267zM520.533 106.667c4.267 0 8.533 4.267 12.8 4.267-4.267 0-8.533-4.267-12.8-4.267zM533.333 110.933c4.267 0 4.267 4.267 8.533 8.533l8.533 8.533c-4.267-8.533-12.8-12.8-17.067-17.067zM840.533 418.133l-298.667-298.667c-8.533-4.267-12.8-8.533-21.333-12.8-4.267 0-4.267 0-8.533 0s-8.533 0-8.533 0c-8.533 0-12.8 4.267-21.333 12.8l-298.667 298.667c-17.067 17.067-17.067 42.667 0 59.733s42.667 17.067 59.733 0l226.133-226.133v494.933c0 25.6 17.067 42.667 42.667 42.667s42.667-17.067 42.667-42.667v-494.933l226.133 226.133c17.067 17.067 42.667 17.067 59.733 0s17.067-42.667 0-59.733z" />
<glyph unicode="&#xe910;" glyph-name="arrow-left-circle" d="M512 917.333c-260.267 0-469.333-209.067-469.333-469.333s209.067-469.333 469.333-469.333 469.333 209.067 469.333 469.333-209.067 469.333-469.333 469.333zM512 64c-213.333 0-384 170.667-384 384s170.667 384 384 384 384-170.667 384-384-170.667-384-384-384zM725.333 448c0-25.6-17.067-42.667-42.667-42.667h-238.933l98.133-98.133c17.067-17.067 17.067-42.667 0-59.733-8.533-8.533-17.067-12.8-29.867-12.8s-21.333 4.267-29.867 12.8l-170.667 170.667c-4.267 8.533-8.533 12.8-12.8 21.333 0 4.267 0 4.267 0 8.533s0 4.267 0 8.533c0 8.533 4.267 17.067 12.8 21.333l170.667 170.667c17.067 17.067 42.667 17.067 59.733 0s17.067-42.667 0-59.733l-98.133-98.133h238.933c25.6 0 42.667-17.067 42.667-42.667zM320 409.6c-8.533 4.267-17.067 17.067-17.067 29.867 0-8.533 4.267-17.067 12.8-21.333l4.267-8.533zM320 486.4l-8.533-8.533c-4.267-8.533-8.533-12.8-12.8-21.333 4.267 12.8 8.533 21.333 21.333 29.867z" />
<glyph unicode="&#xe911;" glyph-name="arrow-left" d="M192 409.6c-8.533 4.267-17.067 17.067-17.067 29.867 0-8.533 4.267-17.067 12.8-21.333l4.267-8.533zM192 486.4l-8.533-8.533c-4.267-8.533-8.533-12.8-12.8-21.333 4.267 12.8 8.533 21.333 21.333 29.867zM853.333 448c0-25.6-17.067-42.667-42.667-42.667h-494.933l226.133-226.133c17.067-17.067 17.067-42.667 0-59.733-8.533-8.533-17.067-12.8-29.867-12.8s-21.333 4.267-29.867 12.8l-298.667 298.667c-4.267 8.533-8.533 12.8-12.8 21.333 0 4.267 0 8.533 0 17.067s4.267 17.067 12.8 21.333l298.667 298.667c17.067 17.067 42.667 17.067 59.733 0s17.067-42.667 0-59.733l-226.133-226.133h494.933c25.6 0 42.667-17.067 42.667-42.667z" />
<glyph unicode="&#xe912;" glyph-name="arrow-right-circle" d="M512 917.333c-260.267 0-469.333-209.067-469.333-469.333s209.067-469.333 469.333-469.333 469.333 209.067 469.333 469.333-209.067 469.333-469.333 469.333zM512 64c-213.333 0-384 170.667-384 384s170.667 384 384 384 384-170.667 384-384-170.667-384-384-384zM725.333 448c0-4.267 0-4.267 0-8.533 0-8.533-4.267-17.067-12.8-21.333l-170.667-170.667c-8.533-8.533-17.067-12.8-29.867-12.8s-21.333 4.267-29.867 12.8c-17.067 17.067-17.067 42.667 0 59.733l98.133 98.133h-238.933c-25.6 0-42.667 17.067-42.667 42.667s17.067 42.667 42.667 42.667h238.933l-98.133 98.133c-17.067 17.067-17.067 42.667 0 59.733s42.667 17.067 59.733 0l170.667-170.667c4.267-8.533 8.533-12.8 12.8-21.333 0-4.267 0-4.267 0-8.533zM725.333 439.467c0-12.8-8.533-21.333-17.067-29.867l8.533 8.533c0 8.533 4.267 12.8 8.533 21.333zM725.333 456.533c0 8.533-4.267 17.067-12.8 21.333l-8.533 8.533c12.8-8.533 17.067-17.067 21.333-29.867z" />
<glyph unicode="&#xe913;" glyph-name="arrow-right" d="M853.333 456.533c0-4.267 0-8.533 0-17.067s-4.267-17.067-12.8-21.333l-298.667-298.667c-8.533-8.533-17.067-12.8-29.867-12.8s-21.333 4.267-29.867 12.8c-17.067 17.067-17.067 42.667 0 59.733l226.133 226.133h-494.933c-25.6 0-42.667 17.067-42.667 42.667s17.067 42.667 42.667 42.667h494.933l-226.133 226.133c-17.067 17.067-17.067 42.667 0 59.733s42.667 17.067 59.733 0l298.667-298.667c4.267-8.533 8.533-12.8 12.8-21.333zM840.533 418.133c4.267 8.533 8.533 12.8 12.8 21.333 0-12.8-8.533-21.333-17.067-29.867l4.267 8.533zM840.533 477.867l-8.533 8.533c8.533-4.267 17.067-17.067 17.067-29.867 0 8.533-4.267 12.8-8.533 21.333z" />
<glyph unicode="&#xe914;" glyph-name="arrow-up-circle" d="M512-21.333c-260.267 0-469.333 209.067-469.333 469.333s209.067 469.333 469.333 469.333 469.333-209.067 469.333-469.333-209.067-469.333-469.333-469.333zM512 832c-213.333 0-384-170.667-384-384s170.667-384 384-384 384 170.667 384 384-170.667 384-384 384zM712.533 418.133c-8.533-8.533-17.067-12.8-29.867-12.8s-21.333 4.267-29.867 12.8l-98.133 98.133v-238.933c0-25.6-17.067-42.667-42.667-42.667s-42.667 17.067-42.667 42.667v238.933l-98.133-98.133c-17.067-17.067-42.667-17.067-59.733 0s-17.067 42.667 0 59.733l170.667 170.667c8.533 4.267 12.8 8.533 21.333 12.8 4.267 0 4.267 0 8.533 0s4.267 0 8.533 0c8.533 0 17.067-4.267 21.333-12.8l170.667-170.667c17.067-17.067 17.067-42.667 0-59.733zM503.467 661.333c-8.533 0-17.067-4.267-21.333-12.8l-8.533-8.533c8.533 12.8 17.067 17.067 29.867 21.333zM550.4 640l-8.533 8.533c-8.533 4.267-12.8 8.533-21.333 12.8 12.8-4.267 21.333-8.533 29.867-21.333z" />
<glyph unicode="&#xe915;" glyph-name="arrow-up-left" d="M755.2 264.533c17.067-17.067 17.067-42.667 0-59.733-8.533-8.533-17.067-12.8-29.867-12.8s-21.333 4.267-29.867 12.8l-354.133 354.133v-324.267c0-25.6-17.067-42.667-42.667-42.667s-42.667 17.067-42.667 42.667v426.667c0 4.267 0 4.267 0 8.533 0 8.533 4.267 17.067 12.8 21.333s12.8 8.533 21.333 12.8c4.267 0 4.267 0 8.533 0h426.667c25.6 0 42.667-17.067 42.667-42.667s-17.067-42.667-42.667-42.667h-324.267l354.133-354.133zM290.133 704c-8.533 0-17.067-4.267-21.333-12.8s-8.533-12.8-12.8-21.333c4.267 17.067 17.067 29.867 34.133 34.133z" />
<glyph unicode="&#xe916;" glyph-name="arrow-up-right" d="M768 661.333v-426.667c0-25.6-17.067-42.667-42.667-42.667s-42.667 17.067-42.667 42.667v324.267l-354.133-354.133c-8.533-8.533-17.067-12.8-29.867-12.8s-21.333 4.267-29.867 12.8c-17.067 17.067-17.067 42.667 0 59.733l354.133 354.133h-324.267c-25.6 0-42.667 17.067-42.667 42.667s17.067 42.667 42.667 42.667h426.667c4.267 0 4.267 0 8.533 0 8.533 0 17.067-4.267 21.333-12.8s8.533-12.8 12.8-21.333c0-4.267 0-4.267 0-8.533zM768 669.867c0 8.533-4.267 17.067-12.8 21.333s-12.8 8.533-21.333 12.8c17.067-4.267 29.867-17.067 34.133-34.133z" />
<glyph unicode="&#xe917;" glyph-name="arrow-up" d="M840.533 418.133c-8.533-8.533-17.067-12.8-29.867-12.8s-21.333 4.267-29.867 12.8l-226.133 226.133v-494.933c0-21.333-21.333-42.667-42.667-42.667s-42.667 21.333-42.667 42.667v494.933l-226.133-226.133c-17.067-17.067-42.667-17.067-59.733 0s-17.067 42.667 0 59.733l298.667 298.667c4.267 4.267 8.533 8.533 12.8 8.533 0 0 4.267 0 4.267 0 8.533 0 12.8 0 21.333 0 0 0 4.267 0 4.267 0 4.267 0 8.533-4.267 12.8-8.533l298.667-298.667c21.333-17.067 21.333-42.667 4.267-59.733z" />
<glyph unicode="&#xe918;" glyph-name="at-sign" d="M512 917.333c-123.733 0-243.2-51.2-332.8-136.533-89.6-89.6-136.533-209.067-136.533-332.8 0-260.267 209.067-469.333 469.333-469.333 102.4 0 204.8 34.133 285.867 98.133 17.067 12.8 21.333 42.667 8.533 59.733s-42.667 21.333-59.733 8.533c-68.267-51.2-149.333-81.067-234.667-81.067-213.333 0-384 170.667-384 384 0 102.4 38.4 200.533 110.933 273.067s170.667 110.933 273.067 110.933c213.333 0 384-170.667 384-384v-42.667c0-46.933-38.4-85.333-85.333-85.333s-85.333 38.4-85.333 85.333v213.333c0 21.333-21.333 42.667-42.667 42.667s-42.667-21.333-42.667-42.667c-34.133 25.6-81.067 42.667-128 42.667-119.467 0-213.333-93.867-213.333-213.333s93.867-213.333 213.333-213.333c64 0 119.467 29.867 157.867 72.533 29.867-42.667 81.067-72.533 140.8-72.533 93.867 0 170.667 76.8 170.667 170.667v42.667c0 260.267-209.067 469.333-469.333 469.333zM512 320c-72.533 0-128 55.467-128 128s55.467 128 128 128 128-55.467 128-128-55.467-128-128-128z" />
<glyph unicode="&#xe919;" glyph-name="award" d="M853.333 618.667c0 187.733-153.6 341.333-341.333 341.333s-341.333-153.6-341.333-341.333c0-110.933 51.2-209.067 132.267-268.8l-46.933-366.933c0-17.067 4.267-34.133 17.067-42.667s29.867-8.533 46.933 0l192 115.2 192-115.2c4.267-4.267 12.8-4.267 21.333-4.267s17.067 0 21.333 8.533 21.333 25.6 17.067 42.667l-46.933 362.667c85.333 59.733 136.533 157.867 136.533 268.8zM256 618.667c0 140.8 115.2 256 256 256s256-115.2 256-256c0-89.6-46.933-166.4-115.2-213.333 0 0-4.267-4.267-8.533-4.267-38.4-25.6-85.333-38.4-136.533-38.4-136.533 0-251.733 115.2-251.733 256zM669.867 59.733l-136.533 81.067c-12.8 8.533-29.867 8.533-42.667 0l-136.533-81.067 29.867 243.2c38.4-17.067 81.067-25.6 128-25.6s89.6 8.533 128 25.6l29.867-243.2z" />
<glyph unicode="&#xe91a;" glyph-name="bar-chart-2" d="M768 64c-25.6 0-42.667 17.067-42.667 42.667v426.667c0 25.6 17.067 42.667 42.667 42.667s42.667-17.067 42.667-42.667v-426.667c0-25.6-17.067-42.667-42.667-42.667zM512 64c-25.6 0-42.667 17.067-42.667 42.667v682.667c0 25.6 17.067 42.667 42.667 42.667s42.667-17.067 42.667-42.667v-682.667c0-25.6-17.067-42.667-42.667-42.667zM256 64c-25.6 0-42.667 17.067-42.667 42.667v256c0 25.6 17.067 42.667 42.667 42.667s42.667-17.067 42.667-42.667v-256c0-25.6-17.067-42.667-42.667-42.667z" />
<glyph unicode="&#xe91b;" glyph-name="bar-chart" d="M512 64c-25.6 0-42.667 17.067-42.667 42.667v426.667c0 25.6 17.067 42.667 42.667 42.667s42.667-17.067 42.667-42.667v-426.667c0-25.6-17.067-42.667-42.667-42.667zM768 64c-25.6 0-42.667 17.067-42.667 42.667v682.667c0 25.6 17.067 42.667 42.667 42.667s42.667-17.067 42.667-42.667v-682.667c0-25.6-17.067-42.667-42.667-42.667zM256 64c-25.6 0-42.667 17.067-42.667 42.667v170.667c0 25.6 17.067 42.667 42.667 42.667s42.667-17.067 42.667-42.667v-170.667c0-25.6-17.067-42.667-42.667-42.667z" />
<glyph unicode="&#xe91c;" glyph-name="battery-charging" d="M725.333 149.333h-136.533c-25.6 0-42.667 17.067-42.667 42.667s17.067 42.667 42.667 42.667h136.533c25.6 0 42.667 17.067 42.667 42.667v341.333c0 25.6-17.067 42.667-42.667 42.667h-85.333c-25.6 0-42.667 17.067-42.667 42.667s17.067 42.667 42.667 42.667h85.333c72.533 0 128-55.467 128-128v-341.333c0-72.533-55.467-128-128-128zM213.333 149.333h-85.333c-72.533 0-128 55.467-128 128v341.333c0 72.533 55.467 128 128 128h136.533c25.6 0 42.667-17.067 42.667-42.667s-17.067-42.667-42.667-42.667h-136.533c-25.6 0-42.667-17.067-42.667-42.667v-341.333c0-25.6 17.067-42.667 42.667-42.667h85.333c25.6 0 42.667-17.067 42.667-42.667s-17.067-42.667-42.667-42.667zM981.333 362.667c-25.6 0-42.667 17.067-42.667 42.667v85.333c0 25.6 17.067 42.667 42.667 42.667s42.667-17.067 42.667-42.667v-85.333c0-25.6-17.067-42.667-42.667-42.667zM384 149.333c-8.533 0-17.067 4.267-25.6 8.533-21.333 12.8-25.6 38.4-12.8 59.733l128 187.733h-174.933c-17.067 0-29.867 8.533-38.4 21.333s-8.533 29.867 0 42.667l170.667 256c12.8 21.333 38.4 25.6 59.733 12.8s25.6-38.4 12.8-59.733l-128-187.733h179.2c17.067 0 29.867-8.533 38.4-21.333s8.533-29.867 0-42.667l-170.667-256c-12.8-12.8-25.6-21.333-38.4-21.333z" />
<glyph unicode="&#xe91d;" glyph-name="battery" d="M725.333 149.333h-597.333c-72.533 0-128 55.467-128 128v341.333c0 72.533 55.467 128 128 128h597.333c72.533 0 128-55.467 128-128v-341.333c0-72.533-55.467-128-128-128zM128 661.333c-25.6 0-42.667-17.067-42.667-42.667v-341.333c0-25.6 17.067-42.667 42.667-42.667h597.333c25.6 0 42.667 17.067 42.667 42.667v341.333c0 25.6-17.067 42.667-42.667 42.667h-597.333zM981.333 362.667c-25.6 0-42.667 17.067-42.667 42.667v85.333c0 25.6 17.067 42.667 42.667 42.667s42.667-17.067 42.667-42.667v-85.333c0-25.6-17.067-42.667-42.667-42.667z" />
<glyph unicode="&#xe91e;" glyph-name="behance" d="M422.4 477.867c21.333 12.8 38.4 21.333 46.933 34.133 21.333 21.333 29.867 55.467 29.867 93.867s-8.533 68.267-29.867 93.867c-34.133 42.667-85.333 64-162.133 68.267h-307.2v-622.933h285.867c34.133 0 64 4.267 89.6 8.533s51.2 17.067 72.533 29.867c17.067 12.8 34.133 29.867 46.933 51.2 17.067 29.867 29.867 64 29.867 98.133s-8.533 68.267-25.6 89.6c-21.333 25.6-46.933 42.667-76.8 55.467zM128 661.333h136.533c29.867 0 55.467-4.267 76.8-8.533 21.333-8.533 34.133-29.867 34.133-59.733 0-25.6-8.533-42.667-25.6-55.467-17.067-8.533-38.4-17.067-68.267-17.067h-153.6v140.8zM345.6 264.533c-17.067-8.533-38.4-12.8-64-12.8h-153.6v166.4h157.867c25.6 0 46.933-4.267 64-8.533 21.333-12.8 34.133-34.133 34.133-68.267 0-38.4-12.8-64-38.4-76.8zM652.8 738.133h273.067v-76.8h-273.067v76.8zM1019.733 430.933c-4.267 34.133-17.067 68.267-38.4 93.867-21.333 29.867-46.933 55.467-81.067 68.267-29.867 17.067-68.267 25.6-106.667 25.6-68.267 0-123.733-21.333-166.4-64s-64-102.4-64-183.467c0-85.333 25.6-145.067 72.533-183.467s102.4-55.467 166.4-55.467c76.8 0 132.267 21.333 174.933 68.267 25.6 29.867 42.667 55.467 46.933 85.333h-123.733c-8.533-12.8-17.067-25.6-25.6-29.867-17.067-12.8-38.4-21.333-68.267-21.333-25.6 0-46.933 4.267-68.267 17.067-29.867 17.067-46.933 51.2-46.933 98.133h341.333c-8.533 29.867-8.533 59.733-12.8 81.067zM686.933 422.4c4.267 29.867 17.067 55.467 34.133 72.533s42.667 25.6 72.533 25.6c29.867 0 51.2-8.533 72.533-25.6s29.867-42.667 34.133-72.533h-213.333z" />
<glyph unicode="&#xe91f;" glyph-name="bell-off" d="M512-21.333c-21.333 0-42.667 4.267-64 17.067s-34.133 25.6-46.933 46.933c-12.8 21.333-4.267 46.933 17.067 59.733s46.933 4.267 59.733-17.067c4.267-4.267 8.533-12.8 17.067-17.067 21.333-12.8 46.933-4.267 59.733 17.067s38.4 25.6 59.733 17.067c21.333-12.8 25.6-38.4 17.067-59.733-34.133-42.667-76.8-64-119.467-64zM806.4 362.667c-4.267 0-8.533 0-12.8 0-17.067 0-34.133 12.8-42.667 29.867-17.067 76.8-25.6 149.333-25.6 226.133 0 0 0 0 0 0 0 55.467-21.333 110.933-64 149.333-38.4 42.667-93.867 64-149.333 64 0 0 0 0 0 0-42.667 0-85.333-12.8-119.467-34.133-17.067-12.8-46.933-8.533-59.733 8.533-12.8 21.333-4.267 46.933 12.8 59.733 51.2 34.133 106.667 51.2 166.4 51.2v0c162.133 0 298.667-132.267 298.667-298.667 0 0 0 0 0 0s0 0 0 0c0-68.267 8.533-136.533 25.6-200.533 4.267-25.6-8.533-46.933-29.867-55.467zM1011.2 8.533l-256 256-456.533 460.8-226.133 221.867c-17.067 17.067-42.667 17.067-59.733 0s-17.067-42.667 0-59.733l209.067-209.067c-8.533-17.067-8.533-38.4-8.533-59.733 0-268.8-106.667-349.867-106.667-349.867-17.067-8.533-21.333-29.867-17.067-46.933s21.333-29.867 38.4-29.867h580.267l243.2-243.2c8.533-8.533 21.333-12.8 29.867-12.8s21.333 4.267 29.867 12.8c17.067 17.067 17.067 42.667 0 59.733zM217.6 277.333c38.4 59.733 76.8 162.133 81.067 324.267l324.267-324.267h-405.333z" />
<glyph unicode="&#xe920;" glyph-name="bell" d="M896 192h-768c-17.067 0-34.133 12.8-42.667 29.867-4.267 17.067 0 38.4 17.067 46.933 0 0 110.933 81.067 110.933 349.867 0 166.4 132.267 298.667 298.667 298.667s298.667-132.267 298.667-298.667c0-268.8 106.667-349.867 110.933-349.867 17.067-12.8 21.333-29.867 17.067-46.933s-25.6-29.867-42.667-29.867zM217.6 277.333h584.533c-34.133 64-76.8 170.667-76.8 341.333 0 119.467-93.867 213.333-213.333 213.333s-213.333-93.867-213.333-213.333c0-170.667-42.667-277.333-81.067-341.333zM512-21.333c-21.333 0-42.667 4.267-64 17.067s-34.133 25.6-46.933 46.933c-12.8 21.333-4.267 46.933 17.067 59.733s46.933 4.267 59.733-17.067c4.267-4.267 8.533-12.8 17.067-17.067 21.333-12.8 46.933-4.267 59.733 17.067s38.4 25.6 59.733 17.067c21.333-12.8 25.6-38.4 17.067-59.733-34.133-42.667-76.8-64-119.467-64z" />
<glyph unicode="&#xe921;" glyph-name="bluetooth" d="M512-64c-4.267 0-12.8 0-17.067 4.267-17.067 4.267-25.6 21.333-25.6 38.4v366.933l-162.133-162.133c-17.067-17.067-42.667-17.067-59.733 0s-17.067 42.667 0 59.733l204.8 204.8-204.8 204.8c-17.067 17.067-17.067 42.667 0 59.733s42.667 17.067 59.733 0l162.133-162.133v366.933c0 17.067 8.533 34.133 25.6 38.4 17.067 8.533 34.133 4.267 46.933-8.533l234.667-234.667c17.067-17.067 17.067-42.667 0-59.733l-204.8-204.8 204.8-204.8c17.067-17.067 17.067-42.667 0-59.733l-234.667-234.667c-8.533-8.533-17.067-12.8-29.867-12.8zM554.667 345.6v-264.533l132.267 132.267-132.267 132.267zM554.667 814.933v-264.533l132.267 132.267-132.267 132.267z" />
<glyph unicode="&#xe922;" glyph-name="bold" d="M742.4 465.067c42.667 38.4 68.267 93.867 68.267 153.6 0 119.467-93.867 213.333-213.333 213.333h-341.333c-21.333 0-42.667-21.333-42.667-42.667v-682.667c0-21.333 21.333-42.667 42.667-42.667h384c119.467 0 213.333 93.867 213.333 213.333 0 81.067-42.667 149.333-110.933 187.733zM298.667 746.667h298.667c72.533 0 128-55.467 128-128s-55.467-128-128-128h-298.667v256zM640 149.333h-341.333v256h341.333c72.533 0 128-55.467 128-128s-55.467-128-128-128z" />
<glyph unicode="&#xe923;" glyph-name="book-open" d="M938.667 874.667h-256c-68.267 0-132.267-34.133-170.667-85.333-38.4 51.2-102.4 85.333-170.667 85.333h-256c-21.333 0-42.667-21.333-42.667-42.667v-640c0-21.333 21.333-42.667 42.667-42.667h298.667c46.933 0 85.333-38.4 85.333-85.333 0-21.333 21.333-42.667 42.667-42.667s42.667 21.333 42.667 42.667c0 46.933 38.4 85.333 85.333 85.333h298.667c21.333 0 42.667 21.333 42.667 42.667v640c0 21.333-21.333 42.667-42.667 42.667zM469.333 213.333c-25.6 12.8-55.467 21.333-85.333 21.333h-256v554.667h213.333c72.533 0 128-55.467 128-128v-448zM896 234.667h-256c-29.867 0-59.733-8.533-85.333-21.333v448c0 72.533 55.467 128 128 128h213.333v-554.667z" />
<glyph unicode="&#xe924;" glyph-name="book" d="M853.333 917.333h-576c-81.067 0-149.333-68.267-149.333-149.333v-640c0-81.067 68.267-149.333 149.333-149.333h576c21.333 0 42.667 21.333 42.667 42.667v853.333c0 21.333-21.333 42.667-42.667 42.667zM213.333 768c0 34.133 29.867 64 64 64h533.333v-554.667h-533.333c-21.333 0-42.667-4.267-64-12.8v503.467zM810.667 64h-533.333c-34.133 0-64 29.867-64 64s29.867 64 64 64h533.333v-128z" />
<glyph unicode="&#xe925;" glyph-name="bookmark" d="M810.667 21.333c-8.533 0-17.067 4.267-25.6 8.533l-273.067 196.267-273.067-196.267c-12.8-8.533-29.867-8.533-42.667-4.267s-25.6 21.333-25.6 38.4v682.667c0 72.533 55.467 128 128 128h426.667c72.533 0 128-55.467 128-128v-682.667c0-17.067-8.533-29.867-21.333-38.4-8.533-4.267-12.8-4.267-21.333-4.267zM512 320c8.533 0 17.067-4.267 25.6-8.533l230.4-166.4v601.6c0 25.6-17.067 42.667-42.667 42.667h-426.667c-25.6 0-42.667-17.067-42.667-42.667v-601.6l230.4 166.4c8.533 4.267 17.067 8.533 25.6 8.533z" />
<glyph unicode="&#xe926;" glyph-name="box" d="M925.867 674.133c0 0 0 0 0 0-4.267 8.533-8.533 12.8-12.8 21.333-8.533 12.8-25.6 25.6-38.4 34.133l-298.667 170.667c-38.4 21.333-89.6 21.333-128 0l-298.667-170.667c-17.067-8.533-29.867-21.333-38.4-34.133-4.267-8.533-8.533-12.8-12.8-21.333 0 0 0 0 0 0-8.533-17.067-12.8-34.133-12.8-55.467v-341.333c0-46.933 25.6-89.6 64-110.933l298.667-170.667c12.8-8.533 29.867-12.8 42.667-17.067 8.533 0 12.8 0 21.333 0s12.8 0 21.333 0c17.067 0 29.867 8.533 42.667 17.067l298.667 170.667c38.4 21.333 64 64 64 110.933v341.333c0 21.333-4.267 38.4-12.8 55.467zM469.333 81.067l-277.333 157.867c-12.8 8.533-21.333 25.6-21.333 38.4v320l298.667-174.933v-341.333zM512 499.2l-298.667 170.667 277.333 157.867c8.533 4.267 12.8 4.267 21.333 4.267s12.8 0 21.333-4.267l277.333-157.867-298.667-170.667zM853.333 277.333c0-12.8-8.533-29.867-21.333-38.4l-277.333-157.867v341.333l298.667 174.933v-320zM110.933 695.467c-4.267-8.533-8.533-12.8-12.8-21.333 0 4.267 0 8.533 4.267 8.533 4.267 4.267 4.267 8.533 8.533 12.8zM925.867 674.133c-4.267 8.533-8.533 12.8-12.8 17.067 4.267-4.267 4.267-4.267 8.533-8.533 0 0 4.267-4.267 4.267-8.533z" />
<glyph unicode="&#xe927;" glyph-name="briefcase" d="M853.333 704h-128v42.667c0 72.533-55.467 128-128 128h-170.667c-72.533 0-128-55.467-128-128v-42.667h-128c-72.533 0-128-55.467-128-128v-426.667c0-72.533 55.467-128 128-128h682.667c72.533 0 128 55.467 128 128v426.667c0 72.533-55.467 128-128 128zM298.667 106.667h-128c-21.333 0-42.667 21.333-42.667 42.667v426.667c0 21.333 21.333 42.667 42.667 42.667h128v-512zM384 746.667c0 21.333 21.333 42.667 42.667 42.667h170.667c21.333 0 42.667-21.333 42.667-42.667v-42.667h-256v42.667zM384 618.667h256v-512h-256v512zM896 149.333c0-21.333-21.333-42.667-42.667-42.667h-128v512h128c21.333 0 42.667-21.333 42.667-42.667v-426.667z" />
<glyph unicode="&#xe928;" glyph-name="calendar" d="M810.667 832h-85.333v42.667c0 21.333-21.333 42.667-42.667 42.667s-42.667-21.333-42.667-42.667v-42.667h-256v42.667c0 21.333-21.333 42.667-42.667 42.667s-42.667-21.333-42.667-42.667v-42.667h-85.333c-72.533 0-128-55.467-128-128v-597.333c0-72.533 55.467-128 128-128h597.333c72.533 0 128 55.467 128 128v597.333c0 72.533-55.467 128-128 128zM853.333 106.667c0-21.333-21.333-42.667-42.667-42.667h-597.333c-21.333 0-42.667 21.333-42.667 42.667v384h682.667v-384zM853.333 576h-682.667v128c0 21.333 21.333 42.667 42.667 42.667h85.333v-42.667c0-21.333 21.333-42.667 42.667-42.667s42.667 21.333 42.667 42.667v42.667h256v-42.667c0-21.333 21.333-42.667 42.667-42.667s42.667 21.333 42.667 42.667v42.667h85.333c21.333 0 42.667-21.333 42.667-42.667v-128z" />
<glyph unicode="&#xe929;" glyph-name="camera-off" d="M896 746.667h-149.333l-72.533 106.667c-4.267 12.8-21.333 21.333-34.133 21.333h-256c-21.333 0-42.667-21.333-42.667-42.667s21.333-42.667 42.667-42.667h234.667l72.533-106.667c4.267-12.8 21.333-21.333 34.133-21.333h170.667c21.333 0 42.667-21.333 42.667-42.667v-396.8c0-21.333 21.333-42.667 42.667-42.667s42.667 21.333 42.667 42.667v396.8c0 72.533-55.467 128-128 128zM1011.2 8.533l-328.533 328.533c0 0-4.267 4.267-4.267 4.267l-234.667 234.667c0 0-4.267 4.267-4.267 4.267l-366.933 366.933c-17.067 17.067-42.667 17.067-59.733 0s-17.067-42.667 0-59.733l140.8-140.8h-25.6c-72.533 0-128-55.467-128-128v-469.333c0-72.533 55.467-128 128-128h750.933l72.533-72.533c8.533-8.533 21.333-12.8 29.867-12.8s21.333 4.267 29.867 12.8c17.067 17.067 17.067 42.667 0 59.733zM593.067 307.2c-17.067-12.8-38.4-21.333-59.733-25.6-34.133-8.533-68.267 0-93.867 21.333-29.867 17.067-46.933 42.667-55.467 76.8s0 68.267 21.333 93.867c4.267 4.267 4.267 8.533 8.533 8.533l179.2-174.933zM128 106.667c-21.333 0-42.667 21.333-42.667 42.667v469.333c0 21.333 21.333 42.667 42.667 42.667h110.933l115.2-115.2c-8.533-4.267-12.8-12.8-21.333-21.333-34.133-46.933-42.667-102.4-34.133-157.867s42.667-106.667 89.6-136.533c38.4-25.6 81.067-38.4 123.733-38.4 12.8 0 25.6 0 38.4 4.267 38.4 8.533 76.8 25.6 102.4 51.2l140.8-140.8h-665.6z" />
<glyph unicode="&#xe92a;" glyph-name="camera" d="M896 21.333h-768c-72.533 0-128 55.467-128 128v469.333c0 72.533 55.467 128 128 128h149.333l72.533 110.933c8.533 8.533 21.333 17.067 34.133 17.067h256c12.8 0 25.6-8.533 34.133-17.067l72.533-110.933h149.333c72.533 0 128-55.467 128-128v-469.333c0-72.533-55.467-128-128-128zM128 661.333c-25.6 0-42.667-17.067-42.667-42.667v-469.333c0-25.6 17.067-42.667 42.667-42.667h768c25.6 0 42.667 17.067 42.667 42.667v469.333c0 25.6-17.067 42.667-42.667 42.667h-170.667c-12.8 0-25.6 8.533-34.133 17.067l-72.533 110.933h-213.333l-72.533-110.933c-8.533-8.533-21.333-17.067-34.133-17.067h-170.667zM512 192c-119.467 0-213.333 93.867-213.333 213.333s93.867 213.333 213.333 213.333 213.333-93.867 213.333-213.333-93.867-213.333-213.333-213.333zM512 533.333c-72.533 0-128-55.467-128-128s55.467-128 128-128 128 55.467 128 128-55.467 128-128 128z" />
<glyph unicode="&#xe92b;" glyph-name="cast" d="M251.733 64c-21.333 0-38.4 12.8-42.667 34.133-12.8 68.267-64 119.467-132.267 132.267-21.333 4.267-38.4 29.867-34.133 51.2s25.6 38.4 51.2 34.133c102.4-21.333 179.2-98.133 200.533-200.533 4.267-21.333-12.8-46.933-34.133-51.2-4.267 0-4.267 0-8.533 0zM422.4 64c-21.333 0-38.4 17.067-42.667 38.4-17.067 157.867-140.8 285.867-302.933 302.933-21.333 0-38.4 21.333-34.133 46.933 4.267 21.333 25.6 38.4 46.933 38.4 200.533-21.333 354.133-179.2 375.467-375.467 4.267-21.333-12.8-42.667-38.4-46.933 0-4.267 0-4.267-4.267-4.267zM853.333 64h-256c-25.6 0-42.667 17.067-42.667 42.667s17.067 42.667 42.667 42.667h256c25.6 0 42.667 17.067 42.667 42.667v512c0 25.6-17.067 42.667-42.667 42.667h-682.667c-25.6 0-42.667-17.067-42.667-42.667v-85.333c0-25.6-17.067-42.667-42.667-42.667s-42.667 17.067-42.667 42.667v85.333c0 72.533 55.467 128 128 128h682.667c72.533 0 128-55.467 128-128v-512c0-72.533-55.467-128-128-128zM85.333 64c-25.6 0-42.667 17.067-42.667 42.667s17.067 42.667 42.667 42.667v0c25.6 0 42.667-17.067 42.667-42.667s-17.067-42.667-42.667-42.667z" />
<glyph unicode="&#xe92c;" glyph-name="check-circle" d="M512-21.333c0 0 0 0 0 0-260.267 0-469.333 209.067-469.333 469.333s209.067 469.333 469.333 469.333c0 0 0 0 0 0 68.267 0 132.267-12.8 192-42.667 21.333-8.533 29.867-34.133 21.333-55.467s-34.133-29.867-55.467-21.333c-51.2 21.333-102.4 34.133-157.867 34.133 0 0 0 0 0 0-213.333 0-384-170.667-384-384s170.667-384 384-384c0 0 0 0 0 0 213.333 0 384 170.667 384 384v38.4c0 25.6 17.067 42.667 42.667 42.667s42.667-17.067 42.667-42.667v-38.4c0-260.267-209.067-469.333-469.333-469.333zM512 320c-12.8 0-21.333 4.267-29.867 12.8l-128 128c-17.067 17.067-17.067 42.667 0 59.733s42.667 17.067 59.733 0l98.133-98.133 396.8 396.8c17.067 17.067 42.667 17.067 59.733 0s17.067-42.667 0-59.733l-426.667-426.667c-8.533-8.533-17.067-12.8-29.867-12.8z" />
<glyph unicode="&#xe92d;" glyph-name="check-square" d="M512 320c-12.8 0-21.333 4.267-29.867 12.8l-128 128c-17.067 17.067-17.067 42.667 0 59.733s42.667 17.067 59.733 0l98.133-98.133 396.8 396.8c17.067 17.067 42.667 17.067 59.733 0s17.067-42.667 0-59.733l-426.667-426.667c-8.533-8.533-17.067-12.8-29.867-12.8zM810.667 21.333h-597.333c-72.533 0-128 55.467-128 128v597.333c0 72.533 55.467 128 128 128h469.333c25.6 0 42.667-17.067 42.667-42.667s-17.067-42.667-42.667-42.667h-469.333c-25.6 0-42.667-17.067-42.667-42.667v-597.333c0-25.6 17.067-42.667 42.667-42.667h597.333c25.6 0 42.667 17.067 42.667 42.667v298.667c0 25.6 17.067 42.667 42.667 42.667s42.667-17.067 42.667-42.667v-298.667c0-72.533-55.467-128-128-128z" />
<glyph unicode="&#xe92e;" glyph-name="check" d="M384 192c-12.8 0-21.333 4.267-29.867 12.8l-213.333 213.333c-17.067 17.067-17.067 42.667 0 59.733s42.667 17.067 59.733 0l183.467-183.467 439.467 439.467c17.067 17.067 42.667 17.067 59.733 0s17.067-42.667 0-59.733l-469.333-469.333c-8.533-8.533-17.067-12.8-29.867-12.8z" />
<glyph unicode="&#xe92f;" glyph-name="chevron-down" d="M512 277.333c-12.8 0-21.333 4.267-29.867 12.8l-256 256c-17.067 17.067-17.067 42.667 0 59.733s42.667 17.067 59.733 0l226.133-226.133 226.133 226.133c17.067 17.067 42.667 17.067 59.733 0s17.067-42.667 0-59.733l-256-256c-8.533-8.533-17.067-12.8-29.867-12.8z" />
<glyph unicode="&#xe930;" glyph-name="chevron-left" d="M640 149.333c-12.8 0-21.333 4.267-29.867 12.8l-256 256c-17.067 17.067-17.067 42.667 0 59.733l256 256c17.067 17.067 42.667 17.067 59.733 0s17.067-42.667 0-59.733l-226.133-226.133 226.133-226.133c17.067-17.067 17.067-42.667 0-59.733-8.533-8.533-17.067-12.8-29.867-12.8z" />
<glyph unicode="&#xe931;" glyph-name="chevron-right" d="M384 149.333c-12.8 0-21.333 4.267-29.867 12.8-17.067 17.067-17.067 42.667 0 59.733l226.133 226.133-226.133 226.133c-17.067 17.067-17.067 42.667 0 59.733s42.667 17.067 59.733 0l256-256c17.067-17.067 17.067-42.667 0-59.733l-256-256c-8.533-8.533-17.067-12.8-29.867-12.8z" />
<glyph unicode="&#xe932;" glyph-name="chevron-up" d="M768 277.333c-12.8 0-21.333 4.267-29.867 12.8l-226.133 226.133-226.133-226.133c-17.067-17.067-42.667-17.067-59.733 0s-17.067 42.667 0 59.733l256 256c17.067 17.067 42.667 17.067 59.733 0l256-256c17.067-17.067 17.067-42.667 0-59.733-8.533-8.533-17.067-12.8-29.867-12.8z" />
<glyph unicode="&#xe933;" glyph-name="chevrons-down" d="M512 149.333c-12.8 0-21.333 4.267-29.867 12.8l-213.333 213.333c-17.067 17.067-17.067 42.667 0 59.733s42.667 17.067 59.733 0l183.467-183.467 183.467 183.467c17.067 17.067 42.667 17.067 59.733 0s17.067-42.667 0-59.733l-213.333-213.333c-8.533-8.533-17.067-12.8-29.867-12.8zM512 448c-12.8 0-21.333 4.267-29.867 12.8l-213.333 213.333c-17.067 17.067-17.067 42.667 0 59.733s42.667 17.067 59.733 0l183.467-183.467 183.467 183.467c17.067 17.067 42.667 17.067 59.733 0s17.067-42.667 0-59.733l-213.333-213.333c-8.533-8.533-17.067-12.8-29.867-12.8z" />
<glyph unicode="&#xe934;" glyph-name="chevrons-left" d="M469.333 192c-12.8 0-21.333 4.267-29.867 12.8l-213.333 213.333c-17.067 17.067-17.067 42.667 0 59.733l213.333 213.333c17.067 17.067 42.667 17.067 59.733 0s17.067-42.667 0-59.733l-183.467-183.467 183.467-183.467c17.067-17.067 17.067-42.667 0-59.733-8.533-8.533-17.067-12.8-29.867-12.8zM768 192c-12.8 0-21.333 4.267-29.867 12.8l-213.333 213.333c-17.067 17.067-17.067 42.667 0 59.733l213.333 213.333c17.067 17.067 42.667 17.067 59.733 0s17.067-42.667 0-59.733l-183.467-183.467 183.467-183.467c17.067-17.067 17.067-42.667 0-59.733-8.533-8.533-17.067-12.8-29.867-12.8z" />
<glyph unicode="&#xe935;" glyph-name="chevrons-right" d="M554.667 192c-12.8 0-21.333 4.267-29.867 12.8-17.067 17.067-17.067 42.667 0 59.733l183.467 183.467-183.467 183.467c-17.067 17.067-17.067 42.667 0 59.733s42.667 17.067 59.733 0l213.333-213.333c17.067-17.067 17.067-42.667 0-59.733l-213.333-213.333c-8.533-8.533-17.067-12.8-29.867-12.8zM256 192c-12.8 0-21.333 4.267-29.867 12.8-17.067 17.067-17.067 42.667 0 59.733l183.467 183.467-183.467 183.467c-17.067 17.067-17.067 42.667 0 59.733s42.667 17.067 59.733 0l213.333-213.333c17.067-17.067 17.067-42.667 0-59.733l-213.333-213.333c-8.533-8.533-17.067-12.8-29.867-12.8z" />
<glyph unicode="&#xe936;" glyph-name="chevrons-up" d="M725.333 448c-12.8 0-21.333 4.267-29.867 12.8l-183.467 183.467-183.467-183.467c-17.067-17.067-42.667-17.067-59.733 0s-17.067 42.667 0 59.733l213.333 213.333c17.067 17.067 42.667 17.067 59.733 0l213.333-213.333c17.067-17.067 17.067-42.667 0-59.733-8.533-8.533-17.067-12.8-29.867-12.8zM725.333 149.333c-12.8 0-21.333 4.267-29.867 12.8l-183.467 183.467-183.467-183.467c-17.067-17.067-42.667-17.067-59.733 0s-17.067 42.667 0 59.733l213.333 213.333c17.067 17.067 42.667 17.067 59.733 0l213.333-213.333c17.067-17.067 17.067-42.667 0-59.733-8.533-8.533-17.067-12.8-29.867-12.8z" />
<glyph unicode="&#xe937;" glyph-name="chrome" d="M947.2 627.2c-4.267 4.267-8.533 12.8-8.533 21.333-76.8 157.867-238.933 268.8-426.667 268.8-153.6 0-294.4-76.8-379.733-192 0 0 0 0 0 0-55.467-76.8-89.6-174.933-89.6-277.333 0-260.267 209.067-469.333 469.333-469.333s469.333 209.067 469.333 469.333c0 64-12.8 123.733-34.133 179.2zM512 832c136.533 0 251.733-68.267 320-170.667h-320c-89.6 0-166.4-51.2-196.267-128l-98.133 162.133c72.533 85.333 174.933 136.533 294.4 136.533zM640 448c0-21.333-4.267-42.667-12.8-59.733 0 0 0 0 0 0-4.267-4.267-4.267-8.533-8.533-12.8-25.6-34.133-64-55.467-106.667-55.467-46.933 0-85.333 21.333-106.667 55.467-4.267 4.267-4.267 8.533-8.533 17.067-8.533 17.067-12.8 34.133-12.8 55.467 0 72.533 55.467 128 128 128s128-55.467 128-128zM128 448c0 59.733 12.8 119.467 38.4 170.667l157.867-277.333c4.267-4.267 4.267-4.267 8.533-8.533v0c38.4-59.733 102.4-98.133 179.2-98.133 8.533 0 17.067 0 25.6 0l-98.133-166.4c-179.2 34.133-311.467 192-311.467 379.733zM537.6 64l162.133 277.333c0 4.267 4.267 8.533 4.267 8.533s0 0 0 0c12.8 29.867 21.333 59.733 21.333 93.867 0 46.933-17.067 93.867-42.667 128h192c12.8-38.4 21.333-85.333 21.333-128 0-200.533-157.867-366.933-358.4-379.733zM947.2 627.2c-4.267 4.267-8.533 12.8-8.533 21.333 4.267-8.533 8.533-12.8 8.533-21.333zM405.333 375.467c-4.267 4.267-4.267 8.533-8.533 17.067l4.267-8.533c0 0 4.267-4.267 4.267-8.533zM627.2 384c-4.267-4.267-4.267-8.533-8.533-12.8l8.533 12.8c-4.267 0-4.267 0 0 0z" />
<glyph unicode="&#xe938;" glyph-name="clipboard" d="M768 832h-42.667c0 46.933-38.4 85.333-85.333 85.333h-256c-46.933 0-85.333-38.4-85.333-85.333h-42.667c-72.533 0-128-55.467-128-128v-597.333c0-72.533 55.467-128 128-128h512c72.533 0 128 55.467 128 128v597.333c0 72.533-55.467 128-128 128zM384 832h256v-85.333h-256v85.333zM810.667 106.667c0-21.333-21.333-42.667-42.667-42.667h-512c-21.333 0-42.667 21.333-42.667 42.667v597.333c0 21.333 21.333 42.667 42.667 42.667h42.667c0-46.933 38.4-85.333 85.333-85.333h256c46.933 0 85.333 38.4 85.333 85.333h42.667c21.333 0 42.667-21.333 42.667-42.667v-597.333z" />
<glyph unicode="&#xe939;" glyph-name="clock" d="M512-21.333c-260.267 0-469.333 209.067-469.333 469.333s209.067 469.333 469.333 469.333 469.333-209.067 469.333-469.333-209.067-469.333-469.333-469.333zM512 832c-213.333 0-384-170.667-384-384s170.667-384 384-384c213.333 0 384 170.667 384 384s-170.667 384-384 384zM682.667 320c-8.533 0-12.8 0-17.067 4.267l-170.667 85.333c-17.067 8.533-25.6 21.333-25.6 38.4v256c0 25.6 17.067 42.667 42.667 42.667s42.667-17.067 42.667-42.667v-230.4l145.067-72.533c21.333-8.533 29.867-34.133 17.067-55.467-4.267-17.067-17.067-25.6-34.133-25.6z" />
<glyph unicode="&#xe93a;" glyph-name="cloud-drizzle" d="M341.333 21.333c-25.6 0-42.667 17.067-42.667 42.667v85.333c0 25.6 17.067 42.667 42.667 42.667s42.667-17.067 42.667-42.667v-85.333c0-25.6-17.067-42.667-42.667-42.667zM341.333 277.333c-25.6 0-42.667 17.067-42.667 42.667v85.333c0 25.6 17.067 42.667 42.667 42.667s42.667-17.067 42.667-42.667v-85.333c0-25.6-17.067-42.667-42.667-42.667zM682.667 21.333c-25.6 0-42.667 17.067-42.667 42.667v85.333c0 25.6 17.067 42.667 42.667 42.667s42.667-17.067 42.667-42.667v-85.333c0-25.6-17.067-42.667-42.667-42.667zM682.667 277.333c-25.6 0-42.667 17.067-42.667 42.667v85.333c0 25.6 17.067 42.667 42.667 42.667s42.667-17.067 42.667-42.667v-85.333c0-25.6-17.067-42.667-42.667-42.667zM512-64c-25.6 0-42.667 17.067-42.667 42.667v85.333c0 25.6 17.067 42.667 42.667 42.667s42.667-17.067 42.667-42.667v-85.333c0-25.6-17.067-42.667-42.667-42.667zM512 192c-25.6 0-42.667 17.067-42.667 42.667v85.333c0 25.6 17.067 42.667 42.667 42.667s42.667-17.067 42.667-42.667v-85.333c0-25.6-17.067-42.667-42.667-42.667zM853.333 209.067c-17.067 0-34.133 8.533-38.4 25.6-8.533 21.333 0 46.933 21.333 55.467 42.667 17.067 72.533 51.2 89.6 93.867s17.067 89.6-4.267 132.267c-25.6 64-85.333 102.4-153.6 102.4h-55.467c-21.333 0-38.4 12.8-42.667 34.133-42.667 157.867-204.8 256-362.667 213.333s-256-204.8-213.333-362.667c17.067-64 51.2-119.467 102.4-157.867 17.067-12.8 21.333-42.667 8.533-59.733s-42.667-21.333-59.733-8.533c-64 51.2-110.933 123.733-132.267 204.8-55.467 204.8 68.267 413.867 273.067 465.067 196.267 51.2 392.533-59.733 456.533-243.2h25.6c102.4 0 192-59.733 234.667-153.6 25.6-64 29.867-132.267 4.267-196.267s-72.533-115.2-136.533-140.8c-4.267-4.267-12.8-4.267-17.067-4.267z" />
<glyph unicode="&#xe93b;" glyph-name="cloud-lightning" d="M810.667 196.267c-21.333 0-38.4 12.8-42.667 34.133s8.533 46.933 34.133 51.2c93.867 17.067 153.6 110.933 132.267 200.533-17.067 81.067-85.333 136.533-166.4 136.533 0 0 0 0 0 0h-55.467c-21.333 0-38.4 12.8-42.667 34.133-42.667 157.867-204.8 256-362.667 213.333-76.8-21.333-140.8-68.267-179.2-136.533-42.667-72.533-55.467-149.333-34.133-230.4s72.533-145.067 145.067-187.733c21.333-8.533 29.867-34.133 17.067-55.467s-38.4-29.867-59.733-17.067c-93.867 51.2-157.867 136.533-187.733 238.933-25.6 98.133-12.8 204.8 42.667 290.133 51.2 89.6 136.533 149.333 234.667 174.933 192 51.2 392.533-59.733 456.533-243.2h25.6c0 0 0 0 0 0 119.467 0 226.133-85.333 251.733-204.8 29.867-136.533-59.733-273.067-200.533-302.933-4.267 4.267-4.267 4.267-8.533 4.267zM469.333-64c-8.533 0-17.067 4.267-25.6 8.533-21.333 12.8-25.6 38.4-12.8 59.733l128 187.733h-174.933c-17.067 0-29.867 8.533-38.4 21.333s-8.533 29.867 0 42.667l170.667 256c12.8 21.333 38.4 25.6 59.733 12.8s25.6-38.4 12.8-59.733l-128-187.733h179.2c17.067 0 29.867-8.533 38.4-21.333s8.533-29.867 0-42.667l-170.667-256c-12.8-12.8-25.6-21.333-38.4-21.333z" />
<glyph unicode="&#xe93c;" glyph-name="cloud-off" d="M870.4 554.667c-34.133 12.8-68.267 21.333-102.4 21.333h-21.333c-46.933 140.8-174.933 243.2-328.533 256-21.333 0-42.667-17.067-46.933-38.4 0-25.6 17.067-42.667 38.4-46.933 123.733-12.8 230.4-102.4 260.267-221.867 4.267-17.067 21.333-34.133 42.667-34.133h55.467c0 0 0 0 0 0 21.333 0 46.933-4.267 68.267-12.8 85.333-38.4 128-136.533 89.6-221.867-8.533-21.333 0-46.933 21.333-55.467 4.267 0 12.8-4.267 17.067-4.267 17.067 0 34.133 8.533 38.4 25.6 55.467 128-4.267 277.333-132.267 332.8zM1011.2 8.533l-140.8 140.8-622.933 627.2-170.667 170.667c-17.067 17.067-42.667 17.067-59.733 0s-17.067-42.667 0-59.733l132.267-132.267c-64-51.2-110.933-119.467-132.267-200.533-29.867-98.133-17.067-200.533 34.133-290.133 64-123.733 192-200.533 328.533-200.533h388.267c21.333 0 38.4 4.267 59.733 8.533l123.733-123.733c8.533-8.533 17.067-12.8 29.867-12.8s21.333 4.267 29.867 12.8c17.067 17.067 17.067 42.667 0 59.733zM388.267 149.333c-110.933-4.267-213.333 55.467-264.533 153.6-38.4 68.267-46.933 149.333-25.6 226.133 17.067 68.267 59.733 123.733 115.2 162.133l537.6-541.867h-362.667z" />
<glyph unicode="&#xe93d;" glyph-name="cloud-rain" d="M682.667 21.333c-25.6 0-42.667 17.067-42.667 42.667v341.333c0 25.6 17.067 42.667 42.667 42.667s42.667-17.067 42.667-42.667v-341.333c0-25.6-17.067-42.667-42.667-42.667zM341.333 21.333c-25.6 0-42.667 17.067-42.667 42.667v341.333c0 25.6 17.067 42.667 42.667 42.667s42.667-17.067 42.667-42.667v-341.333c0-25.6-17.067-42.667-42.667-42.667zM512-64c-25.6 0-42.667 17.067-42.667 42.667v341.333c0 25.6 17.067 42.667 42.667 42.667s42.667-17.067 42.667-42.667v-341.333c0-25.6-17.067-42.667-42.667-42.667zM853.333 209.067c-17.067 0-34.133 8.533-38.4 25.6-8.533 21.333 0 46.933 21.333 55.467 42.667 17.067 72.533 51.2 89.6 93.867s17.067 89.6-4.267 132.267c-25.6 64-85.333 102.4-153.6 102.4h-55.467c-21.333 0-38.4 12.8-42.667 34.133-42.667 157.867-204.8 256-362.667 213.333s-256-204.8-213.333-362.667c17.067-64 51.2-119.467 102.4-157.867 17.067-12.8 21.333-42.667 8.533-59.733s-42.667-21.333-59.733-8.533c-64 51.2-110.933 123.733-132.267 204.8-55.467 204.8 68.267 413.867 273.067 465.067 196.267 51.2 392.533-59.733 456.533-243.2h25.6c102.4 0 192-59.733 234.667-153.6 25.6-64 29.867-132.267 4.267-196.267s-72.533-115.2-136.533-140.8c-4.267-4.267-12.8-4.267-17.067-4.267z" />
<glyph unicode="&#xe93e;" glyph-name="cloud-snow" d="M853.333 166.4c-17.067 0-34.133 8.533-38.4 25.6-8.533 21.333 0 46.933 21.333 55.467 42.667 17.067 72.533 51.2 89.6 93.867s17.067 89.6-4.267 132.267c-25.6 64-85.333 102.4-153.6 102.4h-55.467c-21.333 0-38.4 12.8-42.667 34.133-42.667 157.867-204.8 256-362.667 213.333s-256-204.8-213.333-362.667c17.067-64 51.2-119.467 102.4-157.867 17.067-12.8 21.333-42.667 8.533-59.733s-42.667-21.333-59.733-8.533c-64 51.2-110.933 123.733-132.267 204.8-55.467 204.8 68.267 413.867 273.067 465.067 196.267 51.2 392.533-59.733 456.533-243.2h25.6c102.4 0 192-59.733 234.667-153.6 25.6-64 29.867-132.267 4.267-196.267s-72.533-115.2-136.533-140.8c-4.267-4.267-12.8-4.267-17.067-4.267zM341.333 234.667c-25.6 0-42.667 17.067-42.667 42.667s17.067 42.667 42.667 42.667v0c25.6 0 42.667-17.067 42.667-42.667s-17.067-42.667-42.667-42.667zM341.333 64c-25.6 0-42.667 17.067-42.667 42.667s17.067 42.667 42.667 42.667v0c25.6 0 42.667-17.067 42.667-42.667s-17.067-42.667-42.667-42.667zM512 149.333c-25.6 0-42.667 17.067-42.667 42.667s17.067 42.667 42.667 42.667v0c25.6 0 42.667-17.067 42.667-42.667s-17.067-42.667-42.667-42.667zM512-21.333c-25.6 0-42.667 17.067-42.667 42.667s17.067 42.667 42.667 42.667v0c25.6 0 42.667-17.067 42.667-42.667s-17.067-42.667-42.667-42.667zM682.667 234.667c-25.6 0-42.667 17.067-42.667 42.667s17.067 42.667 42.667 42.667v0c25.6 0 42.667-17.067 42.667-42.667s-17.067-42.667-42.667-42.667zM682.667 64c-25.6 0-42.667 17.067-42.667 42.667s17.067 42.667 42.667 42.667v0c25.6 0 42.667-17.067 42.667-42.667s-17.067-42.667-42.667-42.667z" />
<glyph unicode="&#xe93f;" glyph-name="cloud" d="M384 64c-174.933 0-328.533 119.467-371.2 290.133-25.6 98.133-12.8 204.8 42.667 290.133 51.2 89.6 136.533 149.333 234.667 174.933s204.8 12.8 290.133-42.667c76.8-42.667 136.533-115.2 166.4-200.533h21.333c140.8 0 256-115.2 256-256s-115.2-256-256-256h-384c0 0 0 0 0 0zM384 746.667c-25.6 0-51.2-4.267-76.8-8.533-76.8-21.333-140.8-68.267-179.2-136.533s-51.2-149.333-29.867-226.133c29.867-132.267 149.333-226.133 285.867-226.133 0 0 0 0 0 0h384c93.867 0 170.667 76.8 170.667 170.667s-76.8 170.667-170.667 170.667h-55.467c-21.333 0-38.4 12.8-42.667 34.133-29.867 132.267-153.6 221.867-285.867 221.867z" />
<glyph unicode="&#xe940;" glyph-name="code" d="M682.667 149.333c-12.8 0-21.333 4.267-29.867 12.8-17.067 17.067-17.067 42.667 0 59.733l226.133 226.133-226.133 226.133c-17.067 17.067-17.067 42.667 0 59.733s42.667 17.067 59.733 0l256-256c17.067-17.067 17.067-42.667 0-59.733l-256-256c-8.533-8.533-17.067-12.8-29.867-12.8zM341.333 149.333c-12.8 0-21.333 4.267-29.867 12.8l-256 256c-17.067 17.067-17.067 42.667 0 59.733l256 256c17.067 17.067 42.667 17.067 59.733 0s17.067-42.667 0-59.733l-226.133-226.133 226.133-226.133c17.067-17.067 17.067-42.667 0-59.733-8.533-8.533-17.067-12.8-29.867-12.8z" />
<glyph unicode="&#xe941;" glyph-name="codepen" d="M981.333 610.133c0 4.267 0 4.267-4.267 8.533 0 0-4.267 4.267-4.267 4.267s-4.267 4.267-4.267 4.267c0 0-4.267 4.267-4.267 4.267s0 0 0 0l-426.667 277.333c-8.533 4.267-17.067 8.533-25.6 8.533s-17.067-4.267-25.6-8.533l-426.667-277.333c0 0 0 0 0 0s-4.267 0-4.267-4.267c0 0-4.267-4.267-4.267-4.267s-4.267-4.267-4.267-4.267c0-4.267 0-4.267-4.267-8.533 0-4.267 0-8.533 0-8.533v-298.667c0-4.267 0-8.533 0-8.533 0-4.267 0-4.267 4.267-8.533 0 0 4.267-4.267 4.267-4.267s4.267-4.267 4.267-4.267c0 0 4.267-4.267 4.267-4.267s0 0 0 0l426.667-277.333c8.533-4.267 17.067-8.533 25.6-8.533s17.067 4.267 25.6 8.533l426.667 277.333c0 0 0 0 0 0s4.267 0 4.267 4.267c0 0 4.267 4.267 4.267 4.267s4.267 4.267 4.267 4.267c0 4.267 0 4.267 4.267 8.533 0 4.267 0 8.533 0 8.533v298.667c0 0 0 4.267 0 8.533zM554.667 797.867l307.2-200.533-136.533-98.133-170.667 119.467v179.2zM512 546.133l140.8-98.133-140.8-98.133-140.8 98.133 140.8 98.133zM469.333 797.867v-179.2l-170.667-119.467-136.533 98.133 307.2 200.533zM128 516.267l98.133-68.267-98.133-68.267v136.533zM162.133 298.667l136.533 98.133 170.667-119.467v-174.933l-307.2 196.267zM554.667 98.133v179.2l170.667 119.467 136.533-93.867-307.2-204.8zM896 379.733l-98.133 68.267 98.133 68.267v-136.533z" />
<glyph unicode="&#xe942;" glyph-name="codesandbox" d="M311.467 72.533c-8.533 0-17.067 8.533-21.333 12.8l21.333-12.8zM925.867 674.133c0 0 0 0 0 0-4.267 8.533-8.533 12.8-12.8 21.333-8.533 12.8-25.6 25.6-38.4 34.133l-140.8 81.067-21.333 12.8-136.533 76.8c-38.4 21.333-89.6 21.333-128 0l-136.533-76.8-21.333-12.8-140.8-81.067c-17.067-8.533-29.867-21.333-38.4-34.133-4.267-8.533-8.533-12.8-12.8-21.333 0 0 0 0 0 0-8.533-17.067-12.8-34.133-12.8-55.467v-341.333c0-46.933 25.6-89.6 64-110.933l140.8-81.067 21.333-12.8c0 0 0 0 0 0l136.533-76.8c12.8-8.533 29.867-12.8 42.667-17.067v0c8.533 0 12.8 0 21.333 0s12.8 0 21.333 0v0c17.067 0 29.867 8.533 42.667 17.067l136.533 76.8c0 0 0 0 0 0l21.333 12.8 140.8 81.067c38.4 21.333 64 64 64 110.933v341.333c0 21.333-4.267 38.4-12.8 55.467zM490.667 827.733c8.533 4.267 12.8 4.267 21.333 4.267s12.8 0 21.333-4.267l81.067-46.933-102.4-64-102.4 64 81.067 46.933zM192 238.933c-12.8 8.533-21.333 25.6-21.333 38.4v98.133l106.667-59.733v-123.733l-85.333 46.933zM469.333 81.067l-106.667 59.733v196.267c0 17.067-8.533 29.867-21.333 38.4l-170.667 98.133v123.733l298.667-174.933v-341.333zM512 499.2l-298.667 170.667 106.667 59.733 170.667-98.133c8.533-4.267 12.8-4.267 21.333-4.267s12.8 0 21.333 4.267l170.667 98.133 106.667-59.733-298.667-170.667zM853.333 277.333c0-12.8-8.533-29.867-21.333-38.4l-85.333-46.933v119.467l106.667 59.733v-93.867zM853.333 473.6l-170.667-98.133c-12.8-8.533-21.333-21.333-21.333-38.4v-196.267l-106.667-59.733v341.333l298.667 174.933v-123.733zM533.333-21.333c-4.267-4.267-12.8-4.267-21.333-4.267s-12.8 0-21.333 4.267c8.533 0 12.8 0 21.333 0s12.8 0 21.333 0z" />
<glyph unicode="&#xe943;" glyph-name="coffee" d="M810.667 661.333h-725.333c-21.333 0-42.667-21.333-42.667-42.667v-384c0-119.467 93.867-213.333 213.333-213.333h341.333c119.467 0 213.333 93.867 213.333 213.333 119.467 0 213.333 93.867 213.333 213.333s-93.867 213.333-213.333 213.333zM725.333 234.667c0-72.533-55.467-128-128-128h-341.333c-72.533 0-128 55.467-128 128v341.333h597.333v-341.333zM810.667 320v256c72.533 0 128-55.467 128-128s-55.467-128-128-128zM256 746.667c-25.6 0-42.667 17.067-42.667 42.667v128c0 25.6 17.067 42.667 42.667 42.667s42.667-17.067 42.667-42.667v-128c0-25.6-17.067-42.667-42.667-42.667zM426.667 746.667c-25.6 0-42.667 17.067-42.667 42.667v128c0 25.6 17.067 42.667 42.667 42.667s42.667-17.067 42.667-42.667v-128c0-25.6-17.067-42.667-42.667-42.667zM597.333 746.667c-25.6 0-42.667 17.067-42.667 42.667v128c0 25.6 17.067 42.667 42.667 42.667s42.667-17.067 42.667-42.667v-128c0-25.6-17.067-42.667-42.667-42.667z" />
<glyph unicode="&#xe944;" glyph-name="columns" d="M810.667 21.333h-597.333c-72.533 0-128 55.467-128 128v597.333c0 72.533 55.467 128 128 128h597.333c72.533 0 128-55.467 128-128v-597.333c0-72.533-55.467-128-128-128zM554.667 106.667h256c25.6 0 42.667 17.067 42.667 42.667v597.333c0 25.6-17.067 42.667-42.667 42.667h-256v-682.667zM213.333 789.333c-25.6 0-42.667-17.067-42.667-42.667v-597.333c0-25.6 17.067-42.667 42.667-42.667h256v682.667h-256z" />
<glyph unicode="&#xe945;" glyph-name="command" d="M768 21.333c-93.867 0-170.667 76.8-170.667 170.667v85.333h-170.667v-85.333c0-93.867-76.8-170.667-170.667-170.667s-170.667 76.8-170.667 170.667 76.8 170.667 170.667 170.667h85.333v170.667h-85.333c-93.867 0-170.667 76.8-170.667 170.667s76.8 170.667 170.667 170.667 170.667-76.8 170.667-170.667v-85.333h170.667v85.333c0 93.867 76.8 170.667 170.667 170.667s170.667-76.8 170.667-170.667-76.8-170.667-170.667-170.667h-85.333v-170.667h85.333c93.867 0 170.667-76.8 170.667-170.667s-76.8-170.667-170.667-170.667zM682.667 277.333v-85.333c0-46.933 38.4-85.333 85.333-85.333s85.333 38.4 85.333 85.333-38.4 85.333-85.333 85.333h-85.333zM256 277.333c-46.933 0-85.333-38.4-85.333-85.333s38.4-85.333 85.333-85.333 85.333 38.4 85.333 85.333v85.333h-85.333zM426.667 362.667h170.667v170.667h-170.667v-170.667zM682.667 618.667h85.333c46.933 0 85.333 38.4 85.333 85.333s-38.4 85.333-85.333 85.333-85.333-38.4-85.333-85.333v-85.333zM256 789.333c-46.933 0-85.333-38.4-85.333-85.333s38.4-85.333 85.333-85.333h85.333v85.333c0 46.933-38.4 85.333-85.333 85.333z" />
<glyph unicode="&#xe946;" glyph-name="compass" d="M512-21.333c-260.267 0-469.333 209.067-469.333 469.333s209.067 469.333 469.333 469.333 469.333-209.067 469.333-469.333-209.067-469.333-469.333-469.333zM512 832c-213.333 0-384-170.667-384-384s170.667-384 384-384c213.333 0 384 170.667 384 384s-170.667 384-384 384zM332.8 226.133c-12.8 0-21.333 4.267-29.867 12.8-12.8 12.8-17.067 29.867-8.533 42.667l89.6 273.067c0 8.533 12.8 21.333 25.6 25.6l273.067 89.6c17.067 4.267 34.133 0 42.667-8.533 12.8-12.8 17.067-29.867 8.533-42.667l-89.6-273.067c-4.267-12.8-12.8-21.333-25.6-25.6l-273.067-89.6c-4.267-4.267-8.533-4.267-12.8-4.267zM456.533 503.467l-55.467-170.667 170.667 55.467 55.467 170.667-170.667-55.467z" />
<glyph unicode="&#xe947;" glyph-name="copy" d="M853.333-21.333h-384c-72.533 0-128 55.467-128 128v384c0 72.533 55.467 128 128 128h384c72.533 0 128-55.467 128-128v-384c0-72.533-55.467-128-128-128zM469.333 533.333c-25.6 0-42.667-17.067-42.667-42.667v-384c0-25.6 17.067-42.667 42.667-42.667h384c25.6 0 42.667 17.067 42.667 42.667v384c0 25.6-17.067 42.667-42.667 42.667h-384zM213.333 277.333h-42.667c-72.533 0-128 55.467-128 128v384c0 72.533 55.467 128 128 128h384c72.533 0 128-55.467 128-128v-42.667c0-25.6-17.067-42.667-42.667-42.667s-42.667 17.067-42.667 42.667v42.667c0 25.6-17.067 42.667-42.667 42.667h-384c-25.6 0-42.667-17.067-42.667-42.667v-384c0-25.6 17.067-42.667 42.667-42.667h42.667c25.6 0 42.667-17.067 42.667-42.667s-17.067-42.667-42.667-42.667z" />
<glyph unicode="&#xe948;" glyph-name="corner-down-left" d="M896 789.333v-298.667c0-119.467-93.867-213.333-213.333-213.333h-409.6l140.8-140.8c17.067-17.067 17.067-42.667 0-59.733-8.533-8.533-17.067-12.8-29.867-12.8s-21.333 4.267-29.867 12.8l-213.333 213.333c-4.267 4.267-8.533 8.533-8.533 12.8 0 0 0 4.267 0 4.267 0 4.267 0 8.533 0 8.533s0 8.533 0 8.533c0 0 0 4.267 0 4.267 0 4.267 4.267 8.533 8.533 12.8l213.333 213.333c17.067 17.067 42.667 17.067 59.733 0s17.067-42.667 0-59.733l-140.8-132.267h409.6c72.533 0 128 55.467 128 128v298.667c0 21.333 21.333 42.667 42.667 42.667s42.667-21.333 42.667-42.667z" />
<glyph unicode="&#xe949;" glyph-name="corner-down-right" d="M896 320c0-4.267 0-8.533 0-8.533s0-4.267 0-4.267-4.267-8.533-8.533-12.8l-213.333-213.333c-12.8-12.8-21.333-17.067-34.133-17.067s-21.333 4.267-29.867 12.8c-17.067 17.067-17.067 42.667 0 59.733l140.8 140.8h-409.6c-119.467 0-213.333 93.867-213.333 213.333v298.667c0 21.333 21.333 42.667 42.667 42.667s42.667-21.333 42.667-42.667v-298.667c0-72.533 55.467-128 128-128h409.6l-140.8 140.8c-17.067 17.067-17.067 42.667 0 59.733s42.667 17.067 59.733 0l213.333-213.333c4.267-4.267 8.533-8.533 8.533-12.8 0 0 0-4.267 0-4.267 4.267-4.267 4.267-8.533 4.267-12.8z" />
<glyph unicode="&#xe94a;" glyph-name="corner-left-down" d="M896 789.333c0-21.333-21.333-42.667-42.667-42.667h-298.667c-72.533 0-128-55.467-128-128v-409.6l140.8 140.8c17.067 17.067 42.667 17.067 59.733 0s17.067-42.667 0-59.733l-213.333-213.333c-4.267-4.267-8.533-8.533-12.8-8.533 0 0-4.267 0-4.267 0-4.267 0-8.533 0-8.533 0s-8.533 0-8.533 0c0 0-4.267 0-4.267 0-4.267 0-8.533 4.267-12.8 8.533l-213.333 213.333c-17.067 17.067-17.067 42.667 0 59.733s42.667 17.067 59.733 0l132.267-140.8v409.6c0 119.467 93.867 213.333 213.333 213.333h298.667c21.333 0 42.667-21.333 42.667-42.667z" />
<glyph unicode="&#xe94b;" glyph-name="corner-left-up" d="M896 106.667c0-21.333-21.333-42.667-42.667-42.667h-298.667c-119.467 0-213.333 93.867-213.333 213.333v409.6l-140.8-140.8c-17.067-17.067-42.667-17.067-59.733 0s-17.067 42.667 0 59.733l213.333 213.333c4.267 4.267 8.533 8.533 12.8 8.533 0 0 4.267 0 4.267 0 4.267 4.267 8.533 4.267 12.8 4.267s8.533 0 8.533 0c0 0 4.267 0 4.267 0 4.267 0 8.533-4.267 12.8-8.533l213.333-213.333c17.067-17.067 17.067-42.667 0-59.733-4.267-12.8-12.8-17.067-25.6-17.067s-21.333 4.267-29.867 12.8l-140.8 140.8v-409.6c0-72.533 55.467-128 128-128h298.667c21.333 0 42.667-21.333 42.667-42.667z" />
<glyph unicode="&#xe94c;" glyph-name="corner-right-down" d="M883.2 290.133l-213.333-213.333c-4.267-4.267-8.533-8.533-12.8-8.533 0 0-4.267 0-4.267 0-4.267 0-8.533 0-8.533 0s-8.533 0-8.533 0c0 0-4.267 0-4.267 0-4.267 0-8.533 4.267-12.8 8.533l-213.333 213.333c-17.067 17.067-17.067 42.667 0 59.733s42.667 17.067 59.733 0l140.8-140.8v409.6c0 72.533-55.467 128-128 128h-307.2c-21.333 0-42.667 21.333-42.667 42.667s21.333 42.667 42.667 42.667h298.667c119.467 0 213.333-93.867 213.333-213.333v-409.6l140.8 140.8c17.067 17.067 42.667 17.067 59.733 0s17.067-42.667 0-59.733z" />
<glyph unicode="&#xe94d;" glyph-name="corner-right-up" d="M883.2 546.133c-8.533-8.533-17.067-12.8-29.867-12.8s-21.333 4.267-29.867 12.8l-140.8 140.8v-409.6c0-119.467-93.867-213.333-213.333-213.333h-298.667c-21.333 0-42.667 21.333-42.667 42.667s21.333 42.667 42.667 42.667h298.667c72.533 0 128 55.467 128 128v409.6l-140.8-140.8c-17.067-17.067-42.667-17.067-59.733 0s-17.067 42.667 0 59.733l213.333 213.333c4.267 4.267 8.533 8.533 12.8 8.533 0 0 4.267 0 4.267 0 4.267 0 8.533 0 8.533 0s8.533 0 8.533 0c0 0 4.267 0 4.267 0 4.267 0 8.533-4.267 12.8-8.533l213.333-213.333c25.6-17.067 25.6-42.667 8.533-59.733z" />
<glyph unicode="&#xe94e;" glyph-name="corner-up-left" d="M896 405.333v-298.667c0-21.333-21.333-42.667-42.667-42.667s-42.667 21.333-42.667 42.667v298.667c0 72.533-55.467 128-128 128h-409.6l140.8-140.8c17.067-17.067 17.067-42.667 0-59.733-8.533-8.533-17.067-12.8-29.867-12.8s-21.333 4.267-29.867 12.8l-213.333 213.333c-4.267 4.267-8.533 8.533-8.533 12.8 0 0 0 4.267 0 4.267-4.267 4.267-4.267 8.533-4.267 12.8s0 8.533 0 8.533c0 0 0 4.267 0 4.267 0 4.267 4.267 8.533 8.533 12.8l213.333 213.333c17.067 17.067 42.667 17.067 59.733 0s17.067-42.667 0-59.733l-136.533-136.533h409.6c119.467 0 213.333-93.867 213.333-213.333z" />
<glyph unicode="&#xe94f;" glyph-name="corner-up-right" d="M896 576c0-4.267 0-8.533 0-8.533s0-4.267 0-4.267-4.267-8.533-8.533-12.8l-213.333-213.333c-12.8-12.8-21.333-17.067-34.133-17.067s-21.333 4.267-29.867 12.8c-17.067 17.067-17.067 42.667 0 59.733l140.8 140.8h-409.6c-72.533 0-128-55.467-128-128v-298.667c0-21.333-21.333-42.667-42.667-42.667s-42.667 21.333-42.667 42.667v298.667c0 119.467 93.867 213.333 213.333 213.333h409.6l-140.8 140.8c-17.067 17.067-17.067 42.667 0 59.733s42.667 17.067 59.733 0l213.333-213.333c4.267-4.267 8.533-8.533 8.533-12.8 0 0 0-4.267 0-4.267 4.267-4.267 4.267-8.533 4.267-12.8z" />
<glyph unicode="&#xe950;" glyph-name="cpu" d="M981.333 405.333h-85.333v128h85.333c21.333 0 42.667 21.333 42.667 42.667s-21.333 42.667-42.667 42.667h-85.333v85.333c0 72.533-55.467 128-128 128h-85.333v85.333c0 21.333-21.333 42.667-42.667 42.667s-42.667-21.333-42.667-42.667v-85.333h-170.667v85.333c0 21.333-21.333 42.667-42.667 42.667s-42.667-21.333-42.667-42.667v-85.333h-85.333c-72.533 0-128-55.467-128-128v-85.333h-85.333c-21.333 0-42.667-21.333-42.667-42.667s21.333-42.667 42.667-42.667h85.333v-128h-85.333c-21.333 0-42.667-21.333-42.667-42.667s21.333-42.667 42.667-42.667h85.333v-128c0-72.533 55.467-128 128-128h85.333v-85.333c0-21.333 21.333-42.667 42.667-42.667s42.667 21.333 42.667 42.667v85.333h170.667v-85.333c0-21.333 21.333-42.667 42.667-42.667s42.667 21.333 42.667 42.667v85.333h85.333c72.533 0 128 55.467 128 128v128h85.333c21.333 0 42.667 21.333 42.667 42.667s-21.333 42.667-42.667 42.667zM810.667 192c0-21.333-21.333-42.667-42.667-42.667h-512c-21.333 0-42.667 21.333-42.667 42.667v512c0 21.333 21.333 42.667 42.667 42.667h512c21.333 0 42.667-21.333 42.667-42.667v-512zM640 277.333h-256c-25.6 0-42.667 17.067-42.667 42.667v256c0 25.6 17.067 42.667 42.667 42.667h256c25.6 0 42.667-17.067 42.667-42.667v-256c0-25.6-17.067-42.667-42.667-42.667zM426.667 362.667h170.667v170.667h-170.667v-170.667z" />
<glyph unicode="&#xe951;" glyph-name="credit-card" d="M896 832h-768c-72.533 0-128-55.467-128-128v-512c0-72.533 55.467-128 128-128h768c72.533 0 128 55.467 128 128v512c0 72.533-55.467 128-128 128zM85.333 704c0 21.333 21.333 42.667 42.667 42.667h768c21.333 0 42.667-21.333 42.667-42.667v-128h-853.333v128zM938.667 192c0-21.333-21.333-42.667-42.667-42.667h-768c-21.333 0-42.667 21.333-42.667 42.667v298.667h853.333v-298.667z" />
<glyph unicode="&#xe952;" glyph-name="crop" d="M981.333 234.667h-170.667v384c0 72.533-55.467 128-128 128l-379.733-4.267v174.933c0 21.333-17.067 42.667-42.667 42.667v0c-21.333 0-42.667-17.067-42.667-42.667v-174.933h-174.933c-21.333 0-42.667-21.333-42.667-42.667s21.333-42.667 42.667-42.667v0h174.933l-4.267-379.733c0-72.533 55.467-128 128-128h384v-170.667c0-21.333 21.333-42.667 42.667-42.667s42.667 21.333 42.667 42.667v170.667h170.667c21.333 0 42.667 21.333 42.667 42.667s-21.333 42.667-42.667 42.667zM341.333 234.667c-21.333 0-42.667 21.333-42.667 42.667l4.267 379.733 379.733 4.267c21.333 0 42.667-21.333 42.667-42.667v-384h-384z" />
<glyph unicode="&#xe953;" glyph-name="crosshair" d="M512 917.333c-260.267 0-469.333-209.067-469.333-469.333s209.067-469.333 469.333-469.333 469.333 209.067 469.333 469.333-209.067 469.333-469.333 469.333zM554.667 68.267v123.733c0 21.333-21.333 42.667-42.667 42.667s-42.667-21.333-42.667-42.667v-123.733c-179.2 21.333-320 162.133-337.067 337.067h123.733c21.333 0 42.667 21.333 42.667 42.667s-21.333 42.667-42.667 42.667h-123.733c17.067 179.2 157.867 320 337.067 337.067v-123.733c0-21.333 21.333-42.667 42.667-42.667s42.667 21.333 42.667 42.667v123.733c179.2-21.333 320-162.133 337.067-337.067h-123.733c-21.333 0-42.667-21.333-42.667-42.667s21.333-42.667 42.667-42.667h123.733c-17.067-179.2-157.867-320-337.067-337.067z" />
<glyph unicode="&#xe954;" glyph-name="database" d="M938.667 755.2c-12.8 110.933-226.133 162.133-426.667 162.133s-413.867-51.2-426.667-162.133c0-4.267 0-4.267 0-8.533v-597.333c0-119.467 221.867-170.667 426.667-170.667s426.667 51.2 426.667 170.667v597.333c0 4.267 0 4.267 0 8.533zM853.333 149.333c0-21.333-106.667-85.333-341.333-85.333s-341.333 64-341.333 85.333v192c85.333-42.667 213.333-64 341.333-64s256 21.333 341.333 64v-192zM853.333 448c0-21.333-106.667-85.333-341.333-85.333s-341.333 64-341.333 85.333v192c85.333-42.667 213.333-64 341.333-64s256 21.333 341.333 64v-192zM512 661.333c-221.867 0-341.333 64-341.333 85.333s119.467 85.333 341.333 85.333 341.333-64 341.333-85.333-119.467-85.333-341.333-85.333z" />
<glyph unicode="&#xe955;" glyph-name="delete" d="M896 832h-554.667c-12.8 0-25.6-4.267-34.133-12.8l-298.667-341.333c-12.8-17.067-12.8-38.4 0-55.467l298.667-341.333c8.533-12.8 21.333-17.067 34.133-17.067h554.667c72.533 0 128 55.467 128 128v512c0 72.533-55.467 128-128 128zM938.667 192c0-21.333-21.333-42.667-42.667-42.667h-533.333l-260.267 298.667 260.267 298.667h533.333c21.333 0 42.667-21.333 42.667-42.667v-512zM797.867 349.867c17.067-17.067 17.067-42.667 0-59.733-8.533-8.533-17.067-12.8-29.867-12.8s-21.333 4.267-29.867 12.8l-98.133 98.133-98.133-98.133c-8.533-8.533-17.067-12.8-29.867-12.8s-21.333 4.267-29.867 12.8c-17.067 17.067-17.067 42.667 0 59.733l98.133 98.133-98.133 98.133c-17.067 17.067-17.067 42.667 0 59.733s42.667 17.067 59.733 0l98.133-98.133 98.133 98.133c17.067 17.067 42.667 17.067 59.733 0s17.067-42.667 0-59.733l-98.133-98.133 98.133-98.133z" />
<glyph unicode="&#xe956;" glyph-name="disc" d="M512-21.333c-260.267 0-469.333 209.067-469.333 469.333s209.067 469.333 469.333 469.333 469.333-209.067 469.333-469.333-209.067-469.333-469.333-469.333zM512 832c-213.333 0-384-170.667-384-384s170.667-384 384-384c213.333 0 384 170.667 384 384s-170.667 384-384 384zM512 277.333c-93.867 0-170.667 76.8-170.667 170.667s76.8 170.667 170.667 170.667c93.867 0 170.667-76.8 170.667-170.667s-76.8-170.667-170.667-170.667zM512 533.333c-46.933 0-85.333-38.4-85.333-85.333s38.4-85.333 85.333-85.333c46.933 0 85.333 38.4 85.333 85.333s-38.4 85.333-85.333 85.333z" />
<glyph unicode="&#xe957;" glyph-name="dollar-sign" d="M618.667 490.667h-64v213.333h170.667c21.333 0 42.667 21.333 42.667 42.667s-21.333 42.667-42.667 42.667h-170.667v128c0 21.333-21.333 42.667-42.667 42.667s-42.667-21.333-42.667-42.667v-128h-64c-106.667 0-192-85.333-192-192s85.333-192 192-192h64v-213.333h-213.333c-21.333 0-42.667-21.333-42.667-42.667s21.333-42.667 42.667-42.667h213.333v-128c0-21.333 21.333-42.667 42.667-42.667s42.667 21.333 42.667 42.667v128h64c106.667 0 192 85.333 192 192s-85.333 192-192 192zM469.333 490.667h-64c-59.733 0-106.667 46.933-106.667 106.667s46.933 106.667 106.667 106.667h64v-213.333zM618.667 192h-64v213.333h64c59.733 0 106.667-46.933 106.667-106.667s-46.933-106.667-106.667-106.667z" />
<glyph unicode="&#xe958;" glyph-name="download-cloud" d="M712.533 204.8l-170.667-170.667c-4.267-4.267-8.533-8.533-12.8-8.533 0 0-4.267 0-4.267 0-4.267 0-8.533 0-8.533 0s-8.533 0-8.533 0c0 0-4.267 0-4.267 0-4.267 0-8.533 4.267-12.8 8.533l-170.667 170.667c-17.067 17.067-17.067 42.667 0 59.733s42.667 17.067 59.733 0l98.133-98.133v281.6c0 21.333 21.333 42.667 42.667 42.667s42.667-21.333 42.667-42.667v-281.6l98.133 98.133c17.067 17.067 42.667 17.067 59.733 0 8.533-17.067 8.533-42.667-8.533-59.733zM891.733 145.067c-12.8 0-25.6 4.267-34.133 17.067-12.8 21.333-8.533 46.933 8.533 59.733 38.4 25.6 64 64 68.267 110.933s-4.267 89.6-29.867 128c-29.867 46.933-85.333 72.533-140.8 72.533 0 0 0 0 0 0h-55.467c-21.333 0-38.4 12.8-42.667 34.133-42.667 157.867-204.8 256-362.667 213.333-72.533-21.333-136.533-68.267-174.933-136.533-42.667-68.267-55.467-149.333-34.133-226.133 12.8-46.933 34.133-89.6 64-123.733 17.067-17.067 12.8-42.667-4.267-59.733s-42.667-12.8-59.733 4.267c-38.4 46.933-68.267 102.4-85.333 157.867-25.6 98.133-12.8 200.533 42.667 290.133 51.2 89.6 136.533 149.333 234.667 174.933 196.267 51.2 396.8-55.467 460.8-243.2h21.333c0 0 0 0 0 0 85.333 0 162.133-42.667 209.067-106.667 38.4-55.467 55.467-123.733 42.667-192s-46.933-128-106.667-166.4c-4.267-4.267-12.8-8.533-21.333-8.533z" />
<glyph unicode="&#xe959;" glyph-name="download" d="M810.667 21.333h-597.333c-72.533 0-128 55.467-128 128v170.667c0 25.6 17.067 42.667 42.667 42.667s42.667-17.067 42.667-42.667v-170.667c0-25.6 17.067-42.667 42.667-42.667h597.333c25.6 0 42.667 17.067 42.667 42.667v170.667c0 25.6 17.067 42.667 42.667 42.667s42.667-17.067 42.667-42.667v-170.667c0-72.533-55.467-128-128-128zM755.2 503.467l-213.333-213.333c-4.267-4.267-8.533-8.533-12.8-8.533 0 0-4.267 0-4.267 0-4.267 0-8.533 0-8.533 0s-8.533 0-8.533 0c0 0-4.267 0-4.267 0-4.267 0-8.533 4.267-12.8 8.533l-213.333 213.333c-17.067 17.067-17.067 42.667 0 59.733s42.667 17.067 59.733 0l140.8-140.8v409.6c0 21.333 21.333 42.667 42.667 42.667s42.667-21.333 42.667-42.667v-409.6l140.8 140.8c17.067 17.067 42.667 17.067 59.733 0 8.533-17.067 8.533-42.667-8.533-59.733z" />
<glyph unicode="&#xe95a;" glyph-name="dribbble" d="M512 960c-281.6 0-512-230.4-512-512s230.4-512 512-512 512 230.4 512 512-230.4 512-512 512zM844.8 716.8c55.467-72.533 93.867-162.133 93.867-256-106.667 21.333-204.8 21.333-285.867 4.267-17.067 34.133-29.867 68.267-46.933 102.4 93.867 38.4 174.933 89.6 238.933 149.333zM789.333 776.533c-64-59.733-140.8-102.4-221.867-136.533-55.467 106.667-110.933 183.467-145.067 230.4 29.867 4.267 59.733 8.533 89.6 8.533 106.667 0 200.533-38.4 277.333-102.4zM341.333 840.533c25.6-34.133 85.333-115.2 149.333-230.4-162.133-51.2-320-59.733-396.8-64 29.867 132.267 123.733 243.2 247.467 294.4zM81.067 465.067c4.267 0 4.267 0 0 0 55.467 0 149.333 4.267 264.533 25.6 64 12.8 123.733 25.6 183.467 46.933 12.8-29.867 29.867-59.733 42.667-93.867-81.067-25.6-149.333-64-200.533-98.133-89.6-59.733-153.6-132.267-187.733-170.667-64 76.8-102.4 170.667-102.4 277.333 0 0 0 8.533 0 12.8zM243.2 110.933c29.867 38.4 89.6 106.667 174.933 166.4 59.733 38.4 119.467 68.267 183.467 89.6 38.4-93.867 68.267-200.533 85.333-311.467-55.467-25.6-115.2-38.4-179.2-38.4-98.133 0-192 38.4-264.533 93.867zM763.733 102.4c-17.067 102.4-46.933 196.267-81.067 285.867 81.067 12.8 166.4 12.8 251.733-8.533-17.067-115.2-81.067-213.333-170.667-277.333z" />
<glyph unicode="&#xe95b;" glyph-name="droplet" d="M512-21.333c-102.4 0-200.533 38.4-273.067 110.933s-110.933 170.667-110.933 273.067c0 102.4 38.4 200.533 110.933 273.067 0 0 0 0 0 0l243.2 238.933c8.533 8.533 17.067 12.8 29.867 12.8v0c12.8 0 21.333-4.267 29.867-12.8l243.2-243.2c149.333-149.333 149.333-392.533 0-541.867-72.533-72.533-170.667-110.933-273.067-110.933 0 0 0 0 0 0zM298.667 571.733c-55.467-55.467-85.333-132.267-85.333-209.067 0-81.067 29.867-153.6 89.6-209.067 55.467-55.467 132.267-85.333 209.067-85.333 0 0 0 0 0 0 81.067 0 153.6 29.867 209.067 89.6 115.2 115.2 115.2 307.2 0 422.4l-213.333 213.333-209.067-221.867c4.267 0 0 0 0 0zM273.067 601.6v0 0z" />
<glyph unicode="&#xe95c;" glyph-name="edit-2" d="M925.867 861.867c-64 64-166.4 64-230.4 0l-576-576c-4.267-4.267-8.533-12.8-8.533-21.333l-68.267-230.4c-4.267-12.8 0-29.867 8.533-42.667 12.8-8.533 21.333-12.8 34.133-12.8 4.267 0 8.533 0 12.8 0l234.667 64c8.533 0 12.8 4.267 21.333 8.533l571.733 580.267c64 64 64 166.4 0 230.4zM866.133 691.2l-567.467-567.467-149.333-42.667 42.667 153.6 563.2 567.467c29.867 29.867 81.067 29.867 110.933 0s29.867-81.067 0-110.933z" />
<glyph unicode="&#xe95d;" glyph-name="edit-3" d="M896 64h-384c-25.6 0-42.667 17.067-42.667 42.667s17.067 42.667 42.667 42.667h384c25.6 0 42.667-17.067 42.667-42.667s-17.067-42.667-42.667-42.667zM861.867 840.533c-51.2 51.2-136.533 51.2-187.733 0l-533.333-533.333c-4.267-4.267-8.533-12.8-12.8-21.333l-42.667-170.667c-4.267-12.8 0-29.867 12.8-42.667 8.533-4.267 17.067-8.533 29.867-8.533 4.267 0 8.533 0 8.533 0l170.667 42.667c8.533 0 12.8 4.267 21.333 12.8l533.333 533.333c51.2 51.2 51.2 136.533 0 187.733zM802.133 712.533l-524.8-524.8-89.6-21.333 21.333 89.6 524.8 524.8c17.067 17.067 51.2 17.067 68.267 0s17.067-51.2 0-68.267z" />
<glyph unicode="&#xe95e;" glyph-name="edit" d="M768-21.333h-597.333c-72.533 0-128 55.467-128 128v597.333c0 72.533 55.467 128 128 128h298.667c25.6 0 42.667-17.067 42.667-42.667s-17.067-42.667-42.667-42.667h-298.667c-25.6 0-42.667-17.067-42.667-42.667v-597.333c0-25.6 17.067-42.667 42.667-42.667h597.333c25.6 0 42.667 17.067 42.667 42.667v298.667c0 25.6 17.067 42.667 42.667 42.667s42.667-17.067 42.667-42.667v-298.667c0-72.533-55.467-128-128-128zM341.333 234.667c-12.8 0-21.333 4.267-29.867 12.8-12.8 8.533-17.067 25.6-12.8 38.4l42.667 170.667c0 8.533 4.267 12.8 12.8 21.333l405.333 405.333c51.2 51.2 136.533 51.2 187.733 0s51.2-136.533 0-187.733l-405.333-405.333c-4.267-4.267-12.8-8.533-21.333-12.8l-170.667-42.667c0 0-4.267 0-8.533 0zM422.4 426.667l-21.333-89.6 89.6 21.333 396.8 396.8c17.067 17.067 17.067 46.933 0 68.267-17.067 17.067-51.2 17.067-68.267 0v0l-396.8-396.8zM789.333 853.333v0 0z" />
<glyph unicode="&#xe95f;" glyph-name="external-link" d="M810.667 405.333v-256c0-72.533-55.467-128-128-128h-469.333c-72.533 0-128 55.467-128 128v469.333c0 72.533 55.467 128 128 128h256c21.333 0 42.667-21.333 42.667-42.667s-21.333-42.667-42.667-42.667h-256c-21.333 0-42.667-21.333-42.667-42.667v-469.333c0-21.333 21.333-42.667 42.667-42.667h469.333c21.333 0 42.667 21.333 42.667 42.667v256c0 21.333 21.333 42.667 42.667 42.667s42.667-21.333 42.667-42.667zM938.667 832v-256c0-21.333-21.333-42.667-42.667-42.667s-42.667 21.333-42.667 42.667v153.6l-396.8-396.8c-8.533-8.533-17.067-12.8-29.867-12.8s-21.333 4.267-29.867 12.8c-17.067 17.067-17.067 42.667 0 59.733l396.8 396.8h-153.6c-21.333 0-42.667 21.333-42.667 42.667s21.333 42.667 42.667 42.667h256c4.267 0 8.533 0 8.533 0s4.267 0 4.267 0 8.533-4.267 12.8-8.533c4.267-4.267 8.533-8.533 8.533-12.8 0 0 0-4.267 0-4.267 8.533-8.533 8.533-12.8 8.533-17.067z" />
<glyph unicode="&#xe960;" glyph-name="eye-off" d="M1019.733 426.667c-25.6-51.2-59.733-98.133-98.133-145.067-8.533-8.533-21.333-17.067-34.133-17.067-8.533 0-21.333 4.267-25.6 8.533-17.067 17.067-21.333 42.667-4.267 59.733 29.867 34.133 55.467 68.267 76.8 106.667-38.4 68.267-192 298.667-422.4 298.667-25.6 0-55.467-4.267-81.067-8.533-21.333 4.267-46.933 17.067-51.2 38.4-4.267 25.6 8.533 46.933 34.133 51.2 29.867 8.533 64 12.8 98.133 12.8 320 0 499.2-349.867 507.733-362.667 4.267-12.8 4.267-29.867 0-42.667zM1011.2 8.533l-563.2 563.2-157.867 153.6-4.267 8.533-213.333 213.333c-17.067 17.067-42.667 17.067-59.733 0s-17.067-42.667 0-59.733l183.467-183.467c-76.8-64-140.8-145.067-192-234.667-4.267-12.8-8.533-25.6 0-38.4 8.533-17.067 187.733-366.933 507.733-366.933 89.6 0 174.933 25.6 247.467 76.8v0l192-192c8.533-8.533 21.333-12.8 29.867-12.8s21.333 4.267 29.867 12.8c17.067 17.067 17.067 42.667 0 59.733zM533.333 362.667c-8.533-4.267-17.067-4.267-21.333-4.267-21.333 0-42.667 8.533-59.733 21.333-17.067 17.067-25.6 38.4-25.6 59.733 0 8.533 0 21.333 4.267 29.867l102.4-106.667zM512 149.333c-230.4 0-379.733 230.4-422.4 298.667 42.667 76.8 98.133 140.8 162.133 196.267l110.933-110.933c-17.067-29.867-25.6-64-25.6-98.133 0-46.933 21.333-89.6 55.467-119.467 29.867-29.867 72.533-46.933 115.2-46.933 0 0 4.267 0 8.533 0 29.867 0 59.733 8.533 85.333 25.6l98.133-98.133c-59.733-29.867-123.733-46.933-187.733-46.933z" />
<glyph unicode="&#xe961;" glyph-name="eye" d="M512 64c-320 0-499.2 349.867-507.733 366.933-4.267 12.8-4.267 25.6 0 38.4 8.533 12.8 187.733 362.667 507.733 362.667s499.2-349.867 507.733-366.933c4.267-12.8 4.267-25.6 0-38.4-8.533-12.8-187.733-362.667-507.733-362.667zM89.6 448c38.4-68.267 192-298.667 422.4-298.667s379.733 230.4 422.4 298.667c-38.4 68.267-192 298.667-422.4 298.667s-379.733-230.4-422.4-298.667zM512 277.333c-93.867 0-170.667 76.8-170.667 170.667s76.8 170.667 170.667 170.667c93.867 0 170.667-76.8 170.667-170.667s-76.8-170.667-170.667-170.667zM512 533.333c-46.933 0-85.333-38.4-85.333-85.333s38.4-85.333 85.333-85.333c46.933 0 85.333 38.4 85.333 85.333s-38.4 85.333-85.333 85.333z" />
<glyph unicode="&#xe962;" glyph-name="facebook" d="M588.8 622.933v89.6c0 12.8 0 25.6 0 29.867 0 8.533 4.267 12.8 8.533 21.333s12.8 12.8 21.333 12.8c8.533 4.267 21.333 4.267 38.4 4.267h89.6v179.2h-140.8c-81.067 0-140.8-21.333-174.933-59.733s-55.467-93.867-55.467-170.667v-106.667h-102.4v-174.933h106.667v-512h213.333v512h140.8l17.067 174.933h-162.133z" />
<glyph unicode="&#xe963;" glyph-name="fast-forward" d="M554.667 106.667c-4.267 0-12.8 0-17.067 4.267-17.067 8.533-25.6 21.333-25.6 38.4v597.333c0 17.067 8.533 29.867 25.6 38.4 12.8 8.533 34.133 4.267 46.933-4.267l384-298.667c8.533-8.533 17.067-21.333 17.067-34.133s-4.267-25.6-17.067-34.133l-384-298.667c-12.8-4.267-21.333-8.533-29.867-8.533zM597.333 661.333v-426.667l273.067 213.333-273.067 213.333zM85.333 106.667c-4.267 0-12.8 0-17.067 4.267-17.067 8.533-25.6 21.333-25.6 38.4v597.333c0 17.067 8.533 29.867 25.6 38.4 12.8 8.533 29.867 4.267 42.667-4.267l384-298.667c8.533-8.533 17.067-21.333 17.067-34.133s-4.267-25.6-17.067-34.133l-384-298.667c-8.533-4.267-17.067-8.533-25.6-8.533zM128 661.333v-426.667l273.067 213.333-273.067 213.333z" />
<glyph unicode="&#xe964;" glyph-name="feather" d="M896 832c-115.2 115.2-307.2 115.2-422.4 0l-290.133-290.133c-8.533-8.533-12.8-17.067-12.8-29.867v-345.6l-115.2-115.2c-17.067-17.067-17.067-42.667 0-59.733 8.533-8.533 17.067-12.8 29.867-12.8s21.333 4.267 29.867 12.8l115.2 115.2h345.6c12.8 0 21.333 4.267 29.867 12.8l170.667 174.933 119.467 110.933c115.2 119.467 115.2 307.2 0 426.667zM558.933 192h-243.2l85.333 85.333h243.2l-85.333-85.333zM832 469.333l-102.4-106.667h-243.2l226.133 226.133c17.067 17.067 17.067 42.667 0 59.733s-42.667 17.067-59.733 0l-396.8-396.8v243.2l277.333 273.067c81.067 85.333 217.6 85.333 302.933 0 42.667-42.667 64-98.133 64-149.333s-25.6-110.933-68.267-149.333z" />
<glyph unicode="&#xe965;" glyph-name="figma" d="M780.8 576c42.667 34.133 72.533 89.6 72.533 149.333 0 106.667-85.333 192-192 192h-298.667c-106.667 0-192-85.333-192-192 0-59.733 29.867-115.2 72.533-149.333-42.667-34.133-72.533-89.6-72.533-149.333s29.867-115.2 72.533-149.333c-42.667-34.133-72.533-89.6-72.533-149.333 0-106.667 85.333-192 192-192s192 85.333 192 192v140.8c0 0 0 0 0 0 0 4.267 0 4.267 0 8.533v-8.533c29.867-21.333 68.267-34.133 106.667-34.133 106.667 0 192 85.333 192 192 0 59.733-29.867 115.2-72.533 149.333zM469.333 128c0-59.733-46.933-106.667-106.667-106.667s-106.667 46.933-106.667 106.667 46.933 106.667 106.667 106.667h106.667v-106.667zM469.333 320h-106.667c-59.733 0-106.667 46.933-106.667 106.667s46.933 106.667 106.667 106.667h106.667v-213.333zM469.333 618.667h-106.667c-59.733 0-106.667 46.933-106.667 106.667s46.933 106.667 106.667 106.667h106.667v-213.333zM661.333 320c-59.733 0-106.667 46.933-106.667 106.667s46.933 106.667 106.667 106.667 106.667-46.933 106.667-106.667-46.933-106.667-106.667-106.667zM661.333 618.667h-106.667v213.333h106.667c59.733 0 106.667-46.933 106.667-106.667s-46.933-106.667-106.667-106.667zM554.667 268.8c0 0 0 0 0 0v8.533c0-4.267 0-8.533 0-8.533z" />
<glyph unicode="&#xe966;" glyph-name="file-minus" d="M883.2 648.533l-256 256c-8.533 8.533-17.067 12.8-29.867 12.8h-341.333c-72.533 0-128-55.467-128-128v-682.667c0-72.533 55.467-128 128-128h512c72.533 0 128 55.467 128 128v512c0 12.8-4.267 21.333-12.8 29.867zM640 772.267l110.933-110.933h-110.933v110.933zM810.667 106.667c0-21.333-21.333-42.667-42.667-42.667h-512c-21.333 0-42.667 21.333-42.667 42.667v682.667c0 21.333 21.333 42.667 42.667 42.667h298.667v-213.333c0-21.333 21.333-42.667 42.667-42.667h213.333v-469.333zM682.667 320c0-21.333-21.333-42.667-42.667-42.667h-256c-21.333 0-42.667 21.333-42.667 42.667s21.333 42.667 42.667 42.667h256c21.333 0 42.667-21.333 42.667-42.667z" />
<glyph unicode="&#xe967;" glyph-name="file-plus" d="M883.2 648.533l-256 256c-8.533 8.533-17.067 12.8-29.867 12.8h-341.333c-72.533 0-128-55.467-128-128v-682.667c0-72.533 55.467-128 128-128h512c72.533 0 128 55.467 128 128v512c0 12.8-4.267 21.333-12.8 29.867zM640 772.267l110.933-110.933h-110.933v110.933zM810.667 106.667c0-21.333-21.333-42.667-42.667-42.667h-512c-21.333 0-42.667 21.333-42.667 42.667v682.667c0 21.333 21.333 42.667 42.667 42.667h298.667v-213.333c0-21.333 21.333-42.667 42.667-42.667h213.333v-469.333zM682.667 320c0-21.333-21.333-42.667-42.667-42.667h-85.333v-85.333c0-21.333-21.333-42.667-42.667-42.667s-42.667 21.333-42.667 42.667v85.333h-85.333c-21.333 0-42.667 21.333-42.667 42.667s21.333 42.667 42.667 42.667h85.333v85.333c0 21.333 21.333 42.667 42.667 42.667s42.667-21.333 42.667-42.667v-85.333h85.333c21.333 0 42.667-21.333 42.667-42.667z" />
<glyph unicode="&#xe968;" glyph-name="file-text" d="M883.2 648.533l-256 256c-8.533 8.533-17.067 12.8-29.867 12.8h-341.333c-72.533 0-128-55.467-128-128v-682.667c0-72.533 55.467-128 128-128h512c72.533 0 128 55.467 128 128v512c0 12.8-4.267 21.333-12.8 29.867zM640 772.267l110.933-110.933h-110.933v110.933zM810.667 106.667c0-21.333-21.333-42.667-42.667-42.667h-512c-21.333 0-42.667 21.333-42.667 42.667v682.667c0 21.333 21.333 42.667 42.667 42.667h298.667v-213.333c0-21.333 21.333-42.667 42.667-42.667h213.333v-469.333zM725.333 405.333c0-21.333-21.333-42.667-42.667-42.667h-341.333c-21.333 0-42.667 21.333-42.667 42.667s21.333 42.667 42.667 42.667h341.333c21.333 0 42.667-21.333 42.667-42.667zM725.333 234.667c0-21.333-21.333-42.667-42.667-42.667h-341.333c-21.333 0-42.667 21.333-42.667 42.667s21.333 42.667 42.667 42.667h341.333c21.333 0 42.667-21.333 42.667-42.667zM469.333 576c0-21.333-21.333-42.667-42.667-42.667h-85.333c-21.333 0-42.667 21.333-42.667 42.667s21.333 42.667 42.667 42.667h85.333c21.333 0 42.667-21.333 42.667-42.667z" />
<glyph unicode="&#xe969;" glyph-name="file" d="M883.2 605.867l-298.667 298.667c-8.533 8.533-17.067 12.8-29.867 12.8h-298.667c-72.533 0-128-55.467-128-128v-682.667c0-72.533 55.467-128 128-128h512c72.533 0 128 55.467 128 128v469.333c0 12.8-4.267 21.333-12.8 29.867zM597.333 772.267l153.6-153.6h-153.6v153.6zM810.667 106.667c0-21.333-21.333-42.667-42.667-42.667h-512c-21.333 0-42.667 21.333-42.667 42.667v682.667c0 21.333 21.333 42.667 42.667 42.667h256v-256c0-21.333 21.333-42.667 42.667-42.667h256v-426.667z" />
<glyph unicode="&#xe96a;" glyph-name="film" d="M844.8 917.333h-665.6c-76.8 0-136.533-59.733-136.533-136.533v-665.6c0-76.8 59.733-136.533 136.533-136.533h665.6c76.8 0 136.533 59.733 136.533 136.533v665.6c0 76.8-59.733 136.533-136.533 136.533zM256 64h-76.8c-29.867 0-51.2 21.333-51.2 51.2v76.8h128v-128zM256 277.333h-128v128h128v-128zM256 490.667h-128v128h128v-128zM256 704h-128v76.8c0 29.867 21.333 51.2 51.2 51.2h76.8v-128zM682.667 64h-341.333v341.333h341.333v-341.333zM682.667 490.667h-341.333v341.333h341.333v-341.333zM896 115.2c0-25.6-21.333-51.2-51.2-51.2h-76.8v128h128v-76.8zM896 277.333h-128v128h128v-128zM896 490.667h-128v128h128v-128zM896 704h-128v128h76.8c29.867 0 51.2-21.333 51.2-51.2v-76.8z" />
<glyph unicode="&#xe96b;" glyph-name="filter-alt" d="M38.4 750.933h64c21.333-68.267 93.867-110.933 166.4-89.6 42.667 12.8 81.067 46.933 93.867 93.867h622.933c21.333 0 38.4 17.067 38.4 38.4s-17.067 38.4-38.4 38.4h-627.2c-21.333 64-93.867 106.667-162.133 85.333-42.667-12.8-81.067-46.933-93.867-93.867h-64c-21.333 0-38.4-17.067-38.4-34.133s17.067-38.4 38.4-38.4zM230.4 849.067c34.133 0 59.733-25.6 59.733-59.733s-25.6-64-59.733-64-59.733 29.867-59.733 64 25.6 59.733 59.733 59.733zM985.6 486.4h-349.867c-25.6 68.267-102.4 102.4-170.667 76.8-34.133-12.8-64-42.667-76.8-76.8h-349.867c-21.333 0-38.4-17.067-38.4-38.4s17.067-38.4 38.4-38.4h341.333c12.8-72.533 81.067-119.467 153.6-106.667 55.467 8.533 98.133 51.2 106.667 106.667h341.333c21.333 0 38.4 17.067 38.4 38.4s-17.067 38.4-34.133 38.4v0zM512 375.467c-34.133 0-59.733 25.6-59.733 59.733s25.6 59.733 59.733 59.733c34.133 0 59.733-25.6 59.733-59.733s-29.867-59.733-59.733-59.733zM985.6 145.067h-64c-21.333 72.533-93.867 110.933-166.4 93.867-42.667-12.8-81.067-46.933-93.867-93.867h-622.933c-21.333 0-38.4-17.067-38.4-38.4s17.067-38.4 38.4-38.4h622.933c21.333-72.533 93.867-110.933 166.4-93.867 42.667 12.8 81.067 46.933 93.867 93.867h64c21.333 0 38.4 17.067 38.4 38.4-4.267 21.333-21.333 38.4-38.4 38.4zM789.333 46.933c-34.133 0-59.733 25.6-59.733 59.733s25.6 59.733 59.733 59.733 59.733-25.6 59.733-59.733c0-34.133-25.6-59.733-59.733-59.733z" />
<glyph unicode="&#xe96c;" glyph-name="filter" d="M977.067 849.067c-8.533 17.067-21.333 25.6-38.4 25.6h-853.333c-17.067 0-29.867-8.533-38.4-25.6-8.533-12.8-4.267-29.867 4.267-46.933l332.8-388.267v-264.533c0-17.067 8.533-29.867 21.333-38.4l170.667-85.333c8.533-4.267 12.8-4.267 21.333-4.267s17.067 0 21.333 8.533 21.333 21.333 21.333 34.133v349.867l332.8 392.533c8.533 12.8 12.8 29.867 4.267 42.667zM563.2 456.533c-4.267-8.533-8.533-17.067-8.533-29.867v-294.4l-85.333 42.667v251.733c0 8.533-4.267 21.333-8.533 29.867l-281.6 332.8h669.867l-285.867-332.8z" />
<glyph unicode="&#xe96d;" glyph-name="flag" d="M870.4 870.4c-17.067 8.533-34.133 4.267-46.933-8.533 0 0-38.4-29.867-140.8-29.867-55.467 0-102.4 21.333-153.6 38.4-59.733 25.6-115.2 46.933-187.733 46.933-136.533 0-192-46.933-200.533-55.467s-12.8-17.067-12.8-29.867v-810.667c0-21.333 21.333-42.667 42.667-42.667s42.667 21.333 42.667 42.667v277.333c17.067 8.533 59.733 21.333 128 21.333 55.467 0 102.4-21.333 153.6-38.4 59.733-25.6 115.2-46.933 187.733-46.933 136.533 0 192 46.933 200.533 55.467s12.8 17.067 12.8 29.867v512c0 17.067-8.533 29.867-25.6 38.4zM810.667 341.333c-17.067-8.533-59.733-21.333-128-21.333-55.467 0-102.4 21.333-153.6 38.4-59.733 25.6-115.2 46.933-187.733 46.933-55.467 0-98.133-8.533-128-17.067v422.4c17.067 8.533 59.733 21.333 128 21.333 55.467 0 102.4-21.333 153.6-38.4 59.733-25.6 115.2-46.933 187.733-46.933 55.467 0 98.133 8.533 128 17.067v-422.4z" />
<glyph unicode="&#xe96e;" glyph-name="folder-minus" d="M853.333 21.333h-682.667c-72.533 0-128 55.467-128 128v597.333c0 72.533 55.467 128 128 128h213.333c12.8 0 25.6-8.533 34.133-17.067l72.533-110.933h362.667c72.533 0 128-55.467 128-128v-469.333c0-72.533-55.467-128-128-128zM170.667 789.333c-25.6 0-42.667-17.067-42.667-42.667v-597.333c0-25.6 17.067-42.667 42.667-42.667h682.667c25.6 0 42.667 17.067 42.667 42.667v469.333c0 25.6-17.067 42.667-42.667 42.667h-384c-12.8 0-25.6 8.533-34.133 17.067l-72.533 110.933h-192zM640 320h-256c-25.6 0-42.667 17.067-42.667 42.667s17.067 42.667 42.667 42.667h256c25.6 0 42.667-17.067 42.667-42.667s-17.067-42.667-42.667-42.667z" />
<glyph unicode="&#xe96f;" glyph-name="folder-plus" d="M853.333 746.667h-362.667l-72.533 106.667c-4.267 12.8-21.333 21.333-34.133 21.333h-213.333c-72.533 0-128-55.467-128-128v-597.333c0-72.533 55.467-128 128-128h682.667c72.533 0 128 55.467 128 128v469.333c0 72.533-55.467 128-128 128zM896 149.333c0-21.333-21.333-42.667-42.667-42.667h-682.667c-21.333 0-42.667 21.333-42.667 42.667v597.333c0 21.333 21.333 42.667 42.667 42.667h192l72.533-106.667c4.267-12.8 21.333-21.333 34.133-21.333h384c21.333 0 42.667-21.333 42.667-42.667v-469.333zM682.667 362.667c0-21.333-21.333-42.667-42.667-42.667h-85.333v-85.333c0-21.333-21.333-42.667-42.667-42.667s-42.667 21.333-42.667 42.667v85.333h-85.333c-21.333 0-42.667 21.333-42.667 42.667s21.333 42.667 42.667 42.667h85.333v85.333c0 21.333 21.333 42.667 42.667 42.667s42.667-21.333 42.667-42.667v-85.333h85.333c21.333 0 42.667-21.333 42.667-42.667z" />
<glyph unicode="&#xe970;" glyph-name="folder" d="M853.333 21.333h-682.667c-72.533 0-128 55.467-128 128v597.333c0 72.533 55.467 128 128 128h213.333c12.8 0 25.6-8.533 34.133-17.067l72.533-110.933h362.667c72.533 0 128-55.467 128-128v-469.333c0-72.533-55.467-128-128-128zM170.667 789.333c-25.6 0-42.667-17.067-42.667-42.667v-597.333c0-25.6 17.067-42.667 42.667-42.667h682.667c25.6 0 42.667 17.067 42.667 42.667v469.333c0 25.6-17.067 42.667-42.667 42.667h-384c-12.8 0-25.6 8.533-34.133 17.067l-72.533 110.933h-192z" />
<glyph unicode="&#xe971;" glyph-name="framer" d="M512-64c-12.8 0-21.333 4.267-29.867 12.8l-298.667 298.667c-4.267 4.267-8.533 8.533-8.533 12.8-4.267 4.267-4.267 12.8-4.267 17.067v0c0 0 0 0 0 0v298.667c0 25.6 17.067 42.667 42.667 42.667h196.267l-226.133 226.133c-12.8 12.8-17.067 29.867-8.533 46.933 4.267 17.067 21.333 25.6 38.4 25.6h597.333c25.6 0 42.667-17.067 42.667-42.667v-298.667c0-25.6-17.067-42.667-42.667-42.667h-196.267l226.133-226.133c12.8-12.8 17.067-29.867 8.533-46.933-4.267-17.067-21.333-25.6-38.4-25.6h-256v-256c0-17.067-8.533-34.133-25.6-38.4-4.267-4.267-12.8-4.267-17.067-4.267zM315.733 234.667l153.6-153.6v153.6h-153.6zM512 320h196.267l-213.333 213.333h-238.933v-213.333h256zM529.067 618.667h238.933v213.333h-452.267l213.333-213.333z" />
<glyph unicode="&#xe972;" glyph-name="frown" d="M512-21.333c-260.267 0-469.333 209.067-469.333 469.333s209.067 469.333 469.333 469.333 469.333-209.067 469.333-469.333-209.067-469.333-469.333-469.333zM512 832c-213.333 0-384-170.667-384-384s170.667-384 384-384c213.333 0 384 170.667 384 384s-170.667 384-384 384zM682.667 234.667c-12.8 0-25.6 4.267-34.133 17.067 0 0-55.467 68.267-136.533 68.267s-136.533-68.267-136.533-68.267c-12.8-17.067-42.667-21.333-59.733-8.533s-21.333 42.667-8.533 59.733c4.267 4.267 76.8 102.4 204.8 102.4s200.533-98.133 204.8-102.4c12.8-17.067 8.533-46.933-8.533-59.733-8.533-4.267-17.067-8.533-25.6-8.533zM384 533.333c-25.6 0-42.667 17.067-42.667 42.667s17.067 42.667 42.667 42.667v0c25.6 0 42.667-17.067 42.667-42.667s-17.067-42.667-42.667-42.667zM640 533.333c-25.6 0-42.667 17.067-42.667 42.667s17.067 42.667 42.667 42.667v0c25.6 0 42.667-17.067 42.667-42.667s-17.067-42.667-42.667-42.667z" />
<glyph unicode="&#xe973;" glyph-name="gift" d="M938.667 704h-98.133c8.533 21.333 12.8 42.667 12.8 64 0 81.067-68.267 149.333-149.333 149.333-98.133 0-157.867-68.267-192-132.267-34.133 64-93.867 132.267-192 132.267-81.067 0-149.333-68.267-149.333-149.333 0-21.333 4.267-42.667 12.8-64h-98.133c-21.333 0-42.667-21.333-42.667-42.667v-213.333c0-21.333 21.333-42.667 42.667-42.667h42.667v-384c0-21.333 21.333-42.667 42.667-42.667h682.667c21.333 0 42.667 21.333 42.667 42.667v384h42.667c21.333 0 42.667 21.333 42.667 42.667v213.333c0 21.333-21.333 42.667-42.667 42.667zM256 768c0 34.133 29.867 64 64 64 72.533 0 115.2-76.8 136.533-128h-136.533c-34.133 0-64 29.867-64 64zM469.333 64h-256v341.333h256v-341.333zM469.333 490.667h-341.333v128h341.333v-128zM704 832c34.133 0 64-29.867 64-64s-29.867-64-64-64h-136.533c21.333 51.2 64 128 136.533 128zM810.667 64h-256v341.333h256v-341.333zM896 490.667h-341.333v128h341.333v-128z" />
<glyph unicode="&#xe974;" glyph-name="git-branch" d="M768 874.667c-93.867 0-170.667-76.8-170.667-170.667 0-76.8 51.2-145.067 128-166.4-17.067-157.867-145.067-285.867-302.933-302.933-17.067 59.733-64 106.667-123.733 119.467v477.867c0 21.333-21.333 42.667-42.667 42.667s-42.667-21.333-42.667-42.667v-473.6c-72.533-17.067-128-85.333-128-166.4 0-93.867 76.8-170.667 170.667-170.667 81.067 0 149.333 55.467 166.4 128 204.8 17.067 371.2 183.467 388.267 388.267 76.8 17.067 128 85.333 128 166.4 0 93.867-76.8 170.667-170.667 170.667zM256 106.667c-46.933 0-85.333 38.4-85.333 85.333s38.4 85.333 85.333 85.333 85.333-38.4 85.333-85.333-38.4-85.333-85.333-85.333zM768 618.667c-46.933 0-85.333 38.4-85.333 85.333s38.4 85.333 85.333 85.333 85.333-38.4 85.333-85.333-38.4-85.333-85.333-85.333z" />
<glyph unicode="&#xe975;" glyph-name="git-commit" d="M981.333 490.667h-256c0 0-4.267 0-4.267 0-21.333 98.133-106.667 170.667-209.067 170.667s-187.733-72.533-209.067-170.667c0 0-4.267 0-4.267 0h-256c-21.333 0-42.667-21.333-42.667-42.667s21.333-42.667 42.667-42.667h256c0 0 4.267 0 4.267 0 21.333-98.133 106.667-170.667 209.067-170.667s187.733 72.533 209.067 170.667c0 0 4.267 0 4.267 0h256c21.333 0 42.667 21.333 42.667 42.667s-21.333 42.667-42.667 42.667zM512 320c-72.533 0-128 55.467-128 128s55.467 128 128 128 128-55.467 128-128-55.467-128-128-128z" />
<glyph unicode="&#xe976;" glyph-name="git-merge" d="M768 362.667c-76.8 0-145.067-51.2-166.4-128-157.867 17.067-285.867 145.067-302.933 302.933 72.533 21.333 128 85.333 128 166.4 0 93.867-76.8 170.667-170.667 170.667s-170.667-76.8-170.667-170.667c0-81.067 55.467-145.067 128-166.4v-473.6c0-21.333 21.333-42.667 42.667-42.667s42.667 21.333 42.667 42.667v256c72.533-93.867 179.2-157.867 302.933-170.667 17.067-76.8 85.333-128 166.4-128 93.867 0 170.667 76.8 170.667 170.667s-76.8 170.667-170.667 170.667zM256 618.667c-46.933 0-85.333 38.4-85.333 85.333s38.4 85.333 85.333 85.333 85.333-38.4 85.333-85.333-38.4-85.333-85.333-85.333zM768 106.667c-46.933 0-85.333 38.4-85.333 85.333s38.4 85.333 85.333 85.333 85.333-38.4 85.333-85.333-38.4-85.333-85.333-85.333z" />
<glyph unicode="&#xe977;" glyph-name="git-pull-request" d="M256 874.667c-93.867 0-170.667-76.8-170.667-170.667 0-81.067 55.467-145.067 128-166.4v-473.6c0-21.333 21.333-42.667 42.667-42.667s42.667 21.333 42.667 42.667v473.6c72.533 17.067 128 85.333 128 166.4 0 93.867-76.8 170.667-170.667 170.667zM256 618.667c-46.933 0-85.333 38.4-85.333 85.333s38.4 85.333 85.333 85.333 85.333-38.4 85.333-85.333-38.4-85.333-85.333-85.333zM810.667 358.4v260.267c0 72.533-55.467 128-128 128h-128c-21.333 0-42.667-21.333-42.667-42.667s21.333-42.667 42.667-42.667h128c21.333 0 42.667-21.333 42.667-42.667v-260.267c-72.533-17.067-128-85.333-128-166.4 0-93.867 76.8-170.667 170.667-170.667s170.667 76.8 170.667 170.667c0 81.067-55.467 145.067-128 166.4zM768 106.667c-46.933 0-85.333 38.4-85.333 85.333s38.4 85.333 85.333 85.333 85.333-38.4 85.333-85.333-38.4-85.333-85.333-85.333z" />
<glyph unicode="&#xe978;" glyph-name="github" d="M682.667-21.333c-25.6 0-42.667 17.067-42.667 42.667v166.4c4.267 34.133-8.533 59.733-29.867 81.067-12.8 12.8-17.067 29.867-8.533 42.667 4.267 17.067 21.333 25.6 34.133 29.867 123.733 12.8 238.933 55.467 238.933 256 0 46.933-17.067 93.867-51.2 132.267-12.8 12.8-12.8 29.867-8.533 42.667 12.8 34.133 12.8 68.267 4.267 102.4-21.333-4.267-55.467-17.067-110.933-55.467-8.533-8.533-21.333-8.533-34.133-4.267-89.6 25.6-187.733 25.6-277.333 0-12.8-4.267-25.6-4.267-38.4 4.267-51.2 38.4-89.6 51.2-110.933 55.467-8.533-34.133-8.533-68.267 4.267-102.4 4.267-17.067 4.267-34.133-8.533-42.667-34.133-38.4-51.2-85.333-51.2-132.267 0-200.533 115.2-243.2 238.933-256 17.067 0 29.867-12.8 34.133-29.867s0-34.133-8.533-42.667c-21.333-21.333-29.867-46.933-29.867-76.8v-38.4c0 0 0-4.267 0-4.267v-123.733c0-25.6-17.067-42.667-42.667-42.667s-42.667 17.067-42.667 42.667v72.533c-128-21.333-183.467 51.2-221.867 98.133-17.067 21.333-29.867 38.4-46.933 42.667-21.333 4.267-38.4 29.867-29.867 51.2 4.267 21.333 29.867 38.4 51.2 29.867 42.667-12.8 68.267-42.667 93.867-72.533 34.133-46.933 64-81.067 153.6-64v4.267c0 25.6 4.267 55.467 12.8 76.8-119.467 25.6-247.467 102.4-247.467 328.533 0 64 21.333 123.733 59.733 170.667-17.067 59.733-12.8 115.2 12.8 170.667 4.267 12.8 12.8 21.333 25.6 25.6 17.067 4.267 72.533 12.8 187.733-59.733 93.867 21.333 192 21.333 281.6 0 110.933 72.533 170.667 64 187.733 59.733 12.8-4.267 21.333-12.8 25.6-25.6 21.333-55.467 25.6-110.933 12.8-166.4 38.4-46.933 59.733-106.667 59.733-170.667 0-243.2-145.067-307.2-247.467-332.8 8.533-25.6 12.8-55.467 12.8-81.067v-162.133c0-25.6-17.067-42.667-42.667-42.667z" />
<glyph unicode="&#xe979;" glyph-name="gitlab" d="M1024 401.067l-162.133 477.867c-4.267 8.533-8.533 17.067-17.067 25.6-21.333 21.333-59.733 21.333-81.067 0-8.533-4.267-12.8-12.8-17.067-25.6l-93.867-290.133h-281.6l-93.867 290.133c-4.267 8.533-8.533 17.067-17.067 25.6-21.333 21.333-59.733 21.333-81.067 0-8.533-4.267-12.8-12.8-17.067-21.333l-157.867-482.133c-8.533-34.133 0-68.267 29.867-89.6l452.267-328.533c8.533-4.267 17.067-8.533 25.6-8.533s17.067 4.267 25.6 8.533l452.267 328.533c29.867 17.067 42.667 51.2 34.133 89.6zM512 68.267l-426.667 307.2 132.267 405.333 81.067-247.467c4.267-17.067 21.333-29.867 42.667-29.867h341.333c17.067 0 34.133 12.8 42.667 29.867l81.067 247.467 81.067-247.467 51.2-153.6-426.667-311.467z" />
<glyph unicode="&#xe97a;" glyph-name="globe" d="M512 917.333c-260.267 0-469.333-209.067-469.333-469.333s209.067-469.333 469.333-469.333 469.333 209.067 469.333 469.333-209.067 469.333-469.333 469.333zM891.733 490.667h-170.667c-8.533 119.467-51.2 230.4-115.2 328.533 153.6-38.4 268.8-170.667 285.867-328.533zM635.733 490.667h-247.467c8.533 115.2 55.467 226.133 123.733 320 72.533-93.867 115.2-204.8 123.733-320zM413.867 819.2c-64-98.133-102.4-209.067-110.933-328.533h-170.667c17.067 157.867 132.267 290.133 281.6 328.533zM132.267 405.333h170.667c8.533-119.467 51.2-230.4 115.2-328.533-153.6 38.4-268.8 170.667-285.867 328.533zM388.267 405.333h251.733c-8.533-115.2-55.467-226.133-123.733-320-76.8 93.867-119.467 204.8-128 320zM610.133 76.8c64 98.133 102.4 209.067 115.2 328.533h170.667c-21.333-157.867-136.533-290.133-285.867-328.533z" />
<glyph unicode="&#xe97b;" glyph-name="google" d="M1024 448c0-38.4-4.267-72.533-12.8-106.667-25.6-119.467-89.6-221.867-179.2-294.4-85.333-68.267-200.533-110.933-320-110.933-196.267 0-362.667 110.933-452.267 268.8-38.4 72.533-59.733 153.6-59.733 243.2 0 85.333 21.333 166.4 55.467 234.667 85.333 166.4 260.267 277.333 456.533 277.333 123.733 0 238.933-42.667 328.533-119.467l-166.4-136.533c-46.933 29.867-102.4 46.933-162.133 46.933-132.267 0-247.467-85.333-285.867-204.8v0c-12.8-29.867-17.067-64-17.067-98.133 0-38.4 8.533-72.533 21.333-106.667 42.667-115.2 153.6-196.267 285.867-196.267 55.467 0 106.667 17.067 153.6 42.667 59.733 34.133 106.667 89.6 132.267 157.867h-273.067v196.267h490.667c0-29.867 4.267-59.733 4.267-93.867z" />
</font>
</defs>
</svg>
